      <svg version="1.1" xmlns="http://www.w3.org/2000/svg"
           width="1024" height="1024" viewBox="0 0 1024 1024">
        <!-- B&W outline placeholder for coloring: page-7-jellyfish -->
        <!-- Generated by scripts/generate_coloring_placeholders.py -->
        <rect width="1024" height="1024" fill="white"/>

        <!-- Mermaid body: head -->
<ellipse cx="512" cy="260" rx="90" ry="100"
         fill="white" stroke="#000" stroke-width="3"/>
<!-- Eyes -->
<ellipse cx="485" cy="252" rx="14" ry="16"
         fill="white" stroke="#000" stroke-width="3"/>
<ellipse cx="539" cy="252" rx="14" ry="16"
         fill="white" stroke="#000" stroke-width="3"/>
<circle  cx="485" cy="254" r="7" fill="#000"/>
<circle  cx="539" cy="254" r="7" fill="#000"/>
<!-- Nose -->
<path d="M 508,275 Q 512,281 516,275" fill="none" stroke="#000" stroke-width="2"/>
<!-- Mouth -->
<path d="M 498,292 Q 512,303 526,292" fill="none" stroke="#000" stroke-width="2.5"/>
<!-- Hair -->
<path d="M 435,200 Q 400,240 398,320 Q 440,310 450,250 Q 460,210 440,195 Z"
      fill="white" stroke="#000" stroke-width="3" stroke-linejoin="round"/>
<path d="M 589,200 Q 624,240 626,320 Q 584,310 574,250 Q 564,210 584,195 Z"
      fill="white" stroke="#000" stroke-width="3" stroke-linejoin="round"/>
<path d="M 435,200 Q 512,180 589,200" fill="none" stroke="#000" stroke-width="3"/>
<!-- Torso left side -->
<path d="M 430,348 Q 415,400 418,470 L 487,474 L 487,348 Z"
      fill="white" stroke="#000" stroke-width="3"/>
<!-- Torso right side -->
<path d="M 594,348 Q 609,400 606,470 L 537,474 L 537,348 Z"
      fill="white" stroke="#000" stroke-width="3"/>
<!-- Torso center -->
<rect x="487" y="348" width="50" height="126"
      fill="white" stroke="#000" stroke-width="3" rx="2"/>
<!-- Waist band -->
<path d="M 418,470 Q 460,488 512,492 Q 564,488 606,470 L 537,474 L 487,474 Z"
      fill="white" stroke="#000" stroke-width="3"/>
<!-- Tail -->
<path d="M 487,490 Q 445,545 440,620 Q 480,680 512,692 Q 544,680 584,620 Q 579,545 537,490 Z"
      fill="white" stroke="#000" stroke-width="3" stroke-linejoin="round"/>
<!-- Left fin -->
<path d="M 440,620 Q 395,655 390,695 Q 418,700 445,675"
      fill="white" stroke="#000" stroke-width="3"/>
<!-- Right fin -->
<path d="M 584,620 Q 629,655 634,695 Q 606,700 579,675"
      fill="white" stroke="#000" stroke-width="3"/>
<!-- Left arm -->
<path d="M 418,378 Q 380,415 376,460 Q 392,472 407,450 Q 416,418 430,398"
      fill="white" stroke="#000" stroke-width="3"/>
<!-- Right arm -->
<path d="M 606,378 Q 644,415 648,460 Q 632,472 617,450 Q 608,418 594,398"
      fill="white" stroke="#000" stroke-width="3"/>
<!-- Left hand -->
<ellipse cx="382" cy="468" rx="15" ry="11"
         fill="white" stroke="#000" stroke-width="3"/>
<!-- Right hand -->
<ellipse cx="642" cy="468" rx="15" ry="11"
         fill="white" stroke="#000" stroke-width="3"/>

        <!-- Scene: Jellyfish meadow -->
<!-- Jellyfish 1 (large, left) -->
<path d="M 180,200 Q 100,200 90,280 Q 80,360 180,370 Q 280,360 270,280 Q 260,200 180,200 Z"
      fill="white" stroke="#000" stroke-width="3"/>
<!-- Jellyfish 1 inner bell detail -->
<path d="M 130,260 Q 180,240 230,260 Q 220,290 180,295 Q 140,290 130,260 Z"
      fill="white" stroke="#000" stroke-width="2.5"/>
<!-- Jellyfish 1 tentacles -->
<path d="M 135,368 Q 128,430 140,510 Q 148,570 135,630"
      fill="none" stroke="#000" stroke-width="2" stroke-linecap="round"/>
<path d="M 165,372 Q 155,450 165,530 Q 172,590 158,660"
      fill="none" stroke="#000" stroke-width="2" stroke-linecap="round"/>
<path d="M 195,372 Q 198,455 192,535 Q 188,595 198,665"
      fill="none" stroke="#000" stroke-width="2" stroke-linecap="round"/>
<path d="M 225,368 Q 235,445 225,525 Q 218,588 230,650"
      fill="none" stroke="#000" stroke-width="2" stroke-linecap="round"/>
<!-- Jellyfish 2 (small, right) -->
<path d="M 800,140 Q 740,140 732,200 Q 724,260 800,268 Q 876,260 868,200 Q 860,140 800,140 Z"
      fill="white" stroke="#000" stroke-width="3"/>
<!-- Jellyfish 2 inner bell -->
<path d="M 762,185 Q 800,172 838,185 Q 830,205 800,208 Q 770,205 762,185 Z"
      fill="white" stroke="#000" stroke-width="2"/>
<!-- Jellyfish 2 tentacles -->
<path d="M 762,266 Q 755,320 765,380 Q 772,430 760,490"
      fill="none" stroke="#000" stroke-width="2" stroke-linecap="round"/>
<path d="M 800,270 Q 800,330 800,395 Q 800,448 795,508"
      fill="none" stroke="#000" stroke-width="2" stroke-linecap="round"/>
<path d="M 838,266 Q 845,320 835,380 Q 828,430 840,490"
      fill="none" stroke="#000" stroke-width="2" stroke-linecap="round"/>
<!-- Jellyfish 3 (tiny, background) -->
<path d="M 680,380 Q 648,380 644,412 Q 640,444 680,448 Q 720,444 716,412 Q 712,380 680,380 Z"
      fill="white" stroke="#000" stroke-width="2.5"/>
<path d="M 660,447 Q 656,478 662,510"
      fill="none" stroke="#000" stroke-width="1.8" stroke-linecap="round"/>
<path d="M 680,449 Q 680,482 678,514"
      fill="none" stroke="#000" stroke-width="1.8" stroke-linecap="round"/>
<path d="M 700,447 Q 704,478 698,510"
      fill="none" stroke="#000" stroke-width="1.8" stroke-linecap="round"/>
<!-- Bubbles -->
<circle cx="380" cy="350" r="10" fill="none" stroke="#000" stroke-width="2"/>
<circle cx="400" cy="318" r="7"  fill="none" stroke="#000" stroke-width="2"/>
      </svg>
