      <svg version="1.1" xmlns="http://www.w3.org/2000/svg"
           width="1024" height="1024" viewBox="0 0 1024 1024">
        <!-- B&W outline placeholder for coloring: page-9-starfish -->
        <!-- Generated by scripts/generate_coloring_placeholders.py -->
        <rect width="1024" height="1024" fill="white"/>

        <!-- Mermaid body: head -->
<ellipse cx="512" cy="260" rx="90" ry="100"
         fill="white" stroke="#000" stroke-width="3"/>
<!-- Eyes -->
<ellipse cx="485" cy="252" rx="14" ry="16"
         fill="white" stroke="#000" stroke-width="3"/>
<ellipse cx="539" cy="252" rx="14" ry="16"
         fill="white" stroke="#000" stroke-width="3"/>
<circle  cx="485" cy="254" r="7" fill="#000"/>
<circle  cx="539" cy="254" r="7" fill="#000"/>
<!-- Nose -->
<path d="M 508,275 Q 512,281 516,275" fill="none" stroke="#000" stroke-width="2"/>
<!-- Mouth -->
<path d="M 498,292 Q 512,303 526,292" fill="none" stroke="#000" stroke-width="2.5"/>
<!-- Hair -->
<path d="M 435,200 Q 400,240 398,320 Q 440,310 450,250 Q 460,210 440,195 Z"
      fill="white" stroke="#000" stroke-width="3" stroke-linejoin="round"/>
<path d="M 589,200 Q 624,240 626,320 Q 584,310 574,250 Q 564,210 584,195 Z"
      fill="white" stroke="#000" stroke-width="3" stroke-linejoin="round"/>
<path d="M 435,200 Q 512,180 589,200" fill="none" stroke="#000" stroke-width="3"/>
<!-- Torso left side -->
<path d="M 430,348 Q 415,400 418,470 L 487,474 L 487,348 Z"
      fill="white" stroke="#000" stroke-width="3"/>
<!-- Torso right side -->
<path d="M 594,348 Q 609,400 606,470 L 537,474 L 537,348 Z"
      fill="white" stroke="#000" stroke-width="3"/>
<!-- Torso center -->
<rect x="487" y="348" width="50" height="126"
      fill="white" stroke="#000" stroke-width="3" rx="2"/>
<!-- Waist band -->
<path d="M 418,470 Q 460,488 512,492 Q 564,488 606,470 L 537,474 L 487,474 Z"
      fill="white" stroke="#000" stroke-width="3"/>
<!-- Tail -->
<path d="M 487,490 Q 445,545 440,620 Q 480,680 512,692 Q 544,680 584,620 Q 579,545 537,490 Z"
      fill="white" stroke="#000" stroke-width="3" stroke-linejoin="round"/>
<!-- Left fin -->
<path d="M 440,620 Q 395,655 390,695 Q 418,700 445,675"
      fill="white" stroke="#000" stroke-width="3"/>
<!-- Right fin -->
<path d="M 584,620 Q 629,655 634,695 Q 606,700 579,675"
      fill="white" stroke="#000" stroke-width="3"/>
<!-- Left arm -->
<path d="M 418,378 Q 380,415 376,460 Q 392,472 407,450 Q 416,418 430,398"
      fill="white" stroke="#000" stroke-width="3"/>
<!-- Right arm -->
<path d="M 606,378 Q 644,415 648,460 Q 632,472 617,450 Q 608,418 594,398"
      fill="white" stroke="#000" stroke-width="3"/>
<!-- Left hand -->
<ellipse cx="382" cy="468" rx="15" ry="11"
         fill="white" stroke="#000" stroke-width="3"/>
<!-- Right hand -->
<ellipse cx="642" cy="468" rx="15" ry="11"
         fill="white" stroke="#000" stroke-width="3"/>

        <!-- Scene: Starfish beach / ocean floor -->
<!-- Large starfish (center-left) -->
<path d="M 220,820 L 240,750 L 280,820 L 220,780 L 300,780 Z"
      fill="white" stroke="#000" stroke-width="3" stroke-linejoin="round"/>
<!-- Starfish arm texture dots -->
<circle cx="230" cy="795" r="4" fill="none" stroke="#000" stroke-width="1.5"/>
<circle cx="260" cy="782" r="4" fill="none" stroke="#000" stroke-width="1.5"/>
<circle cx="265" cy="808" r="4" fill="none" stroke="#000" stroke-width="1.5"/>
<!-- Second starfish (right) -->
<path d="M 720,860 L 748,792 L 776,860 L 716,818 L 790,818 Z"
      fill="white" stroke="#000" stroke-width="3" stroke-linejoin="round"/>
<!-- Starfish 2 texture -->
<circle cx="732" cy="835" r="4" fill="none" stroke="#000" stroke-width="1.5"/>
<circle cx="753" cy="824" r="4" fill="none" stroke="#000" stroke-width="1.5"/>
<!-- Sand dollar 1 -->
<circle cx="380" cy="920" r="38" fill="white" stroke="#000" stroke-width="3"/>
<circle cx="380" cy="920" r="24" fill="none" stroke="#000" stroke-width="2"/>
<path d="M 380,896 L 380,944 M 356,920 L 404,920 M 363,903 L 397,937 M 363,937 L 397,903"
      fill="none" stroke="#000" stroke-width="1.8"/>
<!-- Sand dollar 2 (smaller) -->
<circle cx="660" cy="935" r="28" fill="white" stroke="#000" stroke-width="3"/>
<circle cx="660" cy="935" r="17" fill="none" stroke="#000" stroke-width="2"/>
<path d="M 660,917 L 660,953 M 642,935 L 678,935"
      fill="none" stroke="#000" stroke-width="1.8"/>
<!-- Seashell -->
<path d="M 500,950 Q 480,930 490,910 Q 510,900 530,910 Q 540,930 520,950 Z"
      fill="white" stroke="#000" stroke-width="2.5"/>
<path d="M 490,930 Q 510,922 530,930" fill="none" stroke="#000" stroke-width="1.8"/>
<path d="M 492,942 Q 510,936 528,942" fill="none" stroke="#000" stroke-width="1.8"/>
<!-- Sandy ocean floor -->
<path d="M 0,975 Q 256,960 512,968 Q 768,976 1024,960 L 1024,1024 L 0,1024 Z"
      fill="white" stroke="#000" stroke-width="3"/>
<!-- Sand ripple texture -->
<path d="M 100,985 Q 200,980 300,986" fill="none" stroke="#000" stroke-width="1.5" stroke-linecap="round"/>
<path d="M 600,990 Q 720,984 840,991" fill="none" stroke="#000" stroke-width="1.5" stroke-linecap="round"/>
      </svg>
