<?xml version="1.0" encoding="UTF-8"?>
<!-- Generator: visioncortex VTracer 0.6.12 -->
<svg version="1.1" xmlns="http://www.w3.org/2000/svg" width="1024" height="1024" viewBox="0 0 1024 1024">
<path d="M0 0 C0.787 0.38 1.575 0.76 2.386 1.151 C24.651 12.048 45.059 26.35 63.117 43.305 C65.977 45.978 68.89 48.583 71.812 51.188 C76.241 55.218 80.169 59.409 84 64 C84.797 64.897 85.593 65.794 86.414 66.719 C99.839 81.93 110.444 99.159 120 117 C120.38 117.708 120.76 118.415 121.151 119.145 C142.985 160.597 151.281 213.008 138.152 258.391 C132.913 274.803 126.291 288.74 115 302 C114.367 302.826 113.734 303.653 113.082 304.504 C105.66 313.402 94.698 320.721 84 325 C84.33 330.94 84.66 336.88 85 343 C103.455 342.316 117.339 337.449 130.191 323.699 C137.509 316.825 146.259 312.422 156.348 312.695 C163.047 313.465 168.34 315.848 173 320.75 C177.04 325.896 178.162 330.266 177.777 336.746 C177.139 341.366 175.284 345.009 173.062 349.062 C168.237 358.015 164.882 367.134 167.641 377.379 C168.355 379.281 169.172 381.144 170 383 C170.33 383.99 170.66 384.98 171 386 C173.375 387.125 173.375 387.125 176 388 C176.99 388.33 177.98 388.66 179 389 C185.151 389.37 189.923 388.361 195.75 386.5 C204.406 383.94 212.883 381.837 221.5 385.688 C226.543 388.659 229.112 392.535 231 398 C232.102 406.454 230.558 413.288 225.422 420.09 C223.68 422.134 221.871 424.074 220 426 C219.465 426.574 218.93 427.147 218.379 427.738 C215.032 431.23 211.46 434.288 207.688 437.312 C193.488 448.831 180.671 463.247 176.145 481.438 C175.971 485.723 177.212 488.456 179.188 492.125 C186.372 506.479 189.398 521.227 189.438 537.25 C189.441 538.363 189.445 539.476 189.449 540.623 C189.327 549.642 187.965 558.082 185.779 566.819 C184.168 573.334 183.708 579.293 184 586 C185.039 586.159 186.078 586.317 187.148 586.48 C207.127 589.732 207.127 589.732 213.062 597.562 C217.882 606.114 216.587 615.905 214.035 625.082 C209.643 637.464 200.626 646.241 189 652 C178.161 656.405 164.571 658.596 153.375 654.25 C147.923 651.652 142.986 648.599 139 644 C139 643.34 139 642.68 139 642 C124.182 641.304 110.554 644.531 96.333 648.222 C87.002 650.596 77.662 652.161 68 652 C68.083 652.334 68.083 652.334 68.503 654.022 C80.084 701.034 83.925 751.813 58 794.938 C52.153 804.05 45.372 812.09 38 820 C37.274 820.803 36.549 821.606 35.801 822.434 C11.314 848.417 -25.793 861.872 -60.934 863.223 C-98.031 864.122 -131.689 852.266 -160.074 828.434 C-162 827 -162 827 -164 827 C-164.557 827.722 -165.114 828.444 -165.688 829.188 C-170.089 834.541 -174.919 837.711 -181.812 838.898 C-187.405 839.158 -191.122 836.102 -195.25 832.75 C-211.122 817.963 -219.91 798.545 -221 777 C-221.681 777.387 -222.361 777.773 -223.062 778.172 C-238.011 786.203 -253.465 788.435 -270.375 787.75 C-276.426 787.709 -280.154 789.508 -285 793 C-285.381 793.271 -285.381 793.271 -287.309 794.645 C-289.606 796.361 -291.812 798.147 -294 800 C-294.596 800.499 -295.191 800.998 -295.805 801.512 C-307.222 811.956 -315.944 829.112 -317.205 844.505 C-317.902 863.97 -315.253 881.51 -301.688 896.438 C-290.561 908.111 -276.248 915.599 -259.984 916.336 C-249.684 916.512 -240.619 916.099 -231 912 C-230.135 911.661 -229.27 911.322 -228.379 910.973 C-216.555 905.789 -208.213 896.408 -203.012 884.793 C-198.591 873.165 -199.545 861.427 -204 850 C-205.965 846.278 -208.239 843.166 -211 840 C-211.523 839.357 -212.047 838.714 -212.586 838.051 C-220.344 829.327 -231.607 825.587 -242.938 824.688 C-251.501 824.977 -258.838 828.089 -265 834 C-270.687 840.542 -272.365 845.218 -272.281 853.918 C-271.756 859.669 -269.644 863.438 -265.5 867.375 C-265.087 867.643 -265.087 867.643 -263 869 C-262.381 869.413 -261.762 869.825 -261.125 870.25 C-257.242 871.62 -253.475 871.543 -249.625 870.125 C-248 869 -248 869 -247 867 C-246.97 864.691 -247.067 862.401 -247.16 860.094 C-247 858 -247 858 -245 856 C-242.375 855.875 -242.375 855.875 -240 856 C-237.986 860.153 -237.525 863.404 -238 868 C-239.621 872.629 -242.255 876.119 -246.758 878.332 C-252.752 880.118 -258.986 880.131 -264.852 877.93 C-272.186 873.875 -276.919 868.382 -279.875 860.562 C-282.207 852.456 -281.426 844.699 -278 837 C-271.585 826.723 -263.535 820.623 -252 817 C-238.547 814.106 -226.463 817.939 -215 825 C-203.868 833.372 -195.202 844.787 -192.285 858.664 C-190.261 875.246 -193.921 889.256 -203.895 902.52 C-214.596 915.444 -230.554 923.563 -247.246 925.223 C-268.074 926.276 -287.164 921.114 -303 907 C-303.674 906.419 -304.348 905.837 -305.043 905.238 C-318.295 893.012 -325.182 875.008 -326.219 857.254 C-326.976 833.739 -318.02 813.305 -302.228 796.172 C-297.491 791.242 -292.127 787.064 -286 784 C-286.543 783.636 -287.085 783.273 -287.645 782.898 C-292.111 779.76 -295.423 777.422 -297 772 C-298.653 756.37 -291.51 745.438 -283 733 C-284.32 731.35 -285.64 729.7 -287 728 C-287.542 728.499 -288.085 728.998 -288.644 729.513 C-293.942 734.316 -299.379 738.671 -305.25 742.75 C-306.106 743.345 -306.961 743.94 -307.843 744.553 C-331.524 760.764 -359.159 775.067 -388.5 775.25 C-388.914 775.26 -388.914 775.26 -391.012 775.312 C-396.983 775.35 -401.347 774.476 -405.875 770.25 C-407.575 766.85 -407.489 764.789 -407 761 C-404.511 754.67 -400.819 748.885 -397.234 743.129 C-394.61 738.603 -394.309 734.098 -395 729 C-395.778 726.895 -396.616 724.812 -397.5 722.75 C-402.046 711.495 -400.313 703.084 -396.16 692.166 C-391.897 680.727 -394.289 673.005 -399 662 C-403.062 651.957 -403.128 643.093 -399 633 C-397.199 629.49 -395.363 626.027 -393.426 622.59 C-390.425 615.034 -392.004 608.651 -394.875 601.312 C-395.414 599.871 -395.953 598.43 -396.492 596.988 C-396.75 596.308 -397.008 595.627 -397.274 594.926 C-399.818 588.18 -401.673 582.05 -398.812 575.125 C-394.62 570.209 -389.529 568.913 -383.312 568.312 C-355.668 566.443 -328.082 579.108 -307.566 596.949 C-297.899 605.569 -289.551 614.695 -282.531 625.629 C-281 628 -281 628 -280 629 C-280.016 628.332 -280.031 627.663 -280.048 626.975 C-280.598 599.922 -277.765 569.657 -258.312 548.812 C-256.289 546.465 -256.289 546.465 -255 544 C-255.301 540.703 -256.158 537.962 -257.23 534.836 C-258.241 531.111 -257.746 529.023 -256.078 525.617 C-254.355 523.032 -252.674 521.58 -250 520 C-249.434 519.93 -249.434 519.93 -246.57 519.574 C-243 518 -243 518 -241.828 515.93 C-240.793 513.042 -239.939 510.145 -239.125 507.188 C-238.469 505.012 -237.805 502.839 -237.133 500.668 C-236.792 499.562 -236.45 498.457 -236.099 497.318 C-234.365 492.081 -232.219 487.046 -230 482 C-229.602 481.093 -229.204 480.185 -228.793 479.251 C-227.87 477.163 -226.94 475.08 -226 473 C-226.681 473.413 -227.361 473.825 -228.062 474.25 C-259.117 492.75 -292.339 502.145 -328.469 493.254 C-342.036 489.599 -358.874 484.786 -369.242 474.852 C-373.694 471.863 -378.634 471.682 -383.875 471 C-417.248 466.116 -448.054 452.092 -468.742 424.406 C-470.992 421.216 -472.335 417.864 -473.812 414.25 C-478.685 404.678 -489.425 402.205 -499 399 C-499.708 398.749 -500.416 398.497 -501.146 398.238 C-512.409 394.291 -526.221 392.558 -537.75 396.562 C-543.753 399.507 -547.352 403.884 -549.75 410.062 C-550.182 411.37 -550.6 412.682 -551 414 C-552.946 419.946 -552.946 419.946 -554 421 C-557.065 421.245 -558.298 421.303 -561 420 C-572.661 406.578 -572.854 389.808 -572 373 C-570.017 357.12 -561.113 344.596 -549.09 334.574 C-544.229 330.917 -539.614 328.275 -534 326 C-534.871 325.49 -535.743 324.979 -536.641 324.453 C-554.354 313.774 -565.94 300.646 -571.309 280.254 C-576.009 258.135 -571.09 234.033 -559 215 C-557 213 -557 213 -554.375 212.875 C-553.591 212.916 -552.808 212.957 -552 213 C-550.537 216.31 -549.144 219.595 -547.934 223.008 C-543.126 236.43 -535.773 247.162 -522.875 253.875 C-510.016 259.734 -496.443 260.417 -483.039 256.031 C-471.11 251.493 -462.218 244.487 -455 234 C-454.709 233.582 -454.709 233.582 -453.234 231.469 C-442.204 214.178 -437.606 192.614 -431.926 173.086 C-431.011 170.035 -430.023 167.016 -429 164 C-430.16 164.046 -431.32 164.093 -432.516 164.141 C-445.659 164.51 -456.959 163.387 -467 154 C-473.564 147.368 -476.127 140.444 -476.188 131.25 C-475.943 115.769 -468.2 103.324 -460.348 90.355 C-457.937 86.142 -457.866 82.801 -457.824 78.016 C-457.801 76.59 -457.777 75.164 -457.752 73.738 C-457.717 71.514 -457.688 69.29 -457.674 67.066 C-457.542 49.045 -453.988 31.022 -441.188 17.438 C-431.804 8.714 -422.257 6.427 -409.789 6.664 C-398.128 7.225 -388.81 12.638 -380 20 C-379.135 20.714 -378.27 21.428 -377.379 22.164 C-367.14 30.984 -360.074 41.636 -353 53 C-352.261 52.238 -351.523 51.476 -350.762 50.691 C-344.182 43.967 -337.426 37.797 -330 32 C-328.791 31.016 -327.583 30.032 -326.375 29.047 C-285.837 -3.526 -234.133 -21.519 -183 -28 C-182.548 -28.059 -182.548 -28.059 -180.26 -28.355 C-119.251 -35.841 -55.408 -26.765 0 0 Z M-318 33 C-318.59 33.435 -319.181 33.87 -319.789 34.318 C-329.485 41.528 -338.335 49.591 -347 58 C-347.28 58.254 -347.28 58.254 -348.699 59.537 C-350 61 -350 61 -349.891 63.375 C-349.679 64.241 -349.468 65.108 -349.25 66 C-349.049 66.866 -348.848 67.733 -348.641 68.625 C-348.153 70.434 -347.592 72.223 -347 74 C-344.523 74.809 -344.523 74.809 -341.375 75.438 C-337.491 76.295 -334.387 77.116 -331.062 79.312 C-328 81 -328 81 -325.562 80.688 C-323.328 79.216 -321.583 77.74 -319.625 75.938 C-303.853 61.734 -281.349 53.095 -260.195 53.719 C-249.767 54.637 -241.076 57.048 -233.48 64.488 C-224.563 75.346 -224.859 90.777 -226 104 C-228.228 121.595 -236.226 138.839 -247.302 152.62 C-251.008 157.339 -252.199 161.739 -253.375 167.562 C-256.323 180.543 -261.073 193.949 -272.57 201.742 C-283.269 207.971 -293.782 209.539 -305.875 206.875 C-324.478 201.689 -335.717 190.25 -345 174 C-345.429 173.282 -345.859 172.564 -346.301 171.824 C-349.699 165.697 -351.223 158.73 -353 152 C-353.75 152.046 -354.5 152.093 -355.273 152.141 C-364.299 152.459 -371.523 151.074 -378.625 145.25 C-379.017 144.879 -379.017 144.879 -381 143 C-385.285 144.522 -388.934 146.766 -392.75 149.188 C-399.057 153.113 -405.477 156.071 -412.452 158.616 C-416.534 160.156 -418.684 161.321 -421 165 C-421.964 167.384 -421.964 167.384 -422.797 170.051 C-423.112 171.048 -423.427 172.045 -423.752 173.073 C-424.081 174.142 -424.411 175.211 -424.75 176.312 C-425.099 177.421 -425.449 178.53 -425.808 179.672 C-427.532 185.168 -429.209 190.676 -430.832 196.203 C-438.131 220.997 -447.194 245.333 -470.547 259.125 C-485.799 267.407 -501.521 268.912 -518.098 264.254 C-531.887 260.036 -543.603 250.073 -550.402 237.383 C-551.262 235.664 -552.103 233.937 -552.922 232.199 C-554 230 -554 230 -556 227 C-564.721 240.582 -567.117 260.213 -564.305 275.871 C-560.343 292.399 -551.37 305.698 -537 315 C-528.83 319.714 -518.528 323 -509 323 C-509 324.98 -509 326.96 -509 329 C-510.016 329.086 -511.032 329.173 -512.078 329.262 C-529.099 330.91 -542.972 337.164 -554.215 350.508 C-563.465 363.422 -566.629 378.895 -564.25 394.5 C-563.306 399.235 -561.879 403.558 -560 408 C-559.34 408 -558.68 408 -558 408 C-557.72 407.348 -557.441 406.695 -557.152 406.023 C-552.825 396.59 -548.011 392.374 -538.332 388.762 C-518.009 382.123 -497.749 390.751 -479.173 398.583 C-458.114 407.388 -432.203 413.11 -410 405 C-403.291 402.223 -397.753 399.098 -392.469 394.125 C-391 393 -391 393 -388.062 392.625 C-387.382 392.749 -386.701 392.873 -386 393 C-385.92 396.262 -386.372 398.321 -388.613 400.746 C-405.258 414.409 -425.313 416.391 -446 415 C-451.42 414.372 -456.692 413.259 -462 412 C-463.665 411.66 -465.332 411.324 -467 411 C-456.799 433.319 -433.218 448.275 -411.066 456.739 C-382.8 466.969 -350.745 467.269 -323 455 C-319.313 453.089 -315.718 451.034 -312.212 448.808 C-309.268 446.988 -307.563 445.953 -304.051 446.246 C-303.712 446.37 -303.712 446.37 -302 447 C-302.121 449.254 -302.121 449.254 -303 452 C-318.211 463.871 -339.29 468.517 -358 471 C-348.008 482.219 -327.421 486.507 -313 488 C-280.599 489.623 -251.406 483.189 -226 462 C-216.768 453.627 -216.768 453.627 -214 448 C-214.33 447.01 -214.66 446.02 -215 445 C-216.983 444.16 -216.983 444.16 -219.609 443.492 C-220.581 443.233 -221.553 442.973 -222.555 442.706 C-223.609 442.431 -224.664 442.157 -225.75 441.875 C-258.744 432.755 -290.86 416.091 -309 386 C-309.432 386.08 -309.432 386.08 -311.617 386.484 C-326.994 388.828 -340.685 385.455 -353.254 376.371 C-361.293 369.797 -366.952 361.094 -368.302 350.671 C-368.436 348.314 -368.468 345.986 -368.438 343.625 C-368.433 343.21 -368.433 343.21 -368.412 341.11 C-368.138 331.114 -365.178 323.926 -359.172 315.973 C-356.142 313.221 -352.707 311.677 -349 310 C-349.141 309.448 -349.282 308.895 -349.427 308.326 C-350.086 305.72 -350.731 303.11 -351.375 300.5 C-351.597 299.632 -351.818 298.765 -352.047 297.871 C-355.515 283.694 -356.377 269.648 -356.312 255.125 C-356.312 254.34 -356.311 253.555 -356.31 252.746 C-356.245 226.019 -356.245 226.019 -351 214 C-349.35 214.33 -347.7 214.66 -346 215 C-346.217 216.159 -346.433 217.318 -346.656 218.512 C-350.673 242.226 -351.822 269.488 -346 293 C-345.834 293.709 -345.667 294.418 -345.496 295.148 C-342.056 309.446 -335.98 323.278 -327 335 C-326.442 335.733 -325.884 336.467 -325.309 337.223 C-317.75 346.423 -308.38 352.653 -297 356 C-297.111 355.455 -297.221 354.91 -297.335 354.349 C-304.126 320.185 -304.773 285.257 -299.062 250.875 C-298.905 249.923 -298.747 248.972 -298.585 247.991 C-297.495 241.841 -295.921 235.942 -294 230 C-292.35 229.67 -290.7 229.34 -289 229 C-287.608 233.573 -288.588 237.115 -289.875 241.562 C-291.727 248.371 -292.732 254.927 -293 262 C-243.153 251.283 -197.429 219.273 -169 177 C-152.855 151.791 -152.855 151.791 -151 138 C-149.02 138 -147.04 138 -145 138 C-143.268 142.098 -144.909 145.422 -146.438 149.312 C-146.709 150.016 -146.981 150.72 -147.26 151.444 C-155.99 173.399 -170.283 192.517 -186.537 209.47 C-187.907 210.903 -189.259 212.353 -190.609 213.805 C-204.493 228.319 -222.158 240.813 -240 250 C-226.852 258.765 -198.261 253.468 -183.392 250.5 C-182.602 250.335 -181.813 250.17 -181 250 C-180.18 249.828 -179.36 249.657 -178.515 249.48 C-160.641 245.608 -143.855 239.49 -127.715 230.908 C-126.194 230.103 -124.661 229.323 -123.125 228.547 C-109.126 221.298 -96.554 211.66 -85 201 C-84.42 200.465 -83.84 199.931 -83.243 199.38 C-58.199 175.987 -40.251 145.371 -36 111 C-34.25 110.25 -34.25 110.25 -32 110 C-27.511 113.417 -25.513 118.511 -23.062 123.438 C-9.917 149.123 6.635 171.523 26.016 192.793 C27.75 194.722 29.413 196.687 31.062 198.688 C33.74 201.843 36.734 204.461 39.887 207.133 C42.086 209.076 44.094 211.132 46.125 213.25 C51.91 219.115 58.413 224.076 65 229 C65.633 229.475 66.265 229.95 66.917 230.439 C71.757 234 71.757 234 74 234 C73.487 226.011 72.207 218.412 70.375 210.625 C70.243 210.06 70.243 210.06 69.574 207.204 C63.825 183.336 55.398 159.223 40.152 139.625 C39 138 39 138 39.312 135.75 C39.539 135.173 39.766 134.595 40 134 C42.234 133.66 42.234 133.66 45 134 C48.638 137.817 51.285 142.491 54 147 C54.189 147.313 54.189 147.313 55.143 148.897 C77.052 186.105 84.221 231.755 84.13 274.328 C84.125 277.296 84.13 280.264 84.137 283.232 C84.14 294.197 83.867 305.067 83 316 C100.557 310.415 113.631 293.872 122.032 278.058 C128.729 264.69 132.98 249.797 135 235 C135.111 234.229 135.222 233.458 135.336 232.664 C141.844 176.91 119.018 122.538 85.656 79.093 C82.018 74.495 78.032 70.253 74 66 C72.932 64.734 71.869 63.463 70.812 62.188 C24.162 8.904 -49.089 -16.591 -117.875 -21.25 C-188.01 -25.874 -260.984 -9.189 -318 33 Z M-436.625 24.062 C-448.793 36.897 -449.426 54.264 -449.511 70.881 C-449.595 82.2 -450.53 90.747 -456.875 100.438 C-464.428 112.336 -469.382 122.572 -468 137 C-466.343 143.676 -462.869 148.429 -457 152 C-443.803 158.404 -430.926 157.833 -417.268 153.168 C-410.666 150.778 -404.451 147.841 -398.312 144.438 C-397.653 144.074 -396.994 143.71 -396.315 143.336 C-392.316 141.03 -388.956 138.62 -386 135 C-386.688 131.375 -386.688 131.375 -387.363 129.285 C-389.638 121.121 -387.603 113.689 -384.777 105.945 C-383.927 102.724 -383.804 101.101 -385 98 C-391.067 92.594 -399.351 90.234 -407 88 C-406.67 86.35 -406.34 84.7 -406 83 C-399.877 82.504 -396.15 83.978 -390.812 86.875 C-390.114 87.24 -389.416 87.605 -388.697 87.98 C-387.368 88.676 -386.041 89.377 -384.717 90.085 C-382.828 91.091 -380.921 92.057 -379 93 C-378.455 92.336 -377.909 91.672 -377.348 90.988 C-370.83 83.356 -364.719 78.741 -355 76 C-356.357 56.092 -371.779 37.669 -386 25 C-402.313 12.647 -420.733 9.773 -436.625 24.062 Z M-320.414 86.371 C-320.937 87.239 -321.461 88.106 -322 89 C-321.289 91.852 -321.289 91.852 -320 95 C-319.722 97.451 -319.514 99.912 -319.375 102.375 C-319.3 103.62 -319.225 104.865 -319.148 106.148 C-319.099 107.089 -319.05 108.03 -319 109 C-318.427 108.983 -318.427 108.983 -315.527 108.895 C-313.997 108.866 -312.467 108.839 -310.938 108.812 C-310.185 108.787 -309.433 108.762 -308.658 108.736 C-303.347 108.667 -299.694 109.457 -295 112 C-294.062 114.188 -294.062 114.188 -294 116 C-297.287 116.8 -298.71 117.097 -302 116 C-304.081 115.879 -306.166 115.825 -308.25 115.812 C-308.799 115.805 -308.799 115.805 -311.578 115.77 C-315.478 116.032 -318.402 116.426 -322 118 C-323.585 120.535 -324.657 122.646 -325.75 125.375 C-329.681 134.177 -335.15 142.107 -343.324 147.547 C-345 149 -345 149 -345.348 151.059 C-343.97 162.55 -339.101 171.987 -332 181 C-331.696 181.392 -331.696 181.392 -330.16 183.375 C-323.217 191.781 -314.567 197.31 -304 200 C-303.577 200.113 -303.577 200.113 -301.438 200.688 C-292.819 201.792 -285.588 200.386 -277.875 196.375 C-267.726 187.991 -262.991 178.968 -260.285 166.241 C-258.511 157.914 -257.117 151.722 -251.117 145.371 C-236.934 129.487 -231.647 107.026 -232.78 86.3 C-233.444 79.361 -235.667 71.74 -241 67 C-266.365 50.977 -301.328 67.625 -320.414 86.371 Z M-370.25 93.125 C-377.619 101.933 -381.489 112.844 -381.254 124.285 C-380.676 130.46 -378.409 135.591 -374 140 C-368.09 144.087 -363.162 145.587 -356 145 C-345.497 141.864 -338.154 134.449 -333 125 C-328.14 114.688 -324.668 104.098 -327.938 92.688 C-330.104 87.744 -334.223 85.192 -339 83 C-350.577 79.638 -362.245 84.729 -370.25 93.125 Z M-31 127 C-31.185 127.587 -31.369 128.174 -31.56 128.778 C-43.056 164.763 -62.914 194.801 -93.205 217.645 C-94.355 218.513 -95.502 219.388 -96.643 220.27 C-121.013 239.067 -150.014 250.827 -180 257 C-180.827 257.176 -181.654 257.353 -182.506 257.535 C-202.229 261.603 -223.983 262.124 -243.652 257.656 C-252.051 256.01 -257.715 258.128 -265.438 261.25 C-273.973 264.604 -282.262 267.324 -291.246 269.148 C-292.155 269.429 -293.064 269.71 -294 270 C-302.431 295.292 -295.499 331.36 -289.395 356.493 C-289.202 357.301 -289.01 358.109 -288.812 358.941 C-288.633 359.672 -288.454 360.402 -288.27 361.155 C-288 363 -288 363 -289 365 C-303.897 365 -317.013 355.799 -327.324 345.73 C-335.309 337.339 -341.088 327.439 -346 317 C-352.758 319.298 -356.636 322.609 -360.039 328.93 C-363.322 337.061 -363.743 347.805 -360.375 355.938 C-359.631 357.319 -358.839 358.675 -358 360 C-357.576 360.684 -357.152 361.369 -356.715 362.074 C-350.38 371.339 -341.423 376.922 -330.609 379.59 C-327.545 380.071 -324.602 380.169 -321.5 380.188 C-320.397 380.202 -319.293 380.216 -318.156 380.23 C-315 380 -315 380 -312.406 378.926 C-309.357 377.752 -308.031 377.775 -305 379 C-302.93 381.52 -302.93 381.52 -300.875 384.812 C-279.419 417.59 -241.349 432.212 -204.438 440.125 C-158.862 449.425 -86.98 459.49 -44 438 C-43.183 435.651 -42.451 433.32 -41.75 430.938 C-39.778 424.693 -37.621 419.775 -33 415 C-32.415 414.376 -31.83 413.752 -31.227 413.109 C-24.518 406.593 -17.008 403.995 -7.75 403.625 C-2.685 403.331 -0.135 402.399 3.43 398.809 C5.106 396.878 6.775 394.942 8.438 393 C15.221 385.119 23.304 379.957 33.797 378.652 C43.319 378.343 51.122 381.129 59.188 386.012 C61 387 61 387 63 387 C71.892 369.993 79.185 352.958 76.496 333.32 C75.881 328.583 75.853 323.896 75.875 319.125 C75.871 318.291 75.867 317.457 75.863 316.598 C75.864 316.181 75.864 316.181 75.867 314.07 C75.868 313.336 75.869 312.601 75.871 311.844 C75.986 309.303 76.224 306.822 76.5 304.294 C77.021 299.256 77.145 294.284 77.133 289.223 C77.134 288.331 77.135 287.439 77.136 286.52 C77.136 284.648 77.135 282.777 77.13 280.906 C77.125 278.073 77.13 275.241 77.137 272.408 C77.141 267.271 77.093 262.136 77 257 C76.979 255.805 76.959 254.61 76.938 253.379 C76.61 246.735 76.61 246.735 73.918 243.492 C73.017 242.959 72.116 242.425 71.188 241.875 C70.186 241.237 69.184 240.599 68.152 239.941 C67.112 239.301 66.072 238.66 65 238 C45.855 224.429 27.509 208.145 13.055 189.613 C11.133 187.169 9.125 184.822 7.081 182.48 C-3.267 170.562 -11.964 157.535 -19.888 143.909 C-21.904 140.447 -23.951 137.004 -26 133.562 C-26.386 132.905 -26.773 132.247 -27.171 131.57 C-28.086 130.03 -29.039 128.512 -30 127 C-30.33 127 -30.66 127 -31 127 Z M129.473 334.727 C115.575 346.737 101.807 350.179 84 351 C83.86 351.583 83.72 352.165 83.576 352.766 C80.705 364.507 77.463 375.262 71.637 385.883 C70.335 388.362 69.468 390.273 69 393 C74.396 396.984 79.154 399.711 86 399 C89.391 398.043 92.711 396.977 96.047 395.85 C103.072 393.526 109.209 392.579 116.25 395.438 C121.885 398.643 124.661 404.201 127.375 409.875 C129.093 418.464 127.928 425.413 124.875 433.566 C124 436 124 436 124 438 C126.204 439.415 128.407 440.718 130.688 442 C141.752 448.446 151.318 455.882 160.172 465.164 C160.474 465.467 160.474 465.467 162 467 C162.33 467 162.66 467 163 467 C163.015 466.371 163.029 465.743 163.044 465.095 C163.923 431.13 163.923 431.13 173 419 C175.695 418.172 175.695 418.172 178 418 C177.675 422.774 176.475 426.477 174.562 430.875 C169.275 443.283 168.351 456.714 171 470 C173.483 466.844 175.478 463.529 177.5 460.062 C184.758 447.983 194.43 437.448 205.375 428.625 C220.828 416.109 220.828 416.109 223 408 C223.498 403.127 223.568 399.29 221 395 C217.226 391.591 213.372 391.457 208.504 391.562 C203.161 392.23 198.055 393.68 192.902 395.221 C184.946 397.54 178.645 397.933 171.039 394.195 C165.363 390.868 161.459 385.425 159.406 379.199 C156.907 365.67 160.497 354.835 167.307 343.44 C169.795 339.106 170.532 335.968 170 331 C167.261 325.914 164.49 322.83 159 321 C145.793 319.569 138.892 326.548 129.473 334.727 Z M13 398 C11.45 399.805 9.908 401.617 8.375 403.438 C4.411 407.905 1.872 409.471 -4 410 C-15.563 411.351 -22.921 413.535 -30.465 422.711 C-34.496 428.722 -35.98 435.293 -36.938 442.375 C-37.497 445.999 -37.831 447.754 -39.938 450.812 C-43.665 453.475 -47.521 455.891 -51.41 458.309 C-56.718 461.775 -61.581 466.704 -63.612 472.853 C-64.071 475.392 -64.043 477.71 -63.957 480.289 C-63.936 481.314 -63.914 482.339 -63.893 483.395 C-63.84 485.525 -63.775 487.655 -63.697 489.785 C-63.575 497.046 -64.772 502.486 -68 509 C-62.042 510.986 -56.251 511.57 -50 512 C-49.732 511.308 -49.464 510.616 -49.188 509.902 C-41.365 490.372 -30.555 474.116 -16 459 C-15.648 458.611 -15.648 458.611 -13.867 456.641 C3.25 438.287 29.378 426.476 54.269 424.777 C74.285 424.098 92.245 426.148 111.031 433.047 C114 434 114 434 118 434 C121.048 426.843 123.452 419.422 120.875 411.75 C119.166 407.885 116.946 405.02 114 402 C107.914 399.971 102.744 400.521 96.875 403 C89.315 405.958 81.081 406.497 73.242 404.188 C67.199 401.389 62.08 397.141 56.836 393.09 C40.975 381.402 26.127 384.648 13 398 Z M-13.945 466.472 C-20.061 472.848 -25.33 479.507 -30 487 C-30.369 487.589 -30.739 488.178 -31.12 488.785 C-42.451 507.105 -42.451 507.105 -41.805 514.121 C-40.797 516.475 -39.601 517.408 -37.562 518.938 C-34.545 521.428 -32.741 523.016 -32 527 C-32.156 531.059 -32.781 534.969 -33.625 538.938 C-34 541 -34 541 -33 543 C-32.797 545.242 -32.797 545.242 -32.75 547.875 C-32.724 548.739 -32.698 549.602 -32.672 550.492 C-33.067 553.51 -34.134 554.641 -36 557 C-36.655 558.795 -37.257 560.609 -37.812 562.438 C-39.516 567.216 -41.287 570.713 -46 573 C-46.856 573.18 -47.711 573.359 -48.593 573.545 C-51.894 574.283 -54.188 575.096 -57 577 C-59.134 581.177 -60.071 585.417 -60.875 589.997 C-61.247 592.11 -61.684 594.2 -62.137 596.297 C-63.665 603.717 -64.341 610.481 -63 618 C-58.892 647.577 -64.545 676.736 -82.312 701.062 C-101.351 725.603 -128.576 742.992 -159 750 C-158.823 750.569 -158.647 751.138 -158.465 751.725 C-157.659 754.336 -156.861 756.949 -156.062 759.562 C-155.785 760.458 -155.507 761.353 -155.221 762.275 C-152.954 769.731 -151.88 776.236 -152.423 784.017 C-153.014 794.526 -153.014 794.526 -150.199 798.617 C-147.547 800.521 -145.022 801.769 -142 803 C-141.05 803.461 -140.1 803.923 -139.121 804.398 C-118.922 813.705 -93.16 814.461 -72.261 806.877 C-43.784 795.825 -22.579 776.545 -9.833 748.739 C2.026 721.66 5.434 693.507 8.301 664.36 C8.4 663.365 8.499 662.369 8.601 661.344 C8.784 659.479 8.964 657.614 9.139 655.748 C9.758 649.427 10.782 643.233 12 637 C11.261 636.478 10.523 635.956 9.762 635.418 C1.372 629.331 -7.193 622.711 -13 614 C-13.125 611.312 -13.125 611.312 -13 609 C-9.78 609 -7.678 609.365 -5.289 611.602 C-3.492 613.708 -1.74 615.846 0 618 C11.808 631.858 32.901 642.449 51 644 C68.043 644.948 83.587 643.59 100.066 639.5 C102.253 638.958 104.439 638.416 106.625 637.875 C107.695 637.608 108.765 637.341 109.867 637.065 C117.96 635.102 125.669 634.027 134 634 C133.952 633.656 133.952 633.656 133.711 631.918 C133.6 631.017 133.489 630.116 133.375 629.188 C133.259 628.294 133.143 627.401 133.023 626.48 C133 624 133 624 135 621 C136.883 621.121 136.883 621.121 139 622 C140.055 624.66 140.055 624.66 140.875 628.062 C142.895 635.154 145.069 640.368 151.328 644.559 C160.91 649.746 169.588 649.71 180 647 C192.045 642.356 200.477 636.173 206.09 624.395 C208.811 617.235 209.385 608.692 206.688 601.5 C200.555 595.796 191.621 594.524 183.629 592.906 C180.509 591.831 179.078 590.537 177 588 C174.76 581.28 176.11 574.815 177.779 568.097 C182.349 549.648 184.056 528.337 178 510 C177.648 508.925 177.296 507.85 176.934 506.742 C166.714 478.208 146.162 456.936 119.142 443.717 C72.195 421.844 22.37 429.713 -13.945 466.472 Z M-206 448 C-210.516 454.77 -213.89 461.886 -217.188 469.312 C-217.467 469.939 -217.747 470.565 -218.035 471.21 C-222.222 480.618 -226.128 490.109 -229.75 499.75 C-230.168 500.849 -230.586 501.947 -231.016 503.079 C-233.233 509.131 -234.596 514.562 -235 521 C-212.85 531.893 -189.916 538.784 -165.812 543.938 C-164.778 544.161 -163.744 544.385 -162.679 544.616 C-162.199 544.715 -162.199 544.715 -159.77 545.215 C-158.92 545.391 -158.07 545.568 -157.195 545.75 C-155 546 -155 546 -152 545 C-152.837 544.429 -153.673 543.858 -154.535 543.27 C-163.302 537.196 -171.456 530.619 -179.37 523.472 C-180.823 522.16 -182.289 520.864 -183.758 519.57 C-184.498 518.887 -185.238 518.204 -186 517.5 C-186.309 517.216 -186.309 517.216 -187.875 515.781 C-189 514 -189 514 -188.688 511.281 C-188.461 510.528 -188.234 509.776 -188 509 C-183.782 510.372 -181.553 512.198 -178.562 515.438 C-153.551 541.152 -118.209 558.602 -84 568 C-83.053 568.266 -82.105 568.531 -81.129 568.805 C-71.071 571.216 -58.411 571.823 -49 567 C-45.519 564.335 -44.118 561.762 -43.438 557.375 C-43.365 556.818 -43.365 556.818 -43 554 C-42.299 553.319 -41.597 552.639 -40.875 551.938 C-40.566 551.618 -40.566 551.618 -39 550 C-39.159 546.1 -39.821 544.269 -42 541 C-41.556 535.556 -41.556 535.556 -39 533 C-38.438 530.25 -38.438 530.25 -39 527 C-42.965 521.205 -48.879 519.94 -55.418 518.625 C-57.813 518.207 -60.211 517.811 -62.613 517.438 C-87.906 513.164 -108.231 495.108 -125.668 477.301 C-137.51 465.302 -150.439 454.753 -167.523 452.648 C-167.917 452.596 -167.917 452.596 -169.906 452.332 C-172.395 452.004 -174.885 451.69 -177.375 451.375 C-179.037 451.157 -180.698 450.938 -182.359 450.719 C-190.229 449.687 -198.095 448.724 -206 448 Z M-57.477 447.961 C-58.121 448.071 -58.765 448.181 -59.428 448.294 C-61.495 448.648 -63.56 449.011 -65.625 449.375 C-68.325 449.844 -71.026 450.309 -73.727 450.773 C-74.359 450.882 -74.359 450.882 -77.56 451.433 C-81.367 452.061 -85.165 452.576 -89 453 C-88.841 453.525 -88.683 454.049 -88.52 454.59 C-88.003 456.305 -87.493 458.023 -86.988 459.742 C-86.294 462.03 -85.559 464.305 -84.793 466.57 C-80.656 479.138 -79.271 491.87 -78 505 C-77.01 505 -76.02 505 -75 505 C-71.668 501.283 -70.866 498.142 -71.008 493.246 C-71.025 492.308 -71.041 491.371 -71.059 490.404 C-71.102 488.454 -71.154 486.503 -71.215 484.553 C-71.375 473.874 -68.965 465.696 -61.875 457.562 C-57.854 453.978 -53.462 451.007 -49 448 C-51.994 446.503 -54.204 447.391 -57.477 447.961 Z M-111.898 454.219 C-112.733 454.241 -113.568 454.263 -114.429 454.286 C-117.077 454.357 -119.726 454.428 -122.375 454.5 C-124.178 454.548 -125.982 454.596 -127.785 454.645 C-132.19 454.762 -136.595 454.881 -141 455 C-137.797 458.24 -134.591 461.197 -131 464 C-126.492 467.638 -122.375 471.498 -118.312 475.625 C-108.745 485.333 -98.458 495.159 -86 501 C-85.829 495.013 -86.382 489.554 -87.562 483.688 C-87.732 482.833 -87.902 481.979 -88.077 481.099 C-90.076 471.709 -93.422 462.885 -97 454 C-101.97 453.972 -106.931 454.083 -111.898 454.219 Z M-249 529 C-249.33 529.33 -249.66 529.66 -250 530 C-249.9 535.005 -248.767 538.428 -245.305 542.113 C-214.009 567.733 -158.85 575.314 -120.02 571.547 C-115.672 571.089 -111.335 570.562 -107 570 C-107 569.34 -107 568.68 -107 568 C-107.92 567.648 -108.841 567.296 -109.789 566.934 C-111.068 566.435 -112.346 565.937 -113.625 565.438 C-114.24 565.2 -114.24 565.2 -117.352 563.996 C-120.035 562.914 -122.519 561.717 -125.063 560.329 C-133.459 555.774 -140.979 553.615 -150.413 552.309 C-154.261 551.771 -158.095 551.145 -161.93 550.523 C-162.7 550.4 -163.47 550.276 -164.263 550.149 C-187.827 546.295 -211.337 539.361 -232.956 529.17 C-239.109 526.306 -243.287 524.756 -249 529 Z M-250.918 550.73 C-257.733 558.109 -265.155 566.844 -265.75 577.312 C-265.241 583.698 -262.032 588.07 -257.5 592.375 C-251.522 596.261 -245.994 596.892 -239 596 C-232.149 593.862 -227.788 590.307 -223.57 584.574 C-223.052 584.055 -222.534 583.535 -222 583 C-220.68 583 -219.36 583 -218 583 C-217.914 583.629 -217.827 584.258 -217.738 584.906 C-216.464 592.671 -213.973 598.595 -208 603.875 C-201.314 608.611 -195.005 608.769 -187 608 C-179.733 606.008 -173.968 601.98 -169.812 595.688 C-169.214 594.801 -168.616 593.914 -168 593 C-167.01 593 -166.02 593 -165 593 C-163.711 594.906 -163.711 594.906 -162.375 597.5 C-158.387 604.502 -152.866 610.54 -145 613 C-138.174 613.894 -132.402 613.715 -126.75 609.559 C-122.36 605.649 -118.737 601.732 -117 596 C-113.262 596.544 -112.007 597.86 -109.75 600.812 C-105.666 605.642 -101.849 608.419 -95.516 609.375 C-89.507 609.666 -85.798 608.623 -81 605 C-77.937 601.542 -77.309 598.113 -77.445 593.605 C-78.607 588.149 -81.878 583.543 -85 579 C-85.645 578.055 -86.289 577.11 -86.953 576.137 C-89 574 -89 574 -91.156 573.66 C-91.543 573.727 -91.543 573.727 -93.5 574.062 C-94.378 574.198 -95.256 574.333 -96.16 574.473 C-97.097 574.647 -98.034 574.821 -99 575 C-100.979 575.335 -102.958 575.668 -104.938 576 C-105.956 576.173 -106.974 576.345 -108.023 576.523 C-152.203 583.597 -206.595 573.732 -244.832 550.262 C-247.777 548.548 -248.356 548.419 -250.918 550.73 Z M-392 579 C-392.422 585.621 -391.072 590.021 -388.5 596.062 C-384.486 606.427 -382.413 615.428 -387.031 625.918 C-388.251 628.535 -389.504 631.134 -390.762 633.734 C-394.983 642.643 -395.763 649.205 -392.441 658.617 C-391.252 661.794 -389.97 664.916 -388.629 668.031 C-385.186 676.176 -385.346 683.249 -388.375 691.562 C-388.597 692.196 -388.818 692.83 -389.047 693.482 C-390.044 696.329 -391.062 699.157 -392.164 701.965 C-394.193 709.333 -392.733 714.567 -389.938 721.375 C-386.717 729.876 -386.153 735.817 -389.625 744.375 C-391.949 749.186 -394.73 753.743 -397.512 758.301 C-398.789 760.617 -399.54 762.42 -400 765 C-392.023 770.318 -380.914 767.723 -372 766 C-343.575 759.973 -309.455 743.372 -290 721 C-290.145 718.738 -290.145 718.738 -290.812 716.312 C-291.025 715.504 -291.238 714.696 -291.457 713.863 C-291.636 713.248 -291.815 712.634 -292 712 C-311.04 711.326 -328.534 714.127 -346.738 719.75 C-347.742 720.054 -348.747 720.359 -349.781 720.672 C-350.669 720.951 -351.556 721.231 -352.471 721.519 C-355.295 722.056 -357.243 721.739 -360 721 C-359.938 719.188 -359.938 719.188 -359 717 C-353.175 714.039 -347.016 712.528 -340.688 711 C-339.606 710.739 -338.525 710.477 -337.41 710.208 C-326.269 707.64 -315.062 706.35 -303.695 705.267 C-300.12 704.913 -296.562 704.466 -293 704 C-292.67 699.38 -292.34 694.76 -292 690 C-313.968 679.497 -335.788 674.962 -360 674 C-359.67 672.35 -359.34 670.7 -359 669 C-353.208 667.909 -347.974 668.096 -342.125 668.688 C-341.202 668.78 -340.28 668.872 -339.329 668.968 C-322.173 670.842 -306.768 676.17 -291 683 C-290.106 681.427 -289.235 679.841 -288.375 678.25 C-287.888 677.368 -287.4 676.487 -286.898 675.578 C-286 673 -286 673 -286.672 670.891 C-289.175 667.327 -292.036 664.187 -295 661 C-295.859 660.076 -296.717 659.151 -297.602 658.199 C-315.181 639.732 -336.484 629.101 -360 620 C-360 618.35 -360 616.7 -360 615 C-354.976 614.646 -351.301 615.8 -346.812 617.875 C-346.125 618.187 -345.438 618.498 -344.73 618.82 C-342.476 619.859 -340.237 620.924 -338 622 C-337.228 622.369 -336.457 622.739 -335.662 623.12 C-315.711 632.805 -295.144 646.791 -282 665 C-279.506 663.796 -277.319 662.546 -275 661 C-275.479 655.071 -276.683 650.686 -279.438 645.438 C-279.791 644.752 -280.144 644.067 -280.509 643.36 C-287.125 630.826 -295.126 620.123 -305 610 C-305.704 609.223 -306.408 608.445 -307.133 607.645 C-324.048 589.475 -349.925 577.277 -374.609 575.781 C-381.169 575.615 -386.249 575.714 -392 579 Z M-79 576 C-77.709 578.75 -76.417 581.5 -75.125 584.25 C-74.76 585.027 -74.395 585.805 -74.02 586.605 C-73.665 587.36 -73.311 588.114 -72.945 588.891 C-72.621 589.582 -72.296 590.273 -71.961 590.985 C-70.999 593.003 -70.006 595.004 -69 597 C-66.825 593.738 -66.224 591.305 -65.375 587.5 C-65.115 586.355 -64.854 585.211 -64.586 584.031 C-64 581 -64 581 -64 578 C-66.475 577.67 -66.475 577.67 -79 576 Z M-270 586 C-273.365 598.681 -273.332 610.952 -273 624 C-266.83 624.165 -263.95 624.18 -259 620 C-254.551 615.551 -252.375 611.15 -251 605 C-251 603.68 -251 602.36 -251 601 C-251.641 600.732 -252.281 600.464 -252.941 600.188 C-259.595 597.173 -263.552 593.725 -268 588 C-268.66 587.34 -269.32 586.68 -270 586 Z M-226.562 594.812 C-231.549 598.595 -236.277 600.554 -242.438 601.562 C-243.283 601.707 -244.129 601.851 -245 602 C-247.705 607.41 -246.755 616.366 -245.129 622.039 C-241.975 628.885 -237.85 632.242 -231.125 635.312 C-222.837 637.136 -215.514 636.048 -208 632 C-202.84 627.904 -198.253 623.307 -196 617 C-196 616.01 -196 615.02 -196 614 C-196.629 613.841 -197.258 613.683 -197.906 613.52 C-206.487 611.181 -212.623 608.742 -217.375 600.938 C-218.997 597.997 -220.512 595.01 -222 592 C-223.833 592 -225.191 593.71 -226.562 594.812 Z M-171.125 604.75 C-177.092 609.988 -183.309 612.352 -191 614 C-190.589 623.661 -188.415 632.396 -181.625 639.594 C-177.127 643.487 -172.175 644.574 -166.395 644.348 C-157.579 643.068 -150.7 638.593 -145.188 631.75 C-143.416 627.647 -142.725 623.394 -142 619 C-142.701 618.781 -143.403 618.562 -144.125 618.336 C-154.222 614.961 -160.056 610.742 -166 602 C-168.677 602 -169.198 602.94 -171.125 604.75 Z M-115 604 C-115.847 605.22 -116.677 606.451 -117.5 607.688 C-122.398 614.324 -129.146 617.162 -137 619 C-134.98 627.649 -131.965 633.907 -124.875 639.438 C-119.048 642.604 -112.182 643.222 -105.781 641.352 C-98.508 638.078 -94.566 632.834 -91.625 625.562 C-91.069 624.047 -90.522 622.528 -90 621 C-88.68 621 -87.36 621 -86 621 C-85.918 622.031 -85.835 623.062 -85.75 624.125 C-84.786 629.106 -82.805 632.129 -79.312 635.75 C-75.757 637.672 -71.952 638.282 -68 639 C-67.662 631.679 -68.004 624.747 -69.375 617.562 C-69.501 616.901 -69.627 616.24 -69.757 615.559 C-70.561 611.593 -71.645 607.811 -73 604 C-73.681 604.742 -74.361 605.485 -75.062 606.25 C-80.107 611.295 -85.621 613.771 -92.688 614.25 C-100.985 614.081 -106.546 611.101 -112.469 605.426 C-114 604 -114 604 -115 604 Z M-252 620 C-252.681 620.742 -253.361 621.485 -254.062 622.25 C-259.433 627.682 -265.545 629.467 -273 630 C-269.793 641.866 -265.309 655.341 -255 663 C-249.867 664.529 -245.398 663.573 -240.75 661.062 C-235.806 657.512 -231.901 652.605 -230.41 646.641 C-230.125 644.438 -230.125 644.438 -230 641 C-230.58 640.769 -231.16 640.539 -231.758 640.301 C-242.635 635.76 -246.206 630.66 -251 620 C-251.33 620 -251.66 620 -252 620 Z M-196 626 C-197.039 627.214 -198.056 628.447 -199.062 629.688 C-206.199 637.848 -213.462 640.024 -224 642 C-223.278 653.073 -216.97 661.64 -209 669 C-203.119 672.773 -196.794 672.78 -190 672 C-182.92 670.172 -178.153 664.781 -174 659 C-172.348 655.463 -171.777 652.907 -172 649 C-172.568 648.853 -173.137 648.706 -173.723 648.555 C-180.65 646.542 -185.702 643.858 -189.473 637.527 C-190.726 635.046 -191.879 632.544 -193 630 C-193.659 628.663 -194.324 627.328 -195 626 C-195.33 626 -195.66 626 -196 626 Z M-140 631 C-140.908 632.34 -141.751 633.724 -142.562 635.125 C-148.273 643.897 -156.046 646.879 -166 649 C-165.503 656.623 -162.509 663.114 -157.5 668.875 C-156.675 669.576 -155.85 670.278 -155 671 C-154.134 671.742 -153.267 672.485 -152.375 673.25 C-147.198 677.065 -141.167 676.647 -135 676 C-127.601 673.764 -122.26 669.39 -118 663 C-115.32 657.984 -114.648 653.634 -115 648 C-115.629 647.853 -116.258 647.706 -116.906 647.555 C-125.457 645.314 -131.969 641.447 -137 634 C-137.33 633.01 -137.66 632.02 -138 631 C-138.66 631 -139.32 631 -140 631 Z M-89 633 C-89.485 633.603 -89.969 634.207 -90.469 634.828 C-94.863 640.068 -98.612 643.535 -105 646 C-105.495 646.206 -105.495 646.206 -108 647.25 C-108.66 647.497 -109.32 647.745 -110 648 C-110.486 655.445 -108.896 661.954 -104.938 668.312 C-99.617 673.18 -93.998 676.26 -86.688 676.5 C-81.042 676.165 -78.393 674.36 -74.375 670.438 C-68.538 662.949 -68.414 653.099 -68 644 C-68.641 643.902 -69.281 643.804 -69.941 643.703 C-77.157 642.456 -82.428 640.901 -87.438 635.25 C-87.695 634.879 -87.695 634.879 -89 633 Z M18 641 C14.742 651.266 14.324 661.307 14 672 C18.938 674.251 23.728 675.863 29 677.125 C29.673 677.294 30.346 677.463 31.039 677.637 C39.227 679.644 47.029 680.134 55.438 680.062 C56.455 680.058 57.473 680.053 58.521 680.049 C61.014 680.037 63.507 680.021 66 680 C65.526 673.183 64.381 666.92 62.438 660.375 C62.204 659.562 61.97 658.748 61.729 657.91 C61.16 655.938 60.581 653.969 60 652 C59.401 651.921 59.401 651.921 56.371 651.52 C44.626 649.872 33.4 647.722 22.707 642.344 C20 641 20 641 18 641 Z M-228 653 C-228.872 654.385 -229.722 655.783 -230.562 657.188 C-234.908 663.815 -240.412 666.913 -248 669 C-245.107 672.978 -241.798 675.996 -238.09 679.172 C-233.268 683.39 -228.873 687.888 -225 693 C-218.075 691.477 -214.103 688.656 -209.625 683 C-207.907 679.827 -207.537 678.516 -208 675 C-209.539 673.445 -209.539 673.445 -211.625 672.125 C-218.917 667.071 -222.99 660.826 -227 653 C-227.33 653 -227.66 653 -228 653 Z M-170 661 C-170.516 661.846 -171.031 662.691 -171.562 663.562 C-175.941 670.234 -182.146 675.281 -190 677 C-193.662 677.49 -197.311 677.803 -201 678 C-201.561 683.611 -199.955 687.366 -197 692 C-194.562 694.75 -194.562 694.75 -192 697 C-191.618 697.351 -191.618 697.351 -189.688 699.125 C-183.265 703.606 -176.771 705.014 -169 704 C-160.857 702.124 -154.995 697.639 -150 691 C-148.602 688.054 -147.656 685.191 -147 682 C-147.713 681.66 -148.426 681.319 -149.16 680.969 C-158.677 676.153 -164.112 670.384 -169 661 C-169.33 661 -169.66 661 -170 661 Z M-275.008 669.785 C-279.34 674.202 -281.822 679.253 -284 685 C-284.263 685.674 -284.526 686.348 -284.797 687.043 C-288.808 699.753 -285.447 713.235 -279.75 724.812 C-279.173 725.864 -278.595 726.916 -278 728 C-274.49 726.695 -271.466 725.137 -268.312 723.125 C-256.683 716.051 -245.403 713.783 -231.938 713.375 C-231.409 713.356 -231.409 713.356 -228.736 713.258 C-226.158 713.164 -223.579 713.079 -221 713 C-223.91 706.786 -226.967 701.19 -231.312 695.875 C-231.794 695.277 -232.275 694.678 -232.771 694.062 C-238.133 687.482 -243.836 681.888 -250.5 676.625 C-255.25 672.839 -258.86 668.762 -262.441 663.871 C-262.956 663.254 -263.47 662.636 -264 662 C-268.16 662 -272.083 666.994 -275.008 669.785 Z M-114 666 C-115.209 667.36 -116.367 668.764 -117.5 670.188 C-124.204 677.883 -132.088 680.587 -142 682 C-141.045 689.753 -139.809 697.236 -133.328 702.309 C-125.627 706.96 -117.822 708.111 -109 707 C-95.928 702.75 -86.998 692.701 -79 682 C-81.549 680.726 -83.161 681.038 -86 681.188 C-94.565 681.244 -101.331 678.312 -107.602 672.527 C-109.419 670.542 -110.691 668.342 -112 666 C-112.66 666 -113.32 666 -114 666 Z M13 680 C12.306 684.571 11.612 689.143 10.919 693.715 C10.683 695.267 10.447 696.82 10.212 698.373 C9.871 700.614 9.531 702.856 9.191 705.098 C9.139 705.441 9.139 705.441 8.876 707.176 C8.228 711.447 7.606 715.722 7 720 C25.427 731.568 47.442 735.789 69 735 C71.562 732.438 70.189 725.542 70.19 722.07 C70.189 721.387 70.188 720.704 70.188 720 C70.188 719.32 70.189 718.639 70.19 717.938 C70.188 707.513 69.692 697.3 68 687 C64.516 685.999 61.426 686.028 57.805 686.166 C45.333 686.585 33.775 684.357 21.659 681.573 C18.785 680.954 15.903 680.463 13 680 Z M-207 687 C-207.495 687.701 -207.99 688.403 -208.5 689.125 C-212.021 693.175 -216.345 695.415 -221 698 C-220.469 698.967 -219.938 699.934 -219.391 700.93 C-215.774 707.577 -212.317 714.085 -209.789 721.242 C-209 723 -209 723 -207 724 C-200.094 724.908 -194.003 723.49 -188 720 C-184.328 716.796 -181.943 713.832 -181 709 C-181.557 708.781 -182.114 708.562 -182.688 708.336 C-192.408 704.296 -198.868 699.324 -204 690 C-204.33 689.01 -204.66 688.02 -205 687 C-205.66 687 -206.32 687 -207 687 Z M-146 694 C-146.402 694.516 -146.402 694.516 -148.438 697.125 C-155.559 705.462 -164.488 708.122 -175 710 C-174.669 718.374 -173.014 723.266 -166.875 729.188 C-161.083 733.902 -153.778 735.601 -146.395 735.277 C-127.296 733.065 -110.936 721.609 -97 709 C-97.33 708.835 -97.33 708.835 -99 708 C-100.44 708.592 -101.853 709.25 -103.25 709.938 C-111.595 713.394 -120.403 713.165 -128.938 710.375 C-137.317 706.851 -141.438 702.265 -145 694 C-145.33 694 -145.66 694 -146 694 Z M-276 738 C-276.318 738.307 -276.318 738.307 -277.93 739.863 C-284.322 746.497 -290.294 756.16 -290.688 765.562 C-290.423 768.554 -289.93 770.14 -288.562 772.875 C-278.437 781.272 -265.434 780.707 -253 780 C-239.219 778.264 -223.35 773.188 -214.344 761.93 C-213.921 761.293 -213.498 760.656 -213.062 760 C-212.382 759.01 -211.701 758.02 -211 757 C-209.68 757 -208.36 757 -207 757 C-206 760 -206 760 -206.926 762.086 C-207.383 762.841 -207.841 763.597 -208.312 764.375 C-213.6 773.193 -214.355 781.265 -212.312 791.418 C-207.939 806.67 -198.408 822.062 -185 831 C-179.891 831.204 -177.348 829.827 -173.438 826.562 C-163.437 816.97 -158.563 803.746 -158 790 C-157.948 789.1 -157.897 788.2 -157.844 787.273 C-157.469 775.441 -160.32 764.729 -165.018 753.973 C-166.452 750.655 -167 748.703 -167 745 C-162.05 744.01 -157.1 743.02 -152 742 C-152 741.34 -152 740.68 -152 740 C-152.617 739.914 -153.235 739.827 -153.871 739.738 C-161.571 738.461 -168.536 736.085 -173.875 730.125 C-176.141 726.792 -177.573 723.755 -179 720 C-179.99 720.33 -180.98 720.66 -182 721 C-182 721.66 -182 722.32 -182 723 C-184.805 724.422 -187.632 725.771 -190.5 727.062 C-191.253 727.404 -192.006 727.746 -192.781 728.098 C-198.902 730.587 -205.087 730.971 -211.375 728.875 C-214.524 726.625 -215.295 724.411 -217 721 C-237.601 714.367 -261.57 723.394 -276 738 Z M5 727 C4.728 727.73 4.457 728.46 4.177 729.212 C2.918 732.582 1.647 735.947 0.375 739.312 C0.162 739.886 0.162 739.886 -0.918 742.791 C-3.449 749.459 -6.252 755.592 -9.974 761.684 C-11 764 -11 764 -10.761 766.19 C-6.372 776.63 10.531 783.216 20.5 787.312 C27.499 790.061 34.582 791.821 42 793 C42.806 793.162 43.611 793.325 44.441 793.492 C46.5 793.75 46.5 793.75 50 793 C62.325 781.566 67.288 757.023 69 741 C67.716 740.974 66.432 740.948 65.109 740.922 C43.325 740.301 24.94 735.604 5 727 Z M-16 772 C-16.522 772.666 -17.044 773.333 -17.582 774.02 C-23.312 781.195 -29.423 787.602 -36 794 C-37.669 795.664 -39.336 797.33 -41 799 C-30.073 816.328 -17.323 829.962 2.941 835.855 C6.998 836.047 9.341 834.536 12.562 832.312 C13.165 831.911 13.767 831.51 14.387 831.096 C21.204 826.404 27.11 820.785 33 815 C33.362 814.652 33.362 814.652 35.191 812.891 C38.714 809.451 42.001 805.908 45 802 C45 801.34 45 800.68 45 800 C43.851 799.769 42.703 799.539 41.52 799.301 C31.962 797.32 22.954 794.987 14 791 C12.86 790.497 11.721 789.995 10.547 789.477 C2.785 785.835 -3.719 781.516 -10.355 776.137 C-13 774 -13 774 -16 772 Z M-52.609 804.591 C-63.808 810.875 -75.404 814.526 -88 817 C-85.877 829.949 -78.96 840.839 -68.562 848.887 C-66.411 850.348 -64.263 851.719 -62 853 C-61.693 853.191 -61.693 853.191 -60.141 854.16 C-46.89 859.359 -24.077 850.233 -11.691 845.211 C-8.751 843.888 -5.873 842.464 -3 841 C-6.063 838.958 -9.09 837.589 -12.438 836.062 C-26.534 829.277 -37.094 816.68 -45.652 803.871 C-46.097 803.254 -46.542 802.636 -47 802 C-49.091 802 -50.83 803.582 -52.609 804.591 Z M-153 804 C-154.98 808.95 -156.96 813.9 -159 819 C-151.691 825.924 -144.561 831.651 -136 837 C-135.67 836.835 -135.67 836.835 -134 836 C-134.155 835.505 -134.155 835.505 -134.938 833 C-135.977 829.252 -135.928 825.936 -135.787 822.067 C-135.723 818.362 -135.962 815.616 -137 812 C-140.76 808.204 -146.039 806.642 -151 805 C-151.66 804.67 -152.32 804.34 -153 804 Z M-130 815 C-130.545 824.392 -130.441 834.463 -124.273 842.152 C-114.897 849.772 -100.574 851.824 -89 854 C-88.479 854.099 -88.479 854.099 -85.84 854.602 C-82.894 855.015 -80.098 855.099 -77.125 855.062 C-76.642 855.058 -76.642 855.058 -74.195 855.035 C-73.833 855.029 -73.833 855.029 -72 855 C-72.681 854.34 -73.361 853.68 -74.062 853 C-75.047 852.005 -76.025 851.004 -77 850 C-77.543 849.442 -78.085 848.884 -78.645 848.309 C-86.807 839.483 -91.718 829.498 -95 818 C-95.293 818.012 -95.293 818.012 -96.773 818.07 C-107.891 818.304 -119.06 816.931 -130 815 Z " fill="#000000" transform="translate(667,46)"/>
<path d="M0 0 C0.642 0.414 1.284 0.828 1.945 1.254 C2.287 1.466 2.287 1.466 4.016 2.539 C13.187 8.799 18.851 17.35 20.945 28.254 C22.262 40.075 21.177 51.57 14.195 61.566 C7.701 69.395 0.108 75.273 -10.055 77.254 C-21.838 78.17 -31.088 76.874 -40.367 69.254 C-48.417 61.434 -52.622 51.44 -53.055 40.254 C-52.382 25.787 -47.831 14.075 -37.055 4.254 C-26.949 -3.555 -11.609 -6.334 0 0 Z M-37.055 19.254 C-38.587 22.318 -38.284 24.87 -38.055 28.254 C-36.36 32.066 -34.906 33.737 -31.055 35.254 C-26.796 35.479 -23.145 34.963 -19.555 32.629 C-17.513 29.396 -17.121 27.073 -17.055 23.254 C-18.57 19.239 -19.46 17.65 -23.055 15.254 C-28.861 14.319 -32.885 14.824 -37.055 19.254 Z " fill="#000000" transform="translate(686.0546875,328.74609375)"/>
<path d="M0 0 C9.003 7.446 16.155 16.464 17.75 28.312 C18.961 43.155 15.294 55.895 5.973 67.531 C-0.109 74.197 -8.776 78.953 -17.875 79.551 C-29.995 79.861 -39.602 78.434 -49.184 70.344 C-58.341 61.342 -62.343 50.561 -62.75 37.812 C-62.325 24.064 -57.428 11.992 -47.5 2.438 C-34.132 -8.975 -14.529 -10.207 0 0 Z M-18.25 16.312 C-19.87 19.552 -19.815 22.811 -19.25 26.312 C-17.91 29.12 -16.703 30.173 -14.25 32.312 C-10.161 33.576 -8.042 33.587 -4 32.188 C-0.873 30.056 0.412 28.855 1.75 25.312 C1.996 22.423 1.731 20.045 0.75 17.312 C-1.698 14.446 -3.499 12.699 -7.25 11.871 C-12.189 11.581 -14.868 12.828 -18.25 16.312 Z " fill="#000000" transform="translate(472.25,337.6875)"/>
<path d="M0 0 C0.825 0.165 0.825 0.165 5 1 C5.33 6.006 4.03 8.226 0.988 12.066 C-6.132 18.991 -14.991 20.303 -24.484 20.215 C-31.722 19.773 -37.612 16.805 -43 12 C-45 9.5 -45 9.5 -46 7 C-45.688 4.188 -45.688 4.188 -45 2 C-42.75 2.188 -42.75 2.188 -40 3 C-39.423 3.763 -38.845 4.526 -38.25 5.312 C-34.444 9.859 -29.893 11.619 -24.062 12.387 C-17.406 12.633 -11.513 11.958 -6 8 C-3.697 5.502 -1.787 2.887 0 0 Z " fill="#000000" transform="translate(588,414)"/>
<path d="M0 0 C12.623 1.619 24.559 13.681 32.004 23.273 C44.04 40.931 48.706 60.45 45.074 81.652 C43.209 90.07 40.178 98.018 37.055 106.039 C35.867 109.096 34.708 112.163 33.554 115.233 C33.04 116.599 32.523 117.964 32.003 119.328 C28.456 128.686 27.115 139.998 30.574 149.652 C33.512 155.826 37.928 161.061 42.137 166.402 C56.926 185.271 66.134 204.772 64.137 229.402 C61.85 246.173 54.295 258.642 44.606 272.223 C36.042 284.387 30.83 296.322 32.137 311.402 C33.712 319.919 37.518 327.542 41.137 335.34 C49.594 353.649 54.012 371.657 47.137 391.402 C43.395 400.991 38.555 409.566 32.724 418.019 C22.27 433.311 19.527 448.452 20.334 466.634 C20.551 473.763 20.551 473.763 18.418 477.051 C15.887 478.55 14.496 478.914 11.574 478.84 C11.192 478.839 11.192 478.839 9.258 478.836 C6.605 478.294 5.861 477.458 4.137 475.402 C-2.33 459.002 1.761 437.121 6.461 420.803 C7.558 416.906 8.469 412.969 9.387 409.027 C9.549 408.356 9.712 407.684 9.88 406.992 C14.754 386.591 11.277 367.718 5.294 348.022 C2.214 337.766 0.775 327.989 0.762 317.277 C0.737 316.277 0.713 315.277 0.688 314.246 C0.628 298.386 6.171 283.734 11.699 269.09 C26.124 230.667 21.044 203.18 5.513 166.016 C-2.108 147.554 -1.423 129.89 4.366 110.987 C5.83 106.076 7.095 101.111 8.387 96.152 C8.645 95.188 8.903 94.223 9.168 93.229 C11.532 84.277 12.35 75.697 12.699 66.465 C12.721 65.932 12.721 65.932 12.83 63.236 C12.935 60.625 13.038 58.014 13.137 55.402 C14.457 54.742 15.777 54.082 17.137 53.402 C19.437 55.702 19.464 56.341 19.762 59.465 C19.799 59.821 19.799 59.821 19.988 61.625 C20.362 68.61 20.112 75.305 19.012 82.215 C18.883 83.027 18.755 83.839 18.623 84.675 C17.137 93.373 14.503 101.667 11.867 110.071 C3.456 136.928 8.894 155.423 19.104 180.946 C24.831 195.406 29.276 209.566 29.449 225.215 C29.478 226.047 29.507 226.879 29.537 227.736 C29.691 243.618 23.514 258.502 17.773 273.025 C12.317 286.901 7.245 301.477 7.699 316.59 C7.707 317.008 7.707 317.008 7.744 319.126 C7.973 326.767 9.246 334.004 11.137 341.402 C11.625 343.337 12.113 345.272 12.602 347.207 C12.863 348.24 13.124 349.274 13.394 350.338 C19.104 372.94 21.062 391.756 15.137 414.402 C14.459 417.064 13.786 419.727 13.116 422.391 C12.685 424.097 12.246 425.801 11.8 427.503 C8.07 441.967 8.721 456.643 10.137 471.402 C11.127 471.402 12.117 471.402 13.137 471.402 C12.972 470.495 12.807 469.587 12.637 468.652 C9.33 444.786 18.201 425.021 30.887 405.59 C39.951 391.511 44.417 375.891 41.586 359.145 C39.696 351.567 36.543 344.835 33.137 337.84 C25.317 321.747 20.32 305.958 26.012 288.215 C29.986 278.556 35.833 269.444 42.324 261.277 C53.496 246.9 57.294 229.262 55.414 211.423 C53.155 194.962 43.727 181.712 33.512 169.18 C23.928 157.293 19.152 145.817 20.137 130.402 C21.842 120.747 25.553 111.759 29.199 102.715 C35.977 85.878 35.977 85.878 37.137 78.402 C37.308 77.299 37.48 76.195 37.656 75.059 C39.341 56.906 34.451 39.446 22.82 25.199 C16.567 18.525 10.198 13.654 2.137 9.402 C2.172 9.749 2.172 9.749 2.352 11.503 C5.415 42.43 0.54 65.196 -13.551 92.652 C-22.093 109.449 -25.074 127.948 -19.52 146.258 C-14.959 158.436 -7.991 169.842 -1.426 181.027 C8.329 197.88 11.614 214.95 7.102 233.977 C3.474 246.857 -3.47 258.68 -10.047 270.262 C-13.654 276.681 -16.673 283.001 -18.926 290.027 C-19.142 290.691 -19.358 291.354 -19.581 292.037 C-20.723 295.87 -21.236 298.617 -19.863 302.402 C-18.499 304.636 -17.106 306.76 -15.613 308.902 C-6.178 323.023 -1.364 339.67 -4.249 356.673 C-6.605 368.166 -6.605 368.166 -8.668 373.473 C-8.998 376.733 -7.42 379.176 -6.051 382.09 C0.551 396.867 1.445 412.93 -3.863 428.402 C-4.439 429.822 -5.021 431.239 -5.613 432.652 C-7.827 439.294 -5.622 445.677 -3.801 452.215 C-1.853 459.638 -0.039 467.145 -3.176 474.465 C-5.155 476.737 -6.804 478.266 -9.869 478.661 C-10.243 478.662 -10.243 478.662 -12.137 478.668 C-12.962 478.671 -13.787 478.673 -14.637 478.676 C-15.495 478.668 -16.354 478.66 -17.238 478.652 C-18.089 478.66 -18.94 478.668 -19.816 478.676 C-28.156 478.65 -28.156 478.65 -31.863 476.402 C-33.051 474.66 -33.051 474.66 -33.863 472.527 C-34.186 471.724 -34.508 470.921 -34.84 470.094 C-35.178 469.206 -35.515 468.317 -35.863 467.402 C-41.895 452.117 -49.733 440.942 -61.738 429.777 C-68.866 422.769 -72.121 412.388 -72.27 402.586 C-72.133 392.687 -69.404 383.627 -66.708 374.166 C-62.177 358.08 -60.033 342.601 -68.078 327.055 C-70.989 322.405 -74.598 318.356 -78.176 314.215 C-89.413 301.178 -99.802 285.864 -98.641 267.973 C-97.217 254.451 -91.922 243.162 -85.986 231.112 C-80.622 220.109 -78.402 207.847 -82.238 195.902 C-84.561 190.365 -87.896 185.419 -91.14 180.388 C-101.636 163.982 -104.393 146.077 -100.676 127.027 C-98.226 117.147 -95.038 108.744 -87.863 101.402 C-84.955 101.714 -83.918 102.346 -81.84 104.465 C-79.486 107.963 -77.902 111.543 -76.238 115.402 C-70.57 127.914 -62.108 137.28 -52.816 147.23 C-36.843 164.37 -27.127 182.469 -27.39 206.265 C-27.923 220.518 -32.819 234.045 -37.262 247.474 C-40.368 257.44 -40.243 269.322 -36.152 278.961 C-34.355 282.364 -32.304 285.519 -30.035 288.625 C-28.863 290.402 -28.863 290.402 -28.863 292.402 C-28.203 292.402 -27.543 292.402 -26.863 292.402 C-26.822 291.371 -26.781 290.34 -26.738 289.277 C-25.248 278.251 -18.837 268.475 -13.363 259.027 C-3.157 241.4 2.918 224.428 -0.441 203.863 C-3.864 191.573 -10.988 180.384 -17.613 169.59 C-29.483 150.196 -33.663 129.624 -28.394 107.405 C-25.732 97.356 -20.761 88.08 -16.238 78.777 C-12.346 70.765 -8.888 63.111 -6.863 54.402 C-6.753 53.987 -6.753 53.987 -6.195 51.883 C-3.592 40.507 -4.229 27.915 -5.63 16.394 C-5.916 13.956 -6.065 11.543 -6.113 9.09 C-6.139 8.289 -6.165 7.489 -6.191 6.664 C-5.585 2.483 -4.249 0.597 0 0 Z M-86.863 111.402 C-94.926 126.137 -96.83 142.344 -93.031 158.664 C-90.213 167.684 -85.4 175.854 -80.596 183.946 C-73.525 195.909 -70.76 207.246 -74.012 220.996 C-75.773 227.774 -78.682 233.752 -81.863 239.965 C-88.688 253.343 -93.772 266.378 -89.738 281.527 C-85.732 293.008 -78.645 301.764 -70.754 310.824 C-61.443 321.867 -55.454 334.355 -55.551 348.965 C-55.553 349.407 -55.553 349.407 -55.566 351.644 C-55.768 363.084 -58.761 373.608 -62.149 384.456 C-65.774 396.206 -66.337 407.374 -60.785 418.578 C-57.682 423.69 -53.687 427.647 -49.426 431.777 C-40.402 440.568 -35.25 450.18 -30.441 461.703 C-29.057 465.012 -27.505 468.212 -25.863 471.402 C-24.213 471.402 -22.563 471.402 -20.863 471.402 C-22.64 463.265 -24.816 455.915 -28.676 448.527 C-41.422 424.111 -44.16 403.997 -40 376.909 C-38.668 368.157 -37.638 359.556 -37.613 350.691 C-37.61 349.969 -37.607 349.246 -37.604 348.501 C-37.807 331.484 -46.544 315.861 -54.1 301.059 C-67.115 275.548 -68.326 256.202 -61.707 228.539 C-59.678 219.998 -58.233 212.244 -58.863 203.402 C-58.942 202.207 -59.021 201.012 -59.102 199.781 C-59.327 196.652 -59.581 193.527 -59.863 190.402 C-58.873 190.402 -57.883 190.402 -56.863 190.402 C-50.99 203.596 -54.654 221.185 -57.863 234.652 C-64.834 264.252 -57.221 284.462 -43.648 310.699 C-31.859 333.56 -30.803 354.642 -35.363 379.777 C-39.147 400.688 -38.801 416.466 -29.051 435.777 C-27.971 437.972 -26.892 440.167 -25.816 442.363 C-25.304 443.405 -24.792 444.446 -24.264 445.519 C-20.183 453.922 -16.633 462.477 -13.863 471.402 C-12.213 471.072 -10.563 470.742 -8.863 470.402 C-8.698 464.886 -9.136 460.007 -10.551 454.652 C-10.731 453.956 -10.911 453.26 -11.096 452.543 C-12.793 446.233 -15.162 440.349 -17.863 434.402 C-18.801 432.292 -19.732 430.18 -20.661 428.066 C-21.283 426.653 -21.909 425.241 -22.54 423.832 C-28.369 410.694 -26.631 397.498 -21.672 384.407 C-20.026 380.327 -18.157 376.346 -16.326 372.347 C-8.963 355.755 -9.86 340.073 -15.973 323.371 C-19.892 314.759 -25.856 307.423 -31.508 299.898 C-41.77 286.216 -48.418 272.922 -46.863 255.402 C-45.098 246.033 -42.058 236.912 -39.176 227.84 C-33.063 208.561 -33.29 191.257 -42.693 173.063 C-46.885 165.282 -52.119 159.165 -58.197 152.792 C-68.638 141.829 -77.022 130.991 -83.488 117.266 C-84.863 114.402 -84.863 114.402 -86.863 111.402 Z M-14.863 384.402 C-15.514 386.13 -16.158 387.859 -16.801 389.59 C-17.16 390.553 -17.52 391.516 -17.891 392.508 C-21.875 404.364 -20.104 415.629 -14.73 426.746 C-14.444 427.293 -14.158 427.839 -13.863 428.402 C-13.203 428.402 -12.543 428.402 -11.863 428.402 C-11.38 427.008 -10.902 425.612 -10.426 424.215 C-10.159 423.438 -9.892 422.66 -9.617 421.859 C-5.677 409.019 -7.88 396.556 -12.863 384.402 C-13.523 384.402 -14.183 384.402 -14.863 384.402 Z " fill="#000000" transform="translate(153.86328125,501.59765625)"/>
<path d="M0 0 C1.742 1.578 1.742 1.578 3 4 C2.917 6.594 2.687 8.842 2.25 11.375 C2.038 12.817 1.828 14.26 1.621 15.703 C1.514 16.426 1.407 17.148 1.296 17.893 C-2.328 43.661 4.312 64.008 17.625 85.625 C29.558 105.064 34.666 126.852 29.92 149.498 C26.423 163.552 19.765 175.672 12.218 187.896 C5.419 199.016 0.992 210.644 3.543 223.801 C5.831 232.082 9.578 239.556 13.345 247.246 C22.003 265.099 25.23 284.182 19.305 303.43 C15.021 315.151 8.868 324.105 1.234 333.812 C-11.655 350.3 -15.726 363.325 -13.175 384.242 C-13.125 384.646 -13.125 384.646 -12.875 386.688 C-10.851 403.822 -15.824 418.155 -26 432 C-32.811 440.499 -41.273 449.697 -52 453 C-55.375 453.301 -55.375 453.301 -59 453.312 C-60.196 453.329 -61.393 453.346 -62.625 453.363 C-66.248 452.973 -68.115 452.18 -71 450 C-73.241 445.519 -71.273 439.846 -69.816 435.328 C-69.592 434.661 -69.368 433.993 -69.137 433.306 C-64.244 418.488 -64.032 403.566 -70 389 C-70.279 388.318 -70.557 387.636 -70.844 386.933 C-73.289 380.961 -73.289 380.961 -74.537 378.085 C-77.908 370.234 -79.372 363.18 -79.312 354.625 C-79.308 353.787 -79.303 352.949 -79.298 352.086 C-79.181 345.96 -78.509 340.646 -76 335 C-75.66 334.198 -75.319 333.396 -74.969 332.57 C-71.282 324.574 -66.009 317.735 -60.508 310.906 C-51.974 300.272 -44.381 289.176 -45 275 C-46.583 266.792 -49.669 259.243 -53 251.625 C-60.236 234.955 -63.588 219.812 -58 202 C-57.756 201.203 -57.513 200.407 -57.262 199.586 C-53.621 189.269 -46.858 179.838 -40.438 171.062 C-30.529 157.152 -21.899 140.361 -24.466 122.814 C-26.395 113.89 -29.054 105.352 -32.062 96.75 C-40.509 72.527 -42.704 49.612 -31.438 25.812 C-26.014 15.095 -13.713 -2.743 0 0 Z M-14.523 14.348 C-27.457 28.199 -32.625 45.683 -32.266 64.398 C-31.698 77.732 -26.688 90.326 -22.174 102.74 C-15.379 121.601 -15.03 139.221 -23.432 157.729 C-27.386 165.938 -32.52 173.175 -37.838 180.548 C-41.577 185.788 -44.894 191.041 -47.75 196.812 C-47.905 197.126 -47.905 197.126 -48.691 198.713 C-54.762 211.533 -54.843 225.54 -50.348 238.871 C-48.086 245.131 -45.466 251.272 -42.768 257.355 C-37.422 269.512 -35.903 281.438 -40.691 294.113 C-44.29 302.053 -49.45 308.619 -54.938 315.312 C-65.448 328.183 -72.825 341.169 -72.414 358.262 C-71.364 367.741 -67.744 376.477 -63.875 385.125 C-54.702 405.858 -58.479 424.218 -65 445 C-64.01 445 -63.02 445 -62 445 C-57.401 440.362 -55.017 434.008 -52.75 428 C-52.627 427.674 -52.627 427.674 -52.005 426.025 C-48.985 417.65 -47.711 409.922 -47.945 401.023 C-47.971 399.116 -47.995 397.208 -48.02 395.301 C-48.069 392.346 -48.125 389.391 -48.192 386.436 C-48.555 369.336 -46.786 355.853 -38.312 340.625 C-37.787 339.647 -37.262 338.67 -36.721 337.663 C-35.162 334.767 -33.585 331.882 -32 329 C-19.021 305.323 -14.647 285.315 -22 259 C-30.136 229.561 -29.087 210.706 -16.311 182.972 C-5.483 159.453 -0.6 138.928 -1 113 C-0.01 113 0.98 113 2 113 C10.331 138.513 -2.748 166.792 -13.33 189.548 C-23.863 212.375 -24.481 229.646 -18.062 253.562 C-9.669 285.139 -12.976 306.473 -29.125 334.75 C-29.723 335.767 -30.321 336.784 -30.937 337.832 C-40.338 354.016 -44.684 369.98 -42.5 388.688 C-40.322 409.002 -43.81 424.443 -54 442 C-54.68 443.326 -55.355 444.656 -56 446 C-46.351 445.055 -39.874 437.277 -33.75 430.312 C-25.427 419.948 -19.587 408.101 -19.75 394.625 C-19.751 394.235 -19.751 394.235 -19.757 392.263 C-19.828 386.829 -20.368 381.563 -21.125 376.188 C-23.842 355.753 -14.107 342.123 -2.383 326.547 C9.7 310.433 17.07 293.911 14.562 273.426 C12.395 262.083 7.616 252.024 2.597 241.709 C2.036 240.555 1.476 239.4 0.898 238.211 C0.39 237.183 -0.119 236.155 -0.643 235.095 C-5.735 223.481 -5.593 210.138 -1.398 198.254 C2.081 190.157 6.392 182.526 11.062 175.062 C21.695 157.545 27.076 137.52 23.273 117.098 C22.337 113.654 21.24 110.345 20 107 C19.696 106.091 19.392 105.182 19.078 104.246 C16.413 97.039 12.514 90.689 8.562 84.125 C-6.366 59.27 -8.45 37.336 -5 9 C-9.491 9 -11.316 11.375 -14.523 14.348 Z " fill="#000000" transform="translate(931,528)"/>
<path d="M0 0 C0.699 0.413 1.397 0.825 2.117 1.25 C8.865 5.732 12.32 11.953 15.375 19.312 C17.321 30.792 15.844 40.107 10.188 50.25 C4.035 57.984 -2.976 64.081 -13 66 C-22.086 66.885 -29.216 65.434 -36.672 60.082 C-43.431 54.432 -48.366 47.811 -50 39 C-50.881 26.852 -49.883 17.163 -41.75 7.625 C-30.632 -3.858 -14.456 -8.795 0 0 Z M-10.812 16.062 C-13.443 19.595 -14 21.609 -14 26 C-12.485 30.015 -11.594 31.604 -8 34 C-3.983 34.611 -2.501 34.367 0.812 31.938 C3.443 28.405 4 26.391 4 22 C2.485 17.985 1.594 16.396 -2 14 C-6.017 13.389 -7.499 13.633 -10.812 16.062 Z " fill="#000000" transform="translate(743,576)"/>
<path d="M0 0 C2.375 1.5 2.375 1.5 4 4 C4.445 8.375 4.086 11.938 3.062 16.188 C0.411 27.253 -0.319 38.43 5.312 48.625 C7.807 52.548 10.674 56.048 13.664 59.594 C26.284 74.572 34.57 90.895 33 111 C31.597 120.413 28.948 129.373 25.75 138.312 C22.762 146.807 20.737 155.531 24.438 164.188 C26.919 168.378 30.325 171.815 33.621 175.371 C43.627 186.428 48.91 196.925 48.445 212.07 C46.595 228.396 38.871 243.685 27 255 C23.618 256.691 19.841 256.269 16.125 256.312 C15.309 256.342 14.493 256.371 13.652 256.4 C9.784 256.441 7.67 256.46 4.418 254.227 C1.886 250.25 3.582 245.902 4.535 241.566 C6.113 232.857 5.568 222.823 0.858 215.136 C-2.976 209.65 -7.572 205.869 -12.938 201.938 C-24.321 193.497 -33.082 185.622 -35.719 171.07 C-37.796 155.778 -29.972 143.504 -22.184 131.109 C-16.892 122.675 -13.489 114.374 -15.551 104.312 C-17.646 96.367 -21.184 89.821 -25.275 82.752 C-33.935 67.596 -37.388 52.403 -33.039 35.27 C-28.451 20.833 -19.418 10.543 -8 1 C-5.159 -0.42 -3.145 -0.315 0 0 Z M-12.359 14.305 C-22.539 24.695 -27.357 37.86 -27.378 52.17 C-27.113 64.465 -21.542 74.057 -15.606 84.458 C-8.95 96.225 -5.564 107.647 -9.125 121.125 C-11.8 128.861 -16.126 135.713 -20.625 142.5 C-26.806 152.19 -29.657 161.424 -28 173 C-24.293 185.019 -15.57 191.406 -5.812 198.562 C4.026 205.863 10.083 213.648 12 226 C12.334 234.045 12.03 242.016 11 250 C12.867 249.75 12.867 249.75 15 249 C16.195 247.25 16.195 247.25 17.125 245 C17.437 244.278 17.749 243.556 18.07 242.812 C22.091 230.65 23.593 215.516 18.328 203.539 C14.727 196.654 10.86 190.117 6.312 183.812 C-2.523 171.463 -3.802 157.682 -1.521 142.896 C-0.54 137.687 0.611 132.526 1.809 127.363 C4.836 114.22 4.897 101.802 1.423 88.774 C0.442 85.089 -0.238 81.821 0 78 C1.863 78.145 1.863 78.145 4 79 C5.23 81.512 5.23 81.512 6.188 84.688 C6.511 85.723 6.835 86.758 7.168 87.824 C11.01 102.489 9.17 116.473 6 131.062 C2.479 147.376 -0.27 162.388 8.466 177.543 C10.078 180.021 11.744 182.452 13.438 184.875 C18.48 192.34 22.473 199.29 25 208 C25.196 208.621 25.392 209.243 25.594 209.883 C27.441 219.511 26.063 229.521 23.754 238.914 C23.017 241.931 22.474 244.932 22 248 C31.695 243.777 35.388 231.514 39.043 222.398 C42.48 212.489 42.234 202.58 37.82 193.047 C34.273 187.11 29.592 182.139 25 177 C18.72 169.393 14.792 162.09 15 152 C15.919 144.871 17.875 138.209 20.26 131.461 C24.96 118.151 27.863 104.969 24 91 C23.776 90.187 23.551 89.373 23.32 88.535 C19.813 78.231 12.128 69.456 5.188 61.25 C-4.068 50.113 -6.874 39.286 -6 25 C-5.573 22.104 -5.04 19.257 -4.445 16.391 C-3.919 13.564 -3.845 10.868 -4 8 C-6.873 8 -10.375 12.496 -12.359 14.305 Z " fill="#000000" transform="translate(810,725)"/>
</svg>
