<?xml version="1.0" encoding="UTF-8"?>
<!-- Generator: visioncortex VTracer 0.6.12 -->
<svg version="1.1" xmlns="http://www.w3.org/2000/svg" width="1024" height="1024">
<path d="M0 0 C13.933 12.602 19.963 29.778 20.973 48.211 C21.01 49.094 21.047 49.977 21.086 50.887 C21.666 50.985 22.246 51.083 22.844 51.184 C29.091 52.38 33.754 54.088 37.961 59.137 C38.332 59.714 38.703 60.292 39.086 60.887 C42.32 59.812 45.551 58.729 48.777 57.633 C50.068 57.197 51.358 56.76 52.648 56.324 C53.295 56.103 53.941 55.882 54.607 55.654 C68.622 50.935 86.071 50.818 99.633 57.059 C107.6 61.277 113.13 66.27 117.336 74.262 C121.23 87.891 117.171 101.724 110.449 113.836 C102.885 126.023 94.461 136.48 82.086 143.887 C82.594 145.038 83.102 146.189 83.625 147.375 C98.297 181.093 105.051 216.888 105.316 253.632 C105.333 255.882 105.356 258.132 105.381 260.382 C105.45 266.772 105.511 273.162 105.563 279.552 C105.902 320.227 106.657 361.748 135.086 393.887 C135.83 394.739 136.574 395.591 137.34 396.469 C140.649 400.204 144.004 403.85 147.586 407.324 C152.16 411.845 156.136 416.82 160.086 421.887 C160.498 422.412 160.91 422.936 161.334 423.477 C177.784 444.66 184.531 467.274 181.871 494.054 C179.051 515.12 166.123 533.51 150.242 546.996 C136.558 558.995 136.558 558.995 135.75 565.656 C135.664 572.317 135.82 576.636 140.086 581.887 C146.596 587.14 154.075 587.027 162.086 586.887 C162.746 588.537 163.406 590.187 164.086 591.887 C156.207 601.81 147.578 606.747 135.086 608.887 C122.954 609.856 112.077 606.682 102.664 598.879 C96.038 592.664 91.853 586.09 91.086 576.887 C91.023 576.268 90.96 575.649 90.895 575.012 C90.227 563.289 95.327 553.03 100.523 542.887 C109.721 524.917 116.584 506.222 111.086 485.887 C105.299 468.45 93.835 453.948 81.199 440.871 C80.296 439.928 79.392 438.984 78.461 438.012 C77.644 437.189 76.826 436.367 75.984 435.52 C73.663 432.3 73.365 429.801 73.086 425.887 C75.349 425.196 75.349 425.196 78.086 424.887 C80.024 426.08 80.024 426.08 81.871 427.945 C82.561 428.633 83.251 429.321 83.961 430.03 C84.683 430.787 85.405 431.544 86.148 432.324 C86.899 433.096 87.65 433.868 88.424 434.663 C108.164 455.335 121.823 478.012 121.34 507.199 C120.821 522.39 114.682 534.617 107.961 548.004 C102.838 558.301 97.894 568.743 100.699 580.445 C103.277 587.906 107.539 592.401 114.43 596.168 C118.206 597.93 121.916 599.47 126.086 599.887 C126.694 599.95 127.303 600.013 127.93 600.078 C135.09 600.48 141.387 598.206 148.086 595.887 C147.808 595.783 147.808 595.783 146.398 595.258 C138.271 591.977 131.346 587.324 127.773 579.047 C125.345 571.418 125.548 564.135 129.086 556.887 C133.073 550.712 138.044 545.862 143.461 540.949 C159.366 526.184 172.414 509.988 173.324 487.27 C174.041 453.958 157.771 431.545 135.643 408.376 C101.089 372.138 96.924 330.4 96.586 282.199 C96.267 236.91 94.799 189.313 74.086 147.887 C73.324 147.922 72.562 147.956 71.777 147.992 C59.912 148.303 52.964 145.732 44.086 137.887 C43.417 137.312 42.748 136.737 42.059 136.145 C33.878 128.596 26.444 117.526 23.086 106.887 C23.086 105.897 23.086 104.907 23.086 103.887 C22.601 103.99 22.601 103.99 20.148 104.512 C14.226 105.339 9.048 103.943 3.836 101.137 C1.086 98.887 1.086 98.887 -1.039 95.512 C-3.914 92.887 -3.914 92.887 -6.086 92.949 C-8.041 93.356 -9.992 93.78 -11.941 94.215 C-25.543 96.881 -42.071 96.579 -54.258 89.531 C-61.813 84.273 -67.237 77.643 -69.473 68.637 C-71.868 53.715 -68.523 39.038 -63.914 24.887 C-64.486 24.722 -65.058 24.557 -65.647 24.386 C-71.634 22.627 -77.529 20.665 -83.426 18.625 C-153.508 -5.439 -239.391 1.576 -305.914 33.887 C-306.744 34.289 -307.574 34.691 -308.429 35.105 C-334.311 47.796 -356.236 64.965 -376.914 84.887 C-377.779 85.71 -378.644 86.534 -379.535 87.383 C-404.121 111.287 -420.941 142.096 -432.914 173.887 C-433.145 174.496 -433.145 174.496 -434.316 177.578 C-440.141 193.934 -444.161 211.611 -445.914 228.887 C-446.024 229.814 -446.133 230.74 -446.246 231.695 C-449.601 265.383 -445.069 298.972 -433.655 330.743 C-432.612 333.76 -431.752 336.807 -430.914 339.887 C-430.254 339.887 -429.594 339.887 -428.914 339.887 C-428.811 339.608 -428.811 339.608 -428.289 338.199 C-425.016 332.695 -419.82 329.927 -413.914 327.887 C-412.264 327.887 -410.614 327.887 -408.914 327.887 C-408.914 316.997 -408.914 306.107 -408.914 294.887 C-412.544 294.557 -416.174 294.227 -419.914 293.887 C-421.914 291.887 -421.914 291.887 -422.039 289.512 C-420.564 286.069 -418.586 285.632 -415.289 284.16 C-401.585 276.812 -391.955 261.745 -383.914 248.887 C-383.574 248.348 -383.574 248.348 -381.855 245.621 C-372.326 229.745 -365.684 212.247 -359.957 194.696 C-359.786 194.193 -359.786 194.193 -358.922 191.645 C-358.629 190.749 -358.337 189.853 -358.036 188.93 C-356.914 186.887 -356.914 186.887 -354.914 185.964 C-354.254 185.939 -353.594 185.913 -352.914 185.887 C-350.914 187.887 -350.914 187.887 -350.641 191.508 C-350.763 195.958 -351.816 199.772 -353.289 203.949 C-353.552 204.712 -353.814 205.474 -354.085 206.26 C-362.98 231.364 -374.6 254.477 -391.664 274.949 C-392.1 275.474 -392.535 275.998 -392.984 276.538 C-395.216 279.149 -397.525 281.467 -400.18 283.633 C-402.914 285.887 -402.914 285.887 -403.914 287.887 C-400.572 287.263 -397.244 286.576 -393.914 285.887 C-393.29 285.764 -393.29 285.764 -390.133 285.145 C-378.748 282.788 -368.42 278.828 -357.914 273.887 C-357.187 273.545 -356.46 273.204 -355.71 272.852 C-339.169 264.925 -324.481 254.182 -311.411 241.349 C-309.928 239.9 -308.42 238.482 -306.906 237.066 C-288.942 220.021 -275.21 198.289 -264.914 175.887 C-264.612 175.231 -264.309 174.575 -263.998 173.9 C-261.207 167.8 -258.522 161.686 -256.285 155.359 C-256.022 154.621 -255.76 153.883 -255.489 153.123 C-254.991 151.704 -254.508 150.279 -254.042 148.85 C-253.371 146.922 -253.371 146.922 -251.914 143.887 C-249.801 142.883 -249.801 142.883 -247.914 142.887 C-246.384 144.416 -246.729 145.802 -246.699 147.93 C-246.761 152.722 -247.75 156.709 -249.352 161.199 C-249.484 161.582 -249.484 161.582 -250.157 163.519 C-265.524 206.544 -294.534 243.762 -331.914 269.887 C-282.57 272.385 -235.963 266.451 -191.914 242.887 C-190.758 242.273 -189.601 241.66 -188.41 241.027 C-173.258 232.684 -159.896 222.643 -147.581 210.518 C-146.059 209.028 -144.515 207.569 -142.957 206.117 C-119.826 184.045 -106.6 154.483 -95.914 124.887 C-94.594 124.887 -93.274 124.887 -91.914 124.887 C-90.914 125.887 -90.914 125.887 -90.602 129.137 C-90.616 133.128 -91.658 136.322 -92.977 140.074 C-100.48 163.715 -85.244 197.592 -74.617 218.828 C-68.121 231.295 -59.701 241.876 -49.914 251.887 C-49.053 252.81 -48.192 253.733 -47.305 254.684 C-30.235 272.561 -1.368 292.233 24.189 292.945 C26.155 292.949 28.121 292.92 30.086 292.887 C29.336 292.183 28.585 291.479 27.812 290.754 C1.717 265.791 -12.799 230.047 -21.852 195.699 C-21.999 195.144 -21.999 195.144 -22.744 192.336 C-24.472 185.523 -25.515 178.905 -25.914 171.887 C-24.594 171.227 -23.274 170.567 -21.914 169.887 C-19.008 172.323 -18.262 174.412 -17.371 178.059 C-17.239 178.581 -17.239 178.581 -16.569 181.227 C-16.43 181.789 -16.43 181.789 -15.727 184.637 C-10.78 203.758 -4.384 222.045 4.086 239.887 C4.405 240.573 4.725 241.26 5.054 241.967 C12.332 257.559 21.585 271.106 33.086 283.887 C33.724 284.597 34.362 285.307 35.02 286.039 C39.196 290.447 43.935 293.698 49.086 296.887 C48.336 298.824 48.336 298.824 47.086 300.887 C34.019 305.261 16.599 301.247 4.086 296.887 C4.278 305.115 6.246 312.265 8.832 319.992 C10.136 323.911 11.125 327.871 12.086 331.887 C12.582 331.549 13.079 331.211 13.59 330.863 C20.888 326.072 27.644 323.63 36.469 325.352 C45.375 327.653 51.206 332.257 56.762 339.469 C60.448 346.199 61.595 352.721 61.461 360.324 C61.452 361.158 61.442 361.991 61.432 362.849 C61.283 368.947 60.569 374.266 58.086 379.887 C57.922 380.293 57.922 380.293 57.09 382.352 C51.089 395.827 40.285 404.493 26.918 409.906 C22.357 411.485 18.28 412.025 13.461 412.012 C12.52 412.014 11.579 412.017 10.609 412.02 C8.086 411.887 8.086 411.887 5.086 410.887 C4.815 411.61 4.545 412.333 4.266 413.078 C-3.8 432.281 -21.003 446.731 -37.914 457.887 C-38.308 458.154 -38.308 458.154 -40.301 459.508 C-59.357 471.78 -82.972 477.734 -105.098 481.379 C-107.914 481.887 -107.914 481.887 -109.914 482.887 C-109.647 483.076 -109.647 483.076 -108.297 484.031 C-80.418 504.627 -70.261 540.449 -59.934 571.941 C-58.907 575.069 -57.88 578.197 -56.852 581.324 C-56.725 581.709 -56.725 581.709 -56.087 583.654 C-52.014 596.022 -47.523 608.117 -41.914 619.887 C-41.638 620.578 -41.362 621.27 -41.078 621.983 C-39.565 624.457 -38.219 624.976 -35.555 626.07 C-34.686 626.441 -33.817 626.812 -32.922 627.193 C-32.012 627.567 -31.102 627.94 -30.164 628.324 C-21.36 631.959 -14.753 635.246 -9.914 643.887 C-7.988 649.086 -7.723 653.428 -7.914 658.887 C-7.089 659.034 -6.264 659.181 -5.414 659.332 C19.659 664.201 43.062 676.325 57.722 697.907 C59.613 700.844 61.375 703.842 63.086 706.887 C63.415 707.468 63.744 708.049 64.083 708.648 C85.184 746.635 94.902 792.287 103.023 834.637 C103.173 835.411 103.323 836.185 103.478 836.982 C109.687 869.287 109.687 869.287 102.961 881.262 C93.816 894.14 77.279 897.674 62.707 900.555 C56.251 901.915 52.513 903.85 47.488 908.062 C29.636 921.619 0.699 923.942 -20.914 925.887 C-21.37 925.933 -21.37 925.933 -23.675 926.17 C-34.814 927.2 -45.988 927.085 -57.164 927.074 C-58.233 927.074 -59.301 927.074 -60.403 927.073 C-98.536 927.029 -98.536 927.029 -115.352 922.949 C-121.303 921.633 -123.873 922.208 -128.977 925.348 C-179.735 951.942 -278.197 940.826 -331.602 927.387 C-332.362 927.197 -333.123 927.008 -333.907 926.813 C-334.261 926.717 -334.261 926.717 -336.051 926.23 C-336.656 926.067 -337.262 925.904 -337.885 925.736 C-339.914 924.887 -339.914 924.887 -342.659 922.834 C-346.511 920.53 -349.51 920.332 -353.863 920.383 C-354.625 920.375 -355.387 920.367 -356.171 920.358 C-357.802 920.341 -359.432 920.332 -361.063 920.33 C-365.368 920.32 -369.672 920.235 -373.977 920.148 C-374.834 920.132 -375.691 920.115 -376.574 920.098 C-403.914 919.483 -432.062 914.879 -457.914 905.887 C-458.264 905.765 -458.264 905.765 -460.038 905.148 C-471.661 901.011 -484.085 895.743 -490.914 884.887 C-493.36 879.709 -494.494 874.823 -494.477 869.074 C-494.477 868.702 -494.477 868.702 -494.478 866.817 C-494.085 852.699 -489.933 838.368 -485.914 824.887 C-494.04 824.466 -498.75 826.46 -504.914 831.887 C-507.098 834.443 -509.098 837.125 -511.102 839.824 C-512.252 841.352 -513.404 842.879 -514.555 844.406 C-515.121 845.162 -515.688 845.919 -516.271 846.698 C-531.654 867.197 -531.654 867.197 -539.75 874.02 C-541.212 875.281 -542.635 876.591 -544.016 877.941 C-563.294 896.557 -591.461 908.119 -617.914 910.887 C-618.842 910.996 -619.77 911.106 -620.727 911.219 C-648.03 914.128 -679.457 908.238 -702.32 892.309 C-704.197 890.635 -705.586 889.026 -706.914 886.887 C-706.795 883.508 -706.653 880.976 -704.727 878.137 C-701.344 875.804 -697.802 874.183 -693.914 872.887 C-692.932 871.111 -692.932 871.111 -691.914 868.887 C-690.836 867.345 -689.737 865.819 -688.621 864.305 C-684.991 859.178 -682.273 853.869 -679.602 848.199 C-672.926 834.478 -664.988 822.378 -654.914 810.887 C-654.401 810.278 -653.888 809.67 -653.359 809.043 C-641.445 795.956 -622.168 785.396 -604.914 781.887 C-605.641 781.509 -606.368 781.131 -607.117 780.742 C-627.92 769.354 -644.352 749.425 -651.591 726.767 C-657.063 707.661 -657.282 688.415 -653.981 668.89 C-652.474 659.952 -652.989 651.878 -654.555 642.979 C-655.091 639.259 -655.107 637.243 -653.297 633.902 C-649.559 630.74 -646.79 631.271 -642.051 631.473 C-609.801 634.333 -581.285 647.203 -555.914 666.887 C-555.224 667.419 -554.535 667.951 -553.824 668.5 C-552.476 669.575 -551.185 670.722 -549.914 671.887 C-549.914 672.547 -549.914 673.207 -549.914 673.887 C-549.361 674.098 -548.808 674.31 -548.238 674.527 C-545.103 676.361 -543.018 678.877 -540.727 681.637 C-540.245 682.214 -539.764 682.791 -539.268 683.385 C-521.343 705.316 -512.547 730.262 -507.537 757.781 C-504.121 776.062 -504.121 776.062 -497.164 782.387 C-488.321 786.468 -479.484 786.114 -469.914 785.887 C-469.756 785.171 -469.597 784.454 -469.434 783.717 C-467.584 775.812 -465.013 768.445 -461.914 760.949 C-461.433 759.781 -460.953 758.612 -460.458 757.408 C-444.758 719.918 -420.605 684.83 -381.95 668.697 C-375.685 666.204 -369.307 664.023 -362.914 661.887 C-363.074 661.456 -363.074 661.456 -363.883 659.277 C-365.799 652.978 -366.2 646.301 -363.852 640.066 C-359.242 631.874 -352.64 626.966 -344.914 621.887 C-325.931 609.342 -320.482 591.57 -312.914 570.887 C-312.64 570.139 -312.366 569.391 -312.084 568.62 C-311.496 567.016 -310.909 565.411 -310.321 563.805 C-309.711 562.138 -309.1 560.471 -308.489 558.803 C-306.984 554.701 -305.485 550.596 -304 546.486 C-294.216 519.553 -294.216 519.553 -287.164 508.699 C-286.751 508.052 -286.339 507.405 -285.914 506.738 C-282.888 502.108 -279.584 497.754 -276.039 493.512 C-275.587 492.97 -275.135 492.428 -274.669 491.87 C-272.322 489.17 -270.279 487.186 -266.914 485.887 C-266.914 485.227 -266.914 484.567 -266.914 483.887 C-267.269 483.866 -267.269 483.866 -269.062 483.762 C-277.039 483.211 -284.673 481.912 -292.477 480.199 C-293.088 480.066 -293.088 480.066 -296.185 479.39 C-332.574 471.249 -365.666 455.664 -387.094 423.906 C-388.698 421.246 -389.851 418.681 -391.039 415.824 C-392.727 412.594 -393.668 411.977 -397.164 410.695 C-399.121 410.224 -401.079 409.753 -403.048 409.331 C-413.594 407.019 -422.256 400.267 -428.914 391.887 C-434.244 383.113 -437.277 374.717 -437.102 364.449 C-437.101 363.737 -437.1 363.025 -437.1 362.291 C-437.07 358.704 -436.841 355.345 -436.211 351.812 C-435.867 347.264 -436.97 344.455 -438.977 340.512 C-464.566 286.151 -459.882 222.013 -440.473 166.625 C-436.442 155.665 -431.312 145.229 -425.914 134.887 C-425.534 134.156 -425.153 133.426 -424.761 132.673 C-417.949 119.779 -409.221 108.076 -399.914 96.887 C-399.5 96.382 -399.086 95.878 -398.659 95.358 C-387.353 81.626 -375.041 68.741 -360.914 57.887 C-359.675 56.897 -358.437 55.906 -357.199 54.914 C-314.371 20.934 -262.726 4.268 -208.914 -2.113 C-207.934 -2.23 -206.953 -2.348 -205.943 -2.468 C-158.299 -7.888 -103.49 -4.901 -59.914 16.887 C-59.65 16.174 -59.386 15.461 -59.113 14.727 C-54.964 4.901 -49.04 -2.849 -39.352 -7.426 C-25.521 -12.995 -11.195 -9.369 0 0 Z M-44.914 6.887 C-56.815 21.589 -62.779 43.935 -61.727 62.574 C-60.788 70.618 -57.693 76.25 -51.352 81.344 C-40.423 88.261 -26.081 88.413 -13.664 86.137 C-9.868 84.872 -7.569 83.884 -4.914 80.887 C-4.793 78.25 -4.793 78.25 -4.914 75.887 C-7.204 74.882 -9.496 73.883 -11.789 72.887 C-12.44 72.601 -13.091 72.314 -13.762 72.02 C-18.688 69.887 -18.688 69.887 -20.914 69.887 C-20.914 68.237 -20.914 66.587 -20.914 64.887 C-16.649 63.465 -13.714 65.233 -9.727 66.824 C-9.352 66.97 -9.352 66.97 -7.455 67.705 C-5.605 68.424 -3.759 69.154 -1.914 69.887 C-1.574 69.246 -1.233 68.605 -0.883 67.945 C1.777 63.198 3.979 59.732 8.461 56.574 C11.076 54.43 11.97 53.391 12.734 50.059 C13.2 35.216 7.386 19.296 -2.727 8.387 C-10.232 1.453 -18.779 -1.483 -28.836 -1.398 C-35.41 -0.789 -40.023 2.655 -44.914 6.887 Z M9.086 65.887 C4.736 73.044 2.286 79.474 3.086 87.887 C4.434 91.332 5.637 92.569 8.648 94.699 C14.022 96.555 19.121 97.297 24.402 94.785 C30.44 90.626 32.548 85.95 34.086 78.887 C34.626 73.176 34.384 68.777 31.086 63.887 C27.699 60.201 24.335 58.87 19.426 58.543 C14.729 59.233 11.951 62.298 9.086 65.887 Z M55.086 63.887 C53.864 64.196 52.642 64.505 51.383 64.824 C47.542 66.11 45.06 67.119 42.086 69.887 C39.996 75.289 40.054 81.169 40.086 86.887 C41.229 87.273 42.373 87.66 43.551 88.059 C45.042 88.584 46.533 89.11 48.023 89.637 C48.778 89.889 49.533 90.142 50.311 90.402 C52.488 91.184 52.488 91.184 56.086 92.887 C56.873 94.931 56.873 94.931 57.086 96.887 C56.756 97.217 56.426 97.547 56.086 97.887 C50.913 97.524 46.7 96.561 41.945 94.508 C40.086 93.887 40.086 93.887 36.086 93.887 C33.961 96.324 33.961 96.324 32.086 98.887 C31.756 99.052 31.756 99.052 30.086 99.887 C33.568 112.176 40.098 121.899 49.086 130.887 C49.781 131.582 50.476 132.276 51.191 132.992 C55.216 136.768 58.446 139.218 64.086 139.887 C75.511 139.305 84.078 133.77 91.793 125.617 C102.156 113.277 111.458 98.657 110.594 81.984 C109.649 76.22 107.485 72.88 103.031 69.18 C88.549 58.882 71.654 59.174 55.086 63.887 Z M-102.914 163.887 C-103.425 164.917 -103.935 165.947 -104.461 167.008 C-122.326 202.311 -149.827 228.379 -183.914 247.887 C-185.037 248.543 -186.16 249.199 -187.316 249.875 C-211.593 263.502 -238.531 271.539 -265.914 275.887 C-266.63 276.005 -267.347 276.124 -268.085 276.246 C-279.944 278.125 -291.877 278.065 -303.852 278.074 C-304.253 278.075 -304.253 278.075 -306.282 278.078 C-316.446 278.076 -326.503 277.842 -336.6 276.541 C-344.242 275.644 -349.964 279.004 -356.592 282.32 C-369.023 288.522 -381.311 291.411 -395.027 293.309 C-398.914 293.887 -398.914 293.887 -401.914 294.887 C-399.061 405.356 -399.061 405.356 -363.203 439.898 C-320.73 476.79 -256.309 479.619 -202.914 480.887 C-202.006 480.91 -201.097 480.933 -200.162 480.958 C-140.577 482.3 -68.149 478.061 -22.086 436.324 C-16.534 431.005 -11.993 425.394 -7.914 418.887 C-7.244 417.837 -6.573 416.788 -5.883 415.707 C-1.576 408.718 1.376 401.941 3.364 393.953 C3.883 391.992 3.883 391.992 5.086 388.887 C7.227 387.938 7.227 387.938 9.086 387.887 C10.288 391.418 9.881 394.016 9.148 397.637 C9.051 398.129 9.051 398.129 8.559 400.621 C8.403 401.369 8.247 402.116 8.086 402.887 C15.018 405.198 21.521 403.581 28.086 400.887 C41.203 394.067 47.953 384.935 52.73 371.008 C54.271 361.813 54.598 350.772 49.086 342.887 C43.935 336.963 39.61 334.268 31.902 333.047 C27.01 332.769 23.256 334.111 19.473 337.207 C18.974 337.658 18.475 338.109 17.961 338.574 C15.086 340.887 15.086 340.887 11.898 341.449 C9.086 340.887 9.086 340.887 7.594 339.332 C5.613 336.12 4.373 332.749 3.148 329.199 C2.889 328.455 2.63 327.711 2.362 326.945 C0.137 320.384 -1.561 313.746 -3.055 306.984 C-3.205 306.332 -3.355 305.68 -3.51 305.009 C-3.914 302.887 -3.914 302.887 -4.111 300.366 C-4.528 296.463 -4.845 293.827 -7.877 291.161 C-10.539 289.602 -13.232 288.291 -16.039 287.012 C-18.054 286.005 -20.065 284.988 -22.07 283.961 C-23.064 283.454 -24.058 282.946 -25.082 282.423 C-36.554 276.199 -46.666 267.005 -55.914 257.887 C-56.37 257.437 -56.37 257.437 -58.676 255.164 C-70.764 242.627 -79.81 227.724 -86.914 211.887 C-87.445 210.712 -87.976 209.538 -88.523 208.328 C-94.144 195.102 -98.001 180.96 -100.378 166.796 C-100.555 166.166 -100.732 165.536 -100.914 164.887 C-101.574 164.557 -102.234 164.227 -102.914 163.887 Z M-420.914 340.887 C-428.31 349.806 -429.742 358.577 -429.101 369.936 C-428.119 380.205 -422.085 388.39 -414.488 394.996 C-409.109 399.045 -404.564 400.921 -397.914 401.887 C-398.037 401.276 -398.159 400.665 -398.286 400.035 C-398.642 398.257 -398.998 396.478 -399.353 394.7 C-399.697 392.976 -400.042 391.253 -400.39 389.531 C-403.872 372.103 -405.914 354.533 -407.914 336.887 C-413.21 336.716 -416.809 337.427 -420.914 340.887 Z M-144.459 485.954 C-176.972 489.11 -209.968 489.19 -242.512 486.324 C-244.312 486.175 -246.113 486.028 -247.914 485.887 C-248.679 485.823 -249.444 485.758 -250.232 485.692 C-256.737 485.374 -259.458 488.011 -264.117 492.148 C-286.167 513.737 -295.221 544.027 -305.115 572.471 C-312.509 593.674 -312.509 593.674 -317.137 603.02 C-317.439 603.633 -317.741 604.246 -318.052 604.878 C-323.489 615.347 -332.172 622.549 -341.914 628.887 C-348.85 633.758 -356.376 639.165 -357.977 648.012 C-357.908 652.273 -357.428 654.451 -354.914 657.887 C-352.531 658.773 -352.531 658.773 -349.914 658.887 C-348.055 657.473 -348.055 657.473 -346.164 655.262 C-333.451 641.704 -317.177 631.983 -300.727 623.637 C-300.06 623.291 -299.394 622.945 -298.708 622.589 C-295.554 620.999 -292.895 619.882 -289.414 619.121 C-285.575 618.237 -283.749 617.676 -280.914 614.887 C-278.254 608.134 -277.357 600.85 -276.355 593.702 C-275.962 591.194 -275.437 588.809 -274.781 586.359 C-273.406 580.853 -274.375 576.807 -276.914 571.887 C-280.23 558.29 -277.015 545.625 -269.914 533.887 C-269.251 533.291 -268.589 532.696 -267.906 532.082 C-264.972 528.848 -264.137 525.209 -262.914 521.074 C-261.163 515.239 -259.472 509.89 -255.914 504.887 C-253.164 503.949 -253.164 503.949 -250.914 503.887 C-251.275 504.935 -251.636 505.983 -252.008 507.062 C-252.477 508.441 -252.946 509.82 -253.414 511.199 C-253.653 511.89 -253.891 512.58 -254.137 513.291 C-255.146 516.276 -255.914 518.713 -255.914 521.887 C-255.406 521.869 -255.406 521.869 -252.836 521.781 C-234.034 521.325 -218.921 526.868 -204.914 539.887 C-204.584 540.547 -204.254 541.207 -203.914 541.887 C-200.228 541.313 -198.633 539.875 -196.039 537.262 C-185.253 527.397 -170.502 522.087 -155.918 522.543 C-146.213 523.654 -137.564 527.903 -129.914 533.887 C-129.383 534.614 -128.852 535.341 -128.305 536.09 C-127.846 536.683 -127.387 537.276 -126.914 537.887 C-123.727 538.137 -123.727 538.137 -120.914 537.887 C-118.123 544.741 -116.246 551.791 -114.357 558.934 C-90.66 648.197 -90.66 648.197 -67.914 666.887 C-63.874 668.945 -60.591 670.294 -56.039 670.137 C-55.659 670.129 -55.659 670.129 -53.734 670.09 C-51.914 669.887 -51.914 669.887 -50.914 668.887 C-50.842 667.201 -50.83 665.512 -50.852 663.824 C-50.856 663.365 -50.856 663.365 -50.879 661.039 C-50.891 660.329 -50.902 659.619 -50.914 658.887 C-46.622 659.237 -44.453 659.531 -40.789 661.949 C-35.675 665.127 -29.701 664.511 -23.914 663.887 C-19.649 662.369 -18.415 661.638 -15.914 657.887 C-15.182 652.55 -16.199 649.125 -19.188 644.801 C-24.875 638.496 -33.018 635.923 -40.934 633.551 C-47.442 629.917 -50.144 621.748 -52.977 615.137 C-53.353 614.259 -53.73 613.381 -54.117 612.477 C-59.384 599.8 -63.417 586.661 -67.688 573.626 C-91.547 500.99 -91.547 500.99 -120.066 485.699 C-127.898 483.465 -136.489 485.173 -144.459 485.954 Z M-263.102 536.512 C-266.23 540.957 -268.134 545.776 -269.914 550.887 C-267.006 551.856 -264.929 552.071 -261.892 552.184 C-260.871 552.224 -259.85 552.264 -258.798 552.305 C-258.248 552.324 -258.248 552.324 -255.465 552.422 C-254.901 552.443 -254.901 552.443 -252.047 552.552 C-248.441 552.689 -244.834 552.819 -241.227 552.949 C-238.783 553.041 -236.34 553.132 -233.896 553.225 C-227.903 553.45 -221.908 553.67 -215.914 553.887 C-215.914 555.207 -215.914 556.527 -215.914 557.887 C-234.064 557.887 -252.214 557.887 -270.914 557.887 C-270.914 569.755 -270.914 569.755 -266.914 574.887 C-258.283 582.264 -247.761 582.658 -236.956 582.082 C-227.073 581.137 -219.139 575.595 -212.602 568.449 C-208.935 563.881 -206.946 559.908 -206.852 553.949 C-208.253 546.663 -212.83 542.42 -218.782 538.324 C-232.201 529.567 -251.033 521.792 -263.102 536.512 Z M-195.574 547.211 C-198.74 551.17 -199.432 554.543 -199.277 559.527 C-198.137 566.932 -192.156 572.143 -186.742 576.836 C-176.326 584.389 -164.337 586.182 -151.816 584.461 C-143.797 582.774 -136.837 579.496 -131.441 573.156 C-128.588 568.687 -128.608 565.435 -127.914 559.887 C-149.364 559.557 -170.814 559.227 -192.914 558.887 C-192.914 557.567 -192.914 556.247 -192.914 554.887 C-172.124 554.887 -151.334 554.887 -129.914 554.887 C-128.712 550.078 -129.443 548.973 -131.68 544.844 C-135.957 538.062 -142.743 533.723 -150.309 531.43 C-167.473 527.853 -183.663 535.008 -195.574 547.211 Z M-120.914 569.887 C-121.182 570.455 -121.45 571.024 -121.727 571.609 C-126.877 581.757 -133.251 586.103 -143.863 589.941 C-156.478 593.85 -170.788 593.005 -182.914 587.887 C-191.053 583.558 -197.231 578.107 -202.914 570.887 C-203.842 571.712 -204.77 572.537 -205.727 573.387 C-218.536 584.263 -230.207 591.001 -247.469 589.598 C-254.277 588.734 -260.501 587.319 -266.914 584.887 C-270.327 594.639 -271.529 604.691 -272.914 614.887 C-224.145 630.404 -156.369 626.533 -106.914 615.887 C-107.571 610.296 -108.861 605.076 -110.418 599.672 C-110.661 598.816 -110.903 597.96 -111.154 597.079 C-111.924 594.368 -112.7 591.658 -113.477 588.949 C-114.002 587.102 -114.528 585.255 -115.053 583.408 C-116.335 578.9 -117.623 574.393 -118.914 569.887 C-119.574 569.887 -120.234 569.887 -120.914 569.887 Z M-289.977 625.949 C-290.818 626.262 -291.66 626.575 -292.528 626.897 C-299.456 629.553 -305.741 632.737 -311.914 636.887 C-312.677 637.36 -313.44 637.833 -314.227 638.32 C-315.914 639.887 -315.914 639.887 -316.262 641.938 C-315.522 647.805 -314.271 650.82 -309.914 654.887 C-301.54 659.946 -291.651 659.844 -282.164 658.496 C-275.92 656.935 -271.427 653.638 -266.457 649.629 C-263.841 647.837 -262.032 647.256 -258.914 646.887 C-258.882 647.237 -258.882 647.237 -258.723 649.012 C-257.766 656.424 -255.866 661.194 -249.914 665.887 C-243.083 670.051 -235.775 671.051 -227.914 669.887 C-220.104 667.539 -214.487 662.561 -209.914 655.887 C-209.199 653.609 -209.199 653.609 -208.914 651.887 C-207.264 652.217 -205.614 652.547 -203.914 652.887 C-203.873 654.165 -203.832 655.444 -203.789 656.762 C-202.99 663.618 -199.915 669.322 -194.656 673.816 C-187.328 678.871 -180.784 679.859 -171.914 678.887 C-163.008 675.889 -156.521 670.775 -152.188 662.461 C-151.977 662.201 -151.977 662.201 -150.914 660.887 C-149.594 660.887 -148.274 660.887 -146.914 660.887 C-146.767 661.527 -146.62 662.168 -146.469 662.828 C-144.609 669.999 -142.209 675.015 -135.945 679.203 C-129.046 682.79 -121.699 683.054 -114.207 681.227 C-108.009 679.027 -103.451 675.591 -98.914 670.887 C-98.068 670.041 -97.223 669.195 -96.352 668.324 C-91.176 655.949 -98.641 635.969 -102.914 623.887 C-108.379 623.727 -113.409 624.352 -118.789 625.262 C-151.515 630.42 -185.505 630.85 -218.539 629.199 C-219.343 629.16 -220.148 629.121 -220.976 629.08 C-235.516 628.341 -249.848 626.683 -264.247 624.564 C-264.994 624.454 -265.742 624.344 -266.513 624.231 C-268.527 623.931 -270.54 623.623 -272.553 623.314 C-279.285 622.458 -283.717 623.6 -289.977 625.949 Z M-343.914 662.887 C-356.19 675.464 -356.19 675.464 -359.914 682.887 C-359.533 687.839 -356.538 691.579 -352.914 694.887 C-347.491 699.051 -341.875 699.558 -335.172 699.34 C-327.638 698.292 -321.812 694.575 -316.914 688.887 C-316.584 688.557 -316.254 688.227 -315.914 687.887 C-315.541 685.747 -315.216 683.6 -314.914 681.449 C-314.022 675.104 -314.022 675.104 -312.914 672.887 C-311.264 672.887 -309.614 672.887 -307.914 672.887 C-308.021 674.093 -308.128 675.3 -308.238 676.543 C-308.36 678.157 -308.481 679.772 -308.602 681.387 C-308.638 681.782 -308.638 681.782 -308.822 683.785 C-309.306 690.73 -307.952 695.684 -304.164 701.637 C-298.471 707.33 -292.285 709.032 -284.414 709.324 C-274.997 709.246 -267.71 705.756 -260.789 699.449 C-257.766 696.154 -256.716 693.252 -255.914 688.887 C-254.594 688.887 -253.274 688.887 -251.914 688.887 C-251.9 689.637 -251.886 690.387 -251.871 691.16 C-251.45 700.188 -249.36 706.823 -243.477 713.762 C-234.436 721.259 -226.409 722.73 -214.882 722.086 C-207.421 721.329 -201.099 718.198 -195.914 712.887 C-192.616 708.672 -191.141 705 -189.914 699.887 C-188.264 699.887 -186.614 699.887 -184.914 699.887 C-184.96 700.949 -185.007 702.011 -185.055 703.105 C-185.505 717.69 -185.505 717.69 -180.914 723.887 C-180.213 724.939 -179.512 725.99 -178.789 727.074 C-174.224 732.183 -167.591 734.909 -160.914 735.887 C-152.668 736.313 -145.935 733.6 -139.605 728.434 C-136.206 725.324 -133.604 722.546 -132.914 717.887 C-131.264 718.217 -129.614 718.547 -127.914 718.887 C-127.895 719.219 -127.895 719.219 -127.801 720.898 C-127.12 730.039 -127.12 730.039 -123.914 733.887 C-123.254 733.887 -122.594 733.887 -121.914 733.887 C-108.545 719.151 -98.866 699.785 -96.914 679.887 C-99.221 681.037 -101.524 682.195 -103.824 683.359 C-104.864 683.884 -105.905 684.409 -106.977 684.949 C-108.019 685.476 -109.062 686.004 -110.137 686.547 C-117.922 690.303 -126.748 689.956 -134.852 687.199 C-141.863 684.295 -146.008 680.347 -149.914 673.887 C-153.075 675.314 -155.462 677.088 -158.102 679.324 C-166.336 685.751 -174.569 687.018 -184.914 685.887 C-188.508 684.957 -191.647 683.639 -194.914 681.887 C-195.55 681.548 -196.185 681.209 -196.84 680.859 C-202.316 677.448 -205.495 672.238 -208.914 666.887 C-209.78 667.464 -210.647 668.042 -211.539 668.637 C-212.089 669 -212.64 669.364 -213.207 669.738 C-214.779 670.796 -216.317 671.902 -217.852 673.012 C-225.704 677.819 -234.603 677.801 -243.477 676.262 C-251.734 674.09 -257.435 670.224 -262.039 663.012 C-263.02 661.316 -263.987 659.612 -264.914 657.887 C-265.283 658.092 -265.283 658.092 -267.152 659.129 C-280.007 665.957 -292.809 667.891 -306.914 663.887 C-313.327 661.555 -317.747 658.229 -320.883 651.945 C-321.61 650.28 -322.269 648.585 -322.914 646.887 C-329.799 646.887 -339.175 658.334 -343.914 662.887 Z M-645.914 639.887 C-645.584 646.157 -645.254 652.427 -644.914 658.887 C-637.152 662.213 -637.152 662.213 -633.488 663.578 C-609.809 672.583 -590.141 685.347 -571.914 702.887 C-571.235 703.503 -570.555 704.119 -569.855 704.754 C-549.407 723.884 -535.2 751.079 -523.668 776.184 C-521.462 780.932 -519.28 784.84 -515.914 788.887 C-515.914 789.877 -515.914 790.867 -515.914 791.887 C-521.576 790.555 -523.874 786.483 -526.914 781.887 C-528.917 778.366 -530.729 774.76 -532.539 771.137 C-541.554 753.546 -551.437 737.239 -563.914 721.887 C-564.398 721.287 -564.881 720.688 -565.379 720.071 C-586.085 694.544 -612.721 674.324 -644.914 665.887 C-649.961 695.478 -648.483 723.363 -630.973 748.695 C-629.044 751.193 -627.033 753.548 -624.914 755.887 C-624.177 756.717 -623.439 757.547 -622.68 758.402 C-611.949 769.835 -599.615 776.018 -584.914 780.887 C-584.914 782.537 -584.914 784.187 -584.914 785.887 C-585.634 786.037 -586.353 786.187 -587.094 786.342 C-613.535 791.942 -613.535 791.942 -623.914 797.887 C-624.349 798.123 -624.349 798.123 -626.551 799.316 C-632.846 802.883 -638.458 807.149 -643.914 811.887 C-644.716 812.58 -645.518 813.274 -646.344 813.988 C-657.76 824.602 -665.594 838.406 -672.223 852.371 C-674.012 856.091 -675.986 859.646 -678.102 863.188 C-678.914 864.887 -678.914 864.887 -678.914 867.887 C-641.618 876.275 -605.052 869.79 -572.852 849.699 C-562.788 843.183 -554.084 834.895 -545.389 826.696 C-525.961 808.39 -525.961 808.39 -515.414 807.637 C-514.589 807.719 -513.764 807.802 -512.914 807.887 C-513.078 809.719 -513.078 809.719 -513.914 811.887 C-516.25 813.273 -516.25 813.273 -519.289 814.574 C-531.652 820.419 -541.521 830.816 -551.332 840.199 C-581.161 868.179 -618.498 877.854 -658.47 877.041 C-665.167 876.741 -671.408 875.437 -677.914 873.887 C-681.641 873.09 -681.641 873.09 -684.914 872.887 C-686.664 874.18 -686.664 874.18 -687.914 876.074 C-690.81 879.987 -693.58 881.72 -697.914 883.887 C-694.53 887.793 -690.832 889.699 -686.227 891.824 C-685.482 892.17 -684.737 892.517 -683.97 892.874 C-676.169 896.39 -668.201 898.811 -659.914 900.887 C-659.456 901.004 -659.456 901.004 -657.141 901.598 C-642.443 904.797 -626.633 904.59 -611.914 901.887 C-611.256 901.772 -610.597 901.658 -609.918 901.54 C-586.811 897.397 -565.515 886.215 -547.914 870.887 C-547.259 870.353 -546.604 869.819 -545.93 869.27 C-541.399 865.561 -537.653 861.381 -533.914 856.887 C-533.213 856.05 -532.512 855.214 -531.789 854.352 C-527.855 849.605 -524.071 844.787 -520.414 839.824 C-504.895 818.969 -504.895 818.969 -493.914 816.887 C-489.766 816.591 -485.933 816.773 -481.914 817.887 C-482.07 816.981 -482.226 816.074 -482.387 815.141 C-483.518 808.061 -484.134 801.962 -482.914 794.887 C-483.76 794.728 -484.605 794.57 -485.477 794.406 C-495.304 792.385 -502.726 789.893 -508.511 781.331 C-513.225 773.119 -514.721 763.474 -516.289 754.262 C-522.943 717.888 -541.2 686.335 -571.914 664.887 C-594.135 650.18 -619.185 640.622 -645.914 639.887 Z M-87.914 655.887 C-87.951 657.133 -87.989 658.38 -88.027 659.664 C-89.326 695.937 -101.721 725.139 -128.133 750.449 C-160.119 780.094 -201.958 799.246 -242.914 812.887 C-243.403 813.053 -243.403 813.053 -245.878 813.896 C-274.908 823.708 -305.487 830.351 -335.914 833.887 C-336.847 833.996 -337.779 834.105 -338.74 834.217 C-381.025 838.994 -436.842 842.741 -476.914 825.887 C-479.604 831.606 -481.137 837.298 -482.539 843.449 C-482.756 844.369 -482.972 845.289 -483.195 846.236 C-484.923 853.652 -486.126 860.706 -486.227 868.324 C-486.256 869.049 -486.285 869.774 -486.314 870.521 C-486.388 876.83 -484.651 880.918 -480.301 885.637 C-456.049 903.477 -421.974 907.941 -392.914 910.887 C-391.629 911.019 -390.344 911.152 -389.02 911.289 C-376.362 912.345 -363.604 911.977 -350.914 911.887 C-350.888 910.929 -350.863 909.971 -350.836 908.984 C-350.311 895.204 -348.442 878.792 -340.914 866.887 C-338.758 866.074 -338.758 866.074 -336.914 865.887 C-337.264 871.13 -338.035 875.512 -339.852 880.449 C-343.015 889.423 -346.571 903.734 -342.727 912.637 C-338.741 917.584 -333.259 918.874 -327.352 920.387 C-326.519 920.602 -325.686 920.817 -324.828 921.038 C-315.616 923.33 -306.33 924.74 -296.914 925.887 C-296.109 925.986 -295.304 926.085 -294.474 926.187 C-163.295 941.861 -163.295 941.861 -124.914 914.887 C-117.775 900.609 -127.534 874.1 -132.07 860.199 C-133.234 857.009 -134.658 853.964 -136.147 850.914 C-136.914 848.887 -136.914 848.887 -136.914 844.887 C-135.594 844.887 -134.274 844.887 -132.914 844.887 C-125.364 859.007 -120.56 873.046 -117.914 888.887 C-117.781 889.66 -117.649 890.434 -117.512 891.23 C-116.417 899.027 -116.833 907.033 -116.914 914.887 C-112.064 917.302 -107.143 917.559 -101.828 917.992 C-100.821 918.076 -99.814 918.16 -98.776 918.246 C-86.29 919.198 -73.805 919.238 -61.289 919.199 C-60.059 919.197 -58.83 919.196 -57.563 919.194 C-39.529 919.149 -21.74 918.885 -3.914 915.887 C-2.86 915.71 -1.807 915.533 -0.721 915.351 C35.53 908.995 35.53 908.995 49.086 897.887 C56.402 886.913 50.701 863.616 48.414 851.285 C43.449 826.557 37.309 798.221 23.086 776.887 C23.086 775.897 23.086 774.907 23.086 773.887 C25.211 773.887 25.211 773.887 28.086 774.887 C32.577 779.674 35.512 785.232 37.961 791.262 C38.293 792.067 38.624 792.872 38.966 793.702 C51.536 825.132 58.094 858.137 59.086 891.887 C71.989 890.448 86.175 887.943 95.148 877.699 C101.13 869.017 98.49 854.471 96.688 844.566 C96.063 841.291 95.393 838.026 94.711 834.762 C94.349 832.979 93.988 831.195 93.626 829.412 C69.017 709.529 69.017 709.529 31.406 682.98 C19.087 675.212 1.14 665.392 -13.914 666.887 C-16.119 667.782 -18.173 668.861 -20.285 669.957 C-27.142 672.382 -35.95 671.522 -42.914 669.887 C-43.306 670.67 -43.698 671.454 -44.102 672.262 C-46.236 675.353 -47.396 675.771 -50.914 676.887 C-59.665 678.043 -67.16 676.295 -74.328 671.156 C-79.093 667.164 -82.596 662.877 -85.82 657.574 C-86.181 657.017 -86.542 656.46 -86.914 655.887 C-87.244 655.887 -87.574 655.887 -87.914 655.887 Z M-360.914 669.887 C-384.403 678.125 -405.777 688.314 -421.914 707.887 C-422.739 708.863 -423.564 709.838 -424.414 710.844 C-442.165 732.277 -453.397 758.603 -461.914 784.887 C-444.358 785.423 -426.625 776.567 -413.914 764.887 C-413.209 764.25 -412.504 763.613 -411.777 762.957 C-397.9 749.793 -389.98 731.69 -382.889 714.271 C-376.835 699.465 -370.319 684.225 -359.914 671.887 C-360.079 671.557 -360.079 671.557 -360.914 669.887 Z M-365.914 692.887 C-367.208 695.615 -368.499 698.344 -369.789 701.074 C-370.154 701.843 -370.519 702.612 -370.895 703.404 C-374.717 711.5 -377.401 717.408 -374.727 726.449 C-372.636 732.158 -370.026 735.603 -364.727 738.824 C-357.58 740.816 -351.173 739.661 -344.738 736.059 C-337.487 731.4 -337.487 731.4 -336.039 727.574 C-335.998 727.017 -335.957 726.46 -335.914 725.887 C-334.264 726.217 -332.614 726.547 -330.914 726.887 C-330.913 727.298 -330.913 727.298 -330.906 729.379 C-330.558 739.424 -327.942 746.343 -320.602 753.324 C-315.214 757.513 -308.763 759.474 -301.953 759.176 C-294.053 758.056 -287.683 754.782 -282.164 749.012 C-279.971 745.966 -278.859 743.494 -277.914 739.887 C-276.264 740.217 -274.614 740.547 -272.914 740.887 C-272.955 742.021 -272.997 743.155 -273.039 744.324 C-272.978 752.985 -271.138 759.622 -264.914 765.887 C-257.9 771.323 -251.694 772.59 -242.914 771.887 C-235.83 770.483 -229.783 765.992 -225.664 760.098 C-225.334 759.554 -225.004 759.01 -224.664 758.449 C-224.087 757.604 -223.509 756.758 -222.914 755.887 C-221.594 755.887 -220.274 755.887 -218.914 755.887 C-218.9 756.565 -218.886 757.243 -218.871 757.941 C-218.461 765.941 -216.724 772.677 -211.238 778.738 C-207.836 781.801 -204.25 784.351 -199.914 785.887 C-194.177 785.537 -190.088 783.793 -185.164 781.074 C-184.799 780.876 -184.799 780.876 -182.953 779.874 C-135.108 753.492 -135.108 753.492 -128.914 738.887 C-129.574 737.897 -129.574 737.897 -132.914 732.887 C-133.307 733.128 -133.307 733.128 -135.293 734.348 C-146.418 741.037 -155.426 743.362 -168.469 741.527 C-176.422 739.433 -182.708 733.544 -186.879 726.629 C-188.327 723.747 -189.675 720.863 -190.914 717.887 C-191.627 718.357 -192.34 718.828 -193.074 719.312 C-205.107 727.135 -215.342 730.793 -229.926 728.391 C-239.266 726.085 -246.406 721.872 -251.914 713.887 C-253.397 711.262 -254.661 708.635 -255.914 705.887 C-259.094 706.947 -261.494 708.273 -264.102 710.324 C-271.746 715.893 -280.696 716.787 -289.914 715.887 C-299.467 714.03 -306.189 709.75 -311.914 701.887 C-312.61 700.569 -313.286 699.238 -313.914 697.887 C-317.399 699.229 -320.716 700.747 -324.039 702.449 C-331.706 706.376 -339.215 707.208 -347.711 705.238 C-353.921 702.982 -360.857 699 -363.914 692.887 C-364.574 692.887 -365.234 692.887 -365.914 692.887 Z M-381.914 730.887 C-382.201 731.441 -382.489 731.996 -382.784 732.567 C-384.095 735.092 -385.411 737.615 -386.727 740.137 C-386.952 740.573 -386.952 740.573 -388.096 742.781 C-388.537 743.626 -388.979 744.47 -389.434 745.34 C-389.837 746.115 -390.24 746.89 -390.656 747.688 C-391.914 749.887 -391.914 749.887 -393.546 751.968 C-395.694 754.98 -395.276 757.268 -394.914 760.887 C-393.497 767.1 -391.097 770.247 -385.914 773.887 C-381.831 775.928 -377.624 775.434 -373.41 774.086 C-367.393 771.413 -364.058 768.184 -360.484 762.68 C-359.966 762.088 -359.448 761.496 -358.914 760.887 C-357.594 760.887 -356.274 760.887 -354.914 760.887 C-355.021 761.926 -355.128 762.965 -355.238 764.035 C-356.141 773.946 -356.569 782.547 -350.164 790.824 C-345.427 795.723 -340.872 797.051 -334.227 797.449 C-326.559 797.247 -319.7 794.262 -313.969 789.152 C-313.456 788.611 -312.943 788.07 -312.414 787.512 C-312.002 787.079 -312.002 787.079 -309.914 784.887 C-308.594 784.887 -307.274 784.887 -305.914 784.887 C-306.058 785.877 -306.203 786.867 -306.352 787.887 C-306.437 788.53 -306.522 789.173 -306.609 789.836 C-306.902 791.804 -307.312 793.753 -307.727 795.699 C-308.352 800.977 -306.561 805.378 -303.914 809.887 C-299.819 814.592 -295.289 817.635 -288.984 818.105 C-283.574 818.042 -278.47 816.443 -273.289 815.012 C-272.724 814.857 -272.724 814.857 -269.862 814.074 C-248.697 808.14 -228.112 800.532 -207.914 791.887 C-209.061 788.445 -209.683 788.163 -212.602 786.262 C-218.019 782.374 -221.803 777.221 -223.914 770.887 C-226.42 772.089 -228.689 773.383 -231.039 774.887 C-239.067 779.438 -248.013 779.535 -256.914 777.887 C-265.973 775.172 -271.831 770.239 -276.352 762.012 C-277.22 760.311 -278.08 758.605 -278.914 756.887 C-279.883 757.464 -280.853 758.042 -281.852 758.637 C-292.262 764.499 -301.589 767.514 -313.574 764.598 C-321.772 762.107 -326.944 757.924 -331.914 750.887 C-333.821 747.304 -335.444 743.668 -336.914 739.887 C-340.072 741.118 -343.118 742.466 -346.164 743.949 C-353.601 747.219 -359.827 747.613 -367.555 744.961 C-374.178 741.945 -377.727 737.26 -380.914 730.887 C-381.244 730.887 -381.574 730.887 -381.914 730.887 Z M-405.242 766.152 C-406.704 767.638 -408.159 769.131 -409.613 770.625 C-411.891 772.94 -414.171 775.092 -416.711 777.121 C-418.914 778.887 -418.914 778.887 -419.914 780.887 C-420.471 786.844 -420.436 791.839 -416.914 796.887 C-412.507 801.317 -408.835 803.033 -402.602 803.137 C-396.862 803.084 -393.302 801.783 -388.789 798.199 C-386.914 796.887 -386.914 796.887 -382.914 796.887 C-383.331 799.878 -383.738 802.494 -384.977 805.262 C-386.873 810.573 -386.542 815.104 -384.227 820.137 C-381.962 824.238 -379.113 826.787 -374.914 828.887 C-372.41 829.01 -369.946 829.068 -367.441 829.062 C-366.686 829.061 -365.931 829.06 -365.152 829.058 C-357.317 828.977 -349.591 828.238 -341.812 827.343 C-339.482 827.075 -337.151 826.822 -334.818 826.572 C-324.113 825.396 -313.519 823.757 -302.914 821.887 C-303.334 821.345 -303.753 820.803 -304.186 820.244 C-309.447 813.412 -313.12 807.408 -314.914 798.887 C-315.713 799.248 -316.512 799.609 -317.336 799.98 C-327.224 804.158 -336.53 805.998 -346.816 801.984 C-354.253 798.093 -358.355 792.78 -360.914 784.887 C-361.683 782.227 -362.323 779.595 -362.914 776.887 C-363.574 777.155 -364.234 777.423 -364.914 777.699 C-365.904 778.091 -366.894 778.483 -367.914 778.887 C-368.507 779.151 -369.1 779.415 -369.711 779.688 C-375.504 782.132 -380.925 783.112 -387.051 781.23 C-393.619 778.328 -397.943 773.488 -400.789 766.949 C-401.16 765.939 -401.532 764.928 -401.914 763.887 C-402.914 763.887 -402.914 763.887 -405.242 766.152 Z M-434.352 786.137 C-447.705 791.294 -461.736 793.419 -475.914 794.887 C-478.124 802.659 -477.287 809.642 -473.914 816.887 C-472.372 819.413 -471.502 820.655 -468.723 821.752 C-467.869 821.922 -467.016 822.091 -466.137 822.266 C-465.65 822.364 -465.65 822.364 -463.187 822.864 C-462.128 823.057 -461.068 823.25 -459.977 823.449 C-459.421 823.554 -459.421 823.554 -456.61 824.085 C-433.5 828.274 -410.34 829.456 -386.914 829.887 C-387.063 829.59 -387.063 829.59 -387.816 828.086 C-390.654 822.401 -392.25 818.066 -392.605 811.707 C-392.656 811.407 -392.656 811.407 -392.914 809.887 C-393.574 809.557 -394.234 809.227 -394.914 808.887 C-395.574 809.217 -396.234 809.547 -396.914 809.887 C-405.41 810.74 -412.122 810.337 -418.914 804.887 C-425.486 798.796 -427.016 792.572 -427.914 783.887 C-430.059 783.887 -432.428 785.339 -434.352 786.137 Z " fill="#000000" transform="translate(790.9140625,44.11328125)"/>
<path d="M0 0 C1.194 -0.017 2.387 -0.034 3.617 -0.051 C10.001 0.61 14.003 3.54 18.125 8.312 C22.53 14.359 23.764 20.45 22.625 27.812 C20.902 34.462 16.264 39.346 10.438 42.812 C4.198 45.549 -2.994 45.36 -9.312 43.062 C-9.735 42.774 -9.735 42.774 -11.875 41.312 C-12.741 40.756 -13.607 40.199 -14.5 39.625 C-19.348 34.905 -21.523 28.832 -22.188 22.188 C-21.637 15.365 -19.608 9.415 -14.375 4.812 C-9.598 1.077 -6.137 0.02 0 0 Z M-11.875 14.312 C-14.198 18.998 -14.273 23.517 -12.777 28.484 C-11.156 31.768 -8.894 33.279 -5.875 35.312 C-1.799 36.671 1.913 37.147 6.031 35.594 C10.03 33.493 12.558 31.554 14.125 27.312 C14.801 22.265 14.701 18.486 12.438 13.875 C8.642 9.669 5.898 8.135 0.25 7.75 C-5.31 7.941 -8.592 9.84 -11.875 14.312 Z " fill="#000000" transform="translate(199.875,58.6875)"/>
<path d="M0 0 C6.235 4.213 10.615 9.846 13 17 C13.68 28.016 13.484 36.042 6.312 44.75 C-0.021 51.503 -6.649 53.878 -15.75 54.312 C-24.078 54.189 -30.258 50.497 -36.273 44.938 C-42.408 38.053 -43.308 30.43 -43.207 21.512 C-42.716 13.184 -39.206 7.523 -33 2 C-23.634 -5.02 -10.242 -5.487 0 0 Z M-31.375 12.438 C-35.11 18.327 -35.916 24.258 -34.605 31.043 C-32.812 37.024 -29.042 40.497 -24 44 C-18.802 46.712 -13.599 46.251 -8 45 C-2.438 42.167 1.185 38.112 4.312 32.75 C5.996 26.017 5.746 19.835 2.27 13.754 C-0.916 9.353 -4.864 6.74 -10 5 C-19.188 3.695 -24.99 5.885 -31.375 12.438 Z " fill="#000000" transform="translate(156,142)"/>
<path d="M0 0 C4.152 1.101 4.67 2.962 6.78 6.521 C8.807 10.142 10.698 13.817 12.539 17.535 C12.743 17.942 12.743 17.942 13.772 20.002 C15.082 22.624 16.385 25.25 17.688 27.875 C18.596 29.698 19.504 31.522 20.413 33.345 C25.396 43.36 30.338 53.391 35.085 63.52 C37.642 68.947 40.327 74.293 43.09 79.617 C44.148 81.673 45.205 83.729 46.262 85.785 C46.955 87.121 47.653 88.454 48.359 89.784 C49.344 91.64 50.307 93.506 51.266 95.375 C51.829 96.449 52.393 97.523 52.974 98.629 C54.289 102.475 54.008 104.892 53.062 108.812 C51.438 110.75 51.438 110.75 49.062 111.812 C46.752 111.812 44.442 111.812 42.062 111.812 C42.393 156.363 42.722 200.913 43.062 246.812 C46.692 246.812 50.322 246.812 54.062 246.812 C53.732 240.212 53.403 233.613 53.062 226.812 C50.752 225.822 48.442 224.832 46.062 223.812 C44.26 218.817 45.219 215.391 47.31 210.765 C47.661 210.038 48.013 209.311 48.375 208.562 C48.737 207.781 49.1 206.999 49.473 206.194 C52.487 199.787 55.777 193.527 59.129 187.292 C63.058 179.951 66.631 172.457 70.132 164.904 C78.237 147.616 78.237 147.616 83.188 145.438 C86.943 145.927 87.639 146.921 90.062 149.812 C91.588 152.407 92.869 155.1 94.152 157.82 C94.534 158.611 94.915 159.401 95.308 160.215 C96.547 162.786 97.774 165.361 99 167.938 C100.7 171.483 102.404 175.027 104.109 178.57 C104.32 179.009 104.32 179.009 105.387 181.232 C107.923 186.502 110.52 191.733 113.203 196.93 C113.512 197.53 113.82 198.131 114.138 198.75 C115.544 201.486 116.963 204.213 118.404 206.93 C121.08 212.133 122.947 215.927 122.062 221.812 C120.25 224.25 120.25 224.25 118.062 225.812 C117.072 225.812 116.082 225.812 115.062 225.812 C115.392 246.933 115.723 268.053 116.062 289.812 C123.983 289.812 131.902 289.812 140.062 289.812 C144.062 292.812 144.062 292.812 144.58 295.122 C144.582 295.567 144.582 295.567 144.594 297.82 C144.599 298.808 144.604 299.795 144.609 300.812 C144.594 301.844 144.578 302.875 144.562 303.938 C144.578 304.946 144.593 305.954 144.609 306.992 C144.568 314.911 143.064 321.116 138.014 327.336 C135.44 331.922 135.519 335.408 135.593 340.575 C135.591 341.058 135.591 341.058 135.586 343.504 C135.584 346.693 135.61 349.881 135.637 353.07 C135.642 355.297 135.645 357.525 135.647 359.752 C135.654 364.421 135.675 369.089 135.706 373.758 C135.745 379.716 135.763 385.673 135.773 391.632 C135.783 397.34 135.803 403.049 135.824 408.758 C135.826 409.296 135.826 409.296 135.835 412.022 C135.918 433.939 135.918 433.939 137.062 443.812 C144.065 445.841 151.067 447.867 158.071 449.892 C160.443 450.578 162.814 451.264 165.186 451.951 C180.443 456.371 195.723 460.686 211.062 464.812 C211.688 466.688 211.688 466.688 212.062 468.812 C210.062 470.812 210.062 470.812 206.84 471.148 C200.272 470.969 193.952 469.07 187.625 467.438 C186.93 467.262 186.235 467.086 185.519 466.904 C174.768 464.181 164.154 461.095 153.562 457.812 C91.573 438.628 11.354 419.167 -49.938 449.812 C-49.34 449.971 -49.34 449.971 -46.317 450.775 C-41.849 451.963 -37.382 453.155 -32.915 454.347 C-30.988 454.861 -29.061 455.374 -27.134 455.886 C-24.35 456.626 -21.568 457.369 -18.785 458.113 C-17.935 458.338 -17.084 458.564 -16.208 458.795 C-10.711 460.27 -5.316 461.952 0.062 463.812 C-0.25 465.75 -0.25 465.75 -0.938 467.812 C-8.54 470.347 -15.535 467.843 -23 465.812 C-24.174 465.502 -25.349 465.192 -26.559 464.872 C-32.933 463.182 -39.291 461.44 -45.645 459.672 C-90.794 447.18 -130.245 448.368 -173.1 467.968 C-173.923 468.338 -174.746 468.708 -175.594 469.09 C-176.314 469.422 -177.034 469.755 -177.775 470.097 C-180.263 470.92 -182.334 470.938 -184.938 470.812 C-185.562 469 -185.562 469 -185.938 466.812 C-183.437 463.062 -180.529 461.885 -176.562 460.062 C-176.193 459.89 -176.193 459.89 -174.322 459.02 C-151.835 448.812 -151.835 448.812 -144.938 448.812 C-144.813 435.007 -144.748 421.203 -144.759 407.397 C-144.762 400.985 -144.745 394.574 -144.68 388.162 C-144.619 381.963 -144.612 375.766 -144.642 369.566 C-144.644 367.213 -144.626 364.859 -144.589 362.505 C-144.353 346.546 -146.328 336.938 -156.938 324.812 C-159.094 320.499 -158.164 314.745 -158.178 309.954 C-158.187 307.821 -158.218 305.688 -158.25 303.555 C-158.257 302.203 -158.262 300.852 -158.266 299.5 C-158.27 298.883 -158.27 298.883 -158.294 295.762 C-158.176 294.788 -158.059 293.815 -157.938 292.812 C-150.982 288.175 -141.297 290.812 -132.938 290.812 C-132.938 261.772 -132.938 232.732 -132.938 202.812 C-134.917 202.812 -136.898 202.812 -138.938 202.812 C-140.938 200.812 -140.938 200.812 -141.052 198.744 C-140.436 192.426 -138.875 187.508 -136 181.875 C-135.601 181.064 -135.202 180.254 -134.791 179.418 C-133.528 176.872 -132.238 174.34 -130.938 171.812 C-130.522 171.005 -130.107 170.198 -129.679 169.366 C-126.813 163.823 -123.882 158.314 -120.938 152.812 C-119.393 149.918 -117.852 147.022 -116.312 144.125 C-115.945 143.435 -115.578 142.746 -115.2 142.035 C-112.611 137.147 -110.135 132.21 -107.688 127.25 C-100.368 112.525 -100.368 112.525 -97.047 110.871 C-94.937 110.812 -94.937 110.812 -93.055 112.322 C-90.348 115.506 -88.726 118.845 -86.953 122.609 C-86.58 123.383 -86.207 124.157 -85.823 124.955 C-84.604 127.487 -83.396 130.025 -82.188 132.562 C-80.488 136.102 -78.783 139.639 -77.078 143.176 C-76.649 144.068 -76.22 144.96 -75.778 145.879 C-72.98 151.688 -70.133 157.47 -67.234 163.23 C-67.051 163.595 -67.051 163.595 -66.122 165.442 C-64.724 168.216 -63.324 170.988 -61.918 173.757 C-52.661 191.98 -52.661 191.98 -53.438 197.125 C-54.938 199.812 -54.938 199.812 -57.48 200.816 C-59.938 202.812 -59.938 202.812 -60.438 204.932 C-60.663 207.775 -60.734 210.585 -60.75 213.438 C-60.775 214.463 -60.8 215.489 -60.826 216.546 C-60.979 223.554 -61.022 230.574 -60.902 237.583 C-60.855 240.947 -61.11 243.501 -61.938 246.812 C-55.667 246.812 -49.398 246.812 -42.938 246.812 C-42.95 245.416 -42.963 244.02 -42.975 242.581 C-43.094 229.343 -43.212 216.105 -43.329 202.866 C-43.389 196.062 -43.449 189.258 -43.51 182.455 C-43.569 175.873 -43.628 169.292 -43.685 162.711 C-43.707 160.216 -43.73 157.72 -43.752 155.225 C-43.883 140.753 -43.97 126.284 -43.938 111.812 C-44.551 111.838 -45.164 111.863 -45.796 111.889 C-46.604 111.909 -47.411 111.929 -48.242 111.949 C-49.041 111.975 -49.84 112 -50.664 112.026 C-52.938 111.812 -52.938 111.812 -56.062 109.625 C-57.938 106.812 -57.938 106.812 -57.703 104.424 C-56.922 101.759 -55.931 99.63 -54.566 97.215 C-54.08 96.341 -53.593 95.468 -53.091 94.568 C-52.566 93.638 -52.041 92.708 -51.5 91.75 C-47.443 84.448 -43.507 77.117 -39.812 69.625 C-36.395 62.708 -32.886 55.853 -29.263 49.042 C-26.269 43.393 -23.346 37.709 -20.445 32.012 C-19.635 30.423 -18.824 28.835 -18.014 27.246 C-16.793 24.853 -15.573 22.459 -14.361 20.062 C-13.217 17.802 -12.066 15.545 -10.914 13.289 C-10.573 12.61 -10.231 11.93 -9.88 11.23 C-4.8 1.328 -4.8 1.328 0 0 Z M-0.938 12.812 C-23.806 55.401 -23.806 55.401 -32.169 72.301 C-34.307 76.607 -36.489 80.881 -38.754 85.121 C-39.213 85.982 -39.673 86.842 -40.146 87.729 C-41.026 89.367 -41.911 91.003 -42.803 92.635 C-43.001 93.004 -43.001 93.004 -44.004 94.871 C-44.179 95.192 -44.179 95.192 -45.065 96.818 C-45.938 98.812 -45.938 98.812 -46.938 103.812 C-16.577 103.812 13.782 103.812 45.062 103.812 C41.688 93.689 41.688 93.689 39.863 90.121 C39.463 89.33 39.062 88.539 38.65 87.724 C38.229 86.907 37.808 86.091 37.375 85.25 C36.478 83.483 35.581 81.716 34.684 79.949 C34.24 79.081 33.796 78.213 33.339 77.318 C31.518 73.743 29.727 70.153 27.938 66.562 C27.287 65.26 26.636 63.958 25.984 62.656 C17.677 46.042 9.37 29.427 1.062 12.812 C0.403 12.812 -0.257 12.812 -0.938 12.812 Z M-35.938 111.812 C-36.099 145.797 -36.099 145.797 -36.133 160.01 C-36.157 169.833 -36.185 179.657 -36.239 189.481 C-36.279 196.634 -36.305 203.788 -36.314 210.942 C-36.319 214.731 -36.331 218.52 -36.36 222.309 C-36.388 225.873 -36.396 229.438 -36.39 233.003 C-36.392 234.938 -36.413 236.873 -36.435 238.809 C-36.43 239.957 -36.424 241.105 -36.419 242.289 C-36.422 243.289 -36.426 244.289 -36.43 245.319 C-35.795 248.533 -34.571 249.023 -31.938 250.812 C-31.089 255.484 -31.112 260.051 -30.938 264.812 C-25.657 264.812 -20.377 264.812 -14.938 264.812 C-14.876 263.864 -14.876 263.864 -14.562 259.062 C-14.065 251.435 -14.065 251.435 -11.938 248.812 C-9.18 248.203 -9.18 248.203 -5.812 248.062 C-5.229 248.036 -5.229 248.036 -2.277 247.902 C-1.175 247.873 -0.073 247.843 1.062 247.812 C1.886 247.773 2.71 247.733 3.559 247.691 C7.269 247.572 10.1 247.484 13.062 249.812 C13.692 252.454 14.075 254.761 14.312 257.438 C14.39 258.144 14.467 258.85 14.547 259.578 C14.735 261.321 14.901 263.067 15.062 264.812 C19.683 264.812 24.303 264.812 29.062 264.812 C29.392 259.863 29.722 254.913 30.062 249.812 C31.713 249.153 33.363 248.493 35.062 247.812 C35.086 231.114 35.104 214.415 35.114 197.717 C35.119 189.963 35.126 182.209 35.138 174.455 C35.148 167.696 35.154 160.936 35.157 154.176 C35.158 150.599 35.161 147.021 35.168 143.443 C35.176 139.445 35.176 135.447 35.176 131.449 C35.178 130.858 35.178 130.858 35.187 127.87 C35.186 127.322 35.186 127.322 35.183 124.552 C35.184 123.607 35.185 122.662 35.186 121.688 C35.044 118.378 34.531 115.092 34.062 111.812 C10.963 111.812 -12.137 111.812 -35.938 111.812 Z M-96.938 123.812 C-97.279 124.47 -97.62 125.128 -97.972 125.806 C-99.585 128.913 -101.199 132.019 -102.812 135.125 C-103.406 136.268 -104 137.41 -104.611 138.588 C-107.661 144.453 -110.723 150.311 -113.821 156.151 C-118.155 164.328 -122.388 172.553 -126.562 180.812 C-127.096 181.859 -127.63 182.905 -128.18 183.983 C-128.67 184.958 -129.159 185.933 -129.664 186.938 C-130.103 187.806 -130.542 188.675 -130.995 189.57 C-131.938 191.812 -131.938 191.812 -131.938 194.812 C-108.838 194.812 -85.738 194.812 -61.938 194.812 C-64.041 188.502 -66.647 182.652 -69.438 176.625 C-69.973 175.466 -70.508 174.307 -71.06 173.113 C-74.609 165.496 -78.348 158.019 -82.34 150.625 C-85.848 144.099 -89.012 137.434 -92.071 130.688 C-92.419 129.932 -92.767 129.177 -93.125 128.398 C-93.428 127.729 -93.731 127.059 -94.043 126.369 C-94.938 124.812 -94.938 124.812 -96.938 123.812 Z M83.062 156.812 C82.578 157.793 82.093 158.774 81.594 159.785 C78.271 166.482 74.911 173.133 71.312 179.688 C65.738 189.915 61.074 200.609 56.264 211.21 C55.237 213.434 54.174 215.629 53.062 217.812 C56.716 218.663 60.024 218.91 63.771 218.834 C64.892 218.814 66.012 218.794 67.167 218.773 C68.366 218.746 69.565 218.719 70.801 218.691 C72.037 218.668 73.273 218.644 74.546 218.62 C77.819 218.556 81.092 218.488 84.365 218.418 C87.71 218.347 91.055 218.282 94.4 218.217 C100.955 218.088 107.509 217.952 114.062 217.812 C109.441 206.924 104.442 196.281 99.119 185.719 C97.927 183.355 96.742 180.987 95.559 178.619 C91.872 171.264 88.148 163.957 84.062 156.812 C83.733 156.812 83.402 156.812 83.062 156.812 Z M-125.938 202.812 C-125.961 216.486 -125.978 230.159 -125.989 243.832 C-125.995 250.18 -126.002 256.528 -126.013 262.876 C-126.024 268.997 -126.03 275.118 -126.032 281.239 C-126.034 283.579 -126.038 285.92 -126.043 288.261 C-126.05 291.528 -126.051 294.794 -126.051 298.06 C-126.055 299.039 -126.058 300.017 -126.062 301.025 C-126.061 301.91 -126.059 302.794 -126.058 303.706 C-126.059 304.479 -126.06 305.253 -126.061 306.05 C-125.938 307.812 -125.938 307.812 -124.938 308.812 C-123.251 308.885 -121.562 308.896 -119.875 308.875 C-118.956 308.866 -118.037 308.857 -117.09 308.848 C-116.38 308.836 -115.669 308.824 -114.938 308.812 C-114.889 307.669 -114.84 306.526 -114.789 305.348 C-114.714 303.857 -114.638 302.366 -114.562 300.875 C-114.532 300.12 -114.501 299.366 -114.469 298.588 C-114.365 296.657 -114.159 294.733 -113.938 292.812 C-111.171 291.429 -108.927 291.7 -105.836 291.715 C-104.624 291.718 -103.412 291.721 -102.164 291.725 C-100.893 291.733 -99.622 291.741 -98.312 291.75 C-97.034 291.755 -95.755 291.759 -94.438 291.764 C-91.271 291.775 -88.104 291.792 -84.938 291.812 C-83.126 297.248 -83.303 303.126 -82.938 308.812 C-78.317 308.812 -73.697 308.812 -68.938 308.812 C-68.938 273.832 -68.938 238.852 -68.938 202.812 C-77.94 201.687 -77.94 201.687 -81.805 201.683 C-82.67 201.68 -83.534 201.677 -84.424 201.674 C-84.877 201.675 -84.877 201.675 -87.168 201.68 C-87.645 201.679 -87.645 201.679 -90.057 201.677 C-92.06 201.676 -94.063 201.678 -96.065 201.682 C-99.126 201.688 -102.187 201.682 -105.248 201.676 C-107.201 201.676 -109.153 201.678 -111.105 201.68 C-112.017 201.678 -112.929 201.676 -113.868 201.674 C-114.722 201.677 -115.577 201.68 -116.458 201.683 C-117.204 201.684 -117.951 201.685 -118.72 201.686 C-121.196 201.827 -123.518 202.276 -125.938 202.812 Z M72.812 225.188 C71.759 225.231 70.706 225.274 69.621 225.318 C62.197 225.678 62.197 225.678 61.062 226.812 C60.962 229.415 60.928 231.991 60.936 234.595 C60.934 235.42 60.932 236.245 60.931 237.095 C60.927 239.881 60.93 242.667 60.933 245.453 C60.932 247.442 60.93 249.43 60.928 251.419 C60.923 256.836 60.925 262.253 60.928 267.671 C60.931 273.326 60.928 278.982 60.927 284.638 C60.925 294.137 60.927 303.637 60.932 313.137 C60.938 324.137 60.936 335.137 60.93 346.137 C60.926 355.563 60.925 364.989 60.928 374.414 C60.929 380.052 60.929 385.69 60.926 391.328 C60.923 396.627 60.925 401.926 60.931 407.225 C60.932 409.175 60.932 411.126 60.93 413.077 C60.927 415.728 60.931 418.379 60.936 421.03 C60.933 421.813 60.931 422.595 60.929 423.401 C60.948 428.698 60.948 428.698 62.062 429.812 C63.795 430.147 65.539 430.425 67.285 430.68 C68.374 430.842 69.463 431.004 70.585 431.171 C71.754 431.341 72.922 431.512 74.125 431.688 C83.158 433.034 92.133 434.495 101.086 436.297 C104.062 436.812 104.062 436.812 108.062 436.812 C109.067 432.653 109.204 428.641 109.192 424.386 C109.193 424.017 109.193 424.017 109.197 422.146 C109.201 419.669 109.199 417.192 109.195 414.715 C109.196 412.932 109.198 411.149 109.199 409.366 C109.202 404.51 109.198 399.653 109.191 394.796 C109.188 391.751 109.185 388.706 109.184 385.661 C109.163 353.187 108.968 320.714 108.656 288.241 C108.625 284.949 108.595 281.656 108.566 278.363 C108.518 273.154 108.466 267.945 108.41 262.736 C108.39 260.828 108.371 258.92 108.353 257.011 C108.257 246.569 107.979 236.221 107.062 225.812 C95.61 225.037 84.287 224.704 72.812 225.188 Z M-60.938 254.812 C-61.633 259.682 -62.057 263.789 -62.035 268.621 C-62.032 269.862 -62.029 271.103 -62.025 272.381 C-62.017 273.658 -62.009 274.934 -62 276.25 C-61.995 277.554 -61.991 278.858 -61.986 280.201 C-61.975 283.405 -61.958 286.609 -61.938 289.812 C-56.612 290.939 -51.35 291.216 -45.922 291.531 C-42.938 291.812 -42.938 291.812 -41.938 292.812 C-41.597 296.76 -41.537 300.713 -41.478 304.674 C-41.438 306.645 -41.356 308.616 -41.273 310.586 C-41.14 319.971 -43.065 325.526 -48.938 332.812 C-49.627 333.48 -50.317 334.147 -51.028 334.834 C-53.789 339.141 -53.468 342.821 -53.392 347.835 C-53.392 348.338 -53.392 348.338 -53.393 350.882 C-53.391 354.199 -53.359 357.515 -53.328 360.832 C-53.321 363.134 -53.315 365.436 -53.311 367.738 C-53.296 373.793 -53.256 379.848 -53.212 385.903 C-53.171 392.083 -53.153 398.263 -53.133 404.443 C-53.09 416.567 -53.022 428.69 -52.938 440.812 C-47.774 439.745 -42.817 438.564 -37.875 436.688 C-37.405 436.511 -37.405 436.511 -35.027 435.617 C-34.338 435.352 -33.648 435.086 -32.938 434.812 C-32.944 434.012 -32.951 433.212 -32.958 432.388 C-33.018 424.798 -33.064 417.208 -33.093 409.618 C-33.109 405.717 -33.13 401.817 -33.164 397.916 C-33.197 394.142 -33.214 390.369 -33.222 386.595 C-33.228 385.165 -33.238 383.734 -33.255 382.304 C-33.411 368.081 -31.468 353.641 -21.898 342.422 C-15.425 336.245 -8.434 332.718 0.562 332.312 C8.889 332.654 16.281 335.768 22.062 341.812 C29.203 351.717 33.085 362.709 33.268 374.91 C33.278 375.5 33.278 375.5 33.328 378.488 C33.345 379.747 33.362 381.007 33.379 382.305 C33.389 382.955 33.389 382.955 33.442 386.247 C33.497 389.69 33.546 393.132 33.595 396.575 C33.645 400.094 33.701 403.613 33.756 407.133 C33.863 414.026 33.964 420.919 34.062 427.812 C37.363 427.977 37.363 427.977 54.062 428.812 C54.062 371.392 54.062 313.972 54.062 254.812 C48.123 254.812 42.183 254.812 36.062 254.812 C35.918 256.896 35.774 258.979 35.625 261.125 C35.384 264.608 35.168 267.497 34.062 270.812 C25.483 271.142 16.903 271.473 8.062 271.812 C7.733 266.202 7.403 260.592 7.062 254.812 C2.113 254.812 -2.838 254.812 -7.938 254.812 C-8.597 260.092 -9.257 265.373 -9.938 270.812 C-14.041 271.061 -18.144 271.287 -22.25 271.5 C-23.417 271.573 -24.584 271.646 -25.787 271.721 C-26.346 271.748 -26.346 271.748 -29.176 271.887 C-29.692 271.916 -29.692 271.916 -32.302 272.061 C-34.938 271.812 -34.938 271.812 -36.766 270.518 C-39.59 266.408 -38.722 259.506 -38.938 254.812 C-46.197 254.812 -53.458 254.812 -60.938 254.812 Z M-150.938 297.812 C-151.888 319.574 -151.888 319.574 -145.938 327.812 C-145.272 328.463 -144.607 329.114 -143.922 329.784 C-135.024 339.265 -136.934 351.325 -137.156 363.512 C-137.171 365.917 -137.183 368.323 -137.191 370.729 C-137.221 377.031 -137.299 383.331 -137.388 389.633 C-137.47 396.074 -137.507 402.517 -137.547 408.959 C-137.632 421.577 -137.767 434.195 -137.938 446.812 C-136.845 446.604 -135.752 446.395 -134.626 446.18 C-133.175 445.905 -131.723 445.63 -130.272 445.354 C-129.913 445.286 -129.913 445.286 -128.096 444.938 C-107.879 441.117 -86.083 441.45 -66.098 446.535 C-63.409 446.88 -62.271 446.085 -59.938 444.812 C-59.941 444.536 -59.941 444.536 -59.96 443.138 C-60.137 429.657 -60.269 416.177 -60.352 402.695 C-60.394 396.175 -60.45 389.656 -60.541 383.137 C-60.628 376.841 -60.676 370.546 -60.697 364.249 C-60.711 361.851 -60.74 359.454 -60.783 357.056 C-61.15 335.899 -61.15 335.899 -56.044 329.509 C-54.696 328.254 -53.33 327.018 -51.938 325.812 C-47.789 319.793 -47.416 314.495 -47.688 307.312 C-47.706 306.395 -47.724 305.477 -47.742 304.531 C-47.789 302.291 -47.854 300.052 -47.938 297.812 C-50.083 297.786 -52.229 297.766 -54.375 297.75 C-54.972 297.744 -54.972 297.744 -57.996 297.715 C-60.938 297.812 -60.938 297.812 -61.938 298.812 C-61.969 302.084 -61.869 305.344 -61.777 308.613 C-61.935 311.754 -62.464 313.134 -63.938 315.812 C-67.917 315.841 -71.896 315.859 -75.875 315.875 C-76.443 315.879 -76.443 315.879 -79.318 315.9 C-80.398 315.904 -81.478 315.907 -82.59 315.91 C-83.09 315.913 -83.09 315.913 -85.621 315.926 C-87.938 315.812 -87.938 315.812 -88.938 314.812 C-89.175 311.952 -89.359 309.115 -89.5 306.25 C-89.644 303.466 -89.789 300.681 -89.938 297.812 C-95.877 297.812 -101.817 297.812 -107.938 297.812 C-108.082 299.112 -108.226 300.411 -108.375 301.75 C-108.896 306.438 -109.417 311.125 -109.938 315.812 C-113.229 315.87 -116.521 315.906 -119.812 315.938 C-120.281 315.946 -120.281 315.946 -122.652 315.988 C-123.1 315.992 -123.1 315.992 -125.367 316.008 C-126.195 316.018 -127.022 316.029 -127.875 316.04 C-129.938 315.812 -129.938 315.812 -131.938 313.812 C-132.245 311.071 -132.448 308.436 -132.562 305.688 C-132.686 303.089 -132.81 300.49 -132.938 297.812 C-138.877 297.812 -144.817 297.812 -150.938 297.812 Z M115.062 297.812 C115.062 344.342 115.062 390.872 115.062 438.812 C125.062 441.812 125.062 441.812 129.062 440.812 C129.06 440.522 129.06 440.522 129.046 439.054 C128.913 424.915 128.814 410.776 128.752 396.636 C128.721 389.798 128.679 382.96 128.61 376.122 C128.543 369.521 128.509 362.921 128.493 356.32 C128.482 353.804 128.461 351.287 128.428 348.771 C128.384 345.242 128.379 341.715 128.381 338.186 C128.36 337.148 128.338 336.111 128.316 335.042 C128.378 327.779 130.285 324.163 135.062 318.812 C137.44 314.499 137.298 310.311 137.188 305.5 C137.146 302.963 137.105 300.426 137.062 297.812 C129.803 297.812 122.543 297.812 115.062 297.812 Z M-19.109 350.176 C-24.65 358.167 -27.059 366.935 -27.07 376.582 C-27.072 377.703 -27.074 378.825 -27.076 379.98 C-27.072 381.183 -27.067 382.386 -27.062 383.625 C-27.061 384.875 -27.059 386.125 -27.057 387.413 C-26.989 402.553 -26.478 417.683 -25.938 432.812 C-25.379 432.727 -24.82 432.641 -24.244 432.553 C-21.663 432.158 -19.082 431.767 -16.5 431.375 C-15.622 431.24 -14.743 431.106 -13.838 430.967 C-12.965 430.835 -12.091 430.703 -11.191 430.566 C-10.401 430.446 -9.61 430.326 -8.795 430.201 C-0.656 429.094 7.415 428.552 15.625 428.25 C16.177 428.228 16.177 428.228 18.971 428.119 C21.668 428.014 24.365 427.912 27.062 427.812 C27.156 420.475 27.227 413.137 27.27 405.799 C27.29 402.39 27.318 398.982 27.364 395.573 C27.417 391.639 27.436 387.704 27.453 383.77 C27.474 382.568 27.494 381.366 27.516 380.128 C27.519 367.528 24.334 354.618 15.52 345.156 C10.078 340.344 4.887 339.332 -2.164 339.512 C-9.69 340.328 -14.358 344.517 -19.109 350.176 Z " fill="#000000" transform="translate(220.9375,189.1875)"/>
<path d="M0 0 C5.243 4.251 7.159 9.4 8.312 15.875 C8.674 19.622 8.819 23.363 8.938 27.125 C8.975 28.138 9.013 29.152 9.052 30.196 C9.296 37.09 9.446 43.976 9.312 50.875 C4.97 53.046 -0.855 52.105 -5.625 52.125 C-6.831 52.146 -8.037 52.166 -9.279 52.188 C-10.434 52.193 -11.588 52.198 -12.777 52.203 C-13.838 52.212 -14.899 52.222 -15.992 52.231 C-18.688 51.875 -18.688 51.875 -20.546 50.802 C-22.331 47.789 -21.97 45.183 -21.867 41.715 C-21.848 41.01 -21.829 40.306 -21.809 39.58 C-21.764 38.086 -21.711 36.592 -21.651 35.099 C-21.564 32.845 -21.507 30.592 -21.453 28.338 C-20.834 7.805 -20.834 7.805 -13.688 0.875 C-9.522 -2.142 -4.627 -1.937 0 0 Z M-9.125 7.125 C-17.117 15.702 -13.867 33.986 -13.688 44.875 C-8.562 44.978 -3.738 44.911 1.312 43.875 C1.371 40.25 1.406 36.625 1.438 33 C1.454 31.987 1.471 30.974 1.488 29.93 C1.598 12.744 1.598 12.744 -3.25 7.75 C-6.088 5.567 -6.088 5.567 -9.125 7.125 Z " fill="#000000" transform="translate(226.6875,322.125)"/>
<path d="M0 0 C8.616 7.084 13.911 16.206 15.012 27.336 C15.367 38.576 13.001 49.106 6.73 58.492 C6.132 59.4 5.534 60.307 4.918 61.242 C-1.825 68.178 -9.554 70.548 -19.082 70.867 C-28.589 70.696 -35.575 68.018 -42.516 61.484 C-50.082 52.89 -52.548 42.106 -52.434 30.891 C-52.07 25.574 -50.777 20.375 -49.395 15.242 C-49.219 11.371 -51.114 9.627 -53.27 6.492 C-53.645 3.242 -53.645 3.242 -53.27 0.492 C-52.61 -0.168 -51.95 -0.828 -51.27 -1.508 C-48.832 -1.445 -48.832 -1.445 -46.27 -0.508 C-44.582 1.992 -44.582 1.992 -43.27 4.492 C-42.61 4.822 -41.95 5.152 -41.27 5.492 C-41.27 4.832 -41.27 4.172 -41.27 3.492 C-28.788 -6.4 -13.799 -9.168 0 0 Z M-15.27 15.492 C-16.815 19.906 -16.855 23.271 -14.832 27.492 C-11.435 30.143 -8.568 30.953 -4.27 30.492 C-1.41 28.728 0.228 27.497 1.73 24.492 C2.106 20.507 2.097 18.166 0.168 14.617 C-5.149 9.982 -10.405 10.628 -15.27 15.492 Z " fill="#000000" transform="translate(497.26953125,361.5078125)"/>
<path d="M0 0 C1.946 1.444 3.827 2.946 5.711 4.469 C6.701 5.129 7.691 5.789 8.711 6.469 C9.701 4.489 10.691 2.509 11.711 0.469 C13.71 0.426 15.711 0.428 17.711 0.469 C18.711 1.469 18.711 1.469 19.023 4.156 C18.711 7.469 18.711 7.469 16.648 10.406 C14.711 13.469 14.711 13.469 14.898 16.969 C15.167 18.124 15.435 19.279 15.711 20.469 C17.768 30.284 17.443 44.394 12.711 53.469 C6.955 61.932 -0.58 67.052 -10.32 70.105 C-18.965 71.701 -27.113 70.569 -34.637 66.062 C-43.942 59.476 -48.763 49.76 -50.793 38.73 C-52.489 25.249 -48.595 14.134 -41.039 3.219 C-29.825 -7.995 -12.999 -8.695 0 0 Z M-12.664 13.469 C-15.764 17.011 -16.373 18.792 -16.289 23.469 C-14.701 27.043 -13.573 28.28 -10.289 30.469 C-5.966 31.029 -3.992 30.947 -0.352 28.469 C1.956 25.112 2.411 23.378 2.125 19.402 C1.429 16.154 0.228 14.598 -2.289 12.469 C-6.845 10.95 -8.503 11.003 -12.664 13.469 Z " fill="#000000" transform="translate(717.2890625,362.53125)"/>
<path d="M0 0 C3.024 2.286 3.803 3.41 5 7 C5.38 11.571 5.551 16.15 5.722 20.733 C5.782 22.245 5.852 23.756 5.929 25.267 C6.042 27.448 6.127 29.629 6.207 31.812 C6.264 33.118 6.32 34.424 6.378 35.77 C6 39 6 39 4.308 40.924 C1.641 42.167 -0.195 42.387 -3.133 42.398 C-4.103 42.402 -5.074 42.406 -6.074 42.41 C-7.081 42.399 -8.088 42.387 -9.125 42.375 C-9.632 42.381 -9.632 42.381 -12.199 42.41 C-13.167 42.406 -14.135 42.402 -15.133 42.398 C-16.019 42.395 -16.904 42.392 -17.817 42.388 C-18.537 42.26 -19.258 42.132 -20 42 C-23.339 36.991 -22.327 31.195 -22.312 25.312 C-22.329 24.058 -22.345 22.803 -22.361 21.51 C-22.365 14.64 -22.099 9.184 -19 3 C-13.056 -2.944 -7.634 -2.388 0 0 Z M-12.669 7.665 C-14.34 10.597 -14.344 12.497 -14.293 15.859 C-14.288 16.417 -14.288 16.417 -14.264 19.238 C-14.239 20.397 -14.213 21.556 -14.188 22.75 C-14.174 23.924 -14.16 25.099 -14.146 26.309 C-14.111 29.206 -14.057 32.103 -14 35 C-10.04 35 -6.08 35 -2 35 C-1.919 30.916 -1.86 26.834 -1.812 22.75 C-1.787 21.591 -1.762 20.432 -1.736 19.238 C-1.727 18.123 -1.717 17.008 -1.707 15.859 C-1.691 14.833 -1.676 13.807 -1.659 12.749 C-2.051 9.589 -2.758 8.236 -5 6 C-8.404 5.433 -10.155 5.157 -12.669 7.665 Z " fill="#000000" transform="translate(133,410)"/>
<path d="M0 0 C0.762 0.137 1.524 0.273 2.309 0.414 C5.469 1.761 6.706 3.515 8.562 6.375 C10.938 13.915 10.754 22.224 10.812 30.062 C10.822 30.948 10.831 31.834 10.841 32.746 C10.839 33.161 10.839 33.161 10.828 35.262 C10.826 36.006 10.824 36.751 10.821 37.518 C10.562 39.375 10.562 39.375 8.562 41.375 C5.772 41.575 3.102 41.653 0.312 41.625 C-0.063 41.629 -0.063 41.629 -1.965 41.648 C-6.459 41.633 -10.29 41.307 -14.438 39.375 C-15.982 34.741 -15.663 30.104 -15.688 25.25 C-15.708 24.242 -15.729 23.234 -15.75 22.195 C-15.783 15.854 -15.295 10.13 -12.438 4.375 C-8.532 0.47 -5.452 -1.085 0 0 Z M-6.169 9.05 C-7.669 11.799 -7.785 13.462 -7.73 16.578 C-7.721 17.558 -7.711 18.538 -7.701 19.547 C-7.676 20.563 -7.651 21.578 -7.625 22.625 C-7.611 23.656 -7.598 24.688 -7.584 25.75 C-7.549 28.292 -7.495 30.834 -7.438 33.375 C-4.137 33.705 -0.837 34.035 2.562 34.375 C2.644 30.812 2.703 27.251 2.75 23.688 C2.775 22.68 2.8 21.673 2.826 20.635 C2.923 10.841 2.923 10.841 -0.438 7.375 C-4.438 7.375 -4.438 7.375 -6.169 9.05 Z " fill="#000000" transform="translate(308.4375,428.625)"/>
<path d="M0 0 C3.158 1.292 3.698 2.237 5.562 5 C8.686 9.434 11.433 11.15 16.75 12.125 C23.944 13.057 30.543 12.007 36.75 8.125 C39.117 5.654 40.998 3.059 42.75 0.125 C43.575 0.29 43.575 0.29 47.75 1.125 C48.288 4.812 48.428 6.977 46.508 10.23 C41.701 16.134 36.458 18.676 29.312 20.875 C18.909 21.89 10.165 20.819 1.75 14.125 C-1.952 10.583 -4.13 7.394 -4.25 2.125 C-2.25 0.125 -2.25 0.125 0 0 Z " fill="#000000" transform="translate(567.25,449.875)"/>
<path d="M0 0 C3.327 2.566 4.698 5.062 6 9 C6.243 11.847 6.243 11.847 6.23 14.922 C6.229 16.029 6.227 17.136 6.225 18.277 C6.218 18.85 6.218 18.85 6.188 21.75 C6.187 22.911 6.186 24.073 6.186 25.27 C6.14 33.86 6.14 33.86 5 35 C2.489 35.1 0.011 35.139 -2.5 35.125 C-3.203 35.129 -3.905 35.133 -4.629 35.137 C-9.873 35.127 -9.873 35.127 -11 34 C-11.311 29.612 -11.279 25.211 -11.312 20.812 C-11.342 19.58 -11.371 18.347 -11.4 17.076 C-11.48 5.68 -11.48 5.68 -7 1 C-4.409 -0.296 -2.877 -0.343 0 0 Z M-3 9 C-4 10 -4 10 -4.098 13.816 C-4.091 15.398 -4.079 16.981 -4.062 18.562 C-4.058 19.369 -4.053 20.175 -4.049 21.006 C-4.037 23.004 -4.019 25.002 -4 27 C-3.01 27.33 -2.02 27.66 -1 28 C-0.946 25.396 -0.906 22.792 -0.875 20.188 C-0.858 19.45 -0.841 18.712 -0.824 17.951 C-0.789 14.088 -0.806 12.291 -3 9 Z " fill="#000000" transform="translate(311,511)"/>
<path d="M0 0 C5.269 3.011 7.368 6.192 9 12 C9.259 15.22 9.259 15.22 9.266 18.641 C9.267 19.258 9.267 19.258 9.273 22.383 C9.266 23.659 9.258 24.935 9.25 26.25 C9.258 27.542 9.265 28.833 9.273 30.164 C9.271 31.394 9.268 32.624 9.266 33.891 C9.263 35.015 9.261 36.139 9.259 37.298 C9 40 9 40 7 42 C4.893 42.259 4.893 42.259 2.316 42.266 C1.389 42.268 0.461 42.271 -0.494 42.273 C-1.465 42.266 -2.437 42.258 -3.438 42.25 C-3.921 42.254 -3.921 42.254 -6.369 42.273 C-7.298 42.271 -8.227 42.268 -9.184 42.266 C-10.035 42.263 -10.886 42.261 -11.763 42.259 C-14 42 -14 42 -17 40 C-17.388 37.33 -17.388 37.33 -17.398 33.961 C-17.4 33.351 -17.4 33.351 -17.41 30.262 C-17.399 28.979 -17.387 27.696 -17.375 26.375 C-17.387 25.116 -17.398 23.856 -17.41 22.559 C-17.389 15.692 -17.116 10.173 -14 4 C-9.876 0.164 -5.551 -1.412 0 0 Z M-7 8 C-11.876 15.313 -10.093 26.483 -10 35 C-8.188 35.027 -6.375 35.046 -4.562 35.062 C-3.553 35.074 -2.544 35.086 -1.504 35.098 C1 35 1 35 2 34 C2.477 26.027 2.563 17.657 0 10 C-2 8 -2 8 -4.5 7.688 C-5.325 7.791 -6.15 7.894 -7 8 Z " fill="#000000" transform="translate(126,547)"/>
<path d="M0 0 C3.074 0 5.25 0.394 7.676 2.355 C21.954 17.749 28.932 38.926 28.535 59.621 C28.026 68.647 25.721 77.431 23.49 86.163 C20.495 98.083 19.401 108.14 25.219 119.348 C32.203 130.658 42.425 137.426 55.125 140.812 C68.663 143.574 84.567 143.221 96.957 136.363 C97.294 136.138 97.294 136.138 99 135 C98.443 134.732 97.886 134.464 97.312 134.188 C87.014 128.899 80.714 122.061 77 111 C76.094 106.724 75.838 102.616 75.812 98.25 C75.798 97.121 75.784 95.992 75.77 94.828 C76 92 76 92 78 90 C82.556 90.556 82.556 90.556 84 92 C84.194 93.874 84.384 95.749 84.545 97.626 C85.268 105.781 86.765 111.888 91 119 C91.33 119.99 91.66 120.98 92 122 C93.625 123 93.625 123 96 124 C97.031 124.516 98.062 125.031 99.125 125.562 C102.974 127.241 106.701 127.441 110.863 127.594 C111.568 127.728 112.274 127.862 113 128 C115 131 115 131 114.859 132.977 C111.882 139.986 101.972 143.881 95.441 146.711 C78.789 152.948 59.948 153.143 43.371 146.559 C30.074 140.376 19.972 131.443 14.684 117.539 C11.244 106.489 11.457 97.597 14.375 86.5 C19.386 66.775 19.386 66.775 19.312 56.562 C19.307 55.733 19.301 54.903 19.295 54.048 C19.168 47.614 18.288 42.042 16 36 C15.598 34.844 15.196 33.687 14.781 32.496 C11.394 23.138 6.639 15.166 1 7 C-1 4 -1 4 -0.625 1.812 C-0.419 1.214 -0.212 0.616 0 0 Z " fill="#000000" transform="translate(791,547)"/>
<path d="M0 0 C6.397 0.996 12.691 1.609 19.162 1.931 C21.681 2.142 21.681 2.142 23.681 3.142 C23.351 4.792 23.021 6.442 22.681 8.142 C13.064 11.348 2.847 9.601 -6.928 7.611 C-18.058 5.429 -29.685 5.566 -40.479 9.209 C-43.576 10.227 -46.08 10.297 -49.319 10.142 C-49.484 9.317 -49.484 9.317 -50.319 5.142 C-33.557 -3.207 -18.124 -2.827 0 0 Z " fill="#000000" transform="translate(943.31884765625,747.857666015625)"/>
<path d="M0 0 C5.763 0.477 9.729 2.089 14.688 5 C15.037 5.201 15.037 5.201 16.804 6.221 C23.245 10.011 29.195 14.293 35 19 C35.532 19.431 36.064 19.861 36.613 20.305 C45.709 27.71 55.083 35.456 62 45 C61.75 47.312 61.75 47.312 61 49 C56.165 48.835 54.087 46.439 50.938 43.137 C50.319 42.473 49.7 41.809 49.062 41.125 C42.184 33.998 34.97 27.863 27 22 C26.163 21.38 25.327 20.76 24.465 20.121 C20.696 17.409 16.855 14.897 12.863 12.527 C12.134 12.089 11.405 11.651 10.654 11.199 C9.201 10.331 7.739 9.477 6.268 8.638 C1.212 5.616 1.212 5.616 0.035 2.195 C0.024 1.471 0.012 0.746 0 0 Z " fill="#000000" transform="translate(172,770)"/>
<path d="M0 0 C5.793 1.002 11.59 1.429 17.461 1.734 C17.626 2.394 17.626 2.394 18.461 5.734 C10.837 10.342 0.079 7.642 -8.227 6.254 C-20.213 4.374 -31.918 4.23 -43.602 7.922 C-46.721 8.785 -48.473 8.663 -51.539 7.734 C-51.289 5.867 -51.289 5.867 -50.539 3.734 C-47.788 1.855 -44.669 0.842 -41.539 -0.266 C-40.891 -0.495 -40.242 -0.725 -39.574 -0.961 C-26.837 -4.543 -12.758 -2.239 0 0 Z " fill="#000000" transform="translate(107.5390625,830.265625)"/>
<path d="M0 0 C0.165 0.495 0.165 0.495 1 3 C-2.566 7.147 -6.844 9.336 -11.625 11.812 C-12.465 12.249 -13.304 12.686 -14.169 13.135 C-30.217 21.316 -48.912 29.046 -67.188 29.188 C-68.027 29.202 -68.866 29.216 -69.73 29.23 C-72 29 -72 29 -75 27 C-74.67 25.68 -74.34 24.36 -74 23 C-73.593 22.951 -73.593 22.951 -71.535 22.703 C-48.494 19.697 -28.578 12.043 -7.799 1.829 C-5.056 0.565 -3.039 0 0 0 Z " fill="#000000" transform="translate(232,848)"/>
<path d="M0 0 C6.93 1.375 13.48 1.752 20.532 1.365 C23.828 1.219 25.784 1.197 28.656 2.921 C29.154 3.418 29.652 3.914 30.164 4.425 C29.977 6.3 29.977 6.3 29.164 8.425 C19.596 13.339 7.087 10.193 -2.961 8.425 C-11.095 7.014 -19.01 6.018 -27.273 5.988 C-28.094 5.978 -28.914 5.968 -29.76 5.958 C-35.069 6.032 -39.607 7.056 -44.63 8.766 C-47.416 9.599 -49.949 9.653 -52.836 9.425 C-53.496 8.105 -54.156 6.785 -54.836 5.425 C-41.619 -7.351 -16.202 -3.358 0 0 Z " fill="#000000" transform="translate(309.835693359375,975.57470703125)"/>
</svg>
