      <svg version="1.1" xmlns="http://www.w3.org/2000/svg"
           width="1024" height="1024" viewBox="0 0 1024 1024">
        <!-- B&W outline placeholder for coloring: page-5-forest -->
        <!-- Generated by scripts/generate_coloring_placeholders.py -->
        <rect width="1024" height="1024" fill="white"/>

        <!-- Mermaid body: head -->
<ellipse cx="512" cy="260" rx="90" ry="100"
         fill="white" stroke="#000" stroke-width="3"/>
<!-- Eyes -->
<ellipse cx="485" cy="252" rx="14" ry="16"
         fill="white" stroke="#000" stroke-width="3"/>
<ellipse cx="539" cy="252" rx="14" ry="16"
         fill="white" stroke="#000" stroke-width="3"/>
<circle  cx="485" cy="254" r="7" fill="#000"/>
<circle  cx="539" cy="254" r="7" fill="#000"/>
<!-- Nose -->
<path d="M 508,275 Q 512,281 516,275" fill="none" stroke="#000" stroke-width="2"/>
<!-- Mouth -->
<path d="M 498,292 Q 512,303 526,292" fill="none" stroke="#000" stroke-width="2.5"/>
<!-- Hair -->
<path d="M 435,200 Q 400,240 398,320 Q 440,310 450,250 Q 460,210 440,195 Z"
      fill="white" stroke="#000" stroke-width="3" stroke-linejoin="round"/>
<path d="M 589,200 Q 624,240 626,320 Q 584,310 574,250 Q 564,210 584,195 Z"
      fill="white" stroke="#000" stroke-width="3" stroke-linejoin="round"/>
<path d="M 435,200 Q 512,180 589,200" fill="none" stroke="#000" stroke-width="3"/>
<!-- Torso left side -->
<path d="M 430,348 Q 415,400 418,470 L 487,474 L 487,348 Z"
      fill="white" stroke="#000" stroke-width="3"/>
<!-- Torso right side -->
<path d="M 594,348 Q 609,400 606,470 L 537,474 L 537,348 Z"
      fill="white" stroke="#000" stroke-width="3"/>
<!-- Torso center -->
<rect x="487" y="348" width="50" height="126"
      fill="white" stroke="#000" stroke-width="3" rx="2"/>
<!-- Waist band -->
<path d="M 418,470 Q 460,488 512,492 Q 564,488 606,470 L 537,474 L 487,474 Z"
      fill="white" stroke="#000" stroke-width="3"/>
<!-- Tail -->
<path d="M 487,490 Q 445,545 440,620 Q 480,680 512,692 Q 544,680 584,620 Q 579,545 537,490 Z"
      fill="white" stroke="#000" stroke-width="3" stroke-linejoin="round"/>
<!-- Left fin -->
<path d="M 440,620 Q 395,655 390,695 Q 418,700 445,675"
      fill="white" stroke="#000" stroke-width="3"/>
<!-- Right fin -->
<path d="M 584,620 Q 629,655 634,695 Q 606,700 579,675"
      fill="white" stroke="#000" stroke-width="3"/>
<!-- Left arm -->
<path d="M 418,378 Q 380,415 376,460 Q 392,472 407,450 Q 416,418 430,398"
      fill="white" stroke="#000" stroke-width="3"/>
<!-- Right arm -->
<path d="M 606,378 Q 644,415 648,460 Q 632,472 617,450 Q 608,418 594,398"
      fill="white" stroke="#000" stroke-width="3"/>
<!-- Left hand -->
<ellipse cx="382" cy="468" rx="15" ry="11"
         fill="white" stroke="#000" stroke-width="3"/>
<!-- Right hand -->
<ellipse cx="642" cy="468" rx="15" ry="11"
         fill="white" stroke="#000" stroke-width="3"/>

        <!-- Scene: Kelp forest -->
<!-- Kelp stalk 1 -->
<path d="M 200,1024 Q 210,900 190,780 Q 175,660 205,540 Q 220,420 200,300"
      fill="none" stroke="#000" stroke-width="8" stroke-linecap="round"/>
<!-- Kelp blade 1a -->
<path d="M 200,800 Q 160,760 155,720 Q 175,730 200,760"
      fill="white" stroke="#000" stroke-width="3"/>
<!-- Kelp blade 1b -->
<path d="M 200,650 Q 240,620 250,585 Q 228,598 200,625"
      fill="white" stroke="#000" stroke-width="3"/>
<!-- Kelp stalk 2 -->
<path d="M 830,1024 Q 818,880 840,760 Q 858,650 825,530 Q 808,420 835,310"
      fill="none" stroke="#000" stroke-width="8" stroke-linecap="round"/>
<!-- Kelp blade 2a -->
<path d="M 830,820 Q 875,785 880,748 Q 858,757 830,785"
      fill="white" stroke="#000" stroke-width="3"/>
<!-- Kelp blade 2b -->
<path d="M 830,660 Q 788,635 778,598 Q 800,610 830,640"
      fill="white" stroke="#000" stroke-width="3"/>
<!-- Bubble cluster -->
<circle cx="280" cy="480" r="12" fill="none" stroke="#000" stroke-width="2.5"/>
<circle cx="305" cy="450" r="8"  fill="none" stroke="#000" stroke-width="2.5"/>
<circle cx="268" cy="420" r="15" fill="none" stroke="#000" stroke-width="2.5"/>
<!-- Second bubble cluster -->
<circle cx="750" cy="520" r="10" fill="none" stroke="#000" stroke-width="2.5"/>
<circle cx="778" cy="490" r="14" fill="none" stroke="#000" stroke-width="2.5"/>
<!-- Ocean floor -->
<path d="M 0,980 Q 256,960 512,968 Q 768,976 1024,960 L 1024,1024 L 0,1024 Z"
      fill="white" stroke="#000" stroke-width="3"/>
      </svg>
