      <svg version="1.1" xmlns="http://www.w3.org/2000/svg"
           width="1024" height="1024" viewBox="0 0 1024 1024">
        <!-- B&W outline placeholder for coloring: page-6-treasure -->
        <!-- Generated by scripts/generate_coloring_placeholders.py -->
        <rect width="1024" height="1024" fill="white"/>

        <!-- Mermaid body: head -->
<ellipse cx="512" cy="260" rx="90" ry="100"
         fill="white" stroke="#000" stroke-width="3"/>
<!-- Eyes -->
<ellipse cx="485" cy="252" rx="14" ry="16"
         fill="white" stroke="#000" stroke-width="3"/>
<ellipse cx="539" cy="252" rx="14" ry="16"
         fill="white" stroke="#000" stroke-width="3"/>
<circle  cx="485" cy="254" r="7" fill="#000"/>
<circle  cx="539" cy="254" r="7" fill="#000"/>
<!-- Nose -->
<path d="M 508,275 Q 512,281 516,275" fill="none" stroke="#000" stroke-width="2"/>
<!-- Mouth -->
<path d="M 498,292 Q 512,303 526,292" fill="none" stroke="#000" stroke-width="2.5"/>
<!-- Hair -->
<path d="M 435,200 Q 400,240 398,320 Q 440,310 450,250 Q 460,210 440,195 Z"
      fill="white" stroke="#000" stroke-width="3" stroke-linejoin="round"/>
<path d="M 589,200 Q 624,240 626,320 Q 584,310 574,250 Q 564,210 584,195 Z"
      fill="white" stroke="#000" stroke-width="3" stroke-linejoin="round"/>
<path d="M 435,200 Q 512,180 589,200" fill="none" stroke="#000" stroke-width="3"/>
<!-- Torso left side -->
<path d="M 430,348 Q 415,400 418,470 L 487,474 L 487,348 Z"
      fill="white" stroke="#000" stroke-width="3"/>
<!-- Torso right side -->
<path d="M 594,348 Q 609,400 606,470 L 537,474 L 537,348 Z"
      fill="white" stroke="#000" stroke-width="3"/>
<!-- Torso center -->
<rect x="487" y="348" width="50" height="126"
      fill="white" stroke="#000" stroke-width="3" rx="2"/>
<!-- Waist band -->
<path d="M 418,470 Q 460,488 512,492 Q 564,488 606,470 L 537,474 L 487,474 Z"
      fill="white" stroke="#000" stroke-width="3"/>
<!-- Tail -->
<path d="M 487,490 Q 445,545 440,620 Q 480,680 512,692 Q 544,680 584,620 Q 579,545 537,490 Z"
      fill="white" stroke="#000" stroke-width="3" stroke-linejoin="round"/>
<!-- Left fin -->
<path d="M 440,620 Q 395,655 390,695 Q 418,700 445,675"
      fill="white" stroke="#000" stroke-width="3"/>
<!-- Right fin -->
<path d="M 584,620 Q 629,655 634,695 Q 606,700 579,675"
      fill="white" stroke="#000" stroke-width="3"/>
<!-- Left arm -->
<path d="M 418,378 Q 380,415 376,460 Q 392,472 407,450 Q 416,418 430,398"
      fill="white" stroke="#000" stroke-width="3"/>
<!-- Right arm -->
<path d="M 606,378 Q 644,415 648,460 Q 632,472 617,450 Q 608,418 594,398"
      fill="white" stroke="#000" stroke-width="3"/>
<!-- Left hand -->
<ellipse cx="382" cy="468" rx="15" ry="11"
         fill="white" stroke="#000" stroke-width="3"/>
<!-- Right hand -->
<ellipse cx="642" cy="468" rx="15" ry="11"
         fill="white" stroke="#000" stroke-width="3"/>

        <!-- Scene: Treasure chest on ocean floor -->
<!-- Chest body -->
<rect x="340" y="780" width="200" height="140"
      fill="white" stroke="#000" stroke-width="4" rx="6"/>
<!-- Chest lid -->
<path d="M 340,780 Q 340,735 440,730 Q 540,735 540,780 Z"
      fill="white" stroke="#000" stroke-width="4"/>
<!-- Chest hinge band -->
<rect x="340" y="774" width="200" height="16"
      fill="white" stroke="#000" stroke-width="3"/>
<!-- Chest latch -->
<rect x="424" y="830" width="32" height="24"
      fill="white" stroke="#000" stroke-width="3" rx="3"/>
<circle cx="440" cy="842" r="6" fill="none" stroke="#000" stroke-width="2.5"/>
<!-- Chest corner reinforcements -->
<path d="M 340,780 L 340,920 M 540,780 L 540,920" fill="none" stroke="#000" stroke-width="3"/>
<!-- Gold coins spilling out -->
<ellipse cx="310" cy="915" rx="20" ry="12" fill="none" stroke="#000" stroke-width="2.5"/>
<ellipse cx="280" cy="930" rx="18" ry="11" fill="none" stroke="#000" stroke-width="2.5"/>
<ellipse cx="570" cy="910" rx="20" ry="12" fill="none" stroke="#000" stroke-width="2.5"/>
<ellipse cx="600" cy="928" rx="16" ry="10" fill="none" stroke="#000" stroke-width="2.5"/>
<!-- Gem sparkle left -->
<path d="M 250,850 L 258,840 L 266,850 L 258,860 Z"
      fill="white" stroke="#000" stroke-width="2.5"/>
<!-- Gem sparkle right -->
<path d="M 650,855 L 660,842 L 670,855 L 660,868 Z"
      fill="white" stroke="#000" stroke-width="2.5"/>
<!-- Ocean floor -->
<path d="M 0,968 Q 256,950 512,958 Q 768,966 1024,950 L 1024,1024 L 0,1024 Z"
      fill="white" stroke="#000" stroke-width="3"/>
      </svg>
