<?xml version="1.0" encoding="UTF-8"?>
<!-- Generator: visioncortex VTracer 0.6.12 -->
<svg version="1.1" xmlns="http://www.w3.org/2000/svg" width="1024" height="1024" viewBox="0 0 1024 1024">
<path d="M0 0 C1.07 0.156 2.14 0.312 3.242 0.473 C34.49 5.133 64.421 13.499 93 27 C93.675 27.315 94.35 27.631 95.045 27.956 C117.275 38.42 138.121 52.113 156 69 C157.287 70.109 158.579 71.214 159.875 72.312 C169.155 80.431 177.423 89.281 185 99 C185.406 99.509 185.406 99.509 187.461 102.086 C199.501 117.302 209.57 133.979 217.5 151.688 C217.838 152.442 218.177 153.196 218.526 153.974 C220.119 157.629 221.435 161.02 222 165 C222.508 164.662 223.016 164.325 223.539 163.977 C223.883 163.754 223.883 163.754 225.625 162.625 C226.298 162.184 226.971 161.743 227.664 161.289 C234.989 157.247 243.568 156.509 251.633 158.723 C259.388 161.969 264.517 166.532 268.02 174.207 C271.96 185.431 269.677 197.613 264.875 208.25 C260.684 215.924 254.606 222.654 247 227 C246.505 227.33 246.505 227.33 244 229 C244.181 229.998 244.361 230.996 244.547 232.025 C245.249 235.906 245.949 239.787 246.648 243.668 C246.966 245.432 247.285 247.197 247.604 248.961 C249.331 258.512 251.033 268.064 252.59 277.645 C258.14 311.688 266.706 340.281 288.674 367.365 C308.073 391.287 316.072 416.071 314 447 C313.292 452.548 311.831 457.713 310 463 C309.649 464.049 309.299 465.099 308.938 466.18 C302.44 483.55 289.552 497.667 272.773 505.508 C265.944 508.416 260.504 510.409 253 510 C252.01 509.34 251.02 508.68 250 508 C250.589 503.58 251.731 499.862 253.438 495.75 C259.486 480.313 259.261 465.783 254 450 C253.841 451.053 253.683 452.106 253.52 453.191 C249.87 476.265 241.796 494.597 225 511 C224.662 511.343 224.662 511.343 222.949 513.078 C213.669 521.901 199.516 529.893 186.499 530.025 C183.748 529.952 180.999 529.854 178.25 529.75 C167.372 529.398 167.372 529.398 162.562 533.5 C161.837 534.23 161.111 534.959 160.363 535.711 C147.589 548.084 127.742 552.966 111 557 C127.997 568.712 144.204 575.588 165.096 576.598 C178.017 577.297 189.179 580.385 198.062 590.188 C201.897 594.762 202.349 598.664 202.281 604.496 C201.865 608.201 200.437 610.234 198 613 C197.546 613.309 197.546 613.309 195.25 614.875 C193 617 193 617 192.875 620.875 C192.894 621.224 192.894 621.224 192.992 622.988 C193.008 627.117 191.108 629.81 188.371 632.75 C176.208 644.152 160.233 647.177 144 647 C114.501 645.845 84.288 632.67 61 615 C59.685 616.623 58.373 618.249 57.062 619.875 C56.332 620.78 55.601 621.685 54.848 622.617 C52.391 625.786 51.881 627.236 52.008 631.156 C52.279 643.43 52.169 655.906 48.45 667.751 C47.795 671.023 47.959 674.253 48.043 677.57 C48.069 679.109 48.094 680.648 48.117 682.187 C48.123 682.59 48.123 682.59 48.155 684.628 C48.796 733.482 35.913 780.054 1.91 816.062 C-30.358 848.966 -72.812 865.172 -118 872 C-119.135 872.177 -120.27 872.355 -121.439 872.537 C-132.698 874.137 -143.827 874.357 -155.188 874.312 C-156.151 874.311 -157.114 874.309 -158.106 874.307 C-192.882 874.197 -228.901 870.36 -261 856 C-260.67 856.99 -260.34 857.98 -260 859 C-257.813 883.503 -264.059 907.107 -279.582 926.312 C-297.04 947.088 -319.903 959.191 -347 962 C-363.449 962.964 -378.925 961.017 -392.883 951.75 C-394 950 -394 950 -393.945 946.629 C-392.9 942.615 -391.681 940.938 -388.875 937.938 C-379.322 926.679 -375.678 914.435 -371.927 900.389 C-368.559 887.834 -364.47 876.702 -357 866 C-356.743 865.631 -356.743 865.631 -355.441 863.762 C-354.31 862.163 -353.158 860.579 -352 859 C-352.788 858.914 -353.575 858.827 -354.387 858.738 C-373.175 856.315 -387.808 848.173 -401 835 C-401.324 834.682 -401.324 834.682 -402.961 833.074 C-409.088 826.588 -413.38 818.579 -418 811 C-424.695 800.054 -430.859 791.772 -441.766 784.676 C-444.068 782.949 -445.526 781.467 -447 779 C-446.901 773.562 -445.551 770.985 -442 767 C-421.73 748.989 -391.801 741.594 -365.163 742.848 C-341.249 744.532 -320.545 752.89 -302 768 C-301.223 768.612 -300.445 769.225 -299.645 769.855 C-288.645 778.986 -280.445 790.843 -275 804 C-275 804.66 -275 805.32 -275 806 C-264.732 801.39 -260.594 792.032 -256.729 781.949 C-253.178 772.143 -250.619 761.984 -247.854 751.936 C-245.998 745.2 -244.099 738.477 -242.199 731.754 C-242.014 731.099 -241.829 730.443 -241.638 729.768 C-233.986 702.696 -226.282 677.904 -208 656 C-207.533 655.428 -207.067 654.856 -206.586 654.267 C-199.649 645.768 -192.303 638.164 -184 631 C-183.033 630.158 -182.066 629.316 -181.07 628.449 C-175.107 623.364 -168.994 618.718 -162.456 614.398 C-158.143 611.456 -158.143 611.456 -157.329 608.861 C-157.22 608.247 -157.112 607.633 -157 607 C-157.616 607.347 -158.232 607.693 -158.866 608.051 C-179.685 619.639 -201.211 628.762 -225 632 C-227.657 632.369 -230.313 632.741 -232.969 633.113 C-234.808 633.369 -236.646 633.621 -238.486 633.87 C-243.284 634.537 -247.887 635.382 -252.562 636.688 C-261.406 639.052 -269.519 639.01 -277.934 635.215 C-281.427 633.161 -283.225 630.549 -285 627 C-285.134 623.327 -285.167 620.501 -284 617 C-284.797 616.697 -285.593 616.394 -286.414 616.082 C-293.738 613.187 -299.274 610.908 -303.875 604.312 C-305.96 598.173 -305.83 592.381 -303.5 586.312 C-299.432 578.291 -293.016 574.527 -284.711 571.727 C-278.883 570.165 -273.301 569.861 -267.295 569.71 C-235.025 568.874 -208.781 556.108 -182.232 538.47 C-167.952 529.068 -153.264 520.692 -138 513 C-138.384 512.927 -138.384 512.927 -140.329 512.56 C-178.7 505.221 -218.051 492.517 -241.887 459.27 C-252 443.623 -252 443.623 -252 438 C-252.908 438.082 -253.815 438.165 -254.75 438.25 C-265.679 438.206 -276.91 432.041 -284.75 424.75 C-294.474 414.338 -298.231 402.059 -298 388 C-296.776 378.218 -292.907 369.232 -285.5 362.562 C-279.802 358.149 -275.026 356.786 -268 356 C-268.005 354.82 -268.01 353.639 -268.016 352.423 C-268.034 348.029 -268.045 343.634 -268.055 339.24 C-268.06 337.341 -268.067 335.442 -268.075 333.542 C-268.088 330.807 -268.093 328.071 -268.098 325.336 C-268.1 324.914 -268.1 324.914 -268.113 322.778 C-268.114 318.402 -267.881 314.31 -267 310 C-267.575 310.08 -267.575 310.08 -270.484 310.484 C-276.997 311.202 -283.52 311.223 -290.064 311.24 C-292.232 311.25 -294.399 311.281 -296.566 311.312 C-307.244 311.393 -318.737 310.918 -328 305 C-329.589 301.821 -329.416 299.504 -329 296 C-325.681 292.22 -322.004 290.468 -317.5 288.312 C-294.889 277.342 -275.858 257.847 -261 238 C-260.584 237.455 -260.168 236.911 -259.739 236.35 C-244.539 216.412 -233.258 193.433 -224.155 170.151 C-222.2 165.2 -222.2 165.2 -220 163 C-217.375 163.375 -217.375 163.375 -215 164 C-215.495 170.526 -217.221 175.67 -219.875 181.625 C-220.274 182.532 -220.672 183.44 -221.083 184.375 C-234.888 215.417 -251.922 242.922 -276 267 C-276.614 267.66 -277.227 268.32 -277.859 269 C-289.946 281.786 -304.485 290.961 -320 299 C-301.993 306.266 -278.651 304.86 -260 300 C-259.611 299.901 -259.611 299.901 -257.645 299.398 C-224.751 290.769 -197.706 273.013 -173 250 C-172.261 249.316 -171.523 248.631 -170.762 247.926 C-146.837 224.936 -130.688 194.149 -121.433 162.589 C-121.171 161.742 -120.91 160.896 -120.641 160.023 C-120.419 159.27 -120.198 158.516 -119.97 157.74 C-119 156 -119 156 -116.96 155.186 C-116.313 155.125 -115.666 155.063 -115 155 C-114 156 -114 156 -113.812 159.012 C-114.024 163.508 -114.842 167.479 -116 171.812 C-116.11 172.226 -116.11 172.226 -116.669 174.318 C-124.609 202.579 -141.675 230.889 -163 251 C-165.425 253.402 -167.827 255.819 -170.184 258.289 C-180.568 269.052 -193.55 280.275 -207 287 C-166.849 300.688 -111.808 281.071 -75.731 263.921 C-56.472 254.444 -39.466 241.792 -24 227 C-23.062 226.114 -22.123 225.229 -21.156 224.316 C7.93 196.17 27.383 155.095 31.837 114.965 C32.129 112.684 32.129 112.684 33 109 C35.09 107.473 35.09 107.473 37 107 C39 109 39 109 39.23 111.469 C39.223 111.969 39.223 111.969 39.188 114.5 C39.181 115.48 39.175 116.459 39.168 117.469 C39 121 39 121 38.661 123.232 C37.639 130.277 38.817 135.757 40.938 142.5 C41.257 143.549 41.577 144.598 41.907 145.678 C51.837 177.277 70.334 206.761 95 229 C95.66 229.33 96.32 229.66 97 230 C97 230.66 97 231.32 97 232 C97.55 232.237 98.101 232.474 98.668 232.719 C101.573 234.315 103.816 236.318 106.312 238.5 C132.213 260.575 165.238 276.351 199.059 280.438 C202 281 202 281 204 283 C203.464 286.536 203.464 286.536 202 288 C189.825 289.678 175.099 285.959 164 281 C164.131 281.586 164.261 282.171 164.396 282.775 C167.081 294.94 169.463 307.115 171.312 319.438 C171.398 319.996 171.398 319.996 171.831 322.823 C172.721 328.954 173.176 334.806 173 341 C174.039 340.942 175.078 340.884 176.148 340.824 C185.983 340.437 193.339 340.964 201.02 347.797 C209.636 356.866 211.404 366.9 211.215 378.953 C211.027 384.004 209.954 388.343 208 393 C207.694 393.794 207.389 394.588 207.074 395.406 C202.371 406.215 192.97 416.46 182 421 C180.681 421.345 179.356 421.668 178.027 421.973 C167.002 424.559 167.002 424.559 163.887 429.039 C162.912 431.452 162.018 433.899 161.203 436.371 C153.151 460.657 128.168 477.766 106.449 488.805 C89.983 496.884 72.894 502.036 55.146 506.424 C54.483 506.588 53.82 506.753 53.137 506.923 C51.311 507.374 49.485 507.819 47.658 508.263 C45 509 45 509 44 510 C44.886 510.438 45.771 510.877 46.684 511.328 C61.913 519.05 75.218 529.106 88.316 539.992 C89.543 540.996 90.771 541.998 92 543 C92.675 543.565 93.35 544.13 94.046 544.711 C99.212 548.861 99.212 548.861 102.879 549.508 C130.407 545.581 158.981 533.045 176.232 510.381 C183.961 499.561 188.965 488.522 191.013 475.342 C191.555 471.91 192.035 469.947 194 467 C195.65 467.33 197.3 467.66 199 468 C200.538 486.051 192.442 503.424 181 517 C180.196 518.011 179.391 519.021 178.562 520.062 C178.305 520.382 178.305 520.382 177 522 C191.173 523.326 204.688 517.755 215.586 508.898 C232.538 494.084 242.524 475.494 245 453 C245.601 443.462 245.61 433.382 241.938 424.402 C240.801 421.49 240.856 419.099 241 416 C242.65 415.67 244.3 415.34 246 415 C260.057 440.962 270.875 463.68 263.07 493.488 C262.238 496.22 261.407 498.535 260 501 C278.621 494.366 290.894 484.872 300 467 C301.585 463.391 302.878 459.777 304 456 C304.113 455.63 304.113 455.63 304.684 453.758 C310.611 430.129 303.052 405.196 291.139 384.826 C287.86 379.57 283.888 374.81 280 370 C269.331 356.559 260.52 342.31 255 326 C254.764 325.328 254.527 324.656 254.284 323.964 C248.459 307.051 246.101 289.242 243.251 271.648 C242.354 266.118 241.42 260.595 240.445 255.078 C240.326 254.4 240.206 253.722 240.083 253.024 C239.533 249.905 238.979 246.786 238.422 243.668 C238.327 243.127 238.327 243.127 237.848 240.391 C237.683 239.463 237.518 238.535 237.348 237.579 C237.002 235.018 236.937 232.58 237 230 C235.845 230.062 234.69 230.124 233.5 230.188 C228.753 230.196 225.318 228.936 221 227 C220.34 226.34 219.68 225.68 219 225 C216.5 224.656 214.028 224.558 211.508 224.441 C208.614 223.932 207.191 222.91 205 221 C204.794 221.229 204.794 221.229 203.75 222.391 C199.69 226.704 195.696 230.109 190 232 C188.68 232 187.36 232 186 232 C193.007 246.578 204.368 255.636 218.812 262.312 C222 264 222 264 222.824 265.98 C222.882 266.647 222.94 267.313 223 268 C221 270 221 270 217.625 270.062 C204.076 267.886 192.069 255.093 183.496 245.102 C181.746 242.643 180.507 240.087 179.188 237.375 C176.482 232.123 173.6 230.089 168.457 227.375 C159.126 222.153 153.616 212.031 150.543 202.105 C147.304 189.544 148.141 178.41 154.625 167.188 C159.969 162.266 165.714 159.7 173 159.438 C182.817 159.94 189.577 163.637 196.66 170.34 C200.559 174.773 203.323 179.762 206 185 C207.98 184.67 209.96 184.34 212 184 C212.124 183.093 212.247 182.185 212.375 181.25 C213 178 213 178 214.125 176.062 C216.239 171.078 213.513 165.123 211.625 160.375 C205.234 144.668 196.945 129.725 187 116 C186.594 115.439 186.189 114.878 185.771 114.299 C179.734 106.034 173.103 98.364 166 91 C165.334 90.307 164.668 89.614 163.982 88.899 C154.548 79.131 145.048 69.919 134 62 C133.379 61.551 132.759 61.102 132.12 60.64 C65.978 13.089 -18.293 -1.734 -98.023 11.066 C-104.395 12.184 -110.702 13.527 -117 15 C-118.061 15.247 -119.122 15.495 -120.215 15.75 C-165.626 26.605 -209.021 47.902 -244 79 C-244.607 79.522 -245.213 80.044 -245.838 80.582 C-257.51 90.646 -268.746 101.656 -278 114 C-278.473 114.619 -278.946 115.237 -279.434 115.875 C-305.824 150.489 -319.852 188.726 -329.559 230.742 C-334.228 250.845 -339.381 271.848 -353 288 C-353.757 288.959 -354.513 289.918 -355.293 290.906 C-357.916 294.045 -360.918 296.558 -364.188 299 C-364.764 299.433 -365.34 299.866 -365.933 300.312 C-379.123 310.103 -393.743 315.876 -409.192 321.209 C-427.349 327.502 -444.461 335.214 -459 348 C-459.888 348.777 -460.776 349.555 -461.691 350.355 C-477.239 364.906 -487.366 386.249 -488.238 407.531 C-488.595 423.699 -486.652 439.793 -475 452 C-473.055 453.481 -471.097 454.732 -469 456 C-469.046 455.273 -469.093 454.546 -469.141 453.797 C-469.61 440.718 -465.679 430.782 -457 421 C-441.065 405.036 -416.877 400.088 -396.012 393.934 C-364.04 384.454 -364.04 384.454 -351.199 372.883 C-349.169 371.145 -347.501 369.928 -345 369 C-344.34 369.33 -343.68 369.66 -343 370 C-342.745 372.891 -342.667 374.497 -344.293 376.957 C-356.2 388.618 -371.08 394.711 -386.627 399.91 C-404.082 405.769 -417.322 412.975 -426 430 C-431.184 442.527 -432.838 455.547 -433.438 469 C-434.08 482.815 -435.92 496.636 -446.438 506.5 C-453.464 512.225 -460.192 512.458 -469 513 C-460.676 522.129 -450.336 527.457 -437.914 528.383 C-409.308 529.594 -387.43 512.327 -366.918 494.52 C-364.092 492.08 -361.217 489.72 -358.312 487.375 C-351.429 481.764 -344.916 475.765 -338.383 469.754 C-336.847 468.344 -335.307 466.939 -333.766 465.535 C-332.113 464.02 -330.473 462.491 -328.859 460.934 C-327.062 459.25 -327.062 459.25 -324 457 C-321.062 457.125 -321.062 457.125 -319 458 C-319.519 461.938 -320.39 463.889 -323.211 466.672 C-323.874 467.332 -324.536 467.992 -325.219 468.672 C-325.93 469.358 -326.642 470.044 -327.375 470.75 C-328.099 471.461 -328.824 472.172 -329.57 472.904 C-335.124 478.296 -340.897 483.238 -347 488 C-358.654 497.135 -367.465 509.534 -371 524 C-372.121 535.945 -370.433 546.409 -363 556 C-362.011 557.011 -361.013 558.013 -360 559 C-359.648 558.238 -359.296 557.476 -358.934 556.691 C-351.763 541.694 -341.829 531.055 -326 525 C-313.605 521.225 -301.818 519.995 -288.89 519.761 C-266.706 519.303 -247.038 515.145 -230 500 C-228.68 500.66 -227.36 501.32 -226 502 C-226.668 507.451 -228.929 509.437 -233.012 512.875 C-248.923 524.19 -265.606 526.975 -284.737 527.33 C-306.66 527.781 -326.42 528.705 -343.016 544.895 C-348.263 550.462 -350.058 555.889 -352.07 563.172 C-353 566 -353 566 -355 568 C-359.805 567.908 -362.974 566.95 -366.527 563.633 C-375.057 554.175 -379.179 542.697 -379 530 C-378.337 523.498 -376.98 517.222 -375 511 C-375.594 511.496 -376.189 511.993 -376.801 512.504 C-396.645 528.768 -417.121 538.08 -443 536 C-453.716 534.575 -464.388 529.793 -472 522 C-475.376 517.169 -477.778 513.069 -477 507 C-473.591 504.909 -471.137 504.865 -467.188 505.062 C-459.865 505.169 -454.958 503.6 -449.348 498.559 C-441.994 490.054 -442.009 477.51 -441.562 466.875 C-440.662 446.678 -437.111 429.006 -424 413 C-433.909 413 -445.092 420.934 -451.945 427.648 C-460.541 437.486 -462.316 446.521 -461.973 459.277 C-462 462 -462 462 -463 464 C-470.349 464.782 -475.249 462.01 -480.918 457.461 C-490.271 448.748 -495.376 436.863 -496.177 424.202 C-496.475 410.22 -496.315 397.37 -492 384 C-491.649 382.868 -491.299 381.736 -490.938 380.57 C-486.437 367.538 -478.539 356.814 -469 347 C-468.377 346.316 -467.755 345.631 -467.113 344.926 C-450.709 327.421 -426.598 318.095 -404.442 310.272 C-380.172 301.653 -360.49 288.93 -349 265 C-342.866 252.086 -340.087 238.216 -336.984 224.351 C-326.152 176.014 -306.875 132.003 -273.051 95.234 C-271.136 93.148 -269.282 91.023 -267.438 88.875 C-261.434 82.019 -255 76.024 -247.883 70.332 C-246.016 68.822 -244.175 67.279 -242.367 65.699 C-198.752 27.738 -141.46 7.806 -85 0 C-84.043 -0.133 -83.087 -0.266 -82.101 -0.402 C-55.614 -3.854 -26.427 -3.998 0 0 Z M33 145 C32.9 145.306 32.9 145.306 32.393 146.857 C28.373 159.045 24.197 170.837 18.03 182.113 C16.97 184.055 15.944 186.012 14.918 187.973 C2.112 212.019 -16.4 232.61 -38 249 C-38.931 249.714 -39.861 250.428 -40.82 251.164 C-48.207 256.699 -56.008 261.407 -64 266 C-65.127 266.659 -66.253 267.317 -67.414 267.996 C-92.856 282.268 -121.29 290.612 -150 295 C-150.705 295.117 -151.411 295.234 -152.138 295.355 C-171.788 298.591 -192.623 298.617 -212 294 C-217.757 292.686 -221.16 293.473 -226.312 296.062 C-232.292 298.876 -238.28 301.26 -244.562 303.312 C-245.3 303.554 -246.037 303.796 -246.796 304.045 C-251.172 305.459 -255.572 306.761 -260 308 C-264.344 352.164 -261.964 402.63 -242 443 C-241.74 443.527 -241.74 443.527 -240.422 446.195 C-226.37 472.321 -197.904 489.09 -170.276 497.486 C-165.874 498.755 -161.447 499.902 -157 501 C-156.242 501.19 -155.483 501.381 -154.702 501.577 C-126.266 508.515 -96.132 509.628 -67 511 C-67.33 512.65 -67.66 514.3 -68 516 C-76.908 516.819 -85.569 517.06 -94.5 516.562 C-94.945 516.539 -94.945 516.539 -97.2 516.417 C-98.965 516.322 -100.731 516.227 -102.496 516.132 C-120.801 515.168 -134.04 519.474 -150 528 C-150.346 528.182 -150.346 528.182 -152.097 529.101 C-161.603 534.109 -170.659 539.642 -179.625 545.562 C-188.553 551.458 -197.5 557.073 -207 562 C-207.661 562.346 -208.322 562.692 -209.003 563.049 C-228.049 572.894 -246.014 577.185 -267.375 576.938 C-276.853 576.886 -285.202 578.342 -293 584 C-296.472 587.645 -297.806 590.287 -298.375 595.312 C-297.915 599.838 -296.386 602.145 -293 605 C-286.346 609.645 -277.036 612 -269 612 C-269.062 614.312 -269.062 614.312 -270 617 C-272.318 618.035 -274.652 619.036 -277 620 C-278.188 621.875 -278.188 621.875 -278 624 C-276.009 627.075 -274.725 628.727 -271.258 630.031 C-263.856 631.139 -257.949 630.741 -250.703 628.922 C-246.825 627.956 -242.937 627.23 -239 626.562 C-237.561 626.31 -236.122 626.057 -234.684 625.805 C-231.346 625.225 -228.004 624.675 -224.66 624.133 C-195.401 619.271 -167.999 607.379 -144.552 589.047 C-141.257 586.551 -139.159 585.461 -135 586 C-135.082 588.778 -135.543 590.507 -137.449 592.562 C-140.163 594.917 -142.847 596.909 -145.938 598.75 C-146.618 599.163 -147.299 599.575 -148 600 C-148 600.66 -148 601.32 -148 602 C-141.433 604.303 -135.963 605.337 -129 605 C-127.829 601.486 -128.579 599.78 -129.508 596.305 C-131.275 588.031 -130.162 579.946 -125.594 572.801 C-121.249 567.257 -116.578 565.136 -110 563 C-106.219 561.695 -103.788 560.174 -100.875 557.438 C-96.037 552.91 -92.187 552.722 -85.734 552.773 C-81.178 553.151 -78.184 554.816 -75 558 C-72.27 558.015 -69.598 557.939 -66.875 557.812 C-60.969 557.684 -56.359 557.602 -51.566 561.473 C-51.049 561.977 -50.533 562.481 -50 563 C-49.726 563.237 -49.726 563.237 -48.34 564.434 C-42.116 570.566 -40.56 579.689 -39 588 C-36.223 588.787 -33.774 589.119 -30.891 589.098 C-30.514 589.096 -30.514 589.096 -28.605 589.088 C-27.828 589.08 -27.051 589.071 -26.25 589.062 C-25.854 589.06 -25.854 589.06 -23.848 589.049 C-21.898 589.037 -19.949 589.019 -18 589 C-17.758 588.131 -17.515 587.262 -17.266 586.367 C-15.48 580.228 -13.884 575.089 -10 570 C-9.67 569.01 -9.34 568.02 -9 567 C-7.375 566 -7.375 566 -5 565 C-4.484 564.732 -4.484 564.732 -1.875 563.375 C3.095 561.285 8.869 560.872 13.984 562.715 C14.567 562.995 15.15 563.274 15.75 563.562 C19.603 565.267 20.956 564.872 25 564 C31.497 563.493 36.203 563.976 42 567 C41.856 565.975 41.711 564.95 41.562 563.895 C41.375 562.534 41.187 561.173 41 559.812 C40.952 559.476 40.952 559.476 40.711 557.771 C40.217 554.153 39.887 550.652 40 547 C41.32 546.67 42.64 546.34 44 546 C44.441 547.947 44.882 549.895 45.32 551.843 C45.691 553.495 46.065 555.147 46.442 556.797 C47.459 561.316 48.275 565.779 48.875 570.375 C49.536 574.249 49.679 574.735 52.875 577.375 C53.906 577.911 54.938 578.447 56 579 C59.629 582.733 61.988 586.885 63 592 C62.932 594.355 62.825 596.71 62.688 599.062 C62.608 605.296 62.608 605.296 64.172 608.105 C66.307 610.095 68.493 611.498 71 613 C72.217 613.784 73.433 614.57 74.648 615.355 C99.825 631.207 132.302 643.485 162.312 637.875 C171.524 635.615 180.735 632.273 186 624 C186 623.34 186 622.68 186 622 C183.03 621.34 180.06 620.68 177 620 C178 616 178 616 179.602 614.875 C179.935 614.731 179.935 614.731 181.625 614 C182.342 613.671 183.058 613.343 183.797 613.004 C184.16 612.838 184.16 612.838 186 612 C192.589 608.616 192.589 608.616 195 605 C195.674 601.78 195.511 599.838 193.785 597.008 C186.849 588.358 178.517 585.602 167.773 584.32 C164.524 584.044 161.284 583.859 158.026 583.718 C128.194 582.355 104.469 562.817 81.953 545.02 C38.522 510.712 38.522 510.712 20.168 512.34 C18.84 512.531 17.513 512.731 16.188 512.938 C10.083 513.803 4.177 514.267 -2 514 C-2.33 512.35 -2.66 510.7 -3 509 C-2.375 508.91 -1.749 508.82 -1.105 508.728 C37.357 503.149 75.403 496.433 110 478 C111.061 477.446 112.122 476.891 113.215 476.32 C136.872 463.326 152.756 441.686 161.219 416.352 C162.295 412.593 163.19 408.822 164 405 C164.15 404.348 164.299 403.697 164.453 403.025 C172.688 365.933 166.112 324.929 158.642 288.284 C158 285 158 285 157.71 282.447 C157.418 280.352 157.418 280.352 156 277 C153.023 274.802 149.793 273.501 146.375 272.125 C144.445 271.276 142.518 270.419 140.594 269.555 C139.64 269.129 138.686 268.703 137.703 268.265 C118.763 259.403 101.43 245.159 86.63 230.595 C85.136 229.133 83.612 227.702 82.086 226.273 C59.146 204.391 43.472 174.996 34 145 C33.67 145 33.34 145 33 145 Z M222.48 176.883 C219.717 180.835 218 184.706 218 189.625 C219.397 192.944 221.671 195.273 224 198 C226.711 202.647 226.434 207.771 226 213 C225 216.625 225 216.625 224 219 C229.054 222.11 233.214 222.866 239 222 C246.377 219.705 251.818 214.691 255.699 208.125 C260.427 198.968 263.814 190.134 261.5 179.758 C259.319 173.191 255.136 169.134 249 166 C237.014 164.158 229.954 167.819 222.48 176.883 Z M160.125 172.75 C155.759 179.427 155.138 186.129 156.5 193.824 C158.997 204.904 163.508 215.807 173.188 222.438 C177.885 224.843 182.871 224.748 188 224 C192.861 222.326 196.211 219.29 199 215 C200.174 211.931 200.077 211.232 199 208 C198.659 203.394 198.444 199.271 200.312 195 C201.295 190.714 199.84 188.425 197.75 184.664 C192.393 176.509 186.544 170.097 177.004 167.445 C170.221 166.149 165.056 168.033 160.125 172.75 Z M208 197 C206.034 199.344 204.971 201.085 205.07 204.195 C205.798 208.205 206.583 210.527 209.312 213.625 C212 215 212 215 214.625 215 C217.606 213.745 218.61 212.935 220 210 C219.928 206.045 219.322 203.57 217.375 200.125 C214.321 197.392 212.024 197.232 208 197 Z M174 349 C174.016 349.813 174.031 350.627 174.048 351.465 C174.417 373.63 173.932 395.459 168 417 C176.77 416.61 184.982 411.679 191.375 405.824 C199.689 396.49 204.459 385.252 204.273 372.75 C203.408 364.05 199.607 356.699 193 351 C186.995 347.442 180.607 346.798 174 349 Z M-280.688 367.688 C-287.557 374.557 -290.767 383.164 -291.098 392.863 C-290.484 403.444 -286.385 412.418 -279 420 C-272.109 425.79 -264.963 429.599 -256 431 C-256.58 426.356 -257.487 422.046 -258.812 417.562 C-263.758 399.792 -265.628 381.339 -267 363 C-272.087 363 -276.418 365.007 -280.688 367.688 Z M-99.312 565.375 C-103.476 571.852 -101.49 578.646 -100.027 585.738 C-98.386 592.948 -95.799 599.872 -92.848 606.645 C-92 609 -92 609 -92 613 C-93.32 613 -94.64 613 -96 613 C-101.624 598.821 -105.065 585.182 -107 570 C-112.035 570.715 -115.019 571.712 -119 575 C-122.969 580.364 -124.23 585.33 -124 592 C-122.128 604.494 -113.913 614.665 -104 622 C-94.339 627.794 -85.443 629.393 -74.207 627.539 C-64.243 624.913 -57.432 618.604 -52 610 C-47.338 600.507 -45.218 590.096 -47.531 579.586 C-49.824 573.13 -52.919 567.88 -59.059 564.684 C-62.48 563.479 -65.399 563.695 -69 564 C-69.66 564.33 -70.32 564.66 -71 565 C-70.939 565.718 -70.879 566.436 -70.816 567.176 C-69.607 582.112 -68.798 597.011 -69 612 C-70.65 611.67 -72.3 611.34 -74 611 C-73.992 610.603 -73.992 610.603 -73.952 608.592 C-73.294 570.206 -73.294 570.206 -79.488 563.176 C-82.488 560.578 -84.462 559.243 -88.375 558.625 C-93.085 559.298 -96.073 562.047 -99.312 565.375 Z M-5.188 574.125 C-11.321 581.852 -11.824 590.416 -11 600 C-9.406 609.948 -5.045 619.531 3.117 625.75 C3.428 625.956 3.428 625.956 5 627 C5.311 627.206 5.311 627.206 6.883 628.25 C14.655 632.505 24.414 632.135 32.902 630.41 C42.594 627.088 50.538 619.1 55 610 C57.756 603.963 58.221 597.483 56.02 591.203 C52.535 583.783 52.535 583.783 48 582 C46.503 585.966 45.016 589.932 43.605 593.93 C37.625 610.704 37.625 610.704 33 616 C30.316 617.258 30.316 617.258 28 618 C29.624 613.849 31.447 610.241 33.875 606.5 C37.815 600.074 39.946 593.192 42 586 C42.257 585.189 42.513 584.378 42.777 583.543 C43.25 581.562 43.25 581.562 43 578 C40.643 574.372 37.917 570.959 34 569 C26.348 568.575 26.348 568.575 23 571 C21.935 573.683 21.935 573.683 21.148 577.082 C20.855 578.325 20.561 579.569 20.258 580.85 C20.112 581.502 19.967 582.155 19.817 582.827 C19.384 584.771 18.927 586.709 18.469 588.646 C16.599 596.719 15.133 604.793 14 613 C12.68 612.67 11.36 612.34 10 612 C9.815 606.927 10.392 602.768 11.785 597.895 C11.875 597.571 11.875 597.571 12.33 595.935 C13.092 593.198 13.875 590.466 14.657 587.735 C15.229 585.728 15.789 583.718 16.348 581.707 C16.688 580.516 17.028 579.324 17.379 578.097 C17.966 575.17 18.222 573.691 17 571 C8.989 565.659 1.201 567.343 -5.188 574.125 Z M-40 596 C-40.349 597.048 -40.699 598.096 -41.059 599.176 C-42.706 604.117 -44.353 609.059 -46 614 C-35.44 614 -24.88 614 -14 614 C-14.309 612.608 -14.309 612.608 -15.875 605.562 C-16.066 604.684 -16.256 603.806 -16.453 602.901 C-16.906 600.919 -17.451 598.958 -18 597 C-20.401 595.8 -21.894 595.885 -24.57 595.902 C-25.018 595.904 -25.018 595.904 -27.285 595.912 C-28.222 595.92 -29.159 595.929 -30.125 595.938 C-30.597 595.94 -30.597 595.94 -32.988 595.951 C-35.326 595.963 -37.663 595.979 -40 596 Z M-148 610 C-148.309 610.866 -148.619 611.732 -148.938 612.625 C-151.389 616.637 -153.918 618.119 -157.84 620.555 C-161.585 623.061 -163.59 625.771 -165 630 C-166.009 639.888 -161.056 647.689 -155.25 655.277 C-130.183 685.61 -88.788 700.355 -50.688 704.688 C-22.729 706.721 8.703 704.828 31 686 C40.625 677.015 43.576 663.674 45 651 C45.11 647.686 45.095 644.378 45.062 641.062 C45.06 640.625 45.06 640.625 45.049 638.412 C45.037 636.275 45.019 634.137 45 632 C41.692 633.079 38.454 634.208 35.25 635.562 C24.89 639.408 13.749 638.415 3.75 633.875 C-1.658 630.948 -7.202 626.597 -10 621 C-15.692 620.826 -21.383 620.7 -27.078 620.615 C-29.012 620.58 -30.946 620.533 -32.879 620.472 C-51.047 619.915 -51.047 619.915 -55.977 624.352 C-57.002 625.553 -58.013 626.767 -59 628 C-69.983 634.611 -81.458 636.125 -94 634 C-104.919 630.833 -112.708 625.403 -119.062 616.062 C-121.941 612.348 -123.154 611.147 -127.844 610.332 C-131.917 610.255 -135.944 610.656 -140 611 C-142.73 610.825 -145.301 610.45 -148 610 Z M-180.125 637.062 C-180.777 637.624 -181.43 638.185 -182.102 638.764 C-202.124 656.144 -202.124 656.144 -202.75 665 C-202.062 671.662 -198.559 677.934 -193.688 682.438 C-188.38 686.464 -183.58 688.347 -176.875 687.875 C-169.614 686.811 -165.528 683.884 -160.711 678.523 C-158.777 676.802 -157.574 676.221 -155 676 C-154.34 676.66 -153.68 677.32 -153 678 C-153.262 680.304 -153.636 682.596 -154.062 684.875 C-155.537 694.245 -154.475 702.055 -148.812 709.938 C-143.543 716.049 -137.123 720.149 -129 721 C-121.65 721.206 -115.022 719.297 -109 715 C-108.652 714.3 -108.304 713.6 -107.945 712.879 C-107.789 712.569 -107.789 712.569 -107 711 C-103.375 710.25 -103.375 710.25 -100 710 C-99.974 710.678 -99.948 711.356 -99.922 712.055 C-99.357 721.323 -97.246 729.544 -90.762 736.469 C-84.323 742.065 -76.963 744.549 -68.562 745.312 C-58.242 744.407 -51.196 739.704 -44.516 732 C-43.054 730.071 -42.001 728.198 -41 726 C-39.68 726 -38.36 726 -37 726 C-36.83 726.652 -36.66 727.305 -36.484 727.977 C-34.082 736.641 -30.492 742.829 -23 748 C-18.971 750.028 -15.549 750.298 -11.062 750.312 C-9.878 750.329 -8.693 750.346 -7.473 750.363 C-0.809 749.666 3.147 746.465 7.34 741.535 C9.95 737.549 11.279 733.196 12.664 728.66 C14 726 14 726 16.648 725.121 C17.036 725.101 17.036 725.101 19 725 C19.247 725.722 19.495 726.444 19.75 727.188 C21.705 731.587 23.865 734.275 27.938 736.875 C31.307 738.113 32.614 737.836 36 737 C40.225 719.735 41.357 702.726 41 685 C40.233 685.767 39.466 686.534 38.676 687.324 C19.135 706.865 -8.146 711.182 -34.812 711.25 C-79.848 711.235 -124.063 695.45 -156.402 663.637 C-165.539 654.105 -169.633 643.871 -172 631 C-174.745 631 -178.142 635.335 -180.125 637.062 Z M-210 671 C-211.541 673.243 -212.943 675.467 -214.312 677.812 C-214.716 678.497 -215.12 679.181 -215.536 679.886 C-230.689 705.932 -230.689 705.932 -228.629 716.992 C-226.648 723.513 -222.396 726.981 -216.688 730.375 C-211.902 731.488 -206.606 732.182 -202.02 730.102 C-200.375 729 -200.375 729 -198 727 C-198.082 726.433 -198.082 726.433 -198.5 723.562 C-199.678 712.633 -200.028 702.333 -196 692 C-196.325 688.2 -198.272 686.4 -200.875 683.75 C-204.659 679.661 -206.452 676.321 -208 671 C-208.66 671 -209.32 671 -210 671 Z M-166.875 691.438 C-174.081 695.04 -181.258 694.29 -189 693 C-193.955 700.756 -194.165 709.397 -192.574 718.414 C-190.502 724.795 -186.113 730.091 -180.426 733.578 C-173.876 736.906 -168.394 738.863 -161 738 C-155.564 736.217 -151.816 733.252 -148 729 C-147.402 728.484 -146.804 727.969 -146.188 727.438 C-145 726 -145 726 -145 722 C-146.539 720.465 -146.539 720.465 -148.625 718.938 C-157.689 711.365 -160.124 701.27 -162 690 C-164 690 -164 690 -166.875 691.438 Z M-111.312 723.938 C-119.132 727.954 -128.537 727.493 -137 726 C-140.067 737.119 -141.428 745.388 -136 756 C-130.93 762.73 -124.284 767.299 -116 769 C-106.22 770.047 -98.638 767.435 -91 761.312 C-86.766 757.348 -85.411 753.721 -85 748 C-85.29 747.824 -85.29 747.824 -86.758 746.934 C-96.863 740.547 -101.847 733.074 -106 722 C-108 722 -108 722 -111.312 723.938 Z M-233 725 C-235.507 732.312 -237.725 739.682 -239.812 747.125 C-240.15 748.266 -240.487 749.407 -240.834 750.582 C-243.775 761.154 -243.775 761.154 -241 767 C-236.22 774.088 -228.22 777.979 -220.125 779.938 C-211.773 780.514 -203.889 778.697 -197 774 C-197.379 771.647 -197.82 769.434 -198.734 767.227 C-202.622 757.654 -202.243 745.728 -199 736 C-199.544 736.159 -200.088 736.317 -200.648 736.48 C-208.987 738.323 -217.704 737.579 -225 733 C-227.112 730.98 -228.933 728.917 -230.723 726.609 C-231.144 726.078 -231.566 725.547 -232 725 C-232.33 725 -232.66 725 -233 725 Z M-191 734 C-195.052 743.876 -197.536 754.567 -193.438 764.875 C-189.205 772.836 -183.375 778.552 -175 782 C-166.071 784.194 -158.078 783.508 -150 779 C-144.921 775.327 -140.842 770.923 -137 766 C-137.41 765.348 -137.82 764.695 -138.242 764.023 C-143.55 755.413 -145.486 747.952 -147 738 C-147.715 738.433 -148.431 738.866 -149.168 739.312 C-157.764 744.117 -165.169 745.866 -174.832 743.227 C-179.665 741.415 -183.846 739.04 -188 736 C-188.99 735.34 -189.98 734.68 -191 734 Z M17 737 C16.576 737.724 16.152 738.449 15.715 739.195 C10.378 747.993 5.301 754.472 -5 757 C-7.995 757.476 -10.975 757.797 -14 758 C-16.378 765.134 -15.142 772.285 -12 779 C-8.619 784.12 -4.834 787.204 1 789 C7.108 789.84 11.74 789.439 17 786 C18.598 783.545 19.807 781.385 21 778.75 C21.335 778.043 21.671 777.337 22.016 776.609 C26.802 766.377 31.07 755.925 34 745 C33.359 744.841 32.719 744.683 32.059 744.52 C26.049 742.898 21.851 740.902 17 737 Z M-45.562 742.25 C-53.038 748.977 -60.875 751.184 -70.75 751.062 C-71.447 751.058 -72.145 751.053 -72.863 751.049 C-74.576 751.037 -76.288 751.019 -78 751 C-80.045 757.927 -80.122 766.393 -77.172 773.059 C-72.922 780.099 -67.129 786.131 -59.117 788.574 C-49.512 790.506 -41.466 788.354 -33.25 783.312 C-26.153 776.019 -21 766.332 -21 756 C-21.641 755.732 -22.281 755.464 -22.941 755.188 C-30.864 751.598 -36.305 746.976 -40 739 C-42.837 739 -43.541 740.306 -45.562 742.25 Z M-438 774 C-438 774.33 -438 774.66 -438 775 C-437.045 775.037 -436.09 775.075 -435.105 775.113 C-414.945 776.138 -401.934 783.729 -387 797 C-365.452 816.111 -344.326 832.151 -314.195 831.043 C-311 831 -311 831 -308 832 C-308 832.99 -308 833.98 -308 835 C-317.55 839.775 -336.431 835.321 -346.179 832.332 C-363.719 826.15 -377.226 813.543 -390.846 801.347 C-398.121 794.844 -405.018 789.068 -414 785 C-414.695 784.675 -415.39 784.35 -416.105 784.016 C-421.269 781.831 -426.437 781.331 -432 781 C-431.361 781.619 -430.721 782.237 -430.062 782.875 C-429.037 783.912 -428.017 784.954 -427 786 C-426.334 786.683 -425.667 787.367 -424.98 788.071 C-419.195 794.23 -414.985 800.608 -410.938 808 C-399.348 829.019 -385.361 843.127 -362 850 C-350.737 852.78 -340.858 851.907 -330.77 846.312 C-327.885 844.946 -326.143 844.724 -323 845 C-323.129 847.297 -323.129 847.297 -324 850 C-326.59 851.703 -326.59 851.703 -329.938 853.25 C-336.634 856.628 -341.706 860.648 -347 866 C-347.55 866.517 -348.101 867.034 -348.668 867.566 C-358.836 878.007 -362.429 893.183 -366.134 906.758 C-369.447 918.867 -373.405 930.232 -380 941 C-367.381 940.782 -356.493 933.879 -347.812 925.133 C-338.884 915.524 -333.293 903.985 -327.972 892.136 C-316.307 866.503 -316.307 866.503 -308 859 C-305.75 858.25 -305.75 858.25 -304 858 C-305.033 861.305 -306.467 863.668 -308.625 866.312 C-315.776 875.628 -320.067 887.057 -324.562 897.812 C-327.746 905.377 -331.063 912.392 -336 919 C-336.687 919.929 -337.374 920.859 -338.082 921.816 C-347.2 933.553 -358.587 941.892 -373 946 C-375.285 946.276 -377.578 946.484 -379.875 946.625 C-380.451 946.662 -380.451 946.662 -383.367 946.852 C-384.236 946.901 -385.105 946.95 -386 947 C-381.726 952.366 -373.453 953.114 -367 954 C-342.123 956.037 -318.527 951.192 -299 935 C-298.149 934.312 -297.298 933.623 -296.422 932.914 C-280.08 919.028 -270.035 899.351 -267.25 878.188 C-267.149 876.793 -267.066 875.397 -267 874 C-266.968 873.636 -266.968 873.636 -266.809 871.797 C-266.481 865.41 -267.873 859.724 -269.577 853.621 C-270.582 849.984 -271.234 846.779 -271 843 C-270.01 842.67 -269.02 842.34 -268 842 C-267.092 842.846 -266.185 843.691 -265.25 844.562 C-259.794 849.504 -252.837 851.612 -246 854 C-245.279 854.252 -244.558 854.505 -243.814 854.765 C-241.653 855.508 -239.486 856.229 -237.312 856.938 C-236.642 857.161 -235.971 857.385 -235.28 857.615 C-231.868 858.682 -229.39 859.382 -226 858 C-226.598 857.319 -227.196 856.639 -227.812 855.938 C-233.571 848.204 -234.477 840.326 -234 831 C-233.693 828.996 -233.366 826.994 -233 825 C-233.906 825.046 -234.812 825.093 -235.746 825.141 C-247.323 825.484 -253.767 823.43 -262.371 815.781 C-264.042 813.954 -265.014 812.26 -266 810 C-266.577 810.289 -267.155 810.577 -267.75 810.875 C-268.493 811.246 -269.235 811.617 -270 812 C-270.619 812.371 -271.238 812.742 -271.875 813.125 C-274.654 814.269 -277.026 814.135 -280 814 C-280.351 812.783 -280.701 811.566 -281.062 810.312 C-288.833 787.22 -306.658 770.627 -328 760 C-361.819 743.357 -410.033 747.579 -438 774 Z M-90.938 768.812 C-98.941 774.161 -107.408 776.223 -117 775 C-120.197 774.14 -123.268 773.125 -126.371 771.973 C-128.577 771.156 -130.709 770.515 -133 770 C-136.662 778.632 -137.598 787.349 -134.438 796.312 C-130.097 805.699 -122.46 810.369 -113 814 C-104.832 816.219 -96.054 814.807 -88.672 810.707 C-81.657 805.714 -76.006 799.134 -73 791 C-73 790.01 -73 789.02 -73 788 C-73.66 788 -74.32 788 -75 788 C-75.269 787.426 -75.539 786.853 -75.816 786.262 C-77.027 783.949 -78.419 781.934 -79.938 779.812 C-82.919 775.424 -84.625 771.101 -86 766 C-87.882 766 -89.472 767.754 -90.938 768.812 Z M-246 772 C-246.241 772.644 -246.482 773.289 -246.731 773.953 C-247.852 776.931 -248.989 779.903 -250.125 782.875 C-250.504 783.888 -250.883 784.901 -251.273 785.945 C-253.893 792.757 -257.032 798.875 -261 805 C-257.357 811.095 -254.662 815.195 -248 818 C-242.629 819.343 -239.222 818.604 -234 817 C-234.361 816.152 -234.722 815.304 -235.094 814.43 C-239.153 804.169 -240.699 794.796 -237.75 783.875 C-237.502 782.596 -237.255 781.317 -237 780 C-238.75 777.438 -238.75 777.438 -241 776 C-241.66 776 -242.32 776 -243 776 C-243.66 774.68 -244.32 773.36 -245 772 C-245.33 772 -245.66 772 -246 772 Z M-21 778 C-21.992 779.366 -22.968 780.743 -23.938 782.125 C-29.1 788.871 -35.849 792.763 -44 795 C-51.919 795.631 -59.354 795.109 -67 793 C-69.654 800.12 -70.407 807.465 -68.125 814.82 C-64.08 823.522 -57.974 829.558 -49 833 C-41.411 835.286 -33.018 834.685 -26 831 C-22.112 828.239 -18.558 825.171 -15 822 C-14.129 821.238 -13.257 820.476 -12.359 819.691 C2.577 806.473 2.577 806.473 8 798 C8 797.34 8 796.68 8 796 C7.238 795.925 6.476 795.85 5.691 795.773 C-3.118 794.652 -9.442 792.489 -15.074 785.383 C-16.315 783.606 -17.523 781.805 -18.688 779.977 C-19.121 779.324 -19.554 778.672 -20 778 C-20.33 778 -20.66 778 -21 778 Z M-197.562 781.375 C-208.866 787.124 -218.785 786.246 -231 784 C-234.256 791.326 -234.127 799.77 -231.438 807.25 C-228.052 814.638 -223.317 819.937 -215.895 823.309 C-207.715 826.294 -199.888 825.531 -192 822 C-189.87 820.777 -187.976 819.47 -186 818 C-186.506 815.217 -187.116 812.673 -188.062 810 C-190.17 802.727 -189.554 794.696 -187.75 787.438 C-187.188 785.035 -187.188 785.035 -187 783 C-188.75 780.375 -188.75 780.375 -191 779 C-193.701 779 -195.191 780.091 -197.562 781.375 Z M-152.492 786.809 C-161.341 791.013 -171.805 789.278 -181 787 C-183.941 795.27 -184.142 803.745 -180.973 812 C-178.189 817.724 -173.922 821.592 -168 824 C-158.64 826.915 -150.645 826.482 -141.75 822.375 C-136.564 819.622 -133.414 816.742 -130 812 C-130.531 811.478 -131.062 810.956 -131.609 810.418 C-139.409 802.291 -142.27 794.126 -143 783 C-146.507 783 -149.436 785.207 -152.492 786.809 Z M-80.938 812.75 C-89.188 819.87 -98.541 820.706 -109.016 820.34 C-113.852 819.927 -117.537 818.847 -122 817 C-122.99 817 -123.98 817 -125 817 C-128.219 823.035 -127.75 830.115 -126 836.562 C-122.758 845.081 -116.4 850.409 -108.297 854.125 C-101.056 856.884 -93.293 857.119 -85.938 854.562 C-76.649 850.377 -68.919 842.493 -65.215 832.984 C-65 831 -65 831 -66.039 829.316 C-66.301 829.027 -66.301 829.027 -67.625 827.562 C-71.875 822.329 -73.825 816.312 -76 810 C-78.67 810 -79.065 810.9 -80.938 812.75 Z M-190 826.938 C-198.371 831.277 -206.727 832.846 -216.039 830.105 C-217.716 829.406 -219.377 828.666 -221.012 827.875 C-223 827 -223 827 -226 827 C-228.781 832.388 -228.866 837.779 -227.312 843.559 C-223.988 852.66 -218.665 858.668 -210 863 C-206.987 863.932 -203.999 864.41 -200.875 864.812 C-200.055 864.931 -199.235 865.049 -198.389 865.171 C-191.237 866.13 -184.214 866.318 -177 866 C-177.41 865.371 -177.82 864.742 -178.242 864.094 C-184.785 853.7 -186.279 845.197 -183.562 833.188 C-182.806 830.07 -182.014 827.043 -181 824 C-184.745 824 -186.69 825.213 -190 826.938 Z M-138.5 827.875 C-147.359 832.328 -156.738 833.437 -166.25 830.562 C-167.039 830.296 -167.828 830.029 -168.641 829.754 C-171.076 828.976 -173.487 828.459 -176 828 C-178.818 838.157 -180.74 847.461 -175.445 857.109 C-172.246 861.295 -167.701 864.649 -163 867 C-144.372 868.257 -126.036 866.698 -108 862 C-110.168 859.832 -111.906 859.06 -114.688 857.812 C-123.457 853.466 -128.681 847.218 -132 838 C-132.902 834.02 -133.533 830.053 -134 826 C-135 826 -135 826 -138.5 827.875 Z M-59 836 C-59.387 836.592 -59.773 837.183 -60.172 837.793 C-62.472 841.283 -64.745 844.685 -67.375 847.938 C-69 850 -69 850 -69 852 C-62.568 850.376 -56.514 848.066 -50.438 845.438 C-49.723 845.133 -49.008 844.828 -48.271 844.513 C-43.122 842.245 -43.122 842.245 -42 840 C-42.641 839.879 -43.281 839.758 -43.941 839.633 C-49.049 838.643 -54.023 837.515 -59 836 Z " fill="#000000" transform="translate(562,28)"/>
<path d="M0 0 C5.74 4.99 8.94 10.444 10 18 C10.259 26.06 8.722 32.899 3.238 38.941 C-2.284 44.138 -7.372 46.59 -14.875 47.438 C-21.642 47.118 -27.875 44.404 -32.875 39.875 C-38.301 33.859 -40.771 26.578 -40.379 18.512 C-39.134 10.261 -35.562 4.121 -29 -1 C-19.823 -6.506 -8.814 -6.309 0 0 Z M-29.871 11.281 C-32.796 15.734 -32.56 20.882 -32 26 C-30.07 31.56 -26.22 35.39 -21 38 C-15.239 38.583 -9.453 38.879 -4.504 35.527 C-0.395 31.354 1.678 26.077 2.562 20.375 C1.631 14.784 -0.367 10.591 -4.438 6.625 C-14.012 0.553 -22.896 2.615 -29.871 11.281 Z " fill="#000000" transform="translate(898,73)"/>
<path d="M0 0 C7.166 6.863 10.121 12.459 10.438 22.375 C10.235 31.319 7.883 37.805 1.844 44.43 C-4.485 49.82 -12.219 52.399 -20.434 52.277 C-28.283 51.429 -35.975 48.2 -41 42 C-46.72 33.662 -48.338 25.999 -47 16 C-45.269 8.263 -41.265 2.793 -35 -2 C-23.701 -8.698 -10.275 -8.602 0 0 Z M-34.438 8.25 C-38.342 13.474 -40.327 18.358 -40.062 24.938 C-39.223 30.625 -37.004 34.882 -33 39 C-27.864 42.726 -22.549 44.849 -16.156 44.41 C-8.455 42.945 -3.347 38.365 1 32 C3.355 26.604 3.502 21.64 2 16 C-1.433 8.498 -6.309 4.407 -13.938 1.516 C-21.371 -0.343 -29.338 2.679 -34.438 8.25 Z " fill="#000000" transform="translate(147,96)"/>
<path d="M0 0 C1.864 0.115 1.864 0.115 4 1 C5.609 3.211 5.609 3.211 7.18 6.16 C7.772 7.253 8.365 8.345 8.976 9.471 C9.609 10.668 10.242 11.865 10.875 13.062 C12.204 15.533 13.541 17.999 14.879 20.465 C15.218 21.093 15.557 21.721 15.906 22.368 C18.189 26.576 20.57 30.708 23.027 34.816 C23.346 35.348 23.346 35.348 24.956 38.041 C26.164 40.047 27.38 42.048 28.607 44.043 C31.994 49.701 33.953 54.475 35 61 C19.556 53.924 6.653 23.005 -0.188 8.402 C-1.077 5.774 -1.229 3.756 -1 1 C-0.67 0.67 -0.34 0.34 0 0 Z " fill="#000000" transform="translate(672,151)"/>
<path d="M0 0 C4.154 2.8 7.619 6.425 9.875 10.938 C10.564 18.382 10.509 23.926 5.875 29.938 C2.009 33.701 -1.767 35.769 -7.227 36.043 C-13.557 35.749 -17.673 33.369 -22.125 28.938 C-25.957 23.788 -25.789 18.115 -25.125 11.938 C-23.136 5.97 -19.188 2.63 -13.75 -0.375 C-8.827 -1.664 -4.755 -1.617 0 0 Z M-13.938 8.125 C-16.844 11.862 -18.199 14.156 -18 18.938 C-16.99 22.399 -15.586 24.328 -13.125 26.938 C-9.891 28.554 -6.621 28.507 -3.125 27.938 C-0.048 25.908 1.431 24.358 2.539 20.812 C3.276 16.536 3.133 14.445 1.125 10.5 C-1.682 7.303 -3.244 6.052 -7.5 5.5 C-11.125 5.938 -11.125 5.938 -13.938 8.125 Z " fill="#000000" transform="translate(167.125,179.0625)"/>
<path d="M0 0 C4.744 2.761 7.535 6.196 10 11.125 C11.185 17.287 10.666 23.099 7.688 28.688 C4.385 33.367 0.013 35.673 -5.375 37.375 C-11.168 38.362 -16.432 37.806 -21.547 34.812 C-26.225 31.134 -28.916 27.078 -29.918 21.18 C-30.186 14.928 -29.657 10.054 -25.875 4.961 C-19.146 -2.153 -8.945 -4.106 0 0 Z M-19.375 9.375 C-21.769 12.772 -22.629 15.345 -22.375 19.438 C-21.64 23.659 -19.744 25.711 -16.375 28.375 C-13.058 30.622 -10.339 30.851 -6.375 30.375 C-2.059 28.09 0.723 25.919 2.625 21.375 C3.026 17.63 2.957 15.169 1.5 11.688 C-1.758 7.669 -4.716 5.612 -9.875 4.875 C-14.109 5.48 -16.145 6.586 -19.375 9.375 Z " fill="#000000" transform="translate(934.375,243.625)"/>
<path d="M0 0 C4.492 2.08 7.094 4.731 9.305 9.078 C10.78 13.155 10.78 16.845 9.305 20.922 C7.094 25.269 4.492 27.92 0 30 C-4.998 30.79 -8.793 30.581 -13.375 28.375 C-16.959 25.132 -19.595 22.535 -20.383 17.602 C-20.639 11.918 -19.936 8.351 -16 4 C-11.057 -0.472 -6.396 -1.01 0 0 Z M-11 8 C-13.492 11.737 -13.458 13.573 -13 18 C-11.438 20.938 -11.438 20.938 -9 23 C-5.334 23.524 -3.012 23.453 0.375 21.938 C2.811 19.033 2.936 16.74 3 13 C1.412 9.426 0.284 8.189 -3 6 C-6.781 6 -7.964 6.077 -11 8 Z " fill="#000000" transform="translate(897,339)"/>
<path d="M0 0 C6.733 6.551 11.379 14.171 14.168 23.109 C14.392 23.802 14.617 24.494 14.848 25.207 C18.479 38.515 16.625 52.875 10.293 64.984 C4.238 75.293 -4.086 82.673 -15.578 86.449 C-27.298 88.827 -38.647 88.134 -48.926 81.824 C-59.811 74.309 -66.384 64.11 -69.435 51.302 C-72.142 36.346 -69.728 21.108 -61.461 8.324 C-53.947 -1.892 -44.278 -7.256 -31.957 -9.641 C-19.935 -10.762 -9.309 -7.711 0 0 Z M-52.832 15.109 C-55.929 19.405 -56.248 22.84 -55.484 27.922 C-54.403 31.547 -52.526 33.481 -49.832 36.109 C-46.372 37.839 -42.615 37.594 -38.832 37.109 C-34.546 34.465 -32.256 31.807 -31.02 26.859 C-30.747 21.41 -32.338 17.83 -35.895 13.734 C-41.563 8.981 -47.538 10.537 -52.832 15.109 Z " fill="#000000" transform="translate(667.83203125,350.890625)"/>
<path d="M0 0 C10.435 8.267 16.787 20.579 18.484 33.762 C19.595 50.181 17.285 64.802 6.238 77.742 C-2.426 86.482 -12.368 90.801 -24.625 91.25 C-36.892 91.066 -47.113 86.634 -56.188 78.5 C-67.425 66.624 -69.633 51.582 -69.309 35.957 C-68.714 22.956 -63.122 11.543 -53.688 2.625 C-38.013 -10.384 -16.889 -11.973 0 0 Z M-19.812 15.5 C-23.15 19.315 -23.349 21.747 -23.277 26.68 C-22.842 30.322 -21.431 32.313 -19 35 C-15.536 37.386 -13.655 38.011 -9.438 37.938 C-4.997 36.727 -2.441 34.921 0.312 31.25 C1.761 26.509 1.428 22.39 0 17.75 C-2.683 14.061 -5.795 12.603 -10 11 C-13.996 11 -16.952 12.958 -19.812 15.5 Z " fill="#000000" transform="translate(422,360)"/>
<path d="M0 0 C1.32 0.33 2.64 0.66 4 1 C4.878 3.428 5.176 4.57 4.18 7 C-0.165 13.66 -5.025 18.162 -12.828 20.562 C-21.097 22.228 -28.837 21.51 -36 17 C-43.286 11.994 -43.286 11.994 -44.719 7.992 C-45 6.062 -45 6.062 -45 3 C-43.35 2.67 -41.7 2.34 -40 2 C-39.66 2.459 -39.319 2.918 -38.969 3.391 C-34.698 8.797 -30.527 12.213 -23.617 13.414 C-16.892 13.815 -11.443 11.937 -6 8 C-3.684 5.504 -1.773 2.904 0 0 Z " fill="#000000" transform="translate(542,449)"/>
<path d="M0 0 C4.698 3.677 8.999 7.654 13.105 11.977 C16.689 10.448 19.057 8.284 21.855 5.602 C28.476 -0.427 34.86 -4.451 44.105 -4.023 C47.869 -2.769 49.556 -1.762 51.918 1.414 C56.341 10.959 53.429 19.505 50.105 28.977 C49.684 29.805 49.262 30.634 48.828 31.488 C47.799 35.031 48.908 36.788 50.418 40.102 C53.465 47.49 55.466 54.549 53.043 62.414 C51.237 66.351 49.151 68.254 45.105 69.977 C38.243 70.597 32.578 67.876 27.105 63.977 C23.656 61.093 20.351 58.087 17.105 54.977 C13.852 56.385 11.918 58.053 9.543 60.664 C-3.432 73.927 -22.121 80.527 -40.395 81.227 C-58.868 80.971 -77.235 74.416 -90.707 61.664 C-96.882 55.191 -103.116 46.553 -103.27 37.289 C-102.925 24.346 -94.101 13.43 -85.082 4.816 C-60.676 -15.711 -26.295 -18.382 0 0 Z M-80.895 10.977 C-81.594 11.582 -82.294 12.188 -83.016 12.812 C-90.063 19.34 -95.778 27.641 -96.184 37.508 C-95.184 46.046 -89.096 53.408 -82.895 58.977 C-67.249 70.738 -48.084 75.352 -28.722 72.676 C-11.825 69.474 1.325 60.023 12.105 46.977 C12.435 46.647 12.435 46.647 14.105 44.977 C17.286 45.134 18.772 45.684 21.176 47.797 C21.854 48.557 22.532 49.318 23.23 50.102 C28.196 55.291 34.424 61.334 41.809 62.348 C42.567 62.225 43.325 62.103 44.105 61.977 C46.845 57.868 46.712 54.804 46.105 49.977 C44.817 45.473 43.31 41.004 40.91 36.965 C39.804 34.231 40.258 32.779 41.105 29.977 C41.932 28.11 42.788 26.256 43.668 24.414 C46.298 18.28 47.131 12.605 46.105 5.977 C44.105 3.977 44.105 3.977 41.312 3.668 C31.971 4.567 24.021 13.268 18.105 19.977 C17.775 20.472 17.775 20.472 16.105 22.977 C13.98 22.977 13.98 22.977 11.105 21.977 C9.895 20.48 9.895 20.48 8.605 18.539 C0.09 6.377 -15.304 -1.7 -29.543 -4.555 C-48.89 -7.261 -66.266 -1.875 -80.895 10.977 Z " fill="#000000" transform="translate(915.89453125,596.0234375)"/>
<path d="M0 0 C8.289 6.245 15.769 13.949 19 24 C19.965 33.97 16.441 41.457 10.414 49.293 C0.237 60.706 -14.782 67.725 -30 69 C-49.17 70.08 -63.197 65.354 -78 53 C-80.977 54.323 -82.079 55.1 -84.188 57.75 C-89.163 63.977 -96.098 68.093 -104 69 C-107.961 67.804 -109.511 66.7 -111.875 63.312 C-114.292 56.195 -112.833 50.576 -110.656 43.613 C-109.98 40.919 -109.755 38.765 -110 36 C-111.323 33.993 -112.658 31.994 -114 30 C-116.635 24.168 -117.907 18.386 -117 12 C-115.7 8.852 -114.411 7.363 -111.875 5.125 C-106.528 3.033 -102.121 4.097 -96.926 6.309 C-92.15 8.664 -87.546 11.229 -83 14 C-82.599 13.443 -82.198 12.886 -81.785 12.312 C-61.535 -14.871 -27.886 -17.318 0 0 Z M-74 14 C-75.578 16.401 -77.078 18.805 -78.48 21.312 C-80 23 -80 23 -82.379 23.453 C-85.597 22.897 -87.18 21.749 -89.75 19.75 C-95.372 15.619 -101.675 11.055 -109 12 C-110.45 17.642 -109.223 21.715 -107 27 C-105.471 29.401 -103.871 31.659 -102.109 33.895 C-100.626 36.709 -101.089 38 -102 41 C-102.507 42.588 -103.028 44.171 -103.562 45.75 C-105.088 50.681 -105.249 54.861 -105 60 C-101.328 61.164 -101.328 61.164 -98.375 59.688 C-92.782 55.611 -87.42 50.309 -83.34 44.73 C-82 43 -82 43 -79.75 42.312 C-76.044 43.239 -74.634 45.251 -72.07 47.992 C-61.482 58.261 -49.225 61.622 -34.915 61.471 C-19.434 60.952 -6.432 55.53 4.273 44.098 C8.637 38.797 12.054 33.405 11.609 26.324 C9.373 17.795 1.659 10.392 -5.709 5.976 C-29.415 -7.461 -55.31 -8.478 -74 14 Z " fill="#000000" transform="translate(186,662)"/>
<path d="M0 0 C5.364 3.158 9.36 7.845 12.125 13.375 C13.578 21.448 13.338 28.505 8.688 35.5 C4.177 40.435 -0.351 44.03 -7.145 44.836 C-15.051 44.94 -20.406 44.136 -26.285 38.664 C-32.19 32.335 -33.827 26.844 -33.617 18.242 C-32.8 10.886 -28.877 6.619 -23.41 1.945 C-16.689 -2.686 -7.486 -3.304 0 0 Z M-23.625 12.062 C-26.549 16.286 -26.976 20.487 -26.312 25.5 C-24.525 30.318 -21.571 33.661 -17.312 36.5 C-12.967 37.949 -8.709 38.389 -4.375 36.781 C0.623 34.11 3.895 30.877 5.688 25.5 C6.056 19.884 5.903 16.323 2.688 11.5 C-1.296 7.569 -4.433 5.35 -10.062 5.188 C-16.315 5.26 -19.469 7.457 -23.625 12.062 Z " fill="#000000" transform="translate(777.3125,721.5)"/>
<path d="M0 0 C4.023 2.372 6.979 4.608 8.738 9.059 C10.132 15.13 9.974 19.629 6.738 25.059 C3.416 29.302 0.088 31.356 -5.262 32.121 C-9.945 32.306 -13.197 31.529 -17.262 29.059 C-21.469 24.95 -23.422 21.672 -23.574 15.809 C-23.521 10.719 -22.76 7.935 -19.262 4.059 C-13.708 -0.953 -7.171 -2.985 0 0 Z M-15.262 10.059 C-16.831 13.197 -16.614 15.597 -16.262 19.059 C-13.833 22.344 -12.139 23.766 -8.262 25.059 C-4.636 25.059 -3.101 24.267 -0.262 22.059 C2.198 18.369 2.538 15.34 1.738 11.059 C-0.324 8.059 -0.324 8.059 -3.262 6.059 C-8.729 5.18 -11.376 6.173 -15.262 10.059 Z " fill="#000000" transform="translate(694.26171875,802.94140625)"/>
<path d="M0 0 C1.042 1.301 2.064 2.621 3 4 C6.583 2.471 8.951 0.308 11.75 -2.375 C17.89 -7.983 23.472 -11.684 32 -12 C36.501 -11.029 39.082 -9.567 42 -6 C44.939 2.818 42.784 10.831 39.191 19.09 C37.623 22.92 36.574 25.52 37.742 29.578 C38.116 30.46 38.49 31.342 38.875 32.25 C41.848 39.978 43.084 46.147 40.004 54.047 C38.45 57.07 37.029 58.452 34 60 C26.947 61.076 21.865 58.896 16 55 C12.127 51.892 8.547 48.473 5 45 C4.092 45.804 3.185 46.609 2.25 47.438 C0.839 48.632 -0.579 49.818 -2 51 C-2.849 51.712 -3.699 52.423 -4.574 53.156 C-21.913 66.971 -42.039 71.851 -64 70 C-81.901 67.502 -98.461 59.023 -110 45 C-114.088 38.205 -118.037 31.131 -117 23 C-113.273 8.34 -102.774 -4.377 -90.046 -12.361 C-59.53 -30.214 -25.141 -23.932 0 0 Z M-99 4 C-105.08 11.553 -109.727 18.554 -109.336 28.527 C-108.067 37.869 -100.563 45.427 -93.426 51.016 C-77.663 61.601 -58.6 65.774 -39.891 62.348 C-23.871 58.476 -10.387 49.63 0.367 37.215 C2 36 2 36 4.363 35.492 C8.099 36.212 9.876 38.464 12.312 41.188 C17.604 46.783 22.961 52.246 31 53 C33.51 50.49 33.999 49.008 34.438 45.438 C34.221 39.327 31.589 33.541 29.113 28.023 C28.438 26.312 28.438 26.312 28 23 C29.016 20.887 30.26 19.086 31.617 17.176 C34.94 11.948 36.752 5.169 36 -1 C35.67 -1.495 35.67 -1.495 34 -4 C28.023 -4.775 24.772 -2.493 19.957 0.715 C15.667 4.03 12.015 7.792 8.312 11.742 C6 14 6 14 3 15 C0.09 12.178 -2.594 9.304 -5.188 6.188 C-15.004 -4.995 -29.371 -13.895 -44.484 -15.217 C-65.153 -16.142 -84.405 -11.849 -99 4 Z " fill="#000000" transform="translate(875,836)"/>
<path d="M0 0 C5.857 4.692 9.127 9.786 10.164 17.262 C10.498 24.739 9.025 30.878 4.023 36.566 C-1.475 41.74 -6.661 44.22 -14.148 44.934 C-21.785 44.56 -27.93 41.896 -33.48 36.645 C-37.31 32.028 -39.35 26.483 -39.648 20.496 C-38.804 12.9 -36.855 6.958 -31.211 1.559 C-21.11 -5.109 -10.627 -6.928 0 0 Z M-29.211 10.559 C-32.072 14.85 -32.663 18.892 -31.812 23.906 C-30.204 29.573 -28.114 32.322 -23.211 35.559 C-19.154 37.743 -15.786 38.024 -11.211 37.559 C-5.321 35.584 -1.749 32.598 1.789 27.559 C3.599 22.128 3.49 17.461 1.102 12.309 C-1.739 7.208 -5.596 4.202 -11.211 2.559 C-18.876 1.725 -24.265 4.906 -29.211 10.559 Z " fill="#000000" transform="translate(637.2109375,891.44140625)"/>
</svg>
