      <svg version="1.1" xmlns="http://www.w3.org/2000/svg"
           width="1024" height="1024" viewBox="0 0 1024 1024">
        <!-- B&W outline placeholder for coloring: page-8-whirlpool -->
        <!-- Generated by scripts/generate_coloring_placeholders.py -->
        <rect width="1024" height="1024" fill="white"/>

        <!-- Mermaid body: head -->
<ellipse cx="512" cy="260" rx="90" ry="100"
         fill="white" stroke="#000" stroke-width="3"/>
<!-- Eyes -->
<ellipse cx="485" cy="252" rx="14" ry="16"
         fill="white" stroke="#000" stroke-width="3"/>
<ellipse cx="539" cy="252" rx="14" ry="16"
         fill="white" stroke="#000" stroke-width="3"/>
<circle  cx="485" cy="254" r="7" fill="#000"/>
<circle  cx="539" cy="254" r="7" fill="#000"/>
<!-- Nose -->
<path d="M 508,275 Q 512,281 516,275" fill="none" stroke="#000" stroke-width="2"/>
<!-- Mouth -->
<path d="M 498,292 Q 512,303 526,292" fill="none" stroke="#000" stroke-width="2.5"/>
<!-- Hair -->
<path d="M 435,200 Q 400,240 398,320 Q 440,310 450,250 Q 460,210 440,195 Z"
      fill="white" stroke="#000" stroke-width="3" stroke-linejoin="round"/>
<path d="M 589,200 Q 624,240 626,320 Q 584,310 574,250 Q 564,210 584,195 Z"
      fill="white" stroke="#000" stroke-width="3" stroke-linejoin="round"/>
<path d="M 435,200 Q 512,180 589,200" fill="none" stroke="#000" stroke-width="3"/>
<!-- Torso left side -->
<path d="M 430,348 Q 415,400 418,470 L 487,474 L 487,348 Z"
      fill="white" stroke="#000" stroke-width="3"/>
<!-- Torso right side -->
<path d="M 594,348 Q 609,400 606,470 L 537,474 L 537,348 Z"
      fill="white" stroke="#000" stroke-width="3"/>
<!-- Torso center -->
<rect x="487" y="348" width="50" height="126"
      fill="white" stroke="#000" stroke-width="3" rx="2"/>
<!-- Waist band -->
<path d="M 418,470 Q 460,488 512,492 Q 564,488 606,470 L 537,474 L 487,474 Z"
      fill="white" stroke="#000" stroke-width="3"/>
<!-- Tail -->
<path d="M 487,490 Q 445,545 440,620 Q 480,680 512,692 Q 544,680 584,620 Q 579,545 537,490 Z"
      fill="white" stroke="#000" stroke-width="3" stroke-linejoin="round"/>
<!-- Left fin -->
<path d="M 440,620 Q 395,655 390,695 Q 418,700 445,675"
      fill="white" stroke="#000" stroke-width="3"/>
<!-- Right fin -->
<path d="M 584,620 Q 629,655 634,695 Q 606,700 579,675"
      fill="white" stroke="#000" stroke-width="3"/>
<!-- Left arm -->
<path d="M 418,378 Q 380,415 376,460 Q 392,472 407,450 Q 416,418 430,398"
      fill="white" stroke="#000" stroke-width="3"/>
<!-- Right arm -->
<path d="M 606,378 Q 644,415 648,460 Q 632,472 617,450 Q 608,418 594,398"
      fill="white" stroke="#000" stroke-width="3"/>
<!-- Left hand -->
<ellipse cx="382" cy="468" rx="15" ry="11"
         fill="white" stroke="#000" stroke-width="3"/>
<!-- Right hand -->
<ellipse cx="642" cy="468" rx="15" ry="11"
         fill="white" stroke="#000" stroke-width="3"/>

        <!-- Scene: Whirlpool vortex -->
<!-- Outer vortex ring 1 -->
<path d="M 512,100 Q 780,150 880,380 Q 950,560 840,740 Q 720,900 512,920 Q 304,900 184,740 Q 74,560 144,380 Q 244,150 512,100"
      fill="none" stroke="#000" stroke-width="4" stroke-linecap="round"/>
<!-- Vortex ring 2 -->
<path d="M 512,180 Q 730,220 808,420 Q 860,575 768,724 Q 672,860 512,876 Q 352,860 256,724 Q 164,575 216,420 Q 294,220 512,180"
      fill="none" stroke="#000" stroke-width="3.5" stroke-linecap="round"/>
<!-- Vortex ring 3 (tighter) -->
<path d="M 512,280 Q 680,308 736,460 Q 768,580 700,700 Q 628,808 512,820 Q 396,808 324,700 Q 256,580 288,460 Q 344,308 512,280"
      fill="none" stroke="#000" stroke-width="3" stroke-linecap="round"/>
<!-- Vortex core (small spiral detail) -->
<circle cx="512" cy="740" r="30" fill="white" stroke="#000" stroke-width="3"/>
<circle cx="512" cy="740" r="15" fill="none" stroke="#000" stroke-width="2.5"/>
<!-- Swirling bubbles left -->
<circle cx="250" cy="350" r="14" fill="none" stroke="#000" stroke-width="2.5"/>
<circle cx="220" cy="400" r="9"  fill="none" stroke="#000" stroke-width="2"/>
<circle cx="270" cy="430" r="11" fill="none" stroke="#000" stroke-width="2"/>
<!-- Swirling bubbles right -->
<circle cx="770" cy="360" r="12" fill="none" stroke="#000" stroke-width="2.5"/>
<circle cx="800" cy="410" r="16" fill="none" stroke="#000" stroke-width="2.5"/>
<circle cx="758" cy="448" r="8"  fill="none" stroke="#000" stroke-width="2"/>
<!-- Diagonal swirl lines (give depth) -->
<path d="M 160,240 Q 300,220 390,280 Q 340,240 280,260"
      fill="none" stroke="#000" stroke-width="2" stroke-linecap="round"/>
<path d="M 864,240 Q 724,220 634,280 Q 684,240 744,260"
      fill="none" stroke="#000" stroke-width="2" stroke-linecap="round"/>
      </svg>
