<?xml version="1.0" encoding="UTF-8"?>
<!-- Generator: visioncortex VTracer 0.6.12 -->
<svg version="1.1" xmlns="http://www.w3.org/2000/svg" width="1024" height="1024">
<path d="M0 0 C6.746 2.416 10.653 7.258 13.75 13.562 C17.511 24.694 13.907 36.909 11.562 48 C9.472 57.993 7.48 67.768 7 78 C12.463 75.789 15.954 72.993 19 68 C21.241 62.451 22.642 56.682 23.922 50.848 C27.14 36.41 27.14 36.41 33 32 C37.623 29.274 42.276 29.307 47.426 30.617 C54.783 33.14 59.717 37.349 63.164 44.371 C66.43 54.643 63.28 64.328 58.738 73.566 C52.061 85.326 40.96 94.626 30.842 103.401 C18.693 113.95 7.702 127.323 6 144 C5.497 152.977 5.497 152.977 8 157 C11.092 158.546 13.594 158.294 17 158 C20.417 155.506 21.699 152.955 23 149 C23.323 146.223 23.587 143.471 23.812 140.688 C24.651 132.364 26.262 127.088 32.875 121.625 C39.793 118.028 46.521 116.74 54.062 119.062 C59.979 121.475 63.352 126.371 66 132 C66.594 131.212 67.189 130.425 67.801 129.613 C82.659 110.039 98.691 91.316 118 76 C119.122 75.067 120.241 74.132 121.359 73.195 C144.148 54.245 171.16 39.979 199 30 C199.821 29.7 200.641 29.401 201.487 29.092 C229.653 18.9 259.194 13.447 289 11 C289.684 10.942 290.368 10.884 291.073 10.825 C369.666 4.497 451.646 21.235 513.223 72.594 C526.156 83.799 538.359 95.571 549 109 C549.945 110.145 550.891 111.288 551.84 112.43 C587.932 156.157 615.171 222.752 614 280 C614.804 280.041 615.609 280.082 616.438 280.125 C625.155 282.266 631.945 288.804 637 296 C639.585 300.488 641.753 305.186 643.965 309.864 C645.709 313.463 647.603 316.98 649.5 320.5 C649.851 321.153 650.201 321.806 650.562 322.479 C651.373 323.987 652.186 325.494 653 327 C657.932 307.191 652.103 285.418 641.859 268.336 C638.941 263.659 635.825 259.131 632.602 254.66 C622.672 240.839 619.09 228.258 618.062 211.5 C616.576 190.563 611.989 173.35 603.272 154.314 C599.732 146.489 598.442 138.022 601.125 129.688 C603.249 124.728 606.692 122.275 611.375 119.688 C616.307 118.396 620.392 118.496 625.188 120 C632.249 125.022 634.283 132.866 636 141 C637.308 149.063 638.234 157.19 639.224 165.297 C641.218 181.481 643.637 197.866 650 213 C650.66 213.33 651.32 213.66 652 214 C652.049 213.236 652.098 212.471 652.148 211.684 C652.574 205.586 653.156 199.554 654 193.5 C657.153 170.345 656.234 148.079 653 125 C647.298 84.104 647.298 84.104 656.617 70.684 C660.302 66.198 664.233 63.269 670 62 C675.944 61.521 680.707 62.138 686 65 C688.812 67.438 688.812 67.438 691 70 C691.278 70.299 691.278 70.299 692.688 71.812 C701.109 85.848 694.999 108.251 692.75 123.312 C692.426 125.541 692.104 127.771 691.783 130 C691.005 135.381 690.215 140.761 689.421 146.14 C688.643 151.426 687.883 156.715 687.126 162.005 C686.806 164.238 686.483 166.472 686.155 168.704 C685.754 171.468 685.369 174.232 685 177 C684.895 177.778 684.791 178.555 684.683 179.357 C683.834 186.567 683.848 193.781 683.87 201.03 C683.875 203.166 683.87 205.303 683.863 207.439 C683.859 216.667 684.267 225.8 685 235 C686.706 230.346 688.375 225.682 690 221 C690.126 220.639 690.126 220.639 690.761 218.811 C693.762 210.067 696.32 201.342 698.023 192.25 C698.193 191.35 698.363 190.449 698.538 189.522 C700.378 179.426 701.49 169.264 702.562 159.062 C706.779 119.169 706.779 119.169 715.125 112 C719.901 108.678 723.274 108.487 729 109 C734.368 110.789 737.97 114.3 741 119 C747.345 134.55 740.525 150.829 734.682 165.37 C727.049 184.373 723.381 201.769 722.25 222.165 C721.364 236.646 717.887 249.064 710.062 261.438 C702.641 273.784 695.746 288.269 696 303 C719.456 282.04 728.947 264.041 732.651 232.929 C736.69 199.388 736.69 199.388 747.656 189.508 C751.147 187.207 754.781 186.316 758.949 186.551 C764.368 187.738 768.093 190.837 771.438 195.125 C775.889 203.315 774.285 212.072 772.017 220.751 C770.278 226.307 767.782 231.457 765.25 236.688 C764.17 238.979 763.091 241.272 762.016 243.566 C761.497 244.669 760.978 245.771 760.443 246.907 C754.934 258.714 750.761 270.258 748 283 C748.857 282.446 749.714 281.891 750.598 281.32 C751.752 280.588 752.907 279.856 754.062 279.125 C754.624 278.76 755.185 278.395 755.764 278.02 C761.566 274.372 767.205 272.306 774.078 273.465 C778.576 274.717 781.283 276.948 783.875 280.75 C785.989 286.856 785.623 291.225 783.125 297.062 C776.958 308.294 764.124 311.727 752.66 315.395 C730.153 322.613 711.326 333.207 699.918 354.91 C688.249 378.764 685.021 406.821 688 433 C697.696 420.093 703.011 407.54 704.418 391.324 C706.79 364.025 706.79 364.025 716 355 C720.23 351.898 723.696 351.516 728.75 352.293 C733.527 353.794 736.804 357.042 739.375 361.25 C741.413 370.217 740.709 377.989 739 387 C739.496 386.613 739.993 386.227 740.504 385.828 C742.647 384.186 744.814 382.584 747 381 C747.585 380.575 748.17 380.149 748.773 379.711 C753.438 376.667 757.615 376.058 763 377 C767.115 378.829 769.156 380.692 770.938 384.75 C773.398 392.813 770.477 398.736 766.961 405.973 C761.946 413.716 755.104 418.071 747.312 422.75 C732.179 432.137 719.592 441.967 715 460 C714.259 463.322 713.607 466.651 713 470 C713.607 469.992 714.213 469.984 714.838 469.976 C735.792 469.821 756.885 473.025 776 482 C776.66 482.66 777.32 483.32 778 484 C777.625 486.125 777.625 486.125 777 488 C771.53 487.412 766.842 485.998 761.688 484.125 C747.667 479.327 734.51 477.748 719.688 477.625 C718.531 477.611 717.375 477.597 716.184 477.583 C709.026 477.622 702.581 478.54 695.656 480.357 C693 481 693 481 690 481 C690.266 481.522 690.531 482.044 690.805 482.582 C691.158 483.318 691.511 484.054 691.875 484.812 C692.223 485.52 692.571 486.228 692.93 486.957 C699.597 505.912 697.636 529.235 689.263 547.311 C680.415 565.332 668.446 577.673 650.086 585.984 C647.056 586.982 644.195 587.393 641.034 587.748 C634.739 588.505 630.738 589.376 626.677 594.496 C624.708 597.282 622.86 600.139 621 603 C618.247 606.171 615.234 608.976 612.004 611.656 C605.622 616.964 600.638 623.012 598 631 C597.776 635.354 598.445 639.001 600.562 642.812 C603.728 645.653 607.121 647.314 611 649 C611.438 651.187 611.438 651.187 611 654 C603.919 660.465 595.205 662.637 585.738 662.355 C576.048 661.098 567.925 655.766 561.734 648.398 C556.425 641.056 553.203 632.735 551 624 C550.478 624.762 549.956 625.524 549.418 626.309 C540.505 638.812 529.584 646.435 516.043 653.555 C506.503 658.592 499.409 663.291 496.062 674 C495.956 679.135 497.958 682.784 501.25 686.625 C503 689 503 689 502.812 691.75 C502 694 502 694 501 695 C491.383 695.788 482.75 693.4 475 687.562 C467.24 680.949 462.868 673.201 462 663 C461.466 663.364 460.933 663.727 460.383 664.102 C457.934 665.754 455.47 667.379 453 669 C452.23 669.514 451.461 670.029 450.668 670.559 C436.642 679.514 420.342 682.541 404 684 C404.519 684.958 405.039 685.916 405.574 686.902 C423.523 720.836 422.419 759.357 415.714 796.281 C412.501 814.026 412.532 830.111 423.172 845.578 C436.21 862.85 459.869 872.593 480.738 875.621 C514.327 879.523 548.32 872.506 575.383 851.426 C577.962 849.325 580.502 847.197 583 845 C582.413 844.981 582.413 844.981 579.441 844.887 C552.67 843.867 527.587 838.126 507 820 C506.193 819.336 505.386 818.672 504.555 817.988 C485.937 802.201 474.022 779.301 465.938 756.625 C462.621 747.411 458.444 739.196 450.48 733.219 C447.906 731.1 447.042 729.329 446.625 726.062 C447 723 447 723 448.375 720.812 C466.567 708.251 500.273 713.282 520.715 716.777 C556.83 723.469 586.091 741.421 608 771 C608.007 770.697 608.007 770.697 608.044 769.162 C609.372 719.13 622.107 671.786 659 636 C662.53 632.797 666.182 629.853 670 627 C670.995 626.251 671.99 625.502 673.016 624.73 C686.43 615.033 705.831 602.963 723 605 C725 607 725 607 725.375 610.438 C725.282 615.103 723.724 619.009 721.973 623.289 C716.74 637.872 721.238 652.706 725 667 C725.807 670.114 726.607 673.229 727.4 676.346 C727.906 678.334 728.42 680.319 728.944 682.302 C732.141 694.748 733.37 706.977 733.312 719.812 C733.31 720.469 733.31 720.469 733.298 723.791 C732.901 756.684 719.911 783.716 696.808 806.612 C683.957 818.961 662.879 835.013 644.586 836.227 C640.662 836.542 638.367 836.913 635 839 C632.076 843.676 630.635 849.067 628.953 854.281 C623.265 871.804 611.481 886.773 599 900 C598.339 900.726 597.677 901.451 596.996 902.199 C557.231 944.228 492.199 958.966 436.729 960.809 C374.712 962.406 310.182 948.528 258 914 C257.378 913.589 256.757 913.179 256.116 912.755 C237.879 900.55 222.039 885.627 209 868 C208.576 867.431 208.151 866.861 207.714 866.275 C181.852 831.075 173.605 787.18 179.585 744.404 C182.47 725.631 187.098 706.857 195.853 689.92 C197.058 687.514 198.003 685.562 197.988 682.84 C196.563 680.187 194.622 678.669 192.312 676.75 C186.647 671.83 182.237 666.789 179 660 C175.159 661.565 172.87 664.06 170 667 C160.028 675.894 148.048 677.5 134.996 677.258 C128.124 676.667 121.373 675.524 116 671 C116.233 667.297 116.888 666.11 119.582 663.457 C120.654 662.57 121.731 661.688 122.812 660.812 C128.219 656.176 131.231 652.037 133 645 C133.174 644.374 133.347 643.749 133.526 643.104 C134.3 639.669 134.143 636.191 134.125 632.688 C134.129 631.953 134.133 631.219 134.137 630.463 C134.129 625.875 133.753 621.526 133 617 C130.458 616.52 127.917 616.041 125.375 615.562 C124.662 615.428 123.949 615.293 123.215 615.154 C121.804 614.889 120.392 614.631 118.978 614.382 C117.217 614.042 115.48 613.585 113.75 613.113 C111 613 111 613 108.727 614.914 C108.033 615.809 107.34 616.703 106.625 617.625 C99.275 626.384 91.39 630.11 79.98 631.32 C71.979 631.628 66.059 629.53 59 626 C58.14 620.411 60.292 617.779 63.398 613.457 C65.93 609.573 67.456 605.352 69 601 C67.137 601.101 65.274 601.202 63.412 601.307 C61.84 601.394 60.268 601.477 58.696 601.557 C54.675 601.774 50.885 602.17 46.938 603 C41.902 603 40.494 601.533 37.016 598.109 C36.35 597.413 35.685 596.717 35 596 C27.321 588.206 19.689 584.018 8.562 583.5 C-6.653 584.158 -19.81 592.088 -30 603 C-34.355 608.831 -37.075 615.008 -39 622 C-38.415 622.075 -37.83 622.15 -37.227 622.227 C-24.581 624.163 -12.446 628.554 -0.938 634.062 C-0.253 634.378 0.432 634.694 1.137 635.02 C4.255 636.585 5.785 637.368 6.934 640.746 C6.956 641.49 6.977 642.234 7 643 C5.453 643.719 5.453 643.719 3 644 C0.492 642.92 -1.844 641.773 -4.25 640.5 C-23.014 631.209 -43.364 627.492 -64 625 C-64.627 624.924 -64.627 624.924 -67.801 624.539 C-101.388 621.444 -134.934 625.217 -166.664 636.547 C-170.087 637.752 -173.384 638.555 -177 639 C-177.66 637.68 -178.32 636.36 -179 635 C-175.73 631.398 -172.12 630.249 -167.625 628.625 C-167.204 628.473 -167.204 628.473 -165.073 627.702 C-147.769 621.631 -130.186 618.907 -112 617 C-116.446 600.313 -123.098 590.172 -137.953 581.41 C-142.53 578.771 -147.189 576.312 -151.875 573.875 C-161.816 568.676 -170.202 562.584 -175.875 552.75 C-177.823 546.257 -178.19 539.832 -175.312 533.562 C-172.642 528.996 -169.666 526.673 -164.75 524.688 C-157.865 523.425 -152.003 524.265 -146 528 C-140.562 531.929 -137.717 536.266 -134.438 542.062 C-128.316 552.842 -128.316 552.842 -122 556 C-127.774 530.581 -139.017 513.043 -158.98 496.523 C-166.827 489.966 -174.238 483.096 -176 472.562 C-176.455 464.384 -173.472 457.417 -168.266 451.227 C-158.262 441.395 -144.799 434.339 -131 432 C-135.734 415.897 -146.312 406.021 -159.188 395.875 C-168.303 388.655 -176.361 380.753 -179 369 C-179.854 360.121 -178.49 352.666 -172.75 345.688 C-167.896 340.536 -162.603 337.436 -155.484 336.762 C-147.69 336.55 -142.419 337.766 -136.688 343.188 C-132.22 350.633 -131.43 358.487 -130.916 366.982 C-130.467 372.544 -129.338 377.41 -126 382 C-123.062 383.312 -123.062 383.312 -120 383 C-115.81 379.858 -114.336 376.966 -113 372 C-111.295 353.937 -117.476 339 -125 323 C-125.607 321.692 -126.212 320.383 -126.816 319.074 C-127.829 316.881 -128.846 314.691 -129.871 312.504 C-132.684 306.266 -133.135 299.95 -131.234 293.336 C-126.962 283.617 -118.533 278.102 -109 274.094 C-92.289 268.001 -75.414 265.868 -58 270 C-57.132 260.02 -61.965 252.208 -67.867 244.477 C-73.877 237.499 -81.647 233.954 -89.864 230.133 C-112.206 219.69 -112.206 219.69 -116.41 208.492 C-117.862 202.36 -118.317 195.715 -115.312 190 C-111.529 185.092 -108.064 182.455 -102 181 C-95.871 180.306 -91.168 181.793 -86 185 C-81.616 188.919 -78.651 193.8 -76 199 C-76 199.66 -76 200.32 -76 201 C-75.01 201 -74.02 201 -73 201 C-72.773 200.175 -72.546 199.35 -72.312 198.5 C-70.211 192.897 -67.63 188.485 -63.188 184.438 C-59.056 182.574 -56.269 182.529 -52 184 C-48.827 185.824 -46.586 188.068 -44.625 191.188 C-43.06 198.229 -44.048 205.477 -44.977 212.555 C-45.003 215.352 -44.638 216.738 -43 219 C-39.375 219.75 -39.375 219.75 -36 220 C-30.843 213.498 -31.268 205.961 -32 198 C-35.021 183.397 -44.167 170.209 -56.562 162 C-63.805 157.767 -71.552 154.787 -79.314 151.647 C-95.163 145.174 -106.846 136.569 -114.105 120.562 C-117.427 111.081 -117.538 100.22 -113.266 91.059 C-110.675 86.845 -107.598 84.714 -103.062 82.688 C-96.907 81.306 -92.383 81.624 -86.91 84.703 C-79.266 89.893 -76.817 97.858 -73.703 106.159 C-68.95 118.611 -64.153 127.924 -52 134 C-49.941 134.238 -49.941 134.238 -47.562 134.312 C-46.78 134.35 -45.998 134.387 -45.191 134.426 C-43 134 -43 134 -41.246 132.262 C-39.025 128.23 -39.349 124.472 -40 120 C-44.398 105.717 -53.365 94.122 -63.312 83.25 C-76.579 68.611 -90.987 51.803 -90.344 30.961 C-89.468 23.419 -86.825 17.902 -80.879 13.156 C-74.795 9.412 -68.97 9.412 -62 10 C-56.57 11.709 -53.142 15.362 -50 20 C-48.498 23.346 -47.682 26.309 -47.289 29.949 C-47.178 30.881 -47.067 31.812 -46.953 32.771 C-46.737 34.695 -46.526 36.62 -46.32 38.545 C-45.138 48.319 -42.21 57.926 -35 65 C-32.664 66.396 -30.615 67.163 -28 68 C-27.973 65.708 -27.953 63.417 -27.938 61.125 C-27.932 60.487 -27.932 60.487 -27.902 57.258 C-27.926 54.19 -28.157 51.195 -28.488 48.145 C-29.946 34.556 -30.832 19.859 -24.125 7.562 C-17.235 -0.746 -10.182 -0.935 0 0 Z M-19.188 11.562 C-24.83 22.264 -23.763 35.904 -22.234 47.594 C-21.369 56.475 -21.021 64.877 -25 73 C-28.399 73.92 -30.694 74.491 -34.035 73.234 C-43.157 67.962 -48.176 58.921 -51 49 C-51.832 44.271 -52.428 39.517 -52.925 34.742 C-53.712 27.529 -55.14 21.795 -61 17 C-65.585 15.103 -70.625 15.488 -75.188 17.188 C-80.239 20.443 -82.606 24.192 -84 30 C-85.423 44.8 -75.837 58.12 -67 69 C-64.83 71.498 -62.615 73.948 -60.383 76.391 C-46.193 91.929 -33.653 107.623 -33.469 129.52 C-34.093 133.609 -35.433 135.792 -38 139 C-42.026 141.46 -46.402 141.641 -51 141 C-61.755 138.033 -67.443 132.392 -73.241 123.136 C-76.679 117.007 -78.892 110.387 -81.26 103.789 C-83.931 96.701 -86.048 92.476 -93 89 C-97.419 88.47 -100.92 88.413 -104.875 90.562 C-109.441 95.8 -110.534 100.603 -110.277 107.398 C-109.011 119.273 -102.764 129.605 -93.613 137.172 C-86.294 142.292 -78.016 145.608 -69.796 148.98 C-50.238 157.01 -37.202 167.175 -28.625 187.125 C-24.86 197.482 -23.812 207.828 -27.25 218.438 C-29.152 222.31 -30.18 224.007 -34 226 C-38.782 226.849 -42.095 226.461 -46.438 224.25 C-49.512 221.55 -50.838 219.691 -51.23 215.59 C-51.216 214.715 -51.202 213.839 -51.188 212.938 C-51.175 211.975 -51.162 211.012 -51.148 210.02 C-51.001 207.027 -50.675 204.098 -50.312 201.125 C-49.995 197.81 -49.969 196.096 -51 192.875 C-53.805 190.246 -56.245 190.213 -60 190 C-63.216 194.288 -65.858 198.433 -68.105 203.301 C-69 205 -69 205 -71 207 C-73.875 207.375 -73.875 207.375 -77 207 C-80.102 204.362 -81.987 201.545 -83.938 198 C-87.044 192.72 -89.626 189.967 -95.375 187.625 C-99.657 186.887 -102.003 187.341 -106 189 C-108.833 191.311 -109.838 192.515 -111 196 C-111.603 203.116 -110.273 207.967 -105.738 213.555 C-98.948 220.148 -88.987 223.647 -80.539 227.633 C-66.223 234.52 -58.923 244.29 -53 259 C-51.882 262.354 -52.184 264.322 -52.5 267.812 C-52.574 273.399 -52.574 273.399 -50.176 275.91 C-48.59 276.893 -46.972 277.826 -45.328 278.707 C-40.407 281.44 -37.773 285.734 -36 291 C-34.416 301.8 -37.876 310.312 -42 320 C-56.269 354.363 -56.269 354.363 -51 368 C-48.032 368.933 -46.412 369.141 -43.438 368.125 C-38.284 363.632 -36.941 356.883 -35.125 350.5 C-32.925 343.189 -30.351 337.127 -23.75 332.938 C-16.495 331.124 -10.287 331.005 -3.684 334.805 C0.806 337.992 3.656 342.701 5 348 C6.565 361.353 1.189 370.232 -6 381 C-6.986 382.516 -7.966 384.037 -8.938 385.562 C-9.338 386.183 -9.739 386.803 -10.152 387.441 C-11 389 -11 389 -11 391 C-10.691 391.098 -10.691 391.098 -9.129 391.594 C-0.99 394.468 4.874 398.832 10.062 405.75 C13.833 418.821 8.391 428.657 2.25 439.812 C-0.736 445.158 -3.84 450.395 -7.125 455.562 C-17.776 472.728 -29 496.457 -29 517 C-28.34 517 -27.68 517 -27 517 C-22.508 509.193 -20.127 502.256 -18.836 493.445 C-17.622 488.441 -15.541 485.075 -11.312 482.125 C-5.485 480.146 -0.359 480.101 5.312 482.625 C10.026 485.264 12.308 488.925 14 494 C15.252 507.297 10.797 517.431 3 528 C0.113 531.444 -2.923 534.726 -6 538 C-8.373 540.634 -10.692 543.309 -13 546 C-13.637 546.712 -14.274 547.423 -14.93 548.156 C-26.519 561.685 -34.028 580.186 -35 598 C-34.051 597.154 -33.103 596.309 -32.125 595.438 C-17.777 583.197 -4.062 576.85 14.865 577.809 C23.758 578.604 30.55 583.119 37 589 C37.791 590.056 38.583 591.111 39.398 592.199 C42.497 595.326 45.138 595.466 49.457 595.621 C51.909 595.591 54.362 595.528 56.812 595.438 C58.065 595.419 59.317 595.4 60.607 595.381 C69.804 595.196 69.804 595.196 71 594 C71.839 584.137 68.182 575.547 62 568 C56.599 562.162 50.835 556.788 44.824 551.582 C44.222 551.06 43.62 550.538 43 550 C42.429 549.509 41.858 549.018 41.27 548.512 C27.364 535.688 19.606 515.884 18.715 497.266 C18.088 474.227 24.507 453.45 33.23 432.363 C33.534 431.602 33.837 430.84 34.15 430.056 C34.852 428.358 35.656 426.702 36.484 425.062 C37.326 420.065 35.06 416.221 33.062 411.688 C24.943 392.09 19.994 371.971 17 351 C16.888 350.232 16.776 349.464 16.661 348.673 C12.815 321.387 13.509 293.545 16.339 266.202 C16.862 261.1 17.089 256.13 17 251 C16.287 251.3 15.574 251.601 14.84 251.91 C4.749 255.916 4.749 255.916 -1 254 C-5.123 249.877 -5.227 245.235 -5.25 239.688 C-5.24 221.399 0.748 204.772 13.25 191.312 C19.33 185.571 25.663 181.345 33.938 179.938 C39.847 178.192 41.792 174.745 44.658 169.623 C46.698 165.707 48.652 161.753 50.585 157.783 C52.908 153.214 55.659 148.92 58.499 144.657 C60.134 142.076 61.021 140.453 60.879 137.359 C59.99 134.972 58.995 132.959 57.625 130.812 C57.205 130.138 56.785 129.464 56.352 128.77 C54.435 126.261 52.707 125.108 49.582 124.629 C43.733 124.489 39.376 124.87 34.586 128.418 C29.384 133.608 29.415 141.352 28.821 148.277 C28.4 152.613 27.42 155.402 25 159 C25 159.66 25 160.32 25 161 C19.52 163.841 15.319 165.665 9 165 C4.756 162.96 2.087 160.765 0.473 156.23 C-2.345 142.934 2.072 129.348 9 118 C15.629 108.434 24.251 100 33.062 92.438 C44.427 82.659 56.425 71.33 58.277 55.652 C58.484 50.7 57.855 47.188 55 43 C51.215 39.276 48.055 36.86 42.688 36.625 C41.928 36.576 41.169 36.527 40.387 36.477 C36.726 37.279 35.313 39.115 33 42 C31.777 45.312 31.777 45.312 30.938 49 C30.612 50.335 30.285 51.67 29.957 53.004 C29.798 53.672 29.639 54.34 29.475 55.028 C26.792 66.166 23.763 75.573 13.801 82.09 C10.84 83.586 8.291 84 5 84 C3.32 82.948 3.32 82.948 2 81 C0.656 70.077 2.695 59.339 4.938 48.688 C10.816 20.033 10.816 20.033 5.891 12.246 C2.969 8.504 0.33 6.292 -4.402 5.699 C-11.124 5.668 -14.669 6.269 -19.188 11.562 Z M95 107 C92.603 109.615 90.287 112.288 88 115 C87.323 115.799 86.646 116.598 85.949 117.422 C34.54 179.15 14.521 255.814 21.016 335.314 C25.289 381.967 38.868 430.328 74.957 462.406 C76.902 463.924 78.756 464.992 81 466 C79.893 462.502 78.654 459.093 77.266 455.699 C65.635 427.004 60.791 396.739 60.75 365.875 C60.748 365.139 60.746 364.403 60.744 363.645 C60.735 350.476 61.768 337.595 63.636 324.55 C64.137 321.039 64.569 317.521 65 314 C64.452 313.801 64.452 313.801 61.676 312.793 C60.221 312.258 58.767 311.723 57.312 311.188 C56.591 310.926 55.87 310.665 55.127 310.396 C46.69 307.276 46.69 307.276 44 305 C43.688 301.812 43.688 301.812 44 299 C44.883 298.527 45.766 298.054 46.676 297.566 C78.809 280.008 96.533 247.92 106.609 213.664 C107.804 209.458 108.924 205.237 110 201 C111.32 201 112.64 201 114 201 C113.174 232.233 92.093 267.747 70 289 C65.357 292.957 60.455 296.604 55.148 299.621 C54.439 300.076 53.73 300.531 53 301 C53 301.66 53 302.32 53 303 C54.599 303.637 56.205 304.259 57.812 304.875 C58.706 305.223 59.599 305.571 60.52 305.93 C79.539 311.778 102.109 311.038 121 305 C121.34 304.893 121.34 304.893 123.058 304.351 C143.748 297.622 162.242 285.903 178 271 C179.35 269.849 180.704 268.703 182.062 267.562 C207.826 244.884 221.172 212.636 229 180 C230.32 180 231.64 180 233 180 C233.333 186.109 232.142 191.32 230.5 197.188 C230.233 198.149 229.966 199.11 229.691 200.1 C225.913 213.261 220.984 225.904 214.28 237.855 C210.827 244.084 207.984 250.571 205.062 257.062 C200.702 266.653 196.175 275.457 190 284 C189.52 284.667 189.041 285.334 188.547 286.021 C185.407 290.379 182.221 294.701 179 299 C185.512 305.512 203.653 304.116 212.438 304.188 C261.2 304.004 306.241 286.671 340.812 252.195 C366.362 225.412 378.815 190.709 386 155 C387.32 154.67 388.64 154.34 390 154 C390.186 158.959 390.243 163.607 389 168.438 C385.017 185.003 391.841 201.298 399 216 C399.473 216.976 399.946 217.952 400.434 218.957 C413.936 245.082 437.586 270.26 463 285 C462.795 284.408 462.59 283.817 462.379 283.207 C462.109 282.417 461.84 281.627 461.562 280.812 C461.296 280.035 461.029 279.258 460.754 278.457 C459.221 273.46 458.946 269.174 459.184 263.941 C459.225 262.572 459.265 261.203 459.303 259.834 C459.364 257.695 459.438 255.56 459.549 253.423 C460.14 241.566 460.14 241.566 457.43 237.843 C455.361 236.266 453.34 235.127 451 234 C449.828 233.266 448.663 232.521 447.508 231.762 C446.391 231.077 445.275 230.393 444.125 229.688 C436.372 224.811 428.2 219.387 424 211 C423.132 206.505 423.587 202.894 425.5 198.75 C433.131 190.355 444.209 187.986 454.754 184.902 C455.908 184.563 457.061 184.224 458.25 183.875 C459.286 183.584 460.323 183.292 461.391 182.992 C464.204 181.923 465.193 181.365 467 179 C467.828 175.896 467.828 175.896 468.465 172.094 C468.584 171.414 468.704 170.734 468.827 170.033 C469.208 167.857 469.575 165.679 469.938 163.5 C474.39 136.898 474.39 136.898 482 131 C486.313 128.491 490.112 128.353 495 129 C507.266 134.076 515.139 148.82 521.242 160.047 C521.593 160.69 521.944 161.333 522.305 161.996 C523.26 163.776 524.187 165.571 525.113 167.367 C527 170 527 170 529.197 170.667 C532.418 171.05 535.491 171.042 538.734 170.957 C540.031 170.936 541.328 170.914 542.664 170.893 C544.703 170.856 546.74 170.813 548.778 170.753 C556.878 170.528 564.059 170.361 571 175 C574.26 178.34 575.27 181.07 575.562 185.625 C575.02 196.631 568.786 205.266 562.402 213.773 C562.003 214.315 561.603 214.856 561.191 215.413 C560.033 216.956 558.831 218.467 557.629 219.977 C555.508 223.913 555.887 225.715 557 230 C557.891 232.442 558.853 234.86 559.875 237.25 C569.845 261.348 569.845 261.348 565.875 272.062 C563.789 275.331 562.46 276.344 559 278 C545.167 279.233 531.626 272.676 519.634 266.504 C514.507 263.937 514.507 263.937 511.929 264.257 C508.81 265.458 506.996 268.021 504.875 270.5 C497.148 279.184 489.775 286.293 479 291 C477.663 291.659 476.328 292.324 475 293 C481.826 297.642 491.538 304 500 304 C500 300.7 500 297.4 500 294 C501.32 293.67 502.64 293.34 504 293 C519.043 360.795 517.275 426.328 491 491 C490.627 491.921 490.254 492.841 489.87 493.79 C487.942 498.539 485.987 503.276 484 508 C508.433 499.631 526.673 469.322 538 448 C538.337 447.369 538.675 446.739 539.022 446.089 C548.114 428.774 553.867 409.256 557 390 C557.116 389.309 557.231 388.618 557.351 387.906 C562.274 357.051 558.157 326.106 551 296 C552.65 296.33 554.3 296.66 556 297 C561.156 312.331 563.873 328.523 564.344 344.672 C564.37 345.409 564.396 346.147 564.422 346.907 C564.548 350.551 564.625 354.184 564.614 357.831 C564.777 367.559 564.777 367.559 568.175 371.562 C570.836 373.652 570.836 373.652 573.47 375.304 C579.815 379.557 583.22 386.317 584.766 393.617 C587.653 411.36 583.108 427.22 573 442 C564.548 452.455 552.946 457.882 539.973 460.645 C535.713 462.587 534.117 465.55 531.688 469.438 C530.721 470.906 529.751 472.372 528.777 473.836 C528.304 474.552 527.831 475.269 527.343 476.007 C516.184 492.565 497.079 513.613 477 519 C474.191 518.613 474.191 518.613 472 518 C473.451 512.632 476.075 508.158 478.855 503.391 C479.233 502.602 479.611 501.813 480 501 C479.67 500.34 479.34 499.68 479 499 C478.175 499.69 477.35 500.379 476.5 501.09 C449.08 523.576 416.237 532.492 382 539 C384.53 541.557 387.085 543.919 389.875 546.188 C401.522 556.387 406.649 571.922 408 587 C409.019 605.039 408.456 622.581 401.574 639.484 C400.823 642.773 401.563 643.961 403 647 C405.738 653.647 406.392 659.408 406.188 666.562 C406.174 667.476 406.16 668.389 406.146 669.33 C406.112 671.554 406.063 673.777 406 676 C423.696 676.418 441.171 671.137 454.688 659.438 C456.152 657.985 457.594 656.509 459 655 C459.519 654.484 460.039 653.969 460.574 653.438 C469.609 643.019 468.736 624.862 469 612 C470.32 612 471.64 612 473 612 C475.258 619.976 473.987 628.144 472.688 636.188 C472.629 636.561 472.629 636.561 472.331 638.454 C471.555 642.953 470.316 646.954 468.639 651.194 C466.244 657.961 467.789 665.315 470.691 671.652 C475.472 680.229 481.961 684.379 491 688 C491.66 688 492.32 688 493 688 C492.783 687.443 492.567 686.886 492.344 686.312 C489.649 678.928 488.715 673.305 491.938 666 C497.039 656.876 505.504 651.75 514.5 646.938 C533.582 636.647 547.998 622.982 555 602 C559.489 586.675 559.108 569.735 557 554 C558.32 554 559.64 554 561 554 C565.712 571.277 564.64 588.601 559.312 605.625 C555.923 617.49 557.508 628.733 563.32 639.43 C568.19 647.333 574.157 653.331 583.336 655.633 C587.929 656.266 592.504 656.182 597 655 C598.816 653.445 598.816 653.445 600 652 C599.59 651.408 599.18 650.817 598.758 650.207 C598.219 649.417 597.68 648.627 597.125 647.812 C596.591 647.035 596.058 646.258 595.508 645.457 C592.414 640.415 591.193 635.908 592 630 C594.985 618.456 603.063 610.679 611.638 602.956 C625.667 590.314 634.514 573.668 635.902 554.594 C635.918 554.166 635.918 554.166 636 552 C636.063 550.732 636.126 549.463 636.191 548.156 C637.037 523.579 629.788 498.473 613.227 479.855 C611 477 611 477 611 473 C617.933 474.681 621.655 480.773 625.238 486.488 C641.242 513.137 644.968 542.831 637.54 572.934 C636.746 575.973 635.888 578.988 635 582 C650.612 580.993 661.729 573.061 672.391 562.008 C686.153 546.144 691.286 525.679 690 505 C687.257 478.558 672.604 457.442 655.094 438.328 C651.534 434.37 648.282 430.189 645 426 C643.902 424.631 642.803 423.263 641.703 421.895 C629.381 406.454 619.022 390.589 613.25 371.5 C613.151 371.174 613.151 371.174 612.647 369.526 C609.494 358.478 608.706 347.343 608.656 335.906 C608.634 333.906 608.612 331.906 608.589 329.906 C608.551 326.437 608.526 322.969 608.5 319.5 C607.925 243.388 591.222 166.683 539.342 108.505 C538.11 107.123 536.89 105.73 535.672 104.336 C526.534 93.982 516.893 84.506 506 76 C505.04 75.223 504.079 74.445 503.09 73.645 C454.17 34.744 391.722 18.143 330 17 C329.269 16.98 328.538 16.959 327.785 16.938 C240.594 14.587 155.658 43.1 95 107 Z M662.312 74.562 C652.629 87.401 657.172 107.08 659.138 121.813 C662.605 148.18 663.23 173.446 659.437 199.862 C658.641 205.584 657.987 211.325 657.312 217.062 C657.059 219.178 656.805 221.294 656.551 223.41 C656.444 224.298 656.338 225.187 656.228 226.102 C656.153 226.728 656.077 227.355 656 228 C649.294 225.536 647.168 221.259 644 215 C637.258 199.443 634.991 182.62 632.785 165.945 C632.679 165.149 632.572 164.354 632.463 163.534 C631.931 159.546 631.414 155.557 630.926 151.563 C628.469 132.183 628.469 132.183 623.115 127.271 C619.859 125.315 616.639 125.349 613 126 C609.969 127.779 608.45 129.229 606.688 132.25 C604.067 142.732 608.751 152.003 612.973 161.461 C619.025 175.064 622.378 187.789 623.762 202.633 C623.825 203.309 623.888 203.985 623.953 204.681 C624.261 208.053 624.54 211.423 624.786 214.8 C626.12 231.362 631.311 242.733 641.438 255.688 C653.877 272.111 660.201 291.464 660.188 312 C660.188 313.01 660.189 314.02 660.189 315.061 C660.133 323.186 659.416 331 658 339 C656.35 339.33 654.7 339.66 653 340 C652.87 339.731 652.87 339.731 652.215 338.371 C650.764 335.539 649.166 332.812 647.562 330.062 C643.464 322.994 639.708 315.758 636.033 308.461 C632.191 300.97 628.339 293.69 620.75 289.5 C620.325 289.258 620.325 289.258 618.172 288.031 C616 287 616 287 614 287 C613.945 290.985 613.943 294.966 613.988 298.951 C614 300.963 613.971 302.976 613.941 304.988 C614.107 315.98 614.107 315.98 618.777 320.555 C620.177 321.712 621.584 322.862 623 324 C638.782 342.142 645.29 366.016 645.062 389.664 C645.061 390.031 645.061 390.031 645.054 391.887 C645.039 394.89 645.023 397.889 644.928 400.89 C644.618 411.688 646.118 418.161 653.438 426.288 C654.283 427.183 655.129 428.078 656 429 C657.077 430.264 658.15 431.531 659.215 432.805 C660.121 433.83 661.028 434.853 661.938 435.875 C672.492 448.042 680.843 460.562 688 475 C690.967 474.49 693.919 473.945 696.875 473.375 C697.296 473.305 697.296 473.305 699.426 472.949 C701.765 472.481 703.827 471.988 706 471 C707.457 468.34 707.457 468.34 708 465 C708.148 464.378 708.148 464.378 708.895 461.23 C709.042 460.574 709.19 459.917 709.343 459.241 C713.345 441.756 723.187 431.009 738 421 C740.2 419.653 742.408 418.32 744.625 417 C752.921 411.981 762.319 405.892 765 396 C765.692 391.556 765.769 388.292 763.438 384.375 C761 383 761 383 757.75 382.875 C748.632 385.61 738.982 394.572 734.457 402.809 C733.976 403.532 733.495 404.255 733 405 C731.68 405 730.36 405 729 405 C729.544 400.595 730.358 396.448 731.512 392.152 C733.838 383.323 735.641 374.102 734 365 C732.554 362.535 731.098 361.031 729 359 C725.563 358.188 725.563 358.188 722 359 C716.127 363.027 713.922 370.043 712.425 376.701 C711.32 382.681 710.719 388.754 710.126 394.802 C708.483 410.904 703.356 424.355 692.801 436.734 C690.251 439.943 688.66 443.265 687 447 C685.68 447 684.36 447 683 447 C679.894 412.474 679.53 379.002 697 348 C697.278 347.496 697.278 347.496 698.684 344.945 C710.775 324.475 731.004 315.505 752.688 308.5 C770.435 302.731 770.435 302.731 776.688 296.188 C778.416 291.991 778.815 288.472 778 284 C776.5 281.438 776.5 281.438 774 280 C767.205 279.31 763.578 280.856 757.938 284.5 C752.678 287.878 749.33 289.593 743 289 C740.939 270.219 750.719 252.45 758.617 236.038 C770.686 210.711 770.686 210.711 767 200 C765.179 197.18 763.993 195.497 761 194 C754.426 193.123 754.426 193.123 751.316 195.035 C740.047 206.48 739.387 228.677 737.5 243.75 C734.175 269.892 723.836 287.455 703.938 304.5 C699.282 308.513 695.407 312.889 692 318 C690.68 318 689.36 318 688 318 C688.891 296.61 693.455 277.731 703.925 258.953 C705.812 255.525 707.601 252.05 709.375 248.562 C709.709 247.924 710.042 247.286 710.386 246.629 C713.893 239.707 715.185 232.868 715.711 225.16 C715.823 223.669 715.935 222.177 716.047 220.686 C716.212 218.39 716.373 216.093 716.526 213.797 C717.529 199.072 720.003 185.053 725.438 171.25 C725.738 170.459 726.038 169.668 726.347 168.853 C727.686 165.334 729.067 161.832 730.457 158.332 C739.963 134.295 739.963 134.295 735.812 123.125 C733.812 119.676 732.489 117.939 729 116 C726.184 115.395 723.812 115.361 721 116 C715.18 120.009 713.762 126.189 712.434 132.827 C711.91 136.004 711.444 139.185 711 142.375 C710.83 143.55 710.66 144.724 710.484 145.935 C709.474 153.066 708.635 160.2 707.908 167.365 C705.825 187.748 701.383 206.528 694.938 225.938 C694.676 226.726 694.415 227.515 694.146 228.327 C693.386 230.605 692.615 232.879 691.84 235.152 C691.614 235.825 691.388 236.499 691.155 237.192 C689.483 242.02 687.355 246.465 685 251 C683.68 251 682.36 251 681 251 C679.37 241.751 678.465 232.582 677.94 223.219 C677.814 221.029 677.67 218.841 677.525 216.652 C676.155 194.404 679.004 172.758 682.124 150.779 C682.648 147.076 683.16 143.371 683.674 139.666 C684.431 134.215 685.193 128.764 685.963 123.315 C686.133 122.104 686.304 120.894 686.48 119.647 C686.836 117.147 687.198 114.648 687.565 112.15 C687.656 111.534 687.656 111.534 688.112 108.413 C688.275 107.316 688.437 106.218 688.605 105.087 C689.201 100.427 689.368 95.819 689.375 91.125 C689.387 90.689 689.387 90.689 689.449 88.484 C689.476 82.573 688.517 77.861 685 73 C681.806 70.186 678.678 69.083 674.438 68.562 C669.146 69.236 666.161 70.893 662.312 74.562 Z M482 138 C478.244 145.791 476.804 154.229 475.375 162.688 C474.603 167.129 473.818 171.567 473 176 C472.925 176.414 472.925 176.414 472.548 178.506 C471.498 183.536 471.498 183.536 469.291 185.593 C466.65 187.215 464.219 188.019 461.238 188.867 C460.679 189.032 460.679 189.032 457.846 189.863 C455.51 190.532 453.174 191.199 450.838 191.863 C433.311 197.02 433.311 197.02 429 204 C428.834 208.403 429.699 211.115 432.625 214.312 C438.457 219.652 445.353 223.763 452 228 C452.575 228.368 453.15 228.735 453.743 229.114 C456.164 230.659 458.59 232.197 461.023 233.723 C463 235 463 235 464 236 C464.063 238.09 464.059 240.183 464.027 242.273 C464.021 242.924 464.021 242.924 463.99 246.215 C463.966 248.279 463.938 250.343 463.904 252.408 C463.553 275.143 463.553 275.143 470 283 C472 285 472 285 474.938 285.562 C485.722 285.118 494.737 273.823 501.648 266.499 C503.339 264.625 504.857 262.641 506.375 260.625 C507.241 259.759 508.107 258.892 509 258 C515.19 258.134 520.121 260.674 525.625 263.312 C547.053 273.236 547.053 273.236 558 272 C560.156 270.44 560.887 269.507 561.469 266.898 C561.63 253.911 556.688 241.642 551.039 230.148 C549.709 226.117 549.818 224.092 551 220 C552.85 216.876 555.024 214.051 557.25 211.188 C571.236 192.476 571.236 192.476 570 183 C566.789 178.283 563.416 177.233 558 176 C554.271 175.916 554.271 175.916 550.309 176.121 C548.855 176.171 547.401 176.218 545.947 176.264 C543.685 176.344 541.427 176.438 539.167 176.569 C526.596 177.263 526.596 177.263 522.826 174.28 C521.237 171.925 520.119 169.608 519 167 C518.117 165.499 517.214 164.01 516.289 162.535 C515.853 161.802 515.417 161.07 514.967 160.315 C500.905 136.718 500.905 136.718 491.562 134 C486.865 134 485.37 134.705 482 138 Z M16.188 196.188 C2.51 210.856 0.33 227.035 0.823 246.181 C1 248 1 248 2 249 C7.833 248.896 12.062 247.602 16.869 244.268 C20.908 239.969 21.815 234.247 23.069 228.64 C23.903 224.915 24.85 221.219 25.785 217.52 C25.967 216.787 26.149 216.055 26.337 215.3 C28.562 206.498 31.806 198.115 35.295 189.745 C35.925 188.186 36.469 186.594 37 185 C29.018 185 21.841 190.864 16.188 196.188 Z M382 193 C381.794 193.533 381.589 194.065 381.377 194.614 C372.988 216.229 363.304 235.41 348 253 C347.17 253.976 346.34 254.952 345.484 255.957 C338.759 263.702 331.296 269.994 323 276 C322.412 276.431 321.825 276.861 321.219 277.305 C290.435 299.626 251.728 309.207 214.125 309.25 C213.736 309.251 213.736 309.251 211.77 309.255 C183.843 309.259 183.843 309.259 172 304 C171.563 300.111 171.684 298.446 173.984 295.203 C174.895 294.209 175.818 293.225 176.75 292.25 C181.513 286.971 185.595 281.441 189.5 275.5 C190.004 274.735 190.507 273.969 191.026 273.181 C192.364 271.129 193.684 269.066 195 267 C195.315 266.52 195.315 266.52 196.906 264.094 C197.087 263.748 197.087 263.748 198 262 C197.67 261.34 197.34 260.68 197 260 C196.455 260.617 195.909 261.235 195.348 261.871 C192.918 264.599 190.463 267.302 188 270 C187.35 270.73 186.701 271.459 186.031 272.211 C164.743 294.935 129.102 314.077 97.543 315.114 C96.954 315.111 96.954 315.111 93.973 315.098 C92.687 315.094 91.401 315.091 90.076 315.088 C88.738 315.08 87.4 315.071 86.062 315.062 C84.697 315.057 83.332 315.053 81.967 315.049 C78.644 315.037 75.322 315.021 72 315 C62.277 343.196 64.099 382.149 70 411 C70.177 411.885 70.354 412.771 70.536 413.683 C77.414 447.139 91.616 478.676 120.877 498.424 C193.921 545.994 316.987 546.974 399.676 529.652 C425.322 523.941 450.682 515.226 471 498 C471.878 497.272 472.756 496.543 473.66 495.793 C483.96 486.923 490.393 477.807 495 465 C495.25 464.308 495.5 463.616 495.757 462.903 C499.104 453.429 501.647 443.822 503.75 434 C503.949 433.089 504.147 432.178 504.352 431.239 C507.786 414.364 508.372 397.419 508.312 380.25 C508.312 379.231 508.311 378.211 508.31 377.161 C508.277 359.624 507.4 342.385 505 325 C504.931 324.438 504.931 324.438 504.58 321.594 C504.505 321.053 504.505 321.053 504.125 318.312 C503.996 317.346 503.867 316.379 503.734 315.383 C503 313 503 313 501.27 311.561 C498.902 310.47 496.493 309.764 494 309 C491.461 307.967 488.947 306.912 486.438 305.812 C485.752 305.513 485.066 305.214 484.359 304.906 C453.92 291.406 426.499 267.876 407 241 C406.572 240.417 406.145 239.833 405.704 239.232 C395.49 225.145 388.36 209.512 383 193 C382.67 193 382.34 193 382 193 Z M-122 290.062 C-125.525 295.24 -127.016 299.711 -126 306 C-124.484 310.008 -122.639 313.825 -120.728 317.659 C-119.188 320.756 -117.702 323.878 -116.223 327.004 C-115.934 327.613 -115.646 328.221 -115.349 328.849 C-112.142 335.703 -109.796 342.653 -108 350 C-107.804 350.78 -107.608 351.56 -107.406 352.363 C-105.709 363.379 -105.671 375.437 -111.938 384.938 C-115.311 388.311 -117.056 388.909 -121.875 389.375 C-126.3 389.21 -128.732 388.119 -132 385 C-136.306 378.385 -136.701 370.617 -137.229 362.953 C-137.721 356.515 -138.75 350.581 -143.125 345.562 C-147.795 343.024 -152.178 342.441 -157.406 343.477 C-162.752 345.098 -167.206 347.013 -170.188 351.977 C-173.067 357.796 -174.145 362.644 -172.457 369.066 C-168.418 380.827 -158.926 388.915 -149.281 396.25 C-137.52 405.272 -127.996 416.054 -125 431 C-123.84 431.026 -122.68 431.052 -121.484 431.078 C-110.054 431.445 -98.045 431.868 -89.336 440.301 C-85.3 445.434 -84.677 450.596 -85 457 C-85.548 459.988 -86.281 462.924 -87 465.875 C-88.471 472.382 -89.408 478.634 -89.438 485.312 C-89.447 485.999 -89.457 486.685 -89.467 487.392 C-89.374 492.92 -87.928 497.072 -84 501 C-79.509 501 -77.568 500.529 -74.25 497.438 C-63.29 482.274 -66.482 460.742 -69.066 443.465 C-69.873 438.474 -70.961 433.59 -72.188 428.688 C-74.358 419.952 -75.436 413.352 -71.324 405.07 C-65.528 396.008 -54.527 392.178 -44.559 389.703 C-40.018 388.803 -35.687 389.089 -31.088 389.339 C-18.215 390.01 -18.215 390.01 -14.184 386.66 C-12.404 383.503 -11.198 380.416 -10 377 C-8.989 375.424 -7.929 373.878 -6.812 372.375 C-2.137 365.444 1.089 358.444 0 350 C-1.768 344.839 -4.127 340.707 -9 338 C-13.377 336.833 -16.885 336.678 -21.25 337.938 C-28.009 343.007 -29.984 350.339 -32.125 358.188 C-33.76 363.985 -36.109 368.367 -40.75 372.375 C-45.044 374.522 -47.237 374.615 -52 374 C-56.213 371.228 -56.881 367.756 -58 363 C-58.635 344.36 -51.096 327.596 -44.082 310.738 C-41.591 304.432 -39.549 298.621 -41.652 291.922 C-45.023 284.343 -50.923 279.906 -58.477 276.812 C-78.164 270.474 -107.641 273.831 -122 290.062 Z M615 325 C614.013 355.735 619.253 383.289 639 408 C639.33 408 639.66 408 640 408 C640.474 377.504 638.759 349.444 617 326 C616.34 325.67 615.68 325.34 615 325 Z M565 377 C564.85 377.834 564.699 378.669 564.544 379.528 C560.588 401.271 556.098 421.858 546.983 442.114 C546.611 442.941 546.239 443.769 545.855 444.621 C545.689 444.984 545.689 444.984 544.844 446.822 C543.925 449.194 543.432 451.497 543 454 C557.161 449.5 567.276 442.504 574.312 429.125 C579.919 417.011 582.663 404.063 578.375 391 C576.044 385.473 573.107 380.293 567.396 377.916 C566.605 377.614 565.815 377.312 565 377 Z M-65.625 406.688 C-69.023 410.959 -69.286 414.612 -69 420 C-68.348 423.535 -67.487 427.011 -66.625 430.5 C-61.507 452.267 -57.194 478.47 -68.691 499.043 C-71.875 503.803 -75.621 505.67 -81.078 506.809 C-83.974 507.097 -85.557 506.561 -88 505 C-93.701 499.136 -94.363 492.858 -94.312 485.062 C-94.311 484.227 -94.31 483.392 -94.309 482.531 C-94.208 475.9 -93.137 469.913 -91.691 463.441 C-90.519 457.605 -89.329 451.324 -92.102 445.809 C-96.477 440.205 -102.111 438.129 -109 437 C-128.02 435.677 -145.672 440.263 -160.625 452.5 C-165.838 457.554 -169.235 462.065 -169.625 469.5 C-169.017 480.303 -160.616 487.143 -153 494 C-151.139 495.539 -149.265 497.06 -147.375 498.562 C-133.466 509.765 -124.514 524.11 -119 541 C-118.755 541.703 -118.51 542.405 -118.258 543.129 C-116.387 549.268 -116.826 555.648 -117 562 C-122.289 562.317 -125.561 561.959 -130 559 C-135.353 554.167 -138.788 548.256 -142.072 541.925 C-144.866 536.693 -148.452 533.188 -154 531 C-158.71 530.263 -162.17 530.578 -166.438 532.75 C-170.279 536.123 -170.864 537.642 -171.375 542.75 C-171.173 548.482 -169.122 552.748 -165.198 556.912 C-159.334 562.264 -153.184 565.921 -146.125 569.5 C-127.893 578.814 -113.648 589.571 -107.135 609.668 C-106.402 612.107 -105.688 614.548 -105 617 C-104.071 617.015 -103.141 617.029 -102.184 617.044 C-82.941 617.38 -64.068 618.155 -45 621 C-42.583 615.229 -41.505 610.273 -41.062 604.062 C-38.557 576.122 -27.953 552.35 -7.75 532.812 C0.914 524.361 8.945 512.544 9.312 500.125 C9.256 495.316 8.295 492.652 5 489 C2.029 486.591 0.325 486.035 -3.5 485.625 C-7.271 486.029 -9.092 486.591 -12 489 C-13.822 492.793 -14.56 496.565 -15.312 500.688 C-17.236 509.825 -19.984 516.961 -27.254 523.039 C-29 524 -29 524 -33 524 C-34.155 518.983 -33.763 514.63 -32.875 509.625 C-32.806 509.23 -32.806 509.23 -32.458 507.23 C-30.985 499.24 -28.718 491.646 -26 484 C-25.753 483.289 -25.505 482.578 -25.25 481.845 C-19.714 466.102 -11.645 452.147 -2.824 438.047 C2.312 429.468 7.232 421.244 6 411 C2.471 403.802 -3.24 399.441 -10.625 396.688 C-28.025 390.779 -52.712 392.179 -65.625 406.688 Z M40 431 C26.827 459.547 18.491 489.706 29.535 520.438 C35.311 534.484 44.716 544.559 56.188 554.125 C66.825 563.002 74.972 572.764 76.273 586.988 C76.607 597.918 74.397 608.343 68.828 617.848 C67 621 67 621 67 623 C76.332 625.766 86.496 624.582 95 620 C105.669 612.685 111.087 602.22 113.422 589.746 C114.615 576.189 104.11 560.927 98.177 549.375 C90.479 534.332 90.479 534.332 91 526 C92.884 526.201 92.884 526.201 95 527 C96.046 529.062 96.046 529.062 96.859 531.777 C99.047 538.387 102.065 544.383 105.25 550.562 C109.188 558.291 112.978 566.019 116.375 574 C118.808 579.666 121.49 584.574 125.211 589.527 C136.24 604.771 143.116 621.607 140.504 640.609 C138.399 651.502 135.449 659.751 126.574 666.723 C126.055 667.144 125.535 667.566 125 668 C125 668.33 125 668.66 125 669 C136.284 671.793 150.112 671.324 160.352 665.711 C166.598 661.805 173.067 656.947 176 650 C176.148 647.92 176.148 647.92 176.02 645.684 C175.987 644.847 175.954 644.01 175.92 643.147 C175.902 642.7 175.902 642.7 175.812 640.438 C175.23 608.253 195.215 574.07 216.684 551.133 C219.092 548.721 221.535 546.354 224 544 C225.67 542.337 227.338 540.671 229 539 C227.821 538.781 226.641 538.562 225.426 538.336 C220.72 537.456 216.02 536.552 211.32 535.642 C209.074 535.207 206.826 534.777 204.578 534.351 C180.492 529.754 157.054 523.945 135 513 C134.423 512.718 134.423 512.718 131.504 511.293 C117.402 504.064 104.289 494.637 94.66 481.906 C91.524 478.48 88.683 477.078 84.5 475.25 C65.375 466.214 54.106 451.911 43.117 434.262 C42.768 433.724 42.768 433.724 41 431 C40.67 431 40.34 431 40 431 Z M214.545 561.768 C195.35 586.082 177.939 617.131 181 649 C184.266 662.488 193.896 671.21 204 680 C204.727 680.652 205.454 681.305 206.203 681.977 C208.111 683.682 210.043 685.351 212 687 C212.645 687.547 213.289 688.093 213.953 688.656 C219.975 693.492 225.941 696.482 233.812 695.875 C237.228 695.327 239.586 694.615 242 692 C242.33 691.01 242.66 690.02 243 689 C243.443 689.052 243.443 689.052 245.688 689.312 C249 689 249 689 251.812 686.812 C254.046 683.941 255 682.612 255 679 C254.049 677.305 253.049 675.636 252 674 C252 672.68 252 671.36 252 670 C252.825 669.567 253.65 669.134 254.5 668.688 C257 667 257 667 257.688 663.875 C256.409 656.666 252.48 651.772 246.625 647.5 C241.51 644.162 236.166 641.192 230.797 638.283 C227.468 636.466 224.361 634.582 221.32 632.309 C218.62 630.328 216.413 629.255 213.062 628.688 C212.29 628.547 211.518 628.406 210.723 628.262 C210.438 628.219 210.438 628.219 209 628 C209 626.68 209 625.36 209 624 C211.31 624 213.62 624 216 624 C215.983 623.395 215.983 623.395 215.895 620.336 C215.532 602.592 219.009 585.982 227 570 C228.32 570 229.64 570 231 570 C230.4 573.683 229.741 577.343 229 581 C229.525 580.783 230.049 580.567 230.59 580.344 C241.299 576.495 253.989 576.175 264.512 580.742 C264.922 580.95 264.922 580.95 267 582 C267.873 582.436 268.745 582.871 269.645 583.32 C275.646 586.614 279.848 590.583 284 596 C284.928 595.154 285.856 594.309 286.812 593.438 C300.508 581.758 314.154 576.971 332 578 C338.725 579.238 344.838 582.118 351 585 C351 580.71 351 576.42 351 572 C352.32 572 353.64 572 355 572 C359.026 587.348 357.172 602.697 354 618 C353.657 619.998 353.32 621.998 353 624 C352.221 624.226 351.443 624.451 350.641 624.684 C338.85 628.947 327.077 635.083 318.16 643.953 C313.247 648.608 307.139 651.787 301.285 655.117 C282.404 665.948 282.404 665.948 278.938 676.062 C278.596 677.368 278.272 678.678 278 680 C281 680 281 680 283.375 678.938 C286.395 677.859 287.962 678.132 291 679 C291.33 679.99 291.66 680.98 292 682 C291.113 682.227 290.226 682.454 289.312 682.688 C285.493 684.201 283.531 685.779 281 689 C281 691.188 281 691.188 282 693 C285.421 695.281 286.682 695.219 290.688 695.125 C291.681 695.107 292.675 695.089 293.699 695.07 C294.458 695.047 295.218 695.024 296 695 C296.33 696.32 296.66 697.64 297 699 C296.01 699.66 295.02 700.32 294 701 C294.942 703.57 295.69 704.796 298 706.312 C305.368 708.001 311.639 706.29 317.969 702.379 C322.484 699.314 325.62 696.883 327.938 691.938 C329.729 688.865 330.768 688.088 334.156 686.809 C336.753 686.168 339.344 685.559 341.953 684.977 C357.575 681.433 370.75 672.06 382 661 C382.722 660.291 383.444 659.582 384.188 658.852 C398.805 643.514 403.423 620.222 403.312 599.688 C403.308 598.597 403.303 597.507 403.298 596.384 C403.061 580.02 400.126 564.328 388.402 552.195 C380.721 545.176 373.598 541.626 363.062 541.812 C362.404 541.813 361.746 541.814 361.068 541.814 C356.541 541.852 352.063 542.146 347.551 542.5 C336.089 543.291 324.609 543.195 313.125 543.188 C311.933 543.188 310.741 543.189 309.512 543.19 C292.476 543.189 275.574 542.751 258.59 541.438 C254.052 541.11 249.526 540.864 244.977 540.766 C243.96 540.743 242.944 540.72 241.897 540.696 C230.84 541.855 221.283 553.578 214.545 561.768 Z M226.938 589.188 C221.874 596.538 220.821 605.265 220.812 614 C220.8 614.699 220.788 615.397 220.775 616.117 C220.764 620.176 220.944 623.456 223 627 C224.988 628.512 224.988 628.512 227.312 629.688 C227.716 629.893 227.716 629.893 229.758 630.934 C240.317 635.955 251.18 636.37 262.359 632.984 C268.464 630.709 274.225 627.467 279 623 C279 622.34 279 621.68 279 621 C277.35 620.34 275.7 619.68 274 619 C274 617.68 274 616.36 274 615 C280.27 614.67 286.54 614.34 293 614 C292.67 615.65 292.34 617.3 292 619 C289.438 620.312 289.438 620.312 287 621 C288.132 625.813 290.854 627.939 294.746 630.641 C302.464 635.295 311.126 636.601 320 635 C324.759 633.023 328.912 630.045 333.151 627.158 C334.969 626.019 336.761 625.146 338.73 624.301 C347.179 620.578 347.179 620.578 349.473 616.168 C351.52 608.292 351.327 600.084 351 592 C348.752 590.849 346.502 589.704 344.25 588.562 C343.616 588.237 342.982 587.912 342.328 587.576 C332.983 582.855 321.899 582.576 311.688 584.684 C300.864 588.389 292.039 595.076 286.25 605 C285.837 605.66 285.425 606.32 285 607 C284.01 607 283.02 607 282 607 C281.918 606.299 281.835 605.597 281.75 604.875 C279.758 597.24 273.482 591.806 266.984 587.738 C254.289 581.015 238.949 580.608 226.938 589.188 Z M119 593 C118.518 594.249 118.04 595.499 117.562 596.75 C117.296 597.446 117.029 598.142 116.754 598.859 C116.039 600.891 115.486 602.904 115 605 C124.41 609.592 124.41 609.592 129 609 C127.532 602.803 123.889 597.931 120 593 C119.67 593 119.34 593 119 593 Z M277.5 631.25 C268.145 637.865 259.316 639.761 248 641 C248.749 641.742 249.498 642.485 250.27 643.25 C261.927 654.991 261.927 654.991 262.062 662.438 C263.334 667.268 265.747 668.398 269.871 670.934 C272 672 272 672 274 672 C275.227 670.496 275.227 670.496 276.625 668.438 C283.155 659.581 291.558 654.69 300.977 649.332 C304.427 647.357 307.759 645.306 311 643 C311 642.67 311 642.34 311 642 C310.517 641.896 310.517 641.896 308.07 641.371 C298.644 639.197 289.651 636.477 284 628 C281.081 628 279.814 629.507 277.5 631.25 Z M397 650 C396.075 651.214 395.21 652.473 394.375 653.75 C393.908 654.446 393.442 655.142 392.961 655.859 C392 658 392 658 392.23 660.113 C393.327 662.801 395.186 664.746 397 667 C398.25 669.812 398.25 669.812 399 672 C399.66 672 400.32 672 401 672 C401.082 669.458 401.141 666.918 401.188 664.375 C401.213 663.662 401.238 662.949 401.264 662.215 C401.33 657.377 400.556 654.253 398 650 C397.67 650 397.34 650 397 650 Z M381.688 669 C370.449 679.244 354.724 688.221 339.625 691.188 C334.053 692.614 331.077 696.952 327.477 701.152 C321.773 707.697 314.954 711.488 306.23 712.238 C299.564 712.401 295.269 712.26 290 708 C289.567 707.031 289.134 706.061 288.688 705.062 C286.688 701.434 285.723 701.295 282 699.812 C277.345 697.714 277.345 697.714 275.82 694.559 C275.352 692.669 274.934 690.766 274.562 688.855 C273.468 683.297 271.52 678.52 267.5 674.5 C265.252 673.151 263.576 672.382 261 672 C260.058 674.826 260.027 676.828 260.125 679.875 C260.163 683.952 259.279 686.543 257 690 C253.558 693.039 250.049 695.165 245.938 697.188 C245.426 697.442 245.426 697.442 242.84 698.73 C235.875 701.844 229.112 702.039 221.938 699.375 C217.062 697.24 213.079 694.383 209 691 C208.01 690.216 207.02 689.433 206 688.625 C205.34 688.089 204.68 687.553 204 687 C203.01 688.98 202.02 690.96 201 693 C212.791 706.03 229.591 712.896 245.539 719.548 C251.175 721.947 256.198 724.987 261.328 728.301 C261.769 728.581 261.769 728.581 264 730 C264.317 730.203 264.317 730.203 265.922 731.23 C271.551 733.315 276.486 731.678 281.766 729.434 C288.929 726.56 296.196 724.497 303.672 722.598 C304.24 722.453 304.24 722.453 307.118 721.722 C311.842 720.531 316.571 719.356 321.299 718.18 C347.15 711.726 371.069 704.494 393 689 C393.99 688.34 394.98 687.68 396 687 C394.684 670.849 394.684 670.849 388 665 C384.925 665 383.861 666.894 381.688 669 Z M656.316 648.68 C649.529 655.816 644.077 663.596 639 672 C638.582 672.69 638.164 673.381 637.734 674.092 C625.6 694.579 618.951 717.471 616 741 C615.899 741.768 615.798 742.536 615.694 743.328 C614.874 750.339 614.814 757.342 614.815 764.395 C614.813 766.431 614.794 768.466 614.775 770.502 C614.765 777.414 615.058 783.896 616.569 790.653 C617.027 793.149 617.071 795.468 617 798 C615.68 798.33 614.36 798.66 613 799 C612.67 797.845 612.34 796.69 612 795.5 C608.1 783.91 602.342 772.97 594 764 C593.481 763.434 592.961 762.869 592.426 762.286 C568.736 736.726 536.676 723.237 502 721 C497.124 720.819 492.254 720.762 487.375 720.75 C486.714 720.748 486.054 720.747 485.373 720.745 C460.888 720.741 460.888 720.741 453 726 C453.641 726.655 454.281 727.31 454.941 727.984 C464.584 738.159 470.004 748.676 474.811 761.786 C480.133 776.041 487.158 789.347 497 801 C497.419 801.501 497.837 802.002 498.269 802.518 C516.319 823.899 540.542 834.833 568 838 C577.944 838.742 589.057 838.688 597 832 C597.33 831.34 597.66 830.68 598 830 C599.32 830 600.64 830 602 830 C601.565 834.779 599.335 837.359 596.125 840.688 C595.631 841.209 595.137 841.731 594.628 842.269 C574.085 863.718 549.251 876.746 520 882 C518.983 882.184 517.966 882.369 516.918 882.559 C485.791 886.065 454.761 880.336 429.625 861.062 C418.337 851.551 409.705 839.598 407.682 824.653 C407.521 822.176 407.483 819.732 407.5 817.25 C407.5 816.771 407.5 816.771 407.502 814.348 C407.689 804.561 409.115 794.984 410.5 785.312 C414.91 754.382 416.151 720.453 401 692 C396.826 693.471 393.522 695.571 389.875 698.062 C378.505 705.543 366.234 711.133 353.324 715.398 C352.426 715.696 351.527 715.994 350.601 716.301 C339.196 720.006 327.567 722.845 315.933 725.729 C313.013 726.457 310.096 727.193 307.18 727.938 C306.237 728.178 305.293 728.419 304.322 728.667 C297.168 730.553 290.285 732.934 283.47 735.816 C277.188 738.349 270.792 739.157 264.223 737.152 C260.062 734.813 256.031 732.37 252.059 729.723 C245.663 725.636 238.926 722.574 232 719.5 C221.592 714.881 211.568 710.118 202.938 702.562 C200 700 200 700 198 700 C190.163 720.742 184.835 741.755 184 764 C183.959 765.069 183.918 766.137 183.875 767.238 C183.036 811.878 199.723 851.791 230.549 883.834 C279.752 933.851 354.909 953.485 423.115 954.354 C484.066 954.802 544.688 940.166 591 899 C591.352 898.691 591.352 898.691 593.133 897.125 C608.103 883.094 620.866 863.374 626.146 843.541 C627.115 839.967 628.086 837.214 630 834 C634.535 831.722 638.844 831.127 643.821 830.419 C647.519 829.707 650.836 828.241 654.25 826.688 C654.584 826.536 654.584 826.536 656.272 825.768 C685.007 812.362 710.281 788.94 721.312 758.75 C731.939 727.517 726.602 696.569 718.137 665.651 C717.939 664.928 717.742 664.205 717.538 663.46 C717.165 662.099 716.789 660.738 716.409 659.378 C712.588 645.492 713.006 631.776 717 618 C717.213 617.223 717.425 616.445 717.645 615.645 C718.076 614.09 718.533 612.544 719 611 C695.524 611 671.745 633.273 656.316 648.68 Z " fill="#000000" transform="translate(213,13)"/>
<path d="M0 0 C11.584 13.101 14.733 28.608 14.136 45.591 C13.243 59.337 6.558 71.103 -3.382 80.348 C-12.483 87.881 -23.804 91.083 -35.438 90.562 C-49.403 89.135 -59.942 82.884 -68.992 72.32 C-78.936 59.282 -80.413 43.642 -78.5 27.75 C-78.335 26.739 -78.17 25.729 -78 24.688 C-78.699 24.289 -79.397 23.891 -80.117 23.48 C-81.027 22.951 -81.937 22.421 -82.875 21.875 C-83.78 21.353 -84.685 20.831 -85.617 20.293 C-88 18.688 -88 18.688 -90 15.688 C-90.125 13 -90.125 13 -90 10.688 C-88.68 10.358 -87.36 10.027 -86 9.688 C-85.484 10.451 -84.969 11.214 -84.438 12 C-81.442 15.303 -79.143 16.174 -75 17.688 C-74.723 16.951 -74.446 16.215 -74.16 15.457 C-69.173 3.551 -59.777 -4.476 -48 -9.312 C-31.613 -15.062 -12.932 -11.994 0 0 Z M-21 14.688 C-24.082 19.003 -24.444 22.478 -23.629 27.566 C-22.578 31.109 -21.022 32.63 -18 34.688 C-14.138 35.936 -11.001 36.11 -7.188 34.5 C-3.698 31.609 -2.279 29.764 -1.125 25.312 C-0.978 21.059 -1.653 19.208 -4 15.688 C-6.874 12.654 -8.326 11.772 -12.5 11.25 C-16.281 11.723 -18.085 12.258 -21 14.688 Z " fill="#000000" transform="translate(411,363.3125)"/>
<path d="M0 0 C5.895 4.709 11.048 9.545 15 16 C15 16.66 15 17.32 15 18 C15.675 17.723 16.351 17.446 17.047 17.16 C17.939 16.798 18.831 16.436 19.75 16.062 C20.632 15.703 21.513 15.343 22.422 14.973 C24.612 14.146 26.719 13.506 29 13 C29.33 13.66 29.33 13.66 31 17 C28.56 19.847 26.179 21.527 22.844 23.141 C22.124 23.492 21.404 23.843 20.662 24.204 C20.114 24.467 19.565 24.729 19 25 C19.228 26.137 19.456 27.274 19.691 28.445 C22.77 44.605 23.211 59.944 13.812 74.25 C6.72 83.651 -2.781 91.26 -14.555 93.715 C-29.644 95.474 -42.473 93.063 -55 84 C-64.793 75.901 -71.077 64.563 -73 52 C-73.872 35.609 -71.312 20.579 -60.895 7.32 C-44.856 -9.541 -19.581 -13.878 0 0 Z M-16 19 C-18.38 22.029 -18.36 25.248 -18.254 29.039 C-17.756 32.887 -15.887 35.172 -13.125 37.75 C-10.565 39.256 -8.985 39.861 -6 40 C-2.523 38.861 0.144 37.771 2.875 35.312 C4.508 31.956 5.128 28.701 5 25 C3.599 21.288 2.038 18.545 -1 16 C-7.005 14.09 -11.234 14.699 -16 19 Z " fill="#000000" transform="translate(651,363)"/>
<path d="M0 0 C1.875 0 1.875 0 4 1 C4.696 2.69 5.388 4.383 6.043 6.09 C8.518 11.031 13.217 13.945 18.25 15.875 C26.314 18.161 34.031 17.815 41.707 14.41 C45.653 11.984 48.199 8.619 51 5 C51.984 3.984 52.979 2.978 54 2 C55.32 2.66 56.64 3.32 58 4 C56.393 11.981 52.724 16.494 46 21 C36.56 26.009 26.98 26.418 16.812 23.438 C9.497 20.705 3.238 16.839 -0.625 9.875 C-2.024 6.615 -2.34 4.402 -1 1 C-0.67 0.67 -0.34 0.34 0 0 Z " fill="#000000" transform="translate(472,456)"/>
<path d="M0 0 C2.062 0.438 2.062 0.438 4 1 C3.475 5.131 2.354 7.081 -0.438 10.125 C-19.698 33.458 -25.298 65.484 -30.82 94.367 C-30.896 94.763 -30.896 94.763 -31.28 96.766 C-32.013 100.613 -32.733 104.462 -33.428 108.316 C-34.772 115.647 -36.357 122.854 -38.461 130.008 C-38.653 130.697 -38.845 131.385 -39.042 132.095 C-39.634 134.004 -39.634 134.004 -41 137 C-43.159 137.937 -43.159 137.937 -45 138 C-46.159 133.85 -45.757 131.431 -44.398 127.379 C-42.292 120.435 -40.799 113.461 -39.414 106.34 C-39.188 105.181 -38.961 104.023 -38.728 102.829 C-37.788 97.993 -36.857 93.154 -35.933 88.314 C-30.093 57.857 -22.948 22.948 0 0 Z " fill="#000000" transform="translate(890,686)"/>
<path d="M0 0 C3.366 2.599 4.77 5.25 5.766 9.363 C6.946 20.553 4.873 31.414 2.766 42.363 C8.208 47.046 13.979 50.714 20.203 54.238 C37.711 64.238 37.711 64.238 40.766 72.363 C41.433 77.068 41.224 81.172 39.516 85.613 C27.721 97.408 8.446 97.439 -7.234 98.363 C-7.335 98.912 -7.435 99.46 -7.538 100.025 C-12.908 129.037 -12.908 129.037 -23.609 139.738 C-27.75 142.302 -31.48 143.662 -36.398 143.129 C-43.509 141.27 -48.133 136.405 -53.234 131.363 C-53.84 130.818 -54.446 130.273 -55.07 129.711 C-59.755 125.389 -63.272 120.307 -66.859 115.073 C-70.039 110.461 -70.039 110.461 -72.234 109.363 C-78.125 108.894 -83.799 109.386 -89.609 110.363 C-95.787 111.306 -101.862 111.651 -108.109 111.738 C-108.989 111.764 -109.869 111.79 -110.775 111.816 C-117.361 111.836 -122.949 110.557 -127.796 105.845 C-131.328 101.721 -132.624 99.042 -132.496 93.566 C-131.305 83.544 -122.285 76.538 -114.867 70.645 C-112.669 68.934 -110.449 67.254 -108.215 65.59 C-105.508 63.567 -102.861 61.489 -100.234 59.363 C-100.771 54.589 -103.02 51.137 -105.547 47.176 C-116.075 30.07 -116.075 30.07 -114.234 20.363 C-112.025 15.945 -109.784 13.328 -105.234 11.363 C-93.504 8.591 -81.514 12.589 -70.427 16.33 C-62.14 19.026 -55.101 19.399 -47.027 15.895 C-42.951 13.66 -39.297 10.928 -35.57 8.159 C-25.357 0.65 -12.356 -7.078 0 0 Z M-39.729 18.542 C-47.304 23.962 -52.758 26.435 -62.234 25.363 C-68.422 23.987 -74.441 22.068 -80.496 20.207 C-97.106 15.306 -97.106 15.306 -104.475 18.262 C-106.234 19.363 -106.234 19.363 -107.234 21.363 C-108.761 33.003 -101.403 42.26 -94.617 51.145 C-92.999 53.741 -92.299 55.289 -92.234 58.363 C-94.731 63.143 -98.223 66.39 -102.359 69.738 C-102.93 70.212 -103.5 70.685 -104.088 71.173 C-107.59 74.067 -111.156 76.876 -114.734 79.676 C-118.983 83.04 -122.775 86.444 -125.234 91.363 C-125.609 94.676 -125.609 94.676 -125.234 98.363 C-122.693 101.523 -121.088 103.079 -117.234 104.363 C-114.136 104.623 -111.03 104.601 -107.922 104.613 C-107.462 104.616 -107.462 104.616 -105.133 104.627 C-97.138 104.567 -89.391 103.625 -81.52 102.255 C-76.521 101.435 -72.934 101.006 -68.234 103.363 C-66.504 104.816 -66.504 104.816 -65.047 106.613 C-64.756 106.966 -64.756 106.966 -63.281 108.754 C-61.724 110.739 -60.172 112.729 -58.625 114.723 C-43.672 133.99 -43.672 133.99 -36.234 136.363 C-31.445 136.363 -28.187 135.364 -24.634 132.05 C-18.141 124.227 -16.778 114.451 -15.119 104.758 C-15.024 104.245 -15.024 104.245 -14.543 101.652 C-14.386 100.731 -14.23 99.811 -14.068 98.862 C-13.011 95.694 -11.912 94.362 -9.234 92.363 C-6.185 91.605 -6.185 91.605 -2.633 91.238 C-1.337 91.089 -0.042 90.939 1.293 90.785 C2.659 90.643 4.025 90.502 5.391 90.363 C26.436 88.189 26.436 88.189 33.453 81.988 C34.766 79.363 34.766 79.363 34.766 76.363 C32.817 70.518 29.067 67.623 23.898 64.551 C23.341 64.215 22.784 63.878 22.21 63.532 C20.442 62.467 18.667 61.414 16.891 60.363 C-1.083 49.667 -1.083 49.667 -3.234 45.363 C-3.504 40.012 -2.771 35.196 -1.734 29.988 C1.355 13.332 1.355 13.332 -3.234 6.363 C-14.893 -1.409 -30.301 11.788 -39.729 18.542 Z " fill="#000000" transform="translate(198.234375,690.63671875)"/>
<path d="M0 0 C25.674 0.267 49.89 15.3 68.226 32.097 C69.354 33.128 70.506 34.132 71.664 35.129 C74.702 37.886 77.147 40.995 79.484 44.355 C79.991 45.084 80.498 45.813 81.021 46.563 C83.25 49.816 85.444 53.09 87.625 56.375 C86.965 57.695 86.305 59.015 85.625 60.375 C81.773 58.878 80.227 56.754 77.938 53.375 C61.465 30.052 36.097 12.142 7.654 7.02 C3.656 6.369 -0.352 5.84 -4.375 5.375 C-4.938 3.438 -4.938 3.438 -5.375 1.375 C-3.782 -0.218 -2.219 0.089 0 0 Z " fill="#000000" transform="translate(728.375,770.625)"/>
<path d="M0 0 C2.398 0.961 3.725 1.495 4.984 3.805 C5.111 4.146 5.111 4.146 5.75 5.875 C7.668 10.012 9.745 11.637 13.918 13.379 C18.445 14.729 21.802 14.446 26.188 12.812 C30.837 9.816 33.295 5.734 36 1 C36.99 1.33 37.98 1.66 39 2 C39.532 7.216 38.957 10.332 35.742 14.355 C31.22 18.624 25.609 21.252 19.375 21.5 C13.452 21.113 8.274 19.538 4 15.312 C3.34 14.549 2.68 13.786 2 13 C-1.845 14.814 -5.201 17.14 -8.684 19.562 C-16.276 24.274 -24.573 24.791 -33.188 22.938 C-40.441 20.877 -47.182 16.681 -51 10 C-51.309 7.241 -51.189 4.792 -51 2 C-49.68 1.67 -48.36 1.34 -47 1 C-46.792 1.519 -46.585 2.039 -46.371 2.574 C-43.333 9.452 -39.588 12.605 -32.625 15.312 C-24.216 16.907 -16.316 16.493 -8.984 11.676 C-5.125 8.587 -2.934 5.619 -1 1 C-0.67 0.67 -0.34 0.34 0 0 Z " fill="#000000" transform="translate(566,773)"/>
<path d="M0 0 C8.585 4.15 11.871 13.814 14.828 22.234 C15.809 25.41 16.425 28.568 16.977 31.844 C19.481 46.162 19.481 46.162 23.48 49.434 C26.285 50.283 28.957 50.774 31.866 51.098 C36.242 51.743 40.46 53.115 44.699 54.352 C45.613 54.61 46.526 54.868 47.467 55.134 C56.277 57.667 67.053 60.944 72.145 69.266 C74.27 74.53 73.603 79.961 71.512 85.102 C62.882 97.737 46.236 103.732 32.574 109.32 C30.012 110.414 30.012 110.414 29.012 111.414 C29.077 113.583 29.216 115.751 29.387 117.914 C29.486 119.195 29.585 120.477 29.688 121.797 C29.928 124.477 30.216 127.124 30.574 129.789 C31.753 140.108 33.178 152.885 26.383 161.473 C22.257 165.615 18.512 167.5 12.648 167.68 C-3.084 166.095 -16.306 153.743 -27.895 143.961 C-28.75 143.244 -29.606 142.528 -30.488 141.789 C-31.22 141.157 -31.953 140.526 -32.707 139.875 C-35.663 137.982 -37.459 137.486 -40.988 137.414 C-43.945 138.312 -46.654 139.622 -49.426 140.977 C-51.032 141.723 -52.638 142.468 -54.246 143.211 C-55.044 143.584 -55.843 143.957 -56.665 144.342 C-70.128 150.555 -86.335 157.98 -101.301 153.289 C-105.974 151.312 -108.726 147.939 -110.988 143.414 C-112.525 127.79 -102.127 114.379 -94.329 101.681 C-90.967 95.996 -90.967 95.996 -91.078 92.969 C-92.266 89.635 -93.998 87.979 -96.551 85.539 C-97.456 84.665 -98.361 83.791 -99.293 82.891 C-101.54 80.826 -103.826 78.859 -106.176 76.914 C-112.368 71.628 -117.624 64.856 -118.301 56.602 C-118.211 52.16 -116.984 49.785 -113.988 46.414 C-106.347 40.187 -97.713 39.083 -88.113 39.254 C-87.304 39.259 -86.495 39.264 -85.661 39.27 C-83.103 39.287 -80.546 39.318 -77.988 39.352 C-75.431 39.379 -72.873 39.404 -70.316 39.423 C-68.734 39.435 -67.152 39.452 -65.571 39.476 C-51.471 39.602 -51.471 39.602 -47.195 36.176 C-46.467 35.264 -45.739 34.353 -44.988 33.414 C-44.27 32.575 -43.552 31.736 -42.812 30.871 C-42.107 29.998 -41.402 29.126 -40.676 28.227 C-39.895 27.265 -39.113 26.303 -38.309 25.312 C-36.853 23.494 -35.409 21.668 -33.98 19.828 C-15.07 -4.441 -15.07 -4.441 0 0 Z M-27.988 21.414 C-31.08 25.519 -34.11 29.669 -37.079 33.864 C-43.89 43.381 -43.89 43.381 -49.988 45.414 C-51.414 45.486 -52.842 45.501 -54.269 45.48 C-55.131 45.47 -55.993 45.46 -56.881 45.45 C-57.813 45.436 -58.744 45.421 -59.703 45.406 C-61.689 45.389 -63.676 45.372 -65.662 45.355 C-68.782 45.325 -71.902 45.289 -75.022 45.243 C-101.993 44.86 -101.993 44.86 -110.238 50.727 C-111.988 53.414 -111.988 53.414 -112.676 56.164 C-110.105 68.315 -96.551 78.505 -87.414 86.109 C-85.266 88.075 -84.992 89.392 -84.551 92.289 C-84.726 100.825 -91.236 108.894 -95.551 115.977 C-106.454 133.915 -106.454 133.915 -104.988 142.414 C-102.454 145.634 -100.875 147.118 -96.988 148.414 C-78.056 149.186 -59.749 139.487 -43.242 131.191 C-40.366 130.2 -38.011 130.193 -34.988 130.414 C-30.961 132.519 -27.945 135.344 -24.613 138.414 C0.595 161.414 0.595 161.414 14.012 161.414 C18.037 160.206 20.308 159.328 22.887 155.977 C27.075 146.436 25.14 135.304 23.728 125.272 C22.915 119.293 22.806 113.436 23.012 107.414 C36.191 100.738 36.191 100.738 42.699 97.852 C62.848 88.742 62.848 88.742 67.012 80.414 C67.369 76.631 67.417 74.187 65.637 70.789 C58.675 64.49 49.529 62.162 40.637 59.852 C36.421 58.733 32.212 57.59 28.012 56.414 C26.892 56.107 25.773 55.801 24.62 55.485 C23.54 55.164 22.46 54.843 21.348 54.512 C20.371 54.229 19.394 53.947 18.388 53.656 C16.012 52.414 16.012 52.414 14.748 50.102 C14.038 47.512 13.41 44.952 12.898 42.316 C12.705 41.355 12.512 40.394 12.312 39.404 C12.11 38.397 11.908 37.389 11.699 36.352 C6.605 12.029 6.605 12.029 -1.863 6.102 C-13.398 2.37 -21.57 13.33 -27.988 21.414 Z " fill="#000000" transform="translate(299.98828125,813.5859375)"/>
<path d="M0 0 C1.812 0.562 1.812 0.562 4 2 C4.474 3.114 4.949 4.227 5.438 5.375 C7.464 10.077 9.871 11.817 14.25 14.25 C21.649 16.268 27.133 15.087 33.824 11.445 C36.499 9.669 38.294 7.715 40 5 C41.32 5.33 42.64 5.66 44 6 C43.579 10.766 41.423 13.814 38 17 C30.807 22.085 23.641 22.957 15 22 C9.342 20.049 4.449 17.004 0 13 C-0.557 13.543 -1.114 14.085 -1.688 14.645 C-10.086 22.519 -15.878 24.633 -27.461 24.348 C-35.845 23.524 -43.428 20.498 -49 14 C-50.621 11.293 -51.061 10.446 -50.625 7.25 C-50.419 6.508 -50.212 5.765 -50 5 C-48.312 5.125 -48.312 5.125 -46 6 C-44.822 7.473 -43.645 8.948 -42.488 10.438 C-37.72 15.443 -30.547 17.122 -23.875 17.375 C-16.566 17.307 -10.725 14.725 -5.562 9.562 C-3.866 6.779 -2.404 3.941 -1 1 C-0.67 0.67 -0.34 0.34 0 0 Z " fill="#000000" transform="translate(537,826)"/>
<path d="M0 0 C4.922 3.147 7.563 8.731 10.375 13.688 C10.788 13.217 11.2 12.746 11.625 12.262 C15.718 7.849 19.357 4.817 25.375 3.688 C30.835 3.782 34.163 5.241 38.375 8.688 C41.302 12.395 41.701 15.015 41.375 19.688 C40.055 20.018 38.735 20.347 37.375 20.688 C37.242 20.405 37.242 20.405 36.57 18.973 C36.394 18.606 36.394 18.606 35.5 16.75 C35.152 16.019 34.804 15.288 34.445 14.535 C33.375 12.688 33.375 12.688 31.375 11.688 C24.762 10.903 24.762 10.903 21.504 12.746 C17.032 16.421 13.655 20.953 10.375 25.688 C8.527 25.578 8.527 25.578 6.375 24.688 C5.066 21.922 5.066 21.922 3.938 18.438 C1.829 12.504 0.176 8.588 -5.625 5.688 C-8.877 5.398 -11.222 5.547 -14.312 6.625 C-17.271 9.263 -17.913 11.676 -18.949 15.434 C-19.624 17.683 -20.519 19.621 -21.625 21.688 C-22.945 21.357 -24.265 21.028 -25.625 20.688 C-26.145 14.312 -25.743 9.75 -21.625 4.688 C-15.268 -1.72 -8.426 -3.051 0 0 Z " fill="#000000" transform="translate(913.625,888.3125)"/>
<path d="M0 0 C7.237 6.086 8.918 11.109 10.75 20.312 C11.864 19.797 12.977 19.281 14.125 18.75 C19.16 16.896 23.594 16.801 28.75 18.312 C33.622 21.123 36.926 24.954 38.75 30.312 C38.438 33.188 38.438 33.188 37.75 35.312 C36.43 35.643 35.11 35.972 33.75 36.312 C33.508 35.77 33.265 35.227 33.016 34.668 C29.55 27.27 29.55 27.27 25.75 25.312 C21.516 23.864 18.785 24.463 14.75 26.312 C12 28.812 12 28.812 9.75 31.312 C9.42 31.643 9.42 31.643 7.75 33.312 C5.125 32.938 5.125 32.938 2.75 32.312 C2.767 31.776 2.767 31.776 2.855 29.059 C2.884 27.622 2.911 26.186 2.938 24.75 C2.963 24.046 2.988 23.341 3.014 22.615 C3.1 16.376 1.814 11.752 -2.312 6.875 C-6.663 4.561 -10.429 4.463 -15.25 5.312 C-20.485 7.463 -23.798 10.154 -26.25 15.312 C-26.86 18.066 -27.164 20.82 -27.438 23.625 C-27.519 24.366 -27.601 25.106 -27.686 25.869 C-27.884 27.682 -28.069 29.497 -28.25 31.312 C-30.512 32.023 -30.512 32.023 -33.25 32.312 C-35.207 30.914 -35.207 30.914 -37.062 28.938 C-39.794 26.36 -41.688 24.782 -45.438 24.188 C-49.653 24.326 -51.126 24.526 -54.25 27.312 C-56.087 29.89 -57.708 32.55 -59.25 35.312 C-60.9 34.982 -62.55 34.653 -64.25 34.312 C-63.888 28.397 -62.358 24.644 -58.25 20.312 C-53.107 16.517 -47.405 16.601 -41.25 17.312 C-37.562 18.812 -37.562 18.812 -35.25 20.312 C-34.97 19.527 -34.691 18.742 -34.402 17.934 C-31.198 9.536 -27.886 4.094 -20.125 -0.562 C-13.218 -3.265 -6.68 -3.469 0 0 Z " fill="#000000" transform="translate(880.25,927.6875)"/>
</svg>
