<?xml version="1.0" encoding="UTF-8"?>
<!-- Generator: visioncortex VTracer 0.6.12 -->
<svg version="1.1" xmlns="http://www.w3.org/2000/svg" width="1024" height="1024">
<path d="M0 0 C1.04 0.001 2.08 0.001 3.151 0.002 C41.901 0.094 93.308 3.084 124.75 28.375 C125.224 28.879 125.699 29.383 126.188 29.902 C131.523 34.954 136.943 35.088 143.922 35.631 C172.363 37.954 196.767 50.617 219.91 66.551 C222.75 68.375 222.75 68.375 225.75 69.375 C226.447 70.693 227.111 72.028 227.75 73.375 C229.211 74.94 229.211 74.94 230.91 76.441 C231.534 77.003 232.159 77.565 232.802 78.144 C233.134 78.44 233.134 78.44 234.812 79.938 C241.088 85.676 246.636 91.559 251.75 98.375 C252.177 98.933 252.605 99.49 253.045 100.065 C259.98 109.122 266.117 118.461 271.75 128.375 C271.918 128.663 271.918 128.663 272.768 130.121 C292.637 164.299 299.656 203.852 304.349 242.564 C304.683 244.905 305.172 247.089 305.75 249.375 C305.844 251.118 305.933 252.861 305.99 254.605 C306.359 265.589 307.844 276.399 309.378 287.267 C309.554 288.517 309.729 289.767 309.91 291.055 C310.071 292.176 310.233 293.297 310.399 294.453 C310.75 297.375 310.75 297.375 310.75 301.375 C311.41 301.705 312.07 302.035 312.75 302.375 C313.016 304.28 313.271 306.188 313.468 308.102 C316.385 331.599 328.819 352.336 344.84 369.164 C348.378 372.97 351.531 377.064 354.688 381.188 C355.231 381.893 355.775 382.599 356.335 383.326 C358.772 386.542 361.031 389.739 363.004 393.262 C364.75 396.375 364.75 396.375 366.75 398.375 C367.801 400.803 368.771 403.209 369.688 405.688 C369.954 406.407 370.221 407.126 370.495 407.867 C374.44 418.783 376.286 429.888 377.75 441.375 C377.09 441.375 376.43 441.375 375.75 441.375 C375.796 441.911 375.843 442.447 375.891 443 C376.828 463.364 365.954 480.609 354.878 496.731 C348.167 506.512 344.754 514.665 346 526.707 C347.19 532.529 349.204 538.049 351.154 543.653 C357.238 561.252 358.072 580.312 350.187 597.538 C338.439 621.349 318.539 635.809 293.75 644.375 C293.09 644.375 292.43 644.375 291.75 644.375 C291.484 645.089 291.219 645.803 290.945 646.539 C287.32 655.141 282.07 661.706 274.75 667.375 C274.085 667.947 273.42 668.52 272.734 669.109 C262.877 677.36 251.12 682.243 238.75 685.375 C238.328 685.482 238.328 685.482 236.195 686.023 C231.832 686.961 227.638 687.411 223.18 687.434 C211.365 687.546 203.745 689.659 193.513 695.43 C182.739 701.208 169.813 701.747 157.882 703.05 C155.75 703.375 155.75 703.375 153.75 704.375 C153.75 706.025 153.75 707.675 153.75 709.375 C153.42 709.375 153.09 709.375 152.75 709.375 C152.556 711.666 152.37 713.958 152.188 716.25 C152.083 717.526 151.979 718.802 151.871 720.117 C151.75 723.375 151.75 723.375 152.75 725.375 C152.09 725.375 151.43 725.375 150.75 725.375 C150.765 726.018 150.765 726.018 150.84 729.273 C150.831 734.302 150.215 739.06 149.312 744 C149.147 744.916 148.982 745.831 148.811 746.775 C146.334 759.551 142.412 771.987 138.626 784.424 C135.56 794.751 136.515 802.431 140.75 812.375 C143.399 809.205 144.734 806.125 146.125 802.25 C148.724 795.277 151.613 788.58 155.75 782.375 C155.42 781.715 155.09 781.055 154.75 780.375 C155.355 780.117 155.959 779.859 156.582 779.594 C158.973 778.25 159.905 777.121 161.438 774.875 C182.321 746.023 214.686 731.806 248.855 725.832 C254.395 725.182 259.929 725.006 265.5 724.812 C266.058 724.791 266.058 724.791 268.883 724.682 C272.172 724.561 275.46 724.462 278.75 724.375 C279.809 724.343 280.868 724.311 281.959 724.278 C282.947 724.26 283.935 724.241 284.953 724.223 C285.831 724.203 286.709 724.184 287.614 724.164 C289.75 724.375 289.75 724.375 291.75 726.375 C292.245 726.602 292.245 726.602 294.75 727.75 C297.75 729.375 297.75 729.375 299.188 731.125 C300.078 734.687 299.745 736.806 298.75 740.375 C297.167 742.641 295.474 744.709 293.637 746.773 C288.335 754.084 286.546 762.554 284.487 771.218 C280.19 789.134 274.832 805.443 263.75 820.375 C263.272 821.097 262.794 821.819 262.301 822.562 C254.73 833.67 241.823 841.828 229.75 847.375 C234.076 850.8 238.811 853.906 243.75 856.375 C244.348 857.138 244.946 857.901 245.562 858.688 C247.75 861.375 247.75 861.375 250.148 863.27 C260.104 871.327 268.069 885.18 271.75 897.375 C271.75 898.365 271.75 899.355 271.75 900.375 C272.41 900.705 273.07 901.035 273.75 901.375 C274.462 904.002 275.069 906.589 275.625 909.25 C278.291 921.218 282.393 931.969 288.625 942.562 C290.12 946.3 289.82 948.523 288.75 952.375 C285.32 957.595 278.527 959.556 272.674 960.825 C268.93 961.544 265.175 962.168 261.41 962.762 C257.75 963.375 257.75 963.375 254.75 964.375 C253.211 964.467 251.667 964.505 250.125 964.5 C249.727 964.501 249.727 964.501 247.711 964.508 C245.75 964.375 245.75 964.375 244.75 963.375 C242.859 963.197 240.967 963.025 239.073 962.881 C225.036 961.772 210.794 958.779 197.75 953.375 C197.42 954.365 197.09 955.355 196.75 956.375 C195.76 955.715 194.77 955.055 193.75 954.375 C193.75 953.055 193.75 951.735 193.75 950.375 C193.224 950.281 192.698 950.187 192.156 950.09 C188.922 949.129 186.202 947.566 183.25 945.938 C173.7 940.692 173.7 940.692 169.75 939.375 C170.08 938.715 170.41 938.055 170.75 937.375 C170.277 936.986 169.804 936.596 169.316 936.195 C162.759 930.648 156.531 924.546 151.75 917.375 C149.125 916.188 149.125 916.188 146.75 915.375 C146.668 914.199 146.585 913.024 146.5 911.812 C145.952 907.22 144.241 904.233 141.75 900.375 C141.09 900.375 140.43 900.375 139.75 900.375 C138.688 898.688 138.688 898.688 137.75 896.375 C137.925 895.617 138.101 894.859 138.281 894.078 C138.841 890.849 138.286 888.923 137.312 885.812 C136.239 882.341 135.75 880.074 135.75 876.375 C132.385 875.253 131.774 875.469 128.578 876.629 C127.78 876.913 126.981 877.196 126.158 877.489 C125.363 877.781 124.569 878.074 123.75 878.375 C106.295 884.665 87.947 889.617 69.25 889.438 C68.023 889.428 66.796 889.419 65.531 889.41 C64.613 889.399 63.696 889.387 62.75 889.375 C62.75 890.035 62.75 890.695 62.75 891.375 C62.292 891.298 62.292 891.298 59.973 890.906 C54.734 890.159 49.47 890.057 44.188 889.875 C29.898 889.32 29.898 889.32 23.625 888.938 C22.612 888.877 21.599 888.816 20.555 888.754 C17.414 888.33 14.748 887.408 11.75 886.375 C8.388 885.469 5.007 884.642 1.625 883.812 C1.178 883.702 1.178 883.702 -1.082 883.143 C-2.739 882.733 -4.397 882.323 -6.055 881.916 C-7.515 881.556 -8.967 881.165 -10.41 880.742 C-12.25 880.375 -12.25 880.375 -14.25 881.375 C-14.25 880.385 -14.25 879.395 -14.25 878.375 C-14.867 878.204 -15.485 878.033 -16.121 877.857 C-36.194 872.1 -54.474 860.885 -69.988 847.02 C-72.459 845.223 -74.244 844.731 -77.25 844.375 C-77.345 843.785 -77.441 843.194 -77.539 842.586 C-78.409 839.881 -79.523 838.896 -81.625 837 C-86.14 832.698 -89.84 827.927 -93.568 822.948 C-94.752 821.39 -95.996 819.878 -97.25 818.375 C-97.91 818.375 -98.57 818.375 -99.25 818.375 C-99.334 817.854 -99.418 817.333 -99.504 816.797 C-100.542 813.428 -102.341 810.598 -104.188 807.625 C-104.548 807.023 -104.908 806.421 -105.279 805.801 C-106.211 804.288 -107.225 802.826 -108.25 801.375 C-108.91 801.375 -109.57 801.375 -110.25 801.375 C-110.332 800.529 -110.415 799.684 -110.5 798.812 C-111.425 794.573 -112.843 791.985 -115.25 788.375 C-116.24 788.045 -117.23 787.715 -118.25 787.375 C-118.148 787.017 -118.148 787.017 -117.629 785.207 C-117.177 781.826 -117.825 780.159 -119.188 777.062 C-119.568 776.179 -119.948 775.296 -120.34 774.387 C-120.64 773.723 -120.941 773.059 -121.25 772.375 C-121.91 772.375 -122.57 772.375 -123.25 772.375 C-123.58 771.715 -123.91 771.055 -124.25 770.375 C-124.91 770.045 -125.57 769.715 -126.25 769.375 C-126.085 768.406 -125.92 767.436 -125.75 766.438 C-125.25 763.375 -125.25 763.375 -125.25 762.375 C-125.58 762.045 -125.91 761.715 -126.25 761.375 C-126.229 760.241 -126.209 759.106 -126.188 757.938 C-126.134 754.595 -126.529 751.637 -127.25 748.375 C-128.229 743.922 -128.419 739.925 -128.25 735.375 C-129.24 735.045 -130.23 734.715 -131.25 734.375 C-130.59 734.045 -129.93 733.715 -129.25 733.375 C-129.58 725.785 -129.91 718.195 -130.25 710.375 C-130.91 710.375 -131.57 710.375 -132.25 710.375 C-133.317 708.071 -134.314 705.735 -135.25 703.375 C-134.92 702.715 -134.59 702.055 -134.25 701.375 C-134.948 701.547 -135.645 701.719 -136.364 701.896 C-139.532 702.422 -142.228 702.303 -145.426 702.035 C-146.583 701.942 -147.74 701.848 -148.932 701.752 C-149.531 701.7 -149.531 701.7 -152.562 701.438 C-153.78 701.338 -154.998 701.238 -156.252 701.135 C-159.252 700.888 -162.251 700.634 -165.25 700.375 C-165.25 699.715 -165.25 699.055 -165.25 698.375 C-166.199 698.561 -167.148 698.746 -168.125 698.938 C-171.25 699.375 -171.25 699.375 -173.25 698.375 C-173.58 699.035 -173.91 699.695 -174.25 700.375 C-174.25 699.055 -174.25 697.735 -174.25 696.375 C-176.018 695.535 -177.789 694.703 -179.562 693.875 C-180.549 693.411 -181.535 692.947 -182.551 692.469 C-185.25 691.375 -185.25 691.375 -188.25 691.375 C-188.91 690.715 -189.57 690.055 -190.25 689.375 C-193.267 688.369 -196.048 688.065 -199.202 687.781 C-213.33 686.475 -225.235 682.788 -237.754 676.18 C-241.25 674.375 -241.25 674.375 -244.07 673.266 C-247.235 671.972 -248.918 669.869 -251.25 667.375 C-251.871 666.785 -252.493 666.194 -253.133 665.586 C-257.499 661.419 -260.898 657.231 -264.023 652.062 C-264.226 651.784 -264.226 651.784 -265.25 650.375 C-265.91 650.375 -266.57 650.375 -267.25 650.375 C-267.312 649.921 -267.312 649.921 -267.625 647.625 C-268.603 642.541 -268.603 642.541 -270.25 640.375 C-273.033 639.429 -275.648 638.708 -278.5 638.062 C-290.625 634.991 -300.792 630.266 -310.262 621.879 C-312.25 620.375 -312.25 620.375 -315.25 620.375 C-315.329 619.817 -315.407 619.259 -315.488 618.684 C-316.508 615.594 -318.267 613.855 -320.438 611.438 C-331.428 598.297 -335.505 582.417 -334.453 565.533 C-333.377 554.072 -329.062 544.024 -323.957 533.824 C-320.315 526.465 -319.678 517.101 -322.25 509.188 C-324.676 503.808 -328.403 498.818 -332.25 494.375 C-332.91 494.375 -333.57 494.375 -334.25 494.375 C-334.58 493.447 -334.91 492.519 -335.25 491.562 C-337.627 485.981 -341.332 480.975 -345.25 476.375 C-345.91 476.375 -346.57 476.375 -347.25 476.375 C-347.291 475.828 -347.291 475.828 -347.5 473.062 C-347.93 469.511 -348.876 466.511 -350.188 463.188 C-357.851 443.011 -354.501 420.707 -346.13 401.329 C-340.701 389.273 -333.743 379.036 -325.328 368.824 C-302.043 340.453 -302.043 340.453 -301.938 327.188 C-302.041 326.259 -302.144 325.331 -302.25 324.375 C-301.59 324.375 -300.93 324.375 -300.25 324.375 C-296.501 314.199 -293.582 303.288 -294.25 292.375 C-293.59 292.375 -292.93 292.375 -292.25 292.375 C-292.91 291.385 -293.57 290.395 -294.25 289.375 C-294.375 286.688 -294.375 286.688 -294.25 284.375 C-293.59 284.045 -292.93 283.715 -292.25 283.375 C-291.836 281.309 -291.836 281.309 -291.625 278.812 C-291.55 277.986 -291.475 277.16 -291.398 276.309 C-291.349 275.671 -291.3 275.032 -291.25 274.375 C-291.91 274.375 -292.57 274.375 -293.25 274.375 C-293.58 272.395 -293.91 270.415 -294.25 268.375 C-293.26 268.375 -292.27 268.375 -291.25 268.375 C-291.25 267.375 -291.25 267.375 -293.25 264.375 C-293.25 263.055 -293.25 261.735 -293.25 260.375 C-291.93 260.705 -290.61 261.035 -289.25 261.375 C-289.415 259.56 -289.415 259.56 -290.25 250.375 C-289.59 250.375 -288.93 250.375 -288.25 250.375 C-288.213 249.429 -288.175 248.483 -288.137 247.508 C-287.741 239.125 -286.858 231.002 -285.266 222.756 C-284.3 217.554 -284.13 212.669 -284.25 207.375 C-283.59 207.045 -282.93 206.715 -282.25 206.375 C-281.47 203.58 -280.796 200.832 -280.188 198 C-279.844 196.45 -279.499 194.901 -279.152 193.352 C-279.003 192.661 -278.853 191.971 -278.699 191.26 C-278.25 189.375 -278.25 189.375 -277.25 186.375 C-277.688 183.688 -277.688 183.688 -278.25 181.375 C-277.628 181.125 -277.005 180.876 -276.364 180.619 C-273.82 179.122 -273.42 178.208 -272.426 175.473 C-272.124 174.675 -271.823 173.876 -271.512 173.054 C-271.199 172.191 -270.885 171.327 -270.562 170.438 C-269.861 168.606 -269.155 166.777 -268.445 164.949 C-268.264 164.483 -268.264 164.483 -267.349 162.126 C-256.425 134.769 -239.246 108.098 -218.25 87.375 C-217.121 86.225 -215.993 85.074 -214.867 83.922 C-207.655 76.583 -200.379 69.703 -192.25 63.375 C-190.993 62.334 -189.738 61.291 -188.484 60.246 C-161.807 38.342 -114.22 9.375 -78.25 9.375 C-77.92 8.715 -77.59 8.055 -77.25 7.375 C-74.758 6.848 -74.758 6.848 -71.375 6.438 C-70.1 6.274 -68.825 6.11 -67.512 5.941 C-66.82 5.853 -66.128 5.764 -65.416 5.672 C-62.487 5.27 -59.576 4.778 -56.661 4.286 C-37.815 1.155 -19.094 -0.038 0 0 Z M-276.25 182.375 C-275.25 185.375 -275.25 185.375 -275.25 185.375 Z M-283.25 208.375 C-282.25 211.375 -282.25 211.375 -282.25 211.375 Z M-301.25 325.375 C-300.25 328.375 -300.25 328.375 -300.25 328.375 Z M-125.25 758.375 C-124.25 761.375 -124.25 761.375 -124.25 761.375 Z M-123.25 765.375 C-122.25 767.375 -122.25 767.375 -122.25 767.375 Z M-122.25 769.375 C-121.25 771.375 -121.25 771.375 -121.25 771.375 Z M139.75 894.375 C140.75 896.375 140.75 896.375 140.75 896.375 Z M194.75 951.375 C194.75 952.035 194.75 952.695 194.75 953.375 C195.74 953.045 196.73 952.715 197.75 952.375 C196.76 952.045 195.77 951.715 194.75 951.375 Z " fill="#4A2C07" transform="translate(486.25,19.625)"/>
<path d="M0 0 C1.1 0.014 2.199 0.028 3.333 0.042 C36.645 0.583 77.918 5.248 104.637 27.094 C105.417 27.723 106.196 28.352 107 29 C107.556 29.506 108.112 30.012 108.685 30.533 C114.184 35.21 118.297 35.762 125.375 35.625 C160.43 36.133 189.939 53.322 214 78 C214.309 78.287 214.309 78.287 215.875 79.738 C227.468 90.731 236.206 104.15 244 118 C244.17 118.295 244.17 118.295 245.03 119.79 C251.127 130.422 255.718 141.53 260 153 C260.463 154.231 260.926 155.462 261.402 156.73 C264.133 164.45 266.175 172.302 268.125 180.25 C268.367 181.225 268.609 182.2 268.858 183.204 C272.711 199.424 274.523 215.897 276.134 232.463 C285.054 323.561 285.054 323.561 312 353 C312.696 353.767 313.392 354.534 314.109 355.324 C314.836 356.125 315.563 356.925 316.312 357.75 C328.845 371.558 339.612 385.894 345 404 C345.185 404.621 345.371 405.241 345.562 405.88 C349.894 421.513 347.256 439.121 340 453.438 C336.534 459.479 332.448 465.043 328.358 470.674 C319.211 483.462 315.724 495.373 317 511 C317.942 516.145 319.372 521.033 321 526 C321.219 526.669 321.438 527.338 321.664 528.027 C322.734 531.28 323.826 534.523 324.949 537.758 C329.307 551.204 327.186 565.213 320.875 577.688 C312.04 593.06 298.292 603.489 282 610 C279.901 610.503 277.798 610.985 275.688 611.438 C268.126 613.684 265.294 620.46 261.512 626.855 C253.594 640.242 239.653 647.917 225 652 C216.401 654.2 208.028 654.311 199.189 654.215 C192.441 654.322 188.321 655.315 182.959 659.5 C172.893 667.207 158.416 669.198 146.125 669.062 C145.341 669.058 144.558 669.053 143.75 669.049 C141.833 669.037 139.917 669.019 138 669 C137.94 668.573 137.94 668.573 137.636 666.415 C134.157 641.953 130.36 617.549 122.883 593.93 C122 591 122 591 122 589 C124 589 124 589 126.25 591.145 C127.158 592.087 128.065 593.029 129 594 C130.989 595.91 132.983 597.808 135 599.688 C135.557 600.206 136.113 600.725 136.687 601.26 C141.636 605.802 146.879 609.815 152.32 613.746 C156.367 617.15 158.062 620.858 159.812 625.75 C163.594 635.34 168.915 642.686 178.422 647.133 C184.928 649.321 191.274 648.712 197.438 645.812 C200.453 644.247 201.852 643.223 203.754 640.359 C206 638 206 638 209.906 637.434 C211.437 637.417 212.969 637.419 214.5 637.438 C225.822 637.177 236.343 634.802 245 627 C251.964 618.42 252.767 610.784 252 600 C250.151 592.053 243.292 586.688 236.648 582.527 C232.017 580.061 227.428 578.514 222.375 577.125 C216.109 575.289 212.446 572.684 208 568 C206.668 566.665 205.335 565.332 204 564 C203.334 563.325 202.667 562.649 201.98 561.953 C200.144 560.142 198.264 558.436 196.312 556.75 C187.076 548.764 178.272 540.368 169.625 531.75 C168.876 531.006 168.127 530.262 167.356 529.495 C162.699 524.825 158.3 519.998 154 515 C143.395 503.086 132.544 490.908 119.66 481.418 C119.112 480.95 118.564 480.482 118 480 C118 479.34 118 478.68 118 478 C118.888 477.706 119.776 477.412 120.691 477.109 C144.329 468.946 164.937 456.217 183 439 C183.585 438.478 184.17 437.956 184.773 437.418 C198.825 424.389 207.8 406.013 216 389 C217.221 388.986 218.441 388.972 219.699 388.957 C236.626 388.554 250.113 384.405 262.188 371.938 C272.447 359.705 276.734 344.684 276.344 328.898 C275.132 315.154 270.938 302.288 260.688 292.562 C253.852 286.978 246.402 283.85 237.934 281.578 C236 281 236 281 235 280 C234.864 277.508 234.789 275.041 234.754 272.547 C234.722 270.972 234.691 269.397 234.659 267.822 C234.643 266.993 234.628 266.165 234.612 265.311 C234.264 247.347 233.33 229.701 230.5 211.938 C230.382 211.192 230.263 210.447 230.141 209.679 C228.96 202.819 228.96 202.819 227 200 C224.125 199.062 224.125 199.062 221 199 C218.826 200.219 218.826 200.219 217 202 C216.557 204.059 216.557 204.059 216.656 206.438 C216.692 207.327 216.728 208.216 216.766 209.133 C217.173 214.114 217.818 219.05 218.5 224 C219.854 234.405 220.361 244.521 220 255 C186.65 243.98 162.692 217.92 147.042 187.16 C141.587 175.855 137.385 164.013 134.077 151.915 C132.47 146.358 132.47 146.358 129.988 144.469 C127.267 143.827 125.632 144.055 123 145 C119.945 148.409 118.16 152.539 116.188 156.625 C108.756 171.695 99.565 184.762 88 197 C87.277 197.788 86.554 198.575 85.809 199.387 C73.219 212.615 58.038 222.465 42 231 C41.364 231.343 40.728 231.685 40.073 232.038 C32.186 236.219 24.064 239.111 15.562 241.75 C14.658 242.032 13.753 242.314 12.821 242.604 C-1.033 246.715 -14.406 248.58 -28.812 248.5 C-29.547 248.501 -30.281 248.501 -31.038 248.502 C-42.921 248.482 -53.799 247.138 -65 243 C-62.222 240.081 -59.366 237.738 -56.062 235.438 C-39.756 223.694 -22.152 209.305 -13 191 C-12.812 188 -12.812 188 -13 185 C-15 183 -15 183 -18.688 182.375 C-21.414 182.454 -22.652 182.722 -24.801 184.438 C-26.654 186.551 -28.336 188.734 -30 191 C-44.687 210.224 -62.376 223.643 -83 236 C-83.631 236.379 -84.262 236.758 -84.912 237.148 C-124.52 260.535 -176.23 272.615 -222 271 C-222.026 269.964 -222.052 268.927 -222.078 267.859 C-222.134 266.49 -222.192 265.12 -222.25 263.75 C-222.264 263.068 -222.278 262.386 -222.293 261.684 C-222.459 258.267 -222.78 256.293 -224.855 253.531 C-227 252 -227 252 -230.062 251.75 C-233 253 -233 253 -234.641 256.422 C-236.353 261.4 -236.555 266.274 -236.688 271.5 C-236.722 272.418 -236.756 273.336 -236.791 274.281 C-236.873 276.521 -236.942 278.76 -237 281 C-237.967 281.28 -238.934 281.559 -239.93 281.848 C-253.224 285.867 -264.56 292.173 -271.535 304.773 C-278.748 320.124 -279.859 338.941 -274.258 355.098 C-268.247 368.968 -258.973 378.85 -245.262 385.285 C-240.577 387.093 -236.711 388.179 -231.695 387.652 C-222.339 386.839 -222.339 386.839 -218 389 C-212.704 394.743 -209.664 402.251 -206.364 409.248 C-203.645 414.735 -199.905 419.302 -196 424 C-195.141 425.071 -194.283 426.143 -193.426 427.215 C-173.96 451.226 -147.207 467.335 -118 477 C-119.572 481.044 -122.452 483.505 -125.625 486.312 C-126.166 486.8 -126.707 487.288 -127.265 487.791 C-130.188 490.417 -133.147 492.999 -136.125 495.562 C-142.886 501.438 -149.096 507.859 -154.934 514.645 C-163.068 523.917 -171.67 532.766 -180.375 541.5 C-181.111 542.241 -181.848 542.982 -182.607 543.746 C-186.678 547.805 -190.837 551.694 -195.211 555.426 C-197.055 557.048 -198.782 558.747 -200.5 560.5 C-203.593 563.65 -206.851 566.552 -210.203 569.422 C-212 571 -212 571 -213.356 572.5 C-215.228 574.208 -216.697 574.798 -219.098 575.578 C-219.895 575.848 -220.692 576.118 -221.513 576.396 C-222.354 576.678 -223.196 576.96 -224.062 577.25 C-235.285 581.206 -244.76 586.372 -251.105 596.82 C-253.82 603.434 -253.967 612.181 -251.258 618.809 C-245.48 628.874 -237.704 633.432 -227 637 C-225.516 637.067 -224.029 637.085 -222.543 637.07 C-221.677 637.081 -220.812 637.091 -219.92 637.102 C-218.11 637.117 -216.3 637.11 -214.49 637.078 C-207.945 637.214 -207.945 637.214 -205.16 639.531 C-203.602 641.402 -203.602 641.402 -202.327 643.261 C-199.504 646.961 -195.326 648.592 -190.84 649.379 C-183.933 649.757 -177.637 647.581 -172.023 643.598 C-166.148 638.305 -162.746 630.903 -160.125 623.543 C-157.661 616.78 -153.292 613.544 -147.643 609.28 C-144.6 606.909 -141.72 604.346 -138.812 601.812 C-134.013 597.664 -129.152 593.709 -124 590 C-125.596 597.498 -127.214 604.991 -128.867 612.477 C-133.002 631.256 -136.824 650.031 -140 669 C-157.648 669.335 -175.325 669.523 -190 658.25 C-196.071 654.129 -201.865 654.384 -208.951 654.267 C-227.326 653.918 -244.927 647.274 -258 634 C-263.019 627.9 -266.858 621.808 -269.5 614.312 C-271.434 609.333 -271.434 609.333 -273.844 607.914 C-276.24 607.384 -278.553 607.184 -281 607 C-297.958 603.982 -311.728 596.478 -322.246 582.645 C-329.955 571.021 -332.921 558.431 -330.383 544.648 C-328.396 537 -325.377 530.071 -321.818 523.036 C-316.565 512.524 -315.414 501.995 -318.438 490.562 C-321.397 481.849 -326.885 474.88 -332.562 467.785 C-338.573 460.252 -343.209 452.909 -347 444 C-347.361 443.157 -347.722 442.314 -348.094 441.445 C-354.105 424.025 -350.225 403.008 -342.375 386.875 C-336.892 376.201 -329.586 366.904 -322.062 357.605 C-304.748 335.733 -295.438 312.569 -291 285 C-290.835 283.986 -290.67 282.972 -290.5 281.928 C-289.139 273.052 -288.416 264.197 -287.797 255.247 C-283.984 201.187 -271.811 147.661 -238 104 C-237.355 103.163 -236.711 102.327 -236.047 101.465 C-223.252 85.169 -208.493 69.579 -192 57 C-191.013 56.207 -190.025 55.414 -189.008 54.598 C-180.764 48.014 -172.068 42.378 -163 37 C-162.313 36.588 -161.627 36.175 -160.919 35.75 C-129.636 17.087 -94.01 6.521 -58 2 C-57.22 1.897 -56.439 1.794 -55.635 1.688 C-37.168 -0.663 -18.576 -0.281 0 0 Z " fill="#FE962E" transform="translate(499,37)"/>
<path d="M0 0 C0.66 0 1.32 0 2 0 C2.473 1.102 2.946 2.204 3.434 3.34 C19.369 40.078 43.132 75.811 81.695 91.566 C83.831 92.381 85.976 93.173 88.133 93.93 C91.215 95.08 94.082 96.485 97 98 C96.619 115.817 95.433 133.343 93 151 C92.889 151.817 92.779 152.635 92.665 153.477 C86.667 196.506 71.22 240.115 35.804 267.711 C30.706 271.418 25.403 274.758 20 278 C19.388 278.377 18.775 278.754 18.144 279.143 C-21.866 303.505 -72.853 306.235 -118.438 306.188 C-119.596 306.187 -120.754 306.186 -121.948 306.185 C-138.388 306.156 -154.665 306.023 -171 304 C-172.329 303.842 -173.658 303.685 -174.987 303.527 C-224.538 297.572 -275.978 283.836 -308.694 243.329 C-326.84 220.215 -336.432 193.63 -342 165 C-342.111 164.473 -342.111 164.473 -342.672 161.809 C-343.976 155.02 -344.514 148.129 -345.125 141.25 C-345.169 140.768 -345.169 140.768 -345.391 138.329 C-346.086 129.878 -346.085 121.471 -346 113 C-345.04 112.93 -344.081 112.86 -343.092 112.788 C-299.065 109.537 -253.081 103.704 -213.862 81.806 C-210.646 80.03 -208.696 78.984 -204.965 79.07 C-200.786 80.381 -196.746 81.957 -192.713 83.652 C-180.391 88.542 -167.829 89.527 -154.75 89.375 C-154.39 89.373 -154.39 89.373 -152.568 89.361 C-141.167 89.275 -130.113 88.691 -119 86 C-118.172 85.801 -117.344 85.603 -116.49 85.398 C-91.048 79.094 -66.79 68.017 -46 52 C-45.134 51.345 -44.267 50.69 -43.375 50.016 C-26.219 36.709 -9.227 19.999 0 0 Z " fill="#FDD5A6" transform="translate(623,210)"/>
<path d="M0 0 C34.145 5.491 67.614 18.839 98.188 34.688 C98.612 34.907 98.612 34.907 100.761 36.019 C104.962 38.239 108.795 40.563 112.613 43.395 C115.552 45.378 117.478 46.442 121.055 46.18 C125.633 45.148 129.271 42.707 133.125 40.125 C156.541 25.227 182.311 14.993 208.812 7 C210.009 6.638 211.205 6.277 212.438 5.904 C233.821 -0.347 233.821 -0.347 243 0 C245.22 11.128 245.401 22.067 245.375 33.375 C245.374 34.308 245.373 35.241 245.372 36.202 C245.303 58.537 241.302 78.01 234.812 99.328 C229.984 115.216 226.295 131.405 234.512 146.84 C238.726 153.895 243.371 159.623 251 163 C254.906 163.582 256.416 163.431 259.625 161.062 C263.4 156.195 265.365 150.988 267.266 145.164 C276.159 118.121 294.263 97.711 319.328 84.207 C341.064 73.794 363.08 70.1 387 71 C386.81 71.335 386.81 71.335 385.848 73.027 C381.165 81.749 378.754 90.433 376.438 100 C370.6 123.874 361.958 144.948 340.547 158.996 C329.932 165.26 318.046 168.027 306 170 C305.347 173.024 304.914 175.901 305 179 C308.199 183.384 313.642 184.243 318.617 185.82 C337.882 192.538 353.09 205.632 362 224 C364.615 230.584 366.553 237.346 368.43 244.168 C368.932 245.987 369.434 247.806 369.938 249.625 C370.185 250.521 370.432 251.416 370.686 252.339 C372.527 258.815 374.855 264.682 377.898 270.699 C379 273 379 273 379 275 C363.226 279.893 339.338 277.003 324 272 C322.867 271.638 321.734 271.276 320.566 270.902 C307.921 266.424 295.964 260.021 286 251 C285.22 250.301 284.44 249.603 283.637 248.883 C268.278 234.376 262.454 215.376 259 195.188 C258.275 191.384 257.247 189.334 254 187 C251.145 185.572 249.188 185.755 246 186 C243.378 186.961 240.909 187.975 238.375 189.125 C228.788 193.237 219.112 196.439 209 199 C208.174 199.213 207.348 199.426 206.497 199.646 C191.928 203.205 177.291 203.416 162.375 203.5 C161.433 203.511 160.492 203.521 159.522 203.532 C115.434 203.913 72.07 187.513 40.476 156.467 C31.713 147.754 24.659 138.361 18 128 C17.626 127.424 17.252 126.848 16.867 126.255 C5.894 109.109 0.597 89.852 -3 70 C-3.18 69.086 -3.359 68.172 -3.544 67.23 C-4.102 63.279 -4.181 59.423 -4.203 55.438 C-4.21 54.617 -4.217 53.796 -4.224 52.95 C-4.241 50.3 -4.247 47.65 -4.25 45 C-4.252 44.103 -4.254 43.205 -4.256 42.281 C-4.275 8.549 -4.275 8.549 0 0 Z " fill="#68C0A0" transform="translate(377,690)"/>
<path d="M0 0 C-0.165 0.784 -0.33 1.567 -0.5 2.375 C-1.611 10.43 -1.932 17.165 3 24 C6.401 27.754 10.071 29.84 15 31 C15.739 31.018 16.477 31.036 17.238 31.055 C19.672 31.126 21.681 31.243 24 32 C25.425 33.891 26.18 35.731 27.047 37.93 C28.918 41.994 32.34 44.201 36.32 46.117 C42.849 48.268 50.741 47.782 57 45 C57.474 46.052 57.949 47.104 58.438 48.188 C61.205 52.932 64.838 55.267 70 57 C77.705 58.154 83.452 57.077 90 53 C91.328 52.322 92.66 51.653 94 51 C95.465 52.27 96.93 53.539 98.395 54.809 C103.266 58.423 110.274 57.474 116 57 C122.504 55.284 125.563 51.585 129 46 C129.908 46.33 130.815 46.66 131.75 47 C139.677 49.215 147.806 48.984 155.164 45.199 C158.934 42.737 160.647 40 162.125 35.812 C164 33 164 33 166.129 32.316 C167.872 32.016 169.618 31.737 171.367 31.477 C178.472 30.19 182.871 26.756 187 21 C188.472 18.056 188.132 15.4 188.125 12.125 C188.126 11.508 188.126 11.508 188.133 8.383 C188.027 5.692 187.805 3.544 187 1 C191.254 -0.05 193.318 -0.346 197.289 1.668 C198.418 2.485 199.529 3.326 200.625 4.188 C201.228 4.642 201.832 5.096 202.453 5.564 C209.032 10.614 215.076 16.207 221 22 C221.631 22.616 222.263 23.233 222.914 23.868 C229.202 30.029 235.456 36.178 241.133 42.914 C244.342 46.499 247.809 49.83 251.232 53.21 C254.218 56.172 257.093 59.161 259.812 62.375 C262.573 65.623 265.584 68.334 268.832 71.086 C271.331 73.292 273.659 75.627 276 78 C279.565 81.608 283.215 85.002 287.078 88.285 C289.129 90.115 290.987 92.065 292.875 94.062 C300.035 101.223 307.695 104.358 317.227 107.106 C324.017 109.143 328.477 112.004 333 117.375 C334.391 121.026 334.873 124.205 334 128 C330.569 134.208 324.794 137.548 318.162 139.557 C315.809 140.039 313.873 139.99 311.48 139.816 C297.477 139.084 297.477 139.084 293.305 141.672 C291.651 143.703 290.32 145.742 289 148 C285.902 150.556 284.651 150.988 280.625 151.062 C275.924 149.685 273.087 147.803 270 144 C267.929 140.097 266.429 136.032 265.516 131.707 C263.774 124.252 258.463 120.653 252.615 116.228 C245.246 110.627 238.417 104.661 232 98 C229.254 95.212 226.463 92.492 223.59 89.836 C216.35 83.047 211.448 77.816 209 68 C208.045 64.86 207.022 61.744 206 58.625 C205.762 57.851 205.524 57.077 205.279 56.28 C203.856 51.831 202.425 48.34 199 45 C195.375 44.562 195.375 44.562 192 45 C189.238 47.762 189.421 50.207 189 54 C187.768 53.711 186.535 53.423 185.266 53.125 C163.053 48.07 141.806 49.306 121.938 61.562 C119.267 63.301 117.056 64.943 114.816 67.215 C113 69 113 69 111 69 C111 69.66 111 70.32 111 71 C110.34 71 109.68 71 109 71 C108.732 71.577 108.464 72.155 108.188 72.75 C106.909 75.172 105.919 77.028 104 79 C101.074 79.355 101.074 79.355 97.688 79.188 C93.271 78.998 89.344 79.139 85 80 C84.648 79.504 84.296 79.007 83.934 78.496 C72.03 62.116 55.433 54.162 35.72 50.776 C22.179 48.705 9.599 50.611 -3 56 C-2.977 55.374 -2.954 54.747 -2.93 54.102 C-2.912 53.284 -2.894 52.467 -2.875 51.625 C-2.852 50.813 -2.829 50.001 -2.805 49.164 C-3 47 -3 47 -5 45 C-7.164 44.805 -7.164 44.805 -9.625 44.875 C-11.083 44.917 -12.542 44.958 -14 45 C-15.728 49.823 -17.203 54.636 -18.359 59.629 C-18.589 60.602 -18.818 61.574 -19.055 62.576 C-19.518 64.567 -19.966 66.562 -20.398 68.561 C-22.133 75.743 -24.741 79.887 -30 85 C-30.732 85.754 -31.463 86.507 -32.217 87.284 C-34.601 89.735 -37.015 92.151 -39.438 94.562 C-40.245 95.374 -41.053 96.185 -41.885 97.021 C-47.891 103.018 -54.113 108.639 -60.668 114.027 C-68.961 120.847 -74.417 126.24 -77.938 136.562 C-79.913 142.321 -82.66 146.989 -87.973 150.188 C-91.277 151.512 -93.613 150.891 -97 150 C-99.563 147.75 -99.563 147.75 -102 145 C-106.431 140.219 -106.431 140.219 -110.419 139.663 C-113.252 139.652 -116.048 139.762 -118.875 139.938 C-126.271 140.372 -131.761 140.346 -138 136 C-140.059 134.148 -140.059 134.148 -141.438 132.375 C-141.911 131.785 -142.384 131.194 -142.871 130.586 C-145.434 126.985 -145.568 124.399 -145 120 C-139.147 110.031 -128.63 106.91 -118.078 104.09 C-112.057 101.958 -107.634 97.956 -103.062 93.625 C-101.902 92.538 -100.742 91.451 -99.582 90.363 C-98.987 89.803 -98.393 89.243 -97.78 88.667 C-96.098 87.091 -94.402 85.533 -92.699 83.98 C-84.252 76.244 -76.107 68.214 -68 60.125 C-67.457 59.585 -66.915 59.045 -66.356 58.488 C-61.025 53.178 -55.788 47.847 -50.892 42.127 C-46.935 37.678 -42.706 33.481 -38.505 29.265 C-36.892 27.642 -35.29 26.009 -33.688 24.375 C-9.556 0 -9.556 0 0 0 Z " fill="#FCD7A9" transform="translate(404,521)"/>
<path d="M0 0 C5.094 4.284 9.232 8.714 10.004 15.566 C10.268 21.143 9.528 24.758 6.43 29.426 C5.75 31.312 5.75 31.312 6.422 33.641 C10.793 42.434 15.441 50.39 21.812 57.875 C22.294 58.446 22.776 59.017 23.273 59.605 C27.086 63.942 31.417 68.679 37.277 69.793 C45.947 68.739 53.721 65.607 61.75 62.312 C61.721 61.854 61.721 61.854 61.574 59.531 C61.125 47.318 61.125 47.318 65.184 41.93 C69.842 37.12 74.658 34.214 81.438 33.938 C87.811 34.012 91.748 36.463 96.285 40.77 C100.716 45.665 102.226 50.68 101.988 57.238 C101.17 64.357 98.303 68.297 92.883 72.867 C90.75 74.312 90.75 74.312 88.302 74.888 C85.048 76.704 84.528 78.656 83.457 82.126 C83.232 82.925 83.008 83.724 82.777 84.547 C82.528 85.376 82.278 86.206 82.02 87.061 C81.224 89.723 80.455 92.392 79.688 95.062 C79.168 96.814 78.646 98.566 78.123 100.316 C74.216 113.457 74.216 113.457 72.629 119.596 C72.299 120.848 71.969 122.1 71.629 123.391 C71.358 124.472 71.086 125.554 70.807 126.669 C69.592 129.707 68.594 130.748 65.75 132.312 C58.054 133.03 50.303 131.434 42.688 130.375 C25.012 127.918 7.581 127.078 -10.25 127.062 C-11.256 127.061 -12.261 127.059 -13.298 127.057 C-33.954 127.055 -54.24 128.278 -74.613 131.889 C-84.612 133.494 -84.612 133.494 -88.828 130.453 C-92.171 126.118 -92.937 121.915 -94.062 116.625 C-96.482 106.09 -99.442 95.818 -102.71 85.517 C-102.875 84.995 -102.875 84.995 -103.711 82.352 C-104.008 81.426 -104.305 80.5 -104.611 79.545 C-105.25 77.312 -105.25 77.312 -105.25 75.312 C-106.116 75.086 -106.983 74.859 -107.875 74.625 C-113.679 72.368 -116.924 69.517 -119.625 64 C-122.083 57.751 -122.108 52.953 -119.688 46.688 C-117.01 41.19 -113.092 37.958 -107.875 34.938 C-102.688 33.702 -98.027 33.663 -93 35.5 C-87.847 38.896 -83.163 43.302 -81.25 49.312 C-80.929 53.668 -81.014 57.954 -81.25 62.312 C-80.393 62.588 -79.536 62.864 -78.652 63.148 C-75.311 64.292 -72.078 65.597 -68.812 66.938 C-60.225 70.226 -60.225 70.226 -55.25 69.312 C-44.789 63.971 -38.406 53.7 -32.348 44.056 C-31.395 42.543 -30.417 41.047 -29.434 39.555 C-26.098 34.192 -26.098 34.192 -26.812 30.062 C-27.287 29.155 -27.761 28.248 -28.25 27.312 C-30.806 22.058 -31.304 16.784 -29.598 11.164 C-26.731 4.743 -22.311 0.616 -15.875 -2.125 C-9.996 -3.037 -5.322 -2.764 0 0 Z " fill="#462905" transform="translate(514.25,61.6875)"/>
<path d="M0 0 C2.234 0.594 2.234 0.594 4.406 1.449 C9.538 3.192 15.552 1.589 20.672 0.219 C20.989 0.715 21.306 1.211 21.633 1.723 C27.796 10.695 36.795 15.994 46.672 20.219 C47.566 20.613 48.461 21.008 49.383 21.414 C63.577 26.742 81.839 26.464 95.672 20.219 C96.619 19.795 97.567 19.371 98.543 18.934 C106.378 15.033 113.777 9.56 118.672 2.219 C119.332 2.219 119.992 2.219 120.672 2.219 C121.667 5.965 122.64 9.716 123.609 13.469 C123.887 14.513 124.165 15.557 124.451 16.633 C126.296 23.833 127.293 30.797 127.672 38.219 C127.051 38.359 126.43 38.498 125.79 38.643 C85.938 47.701 43.07 60.286 8.672 83.219 C3.964 82.99 0.531 80.422 -3.328 77.969 C-35.203 58.668 -73.09 47.034 -109.328 39.219 C-108.817 31.277 -107.197 23.8 -105.266 16.094 C-104.984 14.946 -104.702 13.799 -104.412 12.617 C-103.724 9.816 -103.029 7.017 -102.328 4.219 C-101.338 4.219 -100.348 4.219 -99.328 4.219 C-97.891 5.723 -97.891 5.723 -96.328 7.781 C-92.022 12.88 -87.166 16.058 -81.328 19.219 C-80.419 19.729 -79.511 20.24 -78.574 20.766 C-65.053 27.175 -47.141 26.121 -33.151 21.548 C-23.144 17.898 -14.701 13.042 -7.516 5.094 C-2.994 0.281 -2.994 0.281 0 0 Z " fill="#FCD6A7" transform="translate(489.328125,636.78125)"/>
<path d="M0 0 C2.563 0.351 2.563 0.351 3.966 1.873 C4.331 2.58 4.696 3.287 5.071 4.015 C5.283 4.408 5.283 4.408 6.355 6.397 C6.575 6.823 6.575 6.823 7.688 8.976 C12.551 17.873 17.963 25.671 24.563 33.351 C25.177 34.078 25.791 34.805 26.423 35.554 C31.721 41.357 38.583 45.699 46.376 46.976 C56.46 46.071 65.962 41.985 74.919 37.523 C77.563 36.351 77.563 36.351 80.563 36.351 C78.302 44.703 76.017 53.047 73.657 61.371 C73.257 62.791 72.861 64.213 72.47 65.635 C71.898 67.714 71.311 69.787 70.72 71.859 C70.377 73.083 70.035 74.306 69.683 75.567 C69.498 76.026 69.498 76.026 68.563 78.351 C65.326 79.431 64.473 79.28 61.274 78.515 C24.735 70.675 -15.631 72.718 -52.437 77.351 C-54.253 77.567 -56.069 77.782 -57.886 77.996 C-61.407 78.417 -64.923 78.867 -68.437 79.351 C-70.522 73.414 -72.137 67.351 -73.812 61.289 C-76.226 52.6 -78.687 43.941 -81.437 35.351 C-77.726 36.764 -74.263 38.445 -70.749 40.289 C-61.797 44.776 -53.047 48.184 -43.003 45.765 C-35.718 43.288 -30.776 38.751 -25.437 33.351 C-24.697 32.633 -23.957 31.915 -23.194 31.176 C-16.882 24.672 -12.403 17.183 -7.819 9.426 C-7.401 8.721 -6.982 8.016 -6.551 7.29 C-5.616 5.663 -4.762 3.99 -3.929 2.308 C-2.437 0.351 -2.437 0.351 0 0 Z " fill="#FDC233" transform="translate(504.4365234375,99.648681640625)"/>
<path d="M0 0 C7.139 4.533 12.943 10.2 16.242 18.059 C17.421 24.833 16.131 30.454 12.242 36.059 C5.624 45.341 -8.075 51.164 -18.922 53.656 C-31.827 55.487 -43.1 54.028 -54.07 46.809 C-62.655 40.318 -68.643 33.01 -70.172 22.105 C-70.581 13.713 -68.452 7.519 -63.102 1.059 C-45.957 -15.795 -18.988 -10.01 0 0 Z " fill="#BCACD3" transform="translate(462.7578125,593.94140625)"/>
<path d="M0 0 C5.149 3.859 9.014 8.227 10.23 14.672 C11.087 25.683 9.324 32.952 2.309 41.5 C-7.205 51.442 -18.982 55.502 -32.457 55.922 C-46.548 55.764 -58.494 50.673 -68.629 40.984 C-74.093 35.081 -75.582 29.687 -75.277 21.633 C-74.421 16.637 -72.104 13.395 -68.77 9.672 C-68.497 9.364 -68.497 9.364 -67.117 7.809 C-50.055 -9.03 -20.071 -12.891 0 0 Z " fill="#BCACD3" transform="translate(592.76953125,592.328125)"/>
<path d="M0 0 C8.779 3.976 12.761 10.469 16.434 19.086 C20.234 29.454 19.325 42.62 15.324 52.754 C11.904 60.056 6.859 66.021 -0.117 70.102 C-6.872 72.048 -12.489 72.083 -18.992 69.227 C-27.588 64.423 -31.977 56.346 -34.805 47.164 C-37.888 34.499 -35.807 21.369 -29.117 10.227 C-22.154 0.557 -11.465 -3.417 0 0 Z " fill="#4B2E06" transform="translate(396.8046875,340.8359375)"/>
<path d="M0 0 C8.26 4.904 13.001 12.57 15.75 21.562 C15.942 22.163 16.134 22.764 16.332 23.383 C18.786 36.181 16.495 49.396 9.488 60.332 C5.445 65.52 0.227 69.184 -6.25 70.562 C-13.453 71.242 -19.431 69.387 -25.438 65.5 C-34.192 57.329 -37.254 45.725 -37.688 34.125 C-37.37 23.056 -33.899 12.711 -26.25 4.562 C-18.663 -1.999 -9.442 -3.98 0 0 Z " fill="#4B2D06" transform="translate(622.25,341.4375)"/>
<path d="M0 0 C10.627 3.117 17.688 8.012 23.555 17.52 C28.923 28.363 28.563 41.475 25.5 53 C21.822 63.129 15.64 71.071 6 76 C-0.47 78.897 -5.922 80.136 -13 80 C-12.885 79.531 -12.885 79.531 -12.301 77.16 C-6.136 51.762 -1.198 26.156 0 0 Z " fill="#FCD7A9" transform="translate(733,332)"/>
<path d="M0 0 C0.022 0.387 0.022 0.387 0.136 2.345 C1.488 25.068 4.141 46.523 9.695 68.648 C10.636 72.416 11.458 76.15 12 80 C3.219 80.573 -4.308 78.264 -11.125 72.656 C-11.744 72.11 -12.363 71.563 -13 71 C-13.619 70.474 -14.238 69.948 -14.875 69.406 C-22.494 62.444 -26.796 52.649 -27.371 42.363 C-27.67 30.058 -26.651 20.35 -18.562 10.5 C-14.003 5.744 -6.967 0 0 0 Z " fill="#FCD7A9" transform="translate(263,332)"/>
<path d="M0 0 C3.227 0.956 4.976 1.973 7.688 3.875 C16.117 9.71 24.165 11.084 34.375 10 C41.274 8.389 46.756 5.431 52.305 1.074 C55.054 -0.353 56.475 0.086 59.375 1 C61.188 2.188 61.188 2.188 62.375 4 C62.909 7.508 62.715 9.381 61 12.5 C51.185 21.847 38.826 25.602 25.531 25.405 C19.787 25.181 14.67 24.332 9.375 22 C8.986 21.83 8.986 21.83 7.02 20.969 C1.387 18.176 -3.446 14.522 -6.625 9 C-6.75 5.125 -6.75 5.125 -5.625 2 C-2.625 0 -2.625 0 0 0 Z " fill="#442906" transform="translate(472.625,439)"/>
<path d="M0 0 C0.446 0.036 0.446 0.036 2.703 0.217 C18.698 1.356 34.733 1.115 50.758 1.069 C54.741 1.058 58.724 1.054 62.707 1.049 C70.471 1.038 78.236 1.021 86 1 C83 3 83 3 79.562 4.75 C75.774 6.869 74.125 9.259 72 13 C71.237 12.691 70.474 12.381 69.688 12.062 C64.007 9.817 59.081 9.237 53 10 C50.011 11.307 47.565 13.004 45 15 C44.01 15.66 43.02 16.32 42 17 C41.529 16.578 41.059 16.157 40.574 15.723 C39.952 15.175 39.329 14.627 38.688 14.062 C38.073 13.517 37.458 12.972 36.824 12.41 C33.451 9.802 30.245 9.812 26.125 9.75 C25.096 9.724 24.068 9.698 23.008 9.672 C19.611 10.042 17.817 11.135 15 13 C14.34 13 13.68 13 13 13 C11.992 11.391 11.992 11.391 10.875 9.25 C8.058 4.479 5.061 3.059 0 1 C0 0.67 0 0.34 0 0 Z " fill="#F8D9AC" transform="translate(455,528)"/>
<path d="M0 0 C3.904 1.661 5.399 3.144 7 7 C7.655 10.794 7.864 14.453 5.949 17.883 C2.855 21.661 1.08 22.892 -3.75 23.375 C-7.101 23.351 -8.849 22.756 -11.438 20.625 C-15.374 16.592 -15.332 13.942 -15.293 8.484 C-14.885 5.028 -13.537 3.313 -11 1 C-7.551 -0.725 -3.779 -0.366 0 0 Z " fill="#FCE4BF" transform="translate(518,547)"/>
<path d="M0 0 C2.897 1.233 4.397 2.225 6.312 4.688 C7.853 9.868 7.684 13.632 5.312 18.375 C2.806 21.22 1.689 22.245 -2 23 C-6.458 23.145 -9.251 22.526 -12.938 19.938 C-15.515 16.267 -16.306 13.464 -16 9 C-13.01 0.659 -8.38 -1.107 0 0 Z " fill="#FAE2BC" transform="translate(485,547)"/>
<path d="M0 0 C3.471 2.068 5.777 4.109 7 8 C7.43 11.317 7.718 13.805 5.949 16.75 C4.167 18.937 2.543 20.728 0 22 C-6.104 22.509 -9.108 22.057 -14 18 C-15.849 14.303 -15.476 10.035 -15 6 C-11.157 -0.277 -6.966 -0.88 0 0 Z " fill="#FBE3BE" transform="translate(551,538)"/>
<path d="M0 0 C4.146 1.79 6.21 3.854 8 8 C8.583 11.5 8.611 13.812 6.969 17.004 C4.914 19.83 3.249 21.671 -0.191 22.578 C-5.519 22.831 -8.877 21.505 -13 18 C-14.742 14.516 -14.587 10.801 -14 7 C-10.578 0.82 -6.818 -0.462 0 0 Z " fill="#FBE5C1" transform="translate(452,537)"/>
<path d="M0 0 C1.773 0.094 3.544 0.219 5.312 0.375 C6.104 0.432 6.895 0.488 7.711 0.547 C9.875 0.75 9.875 0.75 13.312 1.375 C14.927 4.604 14.908 7.885 14.312 11.375 C12.576 14.4 10.477 16.793 7.312 18.375 C-1.564 18.805 -1.564 18.805 -4.688 16.375 C-6.816 13.638 -7.631 11.825 -8.062 8.375 C-7.331 2.522 -6.064 0.075 0 0 Z " fill="#FAE3C0" transform="translate(419.6875,523.625)"/>
<path d="M0 0 C2.326 3.617 1.95 7.706 1.16 11.805 C-0.552 14.64 -1.752 15.151 -4.84 16.805 C-8.827 17.667 -11.951 17.239 -15.652 15.43 C-18.983 11.433 -20.84 6.06 -20.84 0.805 C-18.799 0.466 -16.757 0.134 -14.715 -0.195 C-13.578 -0.381 -12.441 -0.567 -11.27 -0.758 C-2.825 -1.835 -2.825 -1.835 0 0 Z " fill="#FAE2BD" transform="translate(580.83984375,526.1953125)"/>
<path d="M0 0 C2.7 1.8 4.542 3.084 6 6 C6.494 10.197 6.701 13.782 4.562 17.5 C0.81 19.696 -2.66 20.441 -7 20 C-10.705 17.53 -11.753 15.799 -13.062 11.562 C-12.985 7.141 -11.808 5.354 -9 2 C-5.487 -0.342 -4.135 -0.496 0 0 Z " fill="#F9DEB5" transform="translate(502,609)"/>
<path d="M0 0 C10.89 0.495 10.89 0.495 66 3 C66 3.33 66 3.66 66 4 C60.225 4.165 60.225 4.165 31 5 C31 5.99 31 6.98 31 8 C31.526 8.124 31.526 8.124 34.188 8.75 C37.821 9.791 40.295 11.295 43 14 C43 14.99 43 15.98 43 17 C42.457 16.578 41.915 16.157 41.355 15.723 C40.998 15.449 40.998 15.449 39.188 14.062 C38.834 13.79 38.834 13.79 37.043 12.41 C33.469 9.943 30.358 9.813 26.125 9.75 C25.096 9.724 24.068 9.698 23.008 9.672 C19.611 10.042 17.817 11.135 15 13 C14.34 13 13.68 13 13 13 C11.992 11.391 11.992 11.391 10.875 9.25 C8.058 4.479 5.061 3.059 0 1 C0 0.67 0 0.34 0 0 Z " fill="#FBE7C1" transform="translate(455,528)"/>
<path d="M0 0 C2.375 1.625 2.375 1.625 4 4 C4 7.812 3.801 10.051 1.312 13 C-1.9 14.389 -3.694 14.055 -7 13 C-8.938 11.375 -8.938 11.375 -10 9 C-9.933 5.187 -9.797 2.911 -7.25 0 C-4.294 -1.314 -3.016 -1.131 0 0 Z " fill="#F7C534" transform="translate(599,110)"/>
<path d="M0 0 C3.5 0.5 3.5 0.5 5.5 2.062 C6.92 5.523 6.363 7.915 5.5 11.5 C3.5 13.5 3.5 13.5 0.062 13.812 C-3.5 13.5 -3.5 13.5 -5.438 12.375 C-7.011 9.598 -6.884 7.638 -6.5 4.5 C-4.871 0.858 -4 0.571 0 0 Z " fill="#FACA38" transform="translate(413.5,109.5)"/>
<path d="M0 0 C2.875 0.875 2.875 0.875 4.875 2.875 C5.176 4.75 5.176 4.75 5.188 6.875 C5.204 7.576 5.221 8.278 5.238 9 C5.118 9.619 4.999 10.237 4.875 10.875 C1.406 13.188 -0.047 13.3 -4.125 12.875 C-6 11.75 -6 11.75 -7.125 9.875 C-7.669 6.222 -7.563 4.532 -5.5 1.438 C-3.125 -0.125 -3.125 -0.125 0 0 Z " fill="#FACC3A" transform="translate(505.125,73.125)"/>
<path d="M0 0 C1.98 0 3.96 0 6 0 C6 0.66 6 1.32 6 2 C4.02 2 2.04 2 0 2 C0 1.34 0 0.68 0 0 Z " fill="#7A652C" transform="translate(712,982)"/>
<path d="M0 0 C0.99 0 1.98 0 3 0 C3 0.66 3 1.32 3 2 C3.66 2.33 4.32 2.66 5 3 C3.35 2.67 1.7 2.34 0 2 C0 1.34 0 0.68 0 0 Z " fill="#715824" transform="translate(416,869)"/>
<path d="M0 0 C0.33 0 0.66 0 1 0 C1 2.31 1 4.62 1 7 C-1 4 -1 4 -0.625 1.812 C-0.419 1.214 -0.213 0.616 0 0 Z " fill="#935117" transform="translate(193,295)"/>
<path d="M0 0 C0.825 0.165 0.825 0.165 5 1 C3.68 1.33 2.36 1.66 1 2 C0.67 1.34 0.34 0.68 0 0 Z " fill="#79612B" transform="translate(696,978)"/>
<path d="M0 0 C0.99 0.33 1.98 0.66 3 1 C2.67 1.66 2.34 2.32 2 3 C1.01 3 0.02 3 -1 3 C-0.67 2.01 -0.34 1.02 0 0 Z " fill="#765D28" transform="translate(665,964)"/>
<path d="M0 0 C0.33 0 0.66 0 1 0 C1 2.31 1 4.62 1 7 C0.67 7 0.34 7 0 7 C0 4.69 0 2.38 0 0 Z " fill="#86672E" transform="translate(639,734)"/>
<path d="M0 0 C0.825 0.165 0.825 0.165 5 1 C3.68 1.33 2.36 1.66 1 2 C0.67 1.34 0.34 0.68 0 0 Z " fill="#8E541C" transform="translate(256,701)"/>
<path d="M0 0 C0.625 1.875 0.625 1.875 1 4 C0.34 4.66 -0.32 5.32 -1 6 C-0.67 4.02 -0.34 2.04 0 0 Z " fill="#8F4C15" transform="translate(201,232)"/>
<path d="M0 0 C1.98 0 3.96 0 6 0 C6 0.33 6 0.66 6 1 C4.02 1 2.04 1 0 1 C0 0.67 0 0.34 0 0 Z " fill="#7A632B" transform="translate(555,910)"/>
<path d="M0 0 C1.98 0 3.96 0 6 0 C6 0.33 6 0.66 6 1 C4.02 1 2.04 1 0 1 C0 0.67 0 0.34 0 0 Z " fill="#775F28" transform="translate(522,910)"/>
<path d="M0 0 C0.33 0.165 0.33 0.165 2 1 C2 1.99 2 2.98 2 4 C1.34 3.67 0.68 3.34 0 3 C0 2.01 0 1.02 0 0 Z " fill="#725A24" transform="translate(424,874)"/>
<path d="M0 0 C0.99 0.33 1.98 0.66 3 1 C2.67 1.99 2.34 2.98 2 4 C2 3.34 2 2.68 2 2 C1.34 2 0.68 2 0 2 C0 1.34 0 0.68 0 0 Z " fill="#8D541C" transform="translate(129,466)"/>
<path d="M0 0 C0.33 0 0.66 0 1 0 C1 1.98 1 3.96 1 6 C0.67 6 0.34 6 0 6 C0 4.02 0 2.04 0 0 Z " fill="#924F17" transform="translate(195,272)"/>
<path d="M0 0 C0.33 0.66 0.66 1.32 1 2 C1.66 2.33 2.32 2.66 3 3 C2.01 3 1.02 3 0 3 C0 2.01 0 1.02 0 0 Z " fill="#8D4913" transform="translate(291,80)"/>
<path d="M0 0 C1.32 0.33 2.64 0.66 4 1 C2.68 1.33 1.36 1.66 0 2 C0 1.34 0 0.68 0 0 Z " fill="#914D13" transform="translate(313,65)"/>
<path d="M0 0 C1.65 0 3.3 0 5 0 C5 0.33 5 0.66 5 1 C3.35 1 1.7 1 0 1 C0 0.67 0 0.34 0 0 Z " fill="#7B672D" transform="translate(722,983)"/>
<path d="M0 0 C1.32 0 2.64 0 4 0 C3.67 0.66 3.34 1.32 3 2 C2.01 1.34 1.02 0.68 0 0 Z " fill="#7A622B" transform="translate(568,909)"/>
<path d="M0 0 C0.99 0.33 1.98 0.66 3 1 C2.34 1.66 1.68 2.32 1 3 C0.67 2.01 0.34 1.02 0 0 Z " fill="#7E652E" transform="translate(666,768)"/>
<path d="M0 0 C0.99 0.33 1.98 0.66 3 1 C2.01 1.33 1.02 1.66 0 2 C0 1.34 0 0.68 0 0 Z " fill="#86652B" transform="translate(728,744)"/>
<path d="M0 0 C0.99 0 1.98 0 3 0 C2.67 0.66 2.34 1.32 2 2 C1.34 2 0.68 2 0 2 C0 1.34 0 0.68 0 0 Z " fill="#915119" transform="translate(176,360)"/>
<path d="M0 0 C0.33 0 0.66 0 1 0 C1 1.65 1 3.3 1 5 C0.67 5 0.34 5 0 5 C0 3.35 0 1.7 0 0 Z " fill="#92551D" transform="translate(791,259)"/>
<path d="M0 0 C4 1 4 1 4 1 Z " fill="#7A642C" transform="translate(748,983)"/>
<path d="M0 0 C4 1 4 1 4 1 Z " fill="#76642D" transform="translate(755,982)"/>
<path d="M0 0 C4 1 4 1 4 1 Z " fill="#795F2A" transform="translate(512,909)"/>
<path d="M0 0 C4 1 4 1 4 1 Z " fill="#785F2A" transform="translate(496,907)"/>
<path d="M0 0 C0.99 0.33 1.98 0.66 3 1 C2.01 1 1.02 1 0 1 C0 0.67 0 0.34 0 0 Z " fill="#78602D" transform="translate(725,872)"/>
<path d="M0 0 C0.66 0.66 1.32 1.32 2 2 C1.67 2.165 1.67 2.165 0 3 C0 2.01 0 1.02 0 0 Z " fill="#7B6933" transform="translate(625,824)"/>
<path d="M0 0 C1 4 1 4 1 4 Z " fill="#74622F" transform="translate(767,806)"/>
<path d="M0 0 C1 4 1 4 1 4 Z " fill="#806028" transform="translate(355,748)"/>
<path d="M0 0 C4 1 4 1 4 1 Z " fill="#915E21" transform="translate(346,723)"/>
<path d="M0 0 C4 1 4 1 4 1 Z " fill="#976024" transform="translate(708,708)"/>
<path d="M0 0 C4 1 4 1 4 1 Z " fill="#955F22" transform="translate(697,708)"/>
<path d="M0 0 C0.99 0 1.98 0 3 0 C2.67 0.66 2.34 1.32 2 2 C1.34 1.34 0.68 0.68 0 0 Z " fill="#91541B" transform="translate(191,653)"/>
<path d="M0 0 C0.66 0.66 1.32 1.32 2 2 C1.67 2.165 1.67 2.165 0 3 C0 2.01 0 1.02 0 0 Z " fill="#8C531A" transform="translate(179,645)"/>
<path d="M0 0 C1 4 1 4 1 4 Z " fill="#8B5019" transform="translate(152,605)"/>
<path d="M0 0 C0.33 0.99 0.66 1.98 1 3 C0.34 2.67 -0.32 2.34 -1 2 C-0.67 1.34 -0.34 0.68 0 0 Z " fill="#90541A" transform="translate(153,570)"/>
<path d="M0 0 C1 4 1 4 1 4 Z " fill="#95561D" transform="translate(163,530)"/>
<path d="M0 0 C0.33 0.165 0.33 0.165 2 1 C1.34 1.66 0.68 2.32 0 3 C0 2.01 0 1.02 0 0 Z " fill="#8E4B12" transform="translate(264,108)"/>
<path d="M0 0 C0.99 0 1.98 0 3 0 C2.67 0.66 2.34 1.32 2 2 C1.34 1.34 0.68 0.68 0 0 Z " fill="#915216" transform="translate(698,80)"/>
<path d="M0 0 C3 1 3 1 3 1 Z " fill="#76612C" transform="translate(759,981)"/>
<path d="M0 0 C0.66 0 1.32 0 2 0 C1.67 0.66 1.34 1.32 1 2 C0.67 1.34 0.34 0.68 0 0 Z " fill="#76642F" transform="translate(766,944)"/>
<path d="M0 0 C3 1 3 1 3 1 Z " fill="#7C6128" transform="translate(580,907)"/>
<path d="M0 0 C3 1 3 1 3 1 Z " fill="#7A5E26" transform="translate(602,901)"/>
<path d="" fill="#7D622B" transform="translate(0,0)"/>
<path d="M0 0 C0.66 0.66 1.32 1.32 2 2 C1.34 2 0.68 2 0 2 C0 1.34 0 0.68 0 0 Z " fill="#7B632B" transform="translate(742,887)"/>
<path d="M0 0 C3 1 3 1 3 1 Z " fill="#7B662D" transform="translate(716,867)"/>
<path d="" fill="#7D6B34" transform="translate(0,0)"/>
<path d="" fill="#7C6630" transform="translate(0,0)"/>
<path d="" fill="#7A622E" transform="translate(0,0)"/>
<path d="M0 0 C0.33 0.66 0.66 1.32 1 2 C0.34 1.67 -0.32 1.34 -1 1 C-0.67 0.67 -0.34 0.34 0 0 Z " fill="#855D22" transform="translate(353,732)"/>
<path d="" fill="#8A662E" transform="translate(0,0)"/>
<path d="M0 0 C3 1 3 1 3 1 Z " fill="#99672A" transform="translate(670,719)"/>
<path d="M0 0 C0.33 0.165 0.33 0.165 2 1 C1.67 1.165 1.67 1.165 0 2 C0 1.34 0 0.68 0 0 Z " fill="#975F23" transform="translate(705,708)"/>
<path d="M0 0 C3 1 3 1 3 1 Z " fill="#996326" transform="translate(718,707)"/>
<path d="M0 0 C3 1 3 1 3 1 Z " fill="#90571E" transform="translate(271,706)"/>
<path d="M0 0 C3 1 3 1 3 1 Z " fill="#975B1F" transform="translate(783,663)"/>
<path d="M0 0 C0.66 0.66 1.32 1.32 2 2 C1.34 2 0.68 2 0 2 C0 1.34 0 0.68 0 0 Z " fill="#8B501A" transform="translate(169,636)"/>
<path d="" fill="#8A4F19" transform="translate(0,0)"/>
<path d="M0 0 C0.33 0.66 0.66 1.32 1 2 C0.34 1.67 -0.32 1.34 -1 1 C-0.67 0.67 -0.34 0.34 0 0 Z " fill="#894F19" transform="translate(153,610)"/>
<path d="M0 0 C0.66 0 1.32 0 2 0 C1.67 0.66 1.34 1.32 1 2 C0.67 1.34 0.34 0.68 0 0 Z " fill="#93571C" transform="translate(160,552)"/>
<path d="M0 0 C0.33 0.165 0.33 0.165 2 1 C1.67 1.165 1.67 1.165 0 2 C0 1.34 0 0.68 0 0 Z " fill="#8A511B" transform="translate(128,458)"/>
<path d="" fill="#8D551D" transform="translate(0,0)"/>
<path d="" fill="#8F511A" transform="translate(0,0)"/>
<path d="M0 0 C0.66 0.66 1.32 1.32 2 2 C1.34 2 0.68 2 0 2 C0 1.34 0 0.68 0 0 Z " fill="#894F19" transform="translate(144,401)"/>
<path d="M0 0 C0.33 0.66 0.66 1.32 1 2 C0.34 1.67 -0.32 1.34 -1 1 C-0.67 0.67 -0.34 0.34 0 0 Z " fill="#905217" transform="translate(161,385)"/>
<path d="M0 0 C0.66 0 1.32 0 2 0 C1.67 0.66 1.34 1.32 1 2 C0.67 1.34 0.34 0.68 0 0 Z " fill="#8E531A" transform="translate(827,384)"/>
<path d="M0 0 C3 1 3 1 3 1 Z " fill="#8C5018" transform="translate(168,368)"/>
<path d="M0 0 C0.33 0.66 0.66 1.32 1 2 C0.34 1.67 -0.32 1.34 -1 1 C-0.67 0.67 -0.34 0.34 0 0 Z " fill="#915018" transform="translate(177,362)"/>
<path d="" fill="#935117" transform="translate(0,0)"/>
<path d="" fill="#93581E" transform="translate(0,0)"/>
<path d="" fill="#95581F" transform="translate(0,0)"/>
<path d="" fill="#8F551B" transform="translate(0,0)"/>
<path d="" fill="#93551C" transform="translate(0,0)"/>
<path d="" fill="#8F4D15" transform="translate(0,0)"/>
<path d="M0 0 C0.33 0.165 0.33 0.165 2 1 C1.67 1.165 1.67 1.165 0 2 C0 1.34 0 0.68 0 0 Z " fill="#904A14" transform="translate(294,80)"/>
<path d="M0 0 C3 1 3 1 3 1 Z " fill="#915015" transform="translate(669,64)"/>
<path d="M0 0 C3 1 3 1 3 1 Z " fill="#965517" transform="translate(645,56)"/>
<path d="M0 0 C0.66 0.66 1.32 1.32 2 2 C1.34 2 0.68 2 0 2 C0 1.34 0 0.68 0 0 Z " fill="#8F4D13" transform="translate(338,48)"/>
<path d="M0 0 C3 1 3 1 3 1 Z " fill="#945015" transform="translate(376,32)"/>
<path d="M0 0 C3 1 3 1 3 1 Z " fill="#9E5719" transform="translate(416,24)"/>
<path d="M0 0 C0.66 0.66 1.32 1.32 2 2 C1.34 2 0.68 2 0 2 C0 1.34 0 0.68 0 0 Z " fill="#9C5A1C" transform="translate(514,18)"/>
<path d="M0 0 C3 1 3 1 3 1 Z " fill="#975419" transform="translate(481,18)"/>
<path d="M0 0 C3 1 3 1 3 1 Z " fill="#9D591D" transform="translate(469,18)"/>
<path d="M0 0 C2 1 2 1 2 1 Z " fill="#76632B" transform="translate(752,982)"/>
<path d="M0 0 C2 1 2 1 2 1 Z " fill="#7A652D" transform="translate(706,981)"/>
<path d="M0 0 C2 1 2 1 2 1 Z " fill="#75612B" transform="translate(766,979)"/>
<path d="" fill="#79612A" transform="translate(0,0)"/>
<path d="M0 0 C2 1 2 1 2 1 Z " fill="#79612A" transform="translate(519,910)"/>
<path d="M0 0 C2 1 2 1 2 1 Z " fill="#785F2A" transform="translate(516,910)"/>
<path d="M0 0 C2 1 2 1 2 1 Z " fill="#796028" transform="translate(600,902)"/>
<path d="M0 0 C2 1 2 1 2 1 Z " fill="#785D27" transform="translate(479,902)"/>
<path d="M0 0 C2 1 2 1 2 1 Z " fill="#78632D" transform="translate(748,896)"/>
<path d="M0 0 C2 1 2 1 2 1 Z " fill="#755D26" transform="translate(440,885)"/>
<path d="M0 0 C2 1 2 1 2 1 Z " fill="#725925" transform="translate(433,881)"/>
<path d="M0 0 C2 1 2 1 2 1 Z " fill="#7D6631" transform="translate(734,880)"/>
<path d="" fill="#765B26" transform="translate(0,0)"/>
<path d="" fill="#705924" transform="translate(0,0)"/>
<path d="" fill="#7C6B33" transform="translate(0,0)"/>
<path d="M0 0 C2 1 2 1 2 1 Z " fill="#796732" transform="translate(629,824)"/>
<path d="" fill="#775D27" transform="translate(0,0)"/>
<path d="" fill="#7A5D26" transform="translate(0,0)"/>
<path d="" fill="#7A642F" transform="translate(0,0)"/>
<path d="" fill="#76602D" transform="translate(0,0)"/>
<path d="M0 0 C2 1 2 1 2 1 Z " fill="#7C642C" transform="translate(669,770)"/>
<path d="M0 0 C2 1 2 1 2 1 Z " fill="#7F5E29" transform="translate(683,761)"/>
<path d="" fill="#7E6127" transform="translate(0,0)"/>
<path d="M0 0 C2 1 2 1 2 1 Z " fill="#83632C" transform="translate(697,754)"/>
<path d="M0 0 C2 1 2 1 2 1 Z " fill="#84632B" transform="translate(699,753)"/>
<path d="M0 0 C2 1 2 1 2 1 Z " fill="#85652C" transform="translate(696,752)"/>
<path d="M0 0 C2 1 2 1 2 1 Z " fill="#86632B" transform="translate(719,747)"/>
<path d="M0 0 C2 1 2 1 2 1 Z " fill="#915B20" transform="translate(317,719)"/>
<path d="M0 0 C2 1 2 1 2 1 Z " fill="#966124" transform="translate(676,717)"/>
<path d="M0 0 C2 1 2 1 2 1 Z " fill="#966024" transform="translate(678,716)"/>
<path d="M0 0 C2 1 2 1 2 1 Z " fill="#945A1E" transform="translate(310,716)"/>
<path d="M0 0 C2 1 2 1 2 1 Z " fill="#986124" transform="translate(691,710)"/>
<path d="M0 0 C2 1 2 1 2 1 Z " fill="#92581C" transform="translate(285,708)"/>
<path d="M0 0 C2 1 2 1 2 1 Z " fill="#8E551C" transform="translate(261,703)"/>
<path d="" fill="#905319" transform="translate(0,0)"/>
<path d="" fill="#905219" transform="translate(0,0)"/>
<path d="" fill="#8E5218" transform="translate(0,0)"/>
<path d="M0 0 C2 1 2 1 2 1 Z " fill="#8F5117" transform="translate(210,659)"/>
<path d="M0 0 C2 1 2 1 2 1 Z " fill="#91581E" transform="translate(804,653)"/>
<path d="M0 0 C2 1 2 1 2 1 Z " fill="#8B511B" transform="translate(181,647)"/>
<path d="M0 0 C2 1 2 1 2 1 Z " fill="#854E18" transform="translate(161,631)"/>
<path d="" fill="#884F18" transform="translate(0,0)"/>
<path d="" fill="#874D18" transform="translate(0,0)"/>
<path d="" fill="#91571C" transform="translate(0,0)"/>
<path d="" fill="#93561C" transform="translate(0,0)"/>
<path d="" fill="#975C21" transform="translate(0,0)"/>
<path d="" fill="#8E531C" transform="translate(0,0)"/>
<path d="" fill="#8F541C" transform="translate(0,0)"/>
<path d="" fill="#90551B" transform="translate(0,0)"/>
<path d="" fill="#8C501B" transform="translate(0,0)"/>
<path d="" fill="#90581F" transform="translate(0,0)"/>
<path d="" fill="#915A1E" transform="translate(0,0)"/>
<path d="" fill="#8D531A" transform="translate(0,0)"/>
<path d="" fill="#8E551D" transform="translate(0,0)"/>
<path d="" fill="#88511B" transform="translate(0,0)"/>
<path d="" fill="#8F561F" transform="translate(0,0)"/>
<path d="" fill="#89501A" transform="translate(0,0)"/>
<path d="" fill="#91571E" transform="translate(0,0)"/>
<path d="" fill="#8C511B" transform="translate(0,0)"/>
<path d="" fill="#91581E" transform="translate(0,0)"/>
<path d="" fill="#8E541B" transform="translate(0,0)"/>
<path d="" fill="#8C5019" transform="translate(0,0)"/>
<path d="" fill="#91551A" transform="translate(0,0)"/>
<path d="" fill="#894E15" transform="translate(0,0)"/>
<path d="" fill="#8B521A" transform="translate(0,0)"/>
<path d="" fill="#92571C" transform="translate(0,0)"/>
<path d="M0 0 C2 1 2 1 2 1 Z " fill="#93531B" transform="translate(185,341)"/>
<path d="" fill="#935219" transform="translate(0,0)"/>
<path d="" fill="#934E16" transform="translate(0,0)"/>
<path d="" fill="#914B13" transform="translate(0,0)"/>
<path d="" fill="#924E16" transform="translate(0,0)"/>
<path d="" fill="#8D521B" transform="translate(0,0)"/>
<path d="" fill="#8A4A14" transform="translate(0,0)"/>
<path d="M0 0 C2 1 2 1 2 1 Z " fill="#8C4B14" transform="translate(219,176)"/>
<path d="" fill="#884714" transform="translate(0,0)"/>
<path d="" fill="#894712" transform="translate(0,0)"/>
<path d="" fill="#894E15" transform="translate(0,0)"/>
<path d="" fill="#904D14" transform="translate(0,0)"/>
<path d="" fill="#8C4C12" transform="translate(0,0)"/>
<path d="" fill="#884912" transform="translate(0,0)"/>
<path d="M0 0 C2 1 2 1 2 1 Z " fill="#8D4D15" transform="translate(686,72)"/>
<path d="M0 0 C2 1 2 1 2 1 Z " fill="#8F4D16" transform="translate(305,72)"/>
<path d="M0 0 C2 1 2 1 2 1 Z " fill="#934D14" transform="translate(317,64)"/>
<path d="M0 0 C2 1 2 1 2 1 Z " fill="#945318" transform="translate(650,57)"/>
<path d="" fill="#955219" transform="translate(0,0)"/>
<path d="M0 0 C2 1 2 1 2 1 Z " fill="#954F14" transform="translate(365,40)"/>
<path d="" fill="#985718" transform="translate(0,0)"/>
<path d="M0 0 C2 1 2 1 2 1 Z " fill="#9C5618" transform="translate(412,25)"/>
<path d="M0 0 C2 1 2 1 2 1 Z " fill="#9D581C" transform="translate(456,19)"/>
<path d="M0 0 C2 1 2 1 2 1 Z " fill="#985619" transform="translate(492,18)"/>
<path d="M0 0 C2 1 2 1 2 1 Z " fill="#975518" transform="translate(487,18)"/>
<path d="" fill="#443413" transform="translate(0,0)"/>
<path d="" fill="#7A672C" transform="translate(0,0)"/>
<path d="" fill="#795F29" transform="translate(0,0)"/>
<path d="" fill="#76602C" transform="translate(0,0)"/>
<path d="" fill="#7E662E" transform="translate(0,0)"/>
<path d="" fill="#7D632A" transform="translate(0,0)"/>
<path d="" fill="#79632A" transform="translate(0,0)"/>
<path d="" fill="#473716" transform="translate(0,0)"/>
<path d="" fill="#785F2A" transform="translate(0,0)"/>
<path d="" fill="#785C27" transform="translate(0,0)"/>
<path d="" fill="#0F0B01" transform="translate(0,0)"/>
<path d="" fill="#352A0E" transform="translate(0,0)"/>
<path d="" fill="#785F28" transform="translate(0,0)"/>
<path d="" fill="#785F29" transform="translate(0,0)"/>
<path d="" fill="#785F27" transform="translate(0,0)"/>
<path d="" fill="#785C28" transform="translate(0,0)"/>
<path d="" fill="#795F27" transform="translate(0,0)"/>
<path d="" fill="#745F2B" transform="translate(0,0)"/>
<path d="" fill="#79602D" transform="translate(0,0)"/>
<path d="" fill="#795F26" transform="translate(0,0)"/>
<path d="" fill="#785F28" transform="translate(0,0)"/>
<path d="" fill="#795E2B" transform="translate(0,0)"/>
<path d="" fill="#7E632D" transform="translate(0,0)"/>
<path d="" fill="#775E29" transform="translate(0,0)"/>
<path d="" fill="#161002" transform="translate(0,0)"/>
<path d="" fill="#161103" transform="translate(0,0)"/>
<path d="" fill="#211706" transform="translate(0,0)"/>
<path d="" fill="#7C622B" transform="translate(0,0)"/>
<path d="" fill="#7C6129" transform="translate(0,0)"/>
<path d="" fill="#78622E" transform="translate(0,0)"/>
<path d="" fill="#755F2E" transform="translate(0,0)"/>
<path d="" fill="#7B632A" transform="translate(0,0)"/>
<path d="" fill="#7C632A" transform="translate(0,0)"/>
<path d="" fill="#796128" transform="translate(0,0)"/>
<path d="" fill="#78602A" transform="translate(0,0)"/>
<path d="" fill="#7A602B" transform="translate(0,0)"/>
<path d="" fill="#7B622B" transform="translate(0,0)"/>
<path d="" fill="#765E29" transform="translate(0,0)"/>
<path d="" fill="#765D2A" transform="translate(0,0)"/>
<path d="" fill="#776029" transform="translate(0,0)"/>
<path d="" fill="#7D6427" transform="translate(0,0)"/>
<path d="" fill="#7A602A" transform="translate(0,0)"/>
<path d="" fill="#7A632C" transform="translate(0,0)"/>
<path d="" fill="#77622C" transform="translate(0,0)"/>
<path d="" fill="#7D622B" transform="translate(0,0)"/>
<path d="" fill="#7F652B" transform="translate(0,0)"/>
<path d="" fill="#765B26" transform="translate(0,0)"/>
<path d="" fill="#7B6229" transform="translate(0,0)"/>
<path d="" fill="#7B612A" transform="translate(0,0)"/>
<path d="" fill="#785C28" transform="translate(0,0)"/>
<path d="" fill="#78642E" transform="translate(0,0)"/>
<path d="" fill="#7B6128" transform="translate(0,0)"/>
<path d="" fill="#785D25" transform="translate(0,0)"/>
<path d="" fill="#79642D" transform="translate(0,0)"/>
<path d="" fill="#7C652C" transform="translate(0,0)"/>
<path d="" fill="#765D25" transform="translate(0,0)"/>
<path d="" fill="#775C26" transform="translate(0,0)"/>
<path d="" fill="#755D24" transform="translate(0,0)"/>
<path d="" fill="#755C26" transform="translate(0,0)"/>
<path d="" fill="#7A652C" transform="translate(0,0)"/>
<path d="" fill="#745A26" transform="translate(0,0)"/>
<path d="" fill="#75602B" transform="translate(0,0)"/>
<path d="" fill="#78652E" transform="translate(0,0)"/>
<path d="" fill="#715A28" transform="translate(0,0)"/>
<path d="" fill="#75632B" transform="translate(0,0)"/>
<path d="" fill="#7A652D" transform="translate(0,0)"/>
<path d="" fill="#735A27" transform="translate(0,0)"/>
<path d="" fill="#725924" transform="translate(0,0)"/>
<path d="" fill="#78622B" transform="translate(0,0)"/>
<path d="" fill="#755A23" transform="translate(0,0)"/>
<path d="" fill="#79642B" transform="translate(0,0)"/>
<path d="" fill="#755C26" transform="translate(0,0)"/>
<path d="" fill="#745925" transform="translate(0,0)"/>
<path d="" fill="#755B25" transform="translate(0,0)"/>
<path d="" fill="#765A25" transform="translate(0,0)"/>
<path d="" fill="#78612D" transform="translate(0,0)"/>
<path d="" fill="#785D25" transform="translate(0,0)"/>
<path d="" fill="#7C6431" transform="translate(0,0)"/>
<path d="" fill="#735826" transform="translate(0,0)"/>
<path d="" fill="#725C26" transform="translate(0,0)"/>
<path d="" fill="#725B24" transform="translate(0,0)"/>
<path d="" fill="#715624" transform="translate(0,0)"/>
<path d="" fill="#705624" transform="translate(0,0)"/>
<path d="" fill="#735A27" transform="translate(0,0)"/>
<path d="" fill="#765D27" transform="translate(0,0)"/>
<path d="" fill="#786330" transform="translate(0,0)"/>
<path d="" fill="#765B29" transform="translate(0,0)"/>
<path d="" fill="#786430" transform="translate(0,0)"/>
<path d="" fill="#796732" transform="translate(0,0)"/>
<path d="" fill="#796934" transform="translate(0,0)"/>
<path d="" fill="#785C28" transform="translate(0,0)"/>
<path d="" fill="#795D29" transform="translate(0,0)"/>
<path d="" fill="#766531" transform="translate(0,0)"/>
<path d="" fill="#7D6531" transform="translate(0,0)"/>
<path d="" fill="#775C26" transform="translate(0,0)"/>
<path d="" fill="#755A28" transform="translate(0,0)"/>
<path d="" fill="#786431" transform="translate(0,0)"/>
<path d="" fill="#775D26" transform="translate(0,0)"/>
<path d="" fill="#7A6630" transform="translate(0,0)"/>
<path d="" fill="#79632F" transform="translate(0,0)"/>
<path d="" fill="#765C25" transform="translate(0,0)"/>
<path d="" fill="#76652E" transform="translate(0,0)"/>
<path d="" fill="#7C6730" transform="translate(0,0)"/>
<path d="" fill="#7E6B31" transform="translate(0,0)"/>
<path d="" fill="#7A632D" transform="translate(0,0)"/>
<path d="" fill="#785F29" transform="translate(0,0)"/>
<path d="" fill="#7C662E" transform="translate(0,0)"/>
<path d="" fill="#7A642E" transform="translate(0,0)"/>
<path d="" fill="#7A652D" transform="translate(0,0)"/>
<path d="" fill="#7B662F" transform="translate(0,0)"/>
<path d="" fill="#7D662E" transform="translate(0,0)"/>
<path d="" fill="#7C662E" transform="translate(0,0)"/>
<path d="" fill="#7B6630" transform="translate(0,0)"/>
<path d="" fill="#79642E" transform="translate(0,0)"/>
<path d="" fill="#796230" transform="translate(0,0)"/>
<path d="" fill="#7A652E" transform="translate(0,0)"/>
<path d="" fill="#7A652D" transform="translate(0,0)"/>
<path d="" fill="#7B632D" transform="translate(0,0)"/>
<path d="" fill="#786731" transform="translate(0,0)"/>
<path d="" fill="#7F642E" transform="translate(0,0)"/>
<path d="" fill="#7B652E" transform="translate(0,0)"/>
<path d="" fill="#79622D" transform="translate(0,0)"/>
<path d="" fill="#7C642E" transform="translate(0,0)"/>
<path d="" fill="#745C2C" transform="translate(0,0)"/>
<path d="" fill="#7D652D" transform="translate(0,0)"/>
<path d="" fill="#7D662C" transform="translate(0,0)"/>
<path d="" fill="#7B612E" transform="translate(0,0)"/>
<path d="" fill="#7E6128" transform="translate(0,0)"/>
<path d="" fill="#755D29" transform="translate(0,0)"/>
<path d="" fill="#805F28" transform="translate(0,0)"/>
<path d="" fill="#81602A" transform="translate(0,0)"/>
<path d="" fill="#806028" transform="translate(0,0)"/>
<path d="" fill="#83662C" transform="translate(0,0)"/>
<path d="" fill="#86682D" transform="translate(0,0)"/>
<path d="" fill="#84612B" transform="translate(0,0)"/>
<path d="" fill="#88662B" transform="translate(0,0)"/>
<path d="" fill="#805E26" transform="translate(0,0)"/>
<path d="" fill="#7B5B27" transform="translate(0,0)"/>
<path d="" fill="#86642C" transform="translate(0,0)"/>
<path d="" fill="#88652A" transform="translate(0,0)"/>
<path d="" fill="#836329" transform="translate(0,0)"/>
<path d="" fill="#89652B" transform="translate(0,0)"/>
<path d="" fill="#88672C" transform="translate(0,0)"/>
<path d="" fill="#85622C" transform="translate(0,0)"/>
<path d="" fill="#836027" transform="translate(0,0)"/>
<path d="" fill="#81612D" transform="translate(0,0)"/>
<path d="" fill="#7E5921" transform="translate(0,0)"/>
<path d="" fill="#835D23" transform="translate(0,0)"/>
<path d="" fill="#845D23" transform="translate(0,0)"/>
<path d="" fill="#7D571F" transform="translate(0,0)"/>
<path d="" fill="#896022" transform="translate(0,0)"/>
<path d="" fill="#80591F" transform="translate(0,0)"/>
<path d="" fill="#895E23" transform="translate(0,0)"/>
<path d="" fill="#945E23" transform="translate(0,0)"/>
<path d="" fill="#976122" transform="translate(0,0)"/>
<path d="" fill="#976425" transform="translate(0,0)"/>
<path d="" fill="#966426" transform="translate(0,0)"/>
<path d="" fill="#966125" transform="translate(0,0)"/>
<path d="" fill="#905C1D" transform="translate(0,0)"/>
<path d="" fill="#935C20" transform="translate(0,0)"/>
<path d="" fill="#8F581E" transform="translate(0,0)"/>
<path d="" fill="#905A1E" transform="translate(0,0)"/>
<path d="" fill="#976227" transform="translate(0,0)"/>
<path d="" fill="#8E571F" transform="translate(0,0)"/>
<path d="" fill="#975F22" transform="translate(0,0)"/>
<path d="" fill="#905B24" transform="translate(0,0)"/>
<path d="" fill="#955B1F" transform="translate(0,0)"/>
<path d="" fill="#90581E" transform="translate(0,0)"/>
<path d="" fill="#93591F" transform="translate(0,0)"/>
<path d="" fill="#90551C" transform="translate(0,0)"/>
<path d="" fill="#996125" transform="translate(0,0)"/>
<path d="" fill="#9A6326" transform="translate(0,0)"/>
<path d="" fill="#966223" transform="translate(0,0)"/>
<path d="" fill="#8E531A" transform="translate(0,0)"/>
<path d="" fill="#945D23" transform="translate(0,0)"/>
<path d="" fill="#8E531A" transform="translate(0,0)"/>
<path d="" fill="#8E5419" transform="translate(0,0)"/>
<path d="" fill="#975E20" transform="translate(0,0)"/>
<path d="" fill="#925C22" transform="translate(0,0)"/>
<path d="" fill="#925A22" transform="translate(0,0)"/>
<path d="" fill="#8A511C" transform="translate(0,0)"/>
<path d="" fill="#8E551A" transform="translate(0,0)"/>
<path d="" fill="#91551A" transform="translate(0,0)"/>
<path d="" fill="#8F5218" transform="translate(0,0)"/>
<path d="" fill="#8E5317" transform="translate(0,0)"/>
<path d="" fill="#8D531B" transform="translate(0,0)"/>
<path d="" fill="#915B20" transform="translate(0,0)"/>
<path d="" fill="#8E5B20" transform="translate(0,0)"/>
<path d="" fill="#90561B" transform="translate(0,0)"/>
<path d="" fill="#945822" transform="translate(0,0)"/>
<path d="" fill="#8D5319" transform="translate(0,0)"/>
<path d="" fill="#8E5519" transform="translate(0,0)"/>
<path d="" fill="#8E5118" transform="translate(0,0)"/>
<path d="" fill="#93551A" transform="translate(0,0)"/>
<path d="" fill="#995D1F" transform="translate(0,0)"/>
<path d="" fill="#985D1E" transform="translate(0,0)"/>
<path d="" fill="#92581C" transform="translate(0,0)"/>
<path d="" fill="#955518" transform="translate(0,0)"/>
<path d="" fill="#90531A" transform="translate(0,0)"/>
<path d="" fill="#95551A" transform="translate(0,0)"/>
<path d="" fill="#955B20" transform="translate(0,0)"/>
<path d="" fill="#925A1F" transform="translate(0,0)"/>
<path d="" fill="#905319" transform="translate(0,0)"/>
<path d="" fill="#92581F" transform="translate(0,0)"/>
<path d="" fill="#8F5118" transform="translate(0,0)"/>
<path d="" fill="#90531A" transform="translate(0,0)"/>
<path d="" fill="#90521A" transform="translate(0,0)"/>
<path d="" fill="#8C5319" transform="translate(0,0)"/>
<path d="" fill="#8C521A" transform="translate(0,0)"/>
<path d="" fill="#54320F" transform="translate(0,0)"/>
<path d="" fill="#894E1A" transform="translate(0,0)"/>
<path d="" fill="#88541E" transform="translate(0,0)"/>
<path d="" fill="#894F1A" transform="translate(0,0)"/>
<path d="" fill="#0F0700" transform="translate(0,0)"/>
<path d="" fill="#884E19" transform="translate(0,0)"/>
<path d="" fill="#8C541E" transform="translate(0,0)"/>
<path d="" fill="#925620" transform="translate(0,0)"/>
<path d="" fill="#8B541F" transform="translate(0,0)"/>
<path d="" fill="#864F19" transform="translate(0,0)"/>
<path d="" fill="#89501B" transform="translate(0,0)"/>
<path d="" fill="#935920" transform="translate(0,0)"/>
<path d="" fill="#8F531C" transform="translate(0,0)"/>
<path d="" fill="#955B21" transform="translate(0,0)"/>
<path d="" fill="#93571E" transform="translate(0,0)"/>
<path d="" fill="#94581D" transform="translate(0,0)"/>
<path d="" fill="#92541A" transform="translate(0,0)"/>
<path d="" fill="#95581C" transform="translate(0,0)"/>
<path d="" fill="#93571D" transform="translate(0,0)"/>
<path d="" fill="#96591D" transform="translate(0,0)"/>
<path d="" fill="#98561C" transform="translate(0,0)"/>
<path d="" fill="#93581F" transform="translate(0,0)"/>
<path d="" fill="#9F5C27" transform="translate(0,0)"/>
<path d="" fill="#8E541B" transform="translate(0,0)"/>
<path d="" fill="#90551D" transform="translate(0,0)"/>
<path d="" fill="#89511A" transform="translate(0,0)"/>
<path d="" fill="#8C521A" transform="translate(0,0)"/>
<path d="" fill="#93561F" transform="translate(0,0)"/>
<path d="" fill="#91561D" transform="translate(0,0)"/>
<path d="" fill="#92541B" transform="translate(0,0)"/>
<path d="" fill="#90531C" transform="translate(0,0)"/>
<path d="" fill="#915820" transform="translate(0,0)"/>
<path d="" fill="#92551C" transform="translate(0,0)"/>
<path d="" fill="#91571F" transform="translate(0,0)"/>
<path d="" fill="#8D5620" transform="translate(0,0)"/>
<path d="" fill="#91581E" transform="translate(0,0)"/>
<path d="" fill="#92561D" transform="translate(0,0)"/>
<path d="" fill="#8C551D" transform="translate(0,0)"/>
<path d="" fill="#945A20" transform="translate(0,0)"/>
<path d="" fill="#8D521C" transform="translate(0,0)"/>
<path d="" fill="#8F531B" transform="translate(0,0)"/>
<path d="" fill="#92571D" transform="translate(0,0)"/>
<path d="" fill="#925B20" transform="translate(0,0)"/>
<path d="" fill="#8C541D" transform="translate(0,0)"/>
<path d="" fill="#915A1E" transform="translate(0,0)"/>
<path d="" fill="#8E551F" transform="translate(0,0)"/>
<path d="" fill="#8F5720" transform="translate(0,0)"/>
<path d="" fill="#8B531C" transform="translate(0,0)"/>
<path d="" fill="#8A511C" transform="translate(0,0)"/>
<path d="" fill="#90571D" transform="translate(0,0)"/>
<path d="" fill="#8D581F" transform="translate(0,0)"/>
<path d="" fill="#8C531B" transform="translate(0,0)"/>
<path d="" fill="#8D541D" transform="translate(0,0)"/>
<path d="" fill="#8D521C" transform="translate(0,0)"/>
<path d="" fill="#8D521B" transform="translate(0,0)"/>
<path d="" fill="#8E5420" transform="translate(0,0)"/>
<path d="" fill="#91561B" transform="translate(0,0)"/>
<path d="" fill="#905519" transform="translate(0,0)"/>
<path d="" fill="#93561C" transform="translate(0,0)"/>
<path d="" fill="#8F561D" transform="translate(0,0)"/>
<path d="" fill="#8B4E19" transform="translate(0,0)"/>
<path d="" fill="#91541B" transform="translate(0,0)"/>
<path d="" fill="#854D19" transform="translate(0,0)"/>
<path d="" fill="#90541A" transform="translate(0,0)"/>
<path d="" fill="#894E19" transform="translate(0,0)"/>
<path d="" fill="#8B5019" transform="translate(0,0)"/>
<path d="" fill="#92571B" transform="translate(0,0)"/>
<path d="" fill="#8A4D17" transform="translate(0,0)"/>
<path d="" fill="#8B4F19" transform="translate(0,0)"/>
<path d="" fill="#8E541D" transform="translate(0,0)"/>
<path d="" fill="#8B4E19" transform="translate(0,0)"/>
<path d="" fill="#8B4E15" transform="translate(0,0)"/>
<path d="" fill="#8E4F16" transform="translate(0,0)"/>
<path d="" fill="#8F531A" transform="translate(0,0)"/>
<path d="" fill="#8D4F16" transform="translate(0,0)"/>
<path d="" fill="#8D531C" transform="translate(0,0)"/>
<path d="" fill="#905519" transform="translate(0,0)"/>
<path d="" fill="#88501B" transform="translate(0,0)"/>
<path d="" fill="#91541A" transform="translate(0,0)"/>
<path d="" fill="#91561E" transform="translate(0,0)"/>
<path d="" fill="#8B5419" transform="translate(0,0)"/>
<path d="" fill="#93571F" transform="translate(0,0)"/>
<path d="" fill="#8F501A" transform="translate(0,0)"/>
<path d="" fill="#8C501A" transform="translate(0,0)"/>
<path d="" fill="#915216" transform="translate(0,0)"/>
<path d="" fill="#90571D" transform="translate(0,0)"/>
<path d="" fill="#91521C" transform="translate(0,0)"/>
<path d="" fill="#95541B" transform="translate(0,0)"/>
<path d="" fill="#95581F" transform="translate(0,0)"/>
<path d="" fill="#90521C" transform="translate(0,0)"/>
<path d="" fill="#92581E" transform="translate(0,0)"/>
<path d="" fill="#543311" transform="translate(0,0)"/>
<path d="" fill="#94541D" transform="translate(0,0)"/>
<path d="" fill="#90541D" transform="translate(0,0)"/>
<path d="" fill="#94561D" transform="translate(0,0)"/>
<path d="" fill="#97561B" transform="translate(0,0)"/>
<path d="" fill="#92571C" transform="translate(0,0)"/>
<path d="" fill="#98541B" transform="translate(0,0)"/>
<path d="" fill="#92591F" transform="translate(0,0)"/>
<path d="" fill="#985219" transform="translate(0,0)"/>
<path d="" fill="#9B551B" transform="translate(0,0)"/>
<path d="" fill="#9A571A" transform="translate(0,0)"/>
<path d="" fill="#96581E" transform="translate(0,0)"/>
<path d="" fill="#94571F" transform="translate(0,0)"/>
<path d="" fill="#92571E" transform="translate(0,0)"/>
<path d="" fill="#95571E" transform="translate(0,0)"/>
<path d="" fill="#904E17" transform="translate(0,0)"/>
<path d="" fill="#904F18" transform="translate(0,0)"/>
<path d="" fill="#8E4D17" transform="translate(0,0)"/>
<path d="" fill="#8F4E17" transform="translate(0,0)"/>
<path d="" fill="#914E15" transform="translate(0,0)"/>
<path d="" fill="#8B4C17" transform="translate(0,0)"/>
<path d="" fill="#904C16" transform="translate(0,0)"/>
<path d="" fill="#8F541B" transform="translate(0,0)"/>
<path d="" fill="#8B521C" transform="translate(0,0)"/>
<path d="" fill="#8B4B15" transform="translate(0,0)"/>
<path d="" fill="#8B4913" transform="translate(0,0)"/>
<path d="" fill="#884916" transform="translate(0,0)"/>
<path d="" fill="#934D16" transform="translate(0,0)"/>
<path d="" fill="#90511B" transform="translate(0,0)"/>
<path d="" fill="#8C5018" transform="translate(0,0)"/>
<path d="" fill="#894A14" transform="translate(0,0)"/>
<path d="" fill="#8E4C16" transform="translate(0,0)"/>
<path d="" fill="#8F531C" transform="translate(0,0)"/>
<path d="" fill="#8F4F17" transform="translate(0,0)"/>
<path d="" fill="#8E4B16" transform="translate(0,0)"/>
<path d="" fill="#8E4D17" transform="translate(0,0)"/>
<path d="" fill="#8B4A15" transform="translate(0,0)"/>
<path d="" fill="#8C5117" transform="translate(0,0)"/>
<path d="" fill="#884714" transform="translate(0,0)"/>
<path d="" fill="#8D4E18" transform="translate(0,0)"/>
<path d="" fill="#8B5018" transform="translate(0,0)"/>
<path d="" fill="#8B5017" transform="translate(0,0)"/>
<path d="" fill="#8B4D18" transform="translate(0,0)"/>
<path d="" fill="#8B4A15" transform="translate(0,0)"/>
<path d="" fill="#874812" transform="translate(0,0)"/>
<path d="" fill="#8A4E19" transform="translate(0,0)"/>
<path d="" fill="#884714" transform="translate(0,0)"/>
<path d="" fill="#864711" transform="translate(0,0)"/>
<path d="" fill="#8A5017" transform="translate(0,0)"/>
<path d="" fill="#8D4914" transform="translate(0,0)"/>
<path d="" fill="#894913" transform="translate(0,0)"/>
<path d="" fill="#8B4F19" transform="translate(0,0)"/>
<path d="" fill="#874815" transform="translate(0,0)"/>
<path d="" fill="#884813" transform="translate(0,0)"/>
<path d="" fill="#884916" transform="translate(0,0)"/>
<path d="" fill="#864512" transform="translate(0,0)"/>
<path d="" fill="#884E14" transform="translate(0,0)"/>
<path d="" fill="#894612" transform="translate(0,0)"/>
<path d="" fill="#824311" transform="translate(0,0)"/>
<path d="" fill="#884B14" transform="translate(0,0)"/>
<path d="" fill="#884812" transform="translate(0,0)"/>
<path d="" fill="#905016" transform="translate(0,0)"/>
<path d="" fill="#8C5119" transform="translate(0,0)"/>
<path d="" fill="#8D4B12" transform="translate(0,0)"/>
<path d="" fill="#894B11" transform="translate(0,0)"/>
<path d="" fill="#8D5019" transform="translate(0,0)"/>
<path d="" fill="#8A4714" transform="translate(0,0)"/>
<path d="" fill="#8B4F16" transform="translate(0,0)"/>
<path d="" fill="#8A4811" transform="translate(0,0)"/>
<path d="" fill="#884B12" transform="translate(0,0)"/>
<path d="" fill="#8F5317" transform="translate(0,0)"/>
<path d="" fill="#8C5115" transform="translate(0,0)"/>
<path d="" fill="#8A4916" transform="translate(0,0)"/>
<path d="" fill="#894B13" transform="translate(0,0)"/>
<path d="" fill="#944E17" transform="translate(0,0)"/>
<path d="" fill="#8D4F16" transform="translate(0,0)"/>
<path d="" fill="#8F4A13" transform="translate(0,0)"/>
<path d="" fill="#905017" transform="translate(0,0)"/>
<path d="" fill="#8D5017" transform="translate(0,0)"/>
<path d="" fill="#8D4A12" transform="translate(0,0)"/>
<path d="" fill="#8F4F15" transform="translate(0,0)"/>
<path d="" fill="#945015" transform="translate(0,0)"/>
<path d="" fill="#915017" transform="translate(0,0)"/>
<path d="" fill="#8C4E13" transform="translate(0,0)"/>
<path d="" fill="#924D13" transform="translate(0,0)"/>
<path d="" fill="#8F5017" transform="translate(0,0)"/>
<path d="" fill="#914F15" transform="translate(0,0)"/>
<path d="" fill="#8D5017" transform="translate(0,0)"/>
<path d="" fill="#915014" transform="translate(0,0)"/>
<path d="" fill="#8D4F16" transform="translate(0,0)"/>
<path d="" fill="#935016" transform="translate(0,0)"/>
<path d="" fill="#995317" transform="translate(0,0)"/>
<path d="" fill="#935115" transform="translate(0,0)"/>
<path d="" fill="#924F16" transform="translate(0,0)"/>
<path d="" fill="#904D14" transform="translate(0,0)"/>
<path d="" fill="#924C16" transform="translate(0,0)"/>
<path d="" fill="#9E591B" transform="translate(0,0)"/>
<path d="" fill="#9F5B1C" transform="translate(0,0)"/>
<path d="" fill="#8F4E15" transform="translate(0,0)"/>
<path d="" fill="#9A571C" transform="translate(0,0)"/>
<path d="" fill="#915016" transform="translate(0,0)"/>
<path d="" fill="#934F17" transform="translate(0,0)"/>
<path d="" fill="#94561C" transform="translate(0,0)"/>
<path d="" fill="#934E15" transform="translate(0,0)"/>
<path d="" fill="#8F4F16" transform="translate(0,0)"/>
<path d="" fill="#965215" transform="translate(0,0)"/>
<path d="" fill="#A25C1B" transform="translate(0,0)"/>
<path d="" fill="#9B591B" transform="translate(0,0)"/>
<path d="" fill="#934E16" transform="translate(0,0)"/>
<path d="" fill="#AA6524" transform="translate(0,0)"/>
<path d="" fill="#A15B1F" transform="translate(0,0)"/>
<path d="" fill="#9F5A1D" transform="translate(0,0)"/>
<path d="" fill="#975219" transform="translate(0,0)"/>
<path d="" fill="#9A5217" transform="translate(0,0)"/>
<path d="" fill="#975419" transform="translate(0,0)"/>
<path d="" fill="#975317" transform="translate(0,0)"/>
<path d="" fill="#9B5017" transform="translate(0,0)"/>
<path d="" fill="#955018" transform="translate(0,0)"/>
<path d="" fill="#975217" transform="translate(0,0)"/>
<path d="" fill="#97571A" transform="translate(0,0)"/>
<path d="" fill="#9A571D" transform="translate(0,0)"/>
<path d="" fill="#9A5218" transform="translate(0,0)"/>
<path d="" fill="#985218" transform="translate(0,0)"/>
<path d="" fill="#9A561A" transform="translate(0,0)"/>
<path d="" fill="#9B5419" transform="translate(0,0)"/>
<path d="" fill="#9B5519" transform="translate(0,0)"/>
<path d="" fill="#9B5719" transform="translate(0,0)"/>
<path d="" fill="#97551B" transform="translate(0,0)"/>
<path d="" fill="#9C581B" transform="translate(0,0)"/>
<path d="" fill="#975517" transform="translate(0,0)"/>
<path d="" fill="#96551A" transform="translate(0,0)"/>
<path d="" fill="#98521A" transform="translate(0,0)"/>
<path d="" fill="#A05A1C" transform="translate(0,0)"/>
<path d="" fill="#9F591C" transform="translate(0,0)"/>
<path d="" fill="#A05918" transform="translate(0,0)"/>
<path d="" fill="#9E581C" transform="translate(0,0)"/>
<path d="" fill="#9E591C" transform="translate(0,0)"/>
<path d="" fill="#A05B1E" transform="translate(0,0)"/>
<path d="" fill="#9C581A" transform="translate(0,0)"/>
<path d="" fill="#9D5A1C" transform="translate(0,0)"/>
<path d="" fill="#9A581D" transform="translate(0,0)"/>
<path d="" fill="#99581C" transform="translate(0,0)"/>
<path d="" fill="#9B571A" transform="translate(0,0)"/>
<path d="" fill="#99571A" transform="translate(0,0)"/>
<path d="" fill="#9A561A" transform="translate(0,0)"/>
<path d="" fill="#9E5A1C" transform="translate(0,0)"/>
<path d="" fill="#A35E1F" transform="translate(0,0)"/>
</svg>
