<?xml version="1.0" encoding="UTF-8"?>
<!-- Generator: visioncortex VTracer 0.6.12 -->
<svg version="1.1" xmlns="http://www.w3.org/2000/svg" width="1024" height="1024">
<path d="M0 0 C2.87 0.145 5.74 0.265 8.612 0.375 C10.293 0.447 11.974 0.518 13.655 0.59 C14.394 0.617 15.133 0.644 15.894 0.672 C20.002 0.87 23.679 1.508 27.667 2.589 C31.826 3.582 36.058 4.147 40.282 4.801 C69.199 9.298 97.453 16.699 122.03 33.153 C122.69 33.483 123.35 33.813 124.03 34.153 C124.36 34.813 124.69 35.473 125.03 36.153 C127.919 36.562 130.75 36.859 133.655 37.09 C142.28 37.874 150.58 39.258 159.03 41.153 C159.03 41.813 159.03 42.473 159.03 43.153 C168.44 45.264 168.44 45.264 173.03 46.153 C173.03 46.813 173.03 47.473 173.03 48.153 C173.67 48.384 174.311 48.614 174.971 48.852 C179.127 50.619 183.02 52.778 186.967 54.965 C187.753 55.391 188.539 55.817 189.348 56.256 C192.947 58.247 196.282 60.23 199.409 62.915 C202.03 65.153 202.03 65.153 205.03 66.153 C205.349 66.555 205.349 66.555 206.967 68.59 C209.03 71.153 209.03 71.153 210.971 72.106 C213.29 73.285 214.384 74.464 216.03 76.465 C218.223 79.072 220.446 81.617 222.799 84.079 C230.008 91.633 236.238 99.469 242.03 108.153 C242.439 108.754 242.849 109.355 243.271 109.975 C258.331 132.2 267.407 157.671 273.342 183.715 C273.573 184.717 273.803 185.719 274.041 186.751 C278.378 206.924 279.752 227.552 281.155 248.09 C281.325 250.5 281.495 252.909 281.667 255.319 C282.51 267.26 283.313 279.203 284.03 291.153 C285.065 290.779 286.101 290.405 287.167 290.02 C288.36 289.589 289.552 289.159 290.78 288.715 C291.474 288.463 292.169 288.211 292.884 287.952 C295.906 286.867 298.891 285.842 302.03 285.153 C302.03 284.493 302.03 283.833 302.03 283.153 C302.69 283.153 303.35 283.153 304.03 283.153 C304.03 281.833 304.03 280.513 304.03 279.153 C303.37 278.823 302.71 278.493 302.03 278.153 C303.02 278.153 304.01 278.153 305.03 278.153 C305.071 276.853 305.112 275.554 305.155 274.215 C305.939 267.206 309.883 261.817 315.092 257.215 C321.134 252.973 325.82 252.901 333.03 253.153 C333.03 252.493 333.03 251.833 333.03 251.153 C335.259 252.267 337.048 253.642 339.03 255.153 C339.667 255.613 340.303 256.073 340.959 256.547 C344.313 258.992 347.318 261.371 350.092 264.465 C354.311 268.325 357.678 268.245 363.217 268.028 C370.589 268.27 378.718 269.752 384.573 274.524 C390.362 280.996 393.174 290.686 394.295 299.161 C396.141 304.168 401.505 307.378 405.592 310.528 C410.052 314.136 412.719 316.928 415.03 322.153 C415.484 322.937 415.937 323.72 416.405 324.528 C417.867 330.669 415.059 336.235 412.342 341.653 C409.859 346.936 409.374 350.553 411.03 356.153 C411.694 357.829 412.382 359.496 413.092 361.153 C415.745 367.406 415.985 372.801 413.905 379.278 C409.899 388.496 403.145 392.458 394.03 396.153 C389.393 397.698 384.94 399.153 380.03 399.153 C379.737 399.682 379.445 400.212 379.144 400.758 C377.815 403.161 376.485 405.563 375.155 407.965 C374.695 408.799 374.234 409.632 373.76 410.491 C373.538 410.892 373.538 410.892 372.413 412.922 C372.208 413.292 372.208 413.292 371.175 415.16 C370.195 416.865 369.121 418.516 368.03 420.153 C368.36 420.813 368.69 421.473 369.03 422.153 C368.04 422.153 367.05 422.153 366.03 422.153 C367.35 422.153 368.67 422.153 370.03 422.153 C371.892 421.421 373.755 420.689 375.616 419.954 C382.202 417.769 389.12 417.02 396.03 417.153 C395.7 417.813 395.37 418.473 395.03 419.153 C396.102 419.71 397.175 420.267 398.28 420.84 C403.291 423.715 406.497 427.532 408.03 433.153 C408.577 438.072 408.195 442.134 406.467 446.778 C404.493 452.143 405.364 456.078 407.092 461.465 C408.779 468.098 408.955 474.896 406.194 481.27 C402.55 487.164 396.991 490.865 390.401 492.727 C384.818 493.73 379.5 493.587 374.03 492.153 C374.176 492.826 374.322 493.5 374.473 494.194 C384.449 540.636 384.449 540.636 376.03 555.153 C375.295 557.005 374.566 558.859 373.842 560.715 C371.226 567.025 367.956 572.575 364.03 578.153 C363.604 578.777 363.179 579.401 362.741 580.043 C356.394 588.376 345.564 595.119 336.03 599.153 C335.37 599.153 334.71 599.153 334.03 599.153 C333.7 599.813 333.37 600.473 333.03 601.153 C331.264 601.715 331.264 601.715 328.78 602.153 C327.798 602.329 326.815 602.506 325.803 602.688 C322.805 603.057 319.955 603.247 316.944 603.336 C302.694 603.897 302.694 603.897 297.991 607.446 C295.801 610.251 293.93 613.146 292.03 616.153 C284.218 624.415 273.188 631.981 261.971 634.641 C255.355 636.331 253.069 640.966 249.694 646.633 C249.145 647.465 248.596 648.296 248.03 649.153 C247.37 649.153 246.71 649.153 246.03 649.153 C245.827 649.703 245.625 650.254 245.417 650.821 C238.105 663.116 220.409 669.781 207.342 673.528 C196.838 676.061 188.001 676.506 177.354 674.528 C171.563 673.875 167.27 674.573 162.53 677.965 C149.291 686.19 135.052 685.688 120.03 685.153 C120.065 685.885 120.099 686.617 120.135 687.372 C120.659 708.325 116.179 728.579 110.819 748.7 C108.347 758.064 106.337 765.813 110.03 775.153 C110.38 776.482 110.721 777.814 111.03 779.153 C111.814 778.823 112.597 778.493 113.405 778.153 C116.03 777.153 116.03 777.153 118.03 777.153 C118.291 776.58 118.552 776.006 118.821 775.416 C123.851 764.434 128.799 753.88 136.03 744.153 C136.556 743.406 137.082 742.66 137.624 741.891 C158.365 713.575 190.186 699.603 224.03 694.153 C240.07 691.841 261.884 690.176 276.03 699.153 C278.732 703.206 278.159 705.801 277.635 710.516 C276.784 714.223 274.843 715.659 272.03 718.153 C267.113 725.723 265.418 734.063 263.592 742.778 C258.84 764.322 252.045 783.355 236.03 799.153 C235.272 799.921 234.514 800.689 233.733 801.481 C227.828 807.154 217.7 816.153 209.03 816.153 C209.03 816.813 209.03 817.473 209.03 818.153 C209.71 818.38 210.391 818.607 211.092 818.84 C214.262 820.257 216.737 822.026 219.479 824.129 C221.03 825.153 221.03 825.153 223.03 825.153 C223.463 825.895 223.896 826.638 224.342 827.403 C226.206 830.44 228.263 831.954 231.03 834.153 C231.713 835.478 232.378 836.812 233.03 838.153 C233.884 839.252 234.761 840.335 235.655 841.403 C243.212 851.35 247.849 863.177 251.03 875.153 C251.517 876.924 252.005 878.695 252.495 880.465 C253.774 885.108 255.037 889.754 256.284 894.405 C256.806 896.327 257.339 898.246 257.881 900.162 C258.156 901.139 258.43 902.115 258.713 903.122 C258.965 904.005 259.217 904.889 259.477 905.799 C260.225 908.985 260.198 911.085 259.03 914.153 C255.035 919.879 249.549 920.908 243.03 922.153 C239.358 922.754 235.747 923.008 232.03 923.153 C231.684 923.166 231.684 923.166 229.933 923.235 C215.337 923.727 201.471 921.912 187.112 919.493 C184.03 919.153 184.03 919.153 181.03 920.153 C180.532 919.56 180.035 918.967 179.522 918.356 C176.387 915.584 173.015 914.343 169.155 912.903 C157.693 908.39 147.492 902.81 138.018 894.817 C136.03 893.153 136.03 893.153 133.03 891.153 C133.03 890.493 133.03 889.833 133.03 889.153 C132.473 888.947 131.916 888.74 131.342 888.528 C129.03 887.153 129.03 887.153 126.592 884.09 C124.03 881.153 124.03 881.153 121.217 880.278 C120.856 880.257 120.856 880.257 119.03 880.153 C119.102 879.427 119.174 878.701 119.249 877.954 C118.969 874.376 117.789 873.1 115.53 870.34 C111.957 865.664 109.152 860.919 106.53 855.653 C106.18 854.958 105.83 854.264 105.469 853.548 C104.019 850.577 103.03 848.501 103.03 845.153 C102.247 845.374 101.464 845.596 100.657 845.824 C79.5 851.758 58.128 857.464 36.03 858.153 C35.037 858.193 34.045 858.233 33.022 858.274 C20.995 858.52 8.99 857.295 -2.97 856.153 C-3.704 856.083 -4.437 856.014 -5.193 855.942 C-13.085 855.146 -20.434 853.335 -27.937 850.829 C-32.791 849.264 -36.867 848.936 -41.97 849.153 C-42.3 848.163 -42.63 847.173 -42.97 846.153 C-45.552 844.801 -45.552 844.801 -48.783 843.528 C-49.312 843.315 -49.312 843.315 -51.99 842.239 C-54.97 841.153 -54.97 841.153 -56.86 840.747 C-85.213 832.766 -113.128 802.277 -127.533 777.965 C-128.97 775.153 -128.97 775.153 -128.97 773.153 C-129.63 772.823 -130.29 772.493 -130.97 772.153 C-132.334 769.188 -133.554 766.199 -134.759 763.168 C-136.77 758.253 -136.77 758.253 -138.97 757.153 C-139.235 755.2 -139.493 753.246 -139.697 751.286 C-140.289 746.663 -141.417 743.222 -144.97 740.153 C-144.97 739.823 -144.97 739.493 -144.97 739.153 C-145.47 737.082 -146.002 735.055 -146.658 733.028 C-146.761 732.409 -146.864 731.79 -146.97 731.153 C-146.31 730.493 -145.65 729.833 -144.97 729.153 C-145.19 726.617 -145.19 726.617 -145.806 723.422 C-147.044 716.213 -147.404 709.143 -147.595 701.84 C-147.634 700.611 -147.673 699.382 -147.712 698.116 C-147.805 695.128 -147.891 692.141 -147.97 689.153 C-150.28 689.153 -152.59 689.153 -154.97 689.153 C-154.97 688.163 -154.97 687.173 -154.97 686.153 C-155.96 686.483 -156.95 686.813 -157.97 687.153 C-158.96 687.483 -159.95 687.813 -160.97 688.153 C-161.3 687.493 -161.63 686.833 -161.97 686.153 C-165.025 685.485 -165.025 685.485 -168.845 684.965 C-170.101 684.786 -171.356 684.607 -172.65 684.422 C-175.97 684.153 -175.97 684.153 -178.97 685.153 C-179.326 684.726 -179.682 684.299 -180.048 683.86 C-182.64 681.558 -185.605 680.284 -188.72 678.84 C-192.916 676.845 -196.678 674.854 -200.095 671.653 C-201.044 670.828 -201.993 670.003 -202.97 669.153 C-204.9 669.434 -204.9 669.434 -206.97 670.153 C-212.299 671.769 -217.92 671.569 -223.442 671.765 C-225.464 671.84 -227.484 671.931 -229.505 672.022 C-230.783 672.069 -232.06 672.116 -233.376 672.165 C-234.545 672.211 -235.714 672.257 -236.917 672.304 C-239.967 672.153 -241.399 671.688 -243.97 670.153 C-246.402 669.288 -248.831 668.455 -251.283 667.653 C-251.921 667.44 -252.56 667.227 -253.218 667.008 C-257.441 665.614 -261.687 664.35 -265.97 663.153 C-265.97 662.493 -265.97 661.833 -265.97 661.153 C-267.763 659.821 -267.763 659.821 -270.158 658.34 C-273.911 655.91 -276.954 653.486 -279.97 650.153 C-280.559 649.521 -281.148 648.89 -281.755 648.239 C-287.679 641.743 -287.679 641.743 -288.97 637.153 C-289.63 637.153 -290.29 637.153 -290.97 637.153 C-290.97 635.833 -290.97 634.513 -290.97 633.153 C-291.733 633.153 -292.496 633.153 -293.283 633.153 C-295.179 633.153 -297.074 633.153 -298.97 633.153 C-299.3 632.163 -299.63 631.173 -299.97 630.153 C-302.293 629.251 -304.52 628.521 -306.908 627.84 C-322.444 623.004 -334.398 613.225 -343.97 600.153 C-344.464 599.566 -344.958 598.98 -345.466 598.375 C-347.682 595.101 -349.055 591.558 -350.533 587.903 C-350.836 587.177 -351.14 586.451 -351.453 585.704 C-358.1 569.455 -358.723 552.401 -352.033 536.09 C-350.763 533.152 -349.485 530.225 -348.099 527.339 C-346.414 523.706 -345.612 521.181 -346.283 517.215 C-346.403 516.443 -346.522 515.671 -346.646 514.875 C-346.699 514.591 -346.699 514.591 -346.97 513.153 C-346.31 513.153 -345.65 513.153 -344.97 513.153 C-345.3 511.173 -345.63 509.193 -345.97 507.153 C-345.64 507.153 -345.31 507.153 -344.97 507.153 C-345.458 501.003 -346.069 494.707 -348.97 489.153 C-349.96 488.823 -350.95 488.493 -351.97 488.153 C-351.97 487.163 -351.97 486.173 -351.97 485.153 C-353.022 483.052 -354.158 480.993 -355.345 478.965 C-355.972 477.879 -356.598 476.792 -357.244 475.672 C-357.813 474.841 -358.383 474.009 -358.97 473.153 C-359.63 473.153 -360.29 473.153 -360.97 473.153 C-361.284 470.986 -361.596 468.82 -361.908 466.653 C-362.092 465.381 -362.276 464.108 -362.466 462.797 C-362.856 459.978 -363.186 457.171 -363.47 454.34 C-363.635 453.288 -363.8 452.237 -363.97 451.153 C-364.63 450.823 -365.29 450.493 -365.97 450.153 C-365.929 449.163 -365.888 448.173 -365.845 447.153 C-365.828 442.914 -366.828 439.221 -367.97 435.153 C-367.31 435.153 -366.65 435.153 -365.97 435.153 C-365.861 433.958 -365.751 432.763 -365.638 431.532 C-364.842 423.38 -364.087 415.803 -360.97 408.153 C-363.24 407.958 -365.511 407.772 -367.783 407.59 C-369.047 407.486 -370.312 407.382 -371.615 407.274 C-374.97 407.153 -374.97 407.153 -377.97 408.153 C-379.333 407.193 -380.658 406.181 -381.97 405.153 C-384.49 403.815 -387.08 402.624 -389.658 401.403 C-395.375 398.638 -400.369 395.718 -405.173 391.5 C-407.113 390.046 -408.601 389.567 -410.97 389.153 C-411.071 388.564 -411.171 387.975 -411.275 387.368 C-412.097 384.75 -413.171 383.652 -415.095 381.715 C-425.797 369.996 -430.874 352.596 -430.255 336.797 C-428.807 323.362 -425.683 311.1 -417.986 299.774 C-416.97 298.153 -416.97 298.153 -415.97 295.153 C-414.637 294.153 -413.304 293.153 -411.97 292.153 C-411.64 291.163 -411.31 290.173 -410.97 289.153 C-409.322 288.123 -407.649 287.132 -405.97 286.153 C-404.565 285.039 -403.171 283.913 -401.783 282.778 C-388.351 272.219 -370.899 267.694 -353.97 269.153 C-339.208 271.272 -326.253 276.579 -315.056 286.649 C-312.97 288.153 -312.97 288.153 -308.97 288.153 C-308.861 287.521 -308.751 286.89 -308.638 286.239 C-307.267 278.502 -305.651 270.828 -303.97 263.153 C-304.63 262.823 -305.29 262.493 -305.97 262.153 C-305.31 261.823 -304.65 261.493 -303.97 261.153 C-302.551 256.612 -302.878 251.859 -302.97 247.153 C-302.64 247.153 -302.31 247.153 -301.97 247.153 C-301.876 239.734 -301.796 232.49 -302.97 225.153 C-303.63 225.153 -304.29 225.153 -304.97 225.153 C-305.595 223.403 -305.595 223.403 -305.97 221.153 C-305.312 219.815 -304.643 218.483 -303.97 217.153 C-302.91 213.834 -301.942 210.494 -300.97 207.149 C-299.97 204.153 -299.97 204.153 -297.97 201.153 C-299.228 200.947 -300.486 200.74 -301.783 200.528 C-306.883 199.424 -310.94 197.155 -315.392 194.493 C-317.965 193.156 -320.116 192.569 -322.97 192.153 C-322.64 191.163 -322.31 190.173 -321.97 189.153 C-324.023 186.905 -324.977 186.151 -327.97 185.153 C-331.091 182.152 -331.421 179.278 -331.759 175.153 C-331.97 173.153 -331.97 173.153 -332.47 171.368 C-334.888 160.658 -333.15 149.72 -327.97 140.153 C-321.245 129.612 -312.099 123.173 -299.97 120.153 C-295.638 119.592 -291.335 119.292 -286.97 119.153 C-286.908 118.699 -286.908 118.699 -286.595 116.403 C-286.499 115.763 -286.402 115.124 -286.302 114.465 C-286.061 112.782 -285.854 111.093 -285.669 109.403 C-284.162 97.706 -278.794 88.025 -269.97 80.153 C-259.945 72.892 -247.131 69.856 -234.88 71.59 C-234.411 71.683 -234.411 71.683 -232.033 72.153 C-231.075 72.338 -230.117 72.524 -229.13 72.715 C-228.774 72.788 -228.774 72.788 -226.97 73.153 C-226.97 73.813 -226.97 74.473 -226.97 75.153 C-223.23 74.591 -221.777 73.175 -219.283 70.403 C-214.272 65.174 -208.652 60.953 -202.823 56.671 C-202.111 56.143 -201.399 55.615 -200.666 55.071 C-200.026 54.604 -199.387 54.138 -198.729 53.657 C-196.97 52.153 -196.97 52.153 -195.364 49.97 C-194.904 49.371 -194.444 48.771 -193.97 48.153 C-193.31 48.153 -192.65 48.153 -191.97 48.153 C-189.697 47.028 -187.534 45.86 -185.345 44.59 C-184.734 44.267 -184.123 43.945 -183.494 43.612 C-181.744 42.586 -181.744 42.586 -178.97 40.153 C-178.572 36.375 -178.572 36.375 -178.97 33.153 C-178.64 33.813 -178.31 34.473 -177.97 35.153 C-177.31 35.483 -176.65 35.813 -175.97 36.153 C-175.97 36.813 -175.97 37.473 -175.97 38.153 C-174.984 37.559 -173.998 36.964 -172.982 36.352 C-142.209 18.289 -106.968 8.111 -71.781 3.052 C-66.148 2.242 -66.148 2.242 -63.97 1.153 C-61.59 0.935 -59.231 0.773 -56.845 0.653 C-56.099 0.614 -55.352 0.575 -54.583 0.534 C-52.932 0.449 -51.28 0.367 -49.629 0.287 C-46.892 0.149 -44.156 -0.009 -41.419 -0.167 C-27.554 -0.916 -13.864 -0.721 0 0 Z M-311.97 289.153 C-311.31 289.813 -310.65 290.473 -309.97 291.153 C-309.97 290.493 -309.97 289.833 -309.97 289.153 C-310.63 289.153 -311.29 289.153 -311.97 289.153 Z M-360.97 466.153 C-359.97 468.153 -359.97 468.153 -359.97 468.153 Z M313.03 531.153 C314.03 533.153 314.03 533.153 314.03 533.153 Z M313.03 534.153 C314.03 536.153 314.03 536.153 314.03 536.153 Z M315.03 534.153 C314.7 535.143 314.37 536.133 314.03 537.153 C313.37 537.153 312.71 537.153 312.03 537.153 C311.824 538.432 311.617 539.71 311.405 541.028 C311.289 541.747 311.173 542.466 311.053 543.208 C311.045 543.849 311.038 544.491 311.03 545.153 C311.69 545.813 312.35 546.473 313.03 547.153 C312.7 548.143 312.37 549.133 312.03 550.153 C311.7 548.833 311.37 547.513 311.03 546.153 C310.7 549.453 310.37 552.753 310.03 556.153 C314.283 554.026 315.162 553.344 317.03 549.153 C317.323 545.602 317.323 545.602 317.217 541.84 C317.19 540.586 317.163 539.332 317.135 538.04 C317.1 537.087 317.066 536.134 317.03 535.153 C316.37 534.823 315.71 534.493 315.03 534.153 Z M-142.97 739.153 C-141.97 741.153 -141.97 741.153 -141.97 741.153 Z " fill="#59380F" transform="translate(506.97021484375,22.84716796875)"/>
<path d="M0 0 C1.03 -0.002 2.06 -0.004 3.122 -0.006 C22.231 -0.002 40.887 1.712 59.75 4.688 C60.433 4.795 61.117 4.903 61.821 5.014 C86.348 8.913 115.315 15.134 134.625 31.797 C140.745 36.479 146.559 37.032 154 37.75 C183.421 41.097 205.451 54.12 226.688 74.375 C227.542 75.165 228.397 75.955 229.277 76.77 C240.045 87.027 248.303 99.536 255.688 112.375 C256.04 112.979 256.393 113.584 256.756 114.207 C271.921 140.435 278.935 169.535 282.688 199.375 C282.78 200.063 282.872 200.75 282.967 201.459 C284.45 212.542 285.105 223.66 285.743 234.818 C286.389 246.012 287.396 257.116 288.722 268.253 C289.433 274.334 290.115 280.256 289.688 286.375 C288.191 288.234 286.587 289.649 284.777 291.203 C280.371 295.783 277.663 301.803 274.688 307.375 C274.028 307.375 273.367 307.375 272.688 307.375 C272.584 307.066 272.584 307.066 272.059 305.504 C268.593 295.976 263.787 288.674 254.716 283.757 C251.316 282.205 247.95 281.198 244.348 280.207 C243.723 280.034 243.723 280.034 240.559 279.156 C240.085 279.027 240.085 279.027 237.688 278.375 C237.674 278.101 237.674 278.101 237.607 276.712 C235.313 229.718 235.313 229.718 232.188 208.188 C232.086 207.469 231.985 206.75 231.88 206.01 C229.46 189.147 229.46 189.147 225.688 185.375 C219.355 184.906 219.355 184.906 216.953 186.594 C215.238 189.008 215.474 190.195 215.812 193.125 C215.87 193.656 215.87 193.656 216.16 196.344 C216.557 199.473 216.996 202.595 217.434 205.719 C217.707 207.687 217.979 209.656 218.25 211.625 C218.387 212.616 218.523 213.607 218.664 214.628 C219.752 222.937 220.016 231.004 219.688 239.375 C215.119 238.828 211.824 236.868 208.062 234.375 C207.445 233.969 206.827 233.563 206.191 233.145 C173.624 211.4 151.188 177.897 142.812 139.625 C142.422 137.545 142.046 135.461 141.688 133.375 C141.318 131.436 140.944 129.499 140.562 127.562 C140.416 126.772 140.269 125.982 140.117 125.168 C139.688 123.375 139.688 123.375 138.688 122.375 C132.892 121.908 132.892 121.908 130.688 122.375 C127.73 125.339 126.755 128.759 125.5 132.688 C112.193 171.611 77.279 200.759 41.454 218.48 C18.458 229.598 -5.154 235.563 -30.719 235.56 C-32.771 235.563 -34.822 235.581 -36.873 235.6 C-38.172 235.602 -39.471 235.603 -40.809 235.605 C-41.986 235.61 -43.164 235.614 -44.377 235.618 C-47.312 235.375 -47.312 235.375 -50.312 233.375 C-49.308 232.697 -48.304 232.019 -47.27 231.32 C-32.62 221.375 -18.849 210.95 -6.312 198.375 C-5.893 197.973 -5.893 197.973 -3.77 195.938 C10.316 182.289 25.045 163.523 30.688 144.375 C30.457 140.57 30.457 140.57 29.688 137.375 C26.731 135.897 23.945 136.315 20.688 136.375 C20.532 136.672 20.532 136.672 19.745 138.172 C11.489 153.826 3.16 167.974 -9.012 180.922 C-11.021 183.064 -12.924 185.253 -14.812 187.5 C-55.018 233.502 -121.037 251.843 -178.312 264.375 C-179.487 264.633 -180.662 264.892 -181.872 265.158 C-185.204 265.886 -188.539 266.603 -191.875 267.312 C-192.862 267.524 -193.85 267.736 -194.867 267.954 C-195.778 268.143 -196.69 268.332 -197.629 268.527 C-198.417 268.692 -199.206 268.857 -200.018 269.027 C-202.481 269.401 -204.825 269.435 -207.312 269.375 C-207.338 268.772 -207.364 268.168 -207.391 267.547 C-207.661 263.737 -207.902 261.038 -209.938 257.75 C-212.312 256.375 -212.312 256.375 -215.938 256.438 C-219.312 257.375 -219.312 257.375 -221.312 260.375 C-221.631 262.276 -221.631 262.276 -221.727 264.387 C-221.765 265.144 -221.804 265.901 -221.844 266.682 C-221.875 267.467 -221.906 268.253 -221.938 269.062 C-221.976 269.86 -222.015 270.657 -222.055 271.479 C-222.149 273.444 -222.232 275.409 -222.312 277.375 C-223.063 277.583 -223.813 277.79 -224.586 278.004 C-236.083 281.465 -245.4 287.375 -252.312 297.375 C-259.091 310.915 -260.992 326.809 -257.477 341.719 C-251.589 359.263 -240.362 370.249 -224.312 378.375 C-220.046 380.35 -216.522 381.382 -211.781 381.355 C-207.456 381.446 -204.339 381.746 -200.312 383.375 C-196.281 387.769 -194.106 393.601 -191.577 398.931 C-173.611 433.663 -136.402 453.376 -101.312 466.375 C-102.039 467.102 -102.766 467.828 -103.515 468.577 C-106.035 471.098 -108.552 473.621 -111.068 476.146 C-115.607 480.702 -120.149 485.255 -124.693 489.807 C-127.431 492.55 -130.168 495.295 -132.903 498.041 C-135.565 500.714 -138.229 503.384 -140.896 506.053 C-141.903 507.062 -142.91 508.072 -143.915 509.084 C-149.008 514.203 -154.122 519.232 -159.615 523.924 C-161.339 525.398 -163.022 526.91 -164.699 528.438 C-178.047 540.406 -190.011 546.924 -208.312 546.375 C-208.41 545.674 -208.508 544.972 -208.609 544.25 C-210.19 534.22 -213.463 526.149 -221.312 519.375 C-229.832 514.166 -236.708 512.197 -246.625 512.312 C-247.366 512.317 -248.106 512.322 -248.869 512.326 C-250.684 512.338 -252.498 512.356 -254.312 512.375 C-254.425 512.093 -254.425 512.093 -254.992 510.664 C-257.903 503.36 -260.878 496.082 -263.875 488.812 C-264.337 487.684 -264.799 486.555 -265.275 485.393 C-267.704 479.505 -270.179 473.648 -272.785 467.836 C-279.845 452.075 -286.137 436.11 -292.188 419.938 C-293.556 416.284 -294.928 412.631 -296.305 408.981 C-297.151 406.74 -297.992 404.497 -298.826 402.252 C-301.021 396.432 -303.435 390.956 -306.481 385.527 C-307.474 382.957 -307.392 381.887 -306.312 379.375 C-304.363 377.778 -302.444 376.359 -300.375 374.938 C-285.61 364.158 -277.143 348.267 -273.758 330.457 C-272.117 319.102 -273.105 306.789 -278.312 296.375 C-278.623 291.991 -278.045 289.23 -276.125 285.312 C-269.568 270.286 -267.444 253.51 -265.312 237.375 C-262.903 238.308 -260.559 239.246 -258.27 240.445 C-249.245 244.883 -238.499 244.821 -228.836 242.562 C-218.217 238.611 -210.521 230.637 -204.312 221.375 C-201.363 222.754 -198.87 224.388 -196.25 226.312 C-187.449 232.213 -177.696 233.552 -167.371 231.906 C-154.933 229.237 -145.978 223.025 -139 212.371 C-133.76 202.835 -133.086 192.201 -135.938 181.875 C-137.565 176.858 -139.513 173.051 -142.945 169.059 C-144.402 167.264 -145.35 165.47 -146.312 163.375 C-146.017 163.182 -146.017 163.182 -144.52 162.203 C-142.105 160.612 -139.707 158.997 -137.312 157.375 C-136.426 156.777 -135.539 156.179 -134.625 155.562 C-126.84 148.198 -123.328 139.453 -122.859 128.931 C-122.634 117.387 -125.02 108.898 -132.625 99.938 C-139.906 92.403 -147.435 88.188 -158.04 87.996 C-158.852 87.997 -159.664 87.999 -160.5 88 C-161.337 87.999 -162.174 87.997 -163.036 87.996 C-169.698 88.109 -175.318 89.358 -181.312 92.375 C-181.543 91.625 -181.774 90.875 -182.012 90.102 C-184.221 83.169 -186.857 76.777 -190.312 70.375 C-141.227 18.862 -69.265 0.014 0 0 Z " fill="#FB9232" transform="translate(486.3125,39.625)"/>
<path d="M0 0 C2.647 2.647 3.419 5.665 4.625 9.125 C7.757 17.776 11.656 25.898 16 34 C16.469 34.879 16.938 35.758 17.422 36.664 C32.872 63.838 55.949 83.997 83 99 C85.337 100.327 87.669 101.663 90 103 C90.358 123.917 90.05 144.253 87 165 C86.888 165.8 86.776 166.599 86.66 167.423 C81.621 202.62 69.54 233.948 45 260 C44.35 260.726 43.701 261.451 43.031 262.199 C20.185 286.671 -13.892 297.996 -45.938 303.688 C-46.987 303.878 -48.036 304.068 -49.118 304.264 C-73.083 308.276 -96.971 309.485 -121.212 309.323 C-123.938 309.309 -126.663 309.314 -129.388 309.319 C-152.723 309.352 -175.877 308.406 -198.875 304.25 C-199.613 304.12 -200.352 303.989 -201.113 303.855 C-213.018 301.741 -224.658 299.264 -236 295 C-236.846 294.682 -237.693 294.364 -238.564 294.036 C-255.469 287.525 -271.326 278.992 -285 267 C-285.826 266.305 -286.653 265.61 -287.504 264.895 C-323.716 233.659 -335.16 183.413 -338.623 137.783 C-338.78 135.19 -338.892 132.596 -339 130 C-332.439 128.278 -325.859 126.728 -319.211 125.379 C-283.334 118.058 -245.35 109.584 -212.343 93.307 C-206.063 90.224 -202.007 88.279 -194.875 89.938 C-194.399 90.107 -194.399 90.107 -191.992 90.965 C-185.653 93.158 -178.852 93.188 -172.199 93.309 C-171.373 93.324 -170.547 93.339 -169.697 93.355 C-149.999 93.652 -131.964 92.943 -113 87 C-112.134 86.733 -111.268 86.465 -110.375 86.19 C-104.788 84.412 -99.381 82.323 -94 80 C-93.174 79.645 -92.347 79.289 -91.496 78.923 C-63.726 66.765 -36.003 49.095 -17 25 C-16.296 24.111 -15.592 23.221 -14.867 22.305 C-9.364 15.16 -4.588 7.751 0 0 Z " fill="#FDD5A7" transform="translate(618,195)"/>
<path d="M0 0 C7.279 0.559 13.797 2.188 20.75 4.375 C21.876 4.727 23.002 5.08 24.163 5.443 C51.158 14.052 79.075 24.352 103.21 39.461 C107.061 41.804 109.529 42.398 114 42 C117.019 40.738 117.019 40.738 120.242 38.957 C121.469 38.295 122.695 37.633 123.922 36.971 C124.565 36.619 125.207 36.268 125.869 35.905 C193.749 -1.074 193.749 -1.074 224 0 C236.249 32.062 226.78 72.321 217.8 104.012 C214.752 115.393 214.39 127.375 220 138 C223.781 144.215 229.19 147.628 236 150 C241.38 150.998 245.353 149.791 250 147 C251.914 144.672 251.914 144.672 253.625 141.75 C253.949 141.204 254.274 140.658 254.608 140.096 C257.395 135.305 259.874 130.359 262.386 125.42 C267.185 116 271.773 107.78 279 100 C279.642 99.172 280.284 98.345 280.945 97.492 C296.905 78.135 324.832 67.363 349 64 C351.528 63.921 354.057 63.892 356.586 63.902 C357.288 63.904 357.99 63.905 358.713 63.907 C360.933 63.912 363.154 63.925 365.375 63.938 C366.889 63.943 368.404 63.947 369.918 63.951 C373.612 63.962 377.306 63.979 381 64 C379.957 66.621 378.902 69.234 377.816 71.838 C374.126 80.949 372.144 89.996 370.328 99.627 C366.581 118.454 357.659 136.237 342.234 148.133 C328.43 157.244 315.086 160.008 299 162 C298.812 165.348 298.812 165.348 299 169 C302.121 171.536 305.174 173.112 308.772 174.862 C310.787 175.843 312.8 176.827 314.812 177.812 C315.509 178.153 316.205 178.494 316.922 178.845 C336.479 188.609 349.366 204.877 356.831 225.269 C358.587 230.582 360.049 235.972 361.5 241.375 C361.944 242.972 362.389 244.568 362.836 246.164 C366 257.567 366 257.567 366 260 C341.317 263.089 316.617 260.859 294 250 C293.692 249.854 293.692 249.854 292.132 249.114 C264.209 235.682 249.385 214.364 239.211 185.652 C238 183 238 183 235 181 C227.857 180.026 221.481 182.951 214.812 185.25 C206.259 188.1 197.794 190.776 188.938 192.5 C188.561 192.574 188.561 192.574 186.657 192.946 C162.944 197.245 134.464 197.634 111 192 C110.044 191.774 109.089 191.549 108.104 191.316 C71.547 182.42 35.99 164.55 15 132 C-8.876 92.352 -11.591 47.399 -0.77 3.023 C-0.516 2.026 -0.262 1.028 0 0 Z " fill="#5DC1A0" transform="translate(383,669)"/>
<path d="M0 0 C2.8 1.493 4.703 3.714 6.875 6 C11.539 8.332 17.818 7.604 22.684 6.176 C25.863 4.905 28.917 3.581 31.848 1.805 C34.615 0.706 36.083 1.03 38.875 2 C40.648 3.637 40.648 3.637 42.25 5.688 C47.938 12.523 53.167 16.463 61.422 19.922 C63.875 21 63.875 21 66.875 23 C66.174 23.753 65.472 24.506 64.75 25.281 C49.62 42.011 42.785 60.833 43.559 83.355 C44.252 95.677 48.477 107.904 57.77 116.438 C65.022 121.82 72.961 124.856 81.875 126 C81.875 127.65 81.875 129.3 81.875 131 C81.386 131.013 81.386 131.013 78.91 131.078 C68.01 131.55 59.952 133.225 51.734 140.801 C43.631 150.385 41.989 160.883 42.875 173 C45.078 184.108 50.723 192.312 59.941 198.781 C62.498 200.392 65.121 201.761 67.875 203 C64.126 211.861 56.38 217.103 47.875 221 C44.782 222.052 41.643 222.922 38.5 223.812 C32.67 225.524 29.086 226.809 25.812 232.25 C25.574 232.724 25.574 232.724 24.367 235.125 C21.761 240.147 17.815 243.992 13.875 248 C13.227 248.661 12.578 249.323 11.91 250.004 C6.837 254.807 1.352 257.492 -5.125 260 C-5.492 260.16 -5.492 260.16 -7.348 260.973 C-18.447 265.181 -32.112 264.02 -43.375 261.062 C-49.451 259.655 -49.451 259.655 -52.438 261.184 C-54.375 263 -54.375 263 -56.168 265.012 C-61.969 270.905 -72.471 274.025 -80.57 274.23 C-82.13 274.227 -83.69 274.212 -85.25 274.188 C-86.035 274.187 -86.82 274.186 -87.629 274.186 C-91.612 274.155 -95.219 273.854 -99.125 273 C-99.275 272.04 -99.426 271.081 -99.581 270.092 C-103.084 247.858 -107.054 226.005 -113.316 204.352 C-113.503 203.706 -113.689 203.061 -113.881 202.396 C-114.795 199.241 -115.724 196.091 -116.673 192.945 C-117.007 191.821 -117.34 190.697 -117.684 189.539 C-117.986 188.541 -118.288 187.543 -118.599 186.514 C-119.125 184 -119.125 184 -118.125 181 C-117.723 181.472 -117.322 181.945 -116.908 182.431 C-112.221 187.874 -107.278 192.998 -102.188 198.062 C-101.808 198.444 -101.808 198.444 -99.885 200.377 C-94.044 206.208 -88.081 211.799 -81.492 216.781 C-74.266 222.329 -70.052 226.849 -67.177 235.548 C-64.542 243.337 -59.34 249.31 -52.312 253.562 C-45.032 256.846 -37.039 257.139 -29.375 254.812 C-23.929 252.749 -19.399 249.911 -16.125 245 C-13.07 244.262 -13.07 244.262 -9.25 243.688 C0.217 242.032 9.762 238.939 15.695 230.898 C20.379 223.361 22.028 216.935 20.875 208 C18.742 199.891 14.888 193.775 7.812 189.125 C2.718 186.191 -2.655 184.167 -8.125 182.062 C-19.435 177.681 -27.429 171.912 -36.289 163.625 C-38.452 161.623 -40.634 159.675 -42.859 157.744 C-57.785 144.702 -71.667 130.557 -85.625 116.5 C-88.572 113.533 -91.52 110.566 -94.471 107.603 C-96.29 105.777 -98.107 103.948 -99.921 102.117 C-104.82 97.198 -109.823 92.484 -115.125 88 C-113.837 85.425 -112.95 85.375 -110.285 84.406 C-109.478 84.104 -108.672 83.801 -107.841 83.489 C-106.965 83.163 -106.09 82.836 -105.188 82.5 C-83.867 74.228 -65.387 62.038 -49.125 46 C-48.189 45.077 -47.253 44.154 -46.289 43.203 C-38.05 34.792 -31.152 24.948 -26.367 14.16 C-22.412 5.515 -22.412 5.515 -18.273 3.859 C-15.125 3.375 -15.125 3.375 -12 3.191 C-9.229 3.007 -7.579 2.534 -5.125 1.312 C-2.125 0 -2.125 0 0 0 Z " fill="#FA9232" transform="translate(724.125,418)"/>
<path d="M0 0 C13.224 9.875 21.385 23.724 24 40 C24.283 43.402 24.335 46.775 24.312 50.188 C24.307 51.108 24.301 52.029 24.295 52.977 C23.999 69.738 18.29 83.974 10.493 98.539 C0.038 118.078 -5.01 137.319 0.438 159.562 C2.153 165.004 4.253 170.295 6.299 175.62 C15.75 200.255 20.478 223.819 10.75 249.312 C4.256 263.866 -7.512 273.063 -22 279 C-33.006 282.407 -48.49 283.595 -59 278.266 C-66.432 273.563 -73.163 268.697 -76 260 C-76.839 252.604 -77.133 245.735 -72.492 239.613 C-68.327 235.11 -64.088 231.2 -57.688 230.887 C-55.454 230.876 -53.232 230.912 -51 231 C-51.272 237.131 -53.57 241.094 -56.82 246.254 C-58.283 249.66 -57.999 251.473 -57 255 C-54.117 258.579 -51.143 260.706 -46.555 261.336 C-38.985 261.446 -32.087 260.483 -26.148 255.422 C-20.484 249.227 -18.445 242.862 -18.562 234.625 C-18.567 234.25 -18.567 234.25 -18.588 232.354 C-18.859 223.451 -21.868 217.311 -27.988 210.844 C-34.932 204.48 -42.583 201.954 -51.579 199.823 C-60.181 197.72 -65.868 193.145 -71 186 C-76.705 174.923 -76.513 160.58 -73.438 148.75 C-68.335 133.107 -57.637 120.139 -44.801 110.098 C-43 108 -43 108 -42.48 104.996 C-43 102 -43 102 -44.492 99.68 C-47.909 97.391 -51.139 97.336 -55.125 97.125 C-65.515 96.229 -72.198 92.37 -79.438 84.879 C-81 83 -81 83 -82.375 80.777 C-85.697 75.426 -85.697 75.426 -89.293 74.25 C-96.279 73.755 -101.786 76.35 -107.785 79.596 C-110.608 81.091 -112.606 82.008 -115.832 81.941 C-118 81 -118 81 -119.145 79.398 C-120.802 74.379 -122.507 69.013 -120 64 C-118.866 63.974 -117.731 63.948 -116.562 63.922 C-99.348 63.348 -99.348 63.348 -93.125 57.125 C-90.682 52.511 -89.731 47.792 -89.013 42.682 C-86.695 26.251 -80.437 12.649 -67.477 1.781 C-47.317 -12.718 -20.961 -12.991 0 0 Z " fill="#FA9232" transform="translate(856,331)"/>
<path d="M0 0 C14.784 10.809 27.86 24.057 40.809 36.945 C41.499 37.631 42.189 38.316 42.899 39.022 C46.175 42.308 49.335 45.64 52.363 49.156 C55.322 52.582 58.442 55.676 61.809 58.695 C62.942 59.725 64.075 60.755 65.207 61.785 C65.787 62.311 66.367 62.837 66.964 63.378 C68.773 65.033 70.563 66.706 72.348 68.387 C78.924 74.577 85.542 80.544 92.746 86.008 C93.427 86.576 94.107 87.145 94.809 87.73 C101.446 92.934 108.971 95.734 116.815 98.636 C123.247 101.09 129.249 103.841 132.911 109.951 C134.725 114.419 134.187 118.71 132.684 123.133 C129.884 127.287 126.258 130.752 121.746 133.008 C119.773 132.91 117.801 132.809 115.829 132.688 C105.876 132.184 105.876 132.184 102.5 134.645 C101.093 136.707 99.922 138.808 98.746 141.008 C95.114 144.387 92.218 145.341 87.371 145.695 C82.082 145.465 79.111 144.013 75.402 140.273 C71.892 135.472 69.976 129.859 69.5 123.949 C68.452 119.862 66.558 118.883 63.121 116.508 C50.51 107.37 39.753 96.098 28.746 85.133 C28.251 84.641 27.756 84.149 27.247 83.642 C22.063 78.479 16.964 73.289 12.242 67.695 C10.746 66.008 10.746 66.008 7.941 63.57 C4.879 59.996 4.398 56.566 3.621 52.008 C1.837 42.108 1.837 42.108 -1.254 38.008 C-4.053 36.608 -6.159 36.755 -9.254 37.008 C-10.945 38.523 -10.945 38.523 -12.254 40.008 C-12.776 39.621 -13.298 39.234 -13.836 38.836 C-27.309 29.303 -43.303 26.462 -59.559 28.402 C-75.686 31.237 -91.35 39.803 -101.254 53.008 C-104.721 51.518 -106.945 49.511 -109.629 46.883 C-124.997 32.907 -142.531 27.842 -162.941 28.594 C-173.248 29.239 -180.651 32.806 -189.074 38.617 C-191.254 40.008 -191.254 40.008 -193.254 40.008 C-193.46 39.76 -193.46 39.76 -194.504 38.508 C-196.254 37.008 -196.254 37.008 -199.191 36.445 C-202.254 37.008 -202.254 37.008 -204.301 39.43 C-206.881 43.575 -207.596 48.096 -208.566 52.82 C-210.38 60.739 -212.385 66.197 -218.254 72.008 C-219.759 73.691 -221.258 75.379 -222.754 77.07 C-223.135 77.487 -223.135 77.487 -225.062 79.598 C-227.017 81.748 -228.923 83.929 -230.816 86.133 C-242.958 100.037 -257.667 112.023 -272.926 122.355 C-275.501 124.183 -277.894 126.17 -280.316 128.195 C-289.031 135.277 -298.084 138.073 -309.254 137.008 C-316.248 135.167 -322.595 132.074 -326.656 125.863 C-327.947 123.608 -329.144 121.357 -330.254 119.008 C-330.436 118.624 -330.436 118.624 -331.359 116.68 C-333.277 110.951 -333.086 104.922 -332.254 99.008 C-330.762 96.177 -329.187 94.142 -326.98 91.84 C-325.254 90.008 -325.254 90.008 -324.399 87.934 C-323.254 86.008 -323.254 86.008 -321.429 85.449 C-320.697 85.418 -319.965 85.387 -319.211 85.355 C-318.392 85.304 -317.573 85.253 -316.729 85.2 C-316.289 85.179 -316.289 85.179 -314.066 85.07 C-294.498 83.591 -279.637 75.864 -265.677 62.37 C-263.497 60.283 -261.251 58.272 -259.004 56.258 C-258.277 55.603 -257.55 54.948 -256.801 54.273 C-255.391 53.019 -253.976 51.77 -252.542 50.544 C-247.474 46.189 -242.754 41.582 -238.09 36.801 C-236.54 35.228 -234.989 33.656 -233.438 32.084 C-231.037 29.647 -228.64 27.207 -226.251 24.759 C-216.843 15.128 -207.599 6.308 -196.254 -0.992 C-195.264 -1.652 -194.274 -2.312 -193.254 -2.992 C-191.166 -3.039 -191.166 -3.039 -188.652 -2.742 C-187.671 -2.633 -186.69 -2.523 -185.679 -2.41 C-185.114 -2.341 -185.114 -2.341 -182.254 -1.992 C-180.242 -1.762 -178.231 -1.533 -176.219 -1.303 C-173.985 -1.048 -171.75 -0.79 -169.516 -0.531 C-168.75 -0.443 -167.985 -0.354 -167.197 -0.263 C-165.669 -0.084 -164.142 0.096 -162.615 0.278 C-142.901 2.626 -123.221 3.216 -103.379 3.195 C-102.894 3.195 -102.894 3.195 -100.437 3.194 C-72.651 3.159 -45.052 1.603 -17.697 -3.559 C-10.589 -4.82 -6.101 -3.993 0 0 Z " fill="#FDD6A9" transform="translate(597.25390625,514.9921875)"/>
<path d="M0 0 C8.538 4.507 13.204 12.156 16.184 21.094 C16.378 24.464 16.528 27.827 16.613 31.201 C16.799 35.373 17.056 38.173 20.184 41.094 C23.24 41.842 24.278 42.012 27.184 41.094 C29.861 39.233 32.299 37.183 34.785 35.074 C40.488 30.365 45.909 29.471 53.117 29.688 C60.086 30.611 65.352 33.57 69.684 39.094 C74.737 46.38 75.208 53.701 73.824 62.336 C71.325 70.745 63.827 76.432 56.434 80.469 C54.684 81.344 52.934 82.219 51.184 83.094 C46.432 85.845 46.432 85.845 45.184 87.094 C44.809 89.844 44.809 89.844 45.184 93.094 C46.796 95.019 48.302 96.463 50.184 98.094 C57.872 105.216 62.204 110.079 62.684 120.906 C62.496 128.565 60.676 134.276 55.469 139.969 C48.747 146.087 41.992 146.71 33.211 146.469 C25.942 145.993 20.535 142.938 15.746 137.531 C14.241 135.616 12.986 133.759 11.746 131.656 C10.184 130.094 10.184 130.094 6.934 129.219 C1.77 130.424 0.627 132.951 -2.137 137.293 C-2.691 138.217 -3.245 139.141 -3.816 140.094 C-8.623 148.007 -13.705 154.179 -22.816 157.094 C-30.317 157.892 -37.936 158.458 -44.172 153.648 C-49.885 148.248 -53.334 143.883 -54.152 135.762 C-54.26 126.194 -52.856 119.994 -47.066 112.406 C-45.25 109.977 -44.805 109.03 -44.254 105.906 C-44.974 102.306 -45.918 101.329 -48.816 99.094 C-51.439 98.61 -53.803 98.321 -56.441 98.156 C-66.704 97.166 -73.695 94.2 -80.441 86.156 C-84.785 79.641 -84.634 72.685 -83.816 65.094 C-81.653 58.795 -76.263 53.738 -70.816 50.094 C-62.01 46.455 -52.762 47.583 -43.816 50.094 C-40.176 50.444 -38.544 50.553 -35.441 48.594 C-34.905 48.099 -34.369 47.604 -33.816 47.094 C-34.239 43.081 -34.685 39.519 -35.879 35.656 C-37.911 27.933 -37.513 19.085 -33.664 11.961 C-25.924 0.682 -13.207 -4.25 0 0 Z " fill="#F6989F" transform="translate(274.81640625,111.90625)"/>
<path d="M0 0 C2.46 2.993 3.847 5.802 5.172 9.434 C5.376 9.986 5.376 9.986 6.412 12.781 C6.853 13.988 7.295 15.194 7.75 16.438 C8.731 19.075 9.72 21.71 10.711 24.344 C10.972 25.039 11.234 25.733 11.503 26.449 C14.671 34.828 18.008 43.137 21.375 51.438 C21.693 52.221 22.01 53.004 22.337 53.811 C26.646 64.416 31.096 74.952 35.688 85.438 C39.922 95.112 44.049 104.819 48 114.612 C48.536 115.941 49.075 117.269 49.617 118.597 C50.362 120.429 51.097 122.265 51.832 124.102 C52.252 125.147 52.672 126.191 53.105 127.268 C54 130 54 130 54 134 C52.426 135.57 52.426 135.57 50.312 137.125 C44.779 141.658 42.229 147.314 40 154 C38.964 165.948 40.466 175.776 48.25 185.375 C53.824 191.204 60.971 196.587 69.259 197.155 C71.801 197.196 74.333 197.175 76.875 197.125 C77.754 197.116 78.633 197.107 79.539 197.098 C81.693 197.074 83.846 197.038 86 197 C86.159 197.895 86.317 198.789 86.48 199.711 C88.877 212.133 92.808 223.009 103.355 230.723 C105.85 232.297 108.362 233.683 111 235 C111.674 235.342 112.348 235.683 113.043 236.035 C122.427 239.938 135.447 239.338 144.871 235.91 C145.574 235.61 146.276 235.309 147 235 C147.692 234.71 148.384 234.42 149.098 234.121 C155.163 231.328 160.202 227.293 165.34 223.082 C169.533 219.657 173.682 216.501 178.312 213.688 C185.124 209.464 191.007 204.286 197 199 C197.866 198.246 198.732 197.492 199.625 196.715 C206.369 190.76 212.685 184.402 219 178 C219.999 176.999 220.999 175.999 222 175 C220.551 182.398 218.304 189.409 215.918 196.554 C208.552 218.698 203.356 241.078 199 264 C185.046 267.791 171.424 266.428 158.5 259.738 C155.4 257.582 152.98 254.949 150.438 252.188 C145.866 247.311 145.866 247.311 142.727 246.184 C139.443 246.095 136.655 246.813 133.512 247.711 C116.413 252.596 99.335 251.255 83.688 242.75 C74.91 237.303 66.259 229.312 63.448 218.968 C62.822 216.76 62.215 214.951 61 213 C58.013 211.931 56.067 211.502 53 211.25 C51.452 211.046 49.905 210.835 48.359 210.617 C47.984 210.567 47.984 210.567 46.084 210.315 C32.054 208.192 20.581 198.911 12.09 188.039 C4.22 176.594 0.55 162.836 2 149 C3.668 140.939 6.465 133.399 9.852 125.914 C15.077 112.655 15.133 96.863 9.702 83.689 C7.36 78.423 4.62 73.347 1.835 68.305 C-4.317 57.115 -7.398 45.679 -7.375 32.938 C-7.374 32.029 -7.373 31.12 -7.372 30.183 C-7.187 19.47 -5.075 9.525 0 0 Z " fill="#FA9433" transform="translate(165,427)"/>
<path d="M0 0 C0.33 0.34 0.33 0.34 2 2.062 C17.95 17.879 34.983 24.288 57.293 24.317 C74.231 24.12 86.697 18.191 100 8 C101.131 11.644 102.254 15.291 103.375 18.938 C103.692 19.959 104.009 20.981 104.336 22.033 C109.156 37.749 109.156 37.749 109 45 C108.467 45.144 107.933 45.288 107.384 45.436 C72.997 54.838 38.113 66.593 6.96 84.149 C1.761 86.985 1.761 86.985 -1.445 87.047 C-5.424 85.416 -9.117 83.332 -12.875 81.25 C-32.719 70.623 -53.618 62.554 -74.938 55.438 C-75.307 55.314 -75.307 55.314 -77.179 54.686 C-87.346 51.299 -97.571 48.459 -108 46 C-106.936 39.126 -105.407 32.452 -103.562 25.75 C-103.357 24.994 -103.152 24.238 -102.941 23.459 C-101.628 18.782 -100.008 14.425 -98 10 C-95.145 11.327 -92.822 12.84 -90.375 14.812 C-76.616 25.182 -60.27 27.839 -43.363 25.496 C-26.671 22.282 -12.26 14.858 -1 2 C-0.67 1.34 -0.34 0.68 0 0 Z " fill="#FCD6A9" transform="translate(495,609)"/>
<path d="M0 0 C0.739 0.006 1.479 0.011 2.241 0.017 C16.275 0.325 28.369 5.332 38.617 14.992 C50.761 28.204 53.666 41.433 53.129 58.859 C52.391 72.454 45.853 84.207 35.965 93.469 C23.704 103.675 9.246 108.259 -6.645 107.145 C-20.911 105.326 -33.395 97.424 -42.25 86.312 C-50.766 74.012 -53.905 60.053 -52.25 45.312 C-49.42 30.715 -41.982 18.396 -30.25 9.312 C-20.958 3.204 -11.095 -0.09 0 0 Z " fill="#C9E7E7" transform="translate(145.25,307.6875)"/>
<path d="M0 0 C6.653 5.094 12.069 11.964 13.559 20.418 C13.826 28.811 10.281 35.339 4.75 41.5 C-7.467 52.929 -22.551 54.916 -38.5 54.625 C-44.542 54.372 -49.506 53.27 -54.812 50.312 C-55.617 49.888 -56.421 49.464 -57.25 49.027 C-64.246 44.896 -68.152 39.389 -71.188 31.938 C-72.91 21.949 -72.079 13.662 -66.34 5.121 C-50.377 -14.767 -19.688 -13.382 0 0 Z " fill="#C5B0CB" transform="translate(473.8125,566.6875)"/>
<path d="M0 0 C7.325 5.779 12.258 12.874 13.527 22.266 C13.847 30.865 11.724 37.271 6.246 43.91 C-0.667 51.186 -9.691 55.683 -19.746 55.996 C-31.473 56.279 -41.154 56.075 -51.816 50.723 C-52.276 50.5 -52.276 50.5 -54.602 49.371 C-62.199 45.269 -68.707 39.41 -71.879 31.223 C-73.559 24.909 -73.027 19.342 -69.754 13.66 C-62.058 2.663 -51.758 -3.666 -38.719 -6.809 C-25.663 -8.917 -11.165 -7.462 0 0 Z " fill="#C5AFCB" transform="translate(575.81640625,564.27734375)"/>
<path d="M0 0 C6.866 4.964 11.249 12.772 13 21 C14.162 35.488 13.736 48.59 3.965 60.117 C-1.189 65.056 -6.55 66.238 -13.562 66.562 C-19.654 66.35 -23.479 65.066 -28 61 C-28.553 60.504 -29.106 60.007 -29.676 59.496 C-37.429 51.512 -39.409 39.809 -39.277 29.066 C-38.314 18.412 -34.011 8.223 -25.938 1.062 C-17.9 -4.581 -8.714 -4.469 0 0 Z " fill="#59390F" transform="translate(619,335)"/>
<path d="M0 0 C6.993 4.567 11.016 11.998 13.375 19.938 C15.864 32.359 13.809 45.331 7 56 C2.481 61.594 -1.4 64.605 -8.707 65.406 C-20.921 65.863 -20.921 65.863 -25.75 62.312 C-27.531 60.633 -27.531 60.633 -29 59 C-29.743 58.237 -30.485 57.474 -31.25 56.688 C-37.847 46.556 -39.102 35.853 -38 24 C-35.72 13.813 -30.543 5.054 -22 -1 C-15.234 -5.023 -6.574 -3.666 0 0 Z " fill="#59380E" transform="translate(396,335)"/>
<path d="M0 0 C7.558 4.68 11.236 9.872 14.031 18.258 C14.861 27.199 13.967 34.946 8.523 42.293 C3.609 47.676 -1.848 50.71 -9.082 51.672 C-17.847 52.063 -24.421 50.29 -31.035 44.426 C-37.845 37.218 -39.648 30.347 -39.375 20.508 C-38.363 12.415 -34.311 6.644 -27.992 1.664 C-19.489 -4.246 -9.204 -4.769 0 0 Z " fill="#56340E" transform="translate(284.96875,170.7421875)"/>
<path d="M0 0 C2.899 2.095 5.437 4.512 8 7 C15.889 14.266 24.406 15.511 34.755 15.497 C38.238 15.55 40.39 15.621 43.391 17.488 C45.662 21.033 46.437 24.616 47.375 28.688 C50.846 42.283 57.44 49.472 69 57 C71 59 71 59 71 62.375 C70.422 66.393 68.832 69.493 66.938 73.062 C64.537 77.684 63.021 80.714 64 86 C65.468 90.296 67.294 94.408 69.133 98.555 C70.421 102.187 70.217 105.407 69 109 C64.634 114.038 59.405 115.583 53 117 C52.34 117 51.68 117 51 117 C51.217 115.875 51.433 114.749 51.656 113.59 C56.042 89.862 54.338 67.32 41.188 46.625 C30.03 30.912 15.553 22.919 -3.255 19.661 C-6.832 19.072 -10.413 18.526 -14 18 C-14.153 11.277 -13.467 6.6 -8.688 1.562 C-5.264 -0.428 -3.901 -0.841 0 0 Z " fill="#F99733" transform="translate(839,290)"/>
<path d="M0 0 C0.09 0.929 0.18 1.859 0.272 2.816 C2.635 26.688 5.978 49.7 14.117 72.402 C15 75 15 75 15 77 C3.96 76.197 -5.453 71.256 -13.191 63.328 C-22.431 51.434 -24.171 38.568 -23 24 C-21.456 16.23 -16.943 10.126 -11 5 C-2.904 0 -2.904 0 0 0 Z " fill="#FCD7AC" transform="translate(265,331)"/>
<path d="M0 0 C4.317 2.747 7.366 6.115 9 11 C10.014 18.447 9.439 24.817 5 31 C2.562 33.75 2.562 33.75 0 36 C-0.804 36.722 -1.609 37.444 -2.438 38.188 C-7.34 41.655 -12.056 42.693 -18 42 C-25.381 39.477 -30.156 35.787 -34 29 C-36.074 24.476 -36.862 19.929 -36 15 C-32.989 7.082 -27.908 2.171 -20.625 -1.875 C-13.271 -4.157 -6.851 -3.485 0 0 Z " fill="#FCD6AA" transform="translate(254,569)"/>
<path d="M0 0 C1.599 0.459 3.196 0.924 4.793 1.391 C5.683 1.649 6.572 1.907 7.489 2.173 C13.886 4.28 17.857 8.215 21 14 C25.69 24.486 25.248 37.118 22 48 C20.252 49.748 17.691 49.252 15.312 49.375 C10.564 49.747 6.964 50.154 3 53 C-0.332 57.54 -0.958 62.314 -1.729 67.736 C-2.557 72.663 -2.557 72.663 -4.863 74.418 C-7.88 75.24 -10.898 75.642 -14 76 C-13.373 71.099 -12.027 66.524 -10.626 61.804 C-4.624 41.469 -1.67 21.097 0 0 Z " fill="#FCD8AD" transform="translate(723,332)"/>
<path d="M0 0 C2.487 3.731 2.3 5.576 2 10 C1.67 10.949 1.34 11.897 1 12.875 C-1.185 19.704 -0.076 25.276 2.312 31.867 C3.359 35.114 3.518 37.634 3 41 C0.002 44.728 -2.291 46.697 -7.129 47.238 C-13.761 47.441 -19.225 46.38 -25 43 C-30.837 36.864 -32.143 27.494 -32.75 19.312 C-32.614 14.341 -31.808 11.939 -28.188 8.5 C-19.724 2.258 -10.749 -2.071 0 0 Z " fill="#F99433" transform="translate(899,456)"/>
<path d="M0 0 C2.273 1.961 2.273 1.961 4.375 4.375 C10.454 10.727 14.835 12.106 23.562 12.375 C33.088 12.101 38.325 8.385 45 2 C45.522 1.442 46.044 0.884 46.582 0.309 C48 -1 48 -1 50.438 -1.438 C53 -1 53 -1 55.312 0.562 C57.663 3.957 57.56 5.942 57 10 C52.765 18.301 45.552 22.918 37 26 C27.179 28.815 13.637 28.468 4.332 24.336 C-1.223 21.154 -7.761 17.27 -10 11 C-10.427 7.912 -10.527 5.08 -10 2 C-7.075 -1.825 -4.363 -1.156 0 0 Z " fill="#53340E" transform="translate(472,421)"/>
<path d="M0 0 C3.48 0.172 6.925 0.718 10.375 1.188 C11.347 1.302 12.319 1.416 13.32 1.533 C14.254 1.66 15.187 1.787 16.148 1.918 C17.006 2.029 17.864 2.14 18.748 2.255 C21.643 3.213 22.498 4.385 24 7 C24.363 10.059 24.363 10.059 24.312 13.438 C24.309 14.55 24.305 15.662 24.301 16.809 C23.757 22.577 23.757 22.577 22 25 C18.771 26.093 15.503 26.441 12.125 26.812 C11.214 26.933 10.302 27.054 9.363 27.178 C5.525 27.669 1.878 28 -2 28 C-2.33 29.32 -2.66 30.64 -3 32 C-6.022 22.471 -4.546 10.133 -1 1 C-0.67 0.67 -0.34 0.34 0 0 Z " fill="#FEC254" transform="translate(785,475)"/>
<path d="M0 0 C3.339 3.251 4.905 6.045 5.133 10.742 C5.13 11.776 5.128 12.81 5.125 13.875 C5.126 14.389 5.126 14.389 5.133 16.992 C5.01 19.775 4.629 22.292 4 25 C-4.941 24.62 -13.15 23.03 -19.875 16.75 C-22.982 13.327 -25.739 9.496 -27 5 C-26.594 2.762 -26.594 2.762 -26 1 C-26 1.66 -26 2.32 -26 3 C-24.71 2.783 -23.419 2.567 -22.09 2.344 C-20.372 2.062 -18.655 1.781 -16.938 1.5 C-16.09 1.357 -15.242 1.214 -14.369 1.066 C-9.549 0.285 -4.898 -0.386 0 0 Z " fill="#FDC455" transform="translate(810,507)"/>
<path d="M0 0 C3.068 1.722 5.403 3.806 7 7 C7.418 11.547 7.536 15.674 5.812 19.938 C2.687 23.494 0.286 24.836 -4.438 25.438 C-9.636 24.799 -12.553 22.736 -15.875 18.75 C-17.387 15.054 -17.583 11.939 -17 8 C-13.863 0.571 -7.574 -1.464 0 0 Z " fill="#54330E" transform="translate(804,370)"/>
<path d="M0 0 C3.412 2.443 5.577 5.122 6.508 9.254 C6.777 14.548 5.623 17.985 2 22 C-1.642 24.109 -4.838 24.51 -9 24 C-13.316 21.715 -16.098 19.544 -18 15 C-18.538 10.777 -18.286 8.573 -16.375 4.75 C-11.819 -0.526 -6.611 -2.545 0 0 Z " fill="#FBCA33" transform="translate(278,183)"/>
<path d="M0 0 C0.902 2.707 1.119 4.238 1.098 7.012 C1.094 7.769 1.091 8.526 1.088 9.307 C1.08 10.092 1.071 10.878 1.062 11.688 C1.058 12.485 1.053 13.282 1.049 14.104 C1.037 16.069 1.019 18.035 1 20 C-2.31 21.655 -5.991 21.101 -9.625 21.062 C-10.427 21.058 -11.229 21.053 -12.055 21.049 C-14.036 21.037 -16.018 21.019 -18 21 C-16.013 15.449 -12.695 11.519 -9 7 C-8.443 6.295 -7.886 5.59 -7.312 4.863 C-6.797 4.228 -6.281 3.592 -5.75 2.938 C-5.521 2.653 -5.521 2.653 -4.359 1.215 C-3 0 -3 0 0 0 Z " fill="#FDC858" transform="translate(806,448)"/>
<path d="M0 0 C4.875 2.625 4.875 2.625 6 6 C4.125 5.812 4.125 5.812 2 5 C0.75 2.438 0.75 2.438 0 0 Z " fill="#AA6F37" transform="translate(192,218)"/>
<path d="M0 0 C0.99 0.99 1.98 1.98 3 3 C2.67 3.99 2.34 4.98 2 6 C1.01 5.34 0.02 4.68 -1 4 C-0.67 2.68 -0.34 1.36 0 0 Z " fill="#878147" transform="translate(609,872)"/>
<path d="M0 0 C0.66 0.33 0.66 0.33 4 2 C4 2.99 4 3.98 4 5 C3.01 5 2.02 5 1 5 C0.835 4.175 0.835 4.175 0 0 Z " fill="#857940" transform="translate(640,915)"/>
<path d="M0 0 C1.32 1.32 2.64 2.64 4 4 C3.01 4 2.02 4 1 4 C0.67 2.68 0.34 1.36 0 0 Z " fill="#83763D" transform="translate(384,810)"/>
<path d="M0 0 C0.99 0.99 1.98 1.98 3 3 C2.34 3.66 1.68 4.32 1 5 C0.835 4.175 0.835 4.175 0 0 Z " fill="#8F814F" transform="translate(88,401)"/>
<path d="M0 0 C1.65 0 3.3 0 5 0 C5 0.66 5 1.32 5 2 C3.35 1.67 1.7 1.34 0 1 C0 0.67 0 0.34 0 0 Z " fill="#A1612C" transform="translate(194,144)"/>
<path d="M0 0 C-2.31 0.33 -4.62 0.66 -7 1 C-3.375 -1.125 -3.375 -1.125 0 0 Z " fill="#BB7433" transform="translate(429,26)"/>
<path d="M0 0 C1.32 0.99 2.64 1.98 4 3 C2.68 3 1.36 3 0 3 C0 2.01 0 1.02 0 0 Z " fill="#87793E" transform="translate(648,921)"/>
<path d="M0 0 C0.66 0 1.32 0 2 0 C2.33 1.32 2.66 2.64 3 4 C2.34 4 1.68 4 1 4 C0.67 2.68 0.34 1.36 0 0 Z " fill="#887C43" transform="translate(379,803)"/>
<path d="M0 0 C0.66 1.32 1.32 2.64 2 4 C1.01 3.67 0.02 3.34 -1 3 C-0.67 2.01 -0.34 1.02 0 0 Z " fill="#8A7E45" transform="translate(372,788)"/>
<path d="M0 0 C1.98 0 3.96 0 6 0 C5.34 0.66 4.68 1.32 4 2 C2.68 1.34 1.36 0.68 0 0 Z " fill="#A37739" transform="translate(336,709)"/>
<path d="M0 0 C0.33 0.66 0.66 1.32 1 2 C-0.65 2.33 -2.3 2.66 -4 3 C-4 2.34 -4 1.68 -4 1 C-2.68 0.67 -1.36 0.34 0 0 Z " fill="#B17537" transform="translate(884,440)"/>
<path d="M0 0 C2 3 2 3 2 5 C1.34 5 0.68 5 0 5 C0 3.35 0 1.7 0 0 Z " fill="#A5632D" transform="translate(224,112)"/>
<path d="M0 0 C0.66 0 1.32 0 2 0 C2 0.99 2 1.98 2 3 C1.34 3 0.68 3 0 3 C0 2.01 0 1.02 0 0 Z " fill="#867B42" transform="translate(624,899)"/>
<path d="M0 0 C1.65 0 3.3 0 5 0 C4.67 0.66 4.34 1.32 4 2 C2.68 1.34 1.36 0.68 0 0 Z " fill="#898649" transform="translate(602,870)"/>
<path d="M0 0 C1.32 0.33 2.64 0.66 4 1 C2.68 1.33 1.36 1.66 0 2 C0 1.34 0 0.68 0 0 Z " fill="#95854A" transform="translate(680,730)"/>
<path d="M0 0 C1.65 0 3.3 0 5 0 C4.01 0.66 3.02 1.32 2 2 C1.34 1.34 0.68 0.68 0 0 Z " fill="#A08343" transform="translate(639,709)"/>
<path d="M0 0 C0.66 0.33 0.66 0.33 4 2 C3.67 2.165 3.67 2.165 2 3 C1.34 2.67 0.68 2.34 0 2 C0 1.34 0 0.68 0 0 Z " fill="#A57538" transform="translate(312,699)"/>
<path d="M0 0 C1.98 0 3.96 0 6 0 C6 0.33 6 0.66 6 1 C4.02 1 2.04 1 0 1 C0 0.67 0 0.34 0 0 Z " fill="#A68041" transform="translate(700,699)"/>
<path d="M0 0 C0.99 0.33 1.98 0.66 3 1 C2.34 1.66 1.68 2.32 1 3 C0.67 2.01 0.34 1.02 0 0 Z " fill="#AE7333" transform="translate(876,441)"/>
<path d="M0 0 C0.99 0.33 1.98 0.66 3 1 C1.68 1.33 0.36 1.66 -1 2 C-0.67 1.34 -0.34 0.68 0 0 Z " fill="#A2622C" transform="translate(193,146)"/>
<path d="M0 0 C1.65 0 3.3 0 5 0 C5 0.33 5 0.66 5 1 C3.35 1 1.7 1 0 1 C0 0.67 0 0.34 0 0 Z " fill="#89894B" transform="translate(566,879)"/>
<path d="M0 0 C0.66 0.33 0.66 0.33 4 2 C2.68 2 1.36 2 0 2 C0 1.34 0 0.68 0 0 Z " fill="#877D44" transform="translate(480,874)"/>
<path d="M0 0 C1.32 0.33 2.64 0.66 4 1 C3.67 1.165 3.67 1.165 2 2 C1.34 1.34 0.68 0.68 0 0 Z " fill="#847C41" transform="translate(456,867)"/>
<path d="M0 0 C0.99 0.33 1.98 0.66 3 1 C2.01 1.33 1.02 1.66 0 2 C0 1.34 0 0.68 0 0 Z " fill="#82773E" transform="translate(441,860)"/>
<path d="M0 0 C1.65 0 3.3 0 5 0 C5 0.33 5 0.66 5 1 C3.35 1 1.7 1 0 1 C0 0.67 0 0.34 0 0 Z " fill="#A77536" transform="translate(273,695)"/>
<path d="M0 0 C0.33 1.32 0.66 2.64 1 4 C0.34 3.67 -0.32 3.34 -1 3 C-0.67 2.01 -0.34 1.02 0 0 Z " fill="#AA7131" transform="translate(161,525)"/>
<path d="M0 0 C0.66 0.33 1.32 0.66 2 1 C1.34 1.66 0.68 2.32 0 3 C0 2.01 0 1.02 0 0 Z " fill="#B17837" transform="translate(883,518)"/>
<path d="M0 0 C1.65 0 3.3 0 5 0 C5 0.33 5 0.66 5 1 C3.35 1 1.7 1 0 1 C0 0.67 0 0.34 0 0 Z " fill="#9C8349" transform="translate(139,431)"/>
<path d="M0 0 C0.495 0.33 0.495 0.33 3 2 C1.68 1.67 0.36 1.34 -1 1 C-0.67 0.67 -0.34 0.34 0 0 Z " fill="#908150" transform="translate(97,412)"/>
<path d="M0 0 C0.33 0.165 0.33 0.165 2 1 C1.67 1.99 1.34 2.98 1 4 C0.67 2.68 0.34 1.36 0 0 Z " fill="#A66E31" transform="translate(766,160)"/>
<path d="M0 0 C4 1 4 1 4 1 Z " fill="#857F42" transform="translate(694,943)"/>
<path d="M0 0 C0.33 0.495 0.33 0.495 2 3 C1.34 3 0.68 3 0 3 C0 2.01 0 1.02 0 0 Z " fill="#8A7E45" transform="translate(619,890)"/>
<path d="M0 0 C0.33 0.66 0.66 1.32 1 2 C0.01 1.67 -0.98 1.34 -2 1 C-1.34 0.67 -0.68 0.34 0 0 Z " fill="#898146" transform="translate(618,888)"/>
<path d="M0 0 C4 1 4 1 4 1 Z " fill="#898346" transform="translate(500,879)"/>
<path d="M0 0 C0.99 0.33 1.98 0.66 3 1 C2.01 1 1.02 1 0 1 C0 0.67 0 0.34 0 0 Z " fill="#84783E" transform="translate(429,853)"/>
<path d="M0 0 C4 1 4 1 4 1 Z " fill="#9E8043" transform="translate(632,709)"/>
<path d="M0 0 C4 1 4 1 4 1 Z " fill="#A77B3A" transform="translate(332,708)"/>
<path d="M0 0 C4 1 4 1 4 1 Z " fill="#A87537" transform="translate(284,695)"/>
<path d="M0 0 C0.33 0.165 0.33 0.165 2 1 C1.34 1.66 0.68 2.32 0 3 C0 2.01 0 1.02 0 0 Z " fill="#A76D2D" transform="translate(185,645)"/>
<path d="M0 0 C1 4 1 4 1 4 Z " fill="#AA7538" transform="translate(916,488)"/>
<path d="M0 0 C1 4 1 4 1 4 Z " fill="#908454" transform="translate(80,394)"/>
<path d="M0 0 C1 4 1 4 1 4 Z " fill="#938856" transform="translate(76,369)"/>
<path d="M0 0 C0.66 0.33 1.32 0.66 2 1 C1.01 1 0.02 1 -1 1 C-0.67 0.67 -0.34 0.34 0 0 Z " fill="#918351" transform="translate(73,360)"/>
<path d="M0 0 C0.99 0.33 1.98 0.66 3 1 C2.01 1 1.02 1 0 1 C0 0.67 0 0.34 0 0 Z " fill="#907E4E" transform="translate(102,304)"/>
<path d="M0 0 C4 1 4 1 4 1 Z " fill="#95834F" transform="translate(135,291)"/>
<path d="M0 0 C0 3 0 3 0 3 Z " fill="#B17739" transform="translate(817,282)"/>
<path d="M0 0 C0.66 0.33 1.32 0.66 2 1 C1.01 1 0.02 1 -1 1 C-0.67 0.67 -0.34 0.34 0 0 Z " fill="#AE7B3E" transform="translate(201,282)"/>
<path d="M0 0 C1 4 1 4 1 4 Z " fill="#A36835" transform="translate(172,185)"/>
<path d="M0 0 C0.66 0.66 1.32 1.32 2 2 C1.67 2.165 1.67 2.165 0 3 C0 2.01 0 1.02 0 0 Z " fill="#9F612E" transform="translate(184,152)"/>
<path d="M0 0 C4 1 4 1 4 1 Z " fill="#AC6D2D" transform="translate(699,80)"/>
<path d="M0 0 C0.33 0.495 0.33 0.495 2 3 C1.34 3 0.68 3 0 3 C0 2.01 0 1.02 0 0 Z " fill="#B97331" transform="translate(417,25)"/>
<path d="M0 0 C4 1 4 1 4 1 Z " fill="#BB7433" transform="translate(434,24)"/>
<path d="M0 0 C3 1 3 1 3 1 Z " fill="#877F44" transform="translate(730,947)"/>
<path d="M0 0 C3 1 3 1 3 1 Z " fill="#878346" transform="translate(494,878)"/>
<path d="M0 0 C0.33 0.165 0.33 0.165 2 1 C1.67 1.165 1.67 1.165 0 2 C0 1.34 0 0.68 0 0 Z " fill="#868045" transform="translate(490,877)"/>
<path d="M0 0 C3 1 3 1 3 1 Z " fill="#887F44" transform="translate(485,876)"/>
<path d="M0 0 C0.66 0.66 1.32 1.32 2 2 C1.34 2 0.68 2 0 2 C0 1.34 0 0.68 0 0 Z " fill="#84763E" transform="translate(418,845)"/>
<path d="M0 0 C0.66 0 1.32 0 2 0 C1.67 0.66 1.34 1.32 1 2 C0.67 1.34 0.34 0.68 0 0 Z " fill="#837A41" transform="translate(392,821)"/>
<path d="M0 0 C0.33 0.165 0.33 0.165 2 1 C1.67 1.165 1.67 1.165 0 2 C0 1.34 0 0.68 0 0 Z " fill="#86793F" transform="translate(376,805)"/>
<path d="M0 0 C0.33 0.165 0.33 0.165 2 1 C1.67 1.165 1.67 1.165 0 2 C0 1.34 0 0.68 0 0 Z " fill="#88844D" transform="translate(623,795)"/>
<path d="" fill="#887E45" transform="translate(0,0)"/>
<path d="M0 0 C0.66 0 1.32 0 2 0 C1.67 0.66 1.34 1.32 1 2 C0.67 1.34 0.34 0.68 0 0 Z " fill="#89854E" transform="translate(632,779)"/>
<path d="" fill="#8A8A55" transform="translate(0,0)"/>
<path d="M0 0 C0.66 0 1.32 0 2 0 C1.67 0.66 1.34 1.32 1 2 C0.67 1.34 0.34 0.68 0 0 Z " fill="#8D8248" transform="translate(363,766)"/>
<path d="" fill="#8E7E45" transform="translate(0,0)"/>
<path d="M0 0 C0.33 0.165 0.33 0.165 2 1 C1.67 1.165 1.67 1.165 0 2 C0 1.34 0 0.68 0 0 Z " fill="#8E864C" transform="translate(640,761)"/>
<path d="" fill="#8F8349" transform="translate(0,0)"/>
<path d="M0 0 C0.66 0 1.32 0 2 0 C1.67 0.66 1.34 1.32 1 2 C0.67 1.34 0.34 0.68 0 0 Z " fill="#8E864D" transform="translate(656,745)"/>
<path d="M0 0 C0.33 0.165 0.33 0.165 2 1 C1.67 1.165 1.67 1.165 0 2 C0 1.34 0 0.68 0 0 Z " fill="#93844B" transform="translate(665,737)"/>
<path d="M0 0 C0.66 0.66 1.32 1.32 2 2 C1.34 2 0.68 2 0 2 C0 1.34 0 0.68 0 0 Z " fill="#958249" transform="translate(685,728)"/>
<path d="M0 0 C3 1 3 1 3 1 Z " fill="#9C8449" transform="translate(696,723)"/>
<path d="M0 0 C0.66 0.66 1.32 1.32 2 2 C1.34 2 0.68 2 0 2 C0 1.34 0 0.68 0 0 Z " fill="#9D8448" transform="translate(696,720)"/>
<path d="M0 0 C3 1 3 1 3 1 Z " fill="#9A7E42" transform="translate(750,714)"/>
<path d="M0 0 C3 1 3 1 3 1 Z " fill="#A6813F" transform="translate(696,699)"/>
<path d="M0 0 C3 1 3 1 3 1 Z " fill="#A67032" transform="translate(256,692)"/>
<path d="M0 0 C0.66 0 1.32 0 2 0 C1.67 0.66 1.34 1.32 1 2 C0.67 1.34 0.34 0.68 0 0 Z " fill="#A36B2F" transform="translate(153,608)"/>
<path d="M0 0 C0.66 0.66 1.32 1.32 2 2 C1.34 2 0.68 2 0 2 C0 1.34 0 0.68 0 0 Z " fill="#A36B2E" transform="translate(152,604)"/>
<path d="M0 0 C0.66 0 1.32 0 2 0 C1.67 0.66 1.34 1.32 1 2 C0.67 1.34 0.34 0.68 0 0 Z " fill="#B47734" transform="translate(821,562)"/>
<path d="" fill="#AC7235" transform="translate(0,0)"/>
<path d="M0 0 C3 1 3 1 3 1 Z " fill="#B27A38" transform="translate(887,517)"/>
<path d="M0 0 C0.33 0.66 0.66 1.32 1 2 C0.34 1.67 -0.32 1.34 -1 1 C-0.67 0.67 -0.34 0.34 0 0 Z " fill="#A67034" transform="translate(154,508)"/>
<path d="" fill="#A6793D" transform="translate(0,0)"/>
<path d="" fill="#A57D40" transform="translate(0,0)"/>
<path d="" fill="#AF7335" transform="translate(0,0)"/>
<path d="M0 0 C3 1 3 1 3 1 Z " fill="#98824B" transform="translate(132,430)"/>
<path d="M0 0 C3 1 3 1 3 1 Z " fill="#978750" transform="translate(120,427)"/>
<path d="M0 0 C0.66 0.66 1.32 1.32 2 2 C1.34 2 0.68 2 0 2 C0 1.34 0 0.68 0 0 Z " fill="#94864E" transform="translate(105,418)"/>
<path d="" fill="#928653" transform="translate(0,0)"/>
<path d="M0 0 C0.33 0.66 0.66 1.32 1 2 C0.34 1.67 -0.32 1.34 -1 1 C-0.67 0.67 -0.34 0.34 0 0 Z " fill="#AA7C40" transform="translate(196,307)"/>
<path d="" fill="#B27536" transform="translate(0,0)"/>
<path d="M0 0 C0.33 0.66 0.66 1.32 1 2 C0.34 1.67 -0.32 1.34 -1 1 C-0.67 0.67 -0.34 0.34 0 0 Z " fill="#B37635" transform="translate(810,298)"/>
<path d="M0 0 C3 1 3 1 3 1 Z " fill="#998255" transform="translate(172,296)"/>
<path d="" fill="#AF783C" transform="translate(0,0)"/>
<path d="" fill="#918150" transform="translate(0,0)"/>
<path d="M0 0 C0.33 0.66 0.66 1.32 1 2 C0.34 1.67 -0.32 1.34 -1 1 C-0.67 0.67 -0.34 0.34 0 0 Z " fill="#B0793D" transform="translate(201,288)"/>
<path d="" fill="#AE793C" transform="translate(0,0)"/>
<path d="" fill="#AA7539" transform="translate(0,0)"/>
<path d="M0 0 C3 1 3 1 3 1 Z " fill="#A9773A" transform="translate(200,223)"/>
<path d="" fill="#AF7437" transform="translate(0,0)"/>
<path d="M0 0 C0.66 0.66 1.32 1.32 2 2 C1.34 2 0.68 2 0 2 C0 1.34 0 0.68 0 0 Z " fill="#A96C2E" transform="translate(729,104)"/>
<path d="M0 0 C0.66 0.66 1.32 1.32 2 2 C1.34 2 0.68 2 0 2 C0 1.34 0 0.68 0 0 Z " fill="#A5632B" transform="translate(240,98)"/>
<path d="M0 0 C3 1 3 1 3 1 Z " fill="#A26129" transform="translate(240,96)"/>
<path d="M0 0 C0.33 0.66 0.66 1.32 1 2 C0.34 1.67 -0.32 1.34 -1 1 C-0.67 0.67 -0.34 0.34 0 0 Z " fill="#AE692D" transform="translate(310,72)"/>
<path d="M0 0 C3 1 3 1 3 1 Z " fill="#B06C2F" transform="translate(344,51)"/>
<path d="M0 0 C0.33 0.165 0.33 0.165 2 1 C1.67 1.165 1.67 1.165 0 2 C0 1.34 0 0.68 0 0 Z " fill="#B36E30" transform="translate(360,44)"/>
<path d="M0 0 C0.66 0.66 1.32 1.32 2 2 C1.34 2 0.68 2 0 2 C0 1.34 0 0.68 0 0 Z " fill="#B06B2F" transform="translate(368,40)"/>
<path d="M0 0 C3 1 3 1 3 1 Z " fill="#BC7432" transform="translate(532,24)"/>
<path d="M0 0 C2 1 2 1 2 1 Z " fill="#8A8145" transform="translate(727,947)"/>
<path d="" fill="#897D44" transform="translate(0,0)"/>
<path d="" fill="#7C733F" transform="translate(0,0)"/>
<path d="M0 0 C2 1 2 1 2 1 Z " fill="#887940" transform="translate(654,926)"/>
<path d="" fill="#7E753D" transform="translate(0,0)"/>
<path d="M0 0 C2 1 2 1 2 1 Z " fill="#7E763F" transform="translate(765,920)"/>
<path d="M0 0 C2 1 2 1 2 1 Z " fill="#877A40" transform="translate(634,910)"/>
<path d="" fill="#897D43" transform="translate(0,0)"/>
<path d="M0 0 C2 1 2 1 2 1 Z " fill="#8A7D43" transform="translate(616,891)"/>
<path d="M0 0 C2 1 2 1 2 1 Z " fill="#857E47" transform="translate(758,890)"/>
<path d="" fill="#867E47" transform="translate(0,0)"/>
<path d="" fill="#898749" transform="translate(0,0)"/>
<path d="M0 0 C2 1 2 1 2 1 Z " fill="#888548" transform="translate(497,879)"/>
<path d="" fill="#858047" transform="translate(0,0)"/>
<path d="" fill="#838046" transform="translate(0,0)"/>
<path d="" fill="#867F47" transform="translate(0,0)"/>
<path d="" fill="#867B41" transform="translate(0,0)"/>
<path d="M0 0 C2 1 2 1 2 1 Z " fill="#8B874B" transform="translate(607,869)"/>
<path d="" fill="#8B854B" transform="translate(0,0)"/>
<path d="" fill="#8A864B" transform="translate(0,0)"/>
<path d="" fill="#8B834B" transform="translate(0,0)"/>
<path d="" fill="#87864E" transform="translate(0,0)"/>
<path d="" fill="#838853" transform="translate(0,0)"/>
<path d="M0 0 C2 1 2 1 2 1 Z " fill="#8A8045" transform="translate(369,784)"/>
<path d="" fill="#888148" transform="translate(0,0)"/>
<path d="M0 0 C2 1 2 1 2 1 Z " fill="#89864E" transform="translate(632,776)"/>
<path d="" fill="#8A8B54" transform="translate(0,0)"/>
<path d="" fill="#8E854F" transform="translate(0,0)"/>
<path d="M0 0 C2 1 2 1 2 1 Z " fill="#95874D" transform="translate(676,734)"/>
<path d="M0 0 C2 1 2 1 2 1 Z " fill="#97854C" transform="translate(682,728)"/>
<path d="M0 0 C2 1 2 1 2 1 Z " fill="#977C43" transform="translate(766,715)"/>
<path d="M0 0 C2 1 2 1 2 1 Z " fill="#A18647" transform="translate(727,715)"/>
<path d="M0 0 C2 1 2 1 2 1 Z " fill="#A07738" transform="translate(341,711)"/>
<path d="M0 0 C2 1 2 1 2 1 Z " fill="#A48547" transform="translate(647,709)"/>
<path d="M0 0 C2 1 2 1 2 1 Z " fill="#A97738" transform="translate(264,694)"/>
<path d="M0 0 C2 1 2 1 2 1 Z " fill="#A66F30" transform="translate(244,687)"/>
<path d="" fill="#A96D2D" transform="translate(0,0)"/>
<path d="M0 0 C2 1 2 1 2 1 Z " fill="#AA7838" transform="translate(782,652)"/>
<path d="M0 0 C2 1 2 1 2 1 Z " fill="#A96D2E" transform="translate(188,647)"/>
<path d="M0 0 C2 1 2 1 2 1 Z " fill="#B07D3B" transform="translate(819,628)"/>
<path d="M0 0 C2 1 2 1 2 1 Z " fill="#AE7938" transform="translate(808,628)"/>
<path d="" fill="#A66B2E" transform="translate(0,0)"/>
<path d="" fill="#A26A2E" transform="translate(0,0)"/>
<path d="" fill="#A56D30" transform="translate(0,0)"/>
<path d="" fill="#A66D31" transform="translate(0,0)"/>
<path d="" fill="#AB7536" transform="translate(0,0)"/>
<path d="" fill="#B67936" transform="translate(0,0)"/>
<path d="" fill="#AB7636" transform="translate(0,0)"/>
<path d="" fill="#AB7335" transform="translate(0,0)"/>
<path d="" fill="#A87638" transform="translate(0,0)"/>
<path d="" fill="#A3773B" transform="translate(0,0)"/>
<path d="" fill="#A08044" transform="translate(0,0)"/>
<path d="M0 0 C2 1 2 1 2 1 Z " fill="#95854E" transform="translate(110,422)"/>
<path d="M0 0 C2 1 2 1 2 1 Z " fill="#B27A39" transform="translate(895,421)"/>
<path d="" fill="#8E8251" transform="translate(0,0)"/>
<path d="" fill="#A77439" transform="translate(0,0)"/>
<path d="" fill="#A77337" transform="translate(0,0)"/>
<path d="" fill="#A87438" transform="translate(0,0)"/>
<path d="" fill="#928252" transform="translate(0,0)"/>
<path d="" fill="#A16E34" transform="translate(0,0)"/>
<path d="" fill="#A36E32" transform="translate(0,0)"/>
<path d="" fill="#A37F48" transform="translate(0,0)"/>
<path d="M0 0 C2 1 2 1 2 1 Z " fill="#937B4B" transform="translate(118,296)"/>
<path d="" fill="#B17738" transform="translate(0,0)"/>
<path d="" fill="#9F8754" transform="translate(0,0)"/>
<path d="M0 0 C2 1 2 1 2 1 Z " fill="#938251" transform="translate(129,292)"/>
<path d="" fill="#B37435" transform="translate(0,0)"/>
<path d="M0 0 C2 1 2 1 2 1 Z " fill="#A76F34" transform="translate(874,290)"/>
<path d="M0 0 C2 1 2 1 2 1 Z " fill="#978451" transform="translate(146,290)"/>
<path d="M0 0 C2 1 2 1 2 1 Z " fill="#B07334" transform="translate(860,289)"/>
<path d="" fill="#AD773B" transform="translate(0,0)"/>
<path d="" fill="#B47939" transform="translate(0,0)"/>
<path d="M0 0 C2 1 2 1 2 1 Z " fill="#AA6F37" transform="translate(198,222)"/>
<path d="" fill="#AC7337" transform="translate(0,0)"/>
<path d="" fill="#B07636" transform="translate(0,0)"/>
<path d="" fill="#B07636" transform="translate(0,0)"/>
<path d="" fill="#A1632F" transform="translate(0,0)"/>
<path d="M0 0 C2 1 2 1 2 1 Z " fill="#A6622D" transform="translate(215,141)"/>
<path d="" fill="#AA6E30" transform="translate(0,0)"/>
<path d="" fill="#A96E2F" transform="translate(0,0)"/>
<path d="" fill="#AB6C2E" transform="translate(0,0)"/>
<path d="M0 0 C2 1 2 1 2 1 Z " fill="#AC6E2F" transform="translate(725,101)"/>
<path d="M0 0 C2 1 2 1 2 1 Z " fill="#A4632B" transform="translate(246,96)"/>
<path d="M0 0 C2 1 2 1 2 1 Z " fill="#AF692E" transform="translate(267,92)"/>
<path d="M0 0 C2 1 2 1 2 1 Z " fill="#AA682C" transform="translate(290,88)"/>
<path d="" fill="#AE682B" transform="translate(0,0)"/>
<path d="M0 0 C2 1 2 1 2 1 Z " fill="#A9672C" transform="translate(305,76)"/>
<path d="" fill="#AB672D" transform="translate(0,0)"/>
<path d="M0 0 C2 1 2 1 2 1 Z " fill="#AB692D" transform="translate(306,73)"/>
<path d="M0 0 C2 1 2 1 2 1 Z " fill="#AA692C" transform="translate(686,72)"/>
<path d="M0 0 C2 1 2 1 2 1 Z " fill="#A7682C" transform="translate(304,72)"/>
<path d="M0 0 C2 1 2 1 2 1 Z " fill="#B06B2D" transform="translate(312,69)"/>
<path d="" fill="#AB672B" transform="translate(0,0)"/>
<path d="M0 0 C2 1 2 1 2 1 Z " fill="#AC692D" transform="translate(321,65)"/>
<path d="M0 0 C2 1 2 1 2 1 Z " fill="#AA6A2C" transform="translate(667,64)"/>
<path d="M0 0 C2 1 2 1 2 1 Z " fill="#AF6E2D" transform="translate(652,60)"/>
<path d="M0 0 C2 1 2 1 2 1 Z " fill="#AF6F30" transform="translate(648,59)"/>
<path d="M0 0 C2 1 2 1 2 1 Z " fill="#B06F2F" transform="translate(640,58)"/>
<path d="M0 0 C2 1 2 1 2 1 Z " fill="#B16C2D" transform="translate(333,58)"/>
<path d="M0 0 C2 1 2 1 2 1 Z " fill="#AD6F2E" transform="translate(642,57)"/>
<path d="M0 0 C2 1 2 1 2 1 Z " fill="#B66F31" transform="translate(352,48)"/>
<path d="M0 0 C2 1 2 1 2 1 Z " fill="#B57231" transform="translate(608,43)"/>
<path d="M0 0 C2 1 2 1 2 1 Z " fill="#B26E2F" transform="translate(601,40)"/>
<path d="M0 0 C2 1 2 1 2 1 Z " fill="#B46F2E" transform="translate(577,32)"/>
<path d="M0 0 C2 1 2 1 2 1 Z " fill="#B36E2D" transform="translate(539,25)"/>
<path d="" fill="#BE7732" transform="translate(0,0)"/>
<path d="M0 0 C2 1 2 1 2 1 Z " fill="#BB7332" transform="translate(506,21)"/>
<path d="M0 0 C2 1 2 1 2 1 Z " fill="#B97231" transform="translate(502,21)"/>
<path d="M0 0 C2 1 2 1 2 1 Z " fill="#B97332" transform="translate(496,21)"/>
<path d="M0 0 C2 1 2 1 2 1 Z " fill="#B7702F" transform="translate(467,21)"/>
<path d="" fill="#312C15" transform="translate(0,0)"/>
<path d="" fill="#373017" transform="translate(0,0)"/>
<path d="" fill="#090801" transform="translate(0,0)"/>
<path d="" fill="#504926" transform="translate(0,0)"/>
<path d="" fill="#8B8144" transform="translate(0,0)"/>
<path d="" fill="#857D43" transform="translate(0,0)"/>
<path d="" fill="#898042" transform="translate(0,0)"/>
<path d="" fill="#8C8245" transform="translate(0,0)"/>
<path d="" fill="#7D713B" transform="translate(0,0)"/>
<path d="" fill="#8B8042" transform="translate(0,0)"/>
<path d="" fill="#8A7D42" transform="translate(0,0)"/>
<path d="" fill="#7D7240" transform="translate(0,0)"/>
<path d="" fill="#8B7F40" transform="translate(0,0)"/>
<path d="" fill="#84773E" transform="translate(0,0)"/>
<path d="" fill="#897B41" transform="translate(0,0)"/>
<path d="" fill="#110F04" transform="translate(0,0)"/>
<path d="" fill="#887C41" transform="translate(0,0)"/>
<path d="" fill="#877C3F" transform="translate(0,0)"/>
<path d="" fill="#88783F" transform="translate(0,0)"/>
<path d="" fill="#84753C" transform="translate(0,0)"/>
<path d="" fill="#131105" transform="translate(0,0)"/>
<path d="" fill="#2F2713" transform="translate(0,0)"/>
<path d="" fill="#433F1F" transform="translate(0,0)"/>
<path d="" fill="#1B1709" transform="translate(0,0)"/>
<path d="" fill="#000000" transform="translate(0,0)"/>
<path d="" fill="#897940" transform="translate(0,0)"/>
<path d="" fill="#867940" transform="translate(0,0)"/>
<path d="" fill="#827940" transform="translate(0,0)"/>
<path d="" fill="#877A3E" transform="translate(0,0)"/>
<path d="" fill="#120E03" transform="translate(0,0)"/>
<path d="" fill="#897F43" transform="translate(0,0)"/>
<path d="" fill="#887C42" transform="translate(0,0)"/>
<path d="" fill="#867C43" transform="translate(0,0)"/>
<path d="" fill="#897E45" transform="translate(0,0)"/>
<path d="" fill="#827B40" transform="translate(0,0)"/>
<path d="" fill="#817E48" transform="translate(0,0)"/>
<path d="" fill="#867C47" transform="translate(0,0)"/>
<path d="" fill="#8A8247" transform="translate(0,0)"/>
<path d="" fill="#897C42" transform="translate(0,0)"/>
<path d="" fill="#817D44" transform="translate(0,0)"/>
<path d="" fill="#8A8448" transform="translate(0,0)"/>
<path d="" fill="#8C874B" transform="translate(0,0)"/>
<path d="" fill="#837E46" transform="translate(0,0)"/>
<path d="" fill="#8C884B" transform="translate(0,0)"/>
<path d="" fill="#8F8A4D" transform="translate(0,0)"/>
<path d="" fill="#898247" transform="translate(0,0)"/>
<path d="" fill="#867D44" transform="translate(0,0)"/>
<path d="" fill="#888248" transform="translate(0,0)"/>
<path d="" fill="#8A884B" transform="translate(0,0)"/>
<path d="" fill="#8B884B" transform="translate(0,0)"/>
<path d="" fill="#898046" transform="translate(0,0)"/>
<path d="" fill="#847C44" transform="translate(0,0)"/>
<path d="" fill="#8A834B" transform="translate(0,0)"/>
<path d="" fill="#8A874B" transform="translate(0,0)"/>
<path d="" fill="#847F46" transform="translate(0,0)"/>
<path d="" fill="#877F44" transform="translate(0,0)"/>
<path d="" fill="#8B8A4E" transform="translate(0,0)"/>
<path d="" fill="#847940" transform="translate(0,0)"/>
<path d="" fill="#877F47" transform="translate(0,0)"/>
<path d="" fill="#877F47" transform="translate(0,0)"/>
<path d="" fill="#81773E" transform="translate(0,0)"/>
<path d="" fill="#80783F" transform="translate(0,0)"/>
<path d="" fill="#8B8148" transform="translate(0,0)"/>
<path d="" fill="#837940" transform="translate(0,0)"/>
<path d="" fill="#827841" transform="translate(0,0)"/>
<path d="" fill="#877D47" transform="translate(0,0)"/>
<path d="" fill="#867D46" transform="translate(0,0)"/>
<path d="" fill="#84753E" transform="translate(0,0)"/>
<path d="" fill="#86783E" transform="translate(0,0)"/>
<path d="" fill="#898147" transform="translate(0,0)"/>
<path d="" fill="#8B824A" transform="translate(0,0)"/>
<path d="" fill="#83753C" transform="translate(0,0)"/>
<path d="" fill="#80743B" transform="translate(0,0)"/>
<path d="" fill="#84763C" transform="translate(0,0)"/>
<path d="" fill="#887D3F" transform="translate(0,0)"/>
<path d="" fill="#81783D" transform="translate(0,0)"/>
<path d="" fill="#82793F" transform="translate(0,0)"/>
<path d="" fill="#89854D" transform="translate(0,0)"/>
<path d="" fill="#867A3F" transform="translate(0,0)"/>
<path d="" fill="#8B874D" transform="translate(0,0)"/>
<path d="" fill="#8A864D" transform="translate(0,0)"/>
<path d="" fill="#81783E" transform="translate(0,0)"/>
<path d="" fill="#837840" transform="translate(0,0)"/>
<path d="" fill="#8A864C" transform="translate(0,0)"/>
<path d="" fill="#8B854D" transform="translate(0,0)"/>
<path d="" fill="#898243" transform="translate(0,0)"/>
<path d="" fill="#81793E" transform="translate(0,0)"/>
<path d="" fill="#868041" transform="translate(0,0)"/>
<path d="" fill="#857E40" transform="translate(0,0)"/>
<path d="" fill="#87793F" transform="translate(0,0)"/>
<path d="" fill="#88793F" transform="translate(0,0)"/>
<path d="" fill="#82793D" transform="translate(0,0)"/>
<path d="" fill="#81733B" transform="translate(0,0)"/>
<path d="" fill="#887E45" transform="translate(0,0)"/>
<path d="" fill="#86854E" transform="translate(0,0)"/>
<path d="" fill="#82824B" transform="translate(0,0)"/>
<path d="" fill="#887B3F" transform="translate(0,0)"/>
<path d="" fill="#837C46" transform="translate(0,0)"/>
<path d="" fill="#89834D" transform="translate(0,0)"/>
<path d="" fill="#867F47" transform="translate(0,0)"/>
<path d="" fill="#86824C" transform="translate(0,0)"/>
<path d="" fill="#88824A" transform="translate(0,0)"/>
<path d="" fill="#86834C" transform="translate(0,0)"/>
<path d="" fill="#86814B" transform="translate(0,0)"/>
<path d="" fill="#877C43" transform="translate(0,0)"/>
<path d="" fill="#838B56" transform="translate(0,0)"/>
<path d="" fill="#897B44" transform="translate(0,0)"/>
<path d="" fill="#8A7C45" transform="translate(0,0)"/>
<path d="" fill="#887D42" transform="translate(0,0)"/>
<path d="" fill="#7F8149" transform="translate(0,0)"/>
<path d="" fill="#86834C" transform="translate(0,0)"/>
<path d="" fill="#89854F" transform="translate(0,0)"/>
<path d="" fill="#8A8750" transform="translate(0,0)"/>
<path d="" fill="#91854E" transform="translate(0,0)"/>
<path d="" fill="#88854D" transform="translate(0,0)"/>
<path d="" fill="#898552" transform="translate(0,0)"/>
<path d="" fill="#8C854C" transform="translate(0,0)"/>
<path d="" fill="#8B8C55" transform="translate(0,0)"/>
<path d="" fill="#8A864C" transform="translate(0,0)"/>
<path d="" fill="#8C8C59" transform="translate(0,0)"/>
<path d="" fill="#8C854C" transform="translate(0,0)"/>
<path d="" fill="#87824E" transform="translate(0,0)"/>
<path d="" fill="#8A8852" transform="translate(0,0)"/>
<path d="" fill="#858651" transform="translate(0,0)"/>
<path d="" fill="#8D8B52" transform="translate(0,0)"/>
<path d="" fill="#8F8D53" transform="translate(0,0)"/>
<path d="" fill="#8E824D" transform="translate(0,0)"/>
<path d="" fill="#8C834E" transform="translate(0,0)"/>
<path d="" fill="#8F874D" transform="translate(0,0)"/>
<path d="" fill="#92874E" transform="translate(0,0)"/>
<path d="" fill="#8D804B" transform="translate(0,0)"/>
<path d="" fill="#93834C" transform="translate(0,0)"/>
<path d="" fill="#93844F" transform="translate(0,0)"/>
<path d="" fill="#897F49" transform="translate(0,0)"/>
<path d="" fill="#877C48" transform="translate(0,0)"/>
<path d="" fill="#91854E" transform="translate(0,0)"/>
<path d="" fill="#918A55" transform="translate(0,0)"/>
<path d="" fill="#95864C" transform="translate(0,0)"/>
<path d="" fill="#96834A" transform="translate(0,0)"/>
<path d="" fill="#97844B" transform="translate(0,0)"/>
<path d="" fill="#958B56" transform="translate(0,0)"/>
<path d="" fill="#8D7840" transform="translate(0,0)"/>
<path d="" fill="#9E8448" transform="translate(0,0)"/>
<path d="" fill="#8B7B46" transform="translate(0,0)"/>
<path d="" fill="#9E8148" transform="translate(0,0)"/>
<path d="" fill="#A18446" transform="translate(0,0)"/>
<path d="" fill="#957C42" transform="translate(0,0)"/>
<path d="" fill="#A38449" transform="translate(0,0)"/>
<path d="" fill="#957E42" transform="translate(0,0)"/>
<path d="" fill="#A08347" transform="translate(0,0)"/>
<path d="" fill="#9A7F44" transform="translate(0,0)"/>
<path d="" fill="#A28647" transform="translate(0,0)"/>
<path d="" fill="#9E8646" transform="translate(0,0)"/>
<path d="" fill="#957C43" transform="translate(0,0)"/>
<path d="" fill="#997F43" transform="translate(0,0)"/>
<path d="" fill="#997F44" transform="translate(0,0)"/>
<path d="" fill="#9D7F45" transform="translate(0,0)"/>
<path d="" fill="#A18343" transform="translate(0,0)"/>
<path d="" fill="#9D8547" transform="translate(0,0)"/>
<path d="" fill="#A38646" transform="translate(0,0)"/>
<path d="" fill="#A08447" transform="translate(0,0)"/>
<path d="" fill="#A37E3D" transform="translate(0,0)"/>
<path d="" fill="#A3783A" transform="translate(0,0)"/>
<path d="" fill="#A77C3B" transform="translate(0,0)"/>
<path d="" fill="#A28545" transform="translate(0,0)"/>
<path d="" fill="#9F8043" transform="translate(0,0)"/>
<path d="" fill="#A48647" transform="translate(0,0)"/>
<path d="" fill="#A57739" transform="translate(0,0)"/>
<path d="" fill="#A3753A" transform="translate(0,0)"/>
<path d="" fill="#A68244" transform="translate(0,0)"/>
<path d="" fill="#A38145" transform="translate(0,0)"/>
<path d="" fill="#9E6E35" transform="translate(0,0)"/>
<path d="" fill="#A78244" transform="translate(0,0)"/>
<path d="" fill="#A07C41" transform="translate(0,0)"/>
<path d="" fill="#A77F40" transform="translate(0,0)"/>
<path d="" fill="#A78242" transform="translate(0,0)"/>
<path d="" fill="#A88446" transform="translate(0,0)"/>
<path d="" fill="#A88346" transform="translate(0,0)"/>
<path d="" fill="#AB7938" transform="translate(0,0)"/>
<path d="" fill="#A78344" transform="translate(0,0)"/>
<path d="" fill="#A78142" transform="translate(0,0)"/>
<path d="" fill="#B28C44" transform="translate(0,0)"/>
<path d="" fill="#AD7C39" transform="translate(0,0)"/>
<path d="" fill="#A57533" transform="translate(0,0)"/>
<path d="" fill="#A97835" transform="translate(0,0)"/>
<path d="" fill="#AB7836" transform="translate(0,0)"/>
<path d="" fill="#A77534" transform="translate(0,0)"/>
<path d="" fill="#A67F3F" transform="translate(0,0)"/>
<path d="" fill="#AA7635" transform="translate(0,0)"/>
<path d="" fill="#A88041" transform="translate(0,0)"/>
<path d="" fill="#AA7838" transform="translate(0,0)"/>
<path d="" fill="#A47132" transform="translate(0,0)"/>
<path d="" fill="#AE7936" transform="translate(0,0)"/>
<path d="" fill="#A77131" transform="translate(0,0)"/>
<path d="" fill="#A86E32" transform="translate(0,0)"/>
<path d="" fill="#A87F40" transform="translate(0,0)"/>
<path d="" fill="#A77231" transform="translate(0,0)"/>
<path d="" fill="#A67F3F" transform="translate(0,0)"/>
<path d="" fill="#A57D3F" transform="translate(0,0)"/>
<path d="" fill="#AB8443" transform="translate(0,0)"/>
<path d="" fill="#A1793C" transform="translate(0,0)"/>
<path d="" fill="#A86D2E" transform="translate(0,0)"/>
<path d="" fill="#A86B2F" transform="translate(0,0)"/>
<path d="" fill="#A66D2D" transform="translate(0,0)"/>
<path d="" fill="#A86B2F" transform="translate(0,0)"/>
<path d="" fill="#A97133" transform="translate(0,0)"/>
<path d="" fill="#AB6D2F" transform="translate(0,0)"/>
<path d="" fill="#A66E2D" transform="translate(0,0)"/>
<path d="" fill="#AB6D2F" transform="translate(0,0)"/>
<path d="" fill="#AC7D3D" transform="translate(0,0)"/>
<path d="" fill="#AA7C3C" transform="translate(0,0)"/>
<path d="" fill="#A87B3B" transform="translate(0,0)"/>
<path d="" fill="#AA7B3A" transform="translate(0,0)"/>
<path d="" fill="#AC7D3A" transform="translate(0,0)"/>
<path d="" fill="#AC7C3B" transform="translate(0,0)"/>
<path d="" fill="#AA6D2F" transform="translate(0,0)"/>
<path d="" fill="#AF7E3F" transform="translate(0,0)"/>
<path d="" fill="#AA7838" transform="translate(0,0)"/>
<path d="" fill="#A96B2E" transform="translate(0,0)"/>
<path d="" fill="#A46B2D" transform="translate(0,0)"/>
<path d="" fill="#AA773A" transform="translate(0,0)"/>
<path d="" fill="#A5692E" transform="translate(0,0)"/>
<path d="" fill="#A86B2D" transform="translate(0,0)"/>
<path d="" fill="#AC773A" transform="translate(0,0)"/>
<path d="" fill="#AB7B40" transform="translate(0,0)"/>
<path d="" fill="#A96C2F" transform="translate(0,0)"/>
<path d="" fill="#AC7131" transform="translate(0,0)"/>
<path d="" fill="#AD7939" transform="translate(0,0)"/>
<path d="" fill="#A46A2D" transform="translate(0,0)"/>
<path d="" fill="#A4682D" transform="translate(0,0)"/>
<path d="" fill="#AF7535" transform="translate(0,0)"/>
<path d="" fill="#AE793A" transform="translate(0,0)"/>
<path d="" fill="#AE7D3B" transform="translate(0,0)"/>
<path d="" fill="#AF7A38" transform="translate(0,0)"/>
<path d="" fill="#AF7A37" transform="translate(0,0)"/>
<path d="" fill="#B17A3A" transform="translate(0,0)"/>
<path d="" fill="#AF7B3A" transform="translate(0,0)"/>
<path d="" fill="#AF7B3C" transform="translate(0,0)"/>
<path d="" fill="#A56A2E" transform="translate(0,0)"/>
<path d="" fill="#A56B2E" transform="translate(0,0)"/>
<path d="" fill="#AB7436" transform="translate(0,0)"/>
<path d="" fill="#A66B2F" transform="translate(0,0)"/>
<path d="" fill="#2E1C08" transform="translate(0,0)"/>
<path d="" fill="#AE7636" transform="translate(0,0)"/>
<path d="" fill="#AB7234" transform="translate(0,0)"/>
<path d="" fill="#A56D2E" transform="translate(0,0)"/>
<path d="" fill="#9F682E" transform="translate(0,0)"/>
<path d="" fill="#A46B30" transform="translate(0,0)"/>
<path d="" fill="#A16A30" transform="translate(0,0)"/>
<path d="" fill="#A36E2E" transform="translate(0,0)"/>
<path d="" fill="#A86F33" transform="translate(0,0)"/>
<path d="" fill="#AA7032" transform="translate(0,0)"/>
<path d="" fill="#A76F31" transform="translate(0,0)"/>
<path d="" fill="#C3813B" transform="translate(0,0)"/>
<path d="" fill="#A76E30" transform="translate(0,0)"/>
<path d="" fill="#9F6A2F" transform="translate(0,0)"/>
<path d="" fill="#B57936" transform="translate(0,0)"/>
<path d="" fill="#AC7739" transform="translate(0,0)"/>
<path d="" fill="#B47735" transform="translate(0,0)"/>
<path d="" fill="#AD7437" transform="translate(0,0)"/>
<path d="" fill="#B97D39" transform="translate(0,0)"/>
<path d="" fill="#B57A36" transform="translate(0,0)"/>
<path d="" fill="#AA7336" transform="translate(0,0)"/>
<path d="" fill="#A77135" transform="translate(0,0)"/>
<path d="" fill="#A77035" transform="translate(0,0)"/>
<path d="" fill="#A77132" transform="translate(0,0)"/>
<path d="" fill="#AC7436" transform="translate(0,0)"/>
<path d="" fill="#AD7434" transform="translate(0,0)"/>
<path d="" fill="#B68242" transform="translate(0,0)"/>
<path d="" fill="#B17638" transform="translate(0,0)"/>
<path d="" fill="#AB7132" transform="translate(0,0)"/>
<path d="" fill="#AF7435" transform="translate(0,0)"/>
<path d="" fill="#B27636" transform="translate(0,0)"/>
<path d="" fill="#AC7433" transform="translate(0,0)"/>
<path d="" fill="#B37938" transform="translate(0,0)"/>
<path d="" fill="#B47B39" transform="translate(0,0)"/>
<path d="" fill="#B27836" transform="translate(0,0)"/>
<path d="" fill="#B17837" transform="translate(0,0)"/>
<path d="" fill="#A67035" transform="translate(0,0)"/>
<path d="" fill="#A97636" transform="translate(0,0)"/>
<path d="" fill="#A77134" transform="translate(0,0)"/>
<path d="" fill="#A56D33" transform="translate(0,0)"/>
<path d="" fill="#AC7739" transform="translate(0,0)"/>
<path d="" fill="#A47439" transform="translate(0,0)"/>
<path d="" fill="#A67C3F" transform="translate(0,0)"/>
<path d="" fill="#A37C40" transform="translate(0,0)"/>
<path d="" fill="#AB763A" transform="translate(0,0)"/>
<path d="" fill="#A27C40" transform="translate(0,0)"/>
<path d="" fill="#9F7A40" transform="translate(0,0)"/>
<path d="" fill="#A77338" transform="translate(0,0)"/>
<path d="" fill="#A07B43" transform="translate(0,0)"/>
<path d="" fill="#9F7B40" transform="translate(0,0)"/>
<path d="" fill="#A37C40" transform="translate(0,0)"/>
<path d="" fill="#AE7C3C" transform="translate(0,0)"/>
<path d="" fill="#9D7E45" transform="translate(0,0)"/>
<path d="" fill="#AA7837" transform="translate(0,0)"/>
<path d="" fill="#A08248" transform="translate(0,0)"/>
<path d="" fill="#A97235" transform="translate(0,0)"/>
<path d="" fill="#AC7836" transform="translate(0,0)"/>
<path d="" fill="#A28348" transform="translate(0,0)"/>
<path d="" fill="#AF7437" transform="translate(0,0)"/>
<path d="" fill="#9C844B" transform="translate(0,0)"/>
<path d="" fill="#9C8950" transform="translate(0,0)"/>
<path d="" fill="#B37734" transform="translate(0,0)"/>
<path d="" fill="#B17735" transform="translate(0,0)"/>
<path d="" fill="#978651" transform="translate(0,0)"/>
<path d="" fill="#B27434" transform="translate(0,0)"/>
<path d="" fill="#B17838" transform="translate(0,0)"/>
<path d="" fill="#AF7537" transform="translate(0,0)"/>
<path d="" fill="#97884F" transform="translate(0,0)"/>
<path d="" fill="#958652" transform="translate(0,0)"/>
<path d="" fill="#AF7A3B" transform="translate(0,0)"/>
<path d="" fill="#938553" transform="translate(0,0)"/>
<path d="" fill="#928350" transform="translate(0,0)"/>
<path d="" fill="#908150" transform="translate(0,0)"/>
<path d="" fill="#8E804E" transform="translate(0,0)"/>
<path d="" fill="#928450" transform="translate(0,0)"/>
<path d="" fill="#AB7538" transform="translate(0,0)"/>
<path d="" fill="#A97438" transform="translate(0,0)"/>
<path d="" fill="#A97539" transform="translate(0,0)"/>
<path d="" fill="#A77138" transform="translate(0,0)"/>
<path d="" fill="#AA7438" transform="translate(0,0)"/>
<path d="" fill="#928451" transform="translate(0,0)"/>
<path d="" fill="#938652" transform="translate(0,0)"/>
<path d="" fill="#948656" transform="translate(0,0)"/>
<path d="" fill="#918355" transform="translate(0,0)"/>
<path d="" fill="#918653" transform="translate(0,0)"/>
<path d="" fill="#938857" transform="translate(0,0)"/>
<path d="" fill="#938757" transform="translate(0,0)"/>
<path d="" fill="#908454" transform="translate(0,0)"/>
<path d="" fill="#A77436" transform="translate(0,0)"/>
<path d="" fill="#7D6B41" transform="translate(0,0)"/>
<path d="" fill="#A57336" transform="translate(0,0)"/>
<path d="" fill="#8D8051" transform="translate(0,0)"/>
<path d="" fill="#908254" transform="translate(0,0)"/>
<path d="" fill="#A07034" transform="translate(0,0)"/>
<path d="" fill="#908353" transform="translate(0,0)"/>
<path d="" fill="#8D814F" transform="translate(0,0)"/>
<path d="" fill="#907D4F" transform="translate(0,0)"/>
<path d="" fill="#A67033" transform="translate(0,0)"/>
<path d="" fill="#8C7E4F" transform="translate(0,0)"/>
<path d="" fill="#8B7C4B" transform="translate(0,0)"/>
<path d="" fill="#89794C" transform="translate(0,0)"/>
<path d="" fill="#8C774C" transform="translate(0,0)"/>
<path d="" fill="#8A7648" transform="translate(0,0)"/>
<path d="" fill="#8E794D" transform="translate(0,0)"/>
<path d="" fill="#B37435" transform="translate(0,0)"/>
<path d="" fill="#8C784A" transform="translate(0,0)"/>
<path d="" fill="#8E7A4C" transform="translate(0,0)"/>
<path d="" fill="#A97F47" transform="translate(0,0)"/>
<path d="" fill="#B37535" transform="translate(0,0)"/>
<path d="" fill="#8C7848" transform="translate(0,0)"/>
<path d="" fill="#B57536" transform="translate(0,0)"/>
<path d="" fill="#AE7437" transform="translate(0,0)"/>
<path d="" fill="#A87A3E" transform="translate(0,0)"/>
<path d="" fill="#8E7A4A" transform="translate(0,0)"/>
<path d="" fill="#B17233" transform="translate(0,0)"/>
<path d="" fill="#A67D42" transform="translate(0,0)"/>
<path d="" fill="#A38249" transform="translate(0,0)"/>
<path d="" fill="#A2834B" transform="translate(0,0)"/>
<path d="" fill="#A66E33" transform="translate(0,0)"/>
<path d="" fill="#A2864F" transform="translate(0,0)"/>
<path d="" fill="#A1814D" transform="translate(0,0)"/>
<path d="" fill="#8F7B4B" transform="translate(0,0)"/>
<path d="" fill="#917B4C" transform="translate(0,0)"/>
<path d="" fill="#A56F33" transform="translate(0,0)"/>
<path d="" fill="#A2814C" transform="translate(0,0)"/>
<path d="" fill="#8B7748" transform="translate(0,0)"/>
<path d="" fill="#A87135" transform="translate(0,0)"/>
<path d="" fill="#A87033" transform="translate(0,0)"/>
<path d="" fill="#A66F33" transform="translate(0,0)"/>
<path d="" fill="#AA7035" transform="translate(0,0)"/>
<path d="" fill="#978250" transform="translate(0,0)"/>
<path d="" fill="#A66E33" transform="translate(0,0)"/>
<path d="" fill="#A97134" transform="translate(0,0)"/>
<path d="" fill="#AB7134" transform="translate(0,0)"/>
<path d="" fill="#AF7433" transform="translate(0,0)"/>
<path d="" fill="#988653" transform="translate(0,0)"/>
<path d="" fill="#97814F" transform="translate(0,0)"/>
<path d="" fill="#948053" transform="translate(0,0)"/>
<path d="" fill="#A87134" transform="translate(0,0)"/>
<path d="" fill="#AA7336" transform="translate(0,0)"/>
<path d="" fill="#B4793A" transform="translate(0,0)"/>
<path d="" fill="#AE7236" transform="translate(0,0)"/>
<path d="" fill="#AA7033" transform="translate(0,0)"/>
<path d="" fill="#AE7539" transform="translate(0,0)"/>
<path d="" fill="#AA7234" transform="translate(0,0)"/>
<path d="" fill="#AF7335" transform="translate(0,0)"/>
<path d="" fill="#B07C3E" transform="translate(0,0)"/>
<path d="" fill="#AF7B3C" transform="translate(0,0)"/>
<path d="" fill="#AC7335" transform="translate(0,0)"/>
<path d="" fill="#AC763C" transform="translate(0,0)"/>
<path d="" fill="#AD7335" transform="translate(0,0)"/>
<path d="" fill="#AB7436" transform="translate(0,0)"/>
<path d="" fill="#AC793D" transform="translate(0,0)"/>
<path d="" fill="#AE7838" transform="translate(0,0)"/>
<path d="" fill="#AD7637" transform="translate(0,0)"/>
<path d="" fill="#B07439" transform="translate(0,0)"/>
<path d="" fill="#AF783C" transform="translate(0,0)"/>
<path d="" fill="#AC773E" transform="translate(0,0)"/>
<path d="" fill="#A97135" transform="translate(0,0)"/>
<path d="" fill="#AE7438" transform="translate(0,0)"/>
<path d="" fill="#AC7638" transform="translate(0,0)"/>
<path d="" fill="#AC783B" transform="translate(0,0)"/>
<path d="" fill="#BC833E" transform="translate(0,0)"/>
<path d="" fill="#B27738" transform="translate(0,0)"/>
<path d="" fill="#B37839" transform="translate(0,0)"/>
<path d="" fill="#A9773D" transform="translate(0,0)"/>
<path d="" fill="#B27638" transform="translate(0,0)"/>
<path d="" fill="#A8753A" transform="translate(0,0)"/>
<path d="" fill="#8B683A" transform="translate(0,0)"/>
<path d="" fill="#AA783C" transform="translate(0,0)"/>
<path d="" fill="#A97439" transform="translate(0,0)"/>
<path d="" fill="#AB773D" transform="translate(0,0)"/>
<path d="" fill="#AB753E" transform="translate(0,0)"/>
<path d="" fill="#AA6F3A" transform="translate(0,0)"/>
<path d="" fill="#A97038" transform="translate(0,0)"/>
<path d="" fill="#A9703B" transform="translate(0,0)"/>
<path d="" fill="#AB6F3B" transform="translate(0,0)"/>
<path d="" fill="#AE6F34" transform="translate(0,0)"/>
<path d="" fill="#A76E38" transform="translate(0,0)"/>
<path d="" fill="#634624" transform="translate(0,0)"/>
<path d="" fill="#AE7336" transform="translate(0,0)"/>
<path d="" fill="#A96E3A" transform="translate(0,0)"/>
<path d="" fill="#A96C38" transform="translate(0,0)"/>
<path d="" fill="#A56936" transform="translate(0,0)"/>
<path d="" fill="#A66C37" transform="translate(0,0)"/>
<path d="" fill="#A36934" transform="translate(0,0)"/>
<path d="" fill="#AE7133" transform="translate(0,0)"/>
<path d="" fill="#AB6E30" transform="translate(0,0)"/>
<path d="" fill="#AA6F34" transform="translate(0,0)"/>
<path d="" fill="#AD722E" transform="translate(0,0)"/>
<path d="" fill="#A0602D" transform="translate(0,0)"/>
<path d="" fill="#A46C31" transform="translate(0,0)"/>
<path d="" fill="#A56E2E" transform="translate(0,0)"/>
<path d="" fill="#A9692F" transform="translate(0,0)"/>
<path d="" fill="#A86A2E" transform="translate(0,0)"/>
<path d="" fill="#A96D2F" transform="translate(0,0)"/>
<path d="" fill="#A8672F" transform="translate(0,0)"/>
<path d="" fill="#A6682E" transform="translate(0,0)"/>
<path d="" fill="#A5632F" transform="translate(0,0)"/>
<path d="" fill="#9E602C" transform="translate(0,0)"/>
<path d="" fill="#A0622F" transform="translate(0,0)"/>
<path d="" fill="#A1632D" transform="translate(0,0)"/>
<path d="" fill="#060200" transform="translate(0,0)"/>
<path d="" fill="#A66A2C" transform="translate(0,0)"/>
<path d="" fill="#A4632D" transform="translate(0,0)"/>
<path d="" fill="#A6632C" transform="translate(0,0)"/>
<path d="" fill="#AB692F" transform="translate(0,0)"/>
<path d="" fill="#A5632C" transform="translate(0,0)"/>
<path d="" fill="#B16A30" transform="translate(0,0)"/>
<path d="" fill="#AB652E" transform="translate(0,0)"/>
<path d="" fill="#AF7131" transform="translate(0,0)"/>
<path d="" fill="#AE6930" transform="translate(0,0)"/>
<path d="" fill="#AD672F" transform="translate(0,0)"/>
<path d="" fill="#AD672E" transform="translate(0,0)"/>
<path d="" fill="#AA6A2C" transform="translate(0,0)"/>
<path d="" fill="#AA672E" transform="translate(0,0)"/>
<path d="" fill="#AA692F" transform="translate(0,0)"/>
<path d="" fill="#AA6C2D" transform="translate(0,0)"/>
<path d="" fill="#A7652A" transform="translate(0,0)"/>
<path d="" fill="#AA6C2E" transform="translate(0,0)"/>
<path d="" fill="#A8642A" transform="translate(0,0)"/>
<path d="" fill="#B06E2F" transform="translate(0,0)"/>
<path d="" fill="#AD6B2D" transform="translate(0,0)"/>
<path d="" fill="#AE6B2B" transform="translate(0,0)"/>
<path d="" fill="#B16B2E" transform="translate(0,0)"/>
<path d="" fill="#AD6D2E" transform="translate(0,0)"/>
<path d="" fill="#AD692B" transform="translate(0,0)"/>
<path d="" fill="#B06A2E" transform="translate(0,0)"/>
<path d="" fill="#AD6C2E" transform="translate(0,0)"/>
<path d="" fill="#AC6B2C" transform="translate(0,0)"/>
<path d="" fill="#AD682C" transform="translate(0,0)"/>
<path d="" fill="#B0702F" transform="translate(0,0)"/>
<path d="" fill="#B26F30" transform="translate(0,0)"/>
<path d="" fill="#AE6F2F" transform="translate(0,0)"/>
<path d="" fill="#B3712F" transform="translate(0,0)"/>
<path d="" fill="#B16C2D" transform="translate(0,0)"/>
<path d="" fill="#B56F32" transform="translate(0,0)"/>
<path d="" fill="#AF6E2E" transform="translate(0,0)"/>
<path d="" fill="#B17030" transform="translate(0,0)"/>
<path d="" fill="#B47030" transform="translate(0,0)"/>
<path d="" fill="#B16E2F" transform="translate(0,0)"/>
<path d="" fill="#B06B2D" transform="translate(0,0)"/>
<path d="" fill="#B47231" transform="translate(0,0)"/>
<path d="" fill="#AE6A2C" transform="translate(0,0)"/>
<path d="" fill="#B66D2D" transform="translate(0,0)"/>
<path d="" fill="#B8752F" transform="translate(0,0)"/>
<path d="" fill="#B06B2F" transform="translate(0,0)"/>
<path d="" fill="#AD6C2F" transform="translate(0,0)"/>
<path d="" fill="#B47030" transform="translate(0,0)"/>
<path d="" fill="#AF6C2F" transform="translate(0,0)"/>
<path d="" fill="#B76F30" transform="translate(0,0)"/>
<path d="" fill="#B16D30" transform="translate(0,0)"/>
<path d="" fill="#AF6E2F" transform="translate(0,0)"/>
<path d="" fill="#BC7634" transform="translate(0,0)"/>
<path d="" fill="#B97031" transform="translate(0,0)"/>
<path d="" fill="#B97333" transform="translate(0,0)"/>
<path d="" fill="#B5712D" transform="translate(0,0)"/>
<path d="" fill="#BA6F2F" transform="translate(0,0)"/>
<path d="" fill="#B8742E" transform="translate(0,0)"/>
<path d="" fill="#B7712E" transform="translate(0,0)"/>
<path d="" fill="#B8722F" transform="translate(0,0)"/>
<path d="" fill="#B57030" transform="translate(0,0)"/>
<path d="" fill="#B8702F" transform="translate(0,0)"/>
<path d="" fill="#B4702F" transform="translate(0,0)"/>
<path d="" fill="#B76D33" transform="translate(0,0)"/>
<path d="" fill="#B97130" transform="translate(0,0)"/>
<path d="" fill="#C07836" transform="translate(0,0)"/>
<path d="" fill="#B97231" transform="translate(0,0)"/>
<path d="" fill="#B8702E" transform="translate(0,0)"/>
<path d="" fill="#BA7331" transform="translate(0,0)"/>
<path d="" fill="#B87232" transform="translate(0,0)"/>
<path d="" fill="#C47C38" transform="translate(0,0)"/>
<path d="" fill="#BA7231" transform="translate(0,0)"/>
<path d="" fill="#BA7332" transform="translate(0,0)"/>
<path d="" fill="#BA7231" transform="translate(0,0)"/>
<path d="" fill="#BD7533" transform="translate(0,0)"/>
<path d="" fill="#BC7434" transform="translate(0,0)"/>
<path d="" fill="#BA7332" transform="translate(0,0)"/>
<path d="" fill="#BC7634" transform="translate(0,0)"/>
</svg>
