<?xml version="1.0" encoding="UTF-8"?>
<!-- Generator: visioncortex VTracer 0.6.12 -->
<svg version="1.1" xmlns="http://www.w3.org/2000/svg" width="1024" height="1024">
<path d="M0 0 C3.929 2.944 6.258 6.74 7.793 11.344 C8.252 16.388 8.456 20.21 5.855 24.656 C4.485 29.412 5.579 30.672 7.855 34.969 C11.216 40.755 14.326 45.928 20.293 49.219 C21.046 49.649 21.799 50.08 22.574 50.523 C25.128 51.467 26.278 51.27 28.793 50.344 C28.463 51.334 28.133 52.324 27.793 53.344 C29.443 53.179 29.443 53.179 37.793 52.344 C37.793 49.044 37.793 45.744 37.793 42.344 C38.453 42.014 39.113 41.684 39.793 41.344 C40.123 42.334 40.453 43.324 40.793 44.344 C40.69 43.519 40.587 42.694 40.48 41.844 C40.908 37.051 42.791 34.042 45.793 30.344 C49.844 26.998 53.605 25.194 58.793 24.344 C62.522 24.767 66.142 25.485 69.793 26.344 C69.793 27.004 69.793 27.664 69.793 28.344 C70.556 29.086 71.319 29.829 72.105 30.594 C76.641 35.235 77.99 38.855 78.23 45.281 C78.023 53.282 74.718 57.229 69.793 63.344 C70.326 63.499 70.858 63.655 71.407 63.815 C81.378 66.739 91.247 69.714 100.945 73.461 C103.793 74.344 103.793 74.344 106.422 74.227 C109.733 74.39 110.492 76.029 112.793 78.344 C115.044 79.741 115.044 79.741 117.504 81.008 C118.412 81.485 119.321 81.962 120.257 82.454 C121.217 82.954 122.178 83.454 123.168 83.969 C140.921 93.434 157.294 105.539 171.387 119.977 C172.793 121.344 172.793 121.344 175.793 123.344 C177.213 124.966 178.627 126.594 180.008 128.25 C181.936 130.511 183.955 132.669 185.98 134.844 C217.793 170.179 217.793 170.179 217.793 184.344 C218.453 184.674 219.113 185.004 219.793 185.344 C220.503 187.329 221.158 189.333 221.793 191.344 C222.358 192.78 222.937 194.211 223.527 195.637 C227.091 204.28 230.462 212.929 233.293 221.844 C233.548 222.638 233.803 223.432 234.065 224.251 C235.163 227.795 235.793 230.602 235.793 234.344 C236.453 234.674 237.113 235.004 237.793 235.344 C238.285 237.258 238.285 237.258 238.668 239.969 C239.265 244.071 239.93 248.147 240.69 252.223 C243.525 267.533 245.192 282.814 246.575 298.314 C249.867 334.778 259.428 359.909 287.793 384.344 C301.85 396.459 312.485 408.614 318.793 426.344 C318.963 426.821 318.963 426.821 319.824 429.238 C322.899 439.872 322.006 451.072 321.727 462.028 C321.793 464.344 321.793 464.344 322.793 466.344 C321.803 466.344 320.813 466.344 319.793 466.344 C319.68 467.219 319.566 468.094 319.449 468.996 C317.589 478.484 311.466 486.578 305.844 494.238 C302.142 499.844 299.512 505.476 300.793 512.344 C303.629 521.041 310.845 525.999 317.793 531.344 C318.676 532.054 319.559 532.764 320.469 533.496 C326.335 538.191 326.335 538.191 329.793 539.344 C331.152 540.875 331.152 540.875 332.543 542.844 C334.152 545.094 335.752 547.295 337.527 549.418 C347.803 561.717 352.564 576.82 351.582 592.77 C349.614 609.458 342.707 624.42 329.793 635.344 C320.889 641.931 311.773 646.154 300.824 647.852 C298.793 648.344 298.793 648.344 296.793 650.344 C296.463 649.684 296.133 649.024 295.793 648.344 C295.525 649.155 295.257 649.965 294.98 650.801 C289.57 666.088 280.348 677.547 265.98 685.281 C253.945 690.884 241.777 690.624 228.793 690.344 C228.68 691.236 228.566 692.128 228.449 693.047 C226.245 704.123 216.097 714.682 207.062 720.973 C189.771 731.419 171.34 733.432 151.793 729.344 C151.083 729.136 150.372 728.929 149.641 728.715 C147.793 728.344 147.793 728.344 144.793 729.344 C142.345 728.508 140.104 727.499 137.793 726.344 C135.281 727.531 132.859 728.774 130.418 730.094 C123.708 733.607 117.287 735.981 109.793 737.344 C109.767 738.365 109.741 739.386 109.715 740.438 C109.182 755.556 106.644 770.279 103.641 785.086 C100.714 799.532 97.941 813.858 105.793 827.344 C108.23 828.656 108.23 828.656 110.793 829.344 C111.783 829.014 112.773 828.684 113.793 828.344 C114.605 826.569 114.605 826.569 115.223 824.258 C115.458 823.414 115.694 822.57 115.937 821.701 C116.178 820.799 116.419 819.898 116.668 818.969 C118.581 812.174 120.636 805.769 123.812 799.438 C124.761 797.412 125.332 795.527 125.793 793.344 C126.453 793.344 127.113 793.344 127.793 793.344 C128.044 792.621 128.296 791.897 128.555 791.152 C130.33 787.127 133.008 784.129 135.797 780.758 C137.269 778.978 138.675 777.143 140.043 775.281 C144.048 770.464 149.754 766.982 154.793 763.344 C155.404 762.841 156.015 762.338 156.645 761.82 C166.815 754.831 179.854 750.85 191.793 748.344 C192.826 748.119 193.858 747.895 194.922 747.664 C207.057 745.49 219.516 746.164 231.793 746.344 C232.123 747.334 232.453 748.324 232.793 749.344 C233.284 749.752 233.775 750.161 234.281 750.582 C236.606 753.291 236.564 756.04 236.98 759.531 C237.06 760.167 237.06 760.167 237.461 763.387 C237.571 764.363 237.68 765.338 237.793 766.344 C237.133 766.344 236.473 766.344 235.793 766.344 C235.826 767.47 235.86 768.597 235.895 769.758 C235.888 774.546 235.129 779.039 234.168 783.719 C234.08 784.152 234.08 784.152 233.632 786.342 C228.487 810.393 218.417 833.585 197.793 848.344 C198.845 848.962 199.897 849.581 200.98 850.219 C227.313 866.84 241.276 893.049 248.23 922.906 C248.981 927.489 249.234 931.878 247.793 936.344 C242.969 942.684 235.297 943.151 227.793 944.344 C222.742 944.756 217.734 944.821 212.668 944.781 C211.996 944.779 211.324 944.776 210.632 944.773 C193.499 944.669 175.335 942.115 159.793 934.344 C159.133 935.004 158.473 935.664 157.793 936.344 C157.793 935.024 157.793 933.704 157.793 932.344 C157.054 932.067 156.316 931.789 155.555 931.504 C146.016 927.497 137.212 919.856 130.855 911.781 C130.175 910.977 129.494 910.173 128.793 909.344 C127.803 909.344 126.813 909.344 125.793 909.344 C125.691 908.472 125.589 907.601 125.484 906.703 C124.75 903.136 123.56 900.725 121.73 897.594 C118.793 892.534 118.793 892.534 118.793 890.344 C115.589 890.7 114.14 890.986 111.855 893.344 C109.793 895.344 109.793 895.344 107.23 895.734 C102.735 896.531 98.908 898.297 94.73 900.094 C84.318 904.419 73.812 907.073 62.793 909.344 C62.23 909.467 62.23 909.467 59.379 910.09 C53.472 911.296 47.814 911.579 41.793 911.344 C41.463 912.004 41.133 912.664 40.793 913.344 C32.543 913.014 24.293 912.684 15.793 912.344 C15.793 913.004 15.793 913.664 15.793 914.344 C15.133 914.014 14.473 913.684 13.793 913.344 C14.123 912.684 14.453 912.024 14.793 911.344 C13.638 911.364 12.483 911.385 11.293 911.406 C4.113 911.418 -3.047 910.836 -10.207 910.344 C-10.537 909.354 -10.867 908.364 -11.207 907.344 C-12.325 907.239 -13.442 907.135 -14.594 907.027 C-33.9 904.582 -52.295 894.215 -68.273 883.621 C-70.207 882.344 -70.207 882.344 -72.207 881.344 C-73.901 879.698 -75.557 878.032 -77.207 876.344 C-78.372 875.176 -79.539 874.009 -80.707 872.844 C-83.54 870.01 -86.374 867.177 -89.207 864.344 C-89.779 863.818 -90.352 863.292 -90.941 862.75 C-96.017 857.959 -99.924 852.753 -103.706 846.916 C-104.91 845.125 -104.91 845.125 -107.207 842.344 C-108.527 842.344 -109.847 842.344 -111.207 842.344 C-111.207 841.354 -111.207 840.364 -111.207 839.344 C-112.197 839.014 -113.187 838.684 -114.207 838.344 C-113.997 837.632 -113.786 836.92 -113.569 836.187 C-113.12 832.66 -113.881 831.045 -115.41 827.859 C-115.896 826.842 -116.382 825.825 -116.883 824.777 C-117.143 824.252 -117.143 824.252 -118.457 821.594 C-118.709 821.061 -118.709 821.061 -119.984 818.363 C-122.818 812.525 -122.818 812.525 -124.207 810.344 C-125.197 810.014 -126.187 809.684 -127.207 809.344 C-128.887 808.172 -128.887 808.172 -130.207 806.344 C-130.465 803.453 -130.465 803.453 -130.332 800.094 C-130.215 795.338 -130.338 791.012 -131.207 786.344 C-132.197 786.344 -133.187 786.344 -134.207 786.344 C-134.125 785.973 -134.125 785.973 -133.707 784.094 C-133.207 781.344 -133.207 781.344 -133.207 777.344 C-134.197 777.674 -135.187 778.004 -136.207 778.344 C-137.033 775.451 -137.207 773.456 -137.207 770.344 C-136.547 770.344 -135.887 770.344 -135.207 770.344 C-135.455 770.148 -135.455 770.148 -136.707 769.156 C-138.207 767.344 -138.207 767.344 -138.457 764.906 C-138.207 762.344 -138.207 762.344 -137.684 760.481 C-137.146 758.068 -137.186 756.044 -137.328 753.578 C-137.376 752.689 -137.425 751.799 -137.475 750.883 C-137.531 749.962 -137.587 749.042 -137.645 748.094 C-137.697 747.158 -137.749 746.222 -137.803 745.258 C-137.932 742.953 -138.067 740.648 -138.207 738.344 C-140.847 738.344 -143.487 738.344 -146.207 738.344 C-146.207 737.684 -146.207 737.024 -146.207 736.344 C-145.217 736.014 -144.227 735.684 -143.207 735.344 C-144.486 735.117 -145.765 734.89 -147.082 734.656 C-151.821 733.622 -155.782 731.744 -160.043 729.465 C-166.704 726.014 -171.922 727.469 -178.707 729.609 C-191.794 733.454 -206.951 731.453 -220.207 729.344 C-219.877 728.684 -219.547 728.024 -219.207 727.344 C-219.592 727.169 -219.592 727.169 -221.543 726.285 C-222.546 725.83 -223.549 725.375 -224.582 724.906 C-225.58 724.454 -226.577 724.001 -227.605 723.535 C-231.005 721.978 -233.113 720.541 -235.727 717.844 C-236.74 716.817 -237.781 715.818 -238.844 714.844 C-246.087 708.072 -251.28 699.813 -254.207 690.344 C-254.207 689.684 -254.207 689.024 -254.207 688.344 C-254.719 688.67 -255.231 688.996 -255.758 689.332 C-259.063 690.697 -261.827 690.571 -265.395 690.531 C-266.061 690.526 -266.727 690.52 -267.413 690.514 C-271.106 690.46 -274.732 690.245 -278.395 689.781 C-281.818 689.388 -283.076 689.523 -286.207 690.344 C-287.527 690.344 -288.847 690.344 -290.207 690.344 C-290.281 689.574 -290.354 688.805 -290.43 688.012 C-291.207 685.344 -291.207 685.344 -293.141 683.895 C-293.967 683.486 -294.793 683.077 -295.645 682.656 C-305.789 676.946 -311.84 669.239 -316.734 658.934 C-318.207 656.344 -318.207 656.344 -321.207 655.344 C-322.395 652.781 -322.395 652.781 -323.207 650.344 C-325.517 650.344 -327.827 650.344 -330.207 650.344 C-330.207 649.684 -330.207 649.024 -330.207 648.344 C-332.207 647.344 -332.207 647.344 -334.582 646.969 C-337.518 646.27 -338.828 645.155 -341.207 643.344 C-342.572 642.616 -343.948 641.908 -345.332 641.219 C-357.003 634.799 -368.191 623.263 -372.207 610.344 C-372.207 609.354 -372.207 608.364 -372.207 607.344 C-373.527 607.014 -374.847 606.684 -376.207 606.344 C-376.207 604.344 -376.207 604.344 -375.207 603.344 C-375.867 602.684 -376.527 602.024 -377.207 601.344 C-377.102 598.992 -376.693 596.758 -376.301 594.438 C-376.285 594.092 -376.285 594.092 -376.207 592.344 C-376.867 591.684 -377.527 591.024 -378.207 590.344 C-378.402 587.523 -378.402 587.523 -378.332 584.219 C-378.314 583.123 -378.296 582.027 -378.277 580.898 C-378.254 580.055 -378.231 579.212 -378.207 578.344 C-377.217 578.014 -376.227 577.684 -375.207 577.344 C-375.372 576.56 -375.537 575.776 -375.707 574.969 C-376.207 572.344 -376.207 572.344 -376.207 570.344 C-375.217 570.014 -374.227 569.684 -373.207 569.344 C-372.01 567.187 -370.969 565.084 -369.957 562.844 C-363.072 548.435 -351.953 538.107 -339.285 528.668 C-332.421 523.485 -326.784 518.885 -325.207 510.031 C-324.736 503.774 -327.304 498.246 -330.68 493.098 C-332.674 490.808 -334.252 490.663 -337.207 490.344 C-337.331 489.457 -337.455 488.57 -337.582 487.656 C-338.161 484.586 -338.931 482.18 -340.207 479.344 C-340.681 478.271 -341.156 477.199 -341.645 476.094 C-343.207 473.344 -343.207 473.344 -346.207 472.344 C-346.257 467.809 -346.293 463.274 -346.317 458.739 C-346.327 457.2 -346.34 455.661 -346.358 454.122 C-346.448 445.967 -346.493 438.254 -344.207 430.344 C-344.867 430.014 -345.527 429.684 -346.207 429.344 C-345.877 428.354 -345.547 427.364 -345.207 426.344 C-344.547 426.674 -343.887 427.004 -343.207 427.344 C-342.881 426.547 -342.555 425.75 -342.219 424.93 C-340.038 419.642 -337.872 414.407 -335.207 409.344 C-334.877 408.684 -334.547 408.024 -334.207 407.344 C-333.095 406.232 -331.98 405.122 -330.855 404.023 C-328.773 401.902 -326.809 399.689 -324.832 397.469 C-319.3 391.294 -313.668 385.544 -307.207 380.344 C-307.537 379.684 -307.867 379.024 -308.207 378.344 C-307.722 378.189 -307.722 378.189 -305.27 377.406 C-295.33 373.067 -288.734 362.251 -283.207 353.344 C-282.142 350.147 -282.133 347.686 -282.207 344.344 C-281.217 344.674 -280.227 345.004 -279.207 345.344 C-278.362 342.972 -277.531 340.597 -276.707 338.219 C-276.469 337.554 -276.23 336.888 -275.984 336.203 C-274.58 332.11 -273.934 328.732 -274.207 324.344 C-273.877 324.344 -273.547 324.344 -273.207 324.344 C-271.188 312.304 -269.647 300.215 -268.292 288.085 C-268.113 286.49 -267.931 284.896 -267.746 283.302 C-266.469 272.269 -265.977 261.449 -266.207 250.344 C-265.217 250.014 -264.227 249.684 -263.207 249.344 C-262.319 247.021 -262.319 247.021 -261.594 243.938 C-261.318 242.808 -261.042 241.679 -260.758 240.516 C-260.473 239.304 -260.188 238.092 -259.895 236.844 C-257.677 227.803 -255.298 218.986 -251.985 210.283 C-250.915 207.46 -250.207 205.398 -250.207 202.344 C-249.547 202.344 -248.887 202.344 -248.207 202.344 C-247.877 201.189 -247.547 200.034 -247.207 198.844 C-244.687 191.319 -240.895 184.347 -237.207 177.344 C-236.859 176.679 -236.51 176.014 -236.151 175.329 C-224.5 153.299 -209.248 134.953 -191.441 117.651 C-190.648 116.875 -189.856 116.1 -189.039 115.301 C-188.325 114.61 -187.61 113.918 -186.874 113.206 C-185.207 111.344 -185.207 111.344 -184.207 108.344 C-183.923 108.274 -183.923 108.274 -182.484 107.922 C-179.228 107.095 -177.358 105.225 -174.77 103.094 C-150.092 83.466 -121.178 71.294 -91.207 62.344 C-91.996 61.566 -92.785 60.789 -93.598 59.988 C-98.244 55.279 -100.219 51.029 -100.207 44.344 C-99.517 39.308 -97.887 34.674 -95.207 30.344 C-93.457 29.156 -93.457 29.156 -91.207 28.344 C-90.681 28.076 -90.681 28.076 -88.02 26.719 C-83.717 24.948 -79.791 24.41 -75.207 25.344 C-69.942 27.727 -65.46 31.041 -62.832 36.273 C-61.773 39.782 -61.716 43.342 -61.676 46.988 C-61.207 49.344 -61.207 49.344 -59.473 50.645 C-54.025 52.326 -48.253 52.149 -43.02 49.844 C-36.295 45.986 -30.384 38.838 -28.207 31.344 C-28.138 28.567 -28.596 26.045 -29.207 23.344 C-30.467 16.93 -30.193 11.873 -26.98 6.164 C-20.499 -3.298 -9.974 -5.574 0 0 Z M-265.207 256.344 C-264.207 260.344 -264.207 260.344 -264.207 260.344 Z M-345.207 466.344 C-344.207 469.344 -344.207 469.344 -344.207 469.344 Z M-377.207 587.344 C-376.207 589.344 -376.207 589.344 -376.207 589.344 Z M-326.207 647.344 C-325.712 647.674 -325.712 647.674 -323.207 649.344 C-322.217 649.014 -321.227 648.684 -320.207 648.344 C-320.207 648.014 -320.207 647.684 -320.207 647.344 C-322.187 647.344 -324.167 647.344 -326.207 647.344 Z M-320.207 648.344 C-319.207 651.344 -319.207 651.344 -319.207 651.344 Z M139.793 724.344 C139.793 725.004 139.793 725.664 139.793 726.344 C140.783 726.014 141.773 725.684 142.793 725.344 C141.803 725.014 140.813 724.684 139.793 724.344 Z M-135.207 772.344 C-134.207 776.344 -134.207 776.344 -134.207 776.344 Z M-129.207 796.344 C-128.207 799.344 -128.207 799.344 -128.207 799.344 Z M-128.207 799.344 C-127.207 802.344 -127.207 802.344 -127.207 802.344 Z M-127.207 802.344 C-127.537 803.004 -127.867 803.664 -128.207 804.344 C-127.547 804.344 -126.887 804.344 -126.207 804.344 C-126.537 803.684 -126.867 803.024 -127.207 802.344 Z M-126.207 805.344 C-126.207 806.334 -126.207 807.324 -126.207 808.344 C-125.547 808.014 -124.887 807.684 -124.207 807.344 C-124.867 806.684 -125.527 806.024 -126.207 805.344 Z " fill="#171107" transform="translate(522.20703125,37.65625)"/>
<path d="M0 0 C1.65 6.93 3.3 13.86 5 21 C4.247 21.299 4.247 21.299 0.438 22.812 C-16.704 30.017 -33.016 37.907 -48 49 C-48.665 49.492 -49.33 49.983 -50.016 50.49 C-68.71 64.533 -100.544 90.316 -105 115 C-101.202 112.238 -98.312 109.148 -95.285 105.609 C-92.259 102.154 -89.134 98.795 -86 95.438 C-85.419 94.813 -84.837 94.188 -84.239 93.544 C-45.549 52.148 6.257 25.981 63.285 23.879 C94.32 23.02 124.286 26.751 153 39 C153.71 39.297 154.42 39.594 155.151 39.899 C166.704 44.802 177.034 50.975 187.348 58.123 C188.272 58.754 189.196 59.385 190.148 60.035 C190.557 60.321 190.557 60.321 192.623 61.766 C195.326 63.169 196.995 63.33 200 63 C201 62 201 62 201.281 59.664 C200.826 55.352 198.206 53.96 194.992 51.297 C178.417 38.573 160.812 28.722 141 22 C143 14.667 145 7.333 147 0 C182.49 8.348 211.081 23.727 239 47 C239.329 47.267 239.329 47.267 240.996 48.617 C244.813 51.763 248.009 55.188 251.203 58.961 C252.942 60.934 254.771 62.702 256.688 64.5 C271.923 79.618 283.097 99.638 292 119 C292.331 119.717 292.662 120.434 293.003 121.173 C306.421 150.642 312.662 182.162 315.965 214.203 C316.05 215.029 316.136 215.854 316.224 216.705 C316.65 220.852 317.067 224.999 317.467 229.149 C318.78 242.493 320.281 255.965 325.125 268.562 C325.427 269.355 325.729 270.147 326.041 270.964 C333.903 290.806 347.596 304.536 363.652 318.145 C379.108 331.255 391.333 348.913 393.238 369.586 C393.647 384.96 388.255 397.816 379.375 410.062 C372.898 419.21 370.399 427.716 372 439 C376.177 452.413 387.102 460.615 397.922 468.676 C409.515 477.429 419.408 489.225 422 504 C423.063 518.296 419.995 531.93 410.812 543.188 C402.167 552.471 391.626 558.198 379 559 C378.914 558.201 378.827 557.402 378.738 556.578 C377.243 544.889 373.564 534.217 366 525 C363 523 363 523 360.312 523.375 C359.549 523.581 358.786 523.788 358 524 C357.607 529.701 358.649 533.015 361.375 538 C367.069 548.497 368.666 558.509 366.348 570.324 C363.15 581.041 356.209 589.882 346.477 595.441 C337.189 600.221 326.714 601.98 316.383 599.328 C314.576 598.583 312.786 597.794 311 597 C307.5 596.812 307.5 596.812 305 597 C304.753 597.887 304.505 598.774 304.25 599.688 C304.064 600.323 303.879 600.959 303.688 601.613 C303.168 603.418 302.672 605.229 302.188 607.043 C298.612 619.753 292.57 628.987 280.988 635.762 C267.789 642.337 252.13 644.271 237.895 639.812 C235.361 638.963 232.894 638.031 230.402 637.059 C225.162 635.428 221.643 635.213 216.641 637.609 C215.503 638.311 214.373 639.025 213.25 639.75 C199.709 648 199.709 648 192 648 C191.88 647.387 191.76 646.774 191.636 646.143 C188.798 631.862 185.332 618.684 179.375 605.367 C178.199 602.488 177.546 600.172 177.125 597.125 C175.959 590.742 173.209 585.398 168.812 580.625 C165.971 576.51 165.65 571.887 165 567 C167.556 569.329 169.134 571.774 170.875 574.75 C174.02 579.789 177.588 584.223 181.5 588.688 C182.068 589.336 182.635 589.984 183.22 590.652 C185.523 593.262 187.843 595.837 190.254 598.348 C194.368 602.675 196.128 606.595 197.988 612.254 C201.301 621.245 206.662 625.831 215 630 C227.324 631.038 227.324 631.038 231.688 628.188 C234 626 234 626 236 623 C236.583 623.144 237.165 623.289 237.766 623.438 C248.555 625.88 259.026 626.495 269 621 C273.924 616.925 276.393 612.309 277.285 605.977 C277.73 599.474 275.692 594.307 272 589 C267.322 583.655 261.948 579.634 256.125 575.625 C249.447 570.919 243.341 566.237 238 560 C237.705 559.671 237.705 559.671 236.215 558.004 C235 556 235 556 235.16 554.078 C236.541 550.66 238.14 547.364 239.746 544.047 C245.672 529.648 244.464 512.34 239 498 C234.593 487.61 228.94 478.475 222.102 469.512 C212.164 456.255 199.072 436.782 200.16 419.449 C201.3 416.124 202.759 415.544 205.812 413.875 C212.755 409.74 218.213 404.571 224 399 C224.659 398.416 225.317 397.832 225.996 397.23 C229.89 393.679 232.766 389.593 235.625 385.188 C236.018 384.582 236.411 383.977 236.816 383.354 C239.102 379.727 240.708 376.226 242.188 372.188 C243.273 369.801 243.273 369.801 245 368 C249.706 366.853 254.177 366.778 259 367 C259.196 368.102 259.392 369.204 259.594 370.34 C263.289 389.677 271.581 403.429 283.445 418.941 C294.5 433.582 299.346 447.746 298 466 C296.616 475.117 291.471 482.47 286.417 489.976 C278.349 502.079 275.055 514.149 277.625 528.688 C279.956 537.509 285.449 544.957 293 550 C297.599 552.463 301.365 554.113 306.625 553.75 C307.409 553.503 308.192 553.255 309 553 C309.316 550.707 309.316 550.707 309 548 C306.84 546.262 306.84 546.262 303.938 544.688 C297.354 540.781 291.171 535.683 288.438 528.234 C286.593 518.816 287.135 509.342 292 501 C293.816 498.315 295.669 495.667 297.564 493.038 C308.126 478.176 311.261 461.994 308.383 444.18 C304.827 430.364 297.491 419.268 288.799 408.211 C278.285 394.808 269.696 380.519 270 363 C270.381 362.824 270.381 362.824 272.309 361.934 C287.749 354.551 297.488 345.003 304 329 C308.834 314.116 308.355 299.253 301.312 285.188 C297.161 278.049 291.571 273.218 284 270 C284.121 269.406 284.242 268.811 284.367 268.199 C284.919 265.468 285.46 262.734 286 260 C286.09 259.562 286.09 259.562 286.543 257.344 C291.448 232.264 289.027 206.666 283 182 C281.35 181.67 279.7 181.34 278 181 C278.072 182.159 278.144 183.318 278.219 184.512 C282.702 263.496 282.702 263.496 259.688 291.125 C258.801 292.074 257.914 293.022 257 294 C256.67 294 256.34 294 256 294 C255.98 293.005 255.96 292.01 255.94 290.984 C254.94 242.373 251.556 192.871 234 147 C233.674 146.143 233.347 145.286 233.011 144.403 C232.02 141.857 230.99 139.333 229.938 136.812 C229.633 136.051 229.329 135.289 229.016 134.505 C227.394 130.81 226.485 129.222 222.754 127.512 C221.845 127.343 220.936 127.174 220 127 C221.327 134.292 223.047 141.325 225.309 148.382 C233.385 173.603 238.529 199.772 242 226 C224.572 220.861 208.352 209.327 195.215 197.062 C193.255 195.238 191.246 193.524 189.188 191.812 C173.027 177.603 160.842 160.017 151 141 C150.397 139.836 149.793 138.672 149.172 137.473 C143.728 126.377 139.896 114.709 136 103 C134.35 103.33 132.7 103.66 131 104 C130.94 104.322 130.94 104.322 130.636 105.949 C123.637 142.874 108.408 173.561 76.879 195.438 C53.562 211.08 28.687 218.641 1 222 C0.67 221.34 0.34 220.68 0 220 C0.997 217.673 2.051 215.445 3.188 213.188 C15.358 187.923 17.144 159.736 17.25 132.125 C17.255 131.329 17.261 130.533 17.266 129.714 C17.278 127.416 17.274 125.118 17.266 122.82 C17.27 122.136 17.274 121.451 17.278 120.746 C17.234 116.118 16.422 112.355 15 108 C13.68 108 12.36 108 11 108 C10.902 108.281 10.902 108.281 10.406 109.703 C9.3 112.813 8.153 115.907 7 119 C6.868 119.357 6.868 119.357 6.203 121.162 C-2.977 145.833 -15.605 167.187 -34 186 C-34.73 186.75 -35.46 187.501 -36.212 188.274 C-53.851 206.349 -53.851 206.349 -64 214 C-65.208 214.947 -66.415 215.895 -67.621 216.844 C-86.54 231.564 -107.882 243.376 -131 250 C-131.619 250.185 -132.237 250.371 -132.874 250.562 C-138.065 252.015 -142.939 252.303 -148.312 252.25 C-149.11 252.258 -149.907 252.265 -150.729 252.273 C-154.657 252.26 -156.663 252.225 -160 250 C-158.621 245.78 -156.385 242.456 -153.913 238.822 C-141.285 220.239 -130.998 199.991 -123 179 C-122.604 177.964 -122.208 176.929 -121.799 175.862 C-120.515 172.477 -119.253 169.084 -118 165.688 C-117.601 164.619 -117.203 163.55 -116.792 162.449 C-116.427 161.438 -116.063 160.428 -115.688 159.387 C-115.361 158.492 -115.035 157.597 -114.699 156.675 C-113.919 153.692 -113.878 151.07 -114 148 C-116.25 148.062 -116.25 148.062 -119 149 C-122.032 153.779 -124.381 158.81 -126.688 163.969 C-127.386 165.514 -128.086 167.058 -128.785 168.603 C-129.147 169.402 -129.508 170.202 -129.88 171.026 C-140.028 193.439 -150.635 214.66 -164.629 234.973 C-169.097 241.533 -172.518 246.882 -171 255 C-167.411 260.569 -161.253 262.633 -155 264 C-150.001 264.425 -145.007 264.243 -140 264 C-139.67 265.65 -139.34 267.3 -139 269 C-139.641 269.208 -140.281 269.415 -140.941 269.629 C-151.507 273.392 -155.904 278.977 -160.738 288.938 C-166.066 301.869 -165.79 317.646 -161.324 330.855 C-155.05 345.753 -145.964 354.34 -132 362 C-131.01 362.33 -130.02 362.66 -129 363 C-130.152 378.55 -139.305 390.259 -149.602 401.332 C-154.375 406.641 -158.699 412.306 -163 418 C-163.269 418.348 -163.269 418.348 -164.633 420.109 C-172.447 431.216 -174.603 445.779 -173 459 C-170.814 470.651 -164.958 480.172 -157.875 489.5 C-151.248 498.366 -146.865 508.812 -148 520 C-149.712 528.435 -152.177 535.489 -159 541 C-162.896 543.545 -166.881 545.836 -171 548 C-170.67 549.65 -170.34 551.3 -170 553 C-161.525 553.683 -155.66 551.664 -148.953 546.391 C-141.549 539.493 -138.218 530.572 -137.629 520.555 C-137.183 503.728 -142.289 492.104 -151.88 478.586 C-154.076 475.477 -156.099 472.296 -158 469 C-158.391 468.392 -158.781 467.783 -159.184 467.156 C-163.806 458.84 -163.202 447.869 -161.34 438.777 C-157.845 428.263 -151.161 419.928 -143.688 411.953 C-131.835 398.929 -121.233 384.927 -119 367 C-113.69 366.522 -109.153 366.496 -104 368 C-101.494 371.111 -100.182 374.346 -98.734 378.016 C-95.97 384.917 -90.801 390.422 -86 396 C-85.428 396.675 -84.855 397.351 -84.266 398.047 C-81.514 401.025 -78.592 403.3 -75.203 405.508 C-64.58 412.51 -64.58 412.51 -63.078 416.367 C-63.286 419.169 -64.024 421.362 -65 424 C-65.316 425.195 -65.632 426.39 -65.957 427.621 C-70.292 443.799 -78.491 457.981 -88.48 471.324 C-102.599 490.301 -110.65 512.102 -107.312 536.062 C-105.848 543.937 -103.074 551.727 -98 558 C-101.314 565.411 -108.182 570.268 -114.5 575.062 C-115.063 575.49 -115.625 575.917 -116.205 576.358 C-116.481 576.568 -116.481 576.568 -117.879 577.629 C-133.885 589.789 -133.885 589.789 -135.508 600.285 C-135.743 607.104 -134.943 611.455 -131 617 C-131 617.66 -131 618.32 -131 619 C-130.464 619.268 -129.928 619.536 -129.375 619.812 C-127.575 620.713 -125.785 621.633 -124 622.562 C-114.514 627.108 -104.648 625.135 -95 622 C-94.423 622.949 -93.845 623.898 -93.25 624.875 C-91.039 627.946 -90.367 628.725 -87 630 C-77.848 631.222 -72.129 628.915 -64.812 623.75 C-59.943 618.989 -57.325 614.267 -55.438 607.75 C-53.519 602.127 -50.164 598.846 -45.926 594.914 C-41.505 590.728 -37.973 586.18 -34.5 581.188 C-34.008 580.482 -33.516 579.777 -33.01 579.05 C-30.111 574.814 -27.488 570.489 -25 566 C-23.548 570.356 -24.307 573.77 -26 578 C-27.649 579.933 -29.433 581.559 -31.316 583.262 C-35.062 587.129 -35.995 591.836 -36.25 597.062 C-36.612 601.486 -38.283 604.966 -40.25 608.875 C-46.316 621.058 -49.203 634.564 -51 648 C-60.342 646.967 -68.805 643.078 -76.199 637.273 C-78 636 -78 636 -80.938 636.062 C-84.523 636.75 -87.96 637.901 -91.438 639 C-105.712 643.503 -120.713 643.504 -134.312 636.75 C-146.573 630.331 -153.412 621.369 -158.293 608.367 C-159.323 604.918 -159.675 601.58 -160 598 C-161 597 -161 597 -163.562 596.75 C-167 597 -167 597 -170.312 598.5 C-178.495 601.789 -189.704 601.152 -198 598.438 C-208.717 593.793 -216.906 585.531 -221.375 574.75 C-225.415 564 -224.993 552.73 -221 542 C-219.219 538.841 -217.312 535.787 -215.387 532.715 C-213.99 529.981 -213.612 528.733 -214.062 525.75 C-214.217 525.296 -214.217 525.296 -215 523 C-217.962 522.815 -219.327 522.835 -222 524 C-231.349 533.297 -235.288 546.247 -237 559 C-247.091 558.798 -256.788 553.558 -264 546.688 C-274.097 535.633 -278.365 523.157 -278.215 508.344 C-277.906 503.532 -276.788 499.458 -275 495 C-274.694 494.202 -274.389 493.404 -274.074 492.582 C-268.599 480.058 -257.401 471.344 -247 463 C-237.727 455.35 -229.121 448.05 -227.586 435.656 C-226.858 422.599 -232.311 413.583 -239.688 403.438 C-244.11 397.29 -246.27 391.323 -248 384 C-248.191 383.318 -248.382 382.636 -248.578 381.934 C-251.827 367.042 -245.702 351.499 -238 339 C-231.55 329.865 -223.576 322.127 -215.137 314.848 C-211.031 311.298 -207.005 307.663 -203 304 C-202.381 303.448 -201.762 302.897 -201.125 302.328 C-176.742 279.526 -173.867 245.997 -170.553 214.808 C-164.411 157.051 -146.658 101.997 -105.462 59.513 C-104.019 58.019 -102.599 56.505 -101.18 54.988 C-78.376 30.991 -34.106 0 0 0 Z " fill="#E46F49" transform="translate(438,114)"/>
<path d="M0 0 C2.949 1.474 3.268 3.557 4.562 6.562 C10.345 19.362 17.209 31.011 26 42 C26.65 42.853 27.299 43.707 27.969 44.586 C38.774 58.425 51.726 70.795 66 81 C66.595 81.429 67.19 81.857 67.803 82.299 C74.673 87.198 81.714 91.571 89.25 95.375 C89.556 95.53 89.556 95.53 91.107 96.313 C96.577 98.973 102.264 100.991 108 103 C117.456 211.503 117.456 211.503 88 249.375 C86.684 250.931 85.352 252.474 84 254 C83.741 254.3 83.741 254.3 82.43 255.82 C64.889 274.771 38.572 282.926 14.125 288.188 C13.047 288.425 11.969 288.663 10.858 288.909 C-11.479 293.469 -34.127 294.506 -56.863 294.391 C-60.255 294.374 -63.646 294.384 -67.038 294.401 C-114.53 294.605 -174.339 291.12 -210.199 255.832 C-211.123 254.897 -212.048 253.963 -213 253 C-213.687 252.323 -214.374 251.646 -215.082 250.949 C-245.75 218.62 -241.536 159.291 -241 118 C-240.412 117.689 -239.824 117.378 -239.219 117.057 C-218.847 106.231 -200.215 94.501 -183.141 78.914 C-175.025 71.658 -167.051 71.854 -156.562 71.438 C-156.054 71.416 -156.054 71.416 -153.479 71.307 C-150.986 71.201 -148.493 71.099 -146 71 C-146.33 69.35 -146.66 67.7 -147 66 C-153.07 63.842 -158.594 63.791 -165 64 C-162.287 60.787 -159.572 57.608 -156.691 54.543 C-148.198 45.493 -141.47 35.576 -135.062 25 C-134.685 24.377 -134.307 23.754 -133.918 23.112 C-131.965 19.828 -130.3 16.594 -129 13 C-123.169 33.141 -135.264 63.598 -144.777 81.309 C-145.801 83.123 -146.849 84.924 -147.934 86.703 C-149.179 89.385 -149.436 91.078 -149 94 C-139.984 100.01 -121.92 96.482 -111.783 94.462 C-107.153 93.428 -102.57 92.271 -98 91 C-97.281 90.802 -96.563 90.605 -95.822 90.401 C-59.502 80.103 -28.011 54.987 -9.648 22.197 C-5.761 15.036 -2.698 7.693 0 0 Z " fill="#F9D6B3" transform="translate(573,249)"/>
<path d="M0 0 C22.378 7.311 44.568 17.432 64.156 30.562 C67.804 32.039 69.859 31.589 73.656 30.574 C76.752 29.012 79.623 27.145 82.531 25.262 C103.922 11.992 133.488 -5.304 159.656 -2.426 C163.031 -0.363 163.031 -0.363 164.656 2.574 C164.753 7.967 163.268 10.708 159.656 14.574 C141.235 26.152 114.692 29.324 93.54 33.028 C92.54 33.206 91.541 33.383 90.512 33.566 C89.642 33.714 88.772 33.863 87.876 34.015 C85.656 34.574 85.656 34.574 82.656 36.574 C82.406 39.137 82.406 39.137 82.656 41.574 C84.357 43.275 86.472 42.769 88.801 42.797 C96.165 42.728 103.143 41.47 110.344 40.012 C111.013 39.878 111.682 39.745 112.371 39.607 C131.689 35.74 150.407 31.383 167.656 21.574 C167.986 21.409 167.986 21.409 169.656 20.574 C181.347 51.396 179.954 80.919 173.655 112.887 C170.321 129.893 167.174 146.982 175.977 162.973 C179.882 168.713 185.095 172.387 191.656 174.574 C193.961 174.812 193.961 174.812 196.531 174.887 C197.374 174.924 198.217 174.961 199.086 175 C202.608 174.416 204.083 173.032 206.656 170.574 C208.015 167.588 208.015 167.588 209.051 164.113 C209.448 162.83 209.846 161.548 210.244 160.265 C210.444 159.6 210.644 158.935 210.849 158.25 C214.255 146.977 217.699 136.243 224.656 126.574 C225.352 125.602 226.048 124.63 226.766 123.629 C238.65 108.162 254.95 99.232 273.656 94.574 C274.485 94.35 275.314 94.126 276.168 93.895 C285.774 91.693 295.864 92.397 305.656 92.574 C305.862 101.548 304.573 109.837 302.656 118.574 C302.523 119.196 302.523 119.196 301.848 122.34 C296.951 142.796 286.629 161.356 268.844 173.262 C264.487 175.864 259.807 177.696 255.098 179.559 C252.656 180.574 252.656 180.574 251.656 181.574 C251.616 183.24 251.614 184.908 251.656 186.574 C256.559 188.29 261.327 189.737 266.406 190.824 C282.551 194.809 295.16 205.529 303.656 219.574 C310.311 231.487 318.656 247.633 318.656 261.574 C291.026 267.042 260.436 263.446 236.742 247.629 C223.048 237.157 214.749 223.669 208.566 207.805 C207.656 205.574 207.656 205.574 206.656 204.574 C201.327 204.927 198.052 206.234 193.656 209.199 C182.22 216.602 169.802 221.979 156.656 225.574 C155.836 225.804 155.016 226.034 154.17 226.271 C129.044 233.027 99.065 233.616 73.656 227.574 C72.955 227.413 72.253 227.252 71.53 227.086 C49.671 221.883 29.638 211.184 12.656 196.574 C11.701 195.765 10.746 194.955 9.762 194.121 C-19.303 168.896 -37.405 128.523 -41.031 90.574 C-42.443 66.691 -42.222 42.446 -31.344 20.574 C-30.712 20.949 -30.08 21.324 -29.43 21.711 C-7.272 34.386 24.637 42.927 50.156 42.637 C51.198 42.628 52.239 42.619 53.312 42.609 C54.086 42.598 54.859 42.586 55.656 42.574 C56.281 40.199 56.281 40.199 56.656 37.574 C54.462 35.38 53.66 35.163 50.723 34.524 C49.91 34.344 49.097 34.163 48.26 33.977 C47.374 33.787 46.487 33.598 45.574 33.402 C44.65 33.197 43.726 32.993 42.774 32.781 C39.799 32.122 36.822 31.472 33.844 30.824 C22.228 28.294 10.659 25.702 -0.785 22.469 C-1.629 22.233 -2.473 21.997 -3.342 21.754 C-21.428 16.515 -21.428 16.515 -26.211 10.051 C-27.739 6.711 -27.521 5.032 -26.344 1.574 C-20.215 -6.189 -8.142 -2.464 0 0 Z " fill="#55B7A9" transform="translate(439.34375,705.42578125)"/>
<path d="M0 0 C2 3 2 3 3.25 5.938 C5.419 9.734 7.103 11.016 11 13 C14.308 13.87 17.619 14.492 21 15 C21.248 16.196 21.495 17.393 21.75 18.625 C23.166 24.19 25.432 27.816 30.062 31.312 C35.078 34.193 39.332 34.665 45 34 C48.451 32.902 51.722 31.533 55 30 C55.291 30.531 55.583 31.062 55.883 31.609 C59.225 37.368 62.5 40.833 69 43 C76.033 43.693 82.298 43.522 88 39 C90.248 36.478 92.179 33.842 94 31 C94.763 31.309 95.526 31.619 96.312 31.938 C102.991 34.578 110.581 35.607 117.492 33.094 C121.858 30.524 124.677 27.556 127 23 C127.223 21.606 127.43 20.21 127.625 18.812 C128.051 16.75 128.051 16.75 129 15 C131.474 13.859 133.875 13.298 136.527 12.691 C141.546 11.288 143.821 7.455 146.312 3.188 C146.869 2.136 147.426 1.084 148 0 C167.644 9.822 178.15 31.139 189.185 49.061 C193.726 56.414 198.363 63.707 203 71 C203.229 71.361 203.229 71.361 204.389 73.189 C219.518 96.993 234.832 119.415 258 136 C270.472 145.228 270.472 145.228 271.406 150.133 C271.69 154.431 271.439 156.41 268.812 159.938 C263.404 163.904 258.623 164.993 252 164 C246.852 162.299 241.918 160.272 237.391 157.27 C235 156 235 156 231 157 C231 160.63 231 164.26 231 168 C225.702 168.579 222.159 168.733 217.812 165.438 C213.778 161.523 212.143 156.868 210.286 151.701 C207.411 143.915 202.477 138.421 196.605 132.676 C193.149 129.236 190.152 125.6 187.25 121.688 C186.745 121.01 186.24 120.332 185.719 119.633 C181.86 114.363 178.3 108.936 174.875 103.375 C174.414 102.63 173.953 101.884 173.478 101.116 C169.9 95.176 167.695 90.32 168.125 83.25 C168.351 66.706 162.624 47.473 153 34 C152 33 152 33 149.438 32.938 C148.633 32.958 147.829 32.979 147 33 C147.553 36.964 148.456 40.316 150 44 C149.252 43.795 148.505 43.59 147.734 43.379 C146.75 43.109 145.765 42.84 144.75 42.562 C143.775 42.296 142.801 42.029 141.797 41.754 C140.874 41.505 139.951 41.256 139 41 C138.383 40.811 137.765 40.621 137.129 40.426 C123.063 37.613 109.379 40.972 97.188 48.188 C87.172 55.103 80.738 62.79 76 74 C75.34 74 74.68 74 74 74 C73.66 73.238 73.319 72.476 72.969 71.691 C65.682 56.169 55.445 48.343 39.727 41.945 C26.902 37.499 12.094 39.339 0 45 C0.155 44.66 0.155 44.66 0.938 42.938 C2.134 39.63 2.59 36.485 3 33 C0.812 32.625 0.812 32.625 -2 33 C-7.385 37.847 -9.619 44.289 -12 51 C-12.228 51.64 -12.455 52.279 -12.689 52.938 C-15.542 61.216 -17.172 68.769 -17.137 77.553 C-17.087 90.149 -19.868 97.739 -27.36 107.795 C-29.062 110.083 -30.687 112.414 -32.305 114.762 C-37.498 122.221 -42.894 129.217 -49.086 135.871 C-53.202 140.449 -56.264 145.414 -58.934 150.945 C-59.276 151.653 -59.618 152.36 -59.97 153.089 C-60.64 154.495 -61.296 155.908 -61.934 157.329 C-64.216 162.177 -66.557 164.95 -71 168 C-74.34 169.094 -77.766 169.617 -81 168 C-80.67 164.37 -80.34 160.74 -80 157 C-84.932 155.767 -87.206 157.191 -91.5 159.375 C-97.892 162.552 -102.736 164.616 -110 164 C-114.157 162.353 -118.005 160.107 -120 156 C-120.525 151.954 -120.331 149.662 -118.5 146 C-113.751 140.301 -108.07 136.019 -102.125 131.625 C-73.929 110.557 -57.237 78.292 -39.053 48.848 C-14.988 9.886 -14.988 9.886 0 0 Z " fill="#F8D7B6" transform="translate(433,565)"/>
<path d="M0 0 C3.626 2.274 6.805 5.019 9.949 7.914 C12.273 9.426 12.273 9.426 14.875 9.32 C17.286 8.421 18.534 7.598 20.336 5.801 C23.273 3.426 23.273 3.426 25.648 3.613 C27.273 4.426 27.273 4.426 27.961 6.113 C28.417 9.491 27.282 10.704 25.273 13.426 C24.719 13.785 24.165 14.145 23.594 14.516 C21.399 16.042 20.371 16.959 19.273 19.426 C19.763 22.776 20.566 25.813 21.532 29.047 C23.564 35.941 23.809 42.248 23.273 49.426 C23.203 50.431 23.132 51.437 23.059 52.473 C21.63 64.607 15.866 75.101 6.965 83.363 C-1.617 89.94 -11.077 92.264 -21.727 91.426 C-32.117 89.551 -40.16 84.035 -46.934 76.059 C-55.331 63.728 -56.254 48.112 -54.039 33.738 C-50.991 19.415 -43.803 8.397 -31.812 0.102 C-22.819 -4.847 -9.141 -4.29 0 0 Z " fill="#151007" transform="translate(625.7265625,364.57421875)"/>
<path d="M0 0 C10.588 10.189 15.736 23.544 16.283 38.095 C16.453 52.387 12.986 65.124 3.086 75.875 C-6.744 84.852 -17.357 85.713 -30.094 85.179 C-34.402 84.81 -37.634 83.369 -41.188 81 C-41.868 80.587 -42.549 80.175 -43.25 79.75 C-52.785 73.393 -58.354 62.993 -60.871 52.02 C-63.3 38.802 -61.662 26.907 -58.188 14 C-58.67 13.613 -59.152 13.227 -59.648 12.828 C-60.28 12.307 -60.912 11.787 -61.562 11.25 C-62.189 10.74 -62.815 10.229 -63.461 9.703 C-65.305 7.884 -66.268 6.414 -67.188 4 C-66.812 1.25 -66.812 1.25 -66.188 -1 C-64.125 -1.938 -64.125 -1.938 -61.188 -2 C-59.23 -0.291 -57.596 1.535 -55.934 3.531 C-54.188 5 -54.188 5 -52.234 4.957 C-49.655 3.751 -48.031 2.182 -46 0.188 C-32.564 -12.123 -13.803 -11.527 0 0 Z " fill="#151107" transform="translate(429.1875,370)"/>
<path d="M0 0 C2.948 2.858 5.639 5.767 8.25 8.938 C18.544 20.74 34.337 26.072 49.582 27.285 C61.902 27.598 72.056 24.45 83 19 C83.507 21.061 84.005 23.124 84.5 25.188 C84.639 25.762 84.639 25.762 85.344 28.668 C85.915 31.568 86.133 34.061 86 37 C85.236 37.098 84.471 37.196 83.684 37.297 C56.541 41.086 28.5 52.507 6.422 68.918 C2.892 70.495 0.711 69.944 -3 69 C-5.292 67.78 -7.353 66.554 -9.5 65.125 C-31.065 51.574 -57.408 39.461 -83 37 C-84.291 33.126 -83.411 30.18 -82.562 26.312 C-82.415 25.611 -82.267 24.909 -82.115 24.186 C-81.75 22.456 -81.376 20.728 -81 19 C-77.115 20.524 -73.345 22.216 -69.574 24 C-54.389 29.899 -38.537 27.562 -23.75 21.715 C-13.332 16.944 -5.488 10.062 0 0 Z " fill="#F8D7B6" transform="translate(507,655)"/>
<path d="M0 0 C5.074 -0.701 5.074 -0.701 8 0 C10.381 2.349 11.715 5.147 13.188 8.125 C18.798 18.82 24.821 26.556 36.562 30.875 C45.228 33.374 51.948 31.738 60 28 C60.722 27.453 61.444 26.907 62.188 26.344 C64 25 64 25 66.25 25.312 C66.827 25.539 67.405 25.766 68 26 C69.15 29.44 68.843 31.87 68.109 35.395 C68.002 35.914 68.002 35.914 67.457 38.541 C67.224 39.621 66.99 40.7 66.75 41.812 C66.641 42.346 66.641 42.346 66.09 45.049 C64.896 50.695 63.521 55.803 61 61 C53.558 60.481 46.331 59.178 39.027 57.719 C31.603 56.325 24.208 55.832 16.664 55.762 C16.229 55.757 16.229 55.757 14.029 55.733 C11.228 55.708 8.427 55.696 5.625 55.688 C4.67 55.684 3.715 55.68 2.731 55.677 C-12.332 55.654 -26.604 56.708 -41.419 59.542 C-45.264 60.224 -49.114 60.619 -53 61 C-60.089 35.622 -60.089 35.622 -60 28 C-58.531 26.125 -58.531 26.125 -57 25 C-54.652 25.909 -52.36 26.8 -50.156 28.023 C-43.287 31.638 -36.642 32.095 -29 31 C-13.866 25.961 -7.582 15.005 -0.77 1.574 C-0.643 1.314 -0.643 1.314 0 0 Z " fill="#F9D051" transform="translate(507,71)"/>
<path d="M0 0 C4.281 1.367 8.368 2.987 12.5 4.75 C18.973 7.417 25.559 9.418 32.312 11.25 C33.219 11.496 34.125 11.742 35.059 11.995 C40.998 13.564 46.963 14.864 53 16 C53 16.66 53 17.32 53 18 C52.345 18.306 51.69 18.611 51.016 18.926 C42.677 23.107 36.534 28.476 30 35 C29.303 35.686 28.605 36.372 27.887 37.078 C17.756 47.733 10.373 61.136 3.134 73.833 C-8.112 93.511 -20.701 112.653 -34 131 C-37 130 -37 130 -38.098 128.391 C-44.823 113.469 -43.895 98.992 -38.957 83.789 C-34.796 73.01 -28.127 63.87 -21.63 54.394 C-10.005 37.319 -3.222 20.393 0 0 Z " fill="#E4714B" transform="translate(383,533)"/>
<path d="M0 0 C0.17 0.638 0.34 1.276 0.516 1.933 C5.7 21.127 11.743 37.336 23.7 53.251 C30.925 62.972 36.825 72.569 41 84 C41.133 84.345 41.133 84.345 41.805 86.09 C44.983 96.037 43.818 108.482 40 118 C39.608 119.031 39.216 120.062 38.812 121.125 C38.544 121.744 38.276 122.362 38 123 C37.34 123 36.68 123 36 123 C34.45 120.906 33.028 118.815 31.625 116.625 C30.723 115.242 29.821 113.859 28.918 112.477 C28.443 111.745 27.968 111.013 27.478 110.259 C26 108 24.499 105.76 22.988 103.523 C17.638 95.6 12.483 87.617 7.613 79.391 C4.452 74.058 1.229 68.764 -2.007 63.477 C-3.03 61.803 -4.048 60.126 -5.065 58.449 C-16.034 40.548 -28.541 23.226 -48 14 C-45.038 12.025 -43.282 11.457 -39.871 10.703 C-38.844 10.469 -37.816 10.236 -36.758 9.995 C-35.662 9.749 -34.566 9.503 -33.438 9.25 C-23.83 7.034 -14.544 4.391 -5.254 1.102 C-2 0 -2 0 0 0 Z " fill="#E5724B" transform="translate(628,537)"/>
<path d="M0 0 C6.462 1.671 9.34 3.726 12.746 9.488 C17.933 19.877 18.515 30.522 15.375 41.688 C11.016 54.337 4.059 63.801 -8 69.875 C-15.088 73.28 -21.082 75.1 -29 75 C-28.889 74.399 -28.779 73.797 -28.665 73.178 C-28.14 70.287 -27.63 67.394 -27.125 64.5 C-26.936 63.43 -26.746 62.36 -26.552 61.258 C-25.596 55.587 -24.871 50.021 -24.605 44.273 C-24.552 43.2 -24.498 42.127 -24.443 41.021 C-24.358 38.964 -24.308 36.905 -24.299 34.846 C-24.001 27.95 -24.001 27.95 -21.059 25.158 C-19.48 24.133 -17.866 23.16 -16.221 22.244 C-8.378 17.851 -3.88 7.731 0 0 Z " fill="#F8D7B6" transform="translate(717,395)"/>
<path d="M0 0 C0.208 0.606 0.415 1.212 0.629 1.836 C4.623 12.699 10.385 20.59 20 27 C20.568 29.543 20.568 29.543 20.844 32.758 C20.899 33.346 20.899 33.346 21.178 36.322 C21.285 37.577 21.391 38.832 21.5 40.125 C22.392 49.576 23.481 58.808 25.449 68.094 C26 71 26 71 26 75 C14.906 74.445 5.339 70.308 -3 63 C-3.605 62.5 -4.209 62 -4.832 61.484 C-13.49 53.713 -17.211 42.896 -18.215 31.578 C-18.608 21.711 -16.3 11.753 -10 4 C-6.516 0.516 -4.826 -0.193 0 0 Z " fill="#F8D6B5" transform="translate(302,395)"/>
<path d="M0 0 C4.652 3.313 8.115 6.457 10 12 C10.746 18.502 9.488 23.438 6 29 C0.971 34.876 -5.712 38.513 -13.371 39.383 C-22.459 39.676 -28.997 38.105 -36.312 32.75 C-40.492 28.474 -42.653 24.431 -43.5 18.5 C-42.535 11.744 -40.038 7.525 -34.75 3.188 C-24.88 -3.808 -10.867 -6.792 0 0 Z " fill="#F5A588" transform="translate(653,459)"/>
<path d="M0 0 C1.507 0.891 2.99 1.826 4.438 2.812 C5.043 3.22 5.649 3.627 6.273 4.047 C9.924 6.789 11.977 9.512 13.438 13.812 C14.149 19.871 13.839 24.589 10.438 29.812 C10.18 30.235 10.18 30.235 8.875 32.375 C3.065 38.185 -2.966 40.146 -11.125 40.375 C-18.997 40.089 -24.314 38.483 -30.375 33.5 C-34.788 28.078 -37.853 23.009 -37.562 15.812 C-36.577 9.249 -32.794 5.686 -27.914 1.477 C-20.096 -4.056 -8.516 -4.116 0 0 Z " fill="#F5A689" transform="translate(390.5625,458.1875)"/>
<path d="M0 0 C1.209 0.009 2.418 0.018 3.664 0.027 C4.559 0.039 5.453 0.051 6.375 0.062 C5.974 8.346 3.913 15.431 -2 21.5 C-12.931 28.006 -25.456 28.668 -37.75 26 C-47.959 23.056 -58.22 17.789 -64.625 9.062 C-64.992 7.738 -65.33 6.405 -65.625 5.062 C-65.046 5.015 -64.467 4.967 -63.87 4.917 C-57.802 4.415 -51.734 3.912 -45.667 3.408 C-43.407 3.221 -41.147 3.034 -38.887 2.847 C-35.625 2.577 -32.363 2.306 -29.102 2.035 C-28.103 1.953 -27.105 1.87 -26.076 1.786 C-20.645 1.333 -15.223 0.834 -9.803 0.257 C-6.522 -0.036 -3.295 -0.032 0 0 Z " fill="#AF89A7" transform="translate(584.625,645.9375)"/>
<path d="M0 0 C0.954 0.08 1.909 0.161 2.892 0.244 C7.386 0.622 11.881 0.999 16.375 1.375 C16.782 1.409 16.782 1.409 18.839 1.581 C30.514 2.559 42.191 3.501 53.876 4.353 C59.278 4.755 64.631 5.275 70 6 C68.916 12.022 64.482 16.096 59.77 19.711 C48.229 27.128 35.516 29.631 22 28 C14.348 26.252 8.559 23.437 3.812 17.062 C1.152 12.567 -0.103 9.561 -0.047 4.332 C-0.04 3.521 -0.033 2.71 -0.026 1.874 C-0.018 1.256 -0.009 0.637 0 0 Z " fill="#B089A8" transform="translate(426,645)"/>
<path d="M0 0 C4.981 3.825 8.075 8.094 11.07 13.574 C11.511 14.377 11.951 15.179 12.405 16.006 C12.735 16.614 13.066 17.222 13.406 17.848 C-1.655 17.481 -16.644 16.638 -31.656 15.41 C-32.433 15.349 -33.209 15.287 -34.009 15.224 C-42.002 14.586 -49.81 13.888 -57.594 11.848 C-55.68 1.982 -55.68 1.982 -52.594 -2.152 C-49.852 -3.918 -49.852 -3.918 -46.719 -5.402 C-45.69 -5.903 -44.661 -6.403 -43.602 -6.918 C-28.786 -12.998 -12.727 -8.613 0 0 Z " fill="#AF89A7" transform="translate(484.59375,623.15234375)"/>
<path d="M0 0 C4.14 4.355 6.574 9.698 6.574 15.656 C0.831 16.209 -4.912 16.76 -10.656 17.31 C-12.604 17.497 -14.553 17.684 -16.501 17.872 C-47.015 20.81 -47.015 20.81 -56.738 20.719 C-58.013 20.71 -59.288 20.701 -60.602 20.691 C-61.534 20.68 -62.466 20.668 -63.426 20.656 C-60.623 10.652 -52.823 4.224 -44.133 -0.941 C-30.595 -7.955 -12.683 -9.697 0 0 Z " fill="#AE88A6" transform="translate(582.42578125,620.34375)"/>
<path d="M0 0 C4.706 0.706 4.706 0.706 6 2 C6.611 7.991 5.373 12.138 2 17 C-2.309 21.626 -6.626 24.667 -13.051 25.301 C-19.828 25.325 -24.846 24.857 -31 22 C-31.99 21.608 -32.98 21.216 -34 20.812 C-34.66 20.544 -35.32 20.276 -36 20 C-36.496 20.471 -36.993 20.941 -37.504 21.426 C-43.963 27.346 -49.488 30.642 -58.441 30.355 C-65.433 29.384 -72.081 25.768 -76.41 20.18 C-79.213 16.073 -80.75 13.124 -80 8 C-79 7 -79 7 -76.812 6.5 C-73.484 7.092 -73.197 7.68 -71.188 10.25 C-67.509 14.877 -63.581 17.41 -57.699 18.379 C-52.324 18.659 -49.172 17.59 -45 14 C-42.875 11.562 -42.875 11.562 -41 9 C-39.667 7.333 -38.333 5.667 -37 4 C-34.175 4.083 -32.489 4.491 -30.508 6.555 C-30.01 7.176 -29.513 7.797 -29 8.438 C-25.941 12.217 -23.817 13.67 -18.898 14.246 C-14.959 14.464 -12.398 14.176 -8.75 12.562 C-5.606 9.633 -3.905 6.732 -1.98 2.926 C-1 1 -1 1 0 0 Z " fill="#156F68" transform="translate(561,857)"/>
<path d="M0 0 C4.212 1.628 5.842 5.092 7.75 9.062 C7.75 9.722 7.75 10.383 7.75 11.062 C8.534 11.372 9.317 11.681 10.125 12 C12.75 13.062 12.75 13.062 14.75 14.062 C20.621 14.684 25.732 14.376 30.75 11.062 C33.093 7.548 34.975 3.892 36.75 0.062 C39.066 -0.203 39.066 -0.203 41.75 0.062 C43.34 1.891 43.34 1.891 44.688 4.312 C47.253 8.437 49.178 11.04 53.75 13.062 C58.081 13.874 61.918 14.091 65.844 11.887 C69.268 9.079 71.757 6.049 73.75 2.062 C75.4 2.393 77.05 2.722 78.75 3.062 C79.708 6.011 80.131 8.148 78.914 11.066 C74.731 18.087 69.62 22.439 61.75 25.062 C52.863 26.032 46.562 22.313 39.75 17.062 C38.925 17.805 38.1 18.548 37.25 19.312 C31.016 24.413 25.67 26.778 17.492 26.449 C10.541 25.469 4.581 22.118 -0.25 17.062 C-2.831 12.91 -4.695 9.021 -4.062 4.062 C-2.985 0.083 -2.985 0.083 0 0 Z " fill="#146D67" transform="translate(453.25,818.9375)"/>
<path d="M0 0 C2.625 -0.188 2.625 -0.188 5 0 C6.303 2.977 7.203 5.834 7.875 9 C8.822 12.84 10.069 15.228 13 18 C17.8 20.626 21.553 21.669 27 21 C31.572 19.556 34.907 17.765 37.375 13.562 C38.335 11.457 39.265 9.336 40.125 7.188 C41 5 41 5 43 3 C45.625 3.375 45.625 3.375 48 4 C48.17 4.58 48.34 5.16 48.516 5.758 C50.717 12.852 52.999 18.599 59.926 22.266 C63.183 23.419 66.428 23.539 69.863 23.629 C70.568 23.751 71.274 23.874 72 24 C74 27 74 27 73.938 29 C72.515 32.035 71.091 32.712 68 34 C60.73 35.319 55.067 32.911 49 29 C47.103 27.427 45.61 25.878 44 24 C41.524 25.1 39.714 26.241 37.625 28 C31.202 32.894 23.738 32.715 16 32 C9.17 30.47 5.339 26.866 1.375 21.223 C-2.171 15.491 -2.777 9.636 -2 3 C-1.34 2.01 -0.68 1.02 0 0 Z " fill="#146B65" transform="translate(421,766)"/>
<path d="M0 0 C25.74 0 51.48 0 78 0 C77.34 2.64 76.68 5.28 76 8 C74.68 8.227 73.36 8.454 72 8.688 C64.701 10.32 59.26 13.787 55 20 C53.307 18.991 51.615 17.982 49.922 16.973 C45.234 14.6 40.147 14.271 35 15 C31.189 16.404 27.596 18.118 24 20 C23.66 19.541 23.319 19.082 22.969 18.609 C18.178 12.545 13.236 9.261 5.5 8.25 C4.923 8.209 4.923 8.209 2 8 C1.34 5.36 0.68 2.72 0 0 Z " fill="#F7DABB" transform="translate(468,554)"/>
<path d="M0 0 C4.706 0.706 4.706 0.706 6 2 C5.747 9.958 3.678 16.74 -1.605 22.859 C-8.029 28.798 -14.749 30.552 -23.387 30.289 C-29.205 29.645 -33.796 27.084 -38 23 C-39.312 20.25 -39.312 20.25 -40 18 C-40.66 18 -41.32 18 -42 18 C-42.186 18.701 -42.371 19.403 -42.562 20.125 C-44.894 24.789 -48.694 27.864 -53.348 30.156 C-56.385 31.122 -58.941 31.301 -62.125 31.312 C-63.159 31.329 -64.193 31.346 -65.258 31.363 C-68 31 -68 31 -69.883 29.613 C-71 28 -71 28 -70.75 25.875 C-70 24 -70 24 -69 23 C-66.065 22.539 -63.124 22.164 -60.176 21.793 C-54.921 20.481 -51.879 18.449 -49.059 13.801 C-47.974 11.468 -46.891 9.135 -45.809 6.801 C-44 4 -44 4 -41.285 3.105 C-40.908 3.088 -40.908 3.088 -39 3 C-38.636 3.664 -38.273 4.328 -37.898 5.012 C-34.305 11.323 -31.196 16.601 -24 19 C-17.768 19.528 -13.086 18.851 -8 15 C-6.23 12.826 -5.1 10.568 -4 8 C-3.714 7.349 -3.428 6.698 -3.133 6.027 C-2.412 4.356 -1.705 2.678 -1 1 C-0.67 0.67 -0.34 0.34 0 0 Z " fill="#146B65" transform="translate(594,767)"/>
<path d="M0 0 C3.406 1.298 5.091 3.405 7.625 6 C14.815 10.109 21.84 11.125 29.996 9.539 C35.098 8.036 38.712 5.607 42.836 2.305 C45.074 0.672 46.845 0 49.625 0 C51.625 2 51.625 2 52.062 4.75 C51.488 9.016 49.852 11.316 46.625 14 C36.931 20.131 26.53 22.451 15.262 20.383 C7.129 18.409 0.883 15.705 -4.375 9 C-5.625 5.688 -5.625 5.688 -5.375 3 C-3.841 0.359 -3.049 0 0 0 Z " fill="#171209" transform="translate(485.375,470)"/>
<path d="M0 0 C3.39 1.731 5.5 4.114 7.375 7.438 C8.527 12.163 8.639 14.877 6.188 19.188 C1.4 25.343 1.4 25.343 -3.312 25.938 C-6.935 26.232 -8.02 25.99 -11.438 24.312 C-14.459 21.586 -15.763 19.672 -16.336 15.633 C-16.425 9.891 -15.939 6.501 -12 2 C-7.966 -0.689 -4.74 -0.793 0 0 Z " fill="#F9F5E9" transform="translate(423,382)"/>
<path d="M0 0 C3.016 1.761 5.414 3.827 7 7 C7.556 12.068 7.558 15.922 5.188 20.5 C2.971 23.033 1.322 24.787 -2.086 25.336 C-6.112 25.405 -8.405 25.354 -11.938 23.25 C-14.998 19.911 -15.891 18.182 -16.312 13.625 C-15.867 8.453 -14.309 5.422 -10.812 1.625 C-7.172 -0.479 -4.054 -0.942 0 0 Z " fill="#F8F4E8" transform="translate(600,382)"/>
<path d="M0 0 C2.773 2.207 4.427 3.855 6 7 C6.461 11.615 6.746 14.641 3.812 18.375 C1.07 20.934 -0.371 22.222 -4 23 C-9.421 22.803 -12.838 21.484 -17 18 C-18.927 14.9 -19.006 13.168 -18.875 9.5 C-17.768 5.071 -16.087 2.302 -12.172 -0.141 C-8.155 -1.73 -4.111 -1.051 0 0 Z " fill="#F8F5EA" transform="translate(514,578)"/>
<path d="M0 0 C2.925 1.825 5.434 3.869 7 7 C7.575 14.02 7.575 14.02 5.312 17.875 C1.493 21.385 -0.789 22 -6 22 C-9.414 21.437 -10.184 20.843 -13 18.438 C-15.615 13.943 -15.813 12.124 -15 7 C-10.875 1.729 -6.765 -0.947 0 0 Z " fill="#F8F5EA" transform="translate(546,570)"/>
<path d="M0 0 C3.752 2.015 5.636 3.455 8 7 C8.468 11.212 8.466 13.286 6.125 16.875 C3.186 19.814 2.452 19.97 -1.812 20.25 C-5.649 20.194 -7.971 19.494 -11 17 C-13.566 13.578 -13.364 10.154 -13 6 C-10.067 -0.134 -6.587 -0.906 0 0 Z " fill="#F9F6EA" transform="translate(476,571)"/>
<path d="M0 0 C2.332 1.922 2.332 1.922 4 4 C4 5.32 4 6.64 4 8 C-0.059 9.145 -2.182 8.855 -6 7.125 C-14.639 3.264 -22.496 3.859 -31.742 4.879 C-32.115 4.899 -32.115 4.899 -34 5 C-35 4 -35 4 -35.312 1.625 C-35 -1 -35 -1 -33.25 -2.75 C-23.296 -8.28 -9.271 -5.53 0 0 Z " fill="#161108" transform="translate(616,317)"/>
<path d="M0 0 C2.234 0.41 2.234 0.41 5.359 2.473 C7.234 5.41 7.234 5.41 7.297 8.91 C6.142 12.714 5.159 14.723 2.234 17.41 C-0.641 18.473 -0.641 18.473 -3.766 18.41 C-9.272 15.397 -9.272 15.397 -10.766 12.41 C-10.75 10.352 -10.75 10.352 -10.516 7.973 C-10.449 7.19 -10.382 6.408 -10.312 5.602 C-8.911 -0.016 -5.102 -0.192 0 0 Z " fill="#F7F3E8" transform="translate(453.765625,553.58984375)"/>
<path d="M0 0 C0.605 11.339 1.19 22.641 1 34 C-2.482 31.221 -3.862 27.296 -5.562 23.312 C-5.866 22.63 -6.17 21.947 -6.482 21.244 C-9.149 15.092 -11.425 8.807 -11 2 C-7.123 0.807 -4.084 0 0 0 Z " fill="#E57B51" transform="translate(320,373)"/>
<path d="M0 0 C3 1.5 3 1.5 5 4 C5.798 9.025 5.824 10.837 2.875 15 C0 17 0 17 -2.938 17.75 C-6.875 16.786 -8.482 15.171 -10.93 12.012 C-12 10 -12 10 -12.062 6.25 C-9.944 -0.232 -6.676 -1.13 0 0 Z " fill="#F9F4E9" transform="translate(566,554)"/>
<path d="M0 0 C3.068 1.259 4.552 2.245 6.438 5 C6.376 8.496 6.09 10.935 4.25 13.938 C1.447 15.581 -0.381 15.519 -3.562 15 C-6.449 12.418 -7.425 10.747 -8.125 6.938 C-7.562 4 -7.562 4 -5.375 1.562 C-2.562 0 -2.562 0 0 0 Z " fill="#F4D254" transform="translate(582.5625,75)"/>
<path d="M0 0 C2.875 1 2.875 1 4.812 2.625 C6.388 6.146 5.939 8.342 4.875 12 C2.012 14.617 0.563 15.027 -3.312 14.875 C-6.125 14 -6.125 14 -8.125 11 C-8.562 7.562 -8.562 7.562 -8.125 4 C-5.459 0.864 -4.137 0 0 0 Z " fill="#F6D354" transform="translate(443.125,75)"/>
<path d="M0 0 C1.875 1.562 1.875 1.562 3 4 C3.385 8.389 3.473 10.29 1 14 C-1.812 14.938 -1.812 14.938 -5 15 C-7.875 13.5 -7.875 13.5 -10 11 C-10.643 7.001 -10.639 4.959 -8.375 1.562 C-5.301 -0.46 -3.611 -0.615 0 0 Z " fill="#F8D758" transform="translate(515,47)"/>
<path d="M0 0 C2.343 0.256 4.678 0.593 7 1 C7.33 1.66 7.66 2.32 8 3 C5.657 2.744 3.322 2.407 1 2 C0.67 1.34 0.34 0.68 0 0 Z " fill="#474F32" transform="translate(696,978)"/>
<path d="M0 0 C2.31 0.33 4.62 0.66 7 1 C7 1.66 7 2.32 7 3 C5.02 3 3.04 3 1 3 C0.67 2.01 0.34 1.02 0 0 Z " fill="#454E31" transform="translate(711,981)"/>
<path d="M0 0 C0.99 0.99 1.98 1.98 3 3 C2.67 3.99 2.34 4.98 2 6 C1.34 5.67 0.68 5.34 0 5 C0 3.35 0 1.7 0 0 Z " fill="#444227" transform="translate(400,856)"/>
<path d="M0 0 C0.557 0.021 0.557 0.021 3.375 0.125 C3.375 0.455 3.375 0.785 3.375 1.125 C1.89 1.29 1.89 1.29 -5.625 2.125 C-3.625 0.125 -3.625 0.125 0 0 Z " fill="#4E4527" transform="translate(715.625,783.875)"/>
<path d="M0 0 C0.99 0.99 1.98 1.98 3 3 C2.67 3.99 2.34 4.98 2 6 C1.34 5.34 0.68 4.68 0 4 C0 2.68 0 1.36 0 0 Z " fill="#62381F" transform="translate(192,534)"/>
<path d="M0 0 C0.33 0 0.66 0 1 0 C1 1.98 1 3.96 1 6 C0.34 6 -0.32 6 -1 6 C-1.043 4.334 -1.041 2.666 -1 1 C-0.67 0.67 -0.34 0.34 0 0 Z " fill="#60311A" transform="translate(249,351)"/>
<path d="M0 0 C3.3 0 6.6 0 10 0 C10 0.33 10 0.66 10 1 C6.7 1 3.4 1 0 1 C0 0.67 0 0.34 0 0 Z " fill="#464B2E" transform="translate(543,951)"/>
<path d="M0 0 C3.3 0 6.6 0 10 0 C10 0.33 10 0.66 10 1 C6.7 1 3.4 1 0 1 C0 0.67 0 0.34 0 0 Z " fill="#664B26" transform="translate(465,88)"/>
<path d="M0 0 C2.64 0 5.28 0 8 0 C5 2 5 2 2.312 1.625 C1.931 1.522 1.931 1.522 0 1 C0 0.67 0 0.34 0 0 Z " fill="#474C2E" transform="translate(528,950)"/>
<path d="M0 0 C2.64 0 5.28 0 8 0 C8 0.33 8 0.66 8 1 C5.36 1 2.72 1 0 1 C0 0.67 0 0.34 0 0 Z " fill="#444C31" transform="translate(731,983)"/>
<path d="M0 0 C0.99 0.99 1.98 1.98 3 3 C2.67 3.165 2.67 3.165 1 4 C0.34 3.34 -0.32 2.68 -1 2 C-0.67 1.34 -0.34 0.68 0 0 Z " fill="#474B2F" transform="translate(657,955)"/>
<path d="M0 0 C0.99 0.33 1.98 0.66 3 1 C3 1.66 3 2.32 3 3 C1.68 2.67 0.36 2.34 -1 2 C-0.67 1.34 -0.34 0.68 0 0 Z " fill="#4D4527" transform="translate(706,784)"/>
<path d="M0 0 C0.825 0.33 0.825 0.33 5 2 C3.68 2.33 2.36 2.66 1 3 C0.67 2.01 0.34 1.02 0 0 Z " fill="#553A1F" transform="translate(369,771)"/>
<path d="M0 0 C0.66 0 1.32 0 2 0 C2 1.65 2 3.3 2 5 C1.34 4.67 0.68 4.34 0 4 C0 2.68 0 1.36 0 0 Z " fill="#5C351B" transform="translate(144,631)"/>
<path d="M0 0 C1.32 0.99 2.64 1.98 4 3 C2.68 3 1.36 3 0 3 C0 2.01 0 1.02 0 0 Z " fill="#3F4229" transform="translate(456,923)"/>
<path d="M0 0 C0.99 0.99 1.98 1.98 3 3 C1.68 2.67 0.36 2.34 -1 2 C-0.67 1.34 -0.34 0.68 0 0 Z " fill="#424126" transform="translate(417,885)"/>
<path d="M0 0 C0.99 0 1.98 0 3 0 C3 0.99 3 1.98 3 3 C2.34 3 1.68 3 1 3 C0.67 2.01 0.34 1.02 0 0 Z " fill="#60331B" transform="translate(248,347)"/>
<path d="M0 0 C2.125 0.375 2.125 0.375 4 1 C2.02 1.33 0.04 1.66 -2 2 C-1.34 1.34 -0.68 0.68 0 0 Z " fill="#5A3219" transform="translate(411,104)"/>
<path d="M0 0 C0.66 0 1.32 0 2 0 C1.67 0.99 1.34 1.98 1 3 C0.34 2.34 -0.32 1.68 -1 1 C-0.67 0.67 -0.34 0.34 0 0 Z " fill="#474F33" transform="translate(682,973)"/>
<path d="M0 0 C0.33 0.66 0.66 1.32 1 2 C-0.65 2 -2.3 2 -4 2 C-2.68 1.34 -1.36 0.68 0 0 Z " fill="#494C2C" transform="translate(591,946)"/>
<path d="M0 0 C0.33 0 0.66 0 1 0 C1 1.98 1 3.96 1 6 C0.67 6 0.34 6 0 6 C0 4.02 0 2.04 0 0 Z " fill="#424C33" transform="translate(623,841)"/>
<path d="M0 0 C0.33 0 0.66 0 1 0 C1 1.98 1 3.96 1 6 C0.67 6 0.34 6 0 6 C0 4.02 0 2.04 0 0 Z " fill="#484B31" transform="translate(759,806)"/>
<path d="M0 0 C0.99 0.33 1.98 0.66 3 1 C2.34 1.33 2.34 1.33 -1 3 C-0.67 2.01 -0.34 1.02 0 0 Z " fill="#5E361F" transform="translate(177,568)"/>
<path d="M0 0 C0.33 0.165 0.33 0.165 2 1 C1.67 1.99 1.34 2.98 1 4 C0.67 2.68 0.34 1.36 0 0 Z " fill="#663B21" transform="translate(192,553)"/>
<path d="M0 0 C0.66 1.32 1.32 2.64 2 4 C1.67 4.165 1.67 4.165 0 5 C0 3.35 0 1.7 0 0 Z " fill="#63381F" transform="translate(195,539)"/>
<path d="M0 0 C0.33 0.66 0.66 1.32 1 2 C1.66 2.33 2.32 2.66 3 3 C2.01 3 1.02 3 0 3 C0 2.01 0 1.02 0 0 Z " fill="#5C351C" transform="translate(192,433)"/>
<path d="M0 0 C0.33 1.32 0.66 2.64 1 4 C0.34 4 -0.32 4 -1 4 C-0.67 2.68 -0.34 1.36 0 0 Z " fill="#60321C" transform="translate(241,377)"/>
<path d="M0 0 C0.33 0.66 0.66 1.32 1 2 C-0.32 2.33 -1.64 2.66 -3 3 C-2.01 2.01 -1.02 1.02 0 0 Z " fill="#572F17" transform="translate(352,135)"/>
<path d="M0 0 C0.99 0.33 1.98 0.66 3 1 C1.35 1.33 -0.3 1.66 -2 2 C-1.34 1.34 -0.68 0.68 0 0 Z " fill="#5B3118" transform="translate(391,112)"/>
<path d="M0 0 C0.66 0.66 1.32 1.32 2 2 C0.35 2 -1.3 2 -3 2 C-2.01 1.34 -1.02 0.68 0 0 Z " fill="#6C4E27" transform="translate(555,88)"/>
<path d="M0 0 C1.65 0 3.3 0 5 0 C5 0.33 5 0.66 5 1 C3.35 1 1.7 1 0 1 C0 0.67 0 0.34 0 0 Z " fill="#464D2E" transform="translate(568,950)"/>
<path d="M0 0 C0.99 0.33 1.98 0.66 3 1 C2.01 1.33 1.02 1.66 0 2 C0 1.34 0 0.68 0 0 Z " fill="#41452B" transform="translate(472,933)"/>
<path d="M0 0 C0.66 0.99 1.32 1.98 2 3 C1.01 2.67 0.02 2.34 -1 2 C-0.67 1.34 -0.34 0.68 0 0 Z " fill="#434227" transform="translate(403,861)"/>
<path d="M0 0 C0.66 0.99 1.32 1.98 2 3 C1.01 2.67 0.02 2.34 -1 2 C-0.67 1.34 -0.34 0.68 0 0 Z " fill="#5E371D" transform="translate(273,741)"/>
<path d="M0 0 C0.66 0.99 1.32 1.98 2 3 C1.01 2.67 0.02 2.34 -1 2 C-0.67 1.34 -0.34 0.68 0 0 Z " fill="#63391F" transform="translate(209,705)"/>
<path d="M0 0 C0.99 0.33 1.98 0.66 3 1 C2.67 1.66 2.34 2.32 2 3 C1.34 2.01 0.68 1.02 0 0 Z " fill="#5F361E" transform="translate(789,400)"/>
<path d="M0 0 C0.66 0.33 1.32 0.66 2 1 C0.68 1.33 -0.64 1.66 -2 2 C-1.34 1.34 -0.68 0.68 0 0 Z " fill="#562E18" transform="translate(372,122)"/>
<path d="M0 0 C0.66 0 1.32 0 2 0 C2 0.99 2 1.98 2 3 C1.34 2.67 0.68 2.34 0 2 C0 1.34 0 0.68 0 0 Z " fill="#6F4E29" transform="translate(560,75)"/>
<path d="M0 0 C0.99 0.33 1.98 0.66 3 1 C1.68 1.33 0.36 1.66 -1 2 C-0.67 1.34 -0.34 0.68 0 0 Z " fill="#684C29" transform="translate(506,33)"/>
<path d="M0 0 C4 1 4 1 4 1 Z " fill="#444D31" transform="translate(740,983)"/>
<path d="M0 0 C4 1 4 1 4 1 Z " fill="#444F33" transform="translate(752,982)"/>
<path d="M0 0 C0.99 0 1.98 0 3 0 C2.67 0.66 2.34 1.32 2 2 C1.34 1.34 0.68 0.68 0 0 Z " fill="#474C2D" transform="translate(521,949)"/>
<path d="M0 0 C0.33 0.66 0.66 1.32 1 2 C0.01 1.67 -0.98 1.34 -2 1 C-1.34 0.67 -0.68 0.34 0 0 Z " fill="#454C2F" transform="translate(606,942)"/>
<path d="M0 0 C0.99 0.33 1.98 0.66 3 1 C2.01 1 1.02 1 0 1 C0 0.67 0 0.34 0 0 Z " fill="#43472B" transform="translate(490,941)"/>
<path d="M0 0 C0.99 0 1.98 0 3 0 C2.67 0.66 2.34 1.32 2 2 C1.34 1.34 0.68 0.68 0 0 Z " fill="#454D30" transform="translate(729,888)"/>
<path d="M0 0 C0.33 0.165 0.33 0.165 2 1 C1.67 1.66 1.34 2.32 1 3 C0.67 2.01 0.34 1.02 0 0 Z " fill="#444A30" transform="translate(640,842)"/>
<path d="M0 0 C0.33 0.165 0.33 0.165 2 1 C1.34 1.66 0.68 2.32 0 3 C0 2.01 0 1.02 0 0 Z " fill="#46492F" transform="translate(642,840)"/>
<path d="M0 0 C0.99 0.33 1.98 0.66 3 1 C2.01 1 1.02 1 0 1 C0 0.67 0 0.34 0 0 Z " fill="#5D381E" transform="translate(299,764)"/>
<path d="M0 0 C0.33 0.165 0.33 0.165 2 1 C1.67 1.66 1.34 2.32 1 3 C0.67 2.01 0.34 1.02 0 0 Z " fill="#62381F" transform="translate(211,708)"/>
<path d="M0 0 C0.33 0.165 0.33 0.165 2 1 C1.67 1.66 1.34 2.32 1 3 C0.67 2.01 0.34 1.02 0 0 Z " fill="#5F351B" transform="translate(160,666)"/>
<path d="M0 0 C0.33 0.165 0.33 0.165 2 1 C1.67 1.66 1.34 2.32 1 3 C0.67 2.01 0.34 1.02 0 0 Z " fill="#5F371D" transform="translate(155,660)"/>
<path d="M0 0 C0.33 0.495 0.33 0.495 2 3 C1.34 3 0.68 3 0 3 C0 2.01 0 1.02 0 0 Z " fill="#653A20" transform="translate(181,517)"/>
<path d="M0 0 C0.66 0 1.32 0 2 0 C1.67 0.99 1.34 1.98 1 3 C0.67 2.01 0.34 1.02 0 0 Z " fill="#603C20" transform="translate(838,456)"/>
<path d="M0 0 C0.33 0.165 0.33 0.165 2 1 C1.34 1.66 0.68 2.32 0 3 C0 2.01 0 1.02 0 0 Z " fill="#60371D" transform="translate(180,456)"/>
<path d="M0 0 C0.33 0.99 0.66 1.98 1 3 C0.34 2.67 -0.32 2.34 -1 2 C-0.67 1.34 -0.34 0.68 0 0 Z " fill="#5D3019" transform="translate(259,279)"/>
<path d="M0 0 C0.66 0 1.32 0 2 0 C1.67 0.99 1.34 1.98 1 3 C0.67 2.01 0.34 1.02 0 0 Z " fill="#5C2F18" transform="translate(264,257)"/>
<path d="M0 0 C0.33 0.165 0.33 0.165 2 1 C1.34 1.66 0.68 2.32 0 3 C0 2.01 0 1.02 0 0 Z " fill="#532B14" transform="translate(336,144)"/>
<path d="M0 0 C0.33 0.165 0.33 0.165 2 1 C1.67 1.66 1.34 2.32 1 3 C0.67 2.01 0.34 1.02 0 0 Z " fill="#542D17" transform="translate(368,120)"/>
<path d="M0 0 C3 1 3 1 3 1 Z " fill="#455033" transform="translate(724,983)"/>
<path d="" fill="#3F4B30" transform="translate(0,0)"/>
<path d="M0 0 C0.33 0.165 0.33 0.165 2 1 C1.67 1.165 1.67 1.165 0 2 C0 1.34 0 0.68 0 0 Z " fill="#464C30" transform="translate(664,962)"/>
<path d="" fill="#454A2F" transform="translate(0,0)"/>
<path d="M0 0 C3 1 3 1 3 1 Z " fill="#42462A" transform="translate(493,942)"/>
<path d="M0 0 C0.33 0.165 0.33 0.165 2 1 C1.67 1.165 1.67 1.165 0 2 C0 1.34 0 0.68 0 0 Z " fill="#3F4A30" transform="translate(758,924)"/>
<path d="" fill="#414026" transform="translate(0,0)"/>
<path d="M0 0 C0.33 0.165 0.33 0.165 2 1 C1.67 1.165 1.67 1.165 0 2 C0 1.34 0 0.68 0 0 Z " fill="#494A2D" transform="translate(651,824)"/>
<path d="" fill="#494D32" transform="translate(0,0)"/>
<path d="" fill="#4D482B" transform="translate(0,0)"/>
<path d="M0 0 C3 1 3 1 3 1 Z " fill="#59391C" transform="translate(345,767)"/>
<path d="M0 0 C0.33 0.165 0.33 0.165 2 1 C1.67 1.165 1.67 1.165 0 2 C0 1.34 0 0.68 0 0 Z " fill="#574123" transform="translate(658,765)"/>
<path d="M0 0 C0.33 0.66 0.66 1.32 1 2 C0.34 1.67 -0.32 1.34 -1 1 C-0.67 0.67 -0.34 0.34 0 0 Z " fill="#604425" transform="translate(735,754)"/>
<path d="M0 0 C0.66 0 1.32 0 2 0 C1.67 0.66 1.34 1.32 1 2 C0.67 1.34 0.34 0.68 0 0 Z " fill="#643A20" transform="translate(216,714)"/>
<path d="M0 0 C3 1 3 1 3 1 Z " fill="#5F3B20" transform="translate(854,671)"/>
<path d="M0 0 C0.33 0.165 0.33 0.165 2 1 C1.67 1.165 1.67 1.165 0 2 C0 1.34 0 0.68 0 0 Z " fill="#62371D" transform="translate(163,670)"/>
<path d="M0 0 C0.66 0 1.32 0 2 0 C1.67 0.66 1.34 1.32 1 2 C0.67 1.34 0.34 0.68 0 0 Z " fill="#60371E" transform="translate(147,646)"/>
<path d="M0 0 C0.66 0 1.32 0 2 0 C1.67 0.66 1.34 1.32 1 2 C0.67 1.34 0.34 0.68 0 0 Z " fill="#59341A" transform="translate(152,594)"/>
<path d="M0 0 C0.33 0.165 0.33 0.165 2 1 C1.67 1.165 1.67 1.165 0 2 C0 1.34 0 0.68 0 0 Z " fill="#633820" transform="translate(186,561)"/>
<path d="M0 0 C0.33 0.66 0.66 1.32 1 2 C0.34 1.67 -0.32 1.34 -1 1 C-0.67 0.67 -0.34 0.34 0 0 Z " fill="#5E341C" transform="translate(190,440)"/>
<path d="M0 0 C0.66 0 1.32 0 2 0 C1.67 0.66 1.34 1.32 1 2 C0.67 1.34 0.34 0.68 0 0 Z " fill="#60371D" transform="translate(209,419)"/>
<path d="" fill="#60321A" transform="translate(0,0)"/>
<path d="" fill="#5F321B" transform="translate(0,0)"/>
<path d="" fill="#60311B" transform="translate(0,0)"/>
<path d="" fill="#5E351E" transform="translate(0,0)"/>
<path d="M0 0 C0.66 0.66 1.32 1.32 2 2 C1.34 2 0.68 2 0 2 C0 1.34 0 0.68 0 0 Z " fill="#65381D" transform="translate(766,306)"/>
<path d="" fill="#5B3019" transform="translate(0,0)"/>
<path d="M0 0 C0.33 0.66 0.66 1.32 1 2 C0.34 1.67 -0.32 1.34 -1 1 C-0.67 0.67 -0.34 0.34 0 0 Z " fill="#5B2F19" transform="translate(274,233)"/>
<path d="M0 0 C0.66 0 1.32 0 2 0 C1.67 0.66 1.34 1.32 1 2 C0.67 1.34 0.34 0.68 0 0 Z " fill="#5E361D" transform="translate(742,224)"/>
<path d="M0 0 C0.33 0.165 0.33 0.165 2 1 C1.67 1.165 1.67 1.165 0 2 C0 1.34 0 0.68 0 0 Z " fill="#5B2D18" transform="translate(282,216)"/>
<path d="M0 0 C0.66 0 1.32 0 2 0 C1.67 0.66 1.34 1.32 1 2 C0.67 1.34 0.34 0.68 0 0 Z " fill="#5A341B" transform="translate(734,208)"/>
<path d="M0 0 C3 1 3 1 3 1 Z " fill="#572C15" transform="translate(330,152)"/>
<path d="M0 0 C3 1 3 1 3 1 Z " fill="#582E18" transform="translate(360,129)"/>
<path d="M0 0 C0.66 0.66 1.32 1.32 2 2 C1.34 2 0.68 2 0 2 C0 1.34 0 0.68 0 0 Z " fill="#562C16" transform="translate(368,123)"/>
<path d="M0 0 C3 1 3 1 3 1 Z " fill="#552E17" transform="translate(375,120)"/>
<path d="" fill="#634826" transform="translate(0,0)"/>
<path d="M0 0 C3 1 3 1 3 1 Z " fill="#684C28" transform="translate(512,33)"/>
<path d="" fill="#445033" transform="translate(0,0)"/>
<path d="M0 0 C2 1 2 1 2 1 Z " fill="#464E32" transform="translate(748,983)"/>
<path d="M0 0 C2 1 2 1 2 1 Z " fill="#444C31" transform="translate(728,983)"/>
<path d="M0 0 C2 1 2 1 2 1 Z " fill="#475033" transform="translate(706,981)"/>
<path d="" fill="#464E31" transform="translate(0,0)"/>
<path d="M0 0 C2 1 2 1 2 1 Z " fill="#454B30" transform="translate(656,959)"/>
<path d="" fill="#454C2D" transform="translate(0,0)"/>
<path d="M0 0 C2 1 2 1 2 1 Z " fill="#474C2F" transform="translate(556,951)"/>
<path d="M0 0 C2 1 2 1 2 1 Z " fill="#474D31" transform="translate(540,951)"/>
<path d="M0 0 C2 1 2 1 2 1 Z " fill="#45492E" transform="translate(648,950)"/>
<path d="M0 0 C2 1 2 1 2 1 Z " fill="#474E2E" transform="translate(576,949)"/>
<path d="M0 0 C2 1 2 1 2 1 Z " fill="#464B2C" transform="translate(516,948)"/>
<path d="M0 0 C2 1 2 1 2 1 Z " fill="#474B2E" transform="translate(609,941)"/>
<path d="M0 0 C2 1 2 1 2 1 Z " fill="#44482C" transform="translate(488,940)"/>
<path d="" fill="#484D30" transform="translate(0,0)"/>
<path d="M0 0 C2 1 2 1 2 1 Z " fill="#474C2E" transform="translate(614,939)"/>
<path d="M0 0 C2 1 2 1 2 1 Z " fill="#45492B" transform="translate(485,939)"/>
<path d="M0 0 C2 1 2 1 2 1 Z " fill="#474B2F" transform="translate(640,937)"/>
<path d="" fill="#444A2E" transform="translate(0,0)"/>
<path d="M0 0 C2 1 2 1 2 1 Z " fill="#43492D" transform="translate(628,933)"/>
<path d="" fill="#43482E" transform="translate(0,0)"/>
<path d="M0 0 C2 1 2 1 2 1 Z " fill="#42462A" transform="translate(464,929)"/>
<path d="M0 0 C2 1 2 1 2 1 Z " fill="#3D4028" transform="translate(456,927)"/>
<path d="" fill="#434930" transform="translate(0,0)"/>
<path d="" fill="#475034" transform="translate(0,0)"/>
<path d="" fill="#434429" transform="translate(0,0)"/>
<path d="" fill="#444429" transform="translate(0,0)"/>
<path d="M0 0 C2 1 2 1 2 1 Z " fill="#464E32" transform="translate(736,896)"/>
<path d="M0 0 C2 1 2 1 2 1 Z " fill="#485433" transform="translate(732,893)"/>
<path d="M0 0 C2 1 2 1 2 1 Z " fill="#444B32" transform="translate(726,889)"/>
<path d="M0 0 C2 1 2 1 2 1 Z " fill="#434931" transform="translate(724,888)"/>
<path d="" fill="#454027" transform="translate(0,0)"/>
<path d="" fill="#424C36" transform="translate(0,0)"/>
<path d="" fill="#484126" transform="translate(0,0)"/>
<path d="" fill="#47492F" transform="translate(0,0)"/>
<path d="" fill="#45472C" transform="translate(0,0)"/>
<path d="M0 0 C2 1 2 1 2 1 Z " fill="#4F4829" transform="translate(685,794)"/>
<path d="M0 0 C2 1 2 1 2 1 Z " fill="#514729" transform="translate(683,793)"/>
<path d="M0 0 C2 1 2 1 2 1 Z " fill="#4F482C" transform="translate(689,792)"/>
<path d="M0 0 C2 1 2 1 2 1 Z " fill="#514628" transform="translate(685,792)"/>
<path d="M0 0 C2 1 2 1 2 1 Z " fill="#524629" transform="translate(697,789)"/>
<path d="M0 0 C2 1 2 1 2 1 Z " fill="#514626" transform="translate(700,788)"/>
<path d="M0 0 C2 1 2 1 2 1 Z " fill="#524326" transform="translate(635,775)"/>
<path d="" fill="#4F3A1F" transform="translate(0,0)"/>
<path d="M0 0 C2 1 2 1 2 1 Z " fill="#574325" transform="translate(644,772)"/>
<path d="M0 0 C2 1 2 1 2 1 Z " fill="#574423" transform="translate(646,771)"/>
<path d="M0 0 C2 1 2 1 2 1 Z " fill="#52371C" transform="translate(360,767)"/>
<path d="M0 0 C2 1 2 1 2 1 Z " fill="#5C4223" transform="translate(715,766)"/>
<path d="" fill="#5B4224" transform="translate(0,0)"/>
<path d="" fill="#5A361C" transform="translate(0,0)"/>
<path d="M0 0 C2 1 2 1 2 1 Z " fill="#644224" transform="translate(786,724)"/>
<path d="M0 0 C2 1 2 1 2 1 Z " fill="#673B20" transform="translate(224,721)"/>
<path d="" fill="#664224" transform="translate(0,0)"/>
<path d="" fill="#634024" transform="translate(0,0)"/>
<path d="" fill="#624025" transform="translate(0,0)"/>
<path d="" fill="#61391E" transform="translate(0,0)"/>
<path d="M0 0 C2 1 2 1 2 1 Z " fill="#623C21" transform="translate(822,686)"/>
<path d="M0 0 C2 1 2 1 2 1 Z " fill="#62381C" transform="translate(187,684)"/>
<path d="" fill="#5D371C" transform="translate(0,0)"/>
<path d="" fill="#5D381E" transform="translate(0,0)"/>
<path d="" fill="#5F391F" transform="translate(0,0)"/>
<path d="" fill="#5F361E" transform="translate(0,0)"/>
<path d="" fill="#603B21" transform="translate(0,0)"/>
<path d="M0 0 C2 1 2 1 2 1 Z " fill="#5F3B20" transform="translate(853,578)"/>
<path d="M0 0 C2 1 2 1 2 1 Z " fill="#653E22" transform="translate(830,560)"/>
<path d="" fill="#653F24" transform="translate(0,0)"/>
<path d="" fill="#644026" transform="translate(0,0)"/>
<path d="M0 0 C2 1 2 1 2 1 Z " fill="#6C4225" transform="translate(829,531)"/>
<path d="M0 0 C2 1 2 1 2 1 Z " fill="#6A4024" transform="translate(830,529)"/>
<path d="M0 0 C2 1 2 1 2 1 Z " fill="#673A20" transform="translate(179,515)"/>
<path d="" fill="#653F23" transform="translate(0,0)"/>
<path d="" fill="#62391D" transform="translate(0,0)"/>
<path d="" fill="#5D361F" transform="translate(0,0)"/>
<path d="" fill="#5B341C" transform="translate(0,0)"/>
<path d="M0 0 C2 1 2 1 2 1 Z " fill="#5C361C" transform="translate(193,432)"/>
<path d="M0 0 C2 1 2 1 2 1 Z " fill="#60371E" transform="translate(806,417)"/>
<path d="M0 0 C2 1 2 1 2 1 Z " fill="#683A20" transform="translate(223,408)"/>
<path d="M0 0 C2 1 2 1 2 1 Z " fill="#64351D" transform="translate(230,400)"/>
<path d="" fill="#62381E" transform="translate(0,0)"/>
<path d="" fill="#633820" transform="translate(0,0)"/>
<path d="" fill="#67381F" transform="translate(0,0)"/>
<path d="" fill="#66371E" transform="translate(0,0)"/>
<path d="" fill="#62351D" transform="translate(0,0)"/>
<path d="" fill="#5D321B" transform="translate(0,0)"/>
<path d="" fill="#63371F" transform="translate(0,0)"/>
<path d="" fill="#60341E" transform="translate(0,0)"/>
<path d="" fill="#60331C" transform="translate(0,0)"/>
<path d="" fill="#60311B" transform="translate(0,0)"/>
<path d="" fill="#5F301B" transform="translate(0,0)"/>
<path d="" fill="#5E351E" transform="translate(0,0)"/>
<path d="M0 0 C2 1 2 1 2 1 Z " fill="#582F1A" transform="translate(266,252)"/>
<path d="" fill="#572C19" transform="translate(0,0)"/>
<path d="" fill="#5D341D" transform="translate(0,0)"/>
<path d="" fill="#5B2C17" transform="translate(0,0)"/>
<path d="" fill="#5A2E19" transform="translate(0,0)"/>
<path d="M0 0 C2 1 2 1 2 1 Z " fill="#592D17" transform="translate(288,204)"/>
<path d="M0 0 C2 1 2 1 2 1 Z " fill="#5A321C" transform="translate(718,184)"/>
<path d="M0 0 C2 1 2 1 2 1 Z " fill="#592E17" transform="translate(312,171)"/>
<path d="M0 0 C2 1 2 1 2 1 Z " fill="#582E17" transform="translate(315,168)"/>
<path d="M0 0 C2 1 2 1 2 1 Z " fill="#5F3118" transform="translate(698,161)"/>
<path d="M0 0 C2 1 2 1 2 1 Z " fill="#582E18" transform="translate(329,154)"/>
<path d="" fill="#582E17" transform="translate(0,0)"/>
<path d="M0 0 C2 1 2 1 2 1 Z " fill="#5B3118" transform="translate(658,128)"/>
<path d="M0 0 C2 1 2 1 2 1 Z " fill="#5C331B" transform="translate(644,120)"/>
<path d="" fill="#582E18" transform="translate(0,0)"/>
<path d="" fill="#572F19" transform="translate(0,0)"/>
<path d="M0 0 C2 1 2 1 2 1 Z " fill="#583619" transform="translate(606,104)"/>
<path d="M0 0 C2 1 2 1 2 1 Z " fill="#5B3219" transform="translate(403,104)"/>
<path d="M0 0 C2 1 2 1 2 1 Z " fill="#5F3C1C" transform="translate(595,100)"/>
<path d="" fill="#684B28" transform="translate(0,0)"/>
<path d="" fill="#6C4D28" transform="translate(0,0)"/>
<path d="" fill="#634423" transform="translate(0,0)"/>
<path d="" fill="#664524" transform="translate(0,0)"/>
<path d="" fill="#674A27" transform="translate(0,0)"/>
<path d="" fill="#674D28" transform="translate(0,0)"/>
<path d="" fill="#465033" transform="translate(0,0)"/>
<path d="" fill="#474F33" transform="translate(0,0)"/>
<path d="" fill="#454D31" transform="translate(0,0)"/>
<path d="" fill="#485235" transform="translate(0,0)"/>
<path d="" fill="#464F31" transform="translate(0,0)"/>
<path d="" fill="#2E321D" transform="translate(0,0)"/>
<path d="" fill="#414B2E" transform="translate(0,0)"/>
<path d="" fill="#494E32" transform="translate(0,0)"/>
<path d="" fill="#494C30" transform="translate(0,0)"/>
<path d="" fill="#484D31" transform="translate(0,0)"/>
<path d="" fill="#232715" transform="translate(0,0)"/>
<path d="" fill="#474D2F" transform="translate(0,0)"/>
<path d="" fill="#414B32" transform="translate(0,0)"/>
<path d="" fill="#454C2F" transform="translate(0,0)"/>
<path d="" fill="#404C30" transform="translate(0,0)"/>
<path d="" fill="#464C2F" transform="translate(0,0)"/>
<path d="" fill="#444A2E" transform="translate(0,0)"/>
<path d="" fill="#454A2F" transform="translate(0,0)"/>
<path d="" fill="#474C30" transform="translate(0,0)"/>
<path d="" fill="#484C2E" transform="translate(0,0)"/>
<path d="" fill="#45492D" transform="translate(0,0)"/>
<path d="" fill="#464729" transform="translate(0,0)"/>
<path d="" fill="#484C2D" transform="translate(0,0)"/>
<path d="" fill="#464E2F" transform="translate(0,0)"/>
<path d="" fill="#474B2C" transform="translate(0,0)"/>
<path d="" fill="#464B2E" transform="translate(0,0)"/>
<path d="" fill="#494E2F" transform="translate(0,0)"/>
<path d="" fill="#454B2A" transform="translate(0,0)"/>
<path d="" fill="#44492D" transform="translate(0,0)"/>
<path d="" fill="#414D35" transform="translate(0,0)"/>
<path d="" fill="#464C2E" transform="translate(0,0)"/>
<path d="" fill="#454C2E" transform="translate(0,0)"/>
<path d="" fill="#434C34" transform="translate(0,0)"/>
<path d="" fill="#454C2F" transform="translate(0,0)"/>
<path d="" fill="#494D31" transform="translate(0,0)"/>
<path d="" fill="#424D33" transform="translate(0,0)"/>
<path d="" fill="#46492E" transform="translate(0,0)"/>
<path d="" fill="#494C30" transform="translate(0,0)"/>
<path d="" fill="#454B31" transform="translate(0,0)"/>
<path d="" fill="#44492C" transform="translate(0,0)"/>
<path d="" fill="#40442B" transform="translate(0,0)"/>
<path d="" fill="#40452C" transform="translate(0,0)"/>
<path d="" fill="#45482C" transform="translate(0,0)"/>
<path d="" fill="#414628" transform="translate(0,0)"/>
<path d="" fill="#151307" transform="translate(0,0)"/>
<path d="" fill="#414428" transform="translate(0,0)"/>
<path d="" fill="#434629" transform="translate(0,0)"/>
<path d="" fill="#3D4429" transform="translate(0,0)"/>
<path d="" fill="#232413" transform="translate(0,0)"/>
<path d="" fill="#414A33" transform="translate(0,0)"/>
<path d="" fill="#404329" transform="translate(0,0)"/>
<path d="" fill="#414C30" transform="translate(0,0)"/>
<path d="" fill="#434830" transform="translate(0,0)"/>
<path d="" fill="#3F4328" transform="translate(0,0)"/>
<path d="" fill="#404228" transform="translate(0,0)"/>
<path d="" fill="#414329" transform="translate(0,0)"/>
<path d="" fill="#414327" transform="translate(0,0)"/>
<path d="" fill="#414129" transform="translate(0,0)"/>
<path d="" fill="#414427" transform="translate(0,0)"/>
<path d="" fill="#475033" transform="translate(0,0)"/>
<path d="" fill="#444127" transform="translate(0,0)"/>
<path d="" fill="#454429" transform="translate(0,0)"/>
<path d="" fill="#475032" transform="translate(0,0)"/>
<path d="" fill="#44432B" transform="translate(0,0)"/>
<path d="" fill="#454F31" transform="translate(0,0)"/>
<path d="" fill="#454C31" transform="translate(0,0)"/>
<path d="" fill="#454226" transform="translate(0,0)"/>
<path d="" fill="#444C31" transform="translate(0,0)"/>
<path d="" fill="#464528" transform="translate(0,0)"/>
<path d="" fill="#464F31" transform="translate(0,0)"/>
<path d="" fill="#444F33" transform="translate(0,0)"/>
<path d="" fill="#464E32" transform="translate(0,0)"/>
<path d="" fill="#454226" transform="translate(0,0)"/>
<path d="" fill="#495237" transform="translate(0,0)"/>
<path d="" fill="#485035" transform="translate(0,0)"/>
<path d="" fill="#484F33" transform="translate(0,0)"/>
<path d="" fill="#484F32" transform="translate(0,0)"/>
<path d="" fill="#494E31" transform="translate(0,0)"/>
<path d="" fill="#4A5035" transform="translate(0,0)"/>
<path d="" fill="#495034" transform="translate(0,0)"/>
<path d="" fill="#4A4528" transform="translate(0,0)"/>
<path d="" fill="#484A32" transform="translate(0,0)"/>
<path d="" fill="#495136" transform="translate(0,0)"/>
<path d="" fill="#4B5134" transform="translate(0,0)"/>
<path d="" fill="#49482D" transform="translate(0,0)"/>
<path d="" fill="#4C5235" transform="translate(0,0)"/>
<path d="" fill="#494A2F" transform="translate(0,0)"/>
<path d="" fill="#484B2F" transform="translate(0,0)"/>
<path d="" fill="#4C4F32" transform="translate(0,0)"/>
<path d="" fill="#4B5035" transform="translate(0,0)"/>
<path d="" fill="#47482C" transform="translate(0,0)"/>
<path d="" fill="#474B30" transform="translate(0,0)"/>
<path d="" fill="#4A4427" transform="translate(0,0)"/>
<path d="" fill="#4B4328" transform="translate(0,0)"/>
<path d="" fill="#4A4328" transform="translate(0,0)"/>
<path d="" fill="#4E4C30" transform="translate(0,0)"/>
<path d="" fill="#4E4C30" transform="translate(0,0)"/>
<path d="" fill="#4C4A31" transform="translate(0,0)"/>
<path d="" fill="#494126" transform="translate(0,0)"/>
<path d="" fill="#494124" transform="translate(0,0)"/>
<path d="" fill="#4A452D" transform="translate(0,0)"/>
<path d="" fill="#43462B" transform="translate(0,0)"/>
<path d="" fill="#4F4B2F" transform="translate(0,0)"/>
<path d="" fill="#45472A" transform="translate(0,0)"/>
<path d="" fill="#454B2F" transform="translate(0,0)"/>
<path d="" fill="#44472B" transform="translate(0,0)"/>
<path d="" fill="#4E482A" transform="translate(0,0)"/>
<path d="" fill="#42462A" transform="translate(0,0)"/>
<path d="" fill="#46492E" transform="translate(0,0)"/>
<path d="" fill="#484126" transform="translate(0,0)"/>
<path d="" fill="#51462A" transform="translate(0,0)"/>
<path d="" fill="#50482A" transform="translate(0,0)"/>
<path d="" fill="#4C3C20" transform="translate(0,0)"/>
<path d="" fill="#524D2E" transform="translate(0,0)"/>
<path d="" fill="#4F4527" transform="translate(0,0)"/>
<path d="" fill="#534728" transform="translate(0,0)"/>
<path d="" fill="#514325" transform="translate(0,0)"/>
<path d="" fill="#574226" transform="translate(0,0)"/>
<path d="" fill="#574527" transform="translate(0,0)"/>
<path d="" fill="#5E3B1D" transform="translate(0,0)"/>
<path d="" fill="#5A4225" transform="translate(0,0)"/>
<path d="" fill="#5F4226" transform="translate(0,0)"/>
<path d="" fill="#5C4021" transform="translate(0,0)"/>
<path d="" fill="#573E21" transform="translate(0,0)"/>
<path d="" fill="#5A4425" transform="translate(0,0)"/>
<path d="" fill="#5E4122" transform="translate(0,0)"/>
<path d="" fill="#583A1F" transform="translate(0,0)"/>
<path d="" fill="#5C3D1F" transform="translate(0,0)"/>
<path d="" fill="#5A381E" transform="translate(0,0)"/>
<path d="" fill="#584222" transform="translate(0,0)"/>
<path d="" fill="#5B3C20" transform="translate(0,0)"/>
<path d="" fill="#584122" transform="translate(0,0)"/>
<path d="" fill="#5E4324" transform="translate(0,0)"/>
<path d="" fill="#5F3B1E" transform="translate(0,0)"/>
<path d="" fill="#623A1E" transform="translate(0,0)"/>
<path d="" fill="#643C1E" transform="translate(0,0)"/>
<path d="" fill="#613A1F" transform="translate(0,0)"/>
<path d="" fill="#614529" transform="translate(0,0)"/>
<path d="" fill="#61391E" transform="translate(0,0)"/>
<path d="" fill="#644728" transform="translate(0,0)"/>
<path d="" fill="#62391D" transform="translate(0,0)"/>
<path d="" fill="#613B1E" transform="translate(0,0)"/>
<path d="" fill="#633B1F" transform="translate(0,0)"/>
<path d="" fill="#5F361B" transform="translate(0,0)"/>
<path d="" fill="#684628" transform="translate(0,0)"/>
<path d="" fill="#6A4628" transform="translate(0,0)"/>
<path d="" fill="#643C21" transform="translate(0,0)"/>
<path d="" fill="#633B20" transform="translate(0,0)"/>
<path d="" fill="#653A21" transform="translate(0,0)"/>
<path d="" fill="#683C20" transform="translate(0,0)"/>
<path d="" fill="#693D21" transform="translate(0,0)"/>
<path d="" fill="#644121" transform="translate(0,0)"/>
<path d="" fill="#653920" transform="translate(0,0)"/>
<path d="" fill="#673B21" transform="translate(0,0)"/>
<path d="" fill="#673D20" transform="translate(0,0)"/>
<path d="" fill="#674025" transform="translate(0,0)"/>
<path d="" fill="#693A1F" transform="translate(0,0)"/>
<path d="" fill="#693C21" transform="translate(0,0)"/>
<path d="" fill="#633D25" transform="translate(0,0)"/>
<path d="" fill="#603A21" transform="translate(0,0)"/>
<path d="" fill="#633B21" transform="translate(0,0)"/>
<path d="" fill="#633F24" transform="translate(0,0)"/>
<path d="" fill="#673D22" transform="translate(0,0)"/>
<path d="" fill="#643B22" transform="translate(0,0)"/>
<path d="" fill="#5F3C23" transform="translate(0,0)"/>
<path d="" fill="#643B1F" transform="translate(0,0)"/>
<path d="" fill="#623A21" transform="translate(0,0)"/>
<path d="" fill="#5F3820" transform="translate(0,0)"/>
<path d="" fill="#633F25" transform="translate(0,0)"/>
<path d="" fill="#61391C" transform="translate(0,0)"/>
<path d="" fill="#644123" transform="translate(0,0)"/>
<path d="" fill="#654024" transform="translate(0,0)"/>
<path d="" fill="#5F381E" transform="translate(0,0)"/>
<path d="" fill="#674022" transform="translate(0,0)"/>
<path d="" fill="#654023" transform="translate(0,0)"/>
<path d="" fill="#673E21" transform="translate(0,0)"/>
<path d="" fill="#633B21" transform="translate(0,0)"/>
<path d="" fill="#64391F" transform="translate(0,0)"/>
<path d="" fill="#5F381F" transform="translate(0,0)"/>
<path d="" fill="#5F3820" transform="translate(0,0)"/>
<path d="" fill="#613620" transform="translate(0,0)"/>
<path d="" fill="#5D351E" transform="translate(0,0)"/>
<path d="" fill="#613C21" transform="translate(0,0)"/>
<path d="" fill="#5F351F" transform="translate(0,0)"/>
<path d="" fill="#653A1F" transform="translate(0,0)"/>
<path d="" fill="#5B341B" transform="translate(0,0)"/>
<path d="" fill="#623B20" transform="translate(0,0)"/>
<path d="" fill="#60351D" transform="translate(0,0)"/>
<path d="" fill="#5C351B" transform="translate(0,0)"/>
<path d="" fill="#5E3A21" transform="translate(0,0)"/>
<path d="" fill="#5F381F" transform="translate(0,0)"/>
<path d="" fill="#5C361D" transform="translate(0,0)"/>
<path d="" fill="#5F3A21" transform="translate(0,0)"/>
<path d="" fill="#5F361E" transform="translate(0,0)"/>
<path d="" fill="#5E361B" transform="translate(0,0)"/>
<path d="" fill="#5D361E" transform="translate(0,0)"/>
<path d="" fill="#5E361C" transform="translate(0,0)"/>
<path d="" fill="#603B22" transform="translate(0,0)"/>
<path d="" fill="#643C21" transform="translate(0,0)"/>
<path d="" fill="#63381D" transform="translate(0,0)"/>
<path d="" fill="#5E361D" transform="translate(0,0)"/>
<path d="" fill="#5D351C" transform="translate(0,0)"/>
<path d="" fill="#5E351C" transform="translate(0,0)"/>
<path d="" fill="#59351B" transform="translate(0,0)"/>
<path d="" fill="#603A1F" transform="translate(0,0)"/>
<path d="" fill="#603B1F" transform="translate(0,0)"/>
<path d="" fill="#623B20" transform="translate(0,0)"/>
<path d="" fill="#59331D" transform="translate(0,0)"/>
<path d="" fill="#5B351C" transform="translate(0,0)"/>
<path d="" fill="#5E371C" transform="translate(0,0)"/>
<path d="" fill="#5C331B" transform="translate(0,0)"/>
<path d="" fill="#603A20" transform="translate(0,0)"/>
<path d="" fill="#5D351D" transform="translate(0,0)"/>
<path d="" fill="#5D381E" transform="translate(0,0)"/>
<path d="" fill="#5F3B21" transform="translate(0,0)"/>
<path d="" fill="#5D3A20" transform="translate(0,0)"/>
<path d="" fill="#5D341C" transform="translate(0,0)"/>
<path d="" fill="#5C341D" transform="translate(0,0)"/>
<path d="" fill="#5E3820" transform="translate(0,0)"/>
<path d="" fill="#613C21" transform="translate(0,0)"/>
<path d="" fill="#623C21" transform="translate(0,0)"/>
<path d="" fill="#61361C" transform="translate(0,0)"/>
<path d="" fill="#643B1F" transform="translate(0,0)"/>
<path d="" fill="#623A1F" transform="translate(0,0)"/>
<path d="" fill="#653C1E" transform="translate(0,0)"/>
<path d="" fill="#633C21" transform="translate(0,0)"/>
<path d="" fill="#643A1F" transform="translate(0,0)"/>
<path d="" fill="#633B21" transform="translate(0,0)"/>
<path d="" fill="#633F23" transform="translate(0,0)"/>
<path d="" fill="#663A21" transform="translate(0,0)"/>
<path d="" fill="#623D22" transform="translate(0,0)"/>
<path d="" fill="#663F23" transform="translate(0,0)"/>
<path d="" fill="#61381E" transform="translate(0,0)"/>
<path d="" fill="#693F24" transform="translate(0,0)"/>
<path d="" fill="#673B21" transform="translate(0,0)"/>
<path d="" fill="#694126" transform="translate(0,0)"/>
<path d="" fill="#6A4026" transform="translate(0,0)"/>
<path d="" fill="#693C20" transform="translate(0,0)"/>
<path d="" fill="#63381F" transform="translate(0,0)"/>
<path d="" fill="#633A20" transform="translate(0,0)"/>
<path d="" fill="#663C23" transform="translate(0,0)"/>
<path d="" fill="#64381F" transform="translate(0,0)"/>
<path d="" fill="#664027" transform="translate(0,0)"/>
<path d="" fill="#674022" transform="translate(0,0)"/>
<path d="" fill="#643F22" transform="translate(0,0)"/>
<path d="" fill="#5D391F" transform="translate(0,0)"/>
<path d="" fill="#653F23" transform="translate(0,0)"/>
<path d="" fill="#5D371E" transform="translate(0,0)"/>
<path d="" fill="#623D20" transform="translate(0,0)"/>
<path d="" fill="#633B1E" transform="translate(0,0)"/>
<path d="" fill="#633C1D" transform="translate(0,0)"/>
<path d="" fill="#61351D" transform="translate(0,0)"/>
<path d="" fill="#5C351E" transform="translate(0,0)"/>
<path d="" fill="#5C3A1F" transform="translate(0,0)"/>
<path d="" fill="#5B331D" transform="translate(0,0)"/>
<path d="" fill="#653D22" transform="translate(0,0)"/>
<path d="" fill="#5C341E" transform="translate(0,0)"/>
<path d="" fill="#643B1F" transform="translate(0,0)"/>
<path d="" fill="#60351B" transform="translate(0,0)"/>
<path d="" fill="#633B1D" transform="translate(0,0)"/>
<path d="" fill="#633B1F" transform="translate(0,0)"/>
<path d="" fill="#5E361D" transform="translate(0,0)"/>
<path d="" fill="#60361E" transform="translate(0,0)"/>
<path d="" fill="#60381F" transform="translate(0,0)"/>
<path d="" fill="#5E361F" transform="translate(0,0)"/>
<path d="" fill="#5C361D" transform="translate(0,0)"/>
<path d="" fill="#5E381E" transform="translate(0,0)"/>
<path d="" fill="#62381D" transform="translate(0,0)"/>
<path d="" fill="#5F341D" transform="translate(0,0)"/>
<path d="" fill="#5E351B" transform="translate(0,0)"/>
<path d="" fill="#60371E" transform="translate(0,0)"/>
<path d="" fill="#61361E" transform="translate(0,0)"/>
<path d="" fill="#60351D" transform="translate(0,0)"/>
<path d="" fill="#5E381C" transform="translate(0,0)"/>
<path d="" fill="#60351D" transform="translate(0,0)"/>
<path d="" fill="#62351D" transform="translate(0,0)"/>
<path d="" fill="#60341B" transform="translate(0,0)"/>
<path d="" fill="#65381E" transform="translate(0,0)"/>
<path d="" fill="#653920" transform="translate(0,0)"/>
<path d="" fill="#60321C" transform="translate(0,0)"/>
<path d="" fill="#60341D" transform="translate(0,0)"/>
<path d="" fill="#65371E" transform="translate(0,0)"/>
<path d="" fill="#623720" transform="translate(0,0)"/>
<path d="" fill="#63361D" transform="translate(0,0)"/>
<path d="" fill="#623621" transform="translate(0,0)"/>
<path d="" fill="#63351B" transform="translate(0,0)"/>
<path d="" fill="#6A391F" transform="translate(0,0)"/>
<path d="" fill="#65351C" transform="translate(0,0)"/>
<path d="" fill="#2F1A0B" transform="translate(0,0)"/>
<path d="" fill="#62331C" transform="translate(0,0)"/>
<path d="" fill="#67361C" transform="translate(0,0)"/>
<path d="" fill="#61311B" transform="translate(0,0)"/>
<path d="" fill="#60331B" transform="translate(0,0)"/>
<path d="" fill="#62341D" transform="translate(0,0)"/>
<path d="" fill="#65351F" transform="translate(0,0)"/>
<path d="" fill="#60341D" transform="translate(0,0)"/>
<path d="" fill="#5F361C" transform="translate(0,0)"/>
<path d="" fill="#5D331B" transform="translate(0,0)"/>
<path d="" fill="#61341C" transform="translate(0,0)"/>
<path d="" fill="#5C3018" transform="translate(0,0)"/>
<path d="" fill="#5A2E19" transform="translate(0,0)"/>
<path d="" fill="#5D2F1A" transform="translate(0,0)"/>
<path d="" fill="#5E331C" transform="translate(0,0)"/>
<path d="" fill="#5C2E18" transform="translate(0,0)"/>
<path d="" fill="#5E331C" transform="translate(0,0)"/>
<path d="" fill="#5D341D" transform="translate(0,0)"/>
<path d="" fill="#582E18" transform="translate(0,0)"/>
<path d="" fill="#5A2D1A" transform="translate(0,0)"/>
<path d="" fill="#5F341C" transform="translate(0,0)"/>
<path d="" fill="#5B331B" transform="translate(0,0)"/>
<path d="" fill="#5D311B" transform="translate(0,0)"/>
<path d="" fill="#60361C" transform="translate(0,0)"/>
<path d="" fill="#5E311B" transform="translate(0,0)"/>
<path d="" fill="#5A2F19" transform="translate(0,0)"/>
<path d="" fill="#5E3018" transform="translate(0,0)"/>
<path d="" fill="#5B2D18" transform="translate(0,0)"/>
<path d="" fill="#5E331C" transform="translate(0,0)"/>
<path d="" fill="#582D18" transform="translate(0,0)"/>
<path d="" fill="#5B301A" transform="translate(0,0)"/>
<path d="" fill="#562C17" transform="translate(0,0)"/>
<path d="" fill="#5A2F19" transform="translate(0,0)"/>
<path d="" fill="#562C17" transform="translate(0,0)"/>
<path d="" fill="#5A2F1A" transform="translate(0,0)"/>
<path d="" fill="#582D1B" transform="translate(0,0)"/>
<path d="" fill="#582E17" transform="translate(0,0)"/>
<path d="" fill="#572D16" transform="translate(0,0)"/>
<path d="" fill="#592D18" transform="translate(0,0)"/>
<path d="" fill="#572E19" transform="translate(0,0)"/>
<path d="" fill="#572C17" transform="translate(0,0)"/>
<path d="" fill="#572C16" transform="translate(0,0)"/>
<path d="" fill="#572D14" transform="translate(0,0)"/>
<path d="" fill="#542D15" transform="translate(0,0)"/>
<path d="" fill="#5B2F17" transform="translate(0,0)"/>
<path d="" fill="#5C311A" transform="translate(0,0)"/>
<path d="" fill="#562D19" transform="translate(0,0)"/>
<path d="" fill="#582E16" transform="translate(0,0)"/>
<path d="" fill="#582D19" transform="translate(0,0)"/>
<path d="" fill="#592E1A" transform="translate(0,0)"/>
<path d="" fill="#562E19" transform="translate(0,0)"/>
<path d="" fill="#562E18" transform="translate(0,0)"/>
<path d="" fill="#5E3118" transform="translate(0,0)"/>
<path d="" fill="#5A3118" transform="translate(0,0)"/>
<path d="" fill="#5D3318" transform="translate(0,0)"/>
<path d="" fill="#542B13" transform="translate(0,0)"/>
<path d="" fill="#542C16" transform="translate(0,0)"/>
<path d="" fill="#35190A" transform="translate(0,0)"/>
<path d="" fill="#5F341A" transform="translate(0,0)"/>
<path d="" fill="#542C17" transform="translate(0,0)"/>
<path d="" fill="#562D15" transform="translate(0,0)"/>
<path d="" fill="#522C16" transform="translate(0,0)"/>
<path d="" fill="#562C17" transform="translate(0,0)"/>
<path d="" fill="#552C16" transform="translate(0,0)"/>
<path d="" fill="#5A341A" transform="translate(0,0)"/>
<path d="" fill="#562C17" transform="translate(0,0)"/>
<path d="" fill="#5B2D17" transform="translate(0,0)"/>
<path d="" fill="#592E19" transform="translate(0,0)"/>
<path d="" fill="#5C3119" transform="translate(0,0)"/>
<path d="" fill="#5A3118" transform="translate(0,0)"/>
<path d="" fill="#5C3219" transform="translate(0,0)"/>
<path d="" fill="#582C17" transform="translate(0,0)"/>
<path d="" fill="#563117" transform="translate(0,0)"/>
<path d="" fill="#562D18" transform="translate(0,0)"/>
<path d="" fill="#5E311A" transform="translate(0,0)"/>
<path d="" fill="#5D311A" transform="translate(0,0)"/>
<path d="" fill="#5E3119" transform="translate(0,0)"/>
<path d="" fill="#5B3419" transform="translate(0,0)"/>
<path d="" fill="#572D18" transform="translate(0,0)"/>
<path d="" fill="#5E3519" transform="translate(0,0)"/>
<path d="" fill="#5B3517" transform="translate(0,0)"/>
<path d="" fill="#5A3019" transform="translate(0,0)"/>
<path d="" fill="#5B3219" transform="translate(0,0)"/>
<path d="" fill="#582E18" transform="translate(0,0)"/>
<path d="" fill="#5A321A" transform="translate(0,0)"/>
<path d="" fill="#5A331A" transform="translate(0,0)"/>
<path d="" fill="#5B341A" transform="translate(0,0)"/>
<path d="" fill="#5E3319" transform="translate(0,0)"/>
<path d="" fill="#5C341B" transform="translate(0,0)"/>
<path d="" fill="#573117" transform="translate(0,0)"/>
<path d="" fill="#5C361D" transform="translate(0,0)"/>
<path d="" fill="#5B3219" transform="translate(0,0)"/>
<path d="" fill="#5C3319" transform="translate(0,0)"/>
<path d="" fill="#5A3118" transform="translate(0,0)"/>
<path d="" fill="#61381C" transform="translate(0,0)"/>
<path d="" fill="#66421F" transform="translate(0,0)"/>
<path d="" fill="#613C1E" transform="translate(0,0)"/>
<path d="" fill="#614124" transform="translate(0,0)"/>
<path d="" fill="#6C4C25" transform="translate(0,0)"/>
<path d="" fill="#664223" transform="translate(0,0)"/>
<path d="" fill="#73522A" transform="translate(0,0)"/>
<path d="" fill="#6D5028" transform="translate(0,0)"/>
<path d="" fill="#715026" transform="translate(0,0)"/>
<path d="" fill="#724F29" transform="translate(0,0)"/>
<path d="" fill="#6E4C27" transform="translate(0,0)"/>
<path d="" fill="#6E5129" transform="translate(0,0)"/>
<path d="" fill="#6B4C29" transform="translate(0,0)"/>
<path d="" fill="#6B4C28" transform="translate(0,0)"/>
<path d="" fill="#6D4F29" transform="translate(0,0)"/>
<path d="" fill="#5F3F23" transform="translate(0,0)"/>
<path d="" fill="#6D512A" transform="translate(0,0)"/>
<path d="" fill="#674926" transform="translate(0,0)"/>
<path d="" fill="#664A28" transform="translate(0,0)"/>
<path d="" fill="#6C4F2B" transform="translate(0,0)"/>
<path d="" fill="#654522" transform="translate(0,0)"/>
<path d="" fill="#6B4B29" transform="translate(0,0)"/>
<path d="" fill="#654522" transform="translate(0,0)"/>
<path d="" fill="#694B29" transform="translate(0,0)"/>
<path d="" fill="#68492A" transform="translate(0,0)"/>
<path d="" fill="#674726" transform="translate(0,0)"/>
<path d="" fill="#6C4826" transform="translate(0,0)"/>
<path d="" fill="#674A27" transform="translate(0,0)"/>
<path d="" fill="#6B4825" transform="translate(0,0)"/>
<path d="" fill="#6B4926" transform="translate(0,0)"/>
<path d="" fill="#6F4C28" transform="translate(0,0)"/>
<path d="" fill="#694C28" transform="translate(0,0)"/>
<path d="" fill="#654B28" transform="translate(0,0)"/>
<path d="" fill="#684D28" transform="translate(0,0)"/>
<path d="" fill="#6A4D28" transform="translate(0,0)"/>
<path d="" fill="#61472B" transform="translate(0,0)"/>
<path d="" fill="#6B4D28" transform="translate(0,0)"/>
<path d="" fill="#6B4C28" transform="translate(0,0)"/>
<path d="" fill="#694E2A" transform="translate(0,0)"/>
<path d="" fill="#694A28" transform="translate(0,0)"/>
<path d="" fill="#6A4D2A" transform="translate(0,0)"/>
<path d="" fill="#6C4C28" transform="translate(0,0)"/>
<path d="" fill="#6A4C2B" transform="translate(0,0)"/>
<path d="" fill="#664623" transform="translate(0,0)"/>
</svg>
