<?xml version="1.0" encoding="UTF-8"?>
<!-- Generator: visioncortex VTracer 0.6.12 -->
<svg version="1.1" xmlns="http://www.w3.org/2000/svg" width="1024" height="1024">
<path d="M0 0 C1.125 0.198 2.249 0.395 3.408 0.599 C9.628 1.753 15.426 3.32 21.375 5.438 C24.003 6.318 26.631 7.194 29.262 8.066 C30.709 8.549 32.156 9.031 33.604 9.514 C33.97 9.636 33.97 9.636 35.823 10.254 C39.511 11.483 43.199 12.712 46.887 13.941 C47.549 14.162 48.212 14.383 48.895 14.611 C63.375 19.438 63.375 19.438 65.039 20.719 C68.4 23.192 72.054 25.014 75.75 26.938 C76.492 27.328 77.235 27.719 78 28.121 C82.102 30.274 86.224 32.381 90.375 34.438 C91.035 34.767 91.695 35.097 92.375 35.438 C93.035 35.747 93.695 36.056 94.375 36.375 C96.375 37.437 96.375 37.437 98.375 39.438 C110.703 49.101 110.703 49.101 115.375 51.438 C116.179 52.263 116.984 53.088 117.812 53.938 C120.375 56.438 120.375 56.438 123.375 57.438 C124.805 58.996 124.805 58.996 126.25 60.875 C128.772 63.96 130.642 65.025 134.375 66.438 C135.396 68.091 136.391 69.761 137.375 71.438 C138.556 72.672 139.769 73.877 141 75.062 C145.012 78.972 148.519 83.152 152.02 87.52 C154.44 90.518 156.935 93.444 159.438 96.375 C163.636 101.386 167.258 106.537 170.781 112.039 C172.375 114.438 172.375 114.438 174.375 116.438 C174.71 117.177 175.045 117.917 175.391 118.68 C177.48 123.137 178.958 125.857 183.637 127.773 C186.093 128.384 188.556 128.971 191.023 129.535 C197.413 131.255 200.719 135.057 204.188 140.5 C208.955 150.035 208.987 158.772 205.813 168.705 C203.173 177.24 205.87 184.733 208.25 193 C214.662 215.885 214.662 215.885 214.375 224.438 C215.035 224.438 215.695 224.438 216.375 224.438 C216.412 225.049 216.45 225.66 216.488 226.289 C217.071 234.396 218.152 242.394 219.359 250.43 C220.187 256.167 220.511 261.64 220.375 267.438 C221.035 267.767 221.695 268.098 222.375 268.438 C222.369 268.867 222.369 268.867 222.34 271.043 C222.172 293.031 222.172 293.031 224.375 297.438 C224.395 298.854 224.366 300.272 224.312 301.688 C224.233 308.526 224.277 317.241 227.375 323.438 C227.443 324.035 227.443 324.035 227.785 327.059 C228.289 331.408 229.434 335.357 230.812 339.5 C231.25 340.845 231.686 342.19 232.121 343.535 C232.331 344.18 232.541 344.825 232.757 345.489 C233.697 348.454 234.538 351.442 235.375 354.438 C236.695 354.767 238.015 355.098 239.375 355.438 C239.045 356.428 238.715 357.418 238.375 358.438 C244.914 373.349 259.05 387.104 271.375 397.438 C277.518 402.764 283.237 408.131 288.375 414.438 C288.784 414.928 289.192 415.419 289.613 415.925 C308.34 438.49 317.602 461.91 315.375 491.438 C312.982 509.694 302.086 525.061 290.25 538.562 C282.74 547.131 276.459 555.231 274.938 566.75 C275.994 575.652 281.14 581.48 287.094 587.801 C294.873 596.792 299.589 607.604 300.375 619.438 C300.439 620.077 300.504 620.716 300.57 621.375 C301.53 638.264 293.044 654.082 282.375 666.438 C282.094 666.785 282.094 666.785 280.672 668.543 C278.043 671.763 276.14 673.622 272.375 675.438 C270.968 676.464 269.573 677.508 268.188 678.562 C257.026 686.384 245.056 690.984 231.799 693.891 C230.99 694.069 230.181 694.247 229.348 694.43 C228.988 694.504 228.988 694.504 227.168 694.878 C225.375 695.438 225.375 695.438 223.375 697.438 C222.261 697.273 221.148 697.107 220 696.938 C216.398 696.441 215.288 696.457 212.375 698.438 C211.715 697.447 211.055 696.457 210.375 695.438 C210.045 695.768 209.715 696.097 209.375 696.438 C207.399 696.983 205.437 697.427 203.418 697.781 C200.965 698.569 200.164 699.494 198.5 701.438 C190.572 709.706 179.825 715.082 169.375 719.438 C168.818 719.716 168.818 719.716 166 721.125 C149.042 727.265 126.24 726.74 109.754 719.246 C109.051 718.876 108.349 718.506 107.625 718.125 C104.375 716.438 104.375 716.438 102.414 716.664 C100.117 717.535 98.473 718.662 96.5 720.125 C85.932 727.308 74.804 730.453 62.375 732.438 C62.346 733.084 62.317 733.73 62.287 734.396 C61.415 751.941 58.648 768.417 54.375 785.438 C54.122 786.448 53.869 787.459 53.609 788.5 C51.668 796.238 51.668 796.238 50.848 799.349 C49.936 802.859 49.375 805.784 49.375 809.438 C50.035 810.428 50.695 811.418 51.375 812.438 C53.212 808.656 53.533 806.492 52.375 802.438 C53.695 802.438 55.015 802.438 56.375 802.438 C56.628 801.735 56.88 801.032 57.141 800.309 C64.092 784.141 79.38 770.131 94.375 761.438 C95.035 761.438 95.695 761.438 96.375 761.438 C96.705 760.778 97.035 760.117 97.375 759.438 C99.162 758.54 99.162 758.54 101.504 757.633 C102.366 757.298 103.227 756.964 104.115 756.62 C129.853 746.979 152.987 744.713 180.375 746.438 C180.375 747.097 180.375 747.758 180.375 748.438 C181.111 748.691 181.847 748.945 182.605 749.207 C183.581 749.551 184.557 749.895 185.562 750.25 C186.044 750.418 186.044 750.418 188.48 751.27 C193.706 753.378 197.193 755.439 199.762 760.492 C200.928 764.193 200.06 767.122 198.375 770.438 C197.209 771.971 195.995 773.468 194.75 774.938 C185.619 785.868 181.678 798.176 177.947 811.7 C173.102 828.953 164.877 841.758 150.375 852.438 C149.679 852.985 148.983 853.533 148.266 854.098 C146.375 855.438 146.375 855.438 143.375 856.438 C143.943 856.789 144.512 857.141 145.098 857.504 C153.917 863.143 159.671 869.529 165.676 878.082 C167.412 880.489 168.709 882.105 171.375 883.438 C171.519 884.324 171.664 885.211 171.812 886.125 C172.582 890.655 174.112 894.174 177.375 897.438 C177.375 899.771 177.375 902.104 177.375 904.438 C177.843 907.816 178.363 911.177 179.375 914.438 C180.035 914.768 180.695 915.097 181.375 915.438 C181.478 916.242 181.581 917.046 181.688 917.875 C183.226 925.845 187.606 933.476 194 938.5 C197.363 941.243 198.166 943.064 198.812 947.312 C198.231 951.468 196.548 953.841 193.375 956.438 C189.46 958.659 185.917 960.438 181.375 960.438 C181.045 961.097 180.715 961.758 180.375 962.438 C160.525 967.446 139.235 966.895 119.375 962.438 C117.459 962.059 115.543 961.683 113.625 961.312 C112.208 961.022 110.791 960.73 109.375 960.438 C108.524 960.316 107.673 960.195 106.797 960.07 C104.016 959.344 103.324 958.47 101.375 956.438 C99.552 955.5 97.693 954.629 95.812 953.812 C95.327 953.6 95.327 953.6 92.871 952.523 C92.047 952.165 91.224 951.807 90.375 951.438 C87.738 950.119 85.668 948.283 83.375 946.438 C80.375 944.438 80.375 944.438 77.375 944.438 C76.329 942.8 75.337 941.127 74.375 939.438 C72.946 937.829 71.464 936.266 69.938 934.75 C69.557 934.367 69.557 934.367 67.629 932.426 C65.572 930.611 63.946 929.371 61.375 928.438 C60.715 928.768 60.055 929.097 59.375 929.438 C59.499 928.489 59.622 927.54 59.75 926.562 C59.809 921.762 57.258 918.46 54.688 914.574 C53.375 912.438 53.375 912.438 53.375 910.438 C52.715 910.107 52.055 909.778 51.375 909.438 C50.058 905.558 49.375 902.554 49.375 898.438 C48.385 898.438 47.395 898.438 46.375 898.438 C46.251 897.798 46.128 897.159 46 896.5 C45.794 895.819 45.587 895.139 45.375 894.438 C44.715 894.107 44.055 893.778 43.375 893.438 C43.375 892.447 43.375 891.457 43.375 890.438 C40.481 890.438 38.993 890.815 36.332 891.793 C26.533 895.286 16.825 898.22 6.625 900.312 C5.639 900.515 4.652 900.718 3.636 900.927 C-4.672 902.564 -12.706 903.582 -21.188 903.5 C-22.406 903.491 -23.624 903.482 -24.879 903.473 C-25.785 903.461 -26.691 903.449 -27.625 903.438 C-27.955 904.428 -28.285 905.418 -28.625 906.438 C-30.354 906.492 -32.083 906.531 -33.812 906.562 C-34.775 906.586 -35.738 906.609 -36.73 906.633 C-39.625 906.438 -39.625 906.438 -42.031 905.438 C-45.433 904.126 -48.306 904.245 -51.938 904.312 C-52.565 904.322 -52.565 904.322 -55.738 904.367 C-56.691 904.39 -57.644 904.414 -58.625 904.438 C-58.625 903.778 -58.625 903.117 -58.625 902.438 C-59.195 902.451 -59.195 902.451 -62.082 902.52 C-66.596 902.517 -70.876 901.912 -75.312 901.125 C-76.09 900.992 -76.867 900.859 -77.668 900.721 C-83.573 899.685 -89.396 898.422 -95.219 896.988 C-97.625 896.438 -97.625 896.438 -99.625 896.438 C-99.955 897.097 -100.285 897.758 -100.625 898.438 C-101.076 897.704 -101.527 896.971 -101.992 896.215 C-105.682 892.322 -109.817 890.932 -114.75 889 C-121.458 886.27 -127.787 883.555 -133.785 879.434 C-135.625 878.438 -135.625 878.438 -139.625 878.438 C-139.893 877.798 -140.161 877.159 -140.438 876.5 C-141.625 874.438 -141.625 874.438 -144.625 873.438 C-147.736 871.364 -150 869.094 -152.625 866.438 C-154.575 864.636 -156.532 862.845 -158.5 861.062 C-165.348 854.804 -171.611 848.729 -177.145 841.258 C-178.625 839.438 -178.625 839.438 -180.625 838.438 C-180.955 837.447 -181.285 836.457 -181.625 835.438 C-183.625 833.438 -183.625 833.438 -186.625 832.438 C-187.285 831.778 -187.945 831.117 -188.625 830.438 C-188.459 829.826 -188.293 829.215 -188.122 828.586 C-187.453 825.694 -188.242 824.623 -189.68 822.066 C-189.905 821.656 -189.905 821.656 -191.043 819.576 C-191.524 818.726 -192.005 817.876 -192.5 817 C-193.441 815.317 -194.376 813.631 -195.305 811.941 C-195.725 811.197 -196.145 810.453 -196.578 809.686 C-197.701 807.275 -198.206 805.056 -198.625 802.438 C-199.615 802.438 -200.605 802.438 -201.625 802.438 C-203.785 800.277 -204.079 799.347 -204.625 796.438 C-204.625 795.778 -204.625 795.117 -204.625 794.438 C-203.965 794.438 -203.305 794.438 -202.625 794.438 C-203.192 792.183 -203.779 789.934 -204.375 787.688 C-204.537 787.061 -204.537 787.061 -205.359 783.891 C-206.638 780.401 -207.804 778.784 -210.625 776.438 C-210.295 775.447 -209.965 774.457 -209.625 773.438 C-209.625 771.438 -209.625 771.438 -211.625 768.438 C-212.375 765.875 -212.375 765.875 -212.625 763.438 C-211.965 762.778 -211.305 762.117 -210.625 761.438 C-210.43 759.492 -210.43 759.492 -210.5 757.312 C-210.541 756.034 -210.582 754.755 -210.625 753.438 C-211.285 753.107 -211.945 752.778 -212.625 752.438 C-212.625 745.508 -212.625 738.577 -212.625 731.438 C-215.595 731.107 -218.565 730.778 -221.625 730.438 C-223.257 730.119 -224.885 729.774 -226.5 729.375 C-229.058 728.747 -230.957 728.438 -233.625 728.438 C-233.625 727.778 -233.625 727.117 -233.625 726.438 C-234.251 726.16 -234.878 725.883 -235.523 725.598 C-236.341 725.235 -237.158 724.873 -238 724.5 C-238.406 724.32 -238.406 724.32 -240.461 723.41 C-243.802 721.908 -246.364 720.142 -249.25 717.875 C-250.067 717.234 -250.885 716.594 -251.727 715.934 C-252.353 715.44 -252.98 714.946 -253.625 714.438 C-254.326 714.775 -255.028 715.113 -255.75 715.461 C-270.527 722.408 -284.674 723.366 -300.685 721.112 C-304.318 720.611 -307.112 720.395 -310.625 721.438 C-310.625 720.447 -310.625 719.457 -310.625 718.438 C-311.945 718.438 -313.265 718.438 -314.625 718.438 C-314.955 719.097 -315.285 719.758 -315.625 720.438 C-315.955 718.788 -316.285 717.138 -316.625 715.438 C-317.159 715.291 -317.692 715.144 -318.242 714.992 C-323.83 713.31 -328.391 710.944 -333.266 707.742 C-335.747 706.37 -337.833 705.843 -340.625 705.438 C-340.666 704.881 -340.707 704.324 -340.75 703.75 C-342.115 700.143 -344.536 698.707 -347.625 696.438 C-348.285 696.438 -348.945 696.438 -349.625 696.438 C-349.625 695.778 -349.625 695.117 -349.625 694.438 C-352.595 694.438 -355.565 694.438 -358.625 694.438 C-358.955 695.428 -359.285 696.418 -359.625 697.438 C-363.36 696.94 -365.437 696.563 -368.625 694.438 C-371.812 694.312 -371.812 694.312 -374.625 694.438 C-374.625 693.778 -374.625 693.117 -374.625 692.438 C-375.78 692.396 -376.935 692.355 -378.125 692.312 C-384.54 691.645 -390.302 689.074 -396.246 686.715 C-399.625 685.438 -399.625 685.438 -401.625 685.438 C-402.615 685.438 -403.605 685.438 -404.625 685.438 C-405.285 684.447 -405.945 683.457 -406.625 682.438 C-407.615 682.107 -408.605 681.778 -409.625 681.438 C-409.295 680.778 -408.965 680.117 -408.625 679.438 C-409.306 679.211 -409.986 678.984 -410.688 678.75 C-414.333 677.121 -417.657 675.127 -420.625 672.438 C-420.79 671.942 -420.79 671.942 -421.625 669.438 C-421.92 669.298 -421.92 669.298 -423.41 668.594 C-431.084 664.587 -436.286 653.022 -439.625 645.438 C-440.285 645.438 -440.945 645.438 -441.625 645.438 C-443.707 641.028 -443.707 641.028 -443.312 638.188 C-442.625 636.438 -442.625 636.438 -441.625 635.438 C-442.615 635.438 -443.605 635.438 -444.625 635.438 C-444.295 634.778 -443.965 634.117 -443.625 633.438 C-443.714 630.879 -443.858 628.361 -444.062 625.812 C-444.115 625.106 -444.167 624.4 -444.221 623.672 C-444.35 621.927 -444.487 620.182 -444.625 618.438 C-443.965 618.438 -443.305 618.438 -442.625 618.438 C-442.646 617.386 -442.666 616.334 -442.688 615.25 C-442.636 612.11 -442.36 609.469 -441.625 606.438 C-442.285 606.107 -442.945 605.778 -443.625 605.438 C-442.882 604.757 -442.14 604.076 -441.375 603.375 C-438.369 600.369 -436.525 597.238 -434.625 593.438 C-434.625 592.447 -434.625 591.457 -434.625 590.438 C-434.06 590.229 -433.496 590.02 -432.914 589.805 C-429.77 587.927 -428.155 585.51 -426 582.562 C-425.612 582.038 -425.612 582.038 -423.648 579.383 C-419.27 573.009 -418.924 568.142 -419.625 560.438 C-421.063 556.875 -421.063 556.875 -422.625 554.438 C-422.79 553.942 -422.79 553.942 -423.625 551.438 C-427.71 545.387 -432.724 540.08 -437.699 534.765 C-440.224 532.045 -442.543 529.322 -444.625 526.25 C-446.625 523.438 -446.625 523.438 -449.625 522.438 C-449.625 521.778 -449.625 521.117 -449.625 520.438 C-450.615 520.107 -451.605 519.778 -452.625 519.438 C-452.584 518.592 -452.543 517.746 -452.5 516.875 C-452.639 513.062 -453.294 510.011 -454.625 506.438 C-455.615 506.107 -456.605 505.778 -457.625 505.438 C-457.295 505.107 -456.965 504.778 -456.625 504.438 C-456.955 503.777 -457.285 503.118 -457.625 502.438 C-458.285 502.438 -458.945 502.438 -459.625 502.438 C-459.439 501.489 -459.254 500.54 -459.062 499.562 C-458.625 496.438 -458.625 496.438 -459.625 494.438 C-459.625 492.104 -459.625 489.771 -459.625 487.438 C-459.79 486.942 -459.79 486.942 -460.625 484.438 C-460.753 481.764 -460.669 479.117 -460.625 476.438 C-460.295 476.438 -459.965 476.438 -459.625 476.438 C-459.539 475.529 -459.452 474.62 -459.363 473.684 C-455.95 443.15 -439.125 419.852 -418.586 398.062 C-391.625 369.436 -391.625 369.436 -391.625 357.438 C-390.965 357.438 -390.305 357.438 -389.625 357.438 C-389.295 353.808 -388.965 350.178 -388.625 346.438 C-387.965 346.438 -387.305 346.438 -386.625 346.438 C-386.295 344.127 -385.965 341.817 -385.625 339.438 C-384.965 339.438 -384.305 339.438 -383.625 339.438 C-382.147 327.118 -381.039 314.801 -380.192 302.422 C-379.999 299.61 -379.797 296.798 -379.594 293.986 C-377.709 267.27 -377.709 267.27 -379.625 263.438 C-379.665 261.771 -379.669 260.104 -379.625 258.438 C-378.965 258.438 -378.305 258.438 -377.625 258.438 C-377.955 257.118 -378.285 255.798 -378.625 254.438 C-377.965 254.438 -377.305 254.438 -376.625 254.438 C-376.565 254.018 -376.565 254.018 -376.261 251.897 C-373.837 235.177 -371.056 218.754 -366.859 202.367 C-365.493 197.029 -364.462 191.971 -364.625 186.438 C-363.965 186.768 -363.305 187.097 -362.625 187.438 C-362.506 186.896 -362.387 186.354 -362.264 185.796 C-356.755 165.463 -345.933 145.973 -335.508 127.766 C-334.493 125.971 -333.495 124.162 -332.617 122.297 C-331.252 119.738 -329.466 117.681 -327.625 115.438 C-325.485 112.678 -323.369 109.901 -321.25 107.125 C-320.698 106.404 -320.147 105.683 -319.578 104.939 C-319.029 104.221 -318.48 103.502 -317.914 102.762 C-317.367 102.045 -316.819 101.329 -316.255 100.591 C-315.176 99.165 -314.107 97.73 -313.05 96.288 C-310.148 92.333 -307.183 88.837 -303.625 85.438 C-302.348 84.144 -301.075 82.846 -299.805 81.547 C-292.076 73.7 -284.384 66.143 -275.625 59.438 C-274.387 58.449 -273.15 57.46 -271.914 56.469 C-241.082 32.005 -199.383 7.606 -159.605 2.91 C-158.622 2.754 -157.638 2.598 -156.625 2.438 C-156.295 1.777 -155.965 1.117 -155.625 0.438 C-153.523 0.165 -151.419 -0.095 -149.308 -0.285 C-144.578 -0.774 -139.923 -1.697 -135.25 -2.562 C-134.266 -2.74 -133.283 -2.918 -132.27 -3.102 C-125.022 -4.43 -125.022 -4.43 -121.625 -5.562 C-116.877 -5.994 -112.115 -6.199 -107.354 -6.429 C-105.48 -6.521 -103.606 -6.618 -101.732 -6.72 C-67.467 -8.564 -33.753 -5.932 0 0 Z M-457.625 499.438 C-456.625 502.438 -456.625 502.438 -456.625 502.438 Z M-441.625 640.438 C-440.625 642.438 -440.625 642.438 -440.625 642.438 Z M-202.625 794.438 C-201.625 796.438 -201.625 796.438 -201.625 796.438 Z M-201.625 796.438 C-200.625 799.438 -200.625 799.438 -200.625 799.438 Z M-200.625 799.438 C-199.625 801.438 -199.625 801.438 -199.625 801.438 Z M44.375 888.438 C45.035 889.097 45.695 889.758 46.375 890.438 C46.375 889.778 46.375 889.117 46.375 888.438 C45.715 888.438 45.055 888.438 44.375 888.438 Z M46.375 890.438 C47.375 894.438 47.375 894.438 47.375 894.438 Z M47.375 895.438 C48.375 897.438 48.375 897.438 48.375 897.438 Z M175.375 898.438 C176.375 900.438 176.375 900.438 176.375 900.438 Z M-38.625 904.438 C-38.625 904.768 -38.625 905.097 -38.625 905.438 C-35.325 905.438 -32.025 905.438 -28.625 905.438 C-28.625 905.107 -28.625 904.778 -28.625 904.438 C-31.925 904.438 -35.225 904.438 -38.625 904.438 Z " fill="#3E1E18" transform="translate(580.625,29.5625)"/>
<path d="M0 0 C0.959 0.001 1.917 0.002 2.905 0.003 C17.066 0.033 31.079 0.219 45.125 2.188 C46.256 2.343 47.386 2.499 48.551 2.66 C104.885 10.691 157.71 31.489 199.125 71.188 C199.655 71.69 200.185 72.193 200.73 72.71 C213.226 84.616 223.305 98.044 233.125 112.188 C233.9 113.25 234.674 114.312 235.473 115.406 C235.745 115.865 235.745 115.865 237.125 118.188 C236.125 121.188 236.125 121.188 234.486 122.015 C233.788 122.226 233.09 122.436 232.371 122.652 C231.598 122.895 230.826 123.138 230.029 123.389 C229.215 123.632 228.401 123.875 227.562 124.125 C222.745 125.589 218.151 127.074 213.66 129.379 C210.125 131.188 210.125 131.188 208.125 131.188 C206.891 129.746 206.891 129.746 205.375 127.625 C193.7 112.268 178.124 94.477 158.125 91.188 C151.155 90.671 146.655 92.452 140.938 96.375 C132.891 104.421 131.876 115.032 131.852 125.941 C131.859 127.095 131.867 128.249 131.875 129.438 C131.867 130.576 131.86 131.714 131.852 132.887 C131.867 139.856 132.468 146.477 133.696 153.339 C134.098 156.008 134.203 158.494 134.125 161.188 C133.623 161.449 133.12 161.71 132.603 161.979 C104.403 176.66 104.403 176.66 93.797 184.156 C92.125 185.188 92.125 185.188 90.125 185.188 C86.283 174.917 83.167 164.98 81.125 154.188 C80.737 152.394 80.342 150.602 79.938 148.812 C79.803 148.214 79.803 148.214 79.125 145.188 C78.496 145.136 78.496 145.136 75.312 144.875 C74.605 144.817 73.897 144.759 73.168 144.699 C71.125 145.188 71.125 145.188 69.566 147.031 C67.502 151.552 66.23 156.226 64.875 161 C58.628 182.123 49.194 202.086 35.125 219.188 C34.663 219.749 34.202 220.311 33.726 220.89 C18.809 238.932 0.463 258.993 -23.875 263.188 C-34.435 264.12 -34.435 264.12 -38.227 261.664 C-38.771 261.177 -39.315 260.69 -39.875 260.188 C-39.264 256.172 -37.063 253.324 -34.812 250.062 C-26.002 236.807 -16.277 218.434 -17.875 202.188 C-19.875 200.188 -19.875 200.188 -23 200.062 C-23.949 200.104 -24.897 200.145 -25.875 200.188 C-26.161 200.731 -26.447 201.274 -26.742 201.833 C-45.833 237.857 -72.23 262.229 -111.5 274.438 C-122.742 277.776 -134.285 279.538 -145.875 281.188 C-147.133 281.385 -148.391 281.582 -149.688 281.785 C-155.799 282.522 -161.981 282.332 -168.125 282.312 C-168.758 282.314 -168.758 282.314 -171.961 282.324 C-173.175 282.323 -174.39 282.322 -175.641 282.32 C-176.191 282.32 -176.191 282.32 -178.978 282.317 C-181.459 282.206 -183.511 281.909 -185.875 281.188 C-185.365 276.98 -182.783 274.518 -180.062 271.5 C-158.062 246.203 -141.789 215.112 -131.875 183.188 C-131.737 182.748 -131.737 182.748 -131.039 180.525 C-128.313 171.684 -128.313 171.684 -128.875 167.188 C-130.875 165.188 -130.875 165.188 -134.5 165.062 C-135.614 165.104 -136.727 165.145 -137.875 165.188 C-141.533 172.322 -145.069 179.476 -148.277 186.824 C-154.309 200.6 -160.538 214.072 -168.25 227 C-168.879 228.059 -169.508 229.117 -170.156 230.208 C-181.052 248.073 -196.187 270.396 -213.875 282.188 C-216.183 284.496 -216.239 285.161 -216.375 288.312 C-216.21 289.591 -216.045 290.87 -215.875 292.188 C-212.43 294.484 -209.937 294.728 -205.875 295.188 C-206.361 299.273 -206.881 303.337 -207.559 307.395 C-209.409 318.594 -210.492 329.746 -211.228 341.073 C-211.3 342.171 -211.372 343.268 -211.445 344.398 C-211.505 345.371 -211.564 346.343 -211.625 347.345 C-211.887 350.33 -212.346 353.24 -212.875 356.188 C-223.833 346.106 -230.627 327.867 -231.875 313.188 C-231.973 309.202 -231.92 305.221 -231.867 301.234 C-231.85 298.901 -231.833 296.568 -231.816 294.234 C-231.785 290.571 -231.75 286.909 -231.704 283.246 C-231.661 279.7 -231.638 276.155 -231.617 272.609 C-231.599 271.509 -231.58 270.409 -231.561 269.276 C-231.557 268.258 -231.554 267.24 -231.55 266.19 C-231.541 265.294 -231.531 264.398 -231.521 263.475 C-231.875 261.187 -231.875 261.187 -233.208 259.379 C-234.875 258.188 -234.875 258.188 -237.875 258.125 C-240.875 259.188 -240.875 259.188 -242.461 261.789 C-243.954 265.378 -244.863 268.812 -245.5 272.625 C-245.634 273.369 -245.768 274.114 -245.907 274.88 C-246.754 280.273 -246.921 285.532 -246.828 290.98 C-246.819 292.366 -246.81 293.751 -246.802 295.137 C-246.784 297.89 -246.679 300.624 -246.53 303.373 C-246.491 307.355 -246.598 310.408 -247.875 314.188 C-251.856 317.826 -256.031 319.823 -260.875 322.188 C-266.735 326.759 -270.549 332.602 -273.875 339.188 C-274.291 340.001 -274.708 340.814 -275.137 341.652 C-281.304 356.389 -279.368 376.465 -273.875 391.188 C-266.653 407.839 -255.288 419.768 -238.75 427.125 C-226.876 431.603 -215.388 431.421 -202.875 431.188 C-202.619 431.7 -202.363 432.213 -202.1 432.741 C-196.801 443.284 -191.482 453.107 -183.875 462.188 C-183.18 463.033 -182.485 463.879 -181.77 464.75 C-166.387 482.683 -144.385 497.074 -121.875 504.188 C-124.455 505.907 -126.747 507.017 -129.562 508.25 C-136.551 511.724 -141.897 517.058 -144.812 524.375 C-145.727 527.656 -146.453 530.81 -146.875 534.188 C-147.19 534.261 -147.19 534.261 -148.781 534.633 C-157.724 536.976 -163.423 540.407 -168.312 548.375 C-171.884 554.71 -172.581 559.974 -171.875 567.188 C-170.847 570.686 -169.473 573.915 -167.875 577.188 C-167.584 577.9 -167.292 578.613 -166.992 579.348 C-165.583 581.669 -164.348 582.132 -161.875 583.188 C-160.449 584.046 -159.032 584.922 -157.625 585.812 C-157.272 586.036 -157.272 586.036 -155.484 587.164 C-154.953 587.502 -154.422 587.84 -153.875 588.188 C-155.57 598.081 -165.738 606.676 -172.478 613.723 C-173.806 615.115 -175.116 616.524 -176.426 617.934 C-184.963 626.859 -194.788 634.086 -204.789 641.285 C-210.687 645.615 -214.539 650.18 -216.875 657.188 C-218.036 674.295 -218.036 674.295 -212.875 681.188 C-212.49 681.737 -212.104 682.286 -211.707 682.852 C-208.887 686.557 -205.749 688.755 -201.875 691.188 C-201.875 691.518 -201.875 691.847 -201.875 692.188 C-221.443 693.437 -238.152 688.818 -253.125 675.75 C-254.723 674.244 -256.308 672.725 -257.875 671.188 C-258.441 670.646 -259.007 670.105 -259.59 669.547 C-271.476 657.062 -273.997 639.96 -274.664 623.488 C-274.875 620.188 -274.875 620.188 -275.875 617.188 C-281.091 616.666 -281.091 616.666 -283.875 617.188 C-290.062 624.168 -289.385 632.318 -288.875 641.188 C-287.668 649.101 -285.597 656.67 -282.875 664.188 C-299.646 665.443 -316.95 658.856 -329.789 648.117 C-339.031 639.567 -347.28 629.485 -348.113 616.465 C-348.486 602.185 -345.38 593.427 -336.348 582.266 C-327.163 570.832 -323.654 561.938 -324.629 547.357 C-326.049 534.815 -335.523 524.685 -343.812 515.875 C-358.756 499.719 -364.548 483.802 -364.215 461.883 C-363.175 435.926 -344.986 414.943 -327.875 397.188 C-308.354 376.853 -295.044 355.131 -289.062 327.375 C-288.868 326.489 -288.673 325.603 -288.472 324.69 C-285.333 308.986 -284.787 292.73 -283.837 276.777 C-279.85 209.918 -265.096 143.178 -218.184 92.68 C-216.156 90.49 -214.193 88.265 -212.25 86 C-206.303 79.175 -199.798 73.009 -192.875 67.188 C-192.355 66.743 -191.835 66.299 -191.299 65.841 C-160.062 39.235 -124.192 21.519 -84.875 10.188 C-84.152 9.975 -83.429 9.763 -82.685 9.545 C-72.2 6.543 -61.391 5.102 -50.625 3.5 C-49.895 3.391 -49.165 3.282 -48.413 3.17 C-32.231 0.777 -16.342 -0.021 0 0 Z " fill="#BE6140" transform="translate(503.875,41.8125)"/>
<path d="M0 0 C1.683 2.525 2.597 4.366 3.586 7.168 C3.877 7.979 4.169 8.791 4.469 9.627 C5.066 11.314 5.662 13.002 6.258 14.689 C11.302 28.728 11.302 28.728 16.125 33.562 C19.469 37.184 22.046 41.05 24.688 45.188 C28.958 51.807 33.805 57.477 39.262 63.141 C41.453 65.429 43.491 67.743 45.5 70.188 C52.81 78.574 61.567 84.7 71.285 89.918 C74.72 92.552 75.583 94.959 77 99 C79.75 105.95 83.803 110.728 90 115 C97.245 117.98 105.021 118.488 112.406 115.727 C116.455 113.712 120.239 111.507 124 109 C131.492 156.219 131.281 219.769 102.844 260.055 C78.094 291.709 35.567 306.474 -3 312 C-5.963 312.356 -8.93 312.677 -11.898 312.992 C-12.685 313.077 -13.471 313.161 -14.282 313.248 C-18.259 313.671 -22.236 314.069 -26.219 314.43 C-27.698 314.578 -29.177 314.726 -30.656 314.875 C-31.338 314.929 -32.019 314.983 -32.721 315.039 C-35.971 315.381 -37.842 315.879 -40.463 317.879 C-42 320 -42 320 -41.938 323.062 C-40.963 326.115 -40.553 327.165 -38 329 C-35.239 329.166 -35.239 329.166 -31.883 328.906 C-30.645 328.84 -29.407 328.773 -28.132 328.704 C-27.477 328.669 -26.822 328.634 -26.148 328.597 C-11.597 327.899 1.531 330.106 13 340 C13.33 340.99 13.66 341.98 14 343 C13.348 343.231 12.695 343.461 12.023 343.699 C1.839 347.5 -2.84 352.577 -8 362 C-9.196 361.67 -10.392 361.34 -11.625 361 C-21.087 358.959 -30.412 358.501 -38.949 363.531 C-44.1 367.22 -45.955 370.736 -47.562 376.688 C-48.512 379.574 -48.512 379.574 -50 382 C-53.035 383.423 -55.768 383.983 -59.07 384.52 C-62.582 385.095 -64.959 386.226 -68 388 C-68.508 387.59 -69.016 387.18 -69.539 386.758 C-76.18 381.559 -81.695 379.859 -90 379 C-90.248 377.804 -90.495 376.608 -90.75 375.375 C-92.5 368.483 -96.241 364.098 -102 360 C-107.722 356.917 -113.576 356.067 -120 357 C-122.447 357.85 -124.69 358.842 -126.992 360.027 C-128.987 360.994 -130.839 361.54 -133 362 C-133.134 361.752 -133.134 361.752 -133.812 360.496 C-139.433 350.753 -145.593 346.574 -156.438 343.629 C-157.283 343.421 -158.129 343.214 -159 343 C-157.581 338.744 -154.459 337.616 -150.75 335.5 C-150.081 335.109 -149.412 334.719 -148.723 334.316 C-147.411 333.551 -146.095 332.793 -144.774 332.044 C-143 331 -143 331 -140.477 329.203 C-137.005 327.517 -134.445 327.899 -130.625 328.25 C-129.931 328.306 -129.237 328.362 -128.522 328.419 C-125.636 328.653 -122.754 328.927 -119.873 329.207 C-117.854 329.4 -115.833 329.576 -113.812 329.75 C-112.623 329.869 -111.433 329.987 -110.207 330.109 C-106.521 329.984 -104.82 329.356 -102 327 C-101.336 325.062 -101.336 325.062 -101.375 323 C-101.362 322.319 -101.349 321.639 -101.336 320.938 C-102 319 -102 319 -103.832 317.34 C-108.542 315.348 -113.252 315.054 -118.312 314.562 C-164.526 309.495 -215.21 299.114 -246.325 261.394 C-266.024 236.241 -269.788 204.434 -269.5 173.5 C-269.496 172.374 -269.492 171.247 -269.487 170.087 C-269.395 149.069 -268.237 128.439 -263 108 C-262.454 108.008 -262.454 108.008 -259.693 108.048 C-217.839 108.596 -217.839 108.596 -200 105 C-199.492 104.898 -199.492 104.898 -196.923 104.382 C-173.698 99.554 -150.785 91.951 -132 77 C-131.34 77 -130.68 77 -130 77 C-129.124 78.027 -128.299 79.099 -127.5 80.188 C-122.809 85.869 -116.213 88.882 -109 90 C-88.276 91.928 -69.587 81.426 -53.812 69.125 C-30.714 49.837 -13.323 27.012 0 0 Z " fill="#FBDABB" transform="translate(577,231)"/>
<path d="M0 0 C7.173 0.573 13.576 2.577 20.375 4.875 C21.552 5.271 22.728 5.666 23.941 6.074 C42.166 12.33 60.012 19.886 77 29 C77.597 29.315 78.193 29.63 78.808 29.955 C89.49 35.631 99.135 42.368 107.938 50.688 C111 53 111 53 113.836 52.914 C117.625 51.819 119.666 50.217 122.688 47.688 C147.356 27.937 176.394 16.185 206 6 C207.362 5.515 208.723 5.029 210.084 4.543 C211.436 4.07 212.788 3.597 214.141 3.125 C215.358 2.694 216.575 2.264 217.829 1.82 C220.839 1.042 222.17 0.86 225 2 C225.631 4.415 226.255 6.832 226.875 9.25 C227.049 9.913 227.223 10.575 227.402 11.258 C230.361 22.873 231.344 34.103 231.25 46.062 C231.246 46.792 231.242 47.521 231.239 48.272 C231.109 69.693 227.775 88.819 222.332 109.543 C219.177 121.557 216.145 133.95 221.676 145.75 C225.539 152.314 230.462 157.878 238 160 C241.824 160 243.969 159.782 247.027 157.461 C249.714 154.11 250.617 150.705 251.812 146.625 C255.79 133.998 260.998 122.893 270 113 C270.812 112.095 271.624 111.19 272.461 110.258 C289.073 92.671 311.871 83.78 335.895 82.893 C338.952 82.831 342.005 82.814 345.062 82.812 C346.087 82.8 347.111 82.788 348.166 82.775 C354.431 82.763 359.938 83.404 366 85 C364.86 87.333 363.682 89.508 362.301 91.715 C356.44 101.214 353.104 110.982 349.769 121.593 C344.498 138.101 336.947 153.107 320.971 161.411 C317.681 163.022 314.358 164.538 311 166 C310.025 166.432 309.051 166.864 308.047 167.309 C307.248 167.661 306.448 168.012 305.625 168.375 C302 170 302 170 300 172 C299.375 174.312 299.375 174.312 300 177 C303.639 179.748 307.366 181.686 311.449 183.707 C328.289 192.131 338.903 203.381 346 221 C347.628 226.171 348.922 231.424 350.229 236.684 C352.802 246.481 357.197 254.742 363 263 C337.695 270.818 311.439 267.365 288 255.188 C281.499 251.66 276.198 247.229 271 242 C270.113 241.196 269.226 240.391 268.312 239.562 C256.251 226.197 251.138 210.765 249.822 193.105 C249.326 187.399 249.326 187.399 247.6 185.286 C246 184 246 184 243.77 183.586 C239.993 184.151 236.999 185.828 233.688 187.625 C222.14 193.597 210.676 197.808 198 200.75 C197.574 200.849 197.574 200.849 195.416 201.352 C180.838 204.542 166.431 205.413 151.562 205.375 C151.125 205.374 151.125 205.374 148.912 205.371 C104.721 205.206 64.515 190.966 32.987 159.424 C21.923 147.918 13.348 134.601 7 120 C6.694 119.31 6.387 118.62 6.072 117.909 C0.699 105.637 -2.435 93.121 -5 80 C-5.248 78.814 -5.495 77.628 -5.75 76.406 C-10.287 50.951 -6.206 24.75 0 0 Z " fill="#62B9A0" transform="translate(393,711)"/>
<path d="M0 0 C6.727 1.193 13.13 2.881 19.629 5 C27.355 7.292 34.43 8.342 42.5 8.312 C43.386 8.329 44.271 8.345 45.184 8.361 C51.304 8.366 56.328 7.288 62 5 C62.032 5.507 62.032 5.507 62.196 8.076 C64.654 45.817 67.803 84.384 94 114 C94.744 114.852 95.488 115.704 96.254 116.582 C101.696 122.723 107.242 128.684 113.5 134 C132.529 150.553 153.144 172.485 155.155 199.051 C156.29 220.464 149.943 236.9 136 253 C114.513 278.725 114.513 278.725 114.723 296.031 C115.757 307.108 122.201 315.642 129.062 323.938 C137.938 334.854 139.981 345.176 139 359 C136.046 372.846 126.939 383.81 115.523 391.715 C101.984 400.161 89.016 404.687 73 404 C73.277 402.975 73.554 401.95 73.84 400.895 C74.206 399.534 74.572 398.173 74.938 396.812 C75.12 396.139 75.302 395.465 75.49 394.771 C78.314 384.248 79.697 373.506 76 363 C74.75 361 74.75 361 73 360 C69.938 359.688 69.938 359.688 67 360 C64.647 362.353 64.641 363.183 64.254 366.402 C64.141 367.288 64.027 368.173 63.911 369.085 C63.796 370.026 63.681 370.968 63.562 371.938 C61.426 387.928 57.687 400.567 47 413 C46.501 413.606 46.002 414.212 45.488 414.836 C36.276 425.093 19.389 433.052 5.706 434.191 C3.3 434.267 0.906 434.273 -1.5 434.25 C-2.303 434.258 -3.106 434.265 -3.934 434.273 C-9.273 434.256 -13.87 433.483 -19 432 C-16.711 430.08 -14.454 428.267 -11.875 426.75 C-4.686 422.476 -0.647 416.942 2 409 C2.729 401.149 2.317 393.784 -2 387 C-6.413 381.915 -11.43 378.095 -17 374.375 C-31.807 364.192 -53.493 349.165 -59.809 331.773 C-60.062 329.75 -60.062 329.75 -59 326 C-56.904 324.05 -54.689 322.478 -52.332 320.855 C-47.316 316.864 -44.985 311.212 -44 305 C-43.037 296.491 -45.559 289.805 -50.125 282.688 C-55.766 277.414 -62.309 274.502 -70 274 C-70.073 273.613 -70.073 273.613 -70.445 271.656 C-72.398 262.589 -75.137 256.284 -83.062 251.125 C-87.978 248.346 -92.381 246.784 -98 246 C-95.888 243.888 -94.516 243.27 -91.773 242.188 C-57.659 228.373 -31.699 206.612 -16 173 C-15.67 172.34 -15.34 171.68 -15 171 C-13.875 171.046 -12.749 171.093 -11.59 171.141 C6.226 171.652 22.728 168.006 36.312 155.75 C44.828 147.695 50.118 139.021 54 128 C54.321 127.135 54.642 126.27 54.973 125.379 C59.192 111.857 59.275 93.805 53 81 C52.788 80.531 52.788 80.531 51.715 78.16 C47.331 69.259 41.524 62.566 32.5 58.312 C29.965 56.93 29.965 56.93 28 55 C27.174 51.339 27.058 48.087 27.16 44.34 C26.982 40.625 26.255 38.917 24 36 C21.562 34.938 21.562 34.938 19 35 C16.582 36.664 15.247 38.097 14.463 40.963 C14.066 43.409 13.77 45.85 13.5 48.312 C11.538 63.126 8.18 76.318 0 89 C-0.99 89.66 -1.98 90.32 -3 91 C-3.05 89.878 -3.1 88.757 -3.152 87.601 C-4.924 48.247 -4.924 48.247 -6.535 31.566 C-6.605 30.814 -6.675 30.061 -6.747 29.285 C-6.924 27.688 -7.152 26.096 -7.419 24.512 C-8.432 17.843 -7.22 13.762 -4.062 7.875 C-3.676 7.109 -3.29 6.344 -2.893 5.555 C-1.95 3.692 -0.978 1.844 0 0 Z " fill="#BE603F" transform="translate(723,302)"/>
<path d="M0 0 C17.473 3.151 32.39 25.563 42.695 38.949 C44.812 41.687 44.812 41.687 45.812 42.688 C50.871 43.177 54.422 41.787 58.875 39.625 C65.454 36.584 72.119 34.086 79 31.812 C79.897 31.515 80.793 31.217 81.717 30.91 C88.02 28.856 93.703 27.53 100.375 27.438 C101.49 27.412 102.605 27.386 103.754 27.359 C107.151 27.724 108.517 28.172 110.812 30.688 C114.273 44.385 103.515 60.299 96.812 71.688 C94.772 74.857 92.69 78.001 90.468 81.047 C88.554 83.811 87.81 85.428 87.844 88.824 C88.929 92.031 90.038 93.449 92.438 95.812 C118.178 123.12 118.178 123.12 120.137 138.18 C119.938 141.284 119.041 143.379 117.203 145.863 C113.995 148.311 111.258 148.331 107.375 148.25 C106.638 148.241 105.901 148.232 105.141 148.223 C91.425 147.74 77.896 143.422 65.137 138.605 C61.153 137.505 57.931 137.53 53.812 137.688 C53.496 138.275 53.18 138.863 52.854 139.469 C30.396 181.122 30.396 181.122 21.812 184.688 C18.296 185.136 16.369 184.966 13.188 183.375 C2.75 171.564 3.332 149.896 2.634 135.096 C2.569 133.923 2.504 132.751 2.438 131.543 C2.389 130.487 2.34 129.432 2.289 128.344 C1.812 125.688 1.812 125.688 0.639 123.911 C-1.852 122.242 -4.101 121.826 -7.043 121.258 C-7.629 121.14 -7.629 121.14 -10.597 120.544 C-11.844 120.303 -13.09 120.061 -14.375 119.812 C-51.007 112.34 -51.007 112.34 -57.188 103.688 C-58.375 100.438 -58.375 100.438 -58.188 96.688 C-50.563 82.319 -26.826 73.634 -12.326 68.717 C-9.814 67.851 -7.501 66.994 -5.188 65.688 C-2.863 60.761 -4.908 54.958 -6.062 49.812 C-9.279 35.019 -12.92 16.515 -5.5 2.5 C-3.188 0.688 -3.188 0.688 0 0 Z " fill="#FBCB5D" transform="translate(660.1875,148.3125)"/>
<path d="M0 0 C1.606 0.283 3.21 0.577 4.812 0.875 C5.259 0.956 5.259 0.956 7.52 1.367 C10 2 10 2 13 4 C13.371 7.125 13.371 7.125 13.438 11 C13.785 19.302 14.964 26.554 21.25 32.438 C26.818 36.619 32.584 38.577 39.559 38.371 C43.458 37.778 46.981 36.367 50.617 34.875 C54.324 33.514 55.841 33.932 59.5 35.5 C66.389 38.137 73.31 37.873 80.25 35.5 C86.335 32.768 90.591 28.393 93.148 22.234 C94.124 18.529 94.448 14.934 94.625 11.125 C94.664 10.437 94.702 9.748 94.742 9.039 C94.835 7.36 94.919 5.68 95 4 C99.398 1.877 99.398 1.877 101.984 2.406 C104.199 3.778 105.506 4.838 107 7 C107.594 10.497 107.692 13.87 107.781 17.414 C108.166 23.726 110.021 29.608 114.812 33.938 C121.854 38.494 127.685 40.069 136 39 C139.477 37.932 142.706 36.53 146 35 C149 34 149 34 152.438 35.438 C159.539 38.252 167.135 37.958 174.312 35.5 C180.396 32.737 184.583 28.319 187.199 22.191 C188.388 17.456 187.886 12.983 187.582 8.145 C188 5 188 5 190.262 3.074 C193 2 193 2 197 2 C198.285 7.232 199.566 12.465 200.845 17.698 C201.281 19.479 201.717 21.26 202.155 23.041 C202.782 25.597 203.407 28.154 204.031 30.711 C204.13 31.11 204.13 31.11 204.628 33.132 C206 38.772 206 38.772 206 41 C205.368 41.195 204.737 41.39 204.086 41.592 C170.206 52.115 134.679 63.637 106.55 86.041 C104.1 87.914 102.556 88.998 99.422 89.008 C96.485 87.786 94.455 86.215 92 84.188 C67.15 64.74 36.601 54.794 6.962 45.278 C1.627 43.563 -3.688 41.786 -9 40 C-7.673 31.364 -5.93 22.88 -3.938 14.375 C-3.803 13.79 -3.803 13.79 -3.123 10.832 C-1.133 2.266 -1.133 2.266 0 0 Z " fill="#FADABC" transform="translate(407,656)"/>
<path d="M0 0 C3.217 2.472 6.158 5.107 9 8 C9.447 7.578 9.895 7.157 10.355 6.723 C13.01 4.317 15.314 2.294 18.625 0.875 C21 1 21 1 23.875 2.5 C26 5 26 5 26.062 8.375 C24.777 12.762 23.04 16.49 19.285 19.27 C18 21 18 21 18.363 23.934 C18.677 25.09 18.99 26.246 19.312 27.438 C22.537 40.962 22.02 56.621 15 69 C7.496 78.975 -0.498 85.958 -13 88 C-23.19 89.215 -31.336 86.92 -39.766 81.086 C-46.29 75.714 -49.933 69.815 -53 62 C-53.17 61.575 -53.17 61.575 -54.027 59.422 C-58.731 45.29 -56.931 28.564 -50.438 15.375 C-45.063 6.16 -37.488 -1.404 -27.148 -4.566 C-17.398 -6.534 -8.539 -4.993 0 0 Z " fill="#3E1F18" transform="translate(628,368)"/>
<path d="M0 0 C10.36 7.103 16.415 18.243 19.59 30.227 C21.938 46.106 20.02 61.637 10.66 74.898 C4.635 82.542 -3.452 87.255 -13 89 C-23.973 90.049 -33.785 87.161 -42.562 80.5 C-50.517 73.274 -55.507 62.245 -56.144 51.6 C-56.483 42.393 -56.469 33.91 -54 25 C-54.089 21.191 -54.771 20.241 -57.438 17.438 C-58.283 16.633 -59.129 15.829 -60 15 C-62.232 11.705 -62.419 8.939 -62 5 C-60.875 3.125 -60.875 3.125 -59 2 C-56.312 1.375 -56.312 1.375 -53 2 C-50.098 4.102 -47.538 6.475 -45 9 C-44.322 8.397 -43.644 7.793 -42.945 7.172 C-30.091 -3.866 -15.913 -8.574 0 0 Z " fill="#3E1F18" transform="translate(416,367)"/>
<path d="M0 0 C6.04 2.25 8.684 5.562 11.688 11.125 C13.622 15.866 13.735 20.939 14 26 C15.074 26.026 16.148 26.052 17.254 26.078 C31.876 26.591 31.876 26.591 37 31 C39.527 34.475 40.229 36.988 39.875 41.188 C38.832 45.732 38.832 45.732 36 48 C34.416 48.772 32.809 49.498 31.188 50.188 C24.491 53.492 21.315 57.417 18.75 64.406 C17.754 67.589 16.836 70.772 16 74 C10.266 72.141 10.266 72.141 7.875 70.875 C6 70 6 70 2 70 C1.853 70.675 1.706 71.351 1.555 72.047 C0.462 76.391 -0.369 79.337 -3.5 82.625 C-8.412 84.555 -12.791 84.786 -18 84 C-21.252 82.208 -22.503 80.876 -24.312 77.688 C-26.1 70.701 -24.4 63.915 -23 57 C-23.393 56.89 -23.393 56.89 -25.379 56.336 C-32.041 54.325 -37.324 52.296 -42 47 C-43.555 43.89 -43.286 41.437 -43 38 C-40.969 33.775 -38.82 31.194 -34.348 29.523 C-28.994 28.33 -23.465 28.22 -18 28 C-17.963 26.842 -17.925 25.685 -17.887 24.492 C-17.821 22.953 -17.755 21.414 -17.688 19.875 C-17.665 19.114 -17.642 18.354 -17.619 17.57 C-17.388 12.704 -16.641 9.23 -14 5 C-9.203 0.671 -6.498 -0.433 0 0 Z " fill="#FC9B8B" transform="translate(390,562)"/>
<path d="M0 0 C4.82 2.507 7.434 5.239 10 10 C10.457 12.982 10.383 15.867 10.25 18.875 C10.232 19.659 10.214 20.442 10.195 21.25 C10.149 23.167 10.077 25.084 10 27 C11.013 26.965 12.026 26.93 13.07 26.895 C14.422 26.866 15.773 26.839 17.125 26.812 C17.79 26.787 18.455 26.762 19.141 26.736 C23.881 26.667 26.974 27.527 31 30 C34.798 33.695 35.907 36.706 36 42 C34.017 47.617 30.988 50.544 25.676 53.133 C23.464 54.126 21.243 55.081 19 56 C19.899 62.553 19.899 62.553 20.562 65.5 C21.415 70.373 21.632 73.782 19.312 78.25 C16.186 81.968 13.901 83.717 9.062 84.438 C4.062 83.723 1.114 81.207 -2.25 77.562 C-3.937 75.092 -5.033 72.822 -6 70 C-8.606 70.483 -10.27 71.164 -12.562 72.562 C-15 74 -15 74 -18 74 C-18.231 73.131 -18.461 72.262 -18.699 71.367 C-20.921 63.516 -22.607 58.294 -29.25 53.312 C-31.723 52.132 -34.006 51.392 -36.625 50.625 C-39.549 49.667 -40.849 49.151 -43.062 46.938 C-44.901 41.178 -44.993 36.023 -42.312 30.562 C-38.939 26.824 -36.049 24.924 -31.012 24.488 C-29.571 24.416 -28.129 24.358 -26.688 24.312 C-25.947 24.278 -25.206 24.244 -24.443 24.209 C-22.629 24.127 -20.815 24.062 -19 24 C-18.945 23.566 -18.945 23.566 -18.668 21.367 C-16.768 7.561 -16.768 7.561 -11.5 2.688 C-7.629 0.075 -4.604 -0.451 0 0 Z " fill="#FCCF5C" transform="translate(628,563)"/>
<path d="M0 0 C5.042 3.044 6.758 5.855 8.457 11.426 C9.197 14.933 9.591 18.439 10 22 C11.158 21.942 12.315 21.884 13.508 21.824 C15.047 21.777 16.586 21.732 18.125 21.688 C18.886 21.646 19.646 21.604 20.43 21.561 C24.596 21.471 27.195 21.711 30.492 24.395 C33.529 27.55 34.175 29.002 34.312 33.25 C34.222 37.967 33.294 40.465 30 44 C22.553 49 22.553 49 19 49 C19.217 49.713 19.433 50.426 19.656 51.16 C23.477 64.301 23.477 64.301 20.188 70.312 C18 73 18 73 15 75 C10.337 75.459 8.003 75.511 3.812 73.375 C0.743 70.783 -1.548 68.173 -4 65 C-7.439 66.146 -8.159 67.165 -10.375 69.938 C-13.827 73.991 -16.213 75.582 -21.5 76.375 C-24.906 75.864 -26.53 74.333 -29 72 C-32.241 65.519 -28.985 57.427 -27 51 C-27.736 50.636 -28.472 50.273 -29.23 49.898 C-40.023 44.338 -40.023 44.338 -43 39 C-43.904 33.971 -43.562 30.188 -41.375 25.562 C-38.518 22.48 -37.064 21.212 -33 20 C-28.63 20.063 -24.336 20.466 -20 21 C-19.853 20.071 -19.706 19.141 -19.555 18.184 C-17.093 4.618 -17.093 4.618 -11 0 C-7.118 -1.294 -3.89 -1.046 0 0 Z " fill="#FCCF5D" transform="translate(466,603)"/>
<path d="M0 0 C4.662 3.751 6.95 8.118 8 14 C8.025 16.333 8.028 18.667 8 21 C9.158 20.893 10.315 20.786 11.508 20.676 C13.047 20.554 14.586 20.433 16.125 20.312 C16.886 20.24 17.646 20.167 18.43 20.092 C23.453 19.724 26.674 20.092 31 23 C33.974 25.981 34.454 28.278 34.5 32.438 C34.37 36.202 34.189 37.704 32.125 40.938 C27.984 43.67 23.672 45.376 19 47 C19.217 47.701 19.433 48.403 19.656 49.125 C23.505 62.238 23.505 62.238 20.875 68.812 C18.45 71.642 16.526 72.779 13 74 C7.94 74.187 5.435 72.795 1.75 69.562 C1.105 68.945 0.461 68.328 -0.203 67.691 C-2 66 -2 66 -5 64 C-5.557 64.908 -6.114 65.815 -6.688 66.75 C-9.587 70.825 -13.146 74.43 -18 76 C-22.081 75.926 -24.457 75.335 -27.938 73.188 C-31.12 68.268 -30.676 63.697 -30 58 C-29.216 54.574 -28.224 51.293 -27 48 C-28.196 47.918 -29.393 47.835 -30.625 47.75 C-36.338 47.013 -39.673 44.571 -43.375 40.188 C-45.337 36.338 -45.686 34.266 -45 30 C-42.935 26.557 -40.342 24.228 -37 22 C-35.007 21.773 -35.007 21.773 -32.77 21.805 C-31.967 21.811 -31.165 21.818 -30.338 21.824 C-29.505 21.841 -28.671 21.858 -27.812 21.875 C-27.39 21.88 -27.39 21.88 -25.252 21.902 C-23.168 21.926 -21.084 21.962 -19 22 C-19.017 21.68 -19.017 21.68 -19.105 20.059 C-19.285 14.313 -18.993 10.088 -16 5 C-11.114 -0.14 -6.977 -1.892 0 0 Z " fill="#FB9B8B" transform="translate(559,606)"/>
<path d="M0 0 C0.242 0.199 0.242 0.199 1.469 1.207 C9.234 7.345 15.988 10.121 26 9 C28.689 8.4 31.337 7.708 34 7 C33.074 11.357 32.132 15.71 31.188 20.062 C30.926 21.292 30.665 22.521 30.396 23.787 C27.938 35.048 25.287 41.401 16.938 49.5 C16.17 50.252 15.403 51.005 14.613 51.78 C2.728 63.271 -10.578 71.919 -27.5 72.25 C-36.265 72.078 -42.946 70.396 -50 65 C-52.904 61.815 -53.83 59.085 -54.5 54.812 C-53.652 48.343 -49.474 44.927 -44.473 41.031 C-42.625 39.695 -40.766 38.374 -38.898 37.066 C-28.784 29.856 -18.88 21.661 -10.84 12.164 C-8.629 9.564 -6.349 7.033 -4.062 4.5 C-3.676 4.072 -3.676 4.072 -1.723 1.906 C-1.154 1.277 -0.586 0.648 0 0 Z " fill="#FBDABC" transform="translate(356,652)"/>
<path d="M0 0 C3.985 1.581 6.493 4.389 9.375 7.438 C15.234 13.461 21.544 18.608 28.239 23.667 C30 25 31.749 26.347 33.496 27.699 C38.144 31.295 42.803 34.864 47.562 38.312 C51.763 41.491 54.58 43.975 55.688 49.312 C54.695 54.636 52.025 57.495 48 61 C39.968 66.413 30.521 67.996 21 67 C6.723 63.939 -5.111 56.496 -16 47 C-16.888 46.274 -17.776 45.547 -18.691 44.799 C-27.121 37.312 -29.488 30.295 -31.688 19.438 C-32.019 17.962 -32.354 16.487 -32.693 15.014 C-35 4.82 -35 4.82 -35 2 C-34.577 2.144 -34.577 2.144 -32.438 2.875 C-31.303 3.246 -30.169 3.617 -29 4 C-27.948 4.371 -26.896 4.742 -25.812 5.125 C-17.136 7.116 -9.714 6.645 -2 2 C-1.34 1.34 -0.68 0.68 0 0 Z " fill="#FADABC" transform="translate(655,655)"/>
<path d="M0 0 C0.364 1.027 0.727 2.055 1.102 3.113 C7.35 20.47 16.151 38.434 32 49 C32.401 50.809 32.401 50.809 32.441 53.008 C32.467 53.823 32.492 54.638 32.518 55.478 C32.533 56.351 32.547 57.225 32.562 58.125 C32.851 67.194 33.708 76.019 35 85 C21.396 85.734 9.788 83.721 -1 75 C-3.687 72.562 -3.687 72.562 -6 70 C-6.481 69.523 -6.962 69.046 -7.457 68.555 C-16.61 58.961 -19.429 45.351 -19.364 32.514 C-19.073 20.624 -14.793 11.591 -6.285 3.336 C-2.474 0 -2.474 0 0 0 Z " fill="#FADABC" transform="translate(260,372)"/>
<path d="M0 0 C1.363 0.96 2.699 1.958 4 3 C5.134 3.454 6.269 3.908 7.438 4.375 C12.977 6.902 16.244 10.626 19 16 C21.007 22.741 20.845 28.962 17.75 35.312 C13.473 42.907 8.882 47.162 1 51 C-9.065 53.769 -20.823 52.971 -30 48 C-36.133 44.001 -40.333 39.218 -42 32 C-42.861 24.382 -43.428 16.957 -38.547 10.637 C-27.638 -0.906 -15.439 -4.483 0 0 Z " fill="#FD9F8F" transform="translate(371,446)"/>
<path d="M0 0 C7.187 4.221 11.489 9.283 14.148 17.262 C15.056 25.776 13.947 32.123 9.148 39.262 C6.648 42.137 6.648 42.137 4.148 44.262 C3.385 44.984 2.622 45.705 1.836 46.449 C-5.865 51.643 -15.922 50.978 -24.852 50.262 C-32.515 48.446 -38.973 43.356 -43.461 36.973 C-46.919 30.853 -47.985 25.219 -46.852 18.262 C-44.427 10.915 -39.878 6.707 -33.414 2.637 C-32.487 2.046 -31.56 1.456 -30.605 0.848 C-21.332 -4.493 -9.693 -4.589 0 0 Z " fill="#FD9E8E" transform="translate(663.8515625,447.73828125)"/>
<path d="M0 0 C6.775 2.262 11.123 7.375 14.367 13.641 C19.887 27.099 19.096 40.478 14 54 C8.445 67.209 -0.832 75.628 -14 81 C-20.274 83.465 -26.355 83.196 -33 83 C-32.938 82.357 -32.876 81.714 -32.812 81.051 C-32.329 75.91 -31.923 70.78 -31.633 65.625 C-30.254 45.702 -30.254 45.702 -23.938 39.812 C-22.962 39.038 -21.986 38.263 -20.98 37.465 C-9.952 28.345 -4.399 13.197 0 0 Z " fill="#FADABC" transform="translate(747,374)"/>
<path d="M0 0 C4.347 0.942 4.696 1.602 7.188 5.062 C7.681 5.851 8.175 6.64 8.684 7.453 C12.558 11.877 17.347 13.938 23.188 14.344 C24.708 14.354 26.229 14.344 27.75 14.312 C28.505 14.328 29.261 14.343 30.039 14.359 C35.153 14.324 38.689 13.217 43.121 10.67 C44.75 9.812 44.75 9.812 46.75 9.812 C46.997 9.256 47.245 8.699 47.5 8.125 C49.029 5.297 50.467 3.095 52.75 0.812 C55.987 0.284 57.792 0.238 60.625 1.938 C62.321 4.765 62.196 6.563 61.75 9.812 C57.664 17.229 51.105 23.864 43.055 26.793 C30.37 30.32 18.134 29.866 6.363 23.527 C0.644 19.617 -4.12 13.93 -5.973 7.18 C-6.25 4.812 -6.25 4.812 -5.25 2.5 C-3.25 0.812 -3.25 0.812 0 0 Z " fill="#3B1E17" transform="translate(476.25,451.1875)"/>
<path d="M0 0 C3.157 1.607 5.194 2.974 7.375 5.75 C8.8 10.878 8.681 14.613 6.375 19.312 C3.665 22.379 1.893 23.727 -2 25 C-6.292 25.202 -9.232 24.484 -12.875 22.188 C-16.279 18.683 -16.919 17.019 -17.312 12.062 C-17.2 8.282 -16.464 5.974 -14 3 C-9.791 -0.59 -5.299 -0.849 0 0 Z " fill="#FDCF5A" transform="translate(394,595)"/>
<path d="M0 0 C3.008 2.809 4.871 5.041 5.438 9.25 C5 12 5 12 3 14 C-3.005 13.885 -5.619 11.905 -10 8 C-15.347 5.08 -21.383 5.614 -27.314 5.521 C-28.143 5.495 -28.971 5.469 -29.824 5.441 C-30.578 5.428 -31.332 5.414 -32.108 5.401 C-34 5 -34 5 -36 2 C-35.938 -0.5 -35.938 -0.5 -35 -3 C-24.832 -10.908 -9.379 -7.46 0 0 Z " fill="#361A14" transform="translate(617,302)"/>
<path d="M0 0 C3.803 2.005 5.618 3.427 8 7 C8.457 12.576 8.222 16.223 5 21 C1.585 23.927 -1.509 24.529 -6.004 24.359 C-9.315 23.763 -11.458 22.119 -14 20 C-16.826 15.761 -16.66 11.979 -16 7 C-11.997 0.375 -7.341 -1.04 0 0 Z " fill="#EE7772" transform="translate(627,595)"/>
<path d="M0 0 C3.628 0.036 5.041 0.19 8.25 2.062 C10.629 4.739 12.099 6.853 12.473 10.461 C12.149 14.962 11.468 17.712 8.125 20.875 C5.428 22.855 4.097 23.339 0.688 23.938 C-3.441 23.187 -5.576 22.054 -8.75 19.312 C-11.123 15.868 -11.75 13.941 -11.75 9.75 C-10.569 5.689 -8.936 4.021 -5.75 1.312 C-4.11 -0.328 -2.255 0.063 0 0 Z " fill="#FDCF59" transform="translate(554.75,634.6875)"/>
<path d="M0 0 C3.471 2.068 5.777 4.109 7 8 C7.43 11.317 7.718 13.805 5.949 16.75 C3.611 19.619 1.79 21.749 -1.953 22.273 C-6.247 22.463 -9.096 22.434 -12.5 19.625 C-15.921 16.033 -16.343 14.021 -16.289 9.035 C-15.836 5.846 -14.261 4.196 -12 2 C-7.973 -0.685 -4.732 -0.682 0 0 Z " fill="#EE7773" transform="translate(464,631)"/>
<path d="M0 0 C3.376 2.856 3.935 4.545 4.562 8.938 C4.388 12.003 3.723 13.999 1.938 16.5 C-1 19 -1 19 -4.5 19.688 C-8.995 18.805 -10.44 17.802 -13 14 C-13.962 9.332 -13.66 6.056 -11.125 2 C-7.311 -1.589 -5.043 -1.217 0 0 Z " fill="#FAFAF9" transform="translate(601,385)"/>
<path d="M0 0 C3.625 0.755 5.363 2.063 8 4.625 C9.742 8.109 9.577 11.824 9 15.625 C6.566 19.133 5.207 20.399 1 21.188 C-2.659 20.501 -4.352 19.198 -7 16.625 C-8.619 13.387 -8.57 10.125 -8 6.625 C-6.199 2.929 -4.13 0.86 0 0 Z " fill="#FBFBFA" transform="translate(410,383.375)"/>
<path d="M0 0 C0.442 0.26 0.442 0.26 2.676 1.574 C9.251 5.407 15.786 8.988 22.793 11.992 C25 13 25 13 28 15 C25.502 15.964 23.002 16.921 20.5 17.875 C19.804 18.144 19.108 18.414 18.391 18.691 C13.647 20.492 8.944 21.853 4 23 C3.327 19.918 2.663 16.834 2 13.75 C1.809 12.877 1.618 12.005 1.422 11.105 C1.241 10.261 1.061 9.417 0.875 8.547 C0.707 7.772 0.54 6.997 0.367 6.198 C0 4 0 4 0 0 Z " fill="#C76843" transform="translate(637,722)"/>
<path d="M0 0 C1.565 4.02 0.462 7.699 -0.438 11.75 C-0.585 12.447 -0.733 13.145 -0.885 13.863 C-1.249 15.577 -1.623 17.289 -2 19 C-7.232 19.253 -11.019 18.565 -15.875 16.625 C-17.007 16.184 -18.139 15.743 -19.305 15.289 C-22 14 -22 14 -23 12 C-22.445 11.743 -21.891 11.486 -21.319 11.221 C-18.794 10.048 -16.272 8.868 -13.75 7.688 C-12.877 7.283 -12.005 6.879 -11.105 6.463 C-10.261 6.067 -9.417 5.67 -8.547 5.262 C-7.772 4.9 -6.997 4.539 -6.198 4.167 C-3.939 2.968 -2.002 1.586 0 0 Z " fill="#C86943" transform="translate(372,724)"/>
<path d="M0 0 C6.71 0.774 13.341 1.865 20 3 C20 8.28 20 13.56 20 19 C13.244 14.496 13.244 14.496 10.352 11.582 C9.739 10.968 9.127 10.354 8.496 9.721 C7.879 9.091 7.261 8.461 6.625 7.812 C5.984 7.171 5.344 6.53 4.684 5.869 C0 1.141 0 1.141 0 0 Z " fill="#CD6D46" transform="translate(627,282)"/>
<path d="M0 0 C3.092 1.775 5.487 3.487 8 6 C7.67 6.99 7.34 7.98 7 9 C6.443 8.216 5.886 7.433 5.312 6.625 C1.966 2.826 -0.472 2.167 -5.438 1.625 C-9.773 2.081 -11.713 3.161 -15 6 C-18.112 10.952 -18.49 15.139 -18.625 20.812 C-18.894 28.894 -18.894 28.894 -20 30 C-22.53 30.073 -25.033 30.092 -27.562 30.062 C-28.273 30.058 -28.984 30.053 -29.717 30.049 C-31.478 30.037 -33.239 30.019 -35 30 C-31.788 28.094 -29.461 27.777 -25.75 27.875 C-24.858 27.893 -23.966 27.911 -23.047 27.93 C-22.371 27.953 -21.696 27.976 -21 28 C-21.035 27.166 -21.07 26.332 -21.105 25.473 C-21.478 9.966 -21.478 9.966 -16.605 4.41 C-15.062 3.062 -15.062 3.062 -12 1 C-11.381 0.546 -10.762 0.092 -10.125 -0.375 C-6.656 -1.395 -3.424 -0.929 0 0 Z " fill="#1B0806" transform="translate(392,561)"/>
<path d="M0 0 C0.33 0 0.66 0 1 0 C1.054 1.958 1.093 3.916 1.125 5.875 C1.148 6.966 1.171 8.056 1.195 9.18 C1 12 1 12 -1 14 C-1.027 12.417 -1.046 10.833 -1.062 9.25 C-1.074 8.368 -1.086 7.487 -1.098 6.578 C-1.008 4.218 -0.669 2.255 0 0 Z " fill="#744133" transform="translate(201,296)"/>
<path d="M0 0 C3.375 0.547 5.082 1.055 8 3 C5.36 2.67 2.72 2.34 0 2 C0 1.34 0 0.68 0 0 Z " fill="#704A39" transform="translate(688,749)"/>
<path d="M0 0 C2.31 0 4.62 0 7 0 C6.34 0.33 6.34 0.33 3 2 C2.01 1.34 1.02 0.68 0 0 Z " fill="#625641" transform="translate(523,934)"/>
<path d="M0 0 C0.66 0.33 1.32 0.66 2 1 C1.34 2.32 0.68 3.64 0 5 C-0.562 3.062 -0.562 3.062 -1 1 C-0.67 0.67 -0.34 0.34 0 0 Z " fill="#784335" transform="translate(185,392)"/>
<path d="M0 0 C2.31 0 4.62 0 7 0 C7 0.33 7 0.66 7 1 C4.69 1.33 2.38 1.66 0 2 C0 1.34 0 0.68 0 0 Z " fill="#6A5C46" transform="translate(729,996)"/>
<path d="M0 0 C1.98 0 3.96 0 6 0 C5.67 0.66 5.34 1.32 5 2 C3.35 1.67 1.7 1.34 0 1 C0 0.67 0 0.34 0 0 Z " fill="#734234" transform="translate(224,725)"/>
<path d="M0 0 C0.66 0.33 0.66 0.33 4 2 C3.67 2.165 3.67 2.165 2 3 C1.34 2.67 0.68 2.34 0 2 C0 1.34 0 0.68 0 0 Z " fill="#685741" transform="translate(680,986)"/>
<path d="M0 0 C1.32 1.32 2.64 2.64 4 4 C2.68 3.34 1.36 2.68 0 2 C0 1.34 0 0.68 0 0 Z " fill="#63523E" transform="translate(649,964)"/>
<path d="M0 0 C1.65 0 3.3 0 5 0 C4.67 0.66 4.34 1.32 4 2 C2.68 2 1.36 2 0 2 C0 1.34 0 0.68 0 0 Z " fill="#695542" transform="translate(667,792)"/>
<path d="M0 0 C0.33 0 0.66 0 1 0 C1 2.31 1 4.62 1 7 C0.67 7 0.34 7 0 7 C0 4.69 0 2.38 0 0 Z " fill="#724133" transform="translate(120,496)"/>
<path d="M0 0 C1.32 0 2.64 0 4 0 C4 0.66 4 1.32 4 2 C2.68 2 1.36 2 0 2 C0 1.34 0 0.68 0 0 Z " fill="#764032" transform="translate(409,32)"/>
<path d="M0 0 C1.32 0.33 2.64 0.66 4 1 C2.68 1 1.36 1 0 1 C0 0.67 0 0.34 0 0 Z " fill="#635440" transform="translate(531,934)"/>
<path d="M0 0 C0.825 0.165 0.825 0.165 5 1 C3.68 1.33 2.36 1.66 1 2 C0.67 1.34 0.34 0.68 0 0 Z " fill="#5E513C" transform="translate(483,926)"/>
<path d="M0 0 C0.99 0.33 1.98 0.66 3 1 C2.67 1.66 2.34 2.32 2 3 C1.34 2.67 0.68 2.34 0 2 C0 1.34 0 0.68 0 0 Z " fill="#5F4D3B" transform="translate(400,869)"/>
<path d="M0 0 C0.33 0 0.66 0 1 0 C1 1.98 1 3.96 1 6 C0.67 6 0.34 6 0 6 C0 4.02 0 2.04 0 0 Z " fill="#694F3D" transform="translate(368,784)"/>
<path d="M0 0 C0.99 0.33 1.98 0.66 3 1 C1.68 1.33 0.36 1.66 -1 2 C-0.67 1.34 -0.34 0.68 0 0 Z " fill="#724435" transform="translate(274,750)"/>
<path d="M0 0 C0.66 0.33 0.66 0.33 4 2 C3.01 2.33 2.02 2.66 1 3 C0.67 2.01 0.34 1.02 0 0 Z " fill="#6E3F32" transform="translate(250,740)"/>
<path d="M0 0 C1.32 0.33 2.64 0.66 4 1 C3.34 1.66 2.68 2.32 2 3 C2 2.34 2 1.68 2 1 C1.34 0.67 0.68 0.34 0 0 Z " fill="#714032" transform="translate(200,723)"/>
<path d="M0 0 C0.99 0.99 1.98 1.98 3 3 C2.67 3.165 2.67 3.165 1 4 C0.67 2.68 0.34 1.36 0 0 Z " fill="#724032" transform="translate(154,578)"/>
<path d="M0 0 C0.66 0.66 1.32 1.32 2 2 C1.67 2.495 1.67 2.495 0 5 C0 3.35 0 1.7 0 0 Z " fill="#734234" transform="translate(152,576)"/>
<path d="M0 0 C0.33 0 0.66 0 1 0 C1 1.98 1 3.96 1 6 C0.67 6 0.34 6 0 6 C0 4.02 0 2.04 0 0 Z " fill="#744033" transform="translate(200,311)"/>
<path d="M0 0 C0.33 0 0.66 0 1 0 C1 1.98 1 3.96 1 6 C0.67 6 0.34 6 0 6 C0 4.02 0 2.04 0 0 Z " fill="#753F32" transform="translate(204,270)"/>
<path d="M0 0 C0.66 0 1.32 0 2 0 C2.33 0.99 2.66 1.98 3 3 C2.67 3.165 2.67 3.165 1 4 C0.67 2.68 0.34 1.36 0 0 Z " fill="#6F3B2D" transform="translate(248,145)"/>
<path d="M0 0 C0.33 0.66 0.66 1.32 1 2 C0.34 2.66 -0.32 3.32 -1 4 C-1 1 -1 1 0 0 Z " fill="#723A2D" transform="translate(322,72)"/>
<path d="M0 0 C0.99 0 1.98 0 3 0 C3 0.66 3 1.32 3 2 C2.01 1.67 1.02 1.34 0 1 C0 0.67 0 0.34 0 0 Z " fill="#63533F" transform="translate(729,888)"/>
<path d="M0 0 C0.66 0.99 1.32 1.98 2 3 C1.01 2.67 0.02 2.34 -1 2 C-0.67 1.34 -0.34 0.68 0 0 Z " fill="#644F3C" transform="translate(386,845)"/>
<path d="M0 0 C0.99 0.33 1.98 0.66 3 1 C2.01 1.33 1.02 1.66 0 2 C0 1.34 0 0.68 0 0 Z " fill="#6F4435" transform="translate(328,746)"/>
<path d="M0 0 C0.66 1.32 1.32 2.64 2 4 C1.34 3.67 0.68 3.34 0 3 C0 2.01 0 1.02 0 0 Z " fill="#6E4032" transform="translate(144,683)"/>
<path d="M0 0 C0.66 0.99 1.32 1.98 2 3 C1.01 2.67 0.02 2.34 -1 2 C-0.67 1.34 -0.34 0.68 0 0 Z " fill="#733E30" transform="translate(361,49)"/>
<path d="M0 0 C0.99 0.33 1.98 0.66 3 1 C2.01 1.33 1.02 1.66 0 2 C0 1.34 0 0.68 0 0 Z " fill="#645742" transform="translate(569,933)"/>
<path d="M0 0 C0.99 0.33 1.98 0.66 3 1 C2.01 1 1.02 1 0 1 C0 0.67 0 0.34 0 0 Z " fill="#635842" transform="translate(513,933)"/>
<path d="M0 0 C4 1 4 1 4 1 Z " fill="#635440" transform="translate(508,932)"/>
<path d="M0 0 C0.495 0.33 0.495 0.33 3 2 C2.01 2 1.02 2 0 2 C0 1.34 0 0.68 0 0 Z " fill="#5D4E3B" transform="translate(432,902)"/>
<path d="M0 0 C0.66 0 1.32 0 2 0 C2 0.66 2 1.32 2 2 C1.34 2 0.68 2 0 2 C0 1.34 0 0.68 0 0 Z " fill="#675743" transform="translate(640,818)"/>
<path d="M0 0 C0.66 0 1.32 0 2 0 C1.67 0.99 1.34 1.98 1 3 C0.67 2.01 0.34 1.02 0 0 Z " fill="#6C503C" transform="translate(646,762)"/>
<path d="M0 0 C0.99 0.33 1.98 0.66 3 1 C2.01 1 1.02 1 0 1 C0 0.67 0 0.34 0 0 Z " fill="#704635" transform="translate(332,749)"/>
<path d="M0 0 C0.66 0.66 1.32 1.32 2 2 C1.67 2.165 1.67 2.165 0 3 C0 2.01 0 1.02 0 0 Z " fill="#6C3D32" transform="translate(136,672)"/>
<path d="M0 0 C0 3 0 3 0 3 Z " fill="#713F32" transform="translate(137,639)"/>
<path d="M0 0 C0.33 0.495 0.33 0.495 2 3 C1.34 3 0.68 3 0 3 C0 2.01 0 1.02 0 0 Z " fill="#744235" transform="translate(152,610)"/>
<path d="M0 0 C1 4 1 4 1 4 Z " fill="#754537" transform="translate(160,590)"/>
<path d="M0 0 C1 4 1 4 1 4 Z " fill="#764234" transform="translate(200,320)"/>
<path d="M0 0 C0.66 0.66 1.32 1.32 2 2 C1.67 2.165 1.67 2.165 0 3 C0 2.01 0 1.02 0 0 Z " fill="#774839" transform="translate(804,318)"/>
<path d="M0 0 C1 4 1 4 1 4 Z " fill="#774234" transform="translate(208,248)"/>
<path d="M0 0 C0.33 0.165 0.33 0.165 2 1 C1.67 1.66 1.34 2.32 1 3 C0.67 2.01 0.34 1.02 0 0 Z " fill="#733E31" transform="translate(208,241)"/>
<path d="M0 0 C0.33 0.99 0.66 1.98 1 3 C0.34 2.67 -0.32 2.34 -1 2 C-0.67 1.34 -0.34 0.68 0 0 Z " fill="#743D2F" transform="translate(364,48)"/>
<path d="M0 0 C4 1 4 1 4 1 Z " fill="#734031" transform="translate(605,35)"/>
<path d="M0 0 C0.495 0.33 0.495 0.33 3 2 C2.01 2 1.02 2 0 2 C0 1.34 0 0.68 0 0 Z " fill="#774131" transform="translate(561,24)"/>
<path d="M0 0 C3 1 3 1 3 1 Z " fill="#6B5F48" transform="translate(725,996)"/>
<path d="M0 0 C3 1 3 1 3 1 Z " fill="#6C6049" transform="translate(720,996)"/>
<path d="M0 0 C3 1 3 1 3 1 Z " fill="#6E5E49" transform="translate(704,994)"/>
<path d="M0 0 C3 1 3 1 3 1 Z " fill="#685843" transform="translate(690,990)"/>
<path d="M0 0 C0.33 0.165 0.33 0.165 2 1 C1.67 1.165 1.67 1.165 0 2 C0 1.34 0 0.68 0 0 Z " fill="#645743" transform="translate(672,982)"/>
<path d="M0 0 C0.33 0.66 0.66 1.32 1 2 C0.34 1.67 -0.32 1.34 -1 1 C-0.67 0.67 -0.34 0.34 0 0 Z " fill="#64533E" transform="translate(637,949)"/>
<path d="M0 0 C0.66 0.66 1.32 1.32 2 2 C1.34 2 0.68 2 0 2 C0 1.34 0 0.68 0 0 Z " fill="#65543E" transform="translate(632,944)"/>
<path d="M0 0 C3 1 3 1 3 1 Z " fill="#635540" transform="translate(555,934)"/>
<path d="M0 0 C3 1 3 1 3 1 Z " fill="#675943" transform="translate(613,923)"/>
<path d="M0 0 C0.33 0.66 0.66 1.32 1 2 C0.34 1.67 -0.32 1.34 -1 1 C-0.67 0.67 -0.34 0.34 0 0 Z " fill="#5F503D" transform="translate(457,916)"/>
<path d="M0 0 C3 1 3 1 3 1 Z " fill="#6B533F" transform="translate(706,777)"/>
<path d="M0 0 C0.66 0 1.32 0 2 0 C1.67 0.66 1.34 1.32 1 2 C0.67 1.34 0.34 0.68 0 0 Z " fill="#674D3C" transform="translate(762,776)"/>
<path d="M0 0 C3 1 3 1 3 1 Z " fill="#6C5240" transform="translate(710,776)"/>
<path d="M0 0 C0.66 0.66 1.32 1.32 2 2 C1.34 2 0.68 2 0 2 C0 1.34 0 0.68 0 0 Z " fill="#704838" transform="translate(344,755)"/>
<path d="M0 0 C3 1 3 1 3 1 Z " fill="#734D3A" transform="translate(721,755)"/>
<path d="M0 0 C3 1 3 1 3 1 Z " fill="#724D3C" transform="translate(713,755)"/>
<path d="M0 0 C3 1 3 1 3 1 Z " fill="#724335" transform="translate(277,751)"/>
<path d="M0 0 C0.33 0.165 0.33 0.165 2 1 C1.67 1.165 1.67 1.165 0 2 C0 1.34 0 0.68 0 0 Z " fill="#724434" transform="translate(316,749)"/>
<path d="M0 0 C3 1 3 1 3 1 Z " fill="#744737" transform="translate(816,723)"/>
<path d="" fill="#724234" transform="translate(0,0)"/>
<path d="" fill="#714334" transform="translate(0,0)"/>
<path d="M0 0 C0.66 0.66 1.32 1.32 2 2 C1.34 2 0.68 2 0 2 C0 1.34 0 0.68 0 0 Z " fill="#754335" transform="translate(129,466)"/>
<path d="M0 0 C0.66 0 1.32 0 2 0 C1.67 0.66 1.34 1.32 1 2 C0.67 1.34 0.34 0.68 0 0 Z " fill="#734435" transform="translate(874,449)"/>
<path d="M0 0 C0.33 0.165 0.33 0.165 2 1 C1.67 1.165 1.67 1.165 0 2 C0 1.34 0 0.68 0 0 Z " fill="#774334" transform="translate(181,400)"/>
<path d="" fill="#764738" transform="translate(0,0)"/>
<path d="" fill="#7B4434" transform="translate(0,0)"/>
<path d="M0 0 C0.66 0.66 1.32 1.32 2 2 C1.34 2 0.68 2 0 2 C0 1.34 0 0.68 0 0 Z " fill="#774839" transform="translate(804,312)"/>
<path d="M0 0 C0.33 0.165 0.33 0.165 2 1 C1.67 1.165 1.67 1.165 0 2 C0 1.34 0 0.68 0 0 Z " fill="#733F32" transform="translate(200,282)"/>
<path d="" fill="#744032" transform="translate(0,0)"/>
<path d="" fill="#704637" transform="translate(0,0)"/>
<path d="" fill="#773F32" transform="translate(0,0)"/>
<path d="M0 0 C0.33 0.165 0.33 0.165 2 1 C1.67 1.165 1.67 1.165 0 2 C0 1.34 0 0.68 0 0 Z " fill="#6F3D31" transform="translate(257,136)"/>
<path d="M0 0 C0.33 0.165 0.33 0.165 2 1 C1.67 1.165 1.67 1.165 0 2 C0 1.34 0 0.68 0 0 Z " fill="#6E392E" transform="translate(296,94)"/>
<path d="M0 0 C3 1 3 1 3 1 Z " fill="#723F31" transform="translate(621,40)"/>
<path d="M0 0 C3 1 3 1 3 1 Z " fill="#774232" transform="translate(600,33)"/>
<path d="M0 0 C3 1 3 1 3 1 Z " fill="#764133" transform="translate(596,32)"/>
<path d="M0 0 C3 1 3 1 3 1 Z " fill="#784033" transform="translate(452,24)"/>
<path d="M0 0 C2 1 2 1 2 1 Z " fill="#6D5E47" transform="translate(711,995)"/>
<path d="M0 0 C2 1 2 1 2 1 Z " fill="#615340" transform="translate(763,991)"/>
<path d="M0 0 C2 1 2 1 2 1 Z " fill="#675642" transform="translate(693,991)"/>
<path d="" fill="#5A4D39" transform="translate(0,0)"/>
<path d="" fill="#685440" transform="translate(0,0)"/>
<path d="" fill="#5C523E" transform="translate(0,0)"/>
<path d="M0 0 C2 1 2 1 2 1 Z " fill="#665340" transform="translate(633,948)"/>
<path d="" fill="#675442" transform="translate(0,0)"/>
<path d="M0 0 C2 1 2 1 2 1 Z " fill="#635742" transform="translate(553,935)"/>
<path d="" fill="#635640" transform="translate(0,0)"/>
<path d="M0 0 C2 1 2 1 2 1 Z " fill="#645842" transform="translate(563,934)"/>
<path d="M0 0 C2 1 2 1 2 1 Z " fill="#645843" transform="translate(560,934)"/>
<path d="" fill="#665340" transform="translate(0,0)"/>
<path d="" fill="#645640" transform="translate(0,0)"/>
<path d="" fill="#615241" transform="translate(0,0)"/>
<path d="M0 0 C2 1 2 1 2 1 Z " fill="#645640" transform="translate(585,931)"/>
<path d="" fill="#645340" transform="translate(0,0)"/>
<path d="M0 0 C2 1 2 1 2 1 Z " fill="#5A4C38" transform="translate(472,922)"/>
<path d="" fill="#5E4F3C" transform="translate(0,0)"/>
<path d="M0 0 C2 1 2 1 2 1 Z " fill="#5F4F3B" transform="translate(455,915)"/>
<path d="M0 0 C2 1 2 1 2 1 Z " fill="#615441" transform="translate(726,886)"/>
<path d="" fill="#5F4B3A" transform="translate(0,0)"/>
<path d="" fill="#654D3B" transform="translate(0,0)"/>
<path d="" fill="#635641" transform="translate(0,0)"/>
<path d="" fill="#635441" transform="translate(0,0)"/>
<path d="" fill="#675942" transform="translate(0,0)"/>
<path d="M0 0 C2 1 2 1 2 1 Z " fill="#645341" transform="translate(651,808)"/>
<path d="" fill="#675743" transform="translate(0,0)"/>
<path d="" fill="#624E3D" transform="translate(0,0)"/>
<path d="M0 0 C2 1 2 1 2 1 Z " fill="#6C4A39" transform="translate(352,759)"/>
<path d="M0 0 C2 1 2 1 2 1 Z " fill="#6F4738" transform="translate(350,758)"/>
<path d="M0 0 C2 1 2 1 2 1 Z " fill="#724E3B" transform="translate(668,755)"/>
<path d="M0 0 C2 1 2 1 2 1 Z " fill="#714E3A" transform="translate(670,754)"/>
<path d="M0 0 C2 1 2 1 2 1 Z " fill="#6F4736" transform="translate(308,751)"/>
<path d="M0 0 C2 1 2 1 2 1 Z " fill="#714A38" transform="translate(685,747)"/>
<path d="M0 0 C2 1 2 1 2 1 Z " fill="#693E2F" transform="translate(256,743)"/>
<path d="M0 0 C2 1 2 1 2 1 Z " fill="#72493A" transform="translate(765,742)"/>
<path d="M0 0 C2 1 2 1 2 1 Z " fill="#704132" transform="translate(211,726)"/>
<path d="M0 0 C2 1 2 1 2 1 Z " fill="#734234" transform="translate(185,718)"/>
<path d="M0 0 C2 1 2 1 2 1 Z " fill="#724134" transform="translate(183,717)"/>
<path d="M0 0 C2 1 2 1 2 1 Z " fill="#703D30" transform="translate(181,716)"/>
<path d="" fill="#6E4436" transform="translate(0,0)"/>
<path d="M0 0 C2 1 2 1 2 1 Z " fill="#724436" transform="translate(861,608)"/>
<path d="" fill="#784436" transform="translate(0,0)"/>
<path d="" fill="#754636" transform="translate(0,0)"/>
<path d="" fill="#724435" transform="translate(0,0)"/>
<path d="" fill="#724737" transform="translate(0,0)"/>
<path d="" fill="#744134" transform="translate(0,0)"/>
<path d="" fill="#744134" transform="translate(0,0)"/>
<path d="" fill="#764436" transform="translate(0,0)"/>
<path d="" fill="#704335" transform="translate(0,0)"/>
<path d="" fill="#734537" transform="translate(0,0)"/>
<path d="M0 0 C2 1 2 1 2 1 Z " fill="#724235" transform="translate(861,434)"/>
<path d="M0 0 C2 1 2 1 2 1 Z " fill="#784336" transform="translate(168,418)"/>
<path d="M0 0 C2 1 2 1 2 1 Z " fill="#774134" transform="translate(179,403)"/>
<path d="M0 0 C2 1 2 1 2 1 Z " fill="#714435" transform="translate(828,401)"/>
<path d="" fill="#754839" transform="translate(0,0)"/>
<path d="" fill="#7B4637" transform="translate(0,0)"/>
<path d="" fill="#774638" transform="translate(0,0)"/>
<path d="" fill="#734739" transform="translate(0,0)"/>
<path d="" fill="#724538" transform="translate(0,0)"/>
<path d="" fill="#733F31" transform="translate(0,0)"/>
<path d="" fill="#743E30" transform="translate(0,0)"/>
<path d="" fill="#743F32" transform="translate(0,0)"/>
<path d="" fill="#6C3C30" transform="translate(0,0)"/>
<path d="M0 0 C2 1 2 1 2 1 Z " fill="#693A2C" transform="translate(764,156)"/>
<path d="" fill="#704335" transform="translate(0,0)"/>
<path d="" fill="#6E4130" transform="translate(0,0)"/>
<path d="" fill="#733E30" transform="translate(0,0)"/>
<path d="" fill="#703D30" transform="translate(0,0)"/>
<path d="M0 0 C2 1 2 1 2 1 Z " fill="#6E3B2D" transform="translate(280,107)"/>
<path d="M0 0 C2 1 2 1 2 1 Z " fill="#713A2D" transform="translate(285,104)"/>
<path d="" fill="#724031" transform="translate(0,0)"/>
<path d="M0 0 C2 1 2 1 2 1 Z " fill="#724031" transform="translate(717,99)"/>
<path d="" fill="#784335" transform="translate(0,0)"/>
<path d="M0 0 C2 1 2 1 2 1 Z " fill="#71392F" transform="translate(325,72)"/>
<path d="M0 0 C2 1 2 1 2 1 Z " fill="#733D31" transform="translate(366,48)"/>
<path d="M0 0 C2 1 2 1 2 1 Z " fill="#733E30" transform="translate(629,43)"/>
<path d="M0 0 C2 1 2 1 2 1 Z " fill="#743E32" transform="translate(406,34)"/>
<path d="M0 0 C2 1 2 1 2 1 Z " fill="#784333" transform="translate(582,29)"/>
<path d="M0 0 C2 1 2 1 2 1 Z " fill="#7B4335" transform="translate(575,27)"/>
<path d="M0 0 C2 1 2 1 2 1 Z " fill="#753F31" transform="translate(436,27)"/>
<path d="" fill="#754034" transform="translate(0,0)"/>
<path d="M0 0 C2 1 2 1 2 1 Z " fill="#784232" transform="translate(556,24)"/>
<path d="M0 0 C2 1 2 1 2 1 Z " fill="#733F31" transform="translate(550,24)"/>
<path d="" fill="#6D5D47" transform="translate(0,0)"/>
<path d="" fill="#6C5F48" transform="translate(0,0)"/>
<path d="" fill="#6E5F46" transform="translate(0,0)"/>
<path d="" fill="#685E46" transform="translate(0,0)"/>
<path d="" fill="#6A5C46" transform="translate(0,0)"/>
<path d="" fill="#675C45" transform="translate(0,0)"/>
<path d="" fill="#685A44" transform="translate(0,0)"/>
<path d="" fill="#605440" transform="translate(0,0)"/>
<path d="" fill="#61533E" transform="translate(0,0)"/>
<path d="" fill="#655642" transform="translate(0,0)"/>
<path d="" fill="#5B4D3A" transform="translate(0,0)"/>
<path d="" fill="#695741" transform="translate(0,0)"/>
<path d="" fill="#655540" transform="translate(0,0)"/>
<path d="" fill="#61503C" transform="translate(0,0)"/>
<path d="" fill="#65503F" transform="translate(0,0)"/>
<path d="" fill="#372F22" transform="translate(0,0)"/>
<path d="" fill="#685641" transform="translate(0,0)"/>
<path d="" fill="#594A38" transform="translate(0,0)"/>
<path d="" fill="#262116" transform="translate(0,0)"/>
<path d="" fill="#665540" transform="translate(0,0)"/>
<path d="" fill="#625643" transform="translate(0,0)"/>
<path d="" fill="#64543E" transform="translate(0,0)"/>
<path d="" fill="#5F5344" transform="translate(0,0)"/>
<path d="" fill="#5D523F" transform="translate(0,0)"/>
<path d="" fill="#65543E" transform="translate(0,0)"/>
<path d="" fill="#685240" transform="translate(0,0)"/>
<path d="" fill="#68553F" transform="translate(0,0)"/>
<path d="" fill="#5F513F" transform="translate(0,0)"/>
<path d="" fill="#675642" transform="translate(0,0)"/>
<path d="" fill="#645442" transform="translate(0,0)"/>
<path d="" fill="#645641" transform="translate(0,0)"/>
<path d="" fill="#5E5141" transform="translate(0,0)"/>
<path d="" fill="#655540" transform="translate(0,0)"/>
<path d="" fill="#655943" transform="translate(0,0)"/>
<path d="" fill="#615440" transform="translate(0,0)"/>
<path d="" fill="#62513F" transform="translate(0,0)"/>
<path d="" fill="#5F4E3B" transform="translate(0,0)"/>
<path d="" fill="#0E0B06" transform="translate(0,0)"/>
<path d="" fill="#685944" transform="translate(0,0)"/>
<path d="" fill="#635540" transform="translate(0,0)"/>
<path d="" fill="#635740" transform="translate(0,0)"/>
<path d="" fill="#625743" transform="translate(0,0)"/>
<path d="" fill="#615340" transform="translate(0,0)"/>
<path d="" fill="#665742" transform="translate(0,0)"/>
<path d="" fill="#60523D" transform="translate(0,0)"/>
<path d="" fill="#625540" transform="translate(0,0)"/>
<path d="" fill="#635440" transform="translate(0,0)"/>
<path d="" fill="#655A43" transform="translate(0,0)"/>
<path d="" fill="#655641" transform="translate(0,0)"/>
<path d="" fill="#5E513C" transform="translate(0,0)"/>
<path d="" fill="#5E4F3B" transform="translate(0,0)"/>
<path d="" fill="#685845" transform="translate(0,0)"/>
<path d="" fill="#675A46" transform="translate(0,0)"/>
<path d="" fill="#645841" transform="translate(0,0)"/>
<path d="" fill="#5E503E" transform="translate(0,0)"/>
<path d="" fill="#635540" transform="translate(0,0)"/>
<path d="" fill="#5E4C3C" transform="translate(0,0)"/>
<path d="" fill="#604F3C" transform="translate(0,0)"/>
<path d="" fill="#61503E" transform="translate(0,0)"/>
<path d="" fill="#5C513F" transform="translate(0,0)"/>
<path d="" fill="#665643" transform="translate(0,0)"/>
<path d="" fill="#635643" transform="translate(0,0)"/>
<path d="" fill="#645642" transform="translate(0,0)"/>
<path d="" fill="#5D4B39" transform="translate(0,0)"/>
<path d="" fill="#604D3A" transform="translate(0,0)"/>
<path d="" fill="#665642" transform="translate(0,0)"/>
<path d="" fill="#655740" transform="translate(0,0)"/>
<path d="" fill="#5F4D39" transform="translate(0,0)"/>
<path d="" fill="#5F4A39" transform="translate(0,0)"/>
<path d="" fill="#5E503D" transform="translate(0,0)"/>
<path d="" fill="#61503D" transform="translate(0,0)"/>
<path d="" fill="#645241" transform="translate(0,0)"/>
<path d="" fill="#604C3A" transform="translate(0,0)"/>
<path d="" fill="#615240" transform="translate(0,0)"/>
<path d="" fill="#625441" transform="translate(0,0)"/>
<path d="" fill="#5F4C3B" transform="translate(0,0)"/>
<path d="" fill="#5F4D3B" transform="translate(0,0)"/>
<path d="" fill="#624D3C" transform="translate(0,0)"/>
<path d="" fill="#62543F" transform="translate(0,0)"/>
<path d="" fill="#604E3B" transform="translate(0,0)"/>
<path d="" fill="#64513F" transform="translate(0,0)"/>
<path d="" fill="#61503D" transform="translate(0,0)"/>
<path d="" fill="#5F4C3E" transform="translate(0,0)"/>
<path d="" fill="#665540" transform="translate(0,0)"/>
<path d="" fill="#5E4E3C" transform="translate(0,0)"/>
<path d="" fill="#60503D" transform="translate(0,0)"/>
<path d="" fill="#614D3B" transform="translate(0,0)"/>
<path d="" fill="#615442" transform="translate(0,0)"/>
<path d="" fill="#645443" transform="translate(0,0)"/>
<path d="" fill="#654D3C" transform="translate(0,0)"/>
<path d="" fill="#634E3A" transform="translate(0,0)"/>
<path d="" fill="#5F5442" transform="translate(0,0)"/>
<path d="" fill="#654D3D" transform="translate(0,0)"/>
<path d="" fill="#634F3C" transform="translate(0,0)"/>
<path d="" fill="#625544" transform="translate(0,0)"/>
<path d="" fill="#634F3F" transform="translate(0,0)"/>
<path d="" fill="#604E3B" transform="translate(0,0)"/>
<path d="" fill="#675745" transform="translate(0,0)"/>
<path d="" fill="#655541" transform="translate(0,0)"/>
<path d="" fill="#665643" transform="translate(0,0)"/>
<path d="" fill="#605441" transform="translate(0,0)"/>
<path d="" fill="#634E3C" transform="translate(0,0)"/>
<path d="" fill="#61513E" transform="translate(0,0)"/>
<path d="" fill="#625542" transform="translate(0,0)"/>
<path d="" fill="#65533F" transform="translate(0,0)"/>
<path d="" fill="#675643" transform="translate(0,0)"/>
<path d="" fill="#62533F" transform="translate(0,0)"/>
<path d="" fill="#665444" transform="translate(0,0)"/>
<path d="" fill="#675743" transform="translate(0,0)"/>
<path d="" fill="#614F40" transform="translate(0,0)"/>
<path d="" fill="#6B5742" transform="translate(0,0)"/>
<path d="" fill="#6B5844" transform="translate(0,0)"/>
<path d="" fill="#684F3F" transform="translate(0,0)"/>
<path d="" fill="#66523F" transform="translate(0,0)"/>
<path d="" fill="#634A3C" transform="translate(0,0)"/>
<path d="" fill="#6A5742" transform="translate(0,0)"/>
<path d="" fill="#695743" transform="translate(0,0)"/>
<path d="" fill="#6A5841" transform="translate(0,0)"/>
<path d="" fill="#6B5843" transform="translate(0,0)"/>
<path d="" fill="#6C5942" transform="translate(0,0)"/>
<path d="" fill="#6B5644" transform="translate(0,0)"/>
<path d="" fill="#6A533F" transform="translate(0,0)"/>
<path d="" fill="#69513F" transform="translate(0,0)"/>
<path d="" fill="#634C39" transform="translate(0,0)"/>
<path d="" fill="#6A513E" transform="translate(0,0)"/>
<path d="" fill="#6D513F" transform="translate(0,0)"/>
<path d="" fill="#694F3E" transform="translate(0,0)"/>
<path d="" fill="#6C5542" transform="translate(0,0)"/>
<path d="" fill="#674F3E" transform="translate(0,0)"/>
<path d="" fill="#695140" transform="translate(0,0)"/>
<path d="" fill="#6A503F" transform="translate(0,0)"/>
<path d="" fill="#6B5440" transform="translate(0,0)"/>
<path d="" fill="#6E523F" transform="translate(0,0)"/>
<path d="" fill="#6B523E" transform="translate(0,0)"/>
<path d="" fill="#6D533E" transform="translate(0,0)"/>
<path d="" fill="#6D4F3A" transform="translate(0,0)"/>
<path d="" fill="#6C4C39" transform="translate(0,0)"/>
<path d="" fill="#6E4E3C" transform="translate(0,0)"/>
<path d="" fill="#6E4C3B" transform="translate(0,0)"/>
<path d="" fill="#6F5340" transform="translate(0,0)"/>
<path d="" fill="#704D3B" transform="translate(0,0)"/>
<path d="" fill="#754F3B" transform="translate(0,0)"/>
<path d="" fill="#764E3B" transform="translate(0,0)"/>
<path d="" fill="#75503C" transform="translate(0,0)"/>
<path d="" fill="#724D3C" transform="translate(0,0)"/>
<path d="" fill="#714C3A" transform="translate(0,0)"/>
<path d="" fill="#704C3C" transform="translate(0,0)"/>
<path d="" fill="#724435" transform="translate(0,0)"/>
<path d="" fill="#754738" transform="translate(0,0)"/>
<path d="" fill="#6F4C3A" transform="translate(0,0)"/>
<path d="" fill="#714434" transform="translate(0,0)"/>
<path d="" fill="#714B38" transform="translate(0,0)"/>
<path d="" fill="#6F4535" transform="translate(0,0)"/>
<path d="" fill="#6F4335" transform="translate(0,0)"/>
<path d="" fill="#714335" transform="translate(0,0)"/>
<path d="" fill="#754E3D" transform="translate(0,0)"/>
<path d="" fill="#734D3B" transform="translate(0,0)"/>
<path d="" fill="#754D3C" transform="translate(0,0)"/>
<path d="" fill="#724A3B" transform="translate(0,0)"/>
<path d="" fill="#6D4032" transform="translate(0,0)"/>
<path d="" fill="#724738" transform="translate(0,0)"/>
<path d="" fill="#764B3A" transform="translate(0,0)"/>
<path d="" fill="#764738" transform="translate(0,0)"/>
<path d="" fill="#784C40" transform="translate(0,0)"/>
<path d="" fill="#754535" transform="translate(0,0)"/>
<path d="" fill="#6D4234" transform="translate(0,0)"/>
<path d="" fill="#724234" transform="translate(0,0)"/>
<path d="" fill="#6F4133" transform="translate(0,0)"/>
<path d="" fill="#6E4232" transform="translate(0,0)"/>
<path d="" fill="#703F31" transform="translate(0,0)"/>
<path d="" fill="#703F31" transform="translate(0,0)"/>
<path d="" fill="#6F4333" transform="translate(0,0)"/>
<path d="" fill="#714334" transform="translate(0,0)"/>
<path d="" fill="#714233" transform="translate(0,0)"/>
<path d="" fill="#704032" transform="translate(0,0)"/>
<path d="" fill="#754737" transform="translate(0,0)"/>
<path d="" fill="#6F3F2F" transform="translate(0,0)"/>
<path d="" fill="#6E4033" transform="translate(0,0)"/>
<path d="" fill="#6F4336" transform="translate(0,0)"/>
<path d="" fill="#74493A" transform="translate(0,0)"/>
<path d="" fill="#734939" transform="translate(0,0)"/>
<path d="" fill="#734638" transform="translate(0,0)"/>
<path d="" fill="#714436" transform="translate(0,0)"/>
<path d="" fill="#714335" transform="translate(0,0)"/>
<path d="" fill="#724233" transform="translate(0,0)"/>
<path d="" fill="#6F3E32" transform="translate(0,0)"/>
<path d="" fill="#6D3B2E" transform="translate(0,0)"/>
<path d="" fill="#6D3D32" transform="translate(0,0)"/>
<path d="" fill="#6F3E31" transform="translate(0,0)"/>
<path d="" fill="#6D3F34" transform="translate(0,0)"/>
<path d="" fill="#6D3F2F" transform="translate(0,0)"/>
<path d="" fill="#6F3F33" transform="translate(0,0)"/>
<path d="" fill="#6C3F31" transform="translate(0,0)"/>
<path d="" fill="#6D4334" transform="translate(0,0)"/>
<path d="" fill="#6F4233" transform="translate(0,0)"/>
<path d="" fill="#694032" transform="translate(0,0)"/>
<path d="" fill="#704335" transform="translate(0,0)"/>
<path d="" fill="#704032" transform="translate(0,0)"/>
<path d="" fill="#724437" transform="translate(0,0)"/>
<path d="" fill="#734333" transform="translate(0,0)"/>
<path d="" fill="#704434" transform="translate(0,0)"/>
<path d="" fill="#724638" transform="translate(0,0)"/>
<path d="" fill="#744737" transform="translate(0,0)"/>
<path d="" fill="#713F33" transform="translate(0,0)"/>
<path d="" fill="#744737" transform="translate(0,0)"/>
<path d="" fill="#744235" transform="translate(0,0)"/>
<path d="" fill="#714135" transform="translate(0,0)"/>
<path d="" fill="#704434" transform="translate(0,0)"/>
<path d="" fill="#724434" transform="translate(0,0)"/>
<path d="" fill="#754336" transform="translate(0,0)"/>
<path d="" fill="#744135" transform="translate(0,0)"/>
<path d="" fill="#744535" transform="translate(0,0)"/>
<path d="" fill="#744334" transform="translate(0,0)"/>
<path d="" fill="#754334" transform="translate(0,0)"/>
<path d="" fill="#76483A" transform="translate(0,0)"/>
<path d="" fill="#744637" transform="translate(0,0)"/>
<path d="" fill="#734639" transform="translate(0,0)"/>
<path d="" fill="#75453A" transform="translate(0,0)"/>
<path d="" fill="#714638" transform="translate(0,0)"/>
<path d="" fill="#7A4637" transform="translate(0,0)"/>
<path d="" fill="#774437" transform="translate(0,0)"/>
<path d="" fill="#724537" transform="translate(0,0)"/>
<path d="" fill="#764236" transform="translate(0,0)"/>
<path d="" fill="#754335" transform="translate(0,0)"/>
<path d="" fill="#764436" transform="translate(0,0)"/>
<path d="" fill="#734437" transform="translate(0,0)"/>
<path d="" fill="#784336" transform="translate(0,0)"/>
<path d="" fill="#744335" transform="translate(0,0)"/>
<path d="" fill="#754436" transform="translate(0,0)"/>
<path d="" fill="#744336" transform="translate(0,0)"/>
<path d="" fill="#754334" transform="translate(0,0)"/>
<path d="" fill="#714439" transform="translate(0,0)"/>
<path d="" fill="#794335" transform="translate(0,0)"/>
<path d="" fill="#704639" transform="translate(0,0)"/>
<path d="" fill="#744034" transform="translate(0,0)"/>
<path d="" fill="#724538" transform="translate(0,0)"/>
<path d="" fill="#754434" transform="translate(0,0)"/>
<path d="" fill="#754134" transform="translate(0,0)"/>
<path d="" fill="#714436" transform="translate(0,0)"/>
<path d="" fill="#744638" transform="translate(0,0)"/>
<path d="" fill="#764436" transform="translate(0,0)"/>
<path d="" fill="#764436" transform="translate(0,0)"/>
<path d="" fill="#764134" transform="translate(0,0)"/>
<path d="" fill="#754236" transform="translate(0,0)"/>
<path d="" fill="#724436" transform="translate(0,0)"/>
<path d="" fill="#764435" transform="translate(0,0)"/>
<path d="" fill="#764334" transform="translate(0,0)"/>
<path d="" fill="#764636" transform="translate(0,0)"/>
<path d="" fill="#734234" transform="translate(0,0)"/>
<path d="" fill="#754536" transform="translate(0,0)"/>
<path d="" fill="#713E32" transform="translate(0,0)"/>
<path d="" fill="#754435" transform="translate(0,0)"/>
<path d="" fill="#734635" transform="translate(0,0)"/>
<path d="" fill="#744334" transform="translate(0,0)"/>
<path d="" fill="#733F32" transform="translate(0,0)"/>
<path d="" fill="#744437" transform="translate(0,0)"/>
<path d="" fill="#733F30" transform="translate(0,0)"/>
<path d="" fill="#734134" transform="translate(0,0)"/>
<path d="" fill="#723E32" transform="translate(0,0)"/>
<path d="" fill="#703E34" transform="translate(0,0)"/>
<path d="" fill="#734434" transform="translate(0,0)"/>
<path d="" fill="#723F30" transform="translate(0,0)"/>
<path d="" fill="#754233" transform="translate(0,0)"/>
<path d="" fill="#733F32" transform="translate(0,0)"/>
<path d="" fill="#744032" transform="translate(0,0)"/>
<path d="" fill="#704135" transform="translate(0,0)"/>
<path d="" fill="#704435" transform="translate(0,0)"/>
<path d="" fill="#714535" transform="translate(0,0)"/>
<path d="" fill="#764335" transform="translate(0,0)"/>
<path d="" fill="#704034" transform="translate(0,0)"/>
<path d="" fill="#704133" transform="translate(0,0)"/>
<path d="" fill="#704032" transform="translate(0,0)"/>
<path d="" fill="#754134" transform="translate(0,0)"/>
<path d="" fill="#714435" transform="translate(0,0)"/>
<path d="" fill="#703F31" transform="translate(0,0)"/>
<path d="" fill="#774234" transform="translate(0,0)"/>
<path d="" fill="#784335" transform="translate(0,0)"/>
<path d="" fill="#7A4537" transform="translate(0,0)"/>
<path d="" fill="#794234" transform="translate(0,0)"/>
<path d="" fill="#724333" transform="translate(0,0)"/>
<path d="" fill="#714433" transform="translate(0,0)"/>
<path d="" fill="#704235" transform="translate(0,0)"/>
<path d="" fill="#764135" transform="translate(0,0)"/>
<path d="" fill="#754131" transform="translate(0,0)"/>
<path d="" fill="#734436" transform="translate(0,0)"/>
<path d="" fill="#76483A" transform="translate(0,0)"/>
<path d="" fill="#794335" transform="translate(0,0)"/>
<path d="" fill="#764736" transform="translate(0,0)"/>
<path d="" fill="#7C4536" transform="translate(0,0)"/>
<path d="" fill="#794436" transform="translate(0,0)"/>
<path d="" fill="#7C4837" transform="translate(0,0)"/>
<path d="" fill="#7B4537" transform="translate(0,0)"/>
<path d="" fill="#774738" transform="translate(0,0)"/>
<path d="" fill="#7D4636" transform="translate(0,0)"/>
<path d="" fill="#794939" transform="translate(0,0)"/>
<path d="" fill="#78493A" transform="translate(0,0)"/>
<path d="" fill="#7A4334" transform="translate(0,0)"/>
<path d="" fill="#7B4436" transform="translate(0,0)"/>
<path d="" fill="#784335" transform="translate(0,0)"/>
<path d="" fill="#7A4334" transform="translate(0,0)"/>
<path d="" fill="#43261D" transform="translate(0,0)"/>
<path d="" fill="#754938" transform="translate(0,0)"/>
<path d="" fill="#754739" transform="translate(0,0)"/>
<path d="" fill="#713D30" transform="translate(0,0)"/>
<path d="" fill="#774838" transform="translate(0,0)"/>
<path d="" fill="#73483A" transform="translate(0,0)"/>
<path d="" fill="#763F33" transform="translate(0,0)"/>
<path d="" fill="#744032" transform="translate(0,0)"/>
<path d="" fill="#764135" transform="translate(0,0)"/>
<path d="" fill="#753D30" transform="translate(0,0)"/>
<path d="" fill="#74493B" transform="translate(0,0)"/>
<path d="" fill="#733E30" transform="translate(0,0)"/>
<path d="" fill="#704636" transform="translate(0,0)"/>
<path d="" fill="#744637" transform="translate(0,0)"/>
<path d="" fill="#733D30" transform="translate(0,0)"/>
<path d="" fill="#734834" transform="translate(0,0)"/>
<path d="" fill="#734536" transform="translate(0,0)"/>
<path d="" fill="#743F32" transform="translate(0,0)"/>
<path d="" fill="#733D31" transform="translate(0,0)"/>
<path d="" fill="#713D30" transform="translate(0,0)"/>
<path d="" fill="#743D2E" transform="translate(0,0)"/>
<path d="" fill="#714534" transform="translate(0,0)"/>
<path d="" fill="#754939" transform="translate(0,0)"/>
<path d="" fill="#733C2D" transform="translate(0,0)"/>
<path d="" fill="#713B30" transform="translate(0,0)"/>
<path d="" fill="#714635" transform="translate(0,0)"/>
<path d="" fill="#733E30" transform="translate(0,0)"/>
<path d="" fill="#723D31" transform="translate(0,0)"/>
<path d="" fill="#743E30" transform="translate(0,0)"/>
<path d="" fill="#714636" transform="translate(0,0)"/>
<path d="" fill="#714535" transform="translate(0,0)"/>
<path d="" fill="#744231" transform="translate(0,0)"/>
<path d="" fill="#6D4133" transform="translate(0,0)"/>
<path d="" fill="#6E3C2D" transform="translate(0,0)"/>
<path d="" fill="#743F31" transform="translate(0,0)"/>
<path d="" fill="#743F32" transform="translate(0,0)"/>
<path d="" fill="#6D4130" transform="translate(0,0)"/>
<path d="" fill="#6F4131" transform="translate(0,0)"/>
<path d="" fill="#703D2E" transform="translate(0,0)"/>
<path d="" fill="#704131" transform="translate(0,0)"/>
<path d="" fill="#723D30" transform="translate(0,0)"/>
<path d="" fill="#743C2F" transform="translate(0,0)"/>
<path d="" fill="#703B2E" transform="translate(0,0)"/>
<path d="" fill="#714232" transform="translate(0,0)"/>
<path d="" fill="#713B2E" transform="translate(0,0)"/>
<path d="" fill="#713B2F" transform="translate(0,0)"/>
<path d="" fill="#6F4032" transform="translate(0,0)"/>
<path d="" fill="#6E3F31" transform="translate(0,0)"/>
<path d="" fill="#703B2E" transform="translate(0,0)"/>
<path d="" fill="#734034" transform="translate(0,0)"/>
<path d="" fill="#703B2E" transform="translate(0,0)"/>
<path d="" fill="#6C362B" transform="translate(0,0)"/>
<path d="" fill="#6F392D" transform="translate(0,0)"/>
<path d="" fill="#6C382C" transform="translate(0,0)"/>
<path d="" fill="#6A3629" transform="translate(0,0)"/>
<path d="" fill="#6F3A2D" transform="translate(0,0)"/>
<path d="" fill="#6F3F2F" transform="translate(0,0)"/>
<path d="" fill="#703C2D" transform="translate(0,0)"/>
<path d="" fill="#704030" transform="translate(0,0)"/>
<path d="" fill="#6F392F" transform="translate(0,0)"/>
<path d="" fill="#713A2B" transform="translate(0,0)"/>
<path d="" fill="#734033" transform="translate(0,0)"/>
<path d="" fill="#6C392B" transform="translate(0,0)"/>
<path d="" fill="#723E2E" transform="translate(0,0)"/>
<path d="" fill="#743F30" transform="translate(0,0)"/>
<path d="" fill="#6F382E" transform="translate(0,0)"/>
<path d="" fill="#733E2C" transform="translate(0,0)"/>
<path d="" fill="#6D382C" transform="translate(0,0)"/>
<path d="" fill="#704032" transform="translate(0,0)"/>
<path d="" fill="#713A2E" transform="translate(0,0)"/>
<path d="" fill="#703B2B" transform="translate(0,0)"/>
<path d="" fill="#733D30" transform="translate(0,0)"/>
<path d="" fill="#6F3E2F" transform="translate(0,0)"/>
<path d="" fill="#703D2B" transform="translate(0,0)"/>
<path d="" fill="#713C2B" transform="translate(0,0)"/>
<path d="" fill="#703D2D" transform="translate(0,0)"/>
<path d="" fill="#723C2E" transform="translate(0,0)"/>
<path d="" fill="#6E3B2E" transform="translate(0,0)"/>
<path d="" fill="#743F2F" transform="translate(0,0)"/>
<path d="" fill="#743E2E" transform="translate(0,0)"/>
<path d="" fill="#72392C" transform="translate(0,0)"/>
<path d="" fill="#71402F" transform="translate(0,0)"/>
<path d="" fill="#6F3E30" transform="translate(0,0)"/>
<path d="" fill="#723A2D" transform="translate(0,0)"/>
<path d="" fill="#6C3D2F" transform="translate(0,0)"/>
<path d="" fill="#754030" transform="translate(0,0)"/>
<path d="" fill="#703F2F" transform="translate(0,0)"/>
<path d="" fill="#703A2D" transform="translate(0,0)"/>
<path d="" fill="#713E30" transform="translate(0,0)"/>
<path d="" fill="#733E2F" transform="translate(0,0)"/>
<path d="" fill="#733D30" transform="translate(0,0)"/>
<path d="" fill="#723C2F" transform="translate(0,0)"/>
<path d="" fill="#764030" transform="translate(0,0)"/>
<path d="" fill="#723E2F" transform="translate(0,0)"/>
<path d="" fill="#734131" transform="translate(0,0)"/>
<path d="" fill="#703D32" transform="translate(0,0)"/>
<path d="" fill="#723C2F" transform="translate(0,0)"/>
<path d="" fill="#703C33" transform="translate(0,0)"/>
<path d="" fill="#733C2E" transform="translate(0,0)"/>
<path d="" fill="#763E30" transform="translate(0,0)"/>
<path d="" fill="#753D2F" transform="translate(0,0)"/>
<path d="" fill="#703C2E" transform="translate(0,0)"/>
<path d="" fill="#733F30" transform="translate(0,0)"/>
<path d="" fill="#754231" transform="translate(0,0)"/>
<path d="" fill="#754131" transform="translate(0,0)"/>
<path d="" fill="#753E32" transform="translate(0,0)"/>
<path d="" fill="#743D33" transform="translate(0,0)"/>
<path d="" fill="#744030" transform="translate(0,0)"/>
<path d="" fill="#754235" transform="translate(0,0)"/>
<path d="" fill="#733B31" transform="translate(0,0)"/>
<path d="" fill="#754132" transform="translate(0,0)"/>
<path d="" fill="#733D31" transform="translate(0,0)"/>
<path d="" fill="#774232" transform="translate(0,0)"/>
<path d="" fill="#743C31" transform="translate(0,0)"/>
<path d="" fill="#743F32" transform="translate(0,0)"/>
<path d="" fill="#783F32" transform="translate(0,0)"/>
<path d="" fill="#774434" transform="translate(0,0)"/>
<path d="" fill="#754233" transform="translate(0,0)"/>
<path d="" fill="#7B4639" transform="translate(0,0)"/>
<path d="" fill="#794231" transform="translate(0,0)"/>
<path d="" fill="#794334" transform="translate(0,0)"/>
<path d="" fill="#794133" transform="translate(0,0)"/>
<path d="" fill="#764031" transform="translate(0,0)"/>
<path d="" fill="#794335" transform="translate(0,0)"/>
<path d="" fill="#784435" transform="translate(0,0)"/>
<path d="" fill="#764132" transform="translate(0,0)"/>
<path d="" fill="#7B4437" transform="translate(0,0)"/>
<path d="" fill="#794132" transform="translate(0,0)"/>
<path d="" fill="#784234" transform="translate(0,0)"/>
<path d="" fill="#764133" transform="translate(0,0)"/>
<path d="" fill="#784334" transform="translate(0,0)"/>
<path d="" fill="#784334" transform="translate(0,0)"/>
<path d="" fill="#764236" transform="translate(0,0)"/>
<path d="" fill="#7A4335" transform="translate(0,0)"/>
<path d="" fill="#7A4234" transform="translate(0,0)"/>
<path d="" fill="#794334" transform="translate(0,0)"/>
<path d="" fill="#754234" transform="translate(0,0)"/>
<path d="" fill="#794234" transform="translate(0,0)"/>
<path d="" fill="#7C4336" transform="translate(0,0)"/>
<path d="" fill="#7C4336" transform="translate(0,0)"/>
<path d="" fill="#7A4536" transform="translate(0,0)"/>
</svg>
