<?xml version="1.0" encoding="UTF-8"?>
<!-- Generator: visioncortex VTracer 0.6.12 -->
<svg version="1.1" xmlns="http://www.w3.org/2000/svg" width="1024" height="1024">
<path d="M0 0 C337.92 0 675.84 0 1024 0 C1024 337.92 1024 675.84 1024 1024 C686.08 1024 348.16 1024 0 1024 C0 686.08 0 348.16 0 0 Z " fill="#FEFDFA" transform="translate(0,0)"/>
<path d="M0 0 C0.33 0.33 0.66 0.66 1 1 C2.769 1.111 4.541 1.187 6.312 1.25 C43.131 3.915 75.683 26.06 99.539 53.043 C130.161 89.837 146.556 137.045 153 184 C153.069 184.494 153.069 184.494 153.421 186.994 C155.307 200.721 156.309 214.422 157 228.25 C159.052 268.722 167.973 303.319 194 335 C213.388 358.608 228.123 382.453 228.25 413.938 C228.26 414.559 228.26 414.559 228.312 417.705 C228.407 440.454 220.095 457.699 205.863 474.793 C196.893 485.575 190.989 494.497 191.512 509.141 C192.353 515.792 194.588 521.776 197 528 C197.931 530.516 198.841 533.039 199.75 535.562 C200.157 536.657 200.565 537.751 200.984 538.879 C206.356 555.385 203.881 573.946 196.426 589.227 C185.121 610.043 165.805 623.157 144 631 C142.931 631.272 141.863 631.544 140.762 631.824 C137.146 633.364 136.472 634.952 134.75 638.438 C124.286 657.52 105.775 668.575 85.625 675.25 C73.921 678.553 63.195 680.169 51.062 679.75 C43.554 679.536 39.082 679.977 33.242 685.121 C20.728 695.608 1.438 696.215 -14 696 C-13.983 696.67 -13.967 697.34 -13.949 698.031 C-13.855 704.73 -14.33 711.084 -15.438 717.688 C-15.52 718.19 -15.52 718.19 -15.937 720.732 C-17.81 731.273 -20.807 741.49 -24.002 751.696 C-27.403 762.811 -29.082 773.2 -24 784 C-23.34 784 -22.68 784 -22 784 C-21.758 783.42 -21.758 783.42 -20.531 780.484 C-16.473 770.951 -12.253 762.314 -6 754 C-5.313 753.08 -4.626 752.159 -3.918 751.211 C15.299 726.627 43.65 712.754 74.242 708.336 C74.697 708.281 74.697 708.281 77 708 C77.445 707.945 77.445 707.945 79.695 707.664 C113.896 704.139 113.896 704.139 124.766 712 C128.315 715.177 128.925 716.875 129.246 721.668 C129.203 726.134 127.677 729.599 125.75 733.562 C122.604 740.531 120.985 747.27 119.812 754.812 C115.968 779.294 105.246 798.84 85.559 814.156 C82.131 816.626 78.647 818.867 75 821 C77.254 823.361 79.653 825.338 82.25 827.312 C83.051 827.935 83.851 828.558 84.676 829.199 C86.039 830.255 87.409 831.304 88.793 832.332 C108.422 847.765 116.177 873.234 120.126 896.726 C121.153 902.602 122.421 907.694 125.168 913.011 C126.67 916.602 126.606 920.201 126 924 C124.25 928.238 122.123 930.076 118 932 C110.337 934.533 102.61 934.355 94.625 934.312 C93.91 934.31 93.194 934.308 92.457 934.306 C81.387 934.252 70.769 933.711 60 931 C59.229 930.817 58.458 930.635 57.664 930.446 C39.954 926.145 22.525 918.423 9 906 C8.201 905.34 7.402 904.68 6.578 904 C-8.088 891.612 -20.191 873.718 -25 855 C-25 854.01 -25 853.02 -25 852 C-26.235 852.387 -27.47 852.773 -28.742 853.172 C-83.094 869.984 -140.652 868.568 -191.875 842.125 C-205.091 835.071 -216.253 826.372 -227 816 C-227.84 815.223 -228.681 814.445 -229.547 813.645 C-259.438 785.229 -274.417 742.325 -278 702 C-278.039 700 -278.058 697.999 -278 696 C-278.388 696.012 -278.388 696.012 -280.352 696.07 C-299.805 696.395 -314.888 691.741 -331 681 C-333.853 680.767 -336.643 680.632 -339.5 680.562 C-367.825 679.401 -394.645 671.91 -415.418 651.641 C-419.894 646.77 -424.545 641.254 -426.715 634.91 C-428.726 631.921 -431.281 631.704 -434.688 630.75 C-446.725 627.098 -457.441 621.215 -467 613 C-467.331 612.741 -467.331 612.741 -469.004 611.43 C-482.521 600.478 -491.849 583.229 -494 566 C-495.341 550.175 -492.247 537.199 -485.328 522.855 C-481.225 514.034 -480.519 504.629 -483.625 495.375 C-486.605 488.065 -491.023 482.193 -495.943 476.095 C-513.885 453.77 -520.233 430.413 -517.688 401.961 C-514.575 376.897 -499.958 356.324 -484.953 336.821 C-475.503 324.504 -467.44 312.147 -461 298 C-460.727 297.405 -460.727 297.405 -459.348 294.395 C-449.197 270.71 -446.151 243.75 -445.75 218.188 C-445.728 217.398 -445.707 216.609 -445.685 215.796 C-445.663 211.838 -445.943 208.734 -447.492 205.07 C-449.482 200.305 -449.453 195.795 -449.375 190.688 C-449.372 190.227 -449.372 190.227 -449.357 187.894 C-449.231 181.271 -448.443 175.209 -446 169 C-447.258 168.794 -448.516 168.588 -449.812 168.375 C-458.878 166.334 -467.347 161.443 -473 154 C-480.017 142.798 -481.268 133.058 -480 120 C-477.241 108.927 -470.695 99.937 -461 94 C-460.33 93.585 -459.659 93.17 -458.969 92.742 C-450.388 88.422 -440.341 89.646 -431 90 C-431.046 89.068 -431.093 88.136 -431.141 87.176 C-431.537 73.189 -428.758 61.349 -419 50.848 C-409.987 42.205 -401.368 39.305 -389.083 39.393 C-381.936 39.684 -376.28 41.49 -370 45 C-369.741 44.417 -369.481 43.834 -369.214 43.233 C-367.005 39.17 -363.509 36.173 -360.25 32.938 C-359.487 32.179 -358.724 31.42 -357.938 30.639 C-351.352 24.181 -344.47 18.399 -337 13 C-335.934 12.224 -334.868 11.448 -333.77 10.648 C-325.777 4.983 -317.496 -0.135 -309 -5 C-308.4 -5.344 -307.799 -5.688 -307.181 -6.043 C-279.31 -21.848 -247.363 -31.971 -216 -38 C-214.981 -38.197 -213.961 -38.393 -212.911 -38.596 C-143.114 -51.684 -56.733 -47.137 0 0 Z " fill="#442406" transform="translate(656,62)"/>
<path d="M0 0 C3.481 2.82 6.128 4.299 10.621 4.488 C40.51 6.291 65.122 19.776 86.594 40.102 C87.466 40.91 88.339 41.718 89.238 42.551 C133.407 84.824 148.153 151.866 151.012 210.535 C152.513 240.994 155.999 270.37 169.594 298.102 C170.115 299.183 170.635 300.265 171.172 301.379 C177.322 313.455 185.365 324.556 194.219 334.789 C212.78 356.255 225.697 380.999 223.594 410.102 C221.594 427.284 214.541 440.332 203.207 453.109 C191.854 466.109 186.005 478.834 186.281 496.141 C187.138 506.994 191.11 516.938 195.324 526.859 C199.675 537.97 199.52 554.329 195.043 565.34 C185.416 583.686 170.113 595.524 150.594 602.102 C150.076 602.247 150.076 602.247 147.453 602.98 C139.138 605.381 139.138 605.381 136.281 609.164 C135.713 610.474 135.151 611.787 134.594 613.102 C123.62 632.704 107.771 641.652 87.109 648.207 C80.825 649.806 74.958 650.149 68.496 650.207 C67.2 650.222 65.904 650.237 64.568 650.252 C62.545 650.275 60.523 650.289 58.5 650.277 C45.753 650.22 45.753 650.22 41.48 653.953 C40.507 654.992 39.544 656.041 38.594 657.102 C28.384 664.055 17.84 666.324 5.664 666.172 C4.884 666.167 4.104 666.162 3.301 666.156 C1.399 666.143 -0.504 666.123 -2.406 666.102 C-2.46 665.23 -2.515 664.358 -2.571 663.46 C-3.715 646.008 -5.458 628.887 -8.906 611.727 C-9.056 610.983 -9.205 610.24 -9.359 609.474 C-11.045 601.154 -12.889 592.885 -14.971 584.654 C-15.406 582.102 -15.406 582.102 -14.406 579.102 C-14.185 579.315 -14.185 579.315 -13.068 580.396 C-4.459 588.69 4.193 596.661 13.738 603.867 C18.812 607.837 21.565 611.6 24.406 617.352 C30.094 628.328 37.393 637.035 49.594 641.102 C61.949 642.108 61.949 642.108 66.219 639.352 C69.355 636.38 71.223 634.213 72.594 630.102 C73.172 630.092 73.751 630.083 74.347 630.073 C90.225 629.751 103.495 628.571 115.602 617.219 C120.77 611.704 123.604 606.324 124.031 598.727 C123.698 590.658 120.188 583.739 114.664 577.961 C108.605 572.52 101.776 569.123 94.34 565.967 C84.129 561.623 76.585 556.747 68.594 549.102 C66.992 547.682 65.388 546.265 63.781 544.852 C50.861 533.08 38.305 520.976 25.963 508.601 C23.506 506.139 21.043 503.681 18.58 501.225 C16.989 499.633 15.399 498.041 13.809 496.449 C13.086 495.728 12.363 495.007 11.618 494.264 C7.601 490.229 3.758 486.099 0.05 481.778 C-1.679 479.787 -3.51 477.933 -5.406 476.102 C-7.944 473.602 -10.348 471.064 -12.656 468.352 C-16.369 464.015 -20.416 460.038 -24.495 456.05 C-25.816 454.751 -27.113 453.428 -28.406 452.102 C-28.406 451.772 -28.406 451.442 -28.406 451.102 C-27.195 450.822 -25.983 450.542 -24.734 450.254 C4.53 443.326 34.616 432.647 56.094 410.602 C56.919 409.777 57.744 408.952 58.594 408.102 C59.254 408.102 59.914 408.102 60.594 408.102 C60.85 407.521 61.107 406.941 61.371 406.344 C62.707 403.894 64.223 402.234 66.156 400.227 C76.038 389.255 83.517 375.547 88.465 361.656 C89.594 360.102 89.594 360.102 92.07 359.555 C92.59 359.521 92.59 359.521 95.219 359.352 C101.145 358.62 105.766 356.958 111.031 354.289 C111.693 353.957 112.354 353.626 113.036 353.284 C127.059 345.909 135.251 332.972 140.016 318.207 C143.746 304.621 143.085 288.91 136.168 276.555 C133.438 272.238 130.445 268.483 126.594 265.102 C125.624 264.235 124.655 263.369 123.656 262.477 C120.123 259.972 116.553 259.297 112.34 258.453 C111.708 258.325 111.708 258.325 108.513 257.674 C107.55 257.485 106.586 257.296 105.594 257.102 C105.554 256.203 105.514 255.303 105.474 254.377 C102.168 182.676 102.168 182.676 89.594 170.102 C84.222 169.634 84.222 169.634 81.889 171.37 C80.594 173.102 80.594 173.102 80.75 177.059 C81.589 182.69 82.835 188.239 84.094 193.789 C87.743 210.064 87.743 210.064 87.656 216.477 C87.647 217.351 87.638 218.225 87.629 219.125 C87.617 219.777 87.606 220.43 87.594 221.102 C74.26 216.708 63.082 208.215 52.594 199.102 C51.717 198.347 50.841 197.593 49.938 196.816 C44.713 192.229 39.969 187.502 35.594 182.102 C35.214 181.641 35.214 181.641 33.293 179.309 C14.494 156.026 1.404 126.604 0.869 96.378 C0.801 92.803 0.66 90.095 -1.406 87.102 C-4.525 85.542 -6.979 85.741 -10.406 86.102 C-12.888 89.297 -13.89 92.518 -14.836 96.416 C-23.066 129.823 -49.37 161.046 -78.321 178.847 C-97.746 190.534 -119.05 199.057 -141.406 203.102 C-141.784 203.175 -141.784 203.175 -143.697 203.546 C-156.323 205.926 -168.846 206.389 -181.656 206.414 C-182.413 206.418 -183.17 206.421 -183.95 206.425 C-192.276 206.446 -200.302 206.264 -208.406 204.102 C-206.378 201.932 -204.447 200.409 -201.852 198.973 C-201.161 198.583 -200.47 198.193 -199.758 197.791 C-199.023 197.378 -198.288 196.965 -197.531 196.539 C-186.504 190.189 -176.911 182.694 -167.547 174.055 C-165.813 172.473 -164.059 170.992 -162.219 169.539 C-148.963 158.051 -134.108 139.194 -129.406 122.102 C-129.594 118.352 -129.594 118.352 -130.406 115.102 C-133.406 113.102 -133.406 113.102 -135.793 113.012 C-139.829 114.695 -141.126 117.833 -143.219 121.539 C-144.094 123.012 -144.975 124.482 -145.859 125.949 C-146.291 126.665 -146.722 127.38 -147.166 128.118 C-149.86 132.428 -153.083 136.269 -156.406 140.102 C-157.044 140.849 -157.682 141.597 -158.34 142.367 C-169.245 154.818 -180.853 166.559 -194.406 176.102 C-194.944 176.489 -195.483 176.877 -196.037 177.277 C-214.57 190.579 -235.292 200.63 -256.406 209.102 C-257.257 209.445 -258.108 209.788 -258.985 210.142 C-282.397 219.446 -307.022 226.028 -331.656 231.164 C-332.345 231.31 -333.034 231.456 -333.745 231.607 C-343.298 233.612 -352.664 234.689 -362.406 235.102 C-362.478 234.555 -362.478 234.555 -362.844 231.789 C-363.406 228.102 -363.406 228.102 -364.406 225.102 C-370.646 224.622 -370.646 224.622 -373.781 226.602 C-377.55 232.4 -376.685 241.345 -376.969 248.102 C-376.99 248.584 -376.99 248.584 -377.1 251.027 C-377.205 253.385 -377.307 255.743 -377.406 258.102 C-378.108 258.2 -378.809 258.298 -379.531 258.398 C-389.553 259.978 -397.997 263.17 -404.227 271.551 C-410.617 281.136 -412.979 289.23 -412.906 300.727 C-412.903 301.255 -412.903 301.255 -412.889 303.929 C-412.537 319.431 -406.824 333.622 -396.094 344.977 C-387.62 352.919 -377.099 358.745 -365.438 359.539 C-361.82 360.121 -360.012 360.414 -357.566 363.19 C-356.081 366.024 -354.907 368.857 -353.781 371.852 C-352.885 373.959 -351.979 376.062 -351.062 378.16 C-350.622 379.182 -350.181 380.204 -349.727 381.257 C-336.035 410.752 -304.092 431.471 -274.594 442.352 C-264.379 446.014 -253.983 448.715 -243.406 451.102 C-243.406 451.762 -243.406 452.422 -243.406 453.102 C-244.873 454.531 -244.873 454.531 -246.902 456.199 C-251.414 460.038 -255.443 464.2 -259.469 468.539 C-260.137 469.251 -260.806 469.963 -261.494 470.697 C-265.355 474.828 -269.124 479.025 -272.812 483.311 C-274.961 485.724 -277.259 487.967 -279.565 490.228 C-281.34 492.034 -282.99 493.897 -284.635 495.822 C-288.339 500.081 -292.25 504.09 -296.246 508.074 C-296.972 508.801 -297.698 509.528 -298.445 510.276 C-299.969 511.801 -301.495 513.325 -303.021 514.847 C-305.338 517.158 -307.649 519.474 -309.959 521.791 C-311.45 523.282 -312.942 524.772 -314.434 526.262 C-314.774 526.603 -314.774 526.603 -316.496 528.33 C-320.406 532.222 -324.417 535.933 -328.613 539.516 C-330.403 541.098 -332.065 542.754 -333.719 544.477 C-338.259 549.101 -343.347 553.065 -348.406 557.102 C-349.144 557.763 -349.881 558.424 -350.641 559.105 C-354.493 561.886 -358.666 563.518 -363.031 565.352 C-375.103 570.613 -385.347 576.669 -392.281 588.227 C-394.841 595.032 -394.489 603.384 -391.719 610.039 C-386.497 619.94 -378.466 625.128 -367.931 628.523 C-362.48 629.772 -356.785 629.378 -351.227 629.189 C-348.418 629.207 -346.099 629.292 -343.406 630.102 C-341.574 632.016 -340.512 633.794 -339.385 636.185 C-338.406 638.102 -338.406 638.102 -335.719 640.102 C-327.099 642.704 -319.364 641.046 -311.406 637.102 C-303.102 631.944 -298.042 625.638 -293.957 616.849 C-289.767 608.089 -284.363 603.174 -276.672 597.391 C-271.494 593.494 -266.868 589.068 -262.191 584.594 C-261.606 584.035 -261.021 583.477 -260.418 582.902 C-259.907 582.409 -259.396 581.916 -258.87 581.407 C-257.406 580.102 -257.406 580.102 -254.406 578.102 C-255.685 585.418 -257.157 592.667 -258.781 599.914 C-260.545 607.911 -262.185 615.92 -263.656 623.977 C-263.819 624.861 -263.982 625.745 -264.15 626.656 C-265.912 636.486 -266.621 646.198 -267.012 656.168 C-267.049 657.02 -267.086 657.872 -267.125 658.75 C-267.155 659.515 -267.186 660.28 -267.217 661.068 C-267.406 663.102 -267.406 663.102 -268.406 666.102 C-285.744 666.761 -299.361 665.336 -312.651 653.022 C-315.96 650.716 -317.715 650.604 -321.711 650.598 C-322.927 650.581 -324.143 650.565 -325.396 650.548 C-326.678 650.545 -327.96 650.542 -329.281 650.539 C-353.411 650.07 -374.796 645.302 -392.781 628.227 C-398.119 622.658 -401.904 616.583 -404.953 609.516 C-407.268 605.496 -410.202 604.663 -414.514 603.405 C-415.427 603.16 -416.341 602.916 -417.281 602.664 C-431.2 598.47 -442.061 592.581 -452.406 582.102 C-452.967 581.563 -453.528 581.024 -454.105 580.469 C-464.023 570.109 -467.79 556.194 -467.78 542.255 C-467.503 532.119 -463.608 523.119 -459.555 513.953 C-455.114 502.926 -454.107 488.312 -458.031 476.914 C-458.771 475.285 -459.561 473.678 -460.406 472.102 C-460.784 471.35 -461.162 470.599 -461.551 469.824 C-464.739 464.034 -468.801 458.931 -472.844 453.727 C-481.077 443.097 -486.999 433.292 -490.406 420.102 C-490.582 419.5 -490.758 418.899 -490.939 418.279 C-491.966 413.491 -491.634 408.478 -491.656 403.602 C-491.667 403.041 -491.667 403.041 -491.719 400.203 C-491.776 387.826 -488.593 377.255 -483.406 366.102 C-483.022 365.266 -482.638 364.431 -482.242 363.57 C-476.62 352.395 -468.416 342.385 -460.66 332.621 C-434.658 299.795 -423.733 263.249 -419.748 222.115 C-419.405 219.087 -418.934 216.102 -418.406 213.102 C-417.786 213.318 -417.166 213.535 -416.527 213.758 C-404.337 217.591 -392.064 217.619 -380.406 212.102 C-372.131 207.619 -366.613 201.515 -362.406 193.102 C-359.473 194.483 -356.92 196.098 -354.281 197.977 C-344.453 204.476 -335.108 206.696 -323.406 205.102 C-312.47 202.421 -303.125 196.653 -296.691 187.316 C-289.959 175.713 -290.136 164.021 -293.34 151.254 C-294.784 146.985 -296.836 143.266 -299.199 139.441 C-300.406 137.102 -300.406 137.102 -300.406 133.102 C-298.937 131.715 -298.937 131.715 -296.906 130.414 C-287.874 124.024 -282.409 116.463 -279.828 105.688 C-277.774 93.096 -280.405 82.422 -287.785 72.098 C-293.497 65.064 -301.504 60.022 -310.406 58.102 C-328.266 57.031 -328.266 57.031 -336.656 61.227 C-338.406 62.102 -338.406 62.102 -340.406 62.102 C-340.527 61.709 -340.527 61.709 -341.141 59.723 C-341.476 58.672 -341.811 57.621 -342.156 56.539 C-342.481 55.507 -342.806 54.474 -343.141 53.41 C-344.567 49.681 -346.354 46.521 -348.406 43.102 C-299.982 -10.994 -229.595 -35.772 -158.151 -39.737 C-103.829 -42.075 -42.709 -37.084 0 0 Z " fill="#F89B3C" transform="translate(645.40625,74.8984375)"/>
<path d="M0 0 C1.597 2.963 2.767 6.011 3.901 9.176 C14.777 39.409 32.309 67.227 58 87 C58.924 87.74 59.849 88.48 60.801 89.242 C71.739 97.798 83.519 104.495 96.621 109.125 C99 110 99 110 100 111 C100.113 113.155 100.155 115.314 100.168 117.473 C100.172 118.139 100.176 118.805 100.181 119.491 C100.191 121.681 100.19 123.872 100.188 126.062 C100.187 126.436 100.187 126.436 100.187 128.328 C100.164 141.634 99.52 154.773 98 168 C97.893 168.949 97.786 169.899 97.675 170.877 C96.252 183.132 94.248 195.094 91 207 C90.892 207.398 90.892 207.398 90.348 209.414 C84.498 230.733 76.67 249.922 61 266 C60.167 266.895 59.335 267.789 58.477 268.711 C47.336 280.374 34.677 288.459 20 295 C19.347 295.295 18.694 295.589 18.021 295.893 C-1.627 304.584 -22.969 309.504 -44.125 312.875 C-45.299 313.066 -46.474 313.257 -47.684 313.454 C-72.351 317.107 -97.228 317.352 -122.107 317.316 C-125.529 317.311 -128.95 317.318 -132.372 317.336 C-192.789 317.654 -262.217 313.155 -308 269 C-308.365 268.666 -308.365 268.666 -310.215 266.977 C-342.592 236.587 -349.318 181.633 -352 140 C-352.092 137.081 -352.099 134.17 -352.062 131.25 C-352.058 130.541 -352.053 129.832 -352.049 129.102 C-352.037 127.401 -352.019 125.7 -352 124 C-351.063 123.841 -350.126 123.683 -349.16 123.52 C-305.293 115.999 -262.836 105.202 -222.156 86.933 C-220 86 -220 86 -217 85 C-215.318 85.973 -213.654 86.979 -212 88 C-173.329 101.236 -127.149 93.597 -90 79 C-89.293 78.724 -88.586 78.449 -87.857 78.165 C-72.314 72.002 -57.985 63.536 -45 53 C-44.442 52.549 -43.884 52.098 -43.31 51.633 C-26.335 37.809 -13.166 21.774 -2 3 C-1.34 2.01 -0.68 1.02 0 0 Z " fill="#FED6AC" transform="translate(635,203)"/>
<path d="M0 0 C7.503 2.107 14.787 4.69 22.087 7.412 C32.387 11.251 42.717 14.963 53.125 18.5 C92.183 31.925 92.183 31.925 101.75 39.188 C108.611 44.38 108.611 44.38 112.91 43.809 C116.251 42.516 119.105 40.505 122.084 38.538 C140.565 26.723 164.107 20.932 184.697 13.612 C190.177 11.66 195.644 9.675 201.102 7.66 C201.807 7.4 202.512 7.14 203.239 6.872 C206.541 5.652 209.841 4.428 213.139 3.199 C214.286 2.775 215.432 2.351 216.613 1.914 C217.611 1.542 218.61 1.171 219.638 0.788 C222 0 222 0 224 0 C228.163 14.653 229.366 29.172 229.25 44.312 C229.247 45.028 229.244 45.744 229.242 46.481 C229.191 57.745 228.772 68.862 227 80 C226.817 81.186 226.634 82.372 226.445 83.594 C224.575 94.031 221.535 104.191 218.621 114.375 C218.341 115.36 218.06 116.344 217.771 117.358 C217.156 119.464 216.491 121.556 215.809 123.641 C213.173 134.592 213.587 148.029 219 158 C219.351 158.66 219.701 159.32 220.062 160 C223.562 165.638 229.155 169.077 235 172 C242.189 172.58 242.189 172.58 245.055 170.531 C247.747 167.028 248.871 163.351 250.25 159.188 C255.069 145.483 261.125 133.838 271 123 C271.624 122.295 272.248 121.59 272.891 120.863 C291.644 100.809 320.611 91.356 347.445 89.8 C363.553 89.266 363.553 89.266 369 90 C369.66 90.66 370.32 91.32 371 92 C370.674 92.548 370.348 93.096 370.012 93.66 C365.562 101.733 364.136 110.047 362.666 119.043 C359.244 139.848 350.526 156.95 333.25 169.625 C324.56 175.449 315.73 179.387 305.617 182.043 C303 183 303 183 301 186 C300.456 191.224 300.456 191.224 302.082 193.543 C304.837 195.636 307.693 196.327 311 197.312 C322.604 200.991 331.347 206.362 340 215 C340.626 215.615 341.253 216.23 341.898 216.863 C354.71 230.4 359.644 248.049 362.569 265.973 C363.634 272.452 365.165 278.696 367 285 C331.449 285.856 331.449 285.856 316 281 C315.203 280.753 314.406 280.507 313.585 280.252 C287.035 271.79 266.534 255.123 253.57 230.258 C250.484 223.797 248.354 217.131 246.309 210.285 C244.214 205.026 244.214 205.026 241 203 C233.472 201.724 226.61 204.011 219.5 206.25 C172.577 219.955 120.157 217.778 76 196 C74.952 195.484 73.904 194.969 72.824 194.438 C50.906 183.029 34.227 165.532 21 145 C20.625 144.417 20.249 143.835 19.862 143.234 C-4.791 104.262 -11.165 49.995 -1.452 5.49 C-0.996 3.653 -0.503 1.825 0 0 Z " fill="#63C7B7" transform="translate(398,695)"/>
<path d="M0 0 C6.517 5.27 12.175 11.222 17.774 17.443 C29.059 29.93 40.805 41.969 52.721 53.852 C55.03 56.155 57.334 58.464 59.637 60.773 C61.132 62.269 62.629 63.763 64.125 65.258 C64.799 65.934 65.473 66.61 66.168 67.307 C70.087 71.207 74.113 74.924 78.307 78.527 C80.302 80.263 82.163 82.098 84 84 C87.091 87.127 90.261 90.083 93.602 92.941 C95.531 94.598 97.437 96.274 99.336 97.965 C100.557 99.039 101.778 100.114 103 101.188 C103.285 101.443 103.285 101.443 104.725 102.737 C110.951 108.166 117.83 111.023 125.5 113.875 C131.386 116.162 136.382 118.644 141 123 C141.597 123.545 142.194 124.091 142.809 124.652 C145.696 127.593 147.386 129.872 147.625 134.062 C146.757 139.532 144.664 142.382 140.75 146.188 C134.173 150.522 128.304 151.452 120.625 151.25 C119.792 151.241 118.96 151.232 118.102 151.223 C112.948 151.141 107.897 150.825 102.812 149.926 C101 150 101 150 99.293 151.156 C97.619 153.544 97.5 155.294 97.312 158.188 C97.28 158.638 97.28 158.638 97.113 160.918 C97.076 161.605 97.039 162.292 97 163 C95 163.875 95 163.875 92 164 C83.399 159.447 77.663 152.141 74.375 143.188 C71.208 135.283 66.363 131.229 59.643 126.228 C51.262 119.966 43.458 112.995 35.891 105.785 C34.541 104.511 33.181 103.25 31.812 101.996 C29.477 99.854 27.175 97.68 24.875 95.5 C24.14 94.837 23.405 94.174 22.648 93.49 C16.83 87.872 15.423 82.82 14 75 C13.539 72.829 13.059 70.662 12.579 68.495 C12.058 66.145 11.547 63.794 11.039 61.441 C10.868 60.65 10.697 59.859 10.521 59.043 C10.171 57.421 9.824 55.798 9.479 54.174 C8.973 51.794 8.456 49.417 7.938 47.039 C7.862 46.68 7.862 46.68 7.483 44.861 C6.526 40.523 5.061 36.92 3 33 C3 32.34 3 31.68 3 31 C-0.312 30.75 -0.312 30.75 -4 31 C-5.938 33 -5.938 33 -7 35 C-7.531 34.732 -8.062 34.464 -8.609 34.188 C-11.477 32.763 -14.357 31.371 -17.25 30 C-18.328 29.484 -19.405 28.969 -20.516 28.438 C-35.107 22.418 -53.497 22.977 -68 29 C-76.854 32.838 -83.617 37.874 -90.441 44.547 C-92.547 46.566 -94.623 48.322 -97 50 C-97.487 49.455 -97.975 48.909 -98.477 48.348 C-111.938 34.029 -129.667 25.363 -149.404 24.666 C-161.869 24.449 -172.611 26.806 -183.109 33.828 C-185 35 -185 35 -187 35 C-187.433 34.34 -187.866 33.68 -188.312 33 C-190 31 -190 31 -192.375 30.25 C-195.841 31.24 -196.943 33.073 -198.747 36.093 C-201.643 42.812 -202.465 50.265 -203.688 57.438 C-204.129 59.931 -204.576 62.424 -205.023 64.916 C-205.298 66.458 -205.568 68.001 -205.834 69.544 C-206.083 70.979 -206.341 72.411 -206.609 73.842 C-206.877 75.32 -207.111 76.804 -207.317 78.292 C-208.355 84.565 -210.824 87.8 -215.371 92.125 C-215.69 92.441 -215.69 92.441 -217.301 94.04 C-219.331 96.043 -221.384 98.021 -223.438 100 C-224.782 101.327 -226.125 102.655 -227.467 103.984 C-234.671 111.079 -242.01 117.792 -250 124 C-264.702 135.426 -264.702 135.426 -268.008 145.242 C-270.641 152.56 -277.02 159.51 -284 163 C-287.063 163.125 -287.063 163.125 -290 163 C-291.904 161.096 -291.426 157.715 -291.621 155.129 C-292 153 -292 153 -294 151 C-296.822 150.836 -296.822 150.836 -300.406 150.945 C-301.708 150.97 -303.01 150.994 -304.352 151.02 C-306.414 151.069 -308.476 151.124 -310.538 151.192 C-328.928 151.757 -328.928 151.757 -335.961 145.161 C-338.753 142.047 -340.831 139.485 -341.312 135.25 C-340.698 128.864 -336.233 124.705 -331.527 120.727 C-325.718 116.758 -318.842 114.32 -312.215 112.043 C-303.055 108.575 -296.81 101.638 -289.967 94.888 C-287.313 92.341 -284.539 89.945 -281.757 87.541 C-279.745 85.777 -277.858 83.924 -276 82 C-273.582 79.495 -271.068 77.185 -268.426 74.922 C-263.734 70.826 -259.33 66.475 -254.934 62.066 C-254.096 61.23 -253.258 60.393 -252.395 59.531 C-250.635 57.771 -248.876 56.011 -247.118 54.249 C-244.445 51.57 -241.767 48.897 -239.088 46.225 C-237.369 44.506 -235.651 42.786 -233.934 41.066 C-233.142 40.277 -232.35 39.487 -231.534 38.673 C-227.352 34.473 -223.327 30.198 -219.474 25.694 C-217.429 23.344 -215.231 21.172 -213 19 C-210.01 16.051 -207.148 13.082 -204.438 9.875 C-198.342 2.825 -191.189 -4.378 -182 -7 C-175.527 -7.333 -169.14 -6.83 -162.711 -6.125 C-140.367 -3.856 -118.216 -2.598 -95.75 -2.625 C-94.608 -2.624 -93.467 -2.622 -92.29 -2.621 C-68.995 -2.624 -45.965 -4.263 -22.887 -7.414 C-12.567 -8.698 -8.288 -6.271 0 0 Z " fill="#FED7AC" transform="translate(607,539)"/>
<path d="M0 0 C8.086 4.808 12.63 11.337 15.227 20.299 C15.706 22.525 15.801 24.491 15.785 26.766 C15.784 27.165 15.784 27.165 15.775 29.188 C15.771 29.6 15.771 29.6 15.75 31.688 C15.745 32.528 15.741 33.368 15.736 34.234 C15.725 36.302 15.707 38.37 15.688 40.438 C18.797 41.23 18.797 41.23 22.688 41.438 C25.094 39.944 26.875 38.616 28.938 36.75 C36.441 30.511 44.167 26.502 54.211 26.996 C61.847 28.357 67.523 32.405 72.281 38.398 C76.514 44.536 77.56 50.26 76.324 57.594 C74.294 65.438 68.905 71.592 62.262 76.074 C57.053 78.841 51.669 80.435 45.938 81.762 C43.688 82.438 43.688 82.438 41.688 84.438 C41.062 86.75 41.062 86.75 41.688 89.438 C43.49 90.862 45.397 91.932 47.395 93.066 C55.316 97.803 61.452 104.459 64 113.438 C65.451 120.579 65.264 126.95 61.688 133.438 C57.439 139.28 52.98 143.987 45.688 145.438 C37.543 146.049 30.481 146.341 23.688 141.438 C23.097 141.037 22.507 140.636 21.898 140.223 C17.068 136.552 14.225 131.914 11.168 126.73 C9.688 124.438 9.688 124.438 7.688 123.438 C4.688 123.25 4.688 123.25 1.688 123.438 C-0.815 125.94 -0.948 127.626 -1.688 131.062 C-3.751 139.689 -6.976 147.518 -14.328 152.918 C-21.611 157.223 -29.035 157.575 -37.312 156.438 C-44.231 154.01 -49.52 148.105 -52.688 141.625 C-55.131 129.161 -51.527 119.698 -44.738 109.297 C-43.108 106.026 -42.798 104.044 -43.312 100.438 C-46.864 98.07 -48.658 98.153 -52.875 98 C-63.444 97.337 -71.792 95.329 -79.312 87.438 C-83.539 81.463 -85.463 75.711 -84.312 68.438 C-82.813 61.148 -79.617 55.563 -73.543 51.152 C-70.214 49.129 -67.18 47.806 -63.312 47.438 C-63.001 47.406 -63.001 47.406 -61.426 47.246 C-53.36 46.797 -45.988 49.567 -38.875 53.188 C-36.071 54.555 -34.39 54.865 -31.312 54.438 C-29.312 52.438 -29.312 52.438 -28.938 49.875 C-29.367 45.938 -30.613 43.114 -32.34 39.586 C-35.537 32.525 -35.522 23.104 -33.594 15.664 C-30.525 8.413 -25.939 2.977 -18.906 -0.645 C-12.749 -2.824 -5.983 -2.667 0 0 Z " fill="#FDA1B5" transform="translate(275.3125,119.5625)"/>
<path d="M0 0 C0.33 0.34 0.33 0.34 2 2.062 C2.999 3.042 3.999 4.022 5 5 C5.512 5.531 6.024 6.062 6.551 6.609 C19.606 19.231 37.938 24.171 55.562 24.25 C56.679 24.271 57.796 24.291 58.947 24.312 C74.701 24.386 87.454 19.776 99 9 C101.904 17.592 104.157 26.321 106.312 35.125 C106.591 36.24 106.87 37.355 107.157 38.504 C107.411 39.557 107.664 40.61 107.926 41.695 C108.157 42.644 108.388 43.593 108.626 44.571 C109 47 109 47 108 50 C106.034 51.065 106.034 51.065 103.352 52.066 C102.309 52.46 101.266 52.855 100.191 53.26 C99.014 53.69 97.837 54.12 96.625 54.562 C95.372 55.029 94.12 55.496 92.868 55.964 C84.078 59.226 75.235 62.338 66.391 65.445 C65.837 65.64 65.837 65.64 63.035 66.625 C57.473 68.579 51.908 70.524 46.338 72.453 C35.123 76.356 24.062 80.454 13.161 85.169 C12.482 85.463 11.803 85.756 11.104 86.058 C9.605 86.729 8.121 87.431 6.648 88.155 C0.723 91.005 0.723 91.005 -2.605 90.98 C-5.947 89.612 -9.133 88.005 -12.32 86.316 C-20.308 82.212 -28.437 78.978 -36.875 75.938 C-38.361 75.394 -39.846 74.85 -41.332 74.305 C-55.508 69.12 -69.732 64.062 -83.962 59.025 C-100.234 53.258 -100.234 53.258 -108 50 C-107.535 42.115 -105.925 34.624 -104.044 26.965 C-103.557 24.978 -103.086 22.987 -102.615 20.996 C-102.463 20.368 -102.463 20.368 -101.691 17.188 C-101.415 16.047 -101.139 14.906 -100.854 13.73 C-100 11 -100 11 -98 9 C-97.466 9.519 -96.933 10.039 -96.383 10.574 C-83.821 22.332 -69.777 25.869 -52.875 25.34 C-32.212 24.191 -14.16 14.886 0 0 Z " fill="#FDD7AC" transform="translate(510,630)"/>
<path d="M0 0 C13.955 10.582 13.955 10.582 16.289 17.778 C16.624 24.803 13.8 29.52 9.289 34.778 C-2.882 46.793 -18.96 52.945 -35.898 53.153 C-46.283 53.037 -54.722 50.591 -62.711 43.778 C-69.992 35.827 -71.359 28.494 -71.086 17.958 C-70.753 12.603 -69.123 8.907 -65.711 4.778 C-65.249 4.17 -64.788 3.561 -64.312 2.935 C-48.132 -15.792 -18.625 -13.299 0 0 Z " fill="#C4B5F4" transform="translate(487.7109375,588.2216796875)"/>
<path d="M0 0 C7.595 5.699 16.061 13.304 18 23 C18.787 31.342 17.663 38.938 12.438 45.688 C5.292 53.312 -3.847 56.881 -14.137 57.336 C-32.045 57.627 -47.775 54.448 -61.277 41.777 C-65.742 37.171 -68.978 33.011 -69.395 26.395 C-68.572 21.4 -65.155 17.792 -62 14 C-61.52 13.359 -61.041 12.719 -60.547 12.059 C-47.249 -5.022 -18.762 -11.917 0 0 Z " fill="#C4B5F4" transform="translate(586,583)"/>
<path d="M0 0 C7.208 5.5 12.116 14.903 13.965 23.734 C15.183 37.555 13.97 50.21 5.668 61.762 C0.811 67.387 -4.847 71.075 -12.277 72.02 C-20.088 72.494 -26.209 70.099 -32.078 64.938 C-41.138 55.279 -43.57 43.258 -43.348 30.363 C-42.375 19.074 -37.971 9.103 -29.66 1.359 C-20.413 -5.957 -9.883 -6.146 0 0 Z " fill="#422104" transform="translate(411.03515625,344.265625)"/>
<path d="M0 0 C8.681 6.48 13.614 14.609 15.867 25.305 C17.408 37.663 16.84 50.334 9.438 60.812 C4.102 67.17 -0.976 71.852 -9.512 72.625 C-17.594 72.95 -22.878 71.934 -28.875 66.422 C-33.505 61.553 -36.568 56.715 -38.75 50.375 C-39.163 49.199 -39.575 48.024 -40 46.812 C-42.853 33.819 -40.948 20.796 -33.938 9.5 C-25.768 -1.774 -12.904 -8.076 0 0 Z " fill="#422103" transform="translate(635.75,343.625)"/>
<path d="M0 0 C7.57 4.518 11.49 11.138 14.219 19.324 C14.994 28.007 12.553 35.894 7.031 42.699 C1.396 48.489 -3.92 51.572 -12.094 52.012 C-20.674 51.65 -28.442 48.272 -34.344 41.949 C-40.338 33.78 -40.921 25.236 -39.781 15.324 C-37.654 9.19 -32.898 5.084 -27.781 1.324 C-26.75 0.54 -25.719 -0.243 -24.656 -1.051 C-17.219 -5.028 -7.347 -3.399 0 0 Z " fill="#412206" transform="translate(286.78125,176.67578125)"/>
<path d="M0 0 C6.623 -0.272 9.959 0.851 15 5 C22.768 14.028 22.753 25.67 22.164 36.965 C21.325 47.374 15.668 57.293 8.125 64.398 C2.508 68.632 -4.03 71.902 -11 73 C-10.769 71.881 -10.539 70.762 -10.301 69.609 C-9.17 64.079 -8.082 58.54 -7 53 C-6.786 51.913 -6.572 50.827 -6.352 49.708 C-3.129 33.166 -0.948 16.83 0 0 Z " fill="#FCD7AD" transform="translate(750,348)"/>
<path d="M0 0 C0.06 0.505 0.06 0.505 0.364 3.06 C2.777 23.164 5.651 42.811 10.436 62.503 C11.149 65.66 11.62 68.787 12 72 C2.574 71.59 -4.958 65.894 -11.25 59.184 C-19.551 48.825 -22.06 35.227 -20.719 22.285 C-19.585 14.336 -16.979 8.392 -10.875 3.062 C-7.077 0.338 -4.565 -0.123 0 0 Z " fill="#FCD8AE" transform="translate(268,349)"/>
<path d="M0 0 C2.677 1.401 5.197 2.944 7.73 4.59 C13.969 8.466 22.863 7.838 30 7 C33.717 5.798 36.786 4.2 40 2 C43.496 -0.33 44.887 -0.588 49 0 C51.554 2.096 52.833 3.593 53.23 6.938 C53.019 11.081 52.272 12.709 49.375 15.812 C38.595 23.425 24.77 24.219 12 23 C3.783 21.412 -4.109 18.863 -9.5 12.125 C-10.423 8.203 -9.921 4.503 -7.812 1.062 C-4.873 -0.661 -3.404 -0.557 0 0 Z " fill="#452406" transform="translate(489,439)"/>
<path d="M0 0 C3.747 2.265 7.022 5.044 9 9 C9.404 13.829 9.644 18.407 7.812 22.938 C3.387 27.973 0.145 29.709 -6.375 30.312 C-11.734 29.851 -14.377 27.367 -18.375 24 C-21.013 19.129 -21.066 14.391 -20 9 C-15.135 0.837 -9.31 -1.577 0 0 Z " fill="#FA9F30" transform="translate(279,186)"/>
</svg>
