<?xml version="1.0" encoding="UTF-8"?>
<!-- Generator: visioncortex VTracer 0.6.12 -->
<svg version="1.1" xmlns="http://www.w3.org/2000/svg" width="1024" height="1024">
<path d="M0 0 C337.92 0 675.84 0 1024 0 C1024 337.92 1024 675.84 1024 1024 C686.08 1024 348.16 1024 0 1024 C0 686.08 0 348.16 0 0 Z " fill="#FEFEFE" transform="translate(0,0)"/>
<path d="M0 0 C3.092 0.011 6.184 0 9.277 -0.013 C28.065 -0.027 46.708 1.194 65.218 4.511 C66.434 4.725 67.65 4.94 68.903 5.161 C79.703 7.145 90.17 9.82 100.593 13.261 C100.953 13.377 100.953 13.377 102.773 13.967 C115.182 18.055 127.849 23.468 137.281 32.698 C142.704 37.321 148.465 37.199 155.288 37.617 C188.978 39.734 218.904 59.477 242.593 82.261 C243.346 82.939 244.099 83.617 244.875 84.315 C267.652 105.524 282.577 138.054 291.593 167.261 C291.822 167.98 292.051 168.699 292.287 169.44 C300.048 194.255 301.891 220.547 303.575 246.338 C306.141 285.582 312.889 318.522 338.663 349.348 C360.196 375.141 373.645 399.779 371.593 434.261 C369.533 452.548 359.242 469.15 346.906 482.323 C339.287 490.56 335.956 499.302 336.164 510.456 C336.636 518.472 339.09 526.239 341.183 533.952 C346.476 553.579 343.98 571.615 334.05 589.202 C325.351 603.952 312.394 616.501 295.777 621.3 C283.946 624.755 283.946 624.755 281.031 630.011 C280.645 630.868 280.26 631.725 279.863 632.608 C277.473 637.6 273.436 641.346 269.593 645.261 C268.99 645.889 268.387 646.516 267.765 647.163 C255.618 658.808 237.424 665.388 220.796 665.366 C219.507 665.381 218.218 665.396 216.89 665.411 C214.871 665.434 212.854 665.448 210.835 665.436 C201.176 665.392 195.465 666.788 187.593 672.261 C174.036 678.148 158.356 681.139 143.593 680.261 C143.567 681.184 143.542 682.107 143.515 683.058 C142.636 703.271 137.143 722.132 131.378 741.44 C129.041 749.843 127.526 759.983 131.468 768.073 C133.593 771.261 133.593 771.261 135.593 772.261 C135.739 771.971 135.739 771.971 136.476 770.508 C144.118 755.411 151.93 742.628 163.593 730.261 C164.206 729.584 164.818 728.907 165.449 728.21 C186.21 706.12 218.43 694.394 248.238 693.15 C278.019 692.532 278.019 692.532 286.406 696.823 C289.096 699.821 289.763 701.796 289.964 705.784 C289.383 709.663 287.355 712.334 285.214 715.558 C281.185 722.277 279.791 730.187 278.2 737.779 C272.12 766.722 257.48 790.866 232.378 807.351 C230.158 808.874 228.382 810.273 226.593 812.261 C227.248 812.699 227.903 813.137 228.578 813.589 C241.007 822.226 250.422 831.843 257.593 845.261 C258.051 846.095 258.508 846.929 258.98 847.788 C263.172 856.16 265.379 865.321 267.801 874.323 C268.623 877.37 269.465 880.411 270.308 883.452 C270.863 885.492 271.416 887.533 271.968 889.573 C272.231 890.521 272.494 891.469 272.765 892.445 C276.196 905.386 276.196 905.386 272.984 911.147 C263.525 919.509 243.247 916.908 231.593 916.261 C197.541 913.555 165.579 900.035 142.593 874.261 C132.998 862.652 126.157 850.184 123.593 835.261 C122.981 835.482 122.37 835.704 121.739 835.932 C107.172 841.145 92.93 845.139 77.593 847.261 C76.504 847.412 75.415 847.562 74.292 847.718 C71.384 848.026 68.517 848.171 65.593 848.261 C64.906 848.292 64.219 848.323 63.512 848.355 C16.839 850.309 -35.14 833.351 -69.942 801.515 C-71.099 800.433 -72.254 799.348 -73.407 798.261 C-73.951 797.754 -74.494 797.247 -75.055 796.725 C-100.328 773.012 -116.379 741.98 -123.407 708.261 C-123.621 707.387 -123.835 706.513 -124.055 705.612 C-126.008 697.321 -126.056 688.74 -126.407 680.261 C-127.009 680.282 -127.612 680.302 -128.233 680.324 C-144.834 680.796 -167.16 678.139 -180.192 666.692 C-182.932 664.921 -184.367 664.974 -187.598 665.144 C-188.107 665.162 -188.107 665.162 -190.682 665.253 C-191.225 665.275 -191.225 665.275 -193.969 665.386 C-215.611 665.77 -235.319 659.2 -251.836 644.854 C-257.516 639.123 -263.705 632.522 -266.723 624.964 C-268.407 622.261 -268.407 622.261 -271.997 620.976 C-273.442 620.695 -274.892 620.437 -276.344 620.198 C-277.889 619.888 -279.432 619.57 -280.973 619.245 C-281.352 619.166 -281.352 619.166 -283.267 618.763 C-301.082 614.584 -315.637 602.277 -325.407 587.261 C-334.188 571.417 -337.209 554.383 -332.844 536.698 C-331.421 531.894 -329.641 527.404 -327.619 522.824 C-323.638 513.767 -321.192 506.09 -324.383 496.249 C-327.639 488.966 -332.514 483.275 -337.727 477.351 C-352.828 460.135 -359.801 438.781 -358.825 415.979 C-356.867 388.997 -341.273 365.84 -324.907 345.323 C-302.347 316.883 -287.915 280.303 -288.106 243.573 C-288.456 240.883 -289.333 238.812 -290.407 236.323 C-294.056 227.07 -294.092 215.388 -290.407 206.136 C-289.773 204.828 -289.12 203.527 -288.407 202.261 C-289.469 201.764 -290.531 201.268 -291.625 200.757 C-305.711 194.051 -313.366 188.074 -319.407 173.261 C-321.989 163.336 -320.723 153.481 -316.407 144.261 C-310.393 134.258 -301.494 127.675 -290.407 124.261 C-286.578 123.308 -283.035 123.155 -279.094 123.198 C-278.026 123.207 -276.957 123.216 -275.856 123.226 C-275.452 123.231 -275.452 123.231 -273.407 123.261 C-273.469 122.023 -273.53 120.786 -273.594 119.511 C-273.52 107.642 -269.234 96.664 -261.231 87.87 C-251.912 79.179 -243.121 76.689 -230.614 76.901 C-223.465 77.285 -217.284 80.342 -211.407 84.261 C-211.01 83.828 -210.613 83.396 -210.204 82.951 C-193.509 64.812 -176.008 49.322 -154.407 37.261 C-153.746 36.889 -153.085 36.516 -152.404 36.133 C-106.022 10.194 -52.763 -0.217 0 0 Z " fill="#482D09" transform="translate(493.40673828125,19.7392578125)"/>
<path d="M0 0 C1.173 -0.007 2.346 -0.014 3.555 -0.021 C112.209 -0.527 112.209 -0.527 145.117 31.715 C145.337 31.94 145.337 31.94 146.449 33.078 C149.444 36.073 151.913 36.322 155.969 36.414 C190.401 37.452 217.895 51.61 242.574 75.203 C243.306 75.872 244.039 76.541 244.793 77.23 C286.551 116.71 296.533 178.053 300.884 232.276 C303.928 270.143 309.08 307.273 335.163 336.583 C339.532 341.596 343.542 346.919 347.574 352.203 C348.012 352.771 348.449 353.34 348.899 353.925 C357.904 365.711 365.674 378.475 368.574 393.203 C368.801 394.317 369.028 395.431 369.262 396.578 C370.833 414.81 367.305 431.271 355.66 445.738 C354.104 447.577 352.521 449.394 350.926 451.199 C340.603 462.921 333.015 474.584 333.32 490.746 C333.977 499.684 335.755 508.474 338.218 517.08 C342.376 531.885 342.674 547.272 335.574 561.203 C333.47 564.751 331.158 567.991 328.574 571.203 C328.079 571.849 327.584 572.495 327.074 573.16 C320.233 581.693 310.937 587.147 300.625 590.531 C291.705 593.488 286.56 595.855 281.574 604.203 C271.191 619.745 258.011 628.541 239.688 632.52 C231.341 634.078 222.901 633.72 214.574 632.203 C207.876 631.325 207.876 631.325 204.52 633.59 C203.816 634.184 203.112 634.778 202.387 635.391 C190.118 645.719 172.1 647.548 156.574 647.203 C156.535 646.795 156.535 646.795 156.334 644.733 C154.323 624.681 151.246 605.056 147.129 585.324 C146.953 584.471 146.777 583.618 146.596 582.738 C146.264 581.132 145.925 579.528 145.578 577.926 C144.463 572.538 144.463 572.538 145.574 569.203 C146.313 570.037 147.051 570.871 147.812 571.73 C154.278 578.936 160.975 585.177 168.574 591.203 C174.641 596.043 176.766 600.753 179.336 608.043 C182.6 616.374 188.38 621.779 196.387 625.516 C204.531 627.272 210.16 626.499 217.445 622.395 C219.574 621.203 219.574 621.203 222.574 620.203 C223.762 618.141 223.762 618.141 224.574 616.203 C225.185 616.19 225.185 616.19 228.273 616.125 C242.773 615.683 255.228 614.23 266.062 603.766 C270.538 598.908 272.335 593.719 272.949 587.266 C272.585 579.814 270.04 573.55 264.91 568.117 C258.41 562.791 250.347 559.649 242.387 557.203 C229.707 553.172 220.251 543.953 210.574 535.203 C209.72 534.432 208.866 533.66 207.986 532.866 C200.55 526.106 193.353 519.145 186.246 512.043 C185.12 510.92 183.994 509.797 182.867 508.674 C180.536 506.349 178.207 504.022 175.879 501.694 C172.892 498.706 169.897 495.725 166.901 492.746 C164.587 490.443 162.277 488.135 159.968 485.826 C158.865 484.723 157.759 483.623 156.652 482.523 C155.119 480.999 153.591 479.469 152.065 477.937 C151.196 477.069 150.326 476.2 149.43 475.306 C147.574 473.203 147.574 473.203 147.574 471.203 C146.914 471.203 146.254 471.203 145.574 471.203 C144.023 469.664 144.023 469.664 142.262 467.578 C141.954 467.216 141.954 467.216 140.395 465.383 C140.094 465.023 140.094 465.023 138.574 463.203 C138.056 462.587 137.538 461.971 137.004 461.336 C135.855 459.963 134.713 458.584 133.574 457.203 C138.854 455.428 144.146 453.698 149.453 452.004 C184.452 440.736 213.122 423.576 230.848 389.996 C231.554 388.61 232.255 387.22 232.949 385.828 C233.118 385.493 233.118 385.493 233.975 383.794 C235.751 380.182 236.997 376.691 238.074 372.828 C238.965 370.746 238.965 370.746 240.574 369.203 C243.736 368.52 246.725 368.211 249.943 368.005 C260.189 367.208 271.395 361.963 278.195 354.098 C289.121 339.087 292.599 322.098 290.113 303.812 C287.705 292.99 282.898 283.511 273.574 277.203 C268.36 273.996 263.313 272.905 257.27 272.098 C256.014 271.927 254.759 271.757 253.465 271.581 C252.511 271.457 251.557 271.332 250.574 271.203 C250.479 270.118 250.384 269.033 250.286 267.916 C247.059 231.433 247.059 231.433 244.012 213.391 C243.814 212.221 243.617 211.052 243.413 209.847 C239.57 188.129 239.57 188.129 235.574 185.203 C229.455 184.548 229.455 184.548 226.875 186.468 C224.471 189.675 225.226 193.37 225.574 197.203 C226.049 200.162 226.724 203.047 227.449 205.953 C229.649 215.291 231.745 224.56 231.574 234.203 C227.061 233.646 223.753 231.771 220.012 229.328 C219.405 228.936 218.798 228.544 218.172 228.14 C212.645 224.458 207.876 220.181 203.098 215.586 C200.574 213.203 200.574 213.203 198.238 211.508 C197.689 211.077 197.14 210.647 196.574 210.203 C196.574 209.543 196.574 208.883 196.574 208.203 C195.914 208.203 195.254 208.203 194.574 208.203 C191.802 205.272 189.367 202.065 186.889 198.883 C186.031 197.786 185.163 196.696 184.287 195.613 C166.853 174.049 157.638 148.68 150.574 122.203 C149.922 122.078 149.27 121.954 148.599 121.825 C147.044 121.528 145.489 121.231 143.934 120.934 C141.574 121.203 141.574 121.203 139.441 123.246 C137.395 126.488 136.144 129.717 134.949 133.328 C128.356 151.933 118.107 167.896 104.574 182.203 C103.765 183.089 102.955 183.974 102.121 184.887 C94.755 192.66 86.567 198.463 77.574 204.203 C76.576 204.852 75.579 205.5 74.551 206.168 C48.181 222.455 15.881 230.421 -14.874 230.333 C-17.119 230.328 -19.363 230.333 -21.607 230.34 C-23.051 230.339 -24.494 230.338 -25.938 230.336 C-27.231 230.335 -28.525 230.334 -29.858 230.333 C-33.143 230.213 -36.204 229.829 -39.426 229.203 C-37.935 224.912 -34.828 223.288 -31.113 221.078 C-18.713 213.381 -7.964 204.267 2.574 194.203 C3.229 193.601 3.884 192.999 4.559 192.379 C17.934 179.736 28.972 162.745 37.324 146.453 C37.492 146.132 37.492 146.132 38.341 144.504 C40.837 139.409 41.369 135.587 39.574 130.203 C36.72 129.574 34.455 129.117 31.574 129.203 C26.578 132.415 24.803 137.606 22.289 142.832 C15.105 156.954 5.036 169.494 -5.613 181.141 C-5.845 181.394 -5.845 181.394 -7.015 182.678 C-19.657 196.216 -35.302 207.234 -51.426 216.203 C-52.113 216.596 -52.8 216.988 -53.507 217.393 C-86.316 236.073 -126.284 248.516 -164.238 248.328 C-165.193 248.326 -166.148 248.324 -167.131 248.322 C-174.27 248.279 -181.323 247.954 -188.426 247.203 C-192.096 252.005 -192.399 257.202 -193.113 263.016 C-193.243 263.995 -193.372 264.974 -193.506 265.982 C-193.823 268.388 -194.129 270.795 -194.426 273.203 C-195.32 273.229 -196.215 273.255 -197.137 273.281 C-209.227 273.848 -217.293 276.101 -226.16 284.578 C-235.706 295.638 -237.359 308.959 -236.625 323.013 C-235.368 336.8 -229.67 349.84 -219.426 359.203 C-208.699 367.204 -197.627 369.818 -184.426 370.203 C-184.085 371.124 -183.745 372.044 -183.395 372.992 C-171.991 403.088 -150.141 428.882 -120.523 442.434 C-108.093 447.878 -95.434 452.357 -82.426 456.203 C-85.018 459.524 -87.584 462.423 -90.816 465.125 C-96.274 469.848 -101.316 474.982 -106.398 480.1 C-108.213 481.928 -110.031 483.753 -111.851 485.577 C-115.712 489.449 -119.569 493.326 -123.426 497.203 C-127.9 501.701 -132.376 506.197 -136.856 510.689 C-138.635 512.475 -140.411 514.263 -142.187 516.052 C-147.76 521.65 -153.4 527.088 -159.426 532.203 C-161.159 533.803 -162.889 535.406 -164.613 537.016 C-175.907 547.264 -187.157 555.913 -202.051 560.203 C-211.533 562.985 -218.148 566.592 -223.367 575.152 C-226.519 581.257 -226.275 588.372 -224.812 594.969 C-221.807 603.602 -215.687 608.427 -207.676 612.379 C-200.173 615.127 -193.311 615.531 -185.404 615.418 C-178.812 615.556 -176.037 617.71 -171.426 622.203 C-165.714 625.776 -160.113 627.191 -153.426 626.203 C-145.545 624.197 -139.598 620.167 -134.832 613.59 C-133.286 610.966 -132.365 608.389 -131.363 605.516 C-127.318 595.139 -117.65 587.945 -109.348 580.902 C-105.527 577.525 -101.993 573.844 -98.426 570.203 C-96.84 573.375 -98.257 576.366 -99.086 579.664 C-99.469 581.25 -99.852 582.837 -100.235 584.424 C-100.337 584.844 -100.337 584.844 -100.855 586.971 C-105.696 606.911 -109.345 626.923 -112.426 647.203 C-120.251 647.375 -127.688 647.232 -135.363 645.641 C-135.788 645.554 -135.788 645.554 -137.936 645.117 C-146.661 643.181 -155.155 639.884 -162 633.984 C-167.329 631.214 -172.469 631.961 -178.363 632.203 C-188.825 632.404 -197.604 632.141 -207.426 628.203 C-208.609 627.729 -209.793 627.254 -211.012 626.766 C-224.999 620.455 -234.899 610.303 -242.238 596.891 C-247.265 590.715 -254.679 589.026 -262.176 587.328 C-277.38 583.842 -290.196 576.3 -298.852 563.004 C-305.785 550.668 -307.633 537.595 -304.691 523.746 C-303.751 520.807 -302.668 518.027 -301.426 515.203 C-294.968 500.185 -291.773 487.127 -297.426 471.203 C-300.908 463.563 -305.637 457.637 -311.364 451.633 C-325.424 436.751 -330.173 419.206 -329.742 399.258 C-329.245 388.21 -325.519 377.944 -320.426 368.203 C-319.958 367.297 -319.49 366.391 -319.008 365.457 C-313.439 355.324 -306.138 346.43 -298.988 337.384 C-276.667 309.134 -264.357 275.752 -259.426 240.203 C-258.817 240.42 -258.209 240.636 -257.582 240.859 C-245.567 244.676 -232.825 245.047 -221.426 239.203 C-215.911 236.165 -211.611 232.772 -207.715 227.816 C-206.386 226.154 -204.954 224.682 -203.426 223.203 C-202.953 223.59 -202.48 223.977 -201.992 224.375 C-190.668 233.293 -179.597 235.418 -165.426 234.203 C-154.599 231.948 -145.674 225.235 -139.426 216.203 C-133.995 206.672 -133.562 194.13 -136.379 183.66 C-138.734 177.78 -141.895 172.448 -145.426 167.203 C-145.069 166.997 -145.069 166.997 -143.266 165.953 C-132.825 159.658 -126.66 153.079 -122.848 141.438 C-120.601 129.538 -122.265 118.686 -128.555 108.348 C-133.734 101.328 -142.123 97.171 -150.426 95.203 C-153.939 94.832 -157.396 94.826 -160.926 94.891 C-161.811 94.887 -162.697 94.884 -163.609 94.881 C-169.486 94.928 -174.732 95.751 -180.426 97.203 C-181.239 94.932 -182.051 92.662 -182.863 90.391 C-183.093 89.748 -183.323 89.105 -183.561 88.443 C-184.54 85.704 -185.506 82.963 -186.426 80.203 C-172.96 58.65 -149.283 42.962 -127.426 31.203 C-126.747 30.833 -126.068 30.464 -125.369 30.083 C-93.516 12.885 -58.109 5.189 -22.426 1.203 C-21.727 1.119 -21.028 1.036 -20.308 0.95 C-13.53 0.192 -6.816 0.027 0 0 Z " fill="#F9932F" transform="translate(480.42578125,36.796875)"/>
<path d="M0 0 C0.66 0 1.32 0 2 0 C2.134 0.412 2.134 0.412 2.812 2.5 C9.424 21.986 19.363 40.534 33 56 C33.719 56.829 34.439 57.658 35.18 58.512 C37.415 61.046 39.694 63.53 42 66 C42.797 66.862 43.593 67.725 44.414 68.613 C56.213 80.929 69.178 90.576 85 97 C87.336 97.993 89.668 98.997 92 100 C92.992 111.668 93.218 123.297 93.24 135.004 C93.25 138.033 93.281 141.062 93.312 144.092 C93.506 179.815 86.679 221.468 62 249 C61.279 249.839 60.559 250.678 59.816 251.543 C43.423 270.323 21.925 281.722 -2 288 C-2.768 288.202 -3.536 288.404 -4.327 288.612 C-27.978 294.677 -52.651 298.33 -77 300 C-77.765 300.056 -78.53 300.113 -79.319 300.171 C-144.692 304.81 -230.543 304.594 -282.694 259.536 C-307.974 236.864 -318.157 204.875 -322 172 C-322.095 171.275 -322.19 170.55 -322.288 169.803 C-323.182 162.277 -323.186 154.739 -323.185 147.171 C-323.187 144.9 -323.206 142.63 -323.225 140.359 C-323.254 132.834 -322.997 125.424 -322.113 117.945 C-322.036 117.26 -321.958 116.574 -321.878 115.867 C-321.661 114.233 -321.34 112.613 -321 111 C-318.612 109.806 -317.276 109.927 -314.617 110.008 C-278.723 110.767 -241.855 103.213 -209.023 88.577 C-201.068 85.031 -201.068 85.031 -198 85 C-195.984 86.309 -193.986 87.646 -192 89 C-189.32 89.713 -186.844 90.265 -184.125 90.688 C-183.456 90.804 -182.787 90.921 -182.098 91.041 C-136.264 98.857 -85.898 84.365 -47.898 58.219 C-28.169 44.198 -7.842 23.526 0 0 Z " fill="#FDD6AA" transform="translate(623,189)"/>
<path d="M0 0 C5.458 33.331 1.62 65.667 -7 98 C-7.214 98.805 -7.427 99.611 -7.647 100.44 C-8.501 103.655 -9.361 106.866 -10.238 110.074 C-13.633 123.114 -13.53 136.386 -6.715 148.234 C-2.672 154.225 2.971 159.21 10.188 160.625 C16.226 159.283 18.928 156.448 22.25 151.438 C24.41 147.9 26.361 144.325 28.211 140.617 C41.881 113.296 63.063 93.436 92.199 83.527 C109.391 78.006 126.091 77.711 144 78 C143.799 78.73 143.599 79.461 143.392 80.213 C143.126 81.184 142.86 82.156 142.586 83.156 C142.323 84.113 142.061 85.071 141.791 86.057 C141.037 88.864 140.322 91.678 139.625 94.5 C139.374 95.495 139.122 96.49 138.863 97.516 C138.211 100.147 137.589 102.78 136.98 105.422 C131.323 129.232 119.258 149.856 98.037 163.015 C96.366 164.024 94.684 165.013 93 166 C92.257 166.443 91.515 166.887 90.75 167.344 C85.96 169.979 80.972 171.092 75.637 172.191 C71.485 173.465 71.485 173.465 70 176 C69.852 179.438 69.852 179.438 71 183 C73.55 184.737 75.58 185.838 78.375 187 C79.846 187.674 81.315 188.352 82.781 189.035 C83.503 189.365 84.225 189.695 84.969 190.036 C100.578 197.446 114.115 210.621 120.82 226.645 C125.559 240.122 128.896 254.069 132 268 C117.938 275.031 91.184 268.269 76.68 263.68 C51.39 255.074 31.484 239.73 18.496 216.285 C15.352 209.888 13.551 203.205 11.962 196.28 C10.723 191.282 9.347 188.135 5 185 C-0.372 183.966 -4.236 186.285 -8.875 188.688 C-45.021 206.424 -87.505 204.515 -125 192 C-143.856 185.464 -162.636 176.895 -178 164 C-179.148 163.065 -180.297 162.13 -181.445 161.195 C-212.434 135.644 -231.651 99.278 -235.625 59.312 C-235.769 57.21 -235.893 55.105 -236 53 C-236.066 51.779 -236.131 50.559 -236.199 49.301 C-236.735 33.735 -235.121 16.059 -231 1 C-223.786 1.6 -217.099 3.086 -210.125 5 C-208.994 5.31 -207.864 5.62 -206.699 5.939 C-177.48 14.089 -145.048 23.868 -120.723 42.77 C-118.332 44.477 -116.117 44.659 -113.227 44.527 C-109.589 43.666 -107.115 41.462 -104.16 39.242 C-78.294 20.89 -45.995 11.349 -16 2 C-14.905 1.657 -13.809 1.315 -12.681 0.961 C-12.198 0.819 -12.198 0.819 -9.758 0.098 C-8.947 -0.143 -8.136 -0.384 -7.301 -0.633 C-4.62 -1.061 -2.612 -0.674 0 0 Z " fill="#69C5AC" transform="translate(619,651)"/>
<path d="M0 0 C4.028 3.896 7.975 7.874 11.925 11.849 C13.866 13.804 15.81 15.754 17.756 17.705 C21.882 21.842 26.004 25.983 30.125 30.125 C34.914 34.938 39.705 39.749 44.499 44.555 C46.402 46.465 48.302 48.377 50.202 50.29 C55.966 56.078 61.755 61.726 68 67 C69.182 68.055 70.36 69.113 71.535 70.176 C83.83 81.176 95.28 89.776 111.212 94.669 C116.616 96.345 120.936 98.052 124.312 102.875 C125.298 105.921 125.502 107.799 125 111 C122.014 116.335 118.383 118.691 112.637 120.475 C106.765 121.644 100.634 120.86 94.707 120.355 C87.079 120.037 87.079 120.037 83.808 122.956 C81.949 125.391 81.949 125.391 80.413 127.837 C78.424 130.881 76.451 131.972 73 133 C69.938 133.062 69.938 133.062 67 132 C62.758 127.596 60.542 123.148 58.188 117.562 C55.609 111.797 53.388 107.477 48.199 103.664 C45.373 101.526 42.963 99.035 40.5 96.5 C37.501 93.429 34.475 90.516 31.223 87.715 C26.588 83.699 22.261 79.408 17.938 75.062 C17.174 74.303 16.41 73.543 15.623 72.76 C13.394 70.527 11.197 68.265 9 66 C8.67 65.681 8.67 65.681 7.002 64.067 C1.788 58.725 0.203 53.382 -1.375 46.188 C-1.862 44.139 -2.349 42.091 -2.836 40.043 C-3.038 39.146 -3.239 38.249 -3.447 37.325 C-4 35 -4 35 -5 32 C-5.594 32.067 -6.189 32.134 -6.801 32.203 C-11.528 32.291 -14.116 31.84 -17.621 28.508 C-18.511 27.475 -19.386 26.43 -20.25 25.375 C-25.914 18.502 -31.724 15.284 -40 12 C-40.695 11.715 -41.39 11.43 -42.105 11.137 C-56.035 6.616 -72.613 10.814 -85.312 16.75 C-94.387 21.604 -101.58 28.007 -108 36 C-108.639 35.34 -109.279 34.68 -109.938 34 C-110.958 32.999 -111.979 31.999 -113 31 C-113.287 30.704 -113.287 30.704 -114.738 29.203 C-124.156 20.06 -137.088 13.374 -150 11 C-151.155 10.773 -152.31 10.546 -153.5 10.312 C-167.669 9.047 -181.333 11.089 -192.738 20.184 C-199.255 25.927 -199.255 25.927 -201.57 29.262 C-202.042 29.835 -202.514 30.409 -203 31 C-204.134 31.082 -205.269 31.165 -206.438 31.25 C-210 32 -210 32 -211.124 33.507 C-213.822 39.288 -215.744 45.147 -217.447 51.289 C-219.363 57.535 -222.447 61.39 -227 66 C-227.856 66.881 -228.711 67.761 -229.593 68.668 C-232.014 71.147 -234.46 73.601 -236.915 76.046 C-238.435 77.56 -239.949 79.079 -241.463 80.6 C-246.226 85.366 -251.04 90.023 -256.156 94.414 C-266.187 103.042 -274.116 111.289 -279.387 123.539 C-280.944 126.879 -282.465 129.337 -285 132 C-289.228 133.331 -291.138 133.431 -295.125 131.438 C-298.246 128.791 -300.57 126.287 -303 123 C-303 122.34 -303 121.68 -303 121 C-303.771 121.021 -304.542 121.042 -305.336 121.063 C-308.869 121.147 -312.403 121.199 -315.938 121.25 C-317.15 121.284 -318.362 121.317 -319.611 121.352 C-328.258 121.445 -334.926 120.577 -341.562 114.75 C-343.479 111.084 -343.849 107.992 -343 104 C-338.879 96.216 -330.104 94.589 -322.164 92.117 C-301.907 85.523 -283.859 66.269 -269.328 51.266 C-267.457 49.445 -265.566 47.772 -263.579 46.085 C-258.479 41.635 -253.756 36.822 -249.015 31.998 C-247.377 30.333 -245.734 28.673 -244.09 27.014 C-239.421 22.302 -234.754 17.588 -230.104 12.858 C-227.245 9.949 -224.375 7.05 -221.499 4.158 C-220.415 3.064 -219.334 1.967 -218.258 0.865 C-212.05 -5.482 -205.99 -10.92 -198 -15 C-197.644 -15.187 -197.644 -15.187 -195.845 -16.135 C-189.987 -18.881 -181.938 -16.645 -175.812 -15.625 C-129.966 -8.695 -81.303 -10.231 -35.479 -16.854 C-34.19 -17.031 -32.902 -17.208 -31.574 -17.391 C-30.446 -17.556 -29.318 -17.721 -28.155 -17.892 C-16.809 -18.281 -7.677 -7.154 0 0 Z " fill="#FDD7AC" transform="translate(613,516)"/>
<path d="M0 0 C6.572 4.025 11.209 10.195 13.859 17.371 C14.97 22.314 15.134 27.288 15.236 32.343 C15.373 38.216 15.373 38.216 17.562 41.5 C21.532 42.116 24.07 42.406 27.551 40.293 C28.881 39.24 30.202 38.176 31.516 37.102 C38.84 31.371 46.45 30.415 55.562 31.5 C62.85 33.261 67.301 37.483 71.562 43.5 C74.33 48.314 74.156 53.413 73.133 58.734 C71.251 65.473 67.904 70.977 61.738 74.56 C58.944 76.027 56.125 77.411 53.249 78.711 C49.353 80.485 46.266 82.04 43.562 85.5 C43.183 88.73 43.135 89.7 44.562 92.5 C46.945 94.848 49.475 96.948 52.043 99.09 C57.411 104.225 60.651 111.702 60.875 119.125 C60.783 125.409 59.158 130.49 55.02 135.289 C49.855 140.087 44.173 142.581 37.125 142.875 C27.972 142.483 21.136 138.764 14.562 132.5 C12.84 130.428 11.265 128.332 9.754 126.102 C8.562 124.5 8.562 124.5 6.562 123.5 C4.23 123.46 1.895 123.457 -0.438 123.5 C-0.957 124.585 -1.476 125.671 -2.012 126.789 C-2.716 128.235 -3.42 129.68 -4.125 131.125 C-4.465 131.838 -4.804 132.551 -5.154 133.285 C-8.254 139.6 -11.558 144.963 -18 148.312 C-18.744 148.711 -19.488 149.109 -20.254 149.52 C-26.248 152.211 -32.807 152.591 -39.102 150.699 C-46.905 147.269 -50.349 142.056 -53.812 134.5 C-55.566 126.081 -54.14 119.241 -50.438 111.5 C-49.366 109.894 -48.263 108.309 -47.125 106.75 C-44.817 103.504 -44.441 102.75 -44.375 98.562 C-45.438 95.5 -45.438 95.5 -48.438 93.5 C-50.288 93.001 -50.288 93.001 -52.352 92.641 C-62.817 90.667 -71.58 88.826 -78.5 80.062 C-82.109 73.558 -81.552 64.994 -79.809 57.965 C-77.511 52.617 -73.303 49.484 -68.438 46.5 C-67.832 46.122 -67.226 45.745 -66.602 45.355 C-59.127 42.401 -49.898 44.29 -42.559 46.82 C-39.724 47.729 -37.381 47.931 -34.438 47.5 C-32.766 46.242 -32.766 46.242 -31.438 44.5 C-31.293 42.484 -31.293 42.484 -31.625 40.25 C-31.741 39.449 -31.857 38.649 -31.977 37.824 C-32.438 35.5 -32.438 35.5 -33.5 32.062 C-35.762 23.467 -34.576 16.318 -30.438 8.5 C-23.872 -2.05 -11.35 -4.966 0 0 Z " fill="#F8A0BA" transform="translate(270.4375,114.5)"/>
<path d="M0 0 C3.813 4.728 3.813 4.728 5.438 7.09 C12.759 17.386 23.264 22.546 35.324 25.586 C54.619 28.572 73.683 23.577 89.538 12.459 C93.721 9.393 96.913 6.145 100 2 C101.173 2.951 102.338 3.911 103.5 4.875 C104.15 5.409 104.799 5.942 105.469 6.492 C105.721 6.741 105.721 6.741 107 8 C107 8.66 107 9.32 107 10 C107.572 10.271 108.145 10.541 108.734 10.82 C111.046 12.024 113.11 13.389 115.25 14.875 C130.74 25.244 149.246 28.573 167.625 24.938 C178.714 22.029 189.335 16.456 195.527 6.559 C196.748 4.398 197.904 2.226 199 0 C199.66 0 200.32 0 201 0 C202.106 4.373 203.208 8.748 204.308 13.123 C204.682 14.607 205.056 16.09 205.431 17.574 C208.897 31.281 208.897 31.281 210.32 37.727 C210.4 38.087 210.4 38.087 210.805 39.909 C211.041 42.439 210.597 44.542 210 47 C209.217 47.231 208.434 47.461 207.627 47.699 C132.596 69.863 132.596 69.863 103.516 88.848 C100.331 90.306 99.283 90.185 96 89 C93.394 87.591 90.857 86.137 88.312 84.625 C64.88 71.243 38.786 62.449 12.797 55.48 C12.415 55.378 12.415 55.378 10.485 54.86 C6.761 53.866 3.034 52.895 -0.703 51.955 C-2.048 51.606 -3.393 51.258 -4.738 50.91 C-5.331 50.761 -5.331 50.761 -8.333 50.008 C-8.773 49.842 -8.773 49.842 -11 49 C-12.413 44.761 -11.066 41.361 -9.98 37.168 C-9.762 36.299 -9.543 35.429 -9.318 34.534 C-8.853 32.693 -8.385 30.853 -7.913 29.013 C-7.193 26.211 -6.485 23.406 -5.779 20.6 C-5.326 18.81 -4.872 17.02 -4.418 15.23 C-4.206 14.396 -3.995 13.561 -3.777 12.701 C-2.672 8.405 -1.468 4.191 0 0 Z " fill="#FDD7AB" transform="translate(404,588)"/>
<path d="M0 0 C2.082 1.116 4.13 2.271 6.164 3.473 C7.154 4.03 8.144 4.586 9.164 5.16 C12.571 4.025 12.779 3.521 14.539 0.598 C16.828 -2.76 16.828 -2.76 19.789 -3.465 C22.673 -2.706 23.629 -2.425 25.164 0.16 C25.809 4.39 25.994 6.743 23.816 10.461 C22.334 12.434 20.808 14.32 19.164 16.16 C19.494 16.655 19.494 16.655 21.164 19.16 C24.899 18.662 26.976 18.285 30.164 16.16 C32.727 15.91 32.727 15.91 35.164 16.16 C37.164 18.16 37.164 18.16 37.789 20.848 C36.942 25.339 34.764 26.915 31.402 29.84 C28.775 31.39 27.164 31.423 24.164 31.16 C24.488 32.024 24.811 32.887 25.145 33.777 C28.564 45.124 25.699 57.578 20.477 67.91 C15.272 76.797 8.288 82.534 -0.836 87.16 C-1.167 87.331 -1.167 87.331 -2.84 88.195 C-12.555 92.283 -25.411 91.505 -35.086 87.91 C-39.304 86.023 -43.189 84.025 -46.836 81.16 C-47.384 80.766 -47.932 80.371 -48.496 79.965 C-56.94 73.469 -63.173 62.681 -64.836 52.16 C-65.936 38.495 -64.906 26.771 -56.586 15.348 C-42.634 -1.04 -20.727 -9.179 0 0 Z " fill="#4A2E09" transform="translate(634.8359375,308.83984375)"/>
<path d="M0 0 C10.167 7.257 16.472 17.212 19.312 29.312 C19.605 32.422 19.647 35.503 19.625 38.625 C19.619 39.467 19.614 40.31 19.608 41.177 C19.368 53.465 15.113 63.197 6.938 72.438 C3.137 76.047 -1.114 78.392 -5.75 80.75 C-6.423 81.092 -7.095 81.435 -7.789 81.788 C-17.575 86.486 -29.059 86.779 -39.289 83.277 C-51.403 78.404 -61.05 70.202 -66.688 58.312 C-67.027 57.602 -67.366 56.892 -67.715 56.16 C-71.04 47.44 -69.948 37.487 -69.688 28.312 C-70.291 28.041 -70.894 27.769 -71.516 27.488 C-74.799 25.711 -76.553 23.336 -78.688 20.312 C-79.125 17.562 -79.125 17.562 -78.688 15.312 C-78.027 14.652 -77.368 13.993 -76.688 13.312 C-72.11 13.625 -68.682 15.125 -64.688 17.312 C-63.938 14.188 -63.938 14.188 -63.688 10.312 C-64.992 8.293 -66.326 6.293 -67.688 4.312 C-68.14 -0.14 -68.191 -1.933 -65.688 -5.688 C-61.8 -5.459 -60.157 -4.346 -57.625 -1.562 C-57.16 -1.003 -56.694 -0.444 -56.215 0.133 C-54.688 1.312 -54.688 1.312 -52.805 1.145 C-49.541 -0.138 -46.509 -1.787 -43.418 -3.434 C-29.25 -9.94 -13.044 -7.937 0 0 Z " fill="#4A2E0A" transform="translate(425.6875,313.6875)"/>
<path d="M0 0 C15.324 11.355 15.324 11.355 16.75 19.988 C17.059 25.433 16.04 28.573 12.383 32.766 C1.743 43.901 -11.784 49.715 -27.078 50.159 C-27.518 50.166 -27.518 50.166 -29.742 50.203 C-30.16 50.214 -30.16 50.214 -32.273 50.271 C-41.681 50.236 -49.84 46.233 -56.617 39.766 C-61.535 33.444 -63.109 27.815 -63.023 19.844 C-61.981 11.948 -57.461 4.557 -51.613 -0.77 C-36.07 -12.176 -15.778 -10.31 0 0 Z " fill="#BDACDB" transform="translate(479.6171875,549.234375)"/>
<path d="M0 0 C6.37 4.652 11.492 9.907 15 17 C15.454 17.908 15.908 18.815 16.375 19.75 C17.645 26.353 17.353 33.392 13.938 39.312 C8.681 46.536 1.876 52.22 -7 54 C-18.358 55.099 -29.552 54.983 -40 50 C-40.47 49.788 -40.47 49.788 -42.848 48.715 C-50.524 44.924 -58.692 39.229 -62 31 C-62.885 24.581 -61.428 20.826 -57.879 15.449 C-45.183 -1.1 -19.197 -10.899 0 0 Z " fill="#BDACDC" transform="translate(575,545)"/>
<path d="M0 0 C6.624 4.561 11.058 10.844 12.832 18.746 C13.927 27.306 11.455 35.763 6.207 42.621 C0.181 48.826 -6.219 51.053 -14.793 51.309 C-23.952 50.958 -29.377 48.369 -35.629 41.746 C-40.094 35.944 -42.65 28.483 -42.5 21.152 C-41.303 12.481 -37.282 5.703 -30.492 0.305 C-20.802 -6.193 -10.011 -5.79 0 0 Z " fill="#472D0A" transform="translate(282.16796875,170.25390625)"/>
<path d="M0 0 C0.022 0.407 0.022 0.407 0.136 2.465 C1.341 23.818 3.008 44.955 7 66 C-1.129 66.753 -6.815 64.229 -13.238 59.273 C-20.955 52.211 -24.737 43.049 -25.273 32.707 C-25.574 22.441 -25.62 14.081 -18.285 6.145 C-12.404 0.727 -7.778 -0.079 0 0 Z " fill="#FCD8AE" transform="translate(284,325)"/>
<path d="M0 0 C0.99 0 1.98 0 3 0 C6.033 5.633 8.06 11.098 9.777 17.266 C11.318 20.712 12.82 21.981 16 24 C19.635 25.353 23.299 26.452 27.016 27.559 C27.508 27.796 27.508 27.796 30 29 C30.922 31.66 30.922 31.66 31 34 C27.023 37.384 22.83 38.367 17.875 39.742 C13.411 41.695 11.671 44.589 9.621 48.902 C9.231 49.904 8.84 50.906 8.438 51.938 C6.786 56.072 5.077 60.064 3 64 C1.68 64 0.36 64 -1 64 C-1.108 63.723 -1.108 63.723 -1.655 62.319 C-2.651 59.79 -3.669 57.27 -4.688 54.75 C-5.027 53.877 -5.367 53.005 -5.717 52.105 C-8.349 45.66 -10.684 42.453 -17.227 39.586 C-18.348 39.186 -19.47 38.787 -20.625 38.375 C-24.116 37.121 -26.906 36.063 -30 34 C-30 33.01 -30 32.02 -30 31 C-29.059 30.602 -28.118 30.203 -27.148 29.793 C-25.891 29.258 -24.633 28.723 -23.375 28.188 C-23.066 28.057 -23.066 28.057 -21.504 27.396 C-19.663 26.612 -17.832 25.806 -16 25 C-15.461 24.789 -15.461 24.789 -12.734 23.719 C-9.099 21.433 -8.381 19.293 -6.875 15.312 C-6.382 14.055 -5.887 12.799 -5.391 11.543 C-4.932 10.374 -4.473 9.205 -4 8 C-2.731 5.293 -1.38 2.653 0 0 Z " fill="#FCE47F" transform="translate(613,321)"/>
<path d="M0 0 C2.354 2.12 3.543 3.864 4.613 6.836 C4.753 7.203 4.753 7.203 5.459 9.062 C6.024 10.594 6.581 12.127 7.131 13.664 C9.133 18.881 11.195 21.835 16 25 C19.613 26.477 19.613 26.477 23.312 27.625 C27.051 28.789 27.051 28.789 30 30 C30.165 30.495 30.165 30.495 31 33 C27.15 35.888 23.529 37.588 19 39.25 C11.496 42.33 8.688 46.075 5.535 53.406 C4.288 56.584 3.112 59.772 2 63 C0.35 63 -1.3 63 -3 63 C-3.226 62.415 -3.451 61.83 -3.683 61.228 C-4.736 58.554 -5.836 55.903 -6.938 53.25 C-7.291 52.33 -7.645 51.409 -8.01 50.461 C-10.062 45.62 -11.587 42.682 -16.504 40.484 C-17.993 39.96 -19.491 39.462 -21 39 C-22.667 38.333 -24.333 37.667 -26 37 C-26.743 36.711 -27.485 36.423 -28.25 36.125 C-30 35 -30 35 -30.75 32.875 C-30.832 32.256 -30.915 31.637 -31 31 C-25.823 28.316 -20.703 26.06 -15.199 24.125 C-9.363 21.14 -7.889 14.124 -5.598 8.41 C-4.064 5.136 -2.376 2.705 0 0 Z " fill="#FCE47F" transform="translate(402,321)"/>
<path d="M0 0 C6.391 -0.153 10.786 -0.016 16 4 C23.119 12.035 25.632 21.02 25.348 31.594 C24.305 41.809 20.726 51.694 13.082 58.777 C6.656 63.861 1.313 66.178 -7 66 C-6.889 65.444 -6.779 64.887 -6.665 64.314 C-2.457 42.902 -0.736 21.788 0 0 Z " fill="#FCD9AE" transform="translate(732,324)"/>
<path d="M0 0 C1.652 1.638 3.015 3.412 4.449 5.242 C7.441 8.634 10.944 9.758 15.352 10.277 C23.401 10.589 29.885 8.871 36.188 3.812 C38.856 1.675 39.832 1.029 43.312 0.438 C46 1 46 1 47.875 2.062 C49.703 5.211 49.484 7.431 49 11 C44.976 18.303 36.686 21.105 29.066 23.645 C18.437 25.473 8.391 24.495 -1 19 C-4.178 16.751 -7.223 14.554 -9 11 C-9.456 3.811 -9.456 3.811 -7.875 1 C-4.904 -0.584 -3.324 -0.652 0 0 Z " fill="#442B09" transform="translate(488,401)"/>
<path d="M0 0 C3.072 1.711 5.405 3.81 7 7 C7.521 11.829 7.734 15.742 5.25 20 C1.899 22.979 0.128 23.875 -4.375 24.375 C-8.693 23.928 -10.693 22.768 -14 20 C-16.348 17.011 -16.415 13.781 -16.324 10.031 C-15.79 6.684 -14.131 4.557 -12 2 C-7.978 -0.681 -4.728 -0.813 0 0 Z " fill="#FAE47E" transform="translate(272,182)"/>
</svg>
