<?xml version="1.0" encoding="UTF-8"?>
<!-- Generator: visioncortex VTracer 0.6.12 -->
<svg version="1.1" xmlns="http://www.w3.org/2000/svg" width="1024" height="1024">
<path d="M0 0 C337.92 0 675.84 0 1024 0 C1024 337.92 1024 675.84 1024 1024 C686.08 1024 348.16 1024 0 1024 C0 686.08 0 348.16 0 0 Z " fill="#FEFEFD" transform="translate(0,0)"/>
<path d="M0 0 C2.818 0.013 5.635 0.008 8.453 0.003 C31.343 -0.028 53.869 1.069 76.426 5.135 C76.8 5.201 76.8 5.201 78.695 5.537 C104.33 10.097 138.489 17.261 157.551 36.323 C159.661 36.537 161.772 36.745 163.886 36.917 C198.707 39.763 228.41 54.121 253.551 78.323 C254.106 78.847 254.661 79.371 255.233 79.91 C289.206 112.087 306.445 155.054 315.551 200.323 C315.717 201.137 315.882 201.952 316.053 202.791 C319.305 219.557 319.45 236.789 320.21 253.804 C321.784 288.935 321.784 288.935 324.363 306.073 C324.504 307.054 324.645 308.036 324.791 309.047 C325.953 316.069 328.325 321.998 331.551 328.323 C331.915 329.039 332.279 329.755 332.654 330.493 C339.273 343.135 347.315 354.01 357.012 364.487 C378.269 388.229 392.055 415.109 390.769 447.505 C389.42 464.949 379.866 480.53 368.551 493.323 C357.923 505.349 349.751 517.414 350.23 534.1 C351.213 540.916 353.627 547.579 356.613 553.76 C363.793 569.453 363.755 589.132 358.287 605.349 C350.175 627.092 335.649 644.493 314.41 654.268 C311.713 655.473 309.002 656.64 306.277 657.78 C305.658 658.041 305.038 658.302 304.4 658.572 C302.581 659.31 300.731 659.974 298.883 660.635 C294.999 662.602 293.018 665.014 290.613 668.51 C289.749 669.689 288.88 670.865 288.008 672.037 C287.588 672.604 287.169 673.171 286.737 673.756 C272.651 692.365 248.31 700.29 226.125 703.695 C220.464 704.374 214.977 704.247 209.29 704.003 C192.998 703.411 192.998 703.411 187.738 707.948 C186.342 709.406 184.946 710.864 183.551 712.323 C173.728 718.921 159.484 722.949 147.551 722.323 C147.586 723.234 147.62 724.145 147.656 725.084 C148.137 748.079 142.923 770.903 136.345 792.835 C133.24 803.213 131.64 812.832 135.551 823.323 C137.861 823.653 140.171 823.983 142.551 824.323 C143.035 823.318 143.52 822.314 144.02 821.28 C161.241 785.969 186.748 758.504 224.551 745.323 C241.028 739.897 257.105 736.123 274.488 735.948 C274.962 735.941 274.962 735.941 277.359 735.905 C283.624 735.948 289.858 736.509 295.551 739.323 C297.986 741.957 298.517 743.06 298.988 746.698 C298.389 751.663 296.123 754.383 293.041 758.185 C288.058 765.332 286.684 774.675 285.113 783.073 C278.833 814.512 263.959 839.214 237.387 857.557 C234.551 859.323 234.551 859.323 232.551 859.323 C232.551 859.983 232.551 860.643 232.551 861.323 C233.119 861.584 233.688 861.846 234.273 862.116 C253.106 872.097 269.129 893.313 275.551 913.323 C277.451 919.831 279.161 926.387 280.84 932.955 C285.446 950.547 285.446 950.547 289.301 954.51 C292.031 957.922 292.307 959.868 292.02 964.143 C291.223 967.846 289.595 970.209 286.551 972.323 C261.602 983.069 227.432 974.523 203.205 965.267 C174.245 953.731 151.387 934.196 138.682 905.35 C137.178 901.718 135.819 898.043 134.551 894.323 C133.905 894.458 133.258 894.594 132.593 894.734 C93.848 902.774 55.407 906.261 16.551 897.323 C15.549 897.093 14.547 896.863 13.515 896.626 C-15.291 889.794 -42.576 878.346 -64.917 858.672 C-66.33 857.428 -67.754 856.197 -69.18 854.967 C-96.795 830.777 -112.258 796.802 -119.449 761.323 C-119.632 760.488 -119.814 759.654 -120.002 758.795 C-121.612 750.931 -121.882 743.144 -122.074 735.135 C-122.113 733.788 -122.152 732.441 -122.191 731.094 C-122.285 727.837 -122.371 724.58 -122.449 721.323 C-123.367 721.275 -124.285 721.228 -125.23 721.179 C-139.438 720.326 -157.143 716.599 -168.226 706.743 C-171.229 704.824 -173.37 704.954 -176.918 704.951 C-178.202 704.937 -179.486 704.922 -180.809 704.908 C-181.485 704.905 -182.161 704.902 -182.858 704.899 C-211.562 704.713 -240.669 698.278 -262.449 678.323 C-263.203 677.66 -263.957 676.997 -264.734 676.315 C-268.223 673.072 -271.187 669.965 -273.484 665.78 C-278.832 656.043 -278.832 656.043 -283.824 653.819 C-286.366 653.228 -288.921 652.692 -291.484 652.205 C-307.261 649.114 -321.921 635.667 -331.422 623.354 C-343.933 604.648 -348.784 583.337 -344.789 561.01 C-342.818 552.954 -339.525 545.473 -336.035 537.979 C-331.638 527.843 -330.552 515.368 -333.262 504.51 C-335.724 498.552 -340.752 493.776 -344.979 488.999 C-351.188 481.917 -356.588 474.663 -360.887 466.26 C-361.205 465.648 -361.523 465.036 -361.85 464.405 C-366.815 454.186 -367.983 443.752 -367.887 432.51 C-367.88 431.279 -367.873 430.048 -367.866 428.78 C-367.705 419.681 -366.73 411.87 -363.449 403.323 C-363.099 402.322 -362.748 401.322 -362.387 400.291 C-356.605 385.034 -346.71 372.221 -336.5 359.705 C-324.248 344.648 -312.818 329.138 -307.699 310.135 C-307.513 309.443 -307.326 308.75 -307.134 308.036 C-303.396 292.951 -301.918 277.495 -300.941 262.024 C-300.761 259.192 -300.566 256.361 -300.369 253.53 C-299.707 243.675 -299.33 233.93 -299.598 224.054 C-299.43 219.836 -298.526 216.396 -297.449 212.323 C-297.449 211.003 -297.449 209.683 -297.449 208.323 C-297.752 208.194 -297.752 208.194 -299.285 207.545 C-310.116 202.596 -319.633 194.579 -324.256 183.365 C-327.97 173.236 -328.317 160.926 -324.512 150.76 C-318.478 138.609 -308.559 130.82 -295.949 126.448 C-288.822 124.127 -282.774 123.341 -275.449 125.323 C-275.511 124.291 -275.573 123.26 -275.637 122.198 C-275.542 108.753 -270.846 95.859 -261.762 85.885 C-253.766 78.499 -244.232 75.02 -233.535 75.092 C-229.259 75.411 -225.296 76.419 -221.176 77.569 C-220.276 77.817 -219.376 78.066 -218.449 78.323 C-217.62 78.628 -216.791 78.934 -215.938 79.248 C-213.449 79.323 -213.449 79.323 -210.828 77.182 C-209.877 76.157 -208.939 75.12 -208.012 74.073 C-202.183 67.874 -195.909 62.694 -189.119 57.587 C-187.574 56.417 -186.05 55.221 -184.527 54.022 C-175.962 47.361 -166.807 41.791 -157.449 36.323 C-156.843 35.963 -156.237 35.604 -155.612 35.233 C-130.39 20.408 -102.005 12.218 -73.512 6.573 C-72.798 6.429 -72.083 6.286 -71.347 6.139 C-47.598 1.429 -24.159 -0.156 0 0 Z " fill="#4C2908" transform="translate(498.44921875,15.67742919921875)"/>
<path d="M0 0 C5.339 3.623 10.024 3.632 16.266 3.723 C43.012 4.678 65.84 17.715 86.078 34.41 C86.93 35.071 87.782 35.733 88.66 36.414 C90.824 38.201 92.542 39.946 94.328 42.098 C96.857 45.074 99.492 47.789 102.328 50.473 C126.915 74.935 138.993 110.682 146.953 143.598 C147.144 144.385 147.335 145.173 147.532 145.984 C150.351 158.258 151.432 170.618 152.124 183.156 C152.266 185.716 152.416 188.276 152.568 190.836 C152.998 198.104 153.415 205.373 153.825 212.642 C154.079 217.119 154.342 221.596 154.61 226.073 C154.709 227.755 154.805 229.437 154.896 231.119 C156.959 269.094 169.752 296.476 194.359 325.211 C205.568 338.346 217.372 352.501 222.078 369.41 C222.3 370.083 222.522 370.756 222.75 371.449 C227.388 387.682 223.467 405.059 215.77 419.605 C211.801 426.186 206.717 431.731 201.516 437.348 C196.989 442.341 193.374 447.538 190.078 453.41 C189.824 453.832 189.824 453.832 188.535 455.965 C182.273 468.067 183.456 485.492 187.016 498.344 C188.757 503.369 190.7 508.299 192.773 513.195 C195.422 519.72 195.339 525.411 195.078 532.41 C195.066 532.75 195.066 532.75 195.006 534.47 C194.258 551.335 188.187 565.392 176.078 577.41 C169.408 583.386 162.409 588.988 154.078 592.41 C153.129 592.802 152.181 593.194 151.203 593.598 C148.078 594.41 148.078 594.41 145.66 594.469 C138.859 594.64 138.859 594.64 136.605 596.863 C135.801 598.204 135.048 599.577 134.336 600.969 C126.716 615.76 114.446 626.758 98.786 632.208 C94.306 633.615 89.785 634.837 85.214 635.906 C83.808 636.238 82.407 636.596 81.015 636.981 C74.2 638.756 67.521 638.636 60.516 638.535 C59.316 638.526 58.117 638.517 56.881 638.508 C53.946 638.484 51.012 638.452 48.078 638.41 C50.779 636.361 53.509 634.509 56.391 632.723 C59.869 630.5 61.736 628.544 63.953 625.098 C65.803 622.79 67.15 621.588 70.09 621.024 C73.401 620.735 76.695 620.669 80.018 620.631 C86.218 620.549 90.786 619.841 96.078 616.41 C96.387 616.235 96.387 616.235 97.949 615.352 C103.818 611.704 107.904 605.932 110.078 599.41 C111.378 581.842 111.378 581.842 106.785 575.25 C100.987 569 93.988 565.88 86.266 562.66 C77.379 558.904 71.002 554.033 64.078 547.41 C62.756 546.168 61.433 544.927 60.109 543.688 C58.03 541.737 55.953 539.785 53.885 537.823 C50.169 534.308 46.404 530.963 42.391 527.785 C37.518 523.91 33.17 519.652 28.843 515.189 C26.165 512.439 23.445 509.835 20.52 507.348 C14.247 501.932 8.525 495.925 2.703 490.035 C0.365 487.67 -1.977 485.309 -4.32 482.949 C-4.854 482.408 -5.387 481.866 -5.936 481.308 C-9.696 477.523 -9.696 477.523 -11.922 476.41 C-11.922 475.75 -11.922 475.09 -11.922 474.41 C-12.463 474.196 -13.005 473.982 -13.562 473.762 C-16.761 471.929 -19.132 469.412 -21.672 466.785 C-22.178 466.27 -22.685 465.754 -23.207 465.223 C-24.45 463.956 -25.687 462.684 -26.922 461.41 C-26.592 460.42 -26.262 459.43 -25.922 458.41 C-24.135 457.614 -24.135 457.614 -21.793 457.016 C-20.931 456.786 -20.069 456.556 -19.181 456.32 C-18.25 456.081 -17.319 455.843 -16.359 455.598 C10.707 448.201 34.347 435.447 54.602 415.835 C56.101 414.388 57.62 412.964 59.141 411.539 C67.622 403.473 75.461 394.605 80.172 383.777 C84.31 374.385 84.31 374.385 87.078 371.41 C90.958 370.147 93.971 370.215 98.035 370.402 C108.062 370.807 119.015 364.753 126.625 358.715 C138.299 347.747 147.673 330.996 148.449 314.836 C148.73 300.656 148.156 289.042 139.078 277.41 C138.439 276.461 137.799 275.513 137.141 274.535 C128.57 264.541 115.567 261.039 103.078 259.41 C101.142 257.474 101.531 253.935 101.281 251.281 C101.129 249.767 100.976 248.253 100.822 246.739 C100.742 245.94 100.662 245.141 100.579 244.319 C98.666 225.502 96.088 206.986 90.192 188.94 C89.151 185.641 88.224 182.338 87.344 178.992 C87.033 177.822 86.722 176.651 86.402 175.445 C85.778 173.079 85.157 170.712 84.54 168.344 C84.395 167.798 84.395 167.798 83.664 165.031 C83.407 164.046 83.149 163.06 82.884 162.045 C82.153 159.655 81.273 157.598 80.078 155.41 C74.023 155.215 74.023 155.215 72.078 155.41 C70.078 157.41 70.078 157.41 69.803 160.395 C69.951 165.299 71.249 169.924 72.484 174.648 C72.606 175.129 72.606 175.129 73.224 177.564 C74.001 180.619 74.789 183.671 75.578 186.723 C76.365 189.793 77.15 192.864 77.932 195.935 C78.418 197.843 78.908 199.749 79.401 201.655 C79.621 202.513 79.841 203.371 80.068 204.255 C80.166 204.633 80.166 204.633 80.661 206.546 C81.078 208.41 81.078 208.41 81.078 210.41 C63.136 206.157 50.105 194.739 37.078 182.41 C36.823 182.172 36.823 182.172 35.533 180.968 C27.552 173.486 21.129 165.514 15.078 156.41 C14.507 155.566 13.936 154.721 13.348 153.852 C10.078 148.86 10.078 148.86 10.078 145.41 C9.418 145.41 8.758 145.41 8.078 145.41 C3.474 135.736 0.65 125.588 -2.273 115.312 C-2.551 114.338 -2.828 113.363 -3.114 112.359 C-3.66 110.366 -4.174 108.364 -4.659 106.356 C-4.898 105.385 -5.137 104.414 -5.383 103.414 C-5.584 102.547 -5.786 101.68 -5.994 100.787 C-7.128 97.882 -8.542 96.4 -10.922 94.41 C-13.797 93.535 -13.797 93.535 -16.922 94.41 C-19.508 97.388 -21.139 100.912 -22.922 104.41 C-30.933 120.109 -39.227 133.918 -51.398 146.734 C-53.507 148.97 -55.508 151.246 -57.484 153.598 C-81.689 181.196 -117.002 196.201 -151.922 204.41 C-152.318 204.508 -152.318 204.508 -154.322 205.001 C-169.491 208.61 -185.399 207.753 -200.887 207.613 C-201.637 207.609 -202.387 207.604 -203.16 207.6 C-206.545 207.554 -209.685 207.463 -212.922 206.41 C-212.922 205.75 -212.922 205.09 -212.922 204.41 C-211.156 203.088 -211.156 203.088 -208.672 201.574 C-207.761 201.01 -206.85 200.447 -205.911 199.866 C-204.925 199.262 -203.938 198.658 -202.922 198.035 C-188.57 189.072 -174.503 179.481 -162.781 167.16 C-160.922 165.41 -160.922 165.41 -158.922 165.41 C-158.656 164.815 -158.391 164.219 -158.117 163.605 C-156.887 161.347 -155.674 160.023 -153.797 158.285 C-141.857 146.541 -125.623 125.819 -124.359 108.348 C-124.922 105.41 -124.922 105.41 -126.547 103.41 C-129.945 101.979 -131.436 102.159 -134.922 103.41 C-136.964 106.202 -138.234 109.312 -139.609 112.473 C-146.048 126.232 -154.016 137.882 -164.492 148.863 C-166.462 150.928 -168.304 153.017 -170.109 155.223 C-173.355 159.049 -177.086 162.192 -180.922 165.41 C-181.619 166.042 -182.317 166.673 -183.035 167.324 C-204.876 186.412 -233.409 200.611 -260.922 209.41 C-262.004 209.76 -263.086 210.11 -264.201 210.471 C-301.002 222.263 -338.165 229.585 -376.922 228.41 C-379.069 237.173 -380.319 245.438 -380.711 254.426 C-380.922 257.41 -380.922 257.41 -381.922 259.41 C-384.223 259.867 -384.223 259.867 -387.234 260.223 C-400.003 262.194 -410.878 267.638 -418.672 278.098 C-424.902 287.858 -427.794 296.626 -427.547 308.223 C-427.533 309.36 -427.519 310.497 -427.504 311.668 C-427.244 320.753 -425.771 328.112 -421.922 336.41 C-421.476 337.471 -421.03 338.532 -420.57 339.625 C-414.289 353.539 -403.445 363.286 -389.246 368.684 C-385.304 369.916 -382.519 370.487 -378.355 369.953 C-373.917 369.454 -369.961 369.271 -365.922 371.41 C-361.068 376.93 -358.343 384.102 -355.267 390.704 C-352.336 396.601 -348.207 401.441 -343.922 406.41 C-343.509 406.904 -343.509 406.904 -341.418 409.402 C-318.641 435.54 -284.992 451.588 -251.922 460.41 C-253.527 464.666 -256.744 467.268 -260.047 470.223 C-260.591 470.718 -261.135 471.214 -261.695 471.725 C-264.026 473.84 -266.371 475.935 -268.755 477.989 C-273.515 482.09 -278.01 486.378 -282.422 490.848 C-283.102 491.531 -283.782 492.215 -284.482 492.92 C-286.631 495.081 -288.777 497.245 -290.922 499.41 C-293.752 502.267 -296.586 505.121 -299.422 507.973 C-300.055 508.615 -300.689 509.256 -301.342 509.918 C-305.145 513.741 -309.066 517.365 -313.152 520.884 C-315.619 523.011 -318.019 525.21 -320.422 527.41 C-323.519 530.236 -326.626 533.042 -329.797 535.785 C-333.362 538.883 -336.831 542.078 -340.297 545.285 C-340.857 545.801 -341.417 546.316 -341.995 546.847 C-344.582 549.229 -347.143 551.625 -349.664 554.078 C-354.843 559.023 -358.951 561.799 -365.922 563.41 C-376.421 566.051 -384.199 569.931 -389.922 579.41 C-392.345 586.679 -392.272 597.51 -389.172 604.598 C-388.453 605.886 -387.706 607.16 -386.922 608.41 C-386.386 609.462 -385.849 610.514 -385.297 611.598 C-381.166 616.49 -375.259 620.173 -368.922 621.41 C-367.475 621.401 -366.028 621.336 -364.586 621.227 C-351.252 620.49 -351.252 620.49 -347.656 622.977 C-346.297 625.035 -346.297 625.035 -345.176 627.234 C-342.486 631.902 -336.916 634.745 -331.922 636.41 C-316.159 637.539 -316.159 637.539 -309.922 632.41 C-304.967 627.313 -302.418 620.774 -299.922 614.223 C-297.79 608.844 -295.128 605.403 -290.719 601.699 C-283.778 595.656 -277.404 588.997 -270.922 582.473 C-269.561 581.107 -268.201 579.742 -266.84 578.377 C-263.531 575.057 -260.226 571.735 -256.922 568.41 C-255.543 572.827 -256.78 576.176 -258.098 580.469 C-260.894 590.053 -263.104 599.695 -265.109 609.473 C-265.283 610.312 -265.457 611.152 -265.637 612.017 C-268.392 625.413 -270.265 638.586 -270.752 652.28 C-270.923 654.42 -271.341 656.347 -271.922 658.41 C-285.663 658.159 -299.36 654.009 -310.922 646.41 C-311.629 645.395 -312.336 644.38 -313.065 643.335 C-315.395 640.49 -315.833 640.425 -319.775 639.761 C-321.27 639.775 -322.765 639.822 -324.258 639.895 C-325.055 639.908 -325.853 639.921 -326.675 639.935 C-329.217 639.981 -331.756 640.069 -334.297 640.16 C-336.83 640.231 -339.364 640.292 -341.898 640.343 C-343.471 640.376 -345.044 640.422 -346.616 640.483 C-351.426 640.613 -355.299 639.934 -359.922 638.41 C-361.646 638.092 -363.376 637.799 -365.109 637.535 C-381.104 634.673 -393.31 627.621 -404.922 616.41 C-405.694 615.758 -406.466 615.106 -407.262 614.434 C-411.109 611.027 -413.81 608.114 -415.523 603.238 C-419.643 591.599 -419.643 591.599 -424.145 589.25 C-429.477 587.51 -434.984 586.737 -440.513 585.876 C-449.58 584.123 -457.154 577.321 -463.922 571.41 C-464.633 570.817 -465.345 570.224 -466.078 569.613 C-475.877 560.794 -481.238 547.158 -482.065 534.152 C-482.66 519.506 -480.757 508.284 -474.359 494.973 C-473.357 492.849 -472.356 490.726 -471.355 488.602 C-471.134 488.139 -471.134 488.139 -470.013 485.795 C-465.676 476.319 -466.718 463.094 -470.047 453.348 C-473.784 443.642 -478.87 436.359 -485.667 428.584 C-498.905 413.138 -505.234 396.401 -504.183 376.098 C-502.173 355.382 -491.564 337.737 -478.436 322.214 C-451.112 289.656 -440.356 258.408 -438.156 215.988 C-437.922 213.41 -437.922 213.41 -436.922 210.41 C-433.687 211.522 -431.003 212.968 -428.172 214.848 C-419.484 220.336 -410.813 221.898 -400.719 219.719 C-389.771 216.619 -380.44 212.083 -372.922 203.41 C-370.654 204.536 -368.399 205.681 -366.152 206.848 C-365.65 207.105 -365.65 207.105 -363.109 208.41 C-362.113 208.926 -361.116 209.441 -360.09 209.973 C-349.965 214.567 -337.683 215.04 -326.816 212.758 C-324.363 211.825 -322.201 210.709 -319.922 209.41 C-318.916 208.947 -317.911 208.485 -316.875 208.008 C-308.487 203.824 -305.009 199.172 -301.922 190.41 C-301.585 189.46 -301.249 188.51 -300.902 187.531 C-297.075 174.686 -297.832 161.114 -303.023 148.797 C-303.922 146.41 -303.922 146.41 -303.922 143.41 C-301.98 141.973 -301.98 141.973 -299.359 140.41 C-293.364 136.382 -290.251 131.733 -286.922 125.41 C-286.487 124.652 -286.053 123.894 -285.605 123.113 C-281.289 114.391 -281.478 103.272 -283.77 93.969 C-287.875 83.295 -294.512 73.565 -304.922 68.41 C-308.542 66.914 -312.189 65.596 -315.922 64.41 C-315.922 64.08 -315.922 63.75 -315.922 63.41 C-325.358 62.957 -332.336 63.135 -340.922 67.41 C-341.912 67.74 -342.902 68.07 -343.922 68.41 C-344.043 67.843 -344.043 67.843 -344.656 64.973 C-346.356 57.256 -347.985 50.333 -351.922 43.41 C-352.75 41.449 -352.75 41.449 -352.922 39.41 C-351.551 37.516 -351.551 37.516 -349.484 35.598 C-348.735 34.896 -347.986 34.195 -347.215 33.473 C-346.458 32.792 -345.701 32.111 -344.922 31.41 C-344.32 30.853 -343.718 30.296 -343.098 29.723 C-341.078 27.9 -339.012 26.15 -336.922 24.41 C-336.435 24.004 -336.435 24.004 -333.973 21.949 C-299.435 -6.295 -257.499 -21.961 -213.922 -29.59 C-213.05 -29.744 -212.177 -29.899 -211.279 -30.058 C-205.511 -31.059 -199.734 -31.887 -193.922 -32.59 C-193.07 -32.694 -192.218 -32.799 -191.34 -32.906 C-130.846 -39.903 -50.481 -38.405 0 0 Z " fill="#FB902D" transform="translate(649.921875,65.58984375)"/>
<path d="M0 0 C0.66 0 1.32 0 2 0 C2.128 0.539 2.128 0.539 2.777 3.27 C8.2 24.932 18.512 44.036 33 61 C33.337 61.404 33.337 61.404 35.043 63.449 C52.172 83.324 75.526 96.283 100 105 C100.486 108.541 100.963 112.083 101.438 115.625 C101.572 116.605 101.707 117.584 101.846 118.594 C104.264 136.757 104.203 154.802 104.028 173.079 C104.006 176.105 104.018 179.126 104.055 182.152 C103.931 218.54 86.969 256.367 62 282 C59.438 284.478 56.764 286.751 54 289 C53.018 289.831 52.035 290.663 51.023 291.52 C-12.21 344.051 -116.211 337.519 -192.582 330.75 C-211.116 328.996 -229.312 325.903 -247 320 C-248.769 319.494 -250.54 318.994 -252.312 318.5 C-258.055 316.761 -263.525 314.441 -269 312 C-269.49 311.785 -269.49 311.785 -271.973 310.695 C-280.2 306.858 -287.043 301.731 -294 296 C-294.279 295.772 -294.279 295.772 -295.694 294.618 C-307.192 285.21 -317.087 275.675 -325 263 C-325.404 262.355 -325.807 261.709 -326.223 261.044 C-341.372 236.359 -350.355 207.945 -350.266 178.977 C-350.267 177.577 -350.269 176.177 -350.271 174.778 C-350.274 171.872 -350.27 168.966 -350.261 166.06 C-350.249 162.352 -350.256 158.643 -350.268 154.935 C-350.275 152.056 -350.273 149.177 -350.268 146.298 C-350.266 144.93 -350.268 143.563 -350.273 142.195 C-350.308 129.127 -350.308 129.127 -348 123 C-347.111 122.905 -346.223 122.81 -345.307 122.712 C-305.27 118.373 -263.335 112.366 -226.375 95.438 C-221.127 93.32 -217.329 94.629 -212 96 C-162.211 106.965 -107.862 95.9 -65 69 C-39.922 52.72 -20.091 31.723 -4.289 6.45 C-3.76 5.615 -3.232 4.779 -2.688 3.918 C-2.217 3.163 -1.746 2.408 -1.262 1.63 C-0.845 1.092 -0.429 0.554 0 0 Z " fill="#FECF9F" transform="translate(634,188)"/>
<path d="M0 0 C6.507 1.236 12.915 2.676 19.312 4.391 C20.166 4.618 21.019 4.845 21.898 5.079 C23.693 5.558 25.488 6.039 27.283 6.521 C29.964 7.24 32.648 7.951 35.332 8.66 C50.138 12.607 64.854 16.877 78.875 23.125 C84.922 25.752 90.929 28.042 97.234 29.988 C101.378 31.504 105.126 33.685 108.918 35.926 C114.446 37.852 119.643 36.803 124.895 34.398 C126.205 33.733 127.511 33.058 128.812 32.375 C137.243 28.209 145.8 25.056 154.716 22.096 C157.87 21.043 161.018 19.975 164.164 18.902 C178.712 13.946 193.263 9.032 208.062 4.875 C209.023 4.604 209.984 4.334 210.973 4.055 C217.261 2.339 223.572 1.07 230 0 C234.649 12.257 235.348 24.802 235.25 37.812 C235.247 38.469 235.243 39.125 235.24 39.801 C235.177 50.004 234.811 59.94 233 70 C232.914 70.479 232.914 70.479 232.479 72.901 C230.439 84.019 228.185 94.981 224.914 105.805 C221.363 118.22 218.438 130.802 224 143 C225.281 145.034 226.603 147.044 228 149 C228.33 149.99 228.66 150.98 229 152 C230.832 153.055 230.832 153.055 233 154 C233.602 154.353 234.204 154.706 234.824 155.07 C241.343 158.76 246.575 158.913 253.75 157 C260.473 152.862 262.889 145.227 265.438 138.062 C269.691 126.71 275.657 118.781 284 110 C284.223 109.761 284.223 109.761 285.352 108.549 C307.481 84.894 337.527 73.647 369 68 C371.103 67.934 373.208 67.914 375.312 67.938 C376.381 67.947 377.45 67.956 378.551 67.965 C379.359 67.976 380.167 67.988 381 68 C380.563 69.173 380.126 70.346 379.676 71.555 C377.658 77.604 376.656 83.804 375.553 90.072 C373.504 101.581 371.332 112.49 366 123 C365.528 123.981 365.056 124.962 364.57 125.973 C353.013 148.682 331.822 160.888 309.684 171.605 C307 173 307 173 305 175 C304.655 179.053 304.698 180.548 307 184 C309.495 184.722 311.9 185.297 314.438 185.812 C334.513 190.446 348.794 205.559 359.75 222.438 C364.499 231.013 366.605 240.564 369 250 C369.278 251.077 369.556 252.155 369.842 253.265 C371.217 258.602 372.575 263.943 373.898 269.293 C374.112 270.154 374.325 271.016 374.544 271.903 C375 274 375 274 375 276 C342.463 276.643 342.463 276.643 330 273 C329.186 272.764 328.373 272.527 327.534 272.284 C303.348 265.07 276.594 252.626 262.877 230.161 C261.876 228.235 260.955 226.291 260.062 224.312 C259.73 223.594 259.398 222.876 259.056 222.136 C255.381 213.976 252.523 205.519 249.743 197.02 C248.971 194.922 248.035 192.979 247 191 C242.325 191.346 238.519 192.059 234.188 193.875 C226.011 197.302 217.712 199.145 209 200.625 C208.277 200.748 207.554 200.871 206.809 200.998 C161.853 208.271 105.592 204.552 67 178 C66.645 177.761 66.645 177.761 64.849 176.549 C28.653 151.875 6.763 115.931 -1.656 73.005 C-3.431 62.655 -3.237 52.156 -3.25 41.688 C-3.252 40.799 -3.255 39.911 -3.257 38.996 C-3.27 25.783 -2.673 12.981 0 0 Z " fill="#45BBB3" transform="translate(395,699)"/>
<path d="M0 0 C3.046 0.223 5.982 0.566 9 1 C10.848 1.232 12.697 1.46 14.547 1.684 C15.539 1.806 16.531 1.928 17.553 2.053 C23.363 2.751 29.18 3.384 35 4 C36.024 4.11 37.048 4.22 38.104 4.334 C56.601 6.221 75.113 6.184 93.688 6.188 C94.318 6.188 94.318 6.188 97.51 6.191 C118.815 6.189 139.453 5.276 160.562 2.438 C163.202 2.084 165.841 1.732 168.481 1.388 C170.103 1.176 171.724 0.96 173.343 0.737 C187.305 -1.086 187.305 -1.086 192.055 1.957 C193.017 2.886 193.957 3.84 194.875 4.812 C195.137 5.072 195.137 5.072 196.465 6.383 C197.65 7.56 198.825 8.748 199.991 9.944 C202.265 12.271 204.572 14.562 206.883 16.852 C212.512 22.439 218.1 28.066 223.676 33.707 C226.457 36.451 229.31 39.107 232.188 41.75 C232.473 42.013 232.473 42.013 233.918 43.344 C238.074 47.165 242.263 50.948 246.465 54.719 C253.51 61.059 260.492 67.424 267.148 74.176 C269.626 76.617 272.232 78.884 274.867 81.152 C277.274 83.237 279.638 85.365 282 87.5 C290.689 95.327 290.689 95.327 295 99 C295.684 99.598 296.369 100.196 297.074 100.812 C302.897 105.663 308.949 108.333 316 111 C322.982 113.654 327.525 116.05 331 123 C331.403 128.243 330.861 131.561 328 136 C323.963 140.037 319.557 141.794 313.826 142.126 C311.506 142.125 309.194 142.077 306.875 142 C296.855 141.671 296.855 141.671 293 144 C291.594 145.988 291.594 145.988 290.5 148.312 C287.973 153.248 285.456 157.181 280 159 C276.562 159.375 276.562 159.375 273 159 C267.015 153.87 265.166 144.628 263.188 137.312 C261.312 131.146 259.012 127.939 254 124 C252.29 122.627 250.582 121.252 248.875 119.875 C248.406 119.499 248.406 119.499 246.035 117.594 C242.017 114.16 238.344 110.444 234.644 106.675 C231.157 103.13 227.599 99.755 223.781 96.562 C221.41 94.482 219.224 92.237 217 90 C216.582 89.605 216.582 89.605 214.465 87.605 C213.631 86.808 212.797 86.01 211.938 85.188 C211.519 84.792 211.519 84.792 209.402 82.793 C202.897 75.23 200.474 65.126 197.354 55.825 C196.726 53.958 196.082 52.096 195.438 50.234 C195.065 49.133 194.692 48.032 194.309 46.897 C192.929 43.843 191.581 42.116 189 40 C186.914 39.82 186.914 39.82 184.625 40.125 C178.45 40.416 173.97 37.999 168.449 35.469 C153.818 29.238 134.812 30.899 120.188 36.25 C110.228 40.444 101.967 45.585 95 54 C95 54.66 95 55.32 95 56 C92 55 92 55 90.75 52.812 C84.327 42.49 70.568 36.896 59.159 34.018 C41.076 30.026 24.368 30.375 7.879 39.188 C4.663 40.578 1.474 40.706 -2 41 C-2.99 41.33 -3.98 41.66 -5 42 C-5.032 42.281 -5.032 42.281 -5.191 43.703 C-6.171 50.423 -8.043 56.764 -10.188 63.188 C-10.454 64.03 -10.721 64.873 -10.996 65.741 C-13.183 72.075 -16.322 76.261 -21 81 C-21.622 81.652 -22.244 82.305 -22.885 82.977 C-24.818 84.987 -26.777 86.967 -28.75 88.938 C-29.453 89.642 -30.156 90.347 -30.881 91.073 C-34.603 94.76 -38.355 98.222 -42.5 101.438 C-48.265 105.954 -53.083 111.245 -58.005 116.643 C-61.519 120.47 -65.034 123.954 -69.09 127.197 C-75.62 132.474 -77.984 137.712 -80.04 145.633 C-81.424 150.942 -83.137 154.052 -87 158 C-90.203 159.601 -92.453 159.407 -96 159 C-101.408 155.991 -104.229 151.399 -106.859 145.953 C-108 144 -108 144 -111 142 C-113.141 141.852 -113.141 141.852 -115.605 141.98 C-116.507 142.009 -117.409 142.038 -118.338 142.068 C-120.219 142.147 -122.099 142.238 -123.979 142.342 C-130.582 142.525 -134.96 141.405 -140 137 C-143.274 133.2 -144.816 128.982 -144.496 123.984 C-143.492 119.968 -141.265 117.457 -138 115 C-133.775 112.994 -129.371 111.705 -124.898 110.375 C-110.77 105.724 -98.986 92.399 -88 82.715 C-84.602 79.802 -81.105 77.01 -77.613 74.211 C-74.925 71.937 -72.473 69.499 -70 67 C-68.752 65.746 -67.503 64.492 -66.255 63.239 C-65.56 62.541 -64.866 61.843 -64.15 61.124 C-60.996 57.957 -57.839 54.791 -54.681 51.626 C-53.023 49.963 -51.366 48.299 -49.71 46.634 C-47.302 44.215 -44.892 41.798 -42.48 39.383 C-41.75 38.647 -41.02 37.912 -40.267 37.154 C-35.675 32.562 -30.927 28.228 -26 24 C-24.35 22.525 -22.704 21.047 -21.062 19.562 C-17.788 16.605 -14.497 13.669 -11.188 10.75 C-8.009 7.931 -4.959 5.049 -2 2 C-1.34 1.34 -0.68 0.68 0 0 Z " fill="#FED09F" transform="translate(416,530)"/>
<path d="M0 0 C6.21 4.958 9.343 11.151 11.824 18.594 C11.908 20.805 11.932 23.018 11.922 25.23 C11.92 25.88 11.92 25.88 11.912 29.166 C11.904 30.538 11.895 31.91 11.887 33.281 C11.882 34.665 11.877 36.048 11.873 37.432 C11.861 40.819 11.845 44.206 11.824 47.594 C14.129 48.216 14.129 48.216 16.824 48.594 C19.196 47.112 21.151 45.696 23.262 43.906 C24.363 43.005 25.466 42.105 26.57 41.207 C27.112 40.766 27.653 40.324 28.21 39.87 C36.34 33.442 42.588 31.754 52.824 32.594 C58.909 33.817 63.732 36.964 67.824 41.594 C72.356 48.443 74.681 54.348 73.824 62.594 C71.771 71.695 67.303 78.904 59.504 84.156 C53.295 87.51 46.693 89.142 39.824 90.594 C39.227 92.965 39.227 92.965 38.824 95.594 C40.794 98.194 42.87 99.622 45.637 101.344 C52.613 106.268 57.241 112.112 58.824 120.594 C59.908 128.937 57.966 136.575 53.504 143.703 C50.094 148.063 46.209 151.151 40.824 152.594 C32.284 153.572 25.242 153.007 17.824 148.594 C17.138 148.208 16.453 147.823 15.746 147.426 C8.716 143.28 3.019 138.642 -1.176 131.594 C-3.527 131.746 -3.527 131.746 -6.176 132.594 C-7.512 135.035 -7.512 135.035 -8.551 138.156 C-12.035 147.307 -17.914 153.403 -26.176 158.594 C-32.662 160.756 -42.273 160.909 -48.676 158.219 C-56.588 153.282 -60.197 144.324 -62.508 135.688 C-64.61 125.953 -62.225 120.146 -57.176 111.594 C-55.592 109.197 -53.984 106.842 -52.277 104.531 C-51.176 102.594 -51.176 102.594 -51.176 98.594 C-51.468 98.607 -51.468 98.607 -52.945 98.673 C-73.849 99.488 -73.849 99.488 -80.293 95.492 C-86.406 89.328 -89.308 80.522 -89.551 72.031 C-89.458 63.802 -87.619 58.354 -82.051 52.273 C-75.057 45.682 -69.038 44.066 -59.5 44.207 C-53.049 44.958 -48.106 48.224 -42.863 51.844 C-40.189 53.585 -38.316 54.224 -35.176 54.594 C-35.657 49.012 -36.607 43.988 -38.176 38.594 C-40.033 28.377 -41.346 15.933 -35.859 6.715 C-26.783 -4.72 -12.52 -8.092 0 0 Z " fill="#FE7BC0" transform="translate(279.17578125,111.40625)"/>
<path d="M0 0 C0.639 0.66 1.279 1.32 1.938 2 C2.958 3.001 3.979 4 5 5 C5.293 5.302 5.293 5.302 6.773 6.832 C16.409 16.19 29.251 21.33 42 25 C42 25.66 42 26.32 42 27 C55.329 27.594 66.695 27.553 79 22 C79.846 21.627 80.691 21.255 81.562 20.871 C89.555 16.889 95.78 10.277 102 4 C104.972 12.073 106.796 20.346 108.644 28.73 C109.189 31.194 109.745 33.655 110.303 36.115 C110.654 37.695 111.005 39.275 111.355 40.855 C111.521 41.584 111.687 42.312 111.857 43.062 C112.739 47.113 113.171 50.856 113 55 C112.11 55.164 111.22 55.327 110.303 55.496 C100.502 57.368 90.957 59.788 81.375 62.562 C80.998 62.671 80.998 62.671 79.092 63.22 C57.611 69.419 36.557 76.595 16.002 85.422 C0.552 91.96 0.552 91.96 -5.453 90.337 C-8.094 89.227 -10.594 87.966 -13.125 86.625 C-28.357 79.138 -44.371 74.276 -60.623 69.51 C-66.356 67.822 -72.054 66.038 -77.746 64.219 C-79.324 63.716 -80.903 63.213 -82.481 62.71 C-84.85 61.955 -87.217 61.198 -89.582 60.433 C-91.808 59.714 -94.037 59.003 -96.266 58.293 C-96.596 58.185 -96.596 58.185 -98.268 57.637 C-102.864 56.185 -107.228 55.484 -112 55 C-111.475 48.341 -110.487 41.985 -108.934 35.492 C-108.735 34.641 -108.537 33.789 -108.333 32.912 C-107.707 30.232 -107.072 27.553 -106.438 24.875 C-106.008 23.042 -105.579 21.208 -105.15 19.375 C-104.107 14.915 -103.056 10.457 -102 6 C-98.49 7.664 -95.931 9.685 -93 12.25 C-78.221 24.536 -62.069 27.225 -43.336 25.797 C-28.193 23.403 -11.222 15.287 -2 3 C-1.34 2.01 -0.68 1.02 0 0 Z " fill="#FECF9E" transform="translate(510,630)"/>
<path d="M0 0 C13.581 9.21 22.779 23.115 25.934 39.285 C28.1 56.165 23.642 71.499 13.5 85.062 C5.72 94.257 -6.516 101.848 -18.758 102.927 C-36.109 103.429 -48.51 100.526 -62 88.793 C-66.377 84.322 -69.298 79.276 -72.125 73.75 C-72.459 73.098 -72.793 72.445 -73.138 71.773 C-79.438 58.744 -79.96 42.5 -75.75 28.75 C-70.252 14.461 -61.317 3.724 -47.75 -3.25 C-46.952 -3.666 -46.154 -4.083 -45.332 -4.512 C-30.611 -11.017 -13.381 -7.988 0 0 Z " fill="#4E2B08" transform="translate(657.75,331.25)"/>
<path d="M0 0 C11.897 9.561 19.803 22.853 21.875 38.125 C23.09 55.131 19.57 70.021 8.562 83.5 C2.586 89.851 -5.084 94.785 -13.125 98.125 C-13.554 98.304 -13.554 98.304 -15.723 99.207 C-26.814 102.199 -40.979 101.557 -51.125 96.125 C-52.139 95.604 -53.154 95.083 -54.199 94.547 C-67.776 87.132 -75.694 76.93 -80.125 62.125 C-81.714 56.556 -82.483 51.595 -82.438 45.812 C-82.433 45.072 -82.429 44.331 -82.425 43.568 C-82.299 37.401 -81.298 31.919 -79.125 26.125 C-78.858 25.372 -78.591 24.619 -78.316 23.844 C-72.655 9.551 -61.69 -1.571 -47.859 -7.914 C-31.756 -13.775 -13.726 -9.488 0 0 Z " fill="#4E2B08" transform="translate(419.125,333.875)"/>
<path d="M0 0 C0.804 -0.012 1.607 -0.024 2.436 -0.037 C17.659 -0.074 30.735 6.188 41.531 16.715 C44.462 20.075 46.032 22.781 46.688 27.188 C46.809 27.945 46.93 28.703 47.055 29.484 C47.655 37.021 44.791 42.997 40.688 49.188 C30.463 60.905 14.678 64.236 -0.168 65.414 C-11.043 65.759 -20.937 63.309 -29.312 56.188 C-36.772 49.164 -39.397 43.132 -39.875 32.938 C-39.675 25.22 -38.039 19.353 -33.312 13.188 C-29.89 10.058 -26.274 7.584 -22.312 5.188 C-21.634 4.745 -20.956 4.303 -20.258 3.848 C-13.883 -0.133 -7.27 0.006 0 0 Z " fill="#AC90EE" transform="translate(456.3125,576.8125)"/>
<path d="M0 0 C1.095 -0.029 2.19 -0.058 3.318 -0.088 C17.239 -0.196 26.693 5.667 36.723 14.973 C42.449 21.022 42.542 27.733 42.352 35.84 C41.723 41.111 39.884 44.951 36.938 49.312 C36.72 49.641 36.72 49.641 35.621 51.305 C30.167 58.546 21.638 61.725 12.938 63.312 C-2.951 64.923 -19.921 62.602 -33.016 52.859 C-39.38 47.159 -44.267 38.747 -44.75 30.125 C-44.202 22.677 -40.398 17.309 -35.188 12.188 C-24.977 3.581 -13.076 0.113 0 0 Z " fill="#AC90EF" transform="translate(561.0625,577.6875)"/>
<path d="M0 0 C6.831 4.118 10.677 10.469 13 18 C14.814 28.959 13.54 38.803 7 48 C4.884 50.708 2.716 52.898 0 55 C-0.536 55.432 -1.072 55.864 -1.625 56.309 C-8.266 60.593 -17.429 59.926 -25 59 C-32.643 56.935 -37.294 51.112 -41.887 45.039 C-46.359 36.847 -46.138 26.563 -44.312 17.641 C-42.062 10.251 -39.169 3.847 -32.66 -0.598 C-22.225 -6.099 -10.227 -5.838 0 0 Z " fill="#482808" transform="translate(287,169)"/>
<path d="M0 0 C9.735 0.699 18.465 4.722 25.066 12.055 C30.15 20.729 30.398 32.852 28.344 42.422 C24.152 56.846 17.194 69.065 4.066 77.055 C-1.401 79.826 -6.864 80.647 -12.934 81.055 C-12.136 74.439 -10.528 68.11 -8.838 61.672 C-5.24 47.239 -4.586 32.353 -3.871 17.555 C-3.755 15.182 -3.638 12.81 -3.514 10.439 C-3.439 8.982 -3.367 7.525 -3.301 6.068 C-2.99 0.085 -2.99 0.085 0 0 Z " fill="#FDD0A0" transform="translate(755.93359375,340.9453125)"/>
<path d="M0 0 C0.004 0.812 0.008 1.625 0.012 2.461 C0.245 28.992 3.734 54.168 10 80 C-0.121 80.783 -6.79 79.367 -14.633 72.793 C-25.928 62.088 -31.922 49.561 -32.562 33.875 C-32.267 24.146 -28.266 14.468 -21.477 7.418 C-14.807 1.216 -8.895 -0.167 0 0 Z " fill="#FDD2A2" transform="translate(268,341)"/>
<path d="M0 0 C3.79 1.632 6.763 4.098 9.875 6.75 C10.435 7.224 10.995 7.699 11.572 8.188 C16.715 12.618 21.51 17.365 26.242 22.228 C26.791 22.791 27.34 23.354 27.906 23.934 C28.169 24.204 28.169 24.204 29.496 25.572 C31 27 31 27 33.723 28.809 C37.193 32.148 37.787 36.047 38.938 40.625 C43.959 58.717 43.959 58.717 52.375 64.125 C53.57 64.774 54.775 65.409 56 66 C55.135 71.066 52.016 73.116 48 76 C45.328 77.608 42.586 78.957 39.75 80.25 C39.009 80.594 38.269 80.937 37.505 81.291 C30.823 84.282 24.354 86 17 86 C15.321 77.966 13.915 69.887 12.514 61.801 C10.389 49.565 8.14 37.384 5.481 25.251 C4.355 19.983 3.338 14.692 2.306 9.405 C2.15 8.611 1.993 7.818 1.832 7 C1.695 6.299 1.558 5.597 1.417 4.875 C1 3 1 3 0 0 Z " fill="#FA922F" transform="translate(629,637)"/>
<path d="M0 0 C2.673 1.601 5.109 3.363 7.57 5.273 C14.642 10.299 22.701 9.674 31 9 C36.607 7.449 40.74 3.834 45 0 C48.898 1.299 51.604 2.59 54 6 C54.075 10.116 53.552 12.27 51.062 15.562 C40.119 24.273 29.974 27.406 16 26 C6.552 23.744 -3.99 19.693 -9.777 11.477 C-11.397 8.195 -11.053 6.459 -10 3 C-7.58 -1.034 -4.333 -0.688 0 0 Z " fill="#4C2808" transform="translate(487,443)"/>
<path d="M0 0 C4.851 2.336 7.764 5.099 10 10 C10.748 16.594 11.216 23.519 7 29 C1.223 33.548 -3.675 34.79 -11 34 C-14.542 32.551 -17.231 30.433 -19.273 27.137 C-21.343 21.05 -21.075 13.59 -18.633 7.707 C-14.121 0.226 -8.128 -0.888 0 0 Z " fill="#FA922D" transform="translate(277,180)"/>
<path d="M0 0 C3.404 3.504 4.044 5.169 4.438 10.125 C4.318 13.927 3.614 16.2 1.125 19.188 C-2.113 21.91 -4.171 23.087 -8.375 23.688 C-12.609 23.083 -14.645 21.977 -17.875 19.188 C-20.535 15.287 -21.48 11.806 -21.293 7.148 C-20.507 3.46 -18.617 1.746 -15.875 -0.812 C-10.679 -4.043 -4.992 -3.147 0 0 Z " fill="#FCFAF6" transform="translate(657.875,351.8125)"/>
<path d="M0 0 C3.274 1.964 4.698 3.382 6.375 6.812 C7.274 11.396 7.162 14.804 4.941 19 C2.81 21.995 1.23 23.744 -2.445 24.508 C-7.922 24.622 -12.56 24.103 -16.812 20.438 C-18.932 16.088 -18.821 11.546 -17.344 6.965 C-15.662 3.55 -13.93 1.958 -10.688 0 C-6.527 -1.128 -4.143 -1.151 0 0 Z " fill="#FCF7F2" transform="translate(413,350)"/>
<path d="M0 0 C0.66 0.33 1.32 0.66 2 1 C1.774 1.215 1.774 1.215 0.629 2.304 C-4.123 6.832 -8.838 11.397 -13.533 15.984 C-15.285 17.686 -17.045 19.378 -18.815 21.06 C-37.672 39.012 -37.672 39.012 -40 53 C-41.759 46.987 -39.445 41.587 -37 36 C-34.666 32.857 -32.006 30.486 -29 28 C-23.389 23.285 -18.309 18.29 -13.375 12.875 C-9.136 8.228 -4.939 3.905 0 0 Z " fill="#2E1405" transform="translate(376,628)"/>
</svg>
