<?xml version="1.0" encoding="UTF-8"?>
<!-- Eye variant 1: big round kawaii eyes (placeholder -- replaced by pipeline) -->
<svg version="1.1" xmlns="http://www.w3.org/2000/svg" width="1024" height="1024" viewBox="0 0 1024 1024">
<path d="M310 340 Q350 300 420 310 Q490 320 510 370 Q520 420 480 450 Q440 480 380 470 Q320 460 300 410 Q290 370 310 340Z" fill="#87ceeb" />
<path d="M350 355 Q370 335 400 340 Q430 345 440 370 Q445 395 425 410 Q400 425 375 415 Q350 405 345 380 Q340 365 350 355Z" fill="#3a6ea8" />
<path d="M358 358 Q365 348 378 352 Q385 360 380 372 Q372 378 362 372 Q355 364 358 358Z" fill="#ffffff" />
<path d="M355 430 Q370 445 390 448 Q410 451 425 440 Q430 432 425 428 Q410 440 390 437 Q372 434 360 422Z" fill="#1a4a88" />
<path d="M295 350 Q285 370 290 400 Q295 420 310 430 Q300 415 298 390 Q296 370 305 352Z" fill="#6ab4d4" />
<path d="M510 350 Q525 370 520 400 Q515 420 500 435 Q510 420 512 395 Q514 370 508 352Z" fill="#6ab4d4" />
<path d="M514 340 Q560 300 630 310 Q700 320 720 370 Q730 420 690 450 Q650 480 590 470 Q530 460 510 410 Q500 370 514 340Z" fill="#87ceeb" />
<path d="M554 355 Q574 335 604 340 Q634 345 644 370 Q649 395 629 410 Q604 425 579 415 Q554 405 549 380 Q544 365 554 355Z" fill="#3a6ea8" />
<path d="M562 358 Q569 348 582 352 Q589 360 584 372 Q576 378 566 372 Q559 364 562 358Z" fill="#ffffff" />
<path d="M559 430 Q574 445 594 448 Q614 451 629 440 Q634 432 629 428 Q614 440 594 437 Q576 434 564 422Z" fill="#1a4a88" />
<path d="M500 350 Q488 370 492 400 Q497 420 512 430 Q502 415 500 390 Q498 370 506 352Z" fill="#6ab4d4" />
<path d="M718 350 Q732 370 728 400 Q724 420 710 435 Q720 420 722 395 Q724 370 716 352Z" fill="#6ab4d4" />
</svg>
