<?xml version="1.0" encoding="UTF-8"?>
<!-- Eye variant 3: sleepy half-closed dreamy eyes (placeholder -- replaced by pipeline) -->
<svg version="1.1" xmlns="http://www.w3.org/2000/svg" width="1024" height="1024" viewBox="0 0 1024 1024">
<path d="M310 355 Q350 315 420 325 Q490 335 510 375 Q515 405 490 428 Q455 448 390 440 Q325 432 305 400 Q298 378 310 355Z" fill="#dda0dd" />
<path d="M310 355 Q350 330 420 335 Q490 340 510 360 Q495 342 420 336 Q350 330 310 355Z" fill="#8b4090" />
<path d="M350 365 Q375 348 410 355 Q440 365 448 388 Q440 370 410 364 Q378 358 352 370Z" fill="#7b2fbe" />
<path d="M360 375 Q370 365 385 368 Q378 376 374 384 Q366 382 360 375Z" fill="#ffffff" />
<path d="M295 368 Q286 385 290 408 Q296 425 310 435 Q300 420 298 398 Q296 378 304 365Z" fill="#c878c8" />
<path d="M510 368 Q523 385 520 408 Q516 425 502 438 Q512 422 514 400 Q516 380 508 366Z" fill="#c878c8" />
<path d="M514 355 Q560 315 630 325 Q700 335 720 375 Q725 405 700 428 Q665 448 600 440 Q535 432 515 400 Q508 378 514 355Z" fill="#dda0dd" />
<path d="M514 355 Q560 330 630 335 Q700 340 720 360 Q705 342 630 336 Q560 330 514 355Z" fill="#8b4090" />
<path d="M554 365 Q579 348 614 355 Q644 365 652 388 Q644 370 614 364 Q582 358 556 370Z" fill="#7b2fbe" />
<path d="M564 375 Q574 365 589 368 Q582 376 578 384 Q570 382 564 375Z" fill="#ffffff" />
<path d="M498 368 Q488 385 492 408 Q498 425 512 435 Q502 420 500 398 Q498 378 506 366Z" fill="#c878c8" />
<path d="M718 368 Q730 385 728 408 Q724 425 710 438 Q720 422 722 400 Q724 380 716 366Z" fill="#c878c8" />
</svg>
