<?xml version="1.0" encoding="UTF-8"?>
<!-- Eye variant 2: sparkle star-pupil eyes (placeholder -- replaced by pipeline) -->
<svg version="1.1" xmlns="http://www.w3.org/2000/svg" width="1024" height="1024" viewBox="0 0 1024 1024">
<path d="M310 340 Q350 300 420 310 Q490 320 510 370 Q520 420 480 450 Q440 480 380 470 Q320 460 300 410 Q290 370 310 340Z" fill="#98fb98" />
<path d="M380 345 L388 365 L408 360 L395 375 L405 395 L385 385 L370 400 L372 378 L353 370 L374 365Z" fill="#228b22" />
<path d="M358 358 Q365 348 378 352 Q372 364 368 372 Q360 370 358 358Z" fill="#ffffff" />
<path d="M355 430 Q375 448 405 445 Q425 440 430 428 Q415 438 395 435 Q375 432 360 422Z" fill="#145214" />
<path d="M295 350 Q283 372 288 402 Q294 422 308 432 Q298 418 296 390 Q294 368 303 352Z" fill="#78d478" />
<path d="M510 350 Q525 372 522 402 Q518 422 502 436 Q512 420 514 392 Q516 368 508 352Z" fill="#78d478" />
<path d="M514 340 Q560 300 630 310 Q700 320 720 370 Q730 420 690 450 Q650 480 590 470 Q530 460 510 410 Q500 370 514 340Z" fill="#98fb98" />
<path d="M590 345 L598 365 L618 360 L605 375 L615 395 L595 385 L580 400 L582 378 L563 370 L584 365Z" fill="#228b22" />
<path d="M562 358 Q569 348 582 352 Q576 364 572 372 Q564 370 562 358Z" fill="#ffffff" />
<path d="M559 430 Q579 448 609 445 Q629 440 634 428 Q619 438 599 435 Q579 432 564 422Z" fill="#145214" />
<path d="M498 350 Q486 372 492 402 Q498 422 512 432 Q502 418 500 392 Q498 368 506 352Z" fill="#78d478" />
<path d="M718 350 Q732 372 730 402 Q726 422 710 436 Q720 420 722 392 Q724 368 716 352Z" fill="#78d478" />
</svg>
