<?xml version="1.0" encoding="UTF-8"?>
<!-- Generator: visioncortex VTracer 0.6.12 -->
<svg version="1.1" xmlns="http://www.w3.org/2000/svg" width="1024" height="1024">
<path d="M0 0 C337.92 0 675.84 0 1024 0 C1024 337.92 1024 675.84 1024 1024 C686.08 1024 348.16 1024 0 1024 C0 686.08 0 348.16 0 0 Z " fill="#FEFEFD" transform="translate(0,0)"/>
<path d="M0 0 C0.945 0.002 1.889 0.005 2.863 0.008 C32.771 0.128 61.388 3.952 90.562 10.312 C91.641 10.548 92.72 10.783 93.832 11.025 C111.684 15.002 131.455 20.275 144.82 33.531 C149.221 37.391 153.738 37.182 159.375 37.312 C175.747 38.236 189.206 43.583 203.539 51.246 C205.625 52.346 207.732 53.395 209.848 54.438 C232.68 65.829 252.027 84.423 266.562 105.312 C266.978 105.905 267.393 106.497 267.82 107.108 C289.982 139.289 302.948 180.977 308.562 219.312 C308.647 219.868 308.647 219.868 309.073 222.678 C310.348 231.534 310.995 240.299 311.396 249.229 C313.409 293.052 317.288 335.589 348.75 368.875 C368.787 390.267 385.422 417.35 384.832 447.594 C384.177 462.831 380.358 476.267 372.562 489.312 C372.167 489.981 371.772 490.65 371.365 491.339 C367.462 497.884 363.359 504.256 358.91 510.442 C350.485 522.212 346.755 532.207 348.931 546.78 C350.112 553.67 351.798 560.382 353.625 567.125 C358.825 586.418 360.418 607.236 350.41 625.383 C337.596 645.701 320.349 659.745 296.562 665.312 C295.242 665.312 293.923 665.312 292.562 665.312 C292.458 666.031 292.354 666.749 292.246 667.488 C289.697 678.021 280.118 687.834 271.23 693.539 C264.025 697.897 256.446 701.371 248.562 704.312 C247.664 704.706 246.766 705.099 245.84 705.504 C237.861 708.586 230.96 708.302 222.5 708 C208.783 707.595 208.783 707.595 202.812 712.438 C202.381 712.847 202.381 712.847 200.195 714.922 C188.71 725.351 170.894 726.791 156.082 726.516 C152.562 726.312 152.562 726.312 149.562 725.312 C149.586 725.982 149.609 726.651 149.633 727.34 C150.078 751.054 143.404 773.273 136.332 795.68 C135.742 797.557 135.152 799.435 134.562 801.312 C134.342 802.004 134.122 802.695 133.896 803.407 C132.175 809.036 131.734 814.479 132.562 820.312 C134.998 823.604 137.184 825.06 140.562 827.312 C140.651 826.646 140.74 825.98 140.832 825.293 C141.773 821.456 143.457 818.119 145.25 814.625 C145.612 813.914 145.975 813.203 146.348 812.47 C158.551 788.734 176.069 771.656 199.562 759.312 C200.417 758.852 201.272 758.392 202.152 757.918 C208.199 754.909 214.534 753.005 221 751.125 C221.858 750.875 222.716 750.625 223.6 750.367 C234.517 747.315 245.043 745.965 256.375 746.062 C257.508 746.069 258.641 746.075 259.808 746.081 C285.171 746.38 285.171 746.38 293.5 754 C295.729 757.579 295.803 759.128 295.161 763.21 C294.134 766.816 292.013 769.427 289.688 772.312 C284.501 778.859 281.901 785.019 280.284 793.197 C276.49 812.242 266.763 827.328 253.562 841.312 C252.875 842.076 252.188 842.839 251.48 843.625 C245.325 850.203 238.225 854.702 230.562 859.312 C233.277 862.126 236.085 864.563 239.188 866.938 C259.344 883.039 271.271 904.955 275.854 930.284 C276.005 931.118 276.157 931.953 276.312 932.812 C276.389 933.232 276.389 933.232 276.773 935.355 C278.281 943.041 280.9 950.121 283.921 957.334 C285.763 961.799 287.215 965.385 286.562 970.312 C284.39 974.27 283.027 975.784 278.77 977.32 C275.709 978.103 272.672 978.756 269.562 979.312 C268.633 979.485 267.703 979.658 266.746 979.836 C231.694 985.084 198.585 973.987 170.384 953.669 C160.863 946.579 152.618 938.913 145.562 929.312 C144.78 928.271 143.998 927.229 143.191 926.156 C135.824 916.119 131.801 906.477 129.562 894.312 C128.328 894.699 127.093 895.086 125.82 895.484 C117.315 898.113 108.818 900.631 100.125 902.562 C99.454 902.713 98.783 902.863 98.092 903.019 C95.921 903.484 93.745 903.903 91.562 904.312 C90.67 904.491 89.777 904.669 88.857 904.852 C78.618 906.687 68.43 906.71 58.062 906.688 C57.117 906.687 56.171 906.686 55.196 906.686 C17.294 906.586 -16.978 898.213 -50.438 880.312 C-50.983 880.025 -50.983 880.025 -53.742 878.57 C-60.874 874.632 -66.548 869.902 -72.438 864.312 C-73.787 863.161 -75.141 862.015 -76.5 860.875 C-100.084 840.116 -117.476 807.072 -126.438 777.312 C-126.62 776.746 -126.62 776.746 -127.543 773.879 C-132.135 758.478 -132.88 742.302 -132.438 726.312 C-133.108 726.474 -133.778 726.635 -134.469 726.801 C-153.627 730.103 -172.558 725.176 -188.438 714.312 C-189.221 713.508 -190.005 712.704 -190.812 711.875 C-195.349 709.175 -200.362 710.691 -205.438 711.312 C-223.123 712.949 -243.113 705.261 -256.914 694.465 C-265.973 686.738 -275.614 677.675 -277.438 665.312 C-278.613 665.251 -279.789 665.189 -281 665.125 C-298.052 663.147 -313.541 654.391 -325.438 642.312 C-326.207 641.542 -326.977 640.771 -327.77 639.977 C-341.779 625.227 -348.181 608.275 -347.773 588.059 C-347.014 572.785 -340.33 557.678 -335.206 543.463 C-332.257 535.211 -332.634 527.382 -335.926 519.25 C-339.731 511.855 -344.98 505.27 -350.254 498.871 C-365.628 480.146 -372.208 460.556 -370.438 436.312 C-366.92 409.309 -354.89 388.457 -338.113 367.395 C-333.253 361.278 -328.809 355.016 -324.688 348.375 C-324.252 347.685 -323.817 346.994 -323.368 346.283 C-316.521 335.014 -312.529 323.264 -309.677 310.499 C-309.187 308.311 -308.677 306.128 -308.164 303.945 C-303.394 283.376 -302.337 262.89 -301.961 241.865 C-301.793 232.865 -301.253 224.163 -299.438 215.312 C-300.179 215.154 -300.921 214.996 -301.685 214.833 C-311.629 212.625 -319.457 207.828 -325.258 199.355 C-331.966 187.738 -331.706 174.2 -328.488 161.496 C-324.974 150.849 -318.922 142.297 -309.438 136.312 C-302.691 133.04 -296.032 132.174 -288.562 132.25 C-287.41 132.259 -286.258 132.268 -285.07 132.277 C-284.201 132.289 -283.333 132.301 -282.438 132.312 C-282.484 131.225 -282.53 130.137 -282.578 129.016 C-282.966 116.039 -281.471 105.283 -272.438 95.312 C-271.816 94.623 -271.195 93.933 -270.555 93.223 C-262.091 84.311 -252.894 79.305 -240.438 78.938 C-235.511 79.052 -231.309 79.969 -226.691 81.656 C-224.012 82.436 -222.214 82.719 -219.438 82.312 C-216.93 80.441 -216.93 80.441 -214.312 77.875 C-213.338 76.944 -212.361 76.016 -211.383 75.09 C-210.891 74.62 -210.399 74.151 -209.892 73.667 C-205.941 69.986 -201.644 66.692 -197.438 63.312 C-196.27 62.354 -195.104 61.394 -193.938 60.434 C-172.58 42.928 -148.731 30.769 -123.312 20.188 C-122.309 19.763 -121.306 19.338 -120.272 18.901 C-104.382 12.498 -87.354 9.513 -70.539 6.627 C-67.635 6.127 -64.735 5.608 -61.834 5.088 C-41.278 1.472 -20.861 -0.089 0 0 Z " fill="#48270D" transform="translate(500.4375,15.6875)"/>
<path d="M0 0 C3.936 0.003 7.871 -0.02 11.806 -0.046 C26.092 -0.081 39.882 0.602 53.978 2.96 C56.805 3.425 59.643 3.797 62.484 4.167 C78.891 6.543 94.436 11.136 110.14 16.316 C110.991 16.592 111.842 16.868 112.719 17.152 C121.386 20.024 128.108 24.083 135.043 29.948 C142.49 35.639 148.812 36.936 158.078 37.691 C169.481 38.816 179.844 41.168 190.14 46.316 C190.14 46.976 190.14 47.636 190.14 48.316 C190.652 48.414 191.164 48.512 191.691 48.613 C209.179 53.633 224.262 67.042 237.14 79.316 C237.933 80.022 238.726 80.728 239.543 81.456 C255.261 96.057 266.4 117.535 274.14 137.316 C274.481 138.172 274.821 139.028 275.172 139.909 C279.454 150.733 283.435 161.584 286.515 172.816 C286.742 173.637 286.968 174.459 287.201 175.306 C290.708 188.67 292.613 202.038 293.676 215.777 C293.8 217.303 293.926 218.828 294.052 220.354 C294.379 224.328 294.696 228.303 295.011 232.278 C295.576 239.383 296.157 246.486 296.738 253.589 C296.8 254.342 296.861 255.096 296.925 255.872 C299.55 287.86 299.55 287.86 302.328 298.253 C302.435 298.663 302.435 298.663 302.975 300.738 C310.423 328.356 323.906 349.753 343.023 370.952 C343.722 371.732 344.421 372.512 345.14 373.316 C345.404 373.593 345.404 373.593 346.738 374.998 C351.484 380.142 354.739 385.526 357.89 391.753 C358.358 392.643 358.826 393.533 359.308 394.45 C368.631 412.528 371.502 434.014 365.531 453.652 C361.841 463.375 356.897 471.781 350.215 479.749 C337.668 495.273 330.311 513.072 332.14 533.316 C333.544 542.016 336.368 550.483 339.308 558.765 C343.123 570.459 343.239 587.418 338.515 598.769 C329.288 615.86 315.413 628.092 296.91 633.634 C294.988 634.198 293.064 634.757 291.14 635.316 C285.714 636.947 282.22 638.324 279.14 643.316 C278.385 644.896 277.635 646.48 276.89 648.066 C270.457 661.105 258.461 668.905 245.398 674.562 C238.413 676.894 232.342 677.608 225.015 677.503 C224.148 677.503 223.28 677.502 222.386 677.501 C217.864 677.47 213.589 677.227 209.14 676.316 C210.488 673.381 212.026 671.065 214.14 668.628 C214.656 668.026 215.172 667.424 215.703 666.804 C217.14 665.316 217.14 665.316 219.14 664.316 C219.862 662.672 220.534 661.005 221.14 659.316 C221.805 659.312 222.469 659.307 223.153 659.303 C247.629 659.038 247.629 659.038 257.14 653.316 C257.964 652.859 258.788 652.403 259.636 651.933 C266.154 648.016 271.338 642.89 273.515 635.441 C273.767 634.073 273.973 632.696 274.14 631.316 C274.193 630.912 274.193 630.912 274.461 628.87 C274.874 622.992 273.765 619.767 269.941 615.3 C269.347 614.645 268.753 613.99 268.14 613.316 C267.375 612.328 266.609 611.341 265.82 610.323 C263.25 607.24 260.477 605.403 256.953 603.441 C256.356 603.106 255.76 602.771 255.145 602.427 C250.219 599.734 245.12 597.559 239.953 595.378 C229.247 590.804 221.74 584.379 214.211 575.554 C211.163 572.259 207.718 569.562 204.211 566.773 C196.449 560.562 188.705 554.183 181.823 546.997 C180.119 545.294 178.345 543.737 176.511 542.175 C171.832 538.106 167.45 533.773 163.078 529.378 C162.696 528.998 162.696 528.998 160.763 527.075 C156.563 522.868 152.542 518.568 148.662 514.064 C143.035 507.598 136.66 501.859 130.14 496.316 C128.807 495.17 127.474 494.024 126.14 492.878 C125.15 492.033 124.16 491.187 123.14 490.316 C123.47 489.656 123.8 488.996 124.14 488.316 C126.929 487.505 129.692 486.796 132.515 486.128 C155.891 480.278 177.109 471.019 194.875 454.429 C196.934 452.508 199.047 450.69 201.203 448.878 C208.234 442.692 214.05 435.755 219.265 428.003 C219.692 427.371 220.119 426.738 220.559 426.087 C222.599 422.976 224.385 419.929 225.836 416.499 C227.356 413.02 228.658 410.194 231.14 407.316 C234.712 406.289 237.732 406.252 241.441 406.327 C254.303 406.287 265.695 399.291 274.785 390.765 C288.421 376.586 293.412 358.141 293.703 338.941 C293.73 337.943 293.757 336.945 293.784 335.917 C293.734 325.951 289.939 318.613 283.203 311.441 C282.389 310.556 281.576 309.672 280.738 308.761 C277.205 305.435 273.763 302.856 269.14 301.316 C269.14 300.656 269.14 299.996 269.14 299.316 C264.344 298.415 259.626 298.021 254.765 297.753 C254.029 297.71 253.293 297.667 252.535 297.622 C250.737 297.517 248.939 297.416 247.14 297.316 C247.04 296.355 246.94 295.394 246.837 294.404 C243.107 258.946 243.107 258.946 239.14 243.316 C238.822 242.047 238.504 240.779 238.176 239.472 C237.525 236.903 236.87 234.335 236.211 231.769 C234.576 225.173 233.288 218.494 231.979 211.827 C228.662 195.33 228.662 195.33 224.14 192.316 C221.64 191.941 221.64 191.941 219.14 192.316 C217.328 193.753 217.328 193.753 216.14 196.316 C215.651 204.059 217.124 211.034 218.828 218.566 C219.096 219.789 219.364 221.012 219.641 222.273 C220.926 228.09 222.266 233.89 223.687 239.675 C223.922 240.634 224.157 241.593 224.399 242.58 C224.841 244.362 225.293 246.142 225.754 247.918 C225.854 248.314 225.854 248.314 226.355 250.316 C226.532 250.996 226.708 251.677 226.89 252.378 C227.178 254.606 226.808 256.187 226.14 258.316 C197.792 244.084 175.116 219.718 161.14 191.316 C160.722 190.469 160.303 189.622 159.872 188.75 C153.251 175.105 148.386 161.485 144.777 146.798 C144.486 145.633 144.194 144.469 143.894 143.269 C143.772 142.754 143.772 142.754 143.154 140.149 C142.003 136.933 140.396 134.855 138.14 132.316 C135.91 132.241 135.91 132.241 133.14 133.316 C131.272 136.185 130.097 139.333 128.828 142.503 C128.044 144.345 127.255 146.185 126.461 148.023 C126.266 148.476 126.266 148.476 125.278 150.767 C106.856 192.03 68.122 219.967 27.135 236.002 C8.058 243.245 -10.758 247.532 -31.242 247.413 C-32.183 247.412 -33.123 247.411 -34.092 247.409 C-37.056 247.404 -40.02 247.391 -42.985 247.378 C-45.011 247.373 -47.037 247.369 -49.063 247.365 C-53.995 247.354 -58.927 247.336 -63.86 247.316 C-61.091 244.394 -58.234 242.784 -54.672 240.878 C-35.529 230.26 -19.206 214.821 -3.441 199.818 C-2.131 198.574 -0.811 197.34 0.511 196.109 C11.85 185.272 28.75 165.434 30.578 149.503 C30.159 146.454 29.479 144.077 28.14 141.316 C25.078 140.691 25.078 140.691 21.14 141.316 C18.264 144.293 16.26 147.776 14.14 151.316 C13.02 153.11 11.895 154.902 10.765 156.691 C10.188 157.606 9.61 158.521 9.015 159.464 C5.64 164.597 1.949 169.497 -1.86 174.316 C-2.501 175.127 -3.142 175.939 -3.802 176.775 C-16.819 192.988 -31.795 207.433 -48.86 219.316 C-49.48 219.754 -50.1 220.192 -50.739 220.643 C-77.487 239.448 -106.803 253.222 -138.36 261.691 C-139.599 262.025 -140.839 262.359 -142.117 262.703 C-159.796 267.3 -176.664 267.674 -194.834 267.772 C-198.187 267.794 -201.539 267.833 -204.891 267.874 C-205.918 267.874 -206.945 267.874 -208.003 267.875 C-216.866 267.998 -216.866 267.998 -220.86 271.316 C-224.81 275.899 -224.87 281.844 -225.547 287.628 C-225.612 288.142 -225.612 288.142 -225.94 290.74 C-226.257 293.264 -226.563 295.789 -226.86 298.316 C-227.803 298.258 -228.747 298.2 -229.719 298.14 C-243.014 297.673 -252.942 301.118 -262.86 310.316 C-269.574 316.85 -274.847 323.628 -275.356 333.296 C-275.362 335.032 -275.342 336.768 -275.297 338.503 C-275.283 339.422 -275.269 340.34 -275.255 341.286 C-274.926 353.5 -272.126 364.262 -266.86 375.316 C-266.491 376.106 -266.122 376.896 -265.742 377.71 C-259.063 390.862 -247.823 399.668 -234.078 404.605 C-231.36 405.205 -229.262 405.396 -226.516 405.402 C-214.702 405.553 -214.702 405.553 -211.203 408.9 C-208.174 413.034 -206.047 417.619 -203.89 422.25 C-201.618 426.805 -198.207 430.525 -194.86 434.316 C-194.094 435.19 -193.328 436.064 -192.539 436.964 C-188.767 441.21 -184.93 445.352 -180.86 449.316 C-180.613 449.572 -180.613 449.572 -179.365 450.868 C-158.958 471.905 -130.587 481.369 -102.86 488.316 C-102.86 488.976 -102.86 489.636 -102.86 490.316 C-104.379 491.615 -104.379 491.615 -106.449 493.069 C-110.36 495.911 -113.915 498.94 -117.426 502.257 C-118.051 502.844 -118.677 503.432 -119.321 504.037 C-129.364 513.551 -139.05 523.439 -148.797 533.253 C-152.308 536.788 -155.82 540.32 -159.336 543.848 C-160.719 545.237 -162.098 546.629 -163.477 548.021 C-168.439 553.002 -173.51 557.755 -178.86 562.316 C-180.743 563.994 -182.618 565.681 -184.485 567.378 C-184.735 567.605 -184.735 567.605 -186 568.754 C-188.866 571.385 -191.629 574.081 -194.321 576.89 C-204.758 587.773 -215.137 593.68 -229.055 599.334 C-235.129 601.86 -240.086 604.729 -244.86 609.316 C-245.512 609.903 -246.164 610.491 -246.836 611.097 C-252.093 616.029 -254.975 620.181 -255.235 627.566 C-254.974 635.568 -253.378 642.814 -247.707 648.722 C-239.204 656.057 -229.674 659.426 -218.485 659.327 C-203.211 659.245 -203.211 659.245 -198.875 662.679 C-196.96 665.481 -195.386 668.289 -193.86 671.316 C-189.815 675.457 -186.447 675.589 -180.86 675.753 C-175.676 675.747 -172.128 675.353 -167.86 672.316 C-165.28 668.987 -163.143 665.428 -160.985 661.816 C-159.747 659.809 -158.508 657.804 -157.266 655.8 C-156.677 654.844 -156.088 653.888 -155.481 652.904 C-152.522 648.181 -149.269 643.724 -145.86 639.316 C-145.254 638.507 -144.648 637.699 -144.024 636.866 C-140.214 631.914 -136.104 627.336 -131.735 622.878 C-131.489 622.624 -131.489 622.624 -130.247 621.337 C-127.064 618.16 -123.973 616.116 -119.86 614.316 C-120.018 614.855 -120.177 615.393 -120.34 615.948 C-121.223 619.06 -122.043 622.186 -122.86 625.316 C-122.956 625.675 -122.956 625.675 -123.444 627.496 C-127.568 643.117 -129.209 658.73 -130.551 674.775 C-130.972 679.61 -131.493 684.432 -132.047 689.253 C-132.131 689.992 -132.215 690.731 -132.302 691.492 C-132.486 693.1 -132.672 694.708 -132.86 696.316 C-149.484 696.87 -162.778 697.069 -176.934 687.292 C-177.899 686.64 -178.865 685.988 -179.86 685.316 C-180.537 684.801 -181.215 684.287 -181.914 683.757 C-189.276 678.63 -195.413 678.708 -204.172 679.191 C-214.314 679.691 -222.316 678.874 -231.86 675.316 C-232.401 675.126 -232.401 675.126 -235.141 674.168 C-250.475 668.68 -258.175 656.427 -264.86 642.316 C-265.129 641.612 -265.398 640.908 -265.676 640.183 C-266.86 638.316 -266.86 638.316 -268.899 637.445 C-269.325 637.351 -269.325 637.351 -271.485 636.878 C-293.585 631.469 -313.087 623.244 -325.86 603.316 C-330.769 594.565 -332.018 585.709 -332.11 575.816 C-332.119 575.128 -332.128 574.44 -332.138 573.732 C-332.08 564.299 -329.638 556.159 -325.922 547.566 C-319.219 531.394 -315.905 516.085 -322.658 499.336 C-326.609 489.945 -331.031 481.955 -337.86 474.316 C-350.861 459.23 -356.971 442.448 -356.03 422.465 C-354.458 402.637 -346.057 385.979 -333.338 371.095 C-329.638 366.642 -326.377 361.846 -323.086 357.088 C-322.257 355.89 -321.424 354.696 -320.586 353.504 C-302.585 327.852 -290.241 295.629 -288.235 264.191 C-288.16 263.074 -288.085 261.958 -288.008 260.808 C-287.959 259.985 -287.91 259.163 -287.86 258.316 C-287.075 258.798 -286.29 259.28 -285.481 259.777 C-273.572 266.936 -263.026 269.397 -249.172 266.316 C-238.552 262.958 -231.078 255.261 -224.86 246.316 C-224.53 245.656 -224.2 244.996 -223.86 244.316 C-220.18 244.949 -217.782 246.585 -214.735 248.691 C-205.144 254.86 -196.245 256.458 -184.86 255.316 C-173.841 252.825 -165.432 246.372 -158.86 237.316 C-151.74 225.317 -149.949 212.643 -152.477 198.98 C-154.623 192.198 -158.487 187.867 -163.86 183.316 C-161.194 181.263 -158.473 179.452 -155.61 177.691 C-145.352 170.824 -139.329 161.35 -136.547 149.378 C-134.521 136.909 -135.827 125.079 -142.86 114.316 C-143.846 112.972 -144.844 111.637 -145.86 110.316 C-146.458 109.429 -147.056 108.542 -147.672 107.628 C-154.21 100.717 -162.432 96.505 -171.926 96.07 C-173.425 96.037 -174.923 96.015 -176.422 96.003 C-177.13 95.998 -177.839 95.992 -178.569 95.986 C-182.216 96.036 -185.484 96.387 -189.012 97.335 C-192.503 98.225 -195.286 98.494 -198.86 98.316 C-199.163 97.458 -199.465 96.601 -199.778 95.718 C-202.177 89.169 -204.585 83.812 -208.86 78.316 C-208.86 77.656 -208.86 76.996 -208.86 76.316 C-206.913 74.697 -204.961 73.186 -202.922 71.691 C-198.991 68.75 -195.193 65.805 -191.61 62.441 C-177.622 49.759 -160.69 40.32 -144.11 31.503 C-143.259 31.047 -142.407 30.59 -141.531 30.12 C-136.236 27.35 -130.924 25.171 -125.284 23.203 C-122.505 22.186 -119.995 20.898 -117.422 19.441 C-105.357 13.291 -92.141 10.19 -78.786 8.43 C-70.7 7.362 -62.739 5.789 -54.758 4.116 C-36.565 0.446 -18.518 -0.031 0 0 Z " fill="#FA9135" transform="translate(500.859619140625,31.684326171875)"/>
<path d="M0 0 C2.115 3.172 3.27 6.126 4.625 9.688 C12.286 29.241 22.628 47.789 36 64 C36.225 64.276 36.225 64.276 37.364 65.672 C53.506 85.4 71.42 100.294 96 108 C97.628 122.565 98.2 136.982 98.188 151.625 C98.188 152.028 98.188 152.028 98.19 154.069 C98.189 164.088 97.901 174.015 97 184 C96.933 184.786 96.867 185.572 96.798 186.381 C94.428 211.066 84.881 237.904 69 257 C68.036 258.329 67.078 259.663 66.125 261 C51.095 280.82 26.563 294.935 3 302 C2.563 302.135 2.563 302.135 0.354 302.815 C-22.653 309.843 -45.542 313.06 -69.375 315.688 C-70.358 315.796 -71.341 315.905 -72.354 316.017 C-147.742 324.288 -239.798 324.086 -302.055 274.166 C-322.129 257.627 -333.792 235.773 -341 211 C-341.285 210.04 -341.57 209.079 -341.863 208.09 C-349.684 178.289 -347.915 146.334 -345 116 C-343.862 115.975 -342.723 115.95 -341.55 115.924 C-337.26 115.829 -332.97 115.729 -328.679 115.628 C-326.835 115.585 -324.99 115.543 -323.146 115.503 C-292.843 114.836 -292.843 114.836 -278.188 111.25 C-277.065 110.982 -275.942 110.714 -274.785 110.438 C-260.123 106.888 -246.235 102.723 -232.504 96.387 C-221.086 91.237 -213.968 90.103 -201.785 93.211 C-192.18 95.213 -182.446 95.159 -172.675 95.13 C-170.504 95.125 -168.332 95.13 -166.16 95.137 C-135.053 95.157 -104.09 87.133 -76.815 72.006 C-74.881 70.934 -72.93 69.895 -70.977 68.855 C-57.175 61.415 -45.025 52.659 -33.782 41.73 C-32.518 40.503 -31.247 39.282 -29.972 38.066 C-14.786 23.572 -14.786 23.572 -10 14 C-8.785 11.825 -7.556 9.659 -6.312 7.5 C-6.032 7 -6.032 7 -4.613 4.469 C-3 2 -3 2 0 0 Z " fill="#FED3A4" transform="translate(635,199)"/>
<path d="M0 0 C11.837 23.674 0.593 72.882 -7.258 97.023 C-8.074 99.391 -8.898 101.755 -9.73 104.117 C-19.488 132.877 -19.488 132.877 -13.938 145.25 C-9.995 152.208 -5.005 157.443 2.535 160.395 C7.769 161.68 13.129 161.723 17.855 158.887 C22.016 154.748 23.348 149.38 25.052 143.898 C29.173 130.819 36.392 121.458 46 112 C46.45 111.551 46.45 111.551 48.727 109.277 C55.534 102.781 62.897 97.706 71 93 C72.101 92.359 73.202 91.719 74.336 91.059 C88.214 83.569 103.269 80.154 119 80 C119.936 79.986 120.872 79.973 121.836 79.958 C126.958 79.892 132.081 79.855 137.203 79.867 C138.056 79.868 138.908 79.869 139.786 79.871 C142 80 142 80 145 81 C143.787 83.756 142.425 85.729 140.535 88.125 C137.694 92.074 136.908 95.705 136.125 100.438 C132.811 117.419 124.981 132.106 113.113 144.711 C111 147 111 147 109.062 149.516 C99.267 161.315 83.643 166.902 69.609 171.859 C67.059 172.974 65.662 173.791 64 176 C63.625 179 63.625 179 64 182 C66.031 184.559 67.732 185.45 70.879 186.176 C71.63 186.361 72.382 186.545 73.156 186.736 C73.95 186.926 74.744 187.116 75.562 187.312 C82.863 189.212 88.887 191.453 95 196 C95.838 196.608 96.676 197.217 97.539 197.844 C115.86 211.792 125.747 230.258 129.062 252.688 C129.201 253.745 129.339 254.802 129.482 255.892 C130.316 261.964 131.59 267.197 134.12 272.794 C135.468 276.174 135.732 279.386 136 283 C129.23 284.022 122.59 284.183 115.75 284.188 C114.694 284.2 113.639 284.212 112.551 284.225 C82.724 284.279 55.408 269.186 34.07 249.078 C21.241 236.2 15.036 222.335 10 205 C9.44 203.083 8.877 201.166 8.312 199.25 C8.082 198.451 7.851 197.652 7.613 196.828 C7 195 7 195 6 194 C0.93 193.642 -2.176 194.235 -6.625 196.625 C-48.566 216.787 -103.091 214.16 -146.099 199.273 C-168.582 191.181 -188.928 179.489 -204.336 160.969 C-205.548 159.535 -206.811 158.144 -208.102 156.781 C-214.42 150.094 -219.297 142.852 -224 135 C-224.371 134.389 -224.743 133.778 -225.125 133.149 C-231.895 121.934 -237.26 110.204 -242 98 C-242.137 97.652 -242.137 97.652 -242.829 95.891 C-253.851 66.847 -251.464 31.309 -248 1 C-240.728 1.496 -233.823 2.499 -226.75 4.25 C-225.841 4.47 -224.932 4.691 -223.996 4.918 C-217.376 6.562 -210.976 8.562 -204.539 10.82 C-200.889 12.037 -197.232 13.003 -193.5 13.938 C-186.353 15.786 -179.729 18.327 -172.941 21.193 C-170.747 22.105 -168.538 22.978 -166.328 23.852 C-160.352 26.236 -154.455 28.793 -148.562 31.375 C-147.507 31.831 -146.452 32.288 -145.365 32.758 C-140.124 35.054 -135.181 37.458 -130.277 40.414 C-126.059 42.72 -123.227 43.775 -118.475 42.813 C-112.858 40.967 -107.565 38.441 -102.25 35.875 C-101.657 35.597 -101.657 35.597 -98.656 34.188 C-88.443 29.348 -78.379 24.331 -69 18 C-62.616 14.645 -55.736 13.178 -48.733 11.713 C-40.56 9.977 -32.526 7.775 -24.475 5.55 C-4.285 0 -4.285 0 0 0 Z " fill="#44C2AF" transform="translate(633,697)"/>
<path d="M0 0 C5.323 0.033 8.233 2.912 12.047 6.328 C13.463 7.543 14.88 8.758 16.297 9.973 C16.976 10.566 17.656 11.16 18.355 11.772 C20.684 13.778 23.112 15.64 25.547 17.516 C36.448 26.425 46.42 36.877 55.599 47.531 C58.172 50.457 60.905 53.21 63.672 55.953 C63.954 56.234 63.954 56.234 65.382 57.657 C68.945 61.183 72.598 64.55 76.422 67.793 C78.396 69.533 80.214 71.377 82.047 73.266 C85.91 77.189 90.089 80.595 94.379 84.039 C97.252 86.406 99.997 88.868 102.734 91.391 C107.235 95.53 111.869 99.447 116.629 103.285 C119.234 105.391 119.234 105.391 121.852 107.848 C126.924 112.086 133.49 114.049 139.561 116.465 C147.69 119.828 156.689 124.486 161.234 132.391 C161.969 136.88 161.655 138.74 159.172 142.578 C155.414 146.571 150.673 149.438 145.234 150.391 C142.891 150.415 140.546 150.382 138.203 150.312 C136.822 150.285 135.44 150.259 134.059 150.234 C131.892 150.191 129.727 150.14 127.561 150.068 C125.462 150.002 123.365 149.967 121.266 149.938 C120.013 149.905 118.761 149.872 117.471 149.839 C114.234 150.391 114.234 150.391 111.86 152.752 C110.222 155.411 109.287 157.694 108.484 160.703 C108.242 161.586 108 162.469 107.75 163.379 C107.665 163.711 107.665 163.711 107.234 165.391 C104.097 165.895 102.267 166.108 99.234 165.391 C93.055 160.82 89.449 153.58 85.658 147.056 C80.442 138.169 74.089 130.906 66.309 124.176 C61.243 119.692 56.572 114.769 51.83 109.949 C47.685 105.757 43.477 101.764 38.941 97.994 C31.065 90.593 29.857 78.768 27.641 68.692 C27.223 66.8 26.799 64.909 26.371 63.019 C25.955 61.177 25.55 59.333 25.16 57.485 C24.054 52.593 23.035 48.93 19.234 45.391 C15.984 45.078 15.984 45.078 13.234 45.391 C12.739 46.546 12.739 46.546 10.234 52.391 C9.314 51.86 8.394 51.328 7.445 50.781 C-11.175 40.294 -32.021 35.911 -53.008 41.482 C-66.736 45.546 -76.853 53.473 -85.766 64.391 C-88.964 63.001 -90.83 61.416 -93.141 58.828 C-106.408 45.29 -124.652 38.326 -143.398 37.909 C-157.007 37.836 -166.812 38.874 -178.523 46.09 C-180.766 47.391 -180.766 47.391 -182.766 47.391 C-184.391 45.391 -184.391 45.391 -185.766 43.391 C-192.244 43.88 -192.244 43.88 -194.289 45.883 C-196.421 49.504 -197.721 53.299 -199.078 57.266 C-199.383 58.136 -199.688 59.007 -200.002 59.903 C-201.633 64.669 -203.077 69.436 -204.309 74.32 C-204.555 75.292 -204.801 76.265 -205.055 77.266 C-205.516 79.132 -205.957 81.002 -206.372 82.878 C-208.5 91.547 -213.549 96.73 -220.203 102.453 C-220.882 103.042 -221.562 103.631 -222.262 104.238 C-223.687 105.463 -225.115 106.685 -226.551 107.896 C-231.653 112.258 -236.235 116.944 -240.766 121.891 C-244.637 126.117 -248.432 130.178 -252.883 133.801 C-257.386 137.651 -260.033 142.194 -262.891 147.328 C-271.033 161.658 -271.033 161.658 -275.766 166.391 C-279.141 166.766 -279.141 166.766 -282.766 166.391 C-284.453 164.391 -284.453 164.391 -285.766 161.391 C-286.445 159.991 -287.133 158.595 -287.828 157.203 C-288.149 156.529 -288.47 155.855 -288.801 155.16 C-289.766 153.391 -289.766 153.391 -291.766 151.391 C-295.572 151.2 -298.887 151.24 -302.641 151.883 C-313.912 153.714 -322.299 151.983 -332.141 146.516 C-335.203 144.037 -337.001 141.92 -338.766 138.391 C-339.032 134.314 -337.606 131.728 -335.266 128.516 C-328.75 121.521 -318.522 118.091 -309.699 114.895 C-298.508 110.708 -291.227 103.963 -282.899 95.528 C-279.417 92.039 -275.808 88.688 -272.203 85.328 C-271.573 84.734 -270.942 84.14 -270.293 83.527 C-267.173 80.592 -264.015 77.723 -260.773 74.922 C-256.751 71.424 -252.958 67.735 -249.203 63.953 C-248.874 63.623 -248.874 63.623 -247.208 61.952 C-243.488 58.199 -239.914 54.38 -236.496 50.348 C-230.83 43.94 -224.601 37.983 -218.094 32.441 C-216.189 30.764 -214.34 29.056 -212.5 27.309 C-185.428 1.6 -185.428 1.6 -178.055 1.178 C-173.98 1.284 -170.127 1.955 -166.133 2.785 C-126.767 10.591 -84.388 9.177 -44.578 6.078 C-44.194 6.049 -44.194 6.049 -42.248 5.9 C-33.343 5.194 -24.67 3.938 -15.938 2.055 C-10.63 0.943 -5.378 0.558 0 0 Z " fill="#FDD4A5" transform="translate(598.765625,524.609375)"/>
<path d="M0 0 C6.33 2.793 10.929 7.917 13.746 14.156 C16.499 22.211 17.349 30.375 18.098 38.801 C18.492 42.379 18.492 42.379 19.492 43.379 C21.754 43.707 21.754 43.707 24.492 43.379 C26.887 41.551 26.887 41.551 29.305 39.129 C37.155 31.711 44.316 28.972 55.133 29.172 C63.161 29.876 69.293 33.253 74.492 39.379 C80.22 47.61 81.988 55.459 80.492 65.379 C77.935 74.663 70.14 82.819 62.094 87.891 C57.687 89.97 53.129 91.059 48.34 91.887 C46.492 92.379 46.492 92.379 44.492 94.379 C44.592 99.809 46.98 102.502 50.68 106.129 C59.171 114.873 63.795 122.524 63.807 134.779 C63.663 142.874 61.698 148.211 56.242 154.254 C50.072 159.876 43.806 160.972 35.582 160.723 C26.545 159.717 19.597 156.06 13.492 149.379 C11.888 147.287 10.361 145.184 8.914 142.98 C7.202 141.052 6.003 140.754 3.492 140.379 C2.832 141.431 2.172 142.483 1.492 143.566 C1.264 143.929 1.264 143.929 0.109 145.762 C-1.076 147.68 -2.233 149.615 -3.375 151.559 C-9.295 161.533 -14.961 169.659 -26.551 172.961 C-33.535 174.453 -39.416 172.817 -45.508 169.379 C-52.378 164.063 -54.981 156.716 -56.508 148.379 C-57.335 138.328 -57.238 126.876 -52.883 117.566 C-51.296 113.888 -51.041 111.345 -51.508 107.379 C-54.616 105.307 -56.419 105.082 -60.056 104.798 C-67.612 104.201 -73.212 103.263 -78.508 97.379 C-84.945 89.247 -85.667 80.454 -84.508 70.379 C-82.06 63.217 -77.849 57.534 -71.508 53.379 C-70.944 53.006 -70.381 52.634 -69.801 52.25 C-66.399 50.958 -63.036 50.998 -59.445 51.004 C-59.067 51.003 -59.067 51.003 -57.151 51 C-51.514 51.106 -47.017 52.248 -41.816 54.48 C-38.474 55.781 -36.048 55.831 -32.508 55.379 C-31.848 54.719 -31.188 54.059 -30.508 53.379 C-30.84 49.065 -32.13 45.885 -34.07 42.066 C-37.644 33.676 -38.51 23.97 -35.398 15.281 C-27.871 1.866 -15.115 -3.744 0 0 Z " fill="#F872A2" transform="translate(270.5078125,112.62109375)"/>
<path d="M0 0 C3.5 1.435 5.042 3.109 7.188 6.188 C16.766 18.77 31.013 23.888 46.188 26.527 C65.401 28.909 84.723 25.038 100.418 13.172 C104.18 9.61 106.656 5.595 109 1 C114.039 8.559 115.309 18.194 117.188 26.938 C117.324 27.543 117.324 27.543 118.014 30.607 C119.505 37.511 120.413 43.935 120 51 C115.274 53.026 110.813 54.282 105.75 55.188 C84.102 59.233 63.32 66.674 43 75 C42.066 75.378 41.132 75.755 40.169 76.145 C29.04 80.661 18.358 85.664 7.925 91.635 C7.105 92.088 6.286 92.541 5.441 93.008 C4.727 93.417 4.012 93.825 3.276 94.247 C-2.23 96.069 -7.493 93.135 -12.504 90.902 C-13.215 90.592 -13.927 90.282 -14.66 89.963 C-16.177 89.302 -17.694 88.638 -19.209 87.971 C-23.172 86.231 -27.146 84.518 -31.121 82.805 C-31.901 82.469 -32.68 82.132 -33.483 81.786 C-62.412 69.346 -91.799 60.259 -123 56 C-122.419 41.562 -118.2 27.371 -113.781 13.688 C-112.743 10.115 -112.29 6.703 -112 3 C-111.381 3.639 -110.762 4.279 -110.125 4.938 C-109.658 5.394 -109.192 5.85 -108.711 6.32 C-107.465 7.543 -106.244 8.792 -105.039 10.055 C-93.745 21.195 -78.671 27.235 -62.898 27.273 C-61.818 27.266 -60.738 27.258 -59.625 27.25 C-58.553 27.258 -57.48 27.265 -56.375 27.273 C-38.783 27.231 -19.868 21.652 -7.035 9.074 C-5.597 7.432 -4.277 5.769 -3 4 C-2.381 3.196 -1.762 2.391 -1.125 1.562 C-0.939 1.305 -0.939 1.305 0 0 Z " fill="#FDD3A4" transform="translate(511,629)"/>
<path d="M0 0 C0.963 0.008 1.926 0.015 2.917 0.023 C17.607 0.359 32.963 4.652 43.977 14.859 C48.809 20.312 50.872 26.339 50.777 33.547 C49.637 41.741 45.029 48.947 38.562 53.98 C28.222 60.868 16.717 63.87 4.375 64.438 C3.061 64.502 1.748 64.566 0.395 64.633 C-13.759 65.112 -24.882 62.29 -35.625 52.438 C-41.37 45.291 -42.548 38.485 -41.625 29.438 C-38.507 18.071 -32.464 10.688 -22.445 4.762 C-14.923 1.23 -8.308 -0.092 0 0 Z " fill="#AD9BE2" transform="translate(452.625,577.5625)"/>
<path d="M0 0 C7.044 5.562 12.882 11.771 14.066 20.98 C14.508 29.178 13.039 34.73 7.684 41.004 C-3.093 51.676 -15.46 54.289 -30.015 54.323 C-43.953 54.137 -57.333 50.356 -67.742 40.699 C-73.534 34.462 -75.093 28.378 -74.974 19.958 C-74.462 10.994 -70.286 5.647 -64.004 -0.371 C-59.751 -3.905 -55.549 -6.243 -50.316 -7.996 C-49.678 -8.22 -49.04 -8.445 -48.383 -8.676 C-32.154 -13.294 -13.569 -9.946 0 0 Z " fill="#AC9AE1" transform="translate(597.31640625,587.99609375)"/>
<path d="M0 0 C6.075 4.731 8.411 11.674 10 19 C10.944 27.488 10.265 35.232 5.371 42.379 C-0.895 50.063 -8.331 54.004 -18.105 55.273 C-24.671 55.594 -29.625 53.754 -35 50 C-42.093 43.287 -45.07 34.115 -45.524 24.568 C-45.63 18.368 -45.632 12.683 -41.617 7.637 C-41.084 7.097 -40.55 6.556 -40 6 C-39.384 5.367 -38.768 4.734 -38.133 4.082 C-27.764 -5.702 -12.485 -7.847 0 0 Z " fill="#3C220D" transform="translate(287,178)"/>
<path d="M0 0 C0.009 0.919 0.019 1.838 0.028 2.784 C0.358 28.769 2.307 53.76 9 79 C-1.19 79.25 -8.871 76.616 -16.5 69.75 C-29.174 55.808 -32.964 40.679 -32.188 22.153 C-31.602 15.439 -28.933 8.659 -24 4 C-16.062 -1.635 -9.272 -3.861 0 0 Z " fill="#FCD5A5" transform="translate(273,345)"/>
<path d="M0 0 C7.817 0.213 12.366 3.012 17.688 8.625 C23.456 15.037 24.886 21.844 24.688 30.25 C24.676 31.042 24.665 31.833 24.653 32.649 C24.519 38.407 24.032 43.835 22.375 49.375 C22.118 50.263 21.862 51.151 21.598 52.066 C17.779 63.85 10.745 72.233 0.688 79.25 C-4.612 81.05 -10.062 81.136 -15.625 81.375 C-15.32 79.649 -15.016 77.923 -14.711 76.197 C-14.441 74.665 -14.172 73.133 -13.905 71.6 C-13.242 67.817 -12.567 64.039 -11.828 60.27 C-8.579 43.428 -7.478 26.332 -7.054 9.204 C-7.026 8.336 -6.998 7.468 -6.969 6.574 C-6.95 5.809 -6.931 5.045 -6.912 4.257 C-6.278 0.103 -3.589 0.056 0 0 Z " fill="#FBD3A4" transform="translate(754.625,342.625)"/>
<path d="M0 0 C3.118 1.374 5.119 2.918 7.426 5.414 C8.058 6.093 8.69 6.773 9.342 7.473 C9.992 8.183 10.642 8.893 11.312 9.625 C11.951 10.312 12.59 10.999 13.248 11.707 C15.179 13.793 17.093 15.893 19 18 C19.313 18.344 19.313 18.344 20.898 20.083 C24.39 23.982 27.382 27.856 30.062 32.375 C30.397 32.933 30.397 32.933 32.09 35.754 C33.271 37.761 34.451 39.769 35.629 41.777 C37.978 45.759 40.366 49.699 43 53.5 C43.433 54.129 43.866 54.758 44.312 55.406 C48.399 59.265 53.533 59.234 58.875 59.125 C60.027 59.107 61.18 59.089 62.367 59.07 C63.236 59.047 64.105 59.024 65 59 C63.173 60.218 61.341 61.428 59.5 62.625 C57.44 63.981 55.477 65.4 53.516 66.898 C47.582 71.407 42.1 74.718 35 77 C33.804 77.413 32.607 77.825 31.375 78.25 C27.216 79.208 22.999 79.21 18.75 79.25 C18.052 79.259 17.354 79.269 16.634 79.278 C12.916 79.255 10.037 79.229 7 77 C6.394 74.508 6.394 74.508 6.242 71.34 C6.209 70.753 6.209 70.753 6.039 67.784 C6.012 67.149 6.012 67.149 5.875 63.938 C5.764 61.95 5.653 59.963 5.539 57.976 C5.425 55.95 5.319 53.924 5.213 51.897 C4.907 46.3 4.505 40.713 4.062 35.125 C3.984 34.124 3.905 33.123 3.824 32.092 C2.934 21.347 1.517 10.672 0 0 Z " fill="#F99336" transform="translate(643,648)"/>
<path d="M0 0 C3.312 -0.25 3.312 -0.25 7 0 C9.005 2.014 9.911 3.324 10.285 6.156 C9.312 16.405 4.797 25.329 -2.824 32.262 C-15.991 42.781 -32.314 46.988 -49 46 C-63.893 44.065 -77.241 36.699 -86.656 24.93 C-90.656 19 -92.819 12.211 -92 5 C-90.5 2.625 -90.5 2.625 -89 1 C-85.812 1 -85.812 1 -82 2 C-79.843 4.403 -78.449 7.128 -77 10 C-72.517 18.812 -66.706 23.814 -57.395 27.273 C-45.4 30.913 -31.383 30.211 -20 25 C-12.339 20.689 -8.251 14.522 -4 7 C-3.782 6.627 -3.782 6.627 -2.68 4.738 C-1.769 3.169 -0.881 1.586 0 0 Z " fill="#4C280E" transform="translate(672,377)"/>
<path d="M0 0 C4.053 1.482 4.668 3.207 6.482 6.971 C6.83 7.746 7.177 8.521 7.535 9.32 C11.353 17.723 15.823 22.923 24.285 26.945 C25.104 27.344 25.922 27.742 26.766 28.152 C36.005 32.037 49.842 31.729 59.223 28.57 C70.046 23.745 78.381 16.676 83.238 5.832 C84.098 4.133 84.098 4.133 86.098 2.133 C89.395 2.463 90.72 2.755 93.098 5.133 C94.087 12.612 93.488 18.949 89.098 25.133 C88.841 25.497 88.841 25.497 87.543 27.34 C79.664 37.264 66.536 44.131 54.098 46.133 C33.615 47.844 18.929 44.055 2.832 31.344 C-3.323 25.697 -7.474 17.56 -8.277 9.258 C-8.226 5.803 -7.879 5.099 -5.777 2.07 C-2.902 0.133 -2.902 0.133 0 0 Z " fill="#4B280E" transform="translate(347.90234375,375.8671875)"/>
<path d="M0 0 C9.227 8.369 9.227 8.369 9.961 14.855 C10.215 21.78 9.255 26.146 4.688 31.438 C-0.241 36.126 -4.47 36.757 -11.07 36.648 C-15.984 36.186 -18.69 34.075 -22.062 30.625 C-26.461 24.393 -27.496 17.943 -26.312 10.438 C-24.288 5.781 -21.642 2.458 -17.625 -0.625 C-11.563 -2.341 -5.771 -2.722 0 0 Z " fill="#FCD3AD" transform="translate(277.3125,185.5625)"/>
<path d="M0 0 C3.375 -0.562 3.375 -0.562 7 0 C8.354 1.986 9.685 3.988 11 6 C21.13 12.044 34.053 12.753 45.418 10.246 C51.363 8.155 56.326 5.35 61.062 1.188 C63 0 63 0 65.688 0.25 C68 1 68 1 69 2 C69.758 5.938 69.736 9.485 67.965 13.129 C62.344 20.474 51.922 25.118 43 27 C29.456 28.203 15.459 27.581 4.586 18.52 C0.755 14.849 -1.895 11.922 -2.188 6.562 C-2 3 -2 3 0 0 Z " fill="#46250D" transform="translate(478,445)"/>
<path d="M0 0 C1 2 1 2 0.875 4.938 C1 8 1 8 2.265 9.618 C4.18 11.144 5.507 11.629 7.879 12.176 C8.63 12.361 9.382 12.545 10.156 12.736 C10.95 12.926 11.744 13.116 12.562 13.312 C19.863 15.212 25.887 17.453 32 22 C32.419 22.304 32.419 22.304 34.539 23.844 C55.44 39.756 63.522 60.115 67.105 85.305 C67.745 89.69 68.637 93.785 70 98 C69.34 98 68.68 98 68 98 C65.25 91.498 64.119 85.278 63.125 78.312 C61.721 69.296 60.1 61.224 56 53 C55.582 52.162 55.165 51.324 54.734 50.461 C47.725 37.772 38.299 28.424 26 21 C25.327 20.572 24.654 20.144 23.961 19.703 C20.778 17.88 17.662 16.888 14.098 16.09 C13.385 15.928 12.673 15.767 11.939 15.601 C10.509 15.29 9.074 15.004 7.634 14.745 C3.726 13.925 2.127 13.149 -0.496 10.074 C-2.266 6.457 -2.15 4.804 -1 1 C-0.67 0.67 -0.34 0.34 0 0 Z " fill="#1FDCC8" transform="translate(696,871)"/>
<path d="M0 0 C0.66 0 1.32 0 2 0 C3.045 1.52 4.008 3.095 4.938 4.688 C9.623 12.293 15.361 19.559 21.828 25.75 C23 27 23 27 23 29 C23.593 29.263 24.186 29.526 24.797 29.797 C27.1 31.055 28.477 32.339 30.254 34.254 C33.859 37.959 37.707 40.981 41.938 43.938 C42.674 44.453 43.411 44.969 44.169 45.5 C51.425 50.467 58.974 54.438 67 58 C68.187 58.531 69.374 59.062 70.598 59.609 C81.106 64.046 92.003 67.035 103 70 C103 70.33 103 70.66 103 71 C96.021 70.563 89.795 69.331 83.188 67.062 C82.29 66.757 81.393 66.451 80.469 66.136 C61.068 59.304 44.209 50.121 29.184 36.008 C27 34 27 34 24.418 31.953 C14.74 24.136 4.821 11.479 0 0 Z " fill="#271307" transform="translate(293,448)"/>
<path d="M0 0 C3.032 2.792 4.91 5.387 6.75 9.062 C9.972 15.152 13.854 20.513 18 26 C18.701 26.969 19.403 27.939 20.125 28.938 C31.857 45.027 45.69 58.967 63 69 C62.67 69.165 62.67 69.165 61 70 C36.043 57.411 17.107 32.016 3.438 8.312 C3.264 8.012 3.264 8.012 2.386 6.492 C0 2.255 0 2.255 0 0 Z " fill="#26130A" transform="translate(649,229)"/>
<path d="M0 0 C-0.33 0.99 -0.66 1.98 -1 3 C-1 2.34 -1 1.68 -1 1 C-8.583 3.021 -16.165 5.044 -23.746 7.07 C-26.31 7.755 -28.874 8.44 -31.438 9.125 C-31.762 9.212 -31.762 9.212 -33.403 9.651 C-36.529 10.487 -39.656 11.32 -42.785 12.146 C-44.709 12.657 -46.631 13.179 -48.547 13.722 C-52.136 14.712 -54.446 15.078 -58 14 C-43.746 9.401 -29.497 4.918 -14.938 1.375 C-13.893 1.116 -12.848 0.856 -11.772 0.589 C-10.804 0.361 -9.837 0.133 -8.84 -0.102 C-7.998 -0.301 -7.156 -0.5 -6.289 -0.706 C-3.88 -1.015 -2.291 -0.751 0 0 Z " fill="#376B4D" transform="translate(634,696)"/>
<path d="M0 0 C0 0.66 0 1.32 0 2 C0.99 2.33 1.98 2.66 3 3 C4.188 6.062 4.188 6.062 5 9 C4.649 8.639 4.649 8.639 2.875 6.812 C-4.379 -0.401 -9.759 -3.453 -20.26 -3.434 C-28.031 -3.205 -33.035 -0.325 -38.312 5.188 C-43.614 11.977 -45.455 19.554 -46 28 C-46.33 28 -46.66 28 -47 28 C-47.525 18.517 -45.964 11.576 -40 4 C-28.386 -8.054 -14.062 -9.375 0 0 Z " fill="#271706" transform="translate(279,116)"/>
<path d="M0 0 C0.66 0.33 1.32 0.66 2 1 C1.274 1.724 0.549 2.449 -0.199 3.195 C-1.936 4.935 -3.669 6.679 -5.395 8.43 C-9.67 12.753 -13.986 16.93 -18.598 20.891 C-21.992 23.871 -25.311 26.93 -28.625 30 C-29.259 30.582 -29.893 31.163 -30.546 31.763 C-34.201 35.162 -37.548 38.666 -40.715 42.526 C-42.283 44.324 -44.006 45.696 -46 47 C-46.66 46.67 -47.32 46.34 -48 46 C-44.874 42.849 -41.745 39.702 -38.613 36.558 C-37.551 35.491 -36.49 34.423 -35.43 33.355 C-29.468 27.345 -23.443 21.499 -17 16 C-14.922 14.142 -12.865 12.261 -10.812 10.375 C-10.565 10.149 -10.565 10.149 -9.314 9.008 C-6.124 6.082 -3.04 3.079 0 0 Z " fill="#221007" transform="translate(343,573)"/>
</svg>
