<?xml version="1.0" encoding="UTF-8"?>
<!-- Generator: visioncortex VTracer 0.6.12 -->
<svg version="1.1" xmlns="http://www.w3.org/2000/svg" width="1024" height="1024">
<path d="M0 0 C35.07 -0.993 74.044 2.063 107.608 12.63 C110.393 13.164 112.339 12.823 115.061 12.101 C115.061 13.091 115.061 14.081 115.061 15.101 C115.668 15.187 116.275 15.273 116.9 15.362 C124.871 16.642 132.428 18.912 140.08 21.414 C142.213 22.11 144.351 22.789 146.49 23.468 C147.85 23.907 149.209 24.347 150.568 24.788 C151.792 25.184 153.015 25.58 154.276 25.987 C157.061 27.101 157.061 27.101 158.061 29.101 C159.716 29.759 159.716 29.759 161.893 30.382 C167.783 32.238 173.208 34.893 178.748 37.601 C179.754 38.087 180.76 38.573 181.797 39.073 C184.555 40.408 187.309 41.752 190.061 43.101 C191.2 43.655 192.34 44.209 193.514 44.78 C195.827 45.979 197.96 47.278 200.123 48.726 C202.586 50.312 204.018 51.092 206.936 51.663 C207.637 51.807 208.338 51.952 209.061 52.101 C209.363 52.715 209.666 53.33 209.977 53.964 C211.21 56.395 212.269 57.234 214.518 58.729 C215.211 59.201 215.905 59.673 216.62 60.159 C217.364 60.655 218.107 61.152 218.873 61.663 C236.803 73.984 255.969 89.645 269.061 107.101 C269.061 107.761 269.061 108.421 269.061 109.101 C269.721 109.101 270.381 109.101 271.061 109.101 C271.721 110.091 272.381 111.081 273.061 112.101 C274.051 112.761 275.041 113.421 276.061 114.101 C276.061 114.761 276.061 115.421 276.061 116.101 C277.644 118.295 279.255 120.42 280.936 122.538 C285.894 128.851 285.894 128.851 288.061 132.101 C289.051 132.761 290.041 133.421 291.061 134.101 C291.061 134.761 291.061 135.421 291.061 136.101 C292.01 137.918 293.018 139.705 294.053 141.476 C294.675 142.543 295.298 143.61 295.939 144.71 C296.269 145.269 296.269 145.269 297.936 148.101 C298.587 149.219 299.237 150.338 299.908 151.491 C304.796 159.836 304.796 159.836 307.061 162.101 C307.41 163.43 307.739 164.764 308.061 166.101 C308.742 167.762 309.425 169.422 310.128 171.074 C312.583 176.853 314.358 182.097 315.311 188.351 C316.588 195.273 319.761 198.912 324.783 203.698 C327.1 206.142 327.859 208.02 329.061 211.101 C330.051 211.431 331.041 211.761 332.061 212.101 C332.061 213.421 332.061 214.741 332.061 216.101 C332.391 217.256 332.721 218.411 333.061 219.601 C334.647 225.597 334.858 232.355 333.564 238.431 C331.828 247.633 333.434 256.418 335.748 265.351 C336.017 266.431 336.286 267.511 336.563 268.624 C338.498 276.269 340.696 283.8 343.178 291.284 C344.061 294.101 344.061 294.101 344.061 296.101 C344.721 296.431 345.381 296.761 346.061 297.101 C345.731 297.761 345.401 298.421 345.061 299.101 C346.051 299.101 347.041 299.101 348.061 299.101 C348.126 300.216 348.192 301.331 348.26 302.479 C348.952 307.919 351.289 312.262 353.873 317.038 C354.119 317.499 354.119 317.499 355.362 319.831 C359.802 327.973 364.979 335.405 370.445 342.877 C394.741 376.323 411.227 414.288 404.588 456.391 C399.127 487.078 384.827 516.639 359.018 535.159 C352.776 539.257 344.694 544.423 336.947 543.979 C334.246 543.9 332.569 544.045 330.061 545.101 C327.005 548.621 324.648 552.471 322.177 556.411 C307.753 578.242 282.28 591.229 258.061 599.101 C258.061 599.761 258.061 600.421 258.061 601.101 C256.411 601.431 254.761 601.761 253.061 602.101 C253.061 601.441 253.061 600.781 253.061 600.101 C252.082 600.366 251.104 600.632 250.096 600.905 C243.111 602.791 236.142 604.61 229.061 606.101 C233.608 611.896 238.488 615.906 244.561 620.038 C245.438 620.644 246.316 621.25 247.22 621.875 C254.889 627.111 262.748 631.945 271.061 636.101 C272.095 637.746 273.088 639.418 274.061 641.101 C274.741 642.049 275.422 642.998 276.123 643.976 C279.956 650.158 281.079 656.43 279.525 663.554 C278.109 668.725 276.372 672.815 273.061 677.101 C272.38 678.07 271.699 679.039 270.998 680.038 C262.714 689.66 249.379 694.153 237.061 695.101 C237.061 695.761 237.061 696.421 237.061 697.101 C236.401 697.101 235.741 697.101 235.061 697.101 C235.061 696.441 235.061 695.781 235.061 695.101 C230.557 694.924 227.033 694.846 223.061 697.101 C220.926 699.568 219.031 702.142 217.123 704.788 C211.679 708.899 205 709.274 198.307 708.979 C191.247 707.908 184.842 704.751 180.459 698.999 C179.611 697.635 178.797 696.248 178.033 694.835 C177.061 693.101 177.061 693.101 175.061 691.101 C174.048 689.777 173.046 688.445 172.061 687.101 C172.721 686.771 173.381 686.441 174.061 686.101 C174 684.391 173.911 682.683 173.811 680.976 C173.787 680.5 173.787 680.5 173.67 678.093 C172.484 672.271 168.45 668.247 164.295 664.21 C163.405 663.336 162.516 662.462 161.6 661.562 C160.679 660.667 159.759 659.772 158.811 658.851 C156.968 657.058 155.129 655.262 153.295 653.46 C152.889 653.065 152.889 653.065 150.833 651.068 C149.061 649.101 149.061 649.101 149.061 647.101 C146.728 645.894 144.564 644.935 142.061 644.101 C140.373 641.038 140.373 641.038 139.061 638.101 C139.343 639.176 139.625 640.252 139.915 641.36 C145.337 662.127 150.677 682.722 153.061 704.101 C153.159 704.982 153.258 705.863 153.36 706.771 C156.545 738.107 151.671 767.259 143.338 797.323 C143.061 798.325 142.784 799.327 142.499 800.36 C141.971 802.262 141.434 804.162 140.889 806.06 C140.649 806.913 140.409 807.765 140.162 808.644 C139.949 809.386 139.736 810.129 139.516 810.894 C139.01 813.346 138.983 815.604 139.061 818.101 C140.051 818.101 141.041 818.101 142.061 818.101 C144.104 815.581 144.104 815.581 146.248 812.288 C146.606 811.749 146.606 811.749 148.416 809.019 C150.061 806.101 150.061 806.101 150.061 803.101 C151.719 802.087 153.387 801.089 155.061 800.101 C156.4 798.438 157.732 796.771 159.061 795.101 C160.933 793.355 162.866 791.698 164.818 790.042 C166.328 788.735 167.802 787.387 169.24 786.003 C180.202 775.54 193.476 768.563 207.061 762.101 C207.767 761.729 208.473 761.358 209.201 760.976 C211.154 760.057 212.966 759.612 215.061 759.101 C216.583 758.661 218.104 758.214 219.623 757.761 C239.743 751.827 270.353 743.337 290.373 753.976 C293.583 756.513 294.81 758.327 295.383 762.381 C295.476 770.563 293.643 777.956 291.436 785.788 C291.066 787.131 290.696 788.475 290.326 789.818 C280.498 825.148 264.011 851.431 234.061 873.101 C234.69 873.597 235.319 874.093 235.967 874.604 C238.677 876.755 241.369 878.927 244.061 881.101 C244.751 881.639 245.442 882.178 246.154 882.733 C252.558 887.956 257.195 894.49 262.061 901.101 C262.652 901.85 263.244 902.598 263.854 903.37 C265.061 905.101 265.061 905.101 265.061 907.101 C266.051 907.431 267.041 907.761 268.061 908.101 C268.061 909.091 268.061 910.081 268.061 911.101 C269.224 913.49 270.432 915.822 271.686 918.163 C277.988 930.417 281.759 943.148 284.873 956.538 C285.08 957.425 285.287 958.312 285.501 959.226 C289.587 977.708 289.587 977.708 285.061 985.101 C281.213 988.809 277.958 989.877 272.748 990.851 C271.494 991.093 270.24 991.335 268.947 991.585 C268.471 991.67 268.471 991.67 266.061 992.101 C266.391 992.761 266.721 993.421 267.061 994.101 C265.186 994.726 265.186 994.726 263.061 995.101 C262.401 994.441 261.741 993.781 261.061 993.101 C257.401 991.741 253.669 992.002 249.811 992.038 C249.179 992.043 249.179 992.043 245.982 992.065 C245.018 992.077 244.054 992.089 243.061 992.101 C243.061 991.441 243.061 990.781 243.061 990.101 C242.545 990.132 242.545 990.132 239.936 990.288 C235.897 990.309 232.296 989.534 228.373 988.601 C221.508 987.02 215.077 986.786 208.061 987.101 C207.401 985.781 206.741 984.461 206.061 983.101 C205.401 983.761 204.741 984.421 204.061 985.101 C204.061 983.781 204.061 982.461 204.061 981.101 C202.665 980.787 201.269 980.475 199.873 980.163 C199.463 980.071 199.463 980.071 197.389 979.604 C195.642 979.226 193.885 978.9 192.123 978.601 C190.061 978.101 190.061 978.101 188.061 976.101 C185.042 973.722 181.87 971.654 178.623 969.601 C177.696 969.013 176.769 968.425 175.814 967.819 C167.745 962.783 167.745 962.783 164.061 962.101 C164.017 961.559 163.973 961.018 163.928 960.46 C162.625 956.917 159.899 954.853 157.186 952.351 C148.413 943.945 141.263 934.1 136.061 923.101 C134.741 923.431 133.421 923.761 132.061 924.101 C132.308 923.131 132.556 922.162 132.811 921.163 C133.472 916.833 131.93 913.914 129.971 910.116 C129.061 908.101 129.061 908.101 129.061 905.101 C127.921 905.415 126.781 905.73 125.607 906.054 C93.65 914.754 62.934 917.169 29.886 915.459 C21.936 915.055 14.019 914.998 6.061 915.101 C6.061 914.441 6.061 913.781 6.061 913.101 C2.471 911.306 -0.913 910.101 -4.939 910.101 C-4.939 909.441 -4.939 908.781 -4.939 908.101 C-6.502 907.931 -8.064 907.765 -9.627 907.601 C-10.497 907.508 -11.367 907.415 -12.264 907.319 C-14.837 907.109 -17.359 907.063 -19.939 907.101 C-19.279 906.441 -18.619 905.781 -17.939 905.101 C-18.488 904.896 -18.488 904.896 -21.264 903.858 C-22.718 903.314 -24.173 902.77 -25.627 902.226 C-26.348 901.956 -27.069 901.687 -27.812 901.409 C-31.539 900.014 -35.253 898.599 -38.939 897.101 C-39.269 897.761 -39.599 898.421 -39.939 899.101 C-41.259 899.101 -42.579 899.101 -43.939 899.101 C-43.939 897.121 -43.939 895.141 -43.939 893.101 C-44.608 893.027 -45.277 892.954 -45.967 892.878 C-49.959 891.834 -53.029 889.845 -56.502 887.663 C-57.815 886.851 -59.129 886.039 -60.443 885.229 C-61.053 884.852 -61.663 884.475 -62.291 884.086 C-63.591 883.309 -64.935 882.604 -66.291 881.929 C-68.62 880.759 -70.098 878.942 -71.939 877.101 C-74.814 874.891 -77.692 872.724 -80.939 871.101 C-81.682 870.276 -82.424 869.451 -83.189 868.601 C-86.245 865.823 -87.894 865.383 -91.939 865.101 C-91.939 864.111 -91.939 863.121 -91.939 862.101 C-92.292 859.281 -92.704 858.32 -94.814 856.351 C-96.939 855.101 -96.939 855.101 -99.939 855.101 C-99.832 854.802 -99.832 854.802 -99.287 853.288 C-99.172 852.566 -99.058 851.844 -98.939 851.101 C-100.265 849.469 -101.61 847.851 -103.045 846.315 C-106.177 842.654 -108.632 838.544 -111.205 834.479 C-111.777 833.694 -112.35 832.909 -112.939 832.101 C-113.599 832.101 -114.259 832.101 -114.939 832.101 C-114.97 831.74 -114.97 831.74 -115.127 829.913 C-116.183 826.257 -118.247 824.726 -120.939 822.101 C-121.752 819.788 -121.752 819.788 -121.939 818.101 C-122.599 818.431 -123.259 818.761 -123.939 819.101 C-123.909 818.513 -123.909 818.513 -123.752 815.538 C-123.752 811.019 -124.761 808.055 -126.939 804.101 C-127.929 803.771 -128.919 803.441 -129.939 803.101 C-129.939 802.441 -129.939 801.781 -129.939 801.101 C-130.599 800.771 -131.259 800.441 -131.939 800.101 C-131.939 798.12 -131.846 796.141 -131.752 794.163 C-131.724 788.522 -133.261 783.445 -134.939 778.101 C-135.599 778.101 -136.259 778.101 -136.939 778.101 C-138.983 773.742 -139.632 769.869 -139.939 765.101 C-139.279 764.111 -138.619 763.121 -137.939 762.101 C-138.231 759.362 -138.74 756.818 -139.475 754.167 C-139.955 752.03 -140.06 750.162 -140.053 747.975 C-140.053 747.174 -140.053 746.374 -140.053 745.549 C-140.05 745.122 -140.05 745.122 -140.037 742.96 C-140.036 742.519 -140.036 742.519 -140.033 740.287 C-140.027 737.475 -140.015 734.663 -140.002 731.851 C-139.997 729.942 -139.992 728.033 -139.988 726.124 C-139.977 721.45 -139.96 716.775 -139.939 712.101 C-139.609 712.101 -139.279 712.101 -138.939 712.101 C-138.814 705.476 -138.814 705.476 -139.939 702.101 C-140.008 700.039 -140.024 697.976 -140.002 695.913 C-139.993 694.826 -139.984 693.74 -139.975 692.62 C-139.969 692.204 -139.969 692.204 -139.939 690.101 C-138.619 690.431 -137.299 690.761 -135.939 691.101 C-135.939 688.461 -135.939 685.821 -135.939 683.101 C-135.279 683.101 -134.619 683.101 -133.939 683.101 C-133.807 681.98 -133.674 680.86 -133.537 679.706 C-133.359 678.233 -133.18 676.761 -133.002 675.288 C-132.915 674.55 -132.828 673.812 -132.738 673.052 C-132.357 669.933 -131.936 667.09 -130.939 664.101 C-131.269 663.771 -131.599 663.441 -131.939 663.101 C-130.949 662.771 -129.959 662.441 -128.939 662.101 C-129.269 661.502 -129.599 660.904 -129.939 660.288 C-130.939 658.101 -130.939 658.101 -130.939 655.101 C-129.619 654.771 -128.299 654.441 -126.939 654.101 C-127.269 653.111 -127.599 652.121 -127.939 651.101 C-127.279 651.101 -126.619 651.101 -125.939 651.101 C-125.609 648.131 -125.279 645.161 -124.939 642.101 C-125.269 642.101 -125.599 642.101 -125.939 642.101 C-127.465 643.723 -128.958 645.376 -130.439 647.038 C-136.139 653.38 -142.164 659.368 -148.275 665.311 C-148.981 666.005 -149.686 666.698 -150.412 667.413 C-151.044 668.028 -151.676 668.643 -152.326 669.276 C-155.63 673.012 -156.217 676.345 -156.752 681.226 C-158.144 690.705 -161.295 697.704 -168.924 703.694 C-176.297 708.838 -183.083 708.84 -191.939 708.101 C-195.144 707.491 -198.158 706.842 -200.939 705.101 C-202.061 703.097 -202.061 703.097 -202.939 701.101 C-205.774 698.461 -208.127 697.63 -211.939 697.101 C-211.939 696.771 -211.939 696.441 -211.939 696.101 C-212.471 696.082 -212.471 696.082 -215.158 695.987 C-229.513 695.371 -229.513 695.371 -235.939 692.101 C-236.895 691.653 -237.85 691.206 -238.834 690.745 C-245.78 687.413 -252.74 683.948 -257.939 678.101 C-257.939 677.441 -257.939 676.781 -257.939 676.101 C-258.709 674.578 -259.529 673.081 -260.377 671.601 C-264.554 664.271 -264.975 658.29 -262.877 649.976 C-259.031 638.599 -248.519 632.996 -238.902 626.914 C-219.021 614.306 -219.021 614.306 -212.939 606.101 C-213.484 605.982 -214.029 605.864 -214.59 605.742 C-233.217 601.655 -250.89 596.594 -267.802 587.64 C-272.643 585.101 -272.643 585.101 -275.939 585.101 C-276.043 584.82 -276.043 584.82 -276.564 583.397 C-278.433 580.276 -281.043 578.448 -283.939 576.351 C-284.486 575.939 -285.033 575.528 -285.596 575.104 C-289.667 572.101 -289.667 572.101 -291.939 572.101 C-292.958 570.445 -293.954 568.776 -294.939 567.101 C-296.283 565.593 -297.661 564.115 -299.064 562.663 C-303.385 558.012 -306.666 553.087 -309.756 547.572 C-310.799 545.812 -310.799 545.812 -312.939 543.101 C-315.705 542.702 -315.705 542.702 -317.939 543.101 C-317.939 542.441 -317.939 541.781 -317.939 541.101 C-319.074 541.018 -320.208 540.936 -321.377 540.851 C-325.625 540.331 -329.056 538.919 -332.893 537.073 C-334.939 536.101 -334.939 536.101 -337.877 535.101 C-339.939 534.101 -339.939 534.101 -340.764 532.3 C-342.303 529.421 -344.262 527.932 -346.814 525.913 C-347.678 525.218 -348.542 524.523 -349.432 523.808 C-351.723 522.248 -353.237 521.522 -355.939 521.101 C-355.939 520.111 -355.939 519.121 -355.939 518.101 C-357.498 516.153 -358.672 515.206 -361.002 514.288 C-362.939 513.101 -362.939 513.101 -363.771 510.444 C-365.117 506.593 -367.197 503.677 -369.564 500.413 C-375.924 491.292 -380.011 481.253 -383.756 470.827 C-385.751 465.289 -385.751 465.289 -387.939 463.101 C-387.612 461.1 -387.278 459.1 -386.939 457.101 C-387.176 454.572 -387.495 452.049 -387.877 449.538 C-388.878 442.338 -389.212 435.378 -388.939 428.101 C-388.915 427.402 -388.89 426.703 -388.865 425.983 C-388.779 423.709 -388.675 421.436 -388.564 419.163 C-388.549 418.808 -388.549 418.808 -388.471 417.011 C-388.225 412.703 -387.421 409.137 -385.939 405.101 C-385.422 403.215 -384.905 401.33 -384.393 399.443 C-381.557 389.186 -377.56 379.672 -372.939 370.101 C-372.481 369.14 -372.022 368.18 -371.549 367.19 C-365.857 356.098 -358.155 345.925 -350.873 335.835 C-350.407 335.19 -349.942 334.544 -349.462 333.879 C-348.591 332.679 -347.716 331.482 -346.835 330.289 C-343.939 326.316 -343.939 326.316 -343.939 324.101 C-343.365 323.571 -342.79 323.041 -342.197 322.495 C-339.169 319.283 -337.629 315.778 -335.814 311.788 C-335.641 311.421 -335.641 311.421 -334.764 309.563 C-332.715 305.14 -331.15 300.823 -329.939 296.101 C-330.599 295.441 -331.259 294.781 -331.939 294.101 C-331.939 293.111 -331.939 292.121 -331.939 291.101 C-330.619 290.771 -329.299 290.441 -327.939 290.101 C-325.52 280.477 -323.389 271.612 -324.092 261.604 C-323.904 258.522 -323.132 258.131 -320.939 256.101 C-320.174 253.726 -320.174 253.726 -319.689 251.101 C-319.519 250.234 -319.349 249.368 -319.174 248.476 C-318.939 246.101 -318.939 246.101 -319.939 243.101 C-319.279 242.771 -318.619 242.441 -317.939 242.101 C-316.633 237.892 -315.939 234.643 -315.939 230.226 C-315.939 227.101 -315.939 227.101 -313.939 225.101 C-313.321 222.52 -312.923 219.935 -312.502 217.315 C-312.409 216.95 -312.409 216.95 -311.939 215.101 C-311.279 214.771 -310.619 214.441 -309.939 214.101 C-310.599 213.771 -311.259 213.441 -311.939 213.101 C-311.939 212.441 -311.939 211.781 -311.939 211.101 C-310.949 211.101 -309.959 211.101 -308.939 211.101 C-308.867 210.564 -308.867 210.564 -308.502 207.851 C-307.939 204.101 -307.939 204.101 -307.314 201.788 C-306.939 200.101 -306.939 200.101 -307.939 198.101 C-305.939 195.101 -305.939 195.101 -303.939 193.101 C-303.287 191.717 -302.693 190.306 -302.135 188.882 C-301.967 188.456 -301.967 188.456 -301.115 186.304 C-300.942 185.858 -300.942 185.858 -300.064 183.601 C-299.38 181.861 -298.695 180.121 -298.01 178.382 C-297.671 177.516 -297.332 176.649 -296.983 175.757 C-295.599 172.233 -294.184 168.722 -292.767 165.212 C-292.107 163.527 -291.512 161.817 -290.939 160.101 C-290.279 160.101 -289.619 160.101 -288.939 160.101 C-288.714 159.465 -288.488 158.83 -288.256 158.175 C-286.431 153.914 -284.153 149.947 -281.877 145.913 C-280.969 144.295 -280.062 142.676 -279.154 141.058 C-278.753 140.346 -278.352 139.634 -277.939 138.901 C-276.196 135.762 -275.939 134.988 -275.939 131.101 C-275.188 130.869 -274.436 130.637 -273.662 130.397 C-270.386 128.837 -269.366 127.359 -267.377 124.351 C-262.387 117.167 -256.713 110.662 -250.939 104.101 C-250.142 103.189 -249.344 102.278 -248.521 101.339 C-239.989 91.72 -231.008 83.094 -220.939 75.101 C-219.723 74.107 -218.509 73.112 -217.295 72.116 C-210.118 66.25 -202.94 60.816 -194.939 56.101 C-194.613 55.903 -194.613 55.903 -192.958 54.903 C-180.652 47.47 -168.055 40.984 -154.939 35.101 C-154.134 34.733 -153.328 34.365 -152.498 33.985 C-125.921 21.967 -96.542 13.582 -67.939 8.101 C-67.278 7.974 -66.617 7.847 -65.935 7.716 C-43.997 3.54 -22.349 0.765 0 0 Z M-274.939 132.101 C-274.609 132.761 -274.279 133.421 -273.939 134.101 C-273.609 133.441 -273.279 132.781 -272.939 132.101 C-273.599 132.101 -274.259 132.101 -274.939 132.101 Z M-322.939 263.101 C-321.939 267.101 -321.939 267.101 -321.939 267.101 Z M-128.939 655.101 C-127.939 658.101 -127.939 658.101 -127.939 658.101 Z M-137.939 697.101 C-137.939 699.081 -137.939 701.061 -137.939 703.101 C-137.609 703.101 -137.279 703.101 -136.939 703.101 C-136.939 701.121 -136.939 699.141 -136.939 697.101 C-137.269 697.101 -137.599 697.101 -137.939 697.101 Z M-136.939 768.101 C-136.939 769.751 -136.939 771.401 -136.939 773.101 C-136.609 773.101 -136.279 773.101 -135.939 773.101 C-135.939 771.451 -135.939 769.801 -135.939 768.101 C-136.269 768.101 -136.599 768.101 -136.939 768.101 Z M-130.939 793.101 C-129.939 795.101 -129.939 795.101 -129.939 795.101 Z M-129.939 796.101 C-130.269 796.761 -130.599 797.421 -130.939 798.101 C-130.279 798.101 -129.619 798.101 -128.939 798.101 C-129.269 797.441 -129.599 796.781 -129.939 796.101 Z M-128.939 799.101 C-127.939 802.101 -127.939 802.101 -127.939 802.101 Z M139.061 819.101 C138.731 820.751 138.401 822.401 138.061 824.101 C139.051 823.111 140.041 822.121 141.061 821.101 C140.401 820.441 139.741 819.781 139.061 819.101 Z M9.061 912.101 C9.721 912.431 9.721 912.431 13.061 914.101 C13.721 913.441 14.381 912.781 15.061 912.101 C13.081 912.101 11.101 912.101 9.061 912.101 Z M16.061 913.101 C16.061 913.431 16.061 913.761 16.061 914.101 C17.711 914.101 19.361 914.101 21.061 914.101 C21.061 913.771 21.061 913.441 21.061 913.101 C19.411 913.101 17.761 913.101 16.061 913.101 Z M210.061 984.101 C212.061 986.101 212.061 986.101 214.686 986.226 C215.469 986.184 216.253 986.143 217.061 986.101 C214.061 984.101 214.061 984.101 210.061 984.101 Z " fill="#463117" transform="translate(499.939453125,12.8994140625)"/>
<path d="M0 0 C17.424 -0.332 34.695 0.495 52.048 2.062 C52.533 2.105 52.533 2.105 54.985 2.322 C98.254 6.412 142.881 19.419 181.048 40.062 C181.692 40.404 182.336 40.746 183 41.099 C219.408 60.504 253.013 89.99 275.048 125.062 C256.372 126.214 256.372 126.214 251.189 123.644 C249.298 121.812 249.298 121.812 247.673 119.882 C243.334 115.022 235.754 113.242 229.474 112.824 C217.128 112.491 209.526 115.107 200.048 123.062 C199.388 123.722 198.728 124.382 198.048 125.062 C195.509 125.268 193.029 125.381 190.486 125.437 C181.977 125.788 175.783 127.674 169.048 133.062 C168.388 133.062 167.728 133.062 167.048 133.062 C166.912 133.352 166.912 133.352 166.224 134.82 C165.058 137.043 163.724 138.919 162.236 140.937 C152.385 155.545 151.676 172.355 154.283 189.226 C155.151 193.575 156.248 197.805 157.486 202.062 C157.691 202.768 157.896 203.474 158.108 204.201 C159.387 208.4 161.064 212.135 163.048 216.062 C162.861 218.125 162.861 218.125 162.048 220.062 C161.698 220.97 161.347 221.877 160.986 222.812 C160.676 223.555 160.367 224.297 160.048 225.062 C143.08 213.829 130.992 195.385 125.923 175.875 C125.048 173.062 125.048 173.062 122.048 171.062 C119.533 170.734 119.533 170.734 117.048 171.062 C115.564 172.39 115.564 172.39 114.298 174.312 C113.794 175.042 113.29 175.771 112.771 176.523 C112.203 177.361 111.634 178.199 111.048 179.062 C82.133 218.964 41.253 240.023 -6.706 248.3 C-18.449 250.113 -30.161 250.266 -42.014 250.25 C-42.834 250.249 -43.654 250.248 -44.499 250.248 C-61.569 250.214 -77.637 249.545 -93.952 244.062 C-93.952 240.484 -93.069 239.395 -91.139 236.437 C-86.986 229.692 -84.019 223.147 -84.952 215.062 C-86.014 212.125 -86.014 212.125 -87.952 210.062 C-91.209 209.562 -91.209 209.562 -94.952 210.062 C-97.238 212.016 -98.9 213.705 -100.764 216 C-101.817 217.208 -102.873 218.414 -103.932 219.617 C-104.447 220.209 -104.962 220.802 -105.492 221.413 C-113.813 230.817 -124.4 237.449 -134.952 244.062 C-135.609 244.475 -136.267 244.888 -136.944 245.313 C-162.36 261.013 -197.732 275.062 -227.952 275.062 C-227.81 271.812 -227.663 268.562 -227.514 265.312 C-227.47 264.354 -227.427 263.395 -227.382 262.408 C-227.095 256.365 -226.691 250.356 -226.038 244.339 C-225.95 242.029 -226.271 240.26 -226.952 238.062 C-228.384 237.786 -229.823 237.542 -231.264 237.312 C-232.065 237.173 -232.865 237.034 -233.69 236.89 C-235.952 237.062 -235.952 237.062 -237.651 238.578 C-239.35 241.822 -239.932 244.98 -240.452 248.562 C-240.571 249.344 -240.691 250.125 -240.814 250.93 C-242.932 265.875 -243.811 281.018 -244.952 296.062 C-245.763 296.252 -246.574 296.443 -247.41 296.639 C-248.481 296.897 -249.551 297.155 -250.655 297.421 C-251.713 297.674 -252.772 297.926 -253.863 298.186 C-264.665 301.25 -273.196 308.612 -278.635 318.304 C-286.872 335.559 -287.116 354.167 -280.952 372.062 C-276.072 384.332 -265.977 394.593 -253.952 400.062 C-249.389 401.916 -245.214 403.199 -240.268 403.343 C-228.116 403.765 -228.116 403.765 -224.255 407.862 C-221.207 412.51 -219.145 417.606 -217.014 422.721 C-214.567 428.115 -210.74 432.55 -206.952 437.062 C-206.593 437.491 -206.593 437.491 -204.776 439.66 C-185.037 462.343 -158.305 476.85 -129.952 486.062 C-129.073 486.348 -128.194 486.635 -127.288 486.93 C-121.857 488.687 -116.411 490.393 -110.952 492.062 C-115.052 496.948 -119.3 501.57 -123.827 506.062 C-124.137 506.371 -124.137 506.371 -125.708 507.937 C-129.257 511.453 -132.88 514.803 -136.698 518.027 C-140.735 521.672 -144.515 525.587 -148.323 529.47 C-152.053 533.252 -155.898 536.815 -159.92 540.285 C-163.439 543.363 -166.809 546.597 -170.202 549.812 C-170.943 550.504 -171.683 551.195 -172.447 551.908 C-175.806 555.047 -179.117 558.193 -182.264 561.546 C-186.796 566.281 -190.307 569.714 -197.139 569.875 C-199.416 569.658 -201.687 569.383 -203.952 569.062 C-205.261 568.959 -206.571 568.856 -207.92 568.75 C-238.899 566.193 -268.501 552.361 -288.897 528.714 C-295.146 520.647 -299.725 511.887 -303.725 502.546 C-304.952 500.062 -304.952 500.062 -306.952 499.062 C-309.952 498.875 -309.952 498.875 -312.952 499.062 C-314.904 501.014 -315.8 502.594 -316.952 505.062 C-327.405 499.733 -335.807 493.512 -343.952 485.062 C-344.764 484.222 -345.576 483.381 -346.413 482.515 C-365.482 460.97 -371.116 433.141 -370.151 405.223 C-369.69 397.917 -368.019 391.058 -365.952 384.062 C-365.624 382.843 -365.297 381.623 -364.959 380.367 C-359.793 362.906 -349.924 346.907 -339.213 332.335 C-319.797 305.725 -310.133 278.802 -304.217 246.707 C-298.728 217.077 -292.032 188.398 -278.952 161.062 C-278.742 160.616 -278.742 160.616 -277.683 158.359 C-268.786 139.493 -258.319 122.09 -244.952 106.062 C-244.488 105.497 -244.025 104.932 -243.547 104.35 C-232.613 91.038 -220.688 78.51 -206.952 68.062 C-206.422 67.651 -205.892 67.239 -205.347 66.815 C-194.771 58.622 -183.542 51.719 -171.952 45.062 C-171.313 44.69 -170.675 44.318 -170.017 43.934 C-120.151 15.032 -57.202 1.202 0 0 Z " fill="#6BBFAB" transform="translate(499.95166015625,31.93798828125)"/>
<path d="M0 0 C0.66 0 1.32 0 2 0 C3.445 2.055 3.445 2.055 5.125 4.875 C17.465 24.757 35.157 41.331 54 55 C54.295 55.216 54.295 55.216 55.791 56.307 C78.675 72.885 102.482 84.525 130 91 C131.162 137.228 128.158 195.972 94.355 231.578 C93.578 232.377 92.801 233.177 92 234 C91.596 234.441 91.596 234.441 89.551 236.672 C65.767 261.843 31.795 272.378 -1 280 C-2.037 280.242 -3.074 280.485 -4.142 280.734 C-37.294 288.359 -71.062 290.411 -105 290.312 C-106.282 290.311 -107.564 290.31 -108.885 290.308 C-129.412 290.265 -149.628 289.557 -170 287 C-170.596 286.928 -170.596 286.928 -173.613 286.562 C-217.596 281.088 -266.75 270.365 -300 239 C-300.516 238.524 -301.033 238.049 -301.565 237.559 C-336.141 205.57 -342.279 154.931 -344.163 110.121 C-344.3 104.072 -344.247 98.045 -344 92 C-343.162 91.855 -342.323 91.71 -341.459 91.56 C-309.676 85.997 -279.611 78.364 -251 63 C-250.697 62.838 -250.697 62.838 -249.166 62.016 C-241.23 57.715 -233.789 52.929 -226.449 47.688 C-224 46 -224 46 -223 46 C-222.974 46.603 -222.948 47.207 -222.922 47.828 C-222.865 48.627 -222.808 49.427 -222.75 50.25 C-222.704 51.039 -222.657 51.828 -222.609 52.641 C-221.792 55.805 -220.547 56.979 -218 59 C-211.215 61.985 -203.768 63.366 -196.5 64.688 C-195.849 64.807 -195.199 64.926 -194.529 65.049 C-182.873 67.019 -171.045 67.238 -159.25 67.25 C-158.535 67.251 -157.82 67.252 -157.084 67.253 C-117.417 67.216 -76.887 58.211 -43 37 C-42.483 36.676 -42.483 36.676 -39.867 35.039 C-25.911 26.008 -9.336 14.004 0 0 Z " fill="#FAD3A9" transform="translate(616,231)"/>
<path d="M0 0 C37.12 2.502 87.707 19.541 117 42.562 C120.965 45.545 123.819 47.227 128.855 46.707 C132.242 45.59 134.506 43.497 137.184 41.191 C143.531 36.253 150.891 32.714 158 29 C158.335 28.824 158.335 28.824 160.03 27.933 C184.405 15.314 221.116 0 249 0 C251.089 11.354 252.638 22.441 253 34 C253.022 34.679 253.044 35.358 253.066 36.057 C253.781 61.511 247.515 85.053 240.917 109.477 C236.919 124.442 236.001 139.607 243.516 153.598 C246.608 158.603 249.594 163.056 255.188 165.25 C258.878 164.922 259.637 163.79 262 161 C263.238 158.441 263.238 158.441 264.312 155.562 C276.334 125.489 299.971 101.894 329.563 88.942 C347.645 81.454 374.571 73.524 394 80 C392.734 87.128 390.928 93.932 388.688 100.812 C388.532 101.295 388.532 101.295 387.742 103.734 C378.657 131.553 364.381 155.659 338 170 C333.996 171.938 329.935 173.728 325.814 175.401 C320.193 177.71 320.193 177.71 318 181 C317.91 183.969 317.91 183.969 319 187 C321.558 188.502 323.693 189.5 326.438 190.5 C327.912 191.094 329.385 191.693 330.855 192.297 C331.571 192.586 332.287 192.876 333.025 193.174 C353.089 201.567 366.439 220.769 375 240 C380.64 253.998 384.754 268.966 386 284 C354.498 285.17 319.819 278.813 295 258 C294.103 257.276 293.206 256.551 292.281 255.805 C276.718 242.559 267.784 226.099 263.823 206.158 C263.067 202.538 262.309 199.545 260.477 196.316 C253.317 192.511 242.898 197.237 235.688 199.375 C233.465 200.014 231.243 200.65 229.02 201.285 C227.971 201.586 226.923 201.886 225.842 202.196 C208.966 206.971 192.611 208.354 175.149 208.316 C172.137 208.313 169.125 208.336 166.113 208.361 C154.385 208.399 143.458 207.465 132 205 C130.297 204.687 128.592 204.379 126.887 204.078 C103.799 199.646 80.169 190.803 61 177 C60.016 176.31 59.033 175.621 58.02 174.91 C24.169 150.13 6.003 114.484 -2 74 C-2.177 73.141 -2.354 72.281 -2.537 71.396 C-6.652 50.102 -6.843 20.528 0 0 Z " fill="#6BBFAC" transform="translate(383,703)"/>
<path d="M0 0 C2.013 3.019 2.622 4.975 3.445 8.461 C3.713 9.562 3.981 10.663 4.257 11.797 C4.544 12.978 4.83 14.158 5.125 15.375 C8.219 27.666 12.02 39.35 17 51 C17.343 51.809 17.685 52.617 18.038 53.451 C24.103 67.551 32.115 79.867 41.082 92.273 C59.243 117.44 71.126 143.066 71.25 174.562 C71.26 175.203 71.26 175.203 71.312 178.447 C71.348 187.339 70.239 195.401 68 204 C67.812 204.735 67.624 205.47 67.43 206.227 C63.439 220.782 56.212 234.865 46 246 C45.264 246.839 44.528 247.678 43.77 248.543 C37.451 255.356 30.382 260.098 22 264 C21.01 264 20.02 264 19 264 C17.375 261.563 17.375 261.563 16 259 C15 258 15 258 11.625 257.625 C10.429 257.749 9.232 257.872 8 258 C5.552 261.36 3.862 265.216 1.994 268.926 C-10.441 293.358 -32.334 309.935 -58.227 318.434 C-70.177 322.153 -82.472 325.294 -95 326 C-96.063 326.099 -97.127 326.199 -98.223 326.301 C-107.842 326.864 -107.842 326.864 -112 323.25 C-113.347 321.846 -114.678 320.428 -116 319 C-118.054 317.051 -120.156 315.155 -122.25 313.25 C-123.386 312.199 -124.522 311.147 -125.656 310.094 C-128.674 307.298 -131.71 304.522 -134.75 301.75 C-141.081 295.961 -147.32 290.076 -153.559 284.188 C-156.502 281.409 -159.453 278.639 -162.41 275.875 C-169.196 269.528 -175.951 263.154 -182.562 256.625 C-183.117 256.083 -183.672 255.542 -184.243 254.984 C-185.535 253.695 -186.774 252.352 -188 251 C-188 250.34 -188 249.68 -188 249 C-187.459 248.872 -187.459 248.872 -184.723 248.223 C-142.759 237.916 -103.22 218.596 -79.277 181.255 C-77.565 178.231 -76.373 175.093 -75.137 171.851 C-72.35 164.657 -72.35 164.657 -70 162 C-65.824 160.44 -62.381 160.146 -57.973 160.09 C-46.853 159.838 -36.224 153.114 -28 146 C-17.133 133.301 -11.164 117.951 -11.723 101.121 C-13.05 86.184 -17.231 72.206 -28.625 61.832 C-35.976 56.162 -44.019 53.898 -53 52 C-54.192 42.335 -54.096 32.718 -54 23 C-53.357 22.855 -52.714 22.71 -52.051 22.56 C-33.766 18.376 -13.785 13.785 0 0 Z " fill="#6BBFAC" transform="translate(815,275)"/>
<path d="M0 0 C2.364 0.304 4.729 0.605 7.094 0.902 C9.563 1.245 12.032 1.59 14.5 1.938 C23.402 3.161 32.303 4.334 41.25 5.188 C41.984 5.259 42.718 5.33 43.475 5.404 C58.389 6.752 73.283 7.177 88.25 7.125 C88.677 7.124 88.677 7.124 90.84 7.118 C120.722 7.028 150.381 5.014 179.805 -0.484 C185.436 -1.393 185.436 -1.393 188 -1 C190.559 0.852 190.559 0.852 193.438 3.625 C193.975 4.137 194.512 4.649 195.065 5.177 C201.869 11.719 208.503 18.449 215.133 25.168 C219.694 29.774 224.295 34.227 229.219 38.442 C231.949 40.83 234.47 43.405 237 46 C240.891 49.945 244.852 53.7 249.074 57.293 C252.115 59.989 254.921 62.913 257.773 65.805 C260.446 68.44 263.254 70.878 266.102 73.32 C268.591 75.523 270.895 77.884 273.223 80.254 C275.066 82.065 276.978 83.753 278.938 85.438 C281.746 87.856 284.4 90.359 287 93 C290.843 96.88 294.821 100.486 299 104 C299.552 104.471 300.104 104.942 300.672 105.427 C311.526 114.659 322.599 122.085 335.188 128.75 C338.678 130.693 341.066 132.384 343 136 C343.811 142.181 342.834 146.995 339 152 C330.247 160.044 319.717 161.36 308.262 161.203 C305 161 305 161 301.746 160.355 C300.84 160.238 299.934 160.121 299 160 C295.945 162.4 294.074 164.888 291.938 168.125 C288.943 172.568 288.943 172.568 286 174 C281.412 174.699 278.095 174.652 274.062 172.25 C269.534 167.31 269.684 162.626 269.873 156.195 C269.741 149.604 266.449 146.558 262 142 C258.682 138.813 255.298 135.701 251.905 132.594 C248.416 129.375 244.987 126.092 241.552 122.817 C238.57 119.98 235.57 117.172 232.511 114.418 C214.774 98.397 206.249 84.886 202.187 61.193 C201.281 56.034 199.983 51.077 198.426 46.077 C198.217 45.395 198.007 44.714 197.791 44.011 C196.851 41.092 196.199 39.199 194 37 C191.836 36.805 191.836 36.805 189.375 36.875 C188.558 36.893 187.74 36.911 186.898 36.93 C186.272 36.953 185.645 36.976 185 37 C184.67 38.32 184.34 39.64 184 41 C181.669 40.098 179.367 39.18 177.121 38.082 C161.202 30.43 141.016 28.923 124.223 34.688 C109.92 40.513 98.7 47.879 89 60 C85.652 58.884 85.071 58.116 82.938 55.438 C72.014 42.693 55.351 33.263 38.465 31.777 C23.247 30.914 10.42 32.61 -3.109 40.047 C-5 41 -5 41 -7 41 C-7.392 40.34 -7.784 39.68 -8.188 39 C-10 37 -10 37 -13.5 36.562 C-17 37 -17 37 -18.57 38.061 C-20.675 40.916 -21.449 44.084 -22.375 47.457 C-22.586 48.196 -22.796 48.936 -23.013 49.698 C-23.458 51.267 -23.898 52.839 -24.334 54.411 C-24.988 56.769 -25.657 59.122 -26.328 61.475 C-26.761 63.01 -27.194 64.546 -27.625 66.082 C-27.722 66.424 -27.722 66.424 -28.212 68.154 C-28.403 68.844 -28.593 69.534 -28.789 70.245 C-28.892 70.612 -28.892 70.612 -29.415 72.465 C-30 75 -30 75 -30.362 78.184 C-31.946 89.748 -37.809 95.228 -45.91 102.914 C-47.204 104.182 -48.495 105.453 -49.784 106.726 C-53.158 110.047 -56.563 113.335 -59.976 116.615 C-64.129 120.616 -68.248 124.653 -72.368 128.688 C-75.57 131.824 -78.779 134.954 -82.007 138.063 C-83.17 139.19 -84.333 140.317 -85.496 141.444 C-86.027 141.95 -86.557 142.456 -87.104 142.977 C-90.732 146.507 -92.937 148.894 -93.09 154.023 C-93.04 155.129 -92.989 156.235 -92.938 157.375 C-92.849 163.94 -93.685 167.486 -98.188 172.375 C-101.844 174.488 -104.93 174.905 -109 174 C-113.14 171.402 -115.135 168.942 -117.562 164.75 C-119.684 161.128 -119.684 161.128 -122.625 159.938 C-125 160 -125 160 -128 161 C-139.643 161.702 -150.282 160.916 -160 154 C-163.811 149.993 -166.278 146.165 -166.375 140.562 C-166.403 139.821 -166.432 139.08 -166.461 138.316 C-165.696 134.473 -163.607 132.075 -160.365 129.906 C-158.433 128.803 -156.476 127.771 -154.5 126.75 C-137.193 117.376 -122.82 103.773 -108.63 90.289 C-105.496 87.314 -102.334 84.404 -99.059 81.586 C-94.657 77.765 -90.582 73.656 -86.5 69.5 C-81.766 64.68 -76.979 60.041 -71.857 55.635 C-69.108 53.215 -66.556 50.622 -64 48 C-60.799 44.755 -57.609 41.57 -54.125 38.625 C-50.202 35.293 -46.618 31.656 -43 28 C-38.878 23.835 -34.773 19.781 -30.234 16.066 C-28.215 14.199 -26.453 12.279 -24.641 10.215 C-24.013 9.525 -23.385 8.835 -22.738 8.125 C-21.484 6.741 -20.258 5.329 -19.069 3.889 C-13.236 -2.437 -8.025 -1.343 0 0 Z " fill="#FAD5AC" transform="translate(420,530)"/>
<path d="M0 0 C3.658 2.003 6.198 4.303 9 7.375 C12.379 10.985 12.379 10.985 16.375 11.125 C17.509 10.754 18.644 10.382 19.812 10 C27.95 7.39 35.633 6.794 43.723 9.922 C52.956 14.685 57.036 24.936 60.66 34.156 C61.617 37.389 61.813 40.212 61.824 43.605 C61.892 54.013 61.892 54.013 64.664 56.984 C66.23 57.917 67.828 58.796 69.453 59.621 C74.586 62.621 77.027 68.121 79.25 73.438 C80.485 81.26 79.395 88.459 74.812 95 C62.382 110.524 41.95 117.55 22.812 120 C19.27 120.304 15.744 120.548 12.191 120.691 C11.406 120.793 10.621 120.895 9.812 121 C8.612 123.401 8.698 124.894 8.715 127.57 C8.718 128.466 8.721 129.362 8.725 130.285 C8.729 130.754 8.729 130.754 8.75 133.125 C8.755 134.07 8.759 135.015 8.764 135.988 C8.775 138.326 8.792 140.663 8.812 143 C1.918 142.597 -4.008 141.375 -10.438 138.875 C-11.257 138.563 -12.077 138.251 -12.922 137.929 C-31.761 130.613 -52.698 119.414 -65.188 103 C-64.424 102.134 -63.661 101.267 -62.875 100.375 C-59.469 96.222 -57.222 92.978 -57.125 87.438 C-57.988 82.356 -60.468 77.918 -62.691 73.316 C-69.249 58.781 -70.708 41.063 -65.188 26 C-61.999 18.898 -58.329 14.274 -51.188 11 C-46.44 9.417 -41.839 9.461 -37.125 11 C-34.188 11 -34.188 11 -32.543 9.426 C-31.366 7.988 -30.204 6.538 -29.055 5.078 C-21.952 -2.827 -9.357 -4.316 0 0 Z " fill="#FDE39A" transform="translate(737.1875,162)"/>
<path d="M0 0 C0.33 0.33 0.33 0.33 2 2 C2.231 2.228 2.231 2.228 3.398 3.383 C4.529 4.524 5.636 5.688 6.727 6.867 C19.136 19.992 36.274 27.667 54.248 28.333 C73.792 28.691 91.915 22.571 107 10 C109.198 14.861 110.877 19.674 112.227 24.84 C112.42 25.566 112.613 26.291 112.812 27.039 C113.216 28.564 113.618 30.089 114.017 31.615 C114.623 33.93 115.241 36.241 115.859 38.553 C116.253 40.044 116.647 41.536 117.039 43.027 C117.221 43.708 117.404 44.388 117.591 45.089 C118.79 49.713 119.488 54.25 120 59 C119.168 59.19 118.336 59.38 117.479 59.576 C79.261 68.378 38.425 78.353 5.719 100.949 C2.356 103.058 2.356 103.058 -0.516 102.59 C-1.335 102.065 -2.155 101.541 -3 101 C-4.18 100.331 -5.363 99.666 -6.547 99.004 C-7.213 98.616 -7.879 98.228 -8.565 97.828 C-42.541 78.145 -83.138 64.96 -122 59 C-121.401 51.517 -119.749 44.6 -117.75 37.375 C-117.439 36.233 -117.127 35.091 -116.806 33.915 C-114.486 25.505 -111.941 17.213 -109 9 C-105.844 10.463 -103.175 12.256 -100.375 14.312 C-83.991 25.824 -65.089 29.87 -45.336 27.574 C-26.135 23.977 -12.532 14.772 0 0 Z " fill="#FAD4AB" transform="translate(509,629)"/>
<path d="M0 0 C9.187 7.574 12.837 19.176 14.047 30.688 C14.149 36.609 11.945 40.063 8.258 44.48 C-3.216 55.934 -18.096 59.017 -33.654 59.073 C-48.753 58.833 -60.218 53.06 -71.266 42.875 C-76.591 37.291 -80.926 29.901 -81.398 22.039 C-79.844 13.83 -72.044 7.232 -65.641 2.469 C-46.46 -10.244 -19.866 -13.333 0 0 Z " fill="#BB94D4" transform="translate(597.953125,584.3125)"/>
<path d="M0 0 C7.279 5.608 14.359 12.387 18 21 C18 30.027 13.296 36.824 7.25 43.25 C-4.381 54.135 -18.1 57.647 -33.667 57.47 C-47.253 56.984 -60.106 51.953 -70 42.438 C-71.019 41.309 -72.021 40.164 -73 39 C-73.413 38.536 -73.413 38.536 -75.5 36.188 C-78.918 28.924 -75.728 20.737 -73.276 13.479 C-70.078 4.888 -65.203 -0.108 -57.188 -4.375 C-37.859 -13.095 -17.856 -11.85 0 0 Z " fill="#BB95D4" transform="translate(482,586)"/>
<path d="M0 0 C5.933 5.131 9.391 12.393 11 20 C11.276 24.017 11.277 28.037 11.312 32.062 C11.342 33.145 11.371 34.227 11.4 35.342 C11.477 45.181 9.326 54.228 3 62 C-2.373 67.335 -6.973 70.272 -14.75 70.375 C-22.474 70.214 -28.032 68.077 -33.75 62.875 C-42.734 53.12 -44.463 41.432 -44.246 28.648 C-43.498 17.554 -38.613 8.067 -30.5 0.5 C-20.928 -7.4 -10.07 -6.882 0 0 Z " fill="#482A08" transform="translate(403,340)"/>
<path d="M0 0 C8.092 4.004 12.281 11.977 15.227 20.195 C16.37 25.468 16.41 30.639 16.414 36.008 C16.426 36.859 16.439 37.711 16.451 38.588 C16.476 49.59 14.265 57.971 6.453 66.023 C-0.169 71.98 -6.301 72.829 -15.102 72.57 C-20.16 72.054 -23.106 70.643 -26.773 67.195 C-27.312 66.699 -27.851 66.203 -28.406 65.691 C-37.32 56.397 -39.278 44.727 -39.051 32.344 C-38.581 22.141 -34.144 12.613 -26.973 5.379 C-19.176 -1.549 -10.106 -2.932 0 0 Z " fill="#4A2B08" transform="translate(640.7734375,336.8046875)"/>
<path d="M0 0 C0.1 0.97 0.2 1.94 0.304 2.94 C4.987 47.964 4.987 47.964 10.484 69.574 C11 72 11 72 11 76 C0.172 74.621 -8.578 71.478 -16.176 63.387 C-25.349 51.385 -25.818 39.469 -25 25 C-23.878 17.155 -20.225 9.411 -13.973 4.363 C-9.237 1.286 -5.697 0 0 0 Z " fill="#F9D6AE" transform="translate(256,345)"/>
<path d="M0 0 C7.25 0.862 13.022 2.415 18 8 C23.448 16.878 25.193 23.914 25.25 34.125 C25.271 35.025 25.291 35.925 25.312 36.852 C25.382 49 21.441 57.768 13.41 66.785 C6.808 73.097 -2.099 75.965 -11 77 C-10.746 75.935 -10.492 74.87 -10.23 73.773 C-9.883 72.307 -9.535 70.841 -9.188 69.375 C-9.022 68.681 -8.856 67.988 -8.686 67.273 C-8.112 64.851 -7.556 62.426 -7 60 C-6.753 58.948 -6.506 57.897 -6.251 56.813 C-4.317 48.278 -3.169 39.835 -2.375 31.125 C-2.25 29.82 -2.125 28.516 -1.997 27.171 C-1.148 18.124 -0.421 9.078 0 0 Z " fill="#FAD6AD" transform="translate(762,344)"/>
<path d="M0 0 C2.045 1.621 3.901 3.392 5.805 5.176 C11.507 9.915 18.229 11.658 25.551 11.324 C33.436 10.28 39.593 7.067 45.5 1.75 C48.643 -0.45 50.239 -0.64 54 0 C56.375 1.625 56.375 1.625 58 4 C58.652 7.752 58.204 9.592 56.5 13 C49.975 20.83 41.067 25.459 31 27 C17.372 27.939 5.7 27.183 -5.188 17.938 C-8.768 14.583 -10.723 11.896 -11.438 7 C-11 4 -11 4 -8.875 1.625 C-5.345 -0.37 -3.987 -0.86 0 0 Z " fill="#412D14" transform="translate(485,435)"/>
<path d="M0 0 C1.32 0.33 2.64 0.66 4 1 C3.924 25.825 -6.016 52.723 -23 71 C-23.99 71 -24.98 71 -26 71 C-25.462 65.183 -23.078 60.668 -20.562 55.5 C-16.213 46.278 -12.731 36.924 -9.562 27.25 C-9.354 26.614 -9.145 25.977 -8.93 25.322 C-6.727 18.575 -4.604 11.814 -2.691 4.979 C-2 3 -2 3 0 0 Z " fill="#392712" transform="translate(750,182)"/>
<path d="M0 0 C0.66 0 1.32 0 2 0 C4.596 7.095 5.146 14.003 5.281 21.477 C5.299 22.277 5.317 23.077 5.336 23.901 C5.374 25.601 5.411 27.301 5.446 29.002 C5.536 33.391 5.641 37.779 5.746 42.168 C5.767 43.024 5.787 43.881 5.808 44.763 C6.041 54.184 6.464 63.592 7 73 C6.505 73.165 6.505 73.165 4 74 C-4.82 51.973 -5.759 25.102 -1 2 C-0.67 1.34 -0.34 0.68 0 0 Z " fill="#4F391C" transform="translate(701,175)"/>
<path d="M0 0 C-1.3 4.984 -3.484 8.166 -7 11.812 C-7.247 12.074 -7.247 12.074 -8.5 13.395 C-9.985 14.945 -11.488 16.475 -13 18 C-13.764 18.777 -14.529 19.555 -15.316 20.355 C-25.667 30.238 -38.581 38.916 -52 44 C-52 41 -52 41 -50.753 39.656 C-50.172 39.204 -49.591 38.751 -48.992 38.285 C-48.667 38.028 -48.667 38.028 -47.023 36.725 C-46.314 36.177 -45.605 35.628 -44.875 35.062 C-43.392 33.884 -41.91 32.704 -40.43 31.523 C-39.682 30.93 -38.934 30.337 -38.163 29.726 C-28.588 22.087 -19.716 13.927 -11.152 5.167 C-10.509 4.51 -9.866 3.853 -9.203 3.176 C-8.632 2.587 -8.062 1.998 -7.474 1.392 C-4.758 -1.173 -3.443 -1.033 0 0 Z " fill="#322210" transform="translate(795,220)"/>
<path d="M0 0 C0.66 0 1.32 0 2 0 C4.596 7.095 5.146 14.003 5.281 21.477 C5.299 22.277 5.317 23.077 5.336 23.901 C5.374 25.601 5.411 27.301 5.446 29.002 C5.536 33.391 5.641 37.779 5.746 42.168 C5.767 43.024 5.787 43.881 5.808 44.763 C6.041 54.184 6.464 63.592 7 73 C6.505 73.165 6.505 73.165 4 74 C-0.402 61.756 -2.373 51.03 -2 38 C-1.67 38 -1.34 38 -1 38 C-0.92 38.63 -0.839 39.26 -0.756 39.908 C-0.385 42.794 -0.005 45.678 0.375 48.562 C0.501 49.553 0.628 50.544 0.758 51.564 C0.887 52.534 1.016 53.504 1.148 54.504 C1.264 55.389 1.379 56.274 1.498 57.186 C2.096 60.538 3.022 63.741 4 67 C3.905 60.921 3.799 54.842 3.683 48.763 C3.645 46.703 3.61 44.644 3.578 42.584 C3.375 29.583 2.648 16.903 1 4 C0.01 14.23 -0.98 24.46 -2 35 C-2.33 35 -2.66 35 -3 35 C-3.574 7.149 -3.574 7.149 0 0 Z " fill="#140C04" transform="translate(701,175)"/>
<path d="M0 0 C7.37 -0.513 13.702 -0.806 20.066 3.316 C26.889 9.257 30.865 18.162 32 27 C32.163 30.272 32.185 33.537 32.188 36.812 C32.2 37.664 32.212 38.515 32.225 39.393 C32.242 47.133 31.592 54.529 27 61 C26 59 26 59 26.523 57.082 C26.804 56.333 27.085 55.584 27.375 54.812 C31.746 42.279 31.362 26.702 25.812 14.562 C22.74 9.005 18.934 5.369 13.188 2.688 C8.82 1.745 4.452 1.334 0 1 C0 0.67 0 0.34 0 0 Z " fill="#180D06" transform="translate(625,336)"/>
<path d="M0 0 C0 0.33 0 0.66 0 1 C-4.62 1.33 -9.24 1.66 -14 2 C-14 1.34 -14 0.68 -14 0 C-14.467 0.039 -14.467 0.039 -16.832 0.234 C-27.606 1.028 -38.211 0.946 -49 0.562 C-50.661 0.509 -52.323 0.456 -53.984 0.404 C-57.99 0.277 -61.995 0.141 -66 0 C-66 -0.33 -66 -0.66 -66 -1 C-43.838 -2.646 -22.134 -1.908 0 0 Z " fill="#6B4E31" transform="translate(546,15)"/>
<path d="M0 0 C0.66 0.33 0.66 0.33 4 2 C4 2.99 4 3.98 4 5 C2.68 4.67 1.36 4.34 0 4 C0 2.68 0 1.36 0 0 Z " fill="#8B704A" transform="translate(360,697)"/>
<path d="M0 0 C1.32 1.32 2.64 2.64 4 4 C3.01 4.33 2.02 4.66 1 5 C0.835 4.175 0.835 4.175 0 0 Z " fill="#7C613E" transform="translate(128,512)"/>
<path d="M0 0 C0.33 0 0.66 0 1 0 C1 3.3 1 6.6 1 10 C0.67 10 0.34 10 0 10 C0 6.7 0 3.4 0 0 Z " fill="#8A714B" transform="translate(655,745)"/>
<path d="M0 0 C0.99 0.165 0.99 0.165 6 1 C5.67 1.66 5.34 2.32 5 3 C4.175 2.67 4.175 2.67 0 1 C0 0.67 0 0.34 0 0 Z " fill="#876944" transform="translate(256,612)"/>
<path d="M0 0 C0.66 0.33 1.32 0.66 2 1 C2 1.99 2 2.98 2 4 C1.01 4.33 0.02 4.66 -1 5 C-0.67 3.35 -0.34 1.7 0 0 Z " fill="#7E633F" transform="translate(153,336)"/>
<path d="M0 0 C0.66 0.33 0.66 0.33 4 2 C3.01 2.33 2.02 2.66 1 3 C0.67 2.01 0.34 1.02 0 0 Z " fill="#866843" transform="translate(673,980)"/>
<path d="M0 0 C0.33 0.66 0.66 1.32 1 2 C0.062 4.125 0.062 4.125 -1 6 C-1.043 4.334 -1.041 2.666 -1 1 C-0.67 0.67 -0.34 0.34 0 0 Z " fill="#826641" transform="translate(113,416)"/>
<path d="M0 0 C1.65 0 3.3 0 5 0 C4.34 0.66 3.68 1.32 3 2 C2.01 2 1.02 2 0 2 C0 1.34 0 0.68 0 0 Z " fill="#7F6441" transform="translate(338,48)"/>
<path d="M0 0 C1.32 0 2.64 0 4 0 C3.67 0.66 3.34 1.32 3 2 C2.01 1.67 1.02 1.34 0 1 C0 0.67 0 0.34 0 0 Z " fill="#8C6F49" transform="translate(753,1005)"/>
<path d="M0 0 C1.65 0 3.3 0 5 0 C4.01 0.66 3.02 1.32 2 2 C1.34 1.34 0.68 0.68 0 0 Z " fill="#8C6E48" transform="translate(745,1005)"/>
<path d="M0 0 C0.33 0 0.66 0 1 0 C1 1.98 1 3.96 1 6 C0.67 6 0.34 6 0 6 C0 4.02 0 2.04 0 0 Z " fill="#88714C" transform="translate(655,738)"/>
<path d="M0 0 C0.33 0 0.66 0 1 0 C1 1.98 1 3.96 1 6 C0.67 6 0.34 6 0 6 C0 4.02 0 2.04 0 0 Z " fill="#91734B" transform="translate(672,688)"/>
<path d="M0 0 C0.99 0 1.98 0 3 0 C3 0.66 3 1.32 3 2 C2.01 2 1.02 2 0 2 C0 1.34 0 0.68 0 0 Z " fill="#806540" transform="translate(184,556)"/>
<path d="M0 0 C0.99 0.99 1.98 1.98 3 3 C2.01 3 1.02 3 0 3 C0 2.01 0 1.02 0 0 Z " fill="#7B5F3C" transform="translate(152,539)"/>
<path d="M0 0 C1.32 0 2.64 0 4 0 C3.67 0.66 3.34 1.32 3 2 C2.01 1.67 1.02 1.34 0 1 C0 0.67 0 0.34 0 0 Z " fill="#7C613E" transform="translate(282,80)"/>
<path d="M0 0 C0.33 0.66 0.66 1.32 1 2 C-0.32 1.67 -1.64 1.34 -3 1 C-2.01 0.67 -1.02 0.34 0 0 Z " fill="#8B6D46" transform="translate(615,922)"/>
<path d="M0 0 C0.99 0.99 1.98 1.98 3 3 C2.01 2.67 1.02 2.34 0 2 C0 1.34 0 0.68 0 0 Z " fill="#886A43" transform="translate(296,714)"/>
<path d="M0 0 C0.99 0 1.98 0 3 0 C3 0.66 3 1.32 3 2 C2.01 1.67 1.02 1.34 0 1 C0 0.67 0 0.34 0 0 Z " fill="#806641" transform="translate(112,479)"/>
<path d="M0 0 C0.99 0.33 1.98 0.66 3 1 C2.34 1.66 1.68 2.32 1 3 C0.67 2.01 0.34 1.02 0 0 Z " fill="#7D633E" transform="translate(307,64)"/>
<path d="M0 0 C0.66 0.33 0.66 0.33 4 2 C2.68 1.67 1.36 1.34 0 1 C0 0.67 0 0.34 0 0 Z " fill="#816744" transform="translate(677,48)"/>
<path d="M0 0 C0.66 0.33 1.32 0.66 2 1 C1.01 1 0.02 1 -1 1 C-0.67 0.67 -0.34 0.34 0 0 Z " fill="#826541" transform="translate(642,950)"/>
<path d="M0 0 C0.33 0.495 0.33 0.495 2 3 C1.34 3 0.68 3 0 3 C0 2.01 0 1.02 0 0 Z " fill="#816540" transform="translate(640,945)"/>
<path d="M0 0 C4 1 4 1 4 1 Z " fill="#8B6F46" transform="translate(590,927)"/>
<path d="M0 0 C0.66 0.33 1.32 0.66 2 1 C1.01 1 0.02 1 -1 1 C-0.67 0.67 -0.34 0.34 0 0 Z " fill="#7A613C" transform="translate(377,832)"/>
<path d="M0 0 C0.33 0.165 0.33 0.165 2 1 C1.34 1.66 0.68 2.32 0 3 C0 2.01 0 1.02 0 0 Z " fill="#816541" transform="translate(240,689)"/>
<path d="M0 0 C0.66 0.66 1.32 1.32 2 2 C1.01 1.67 0.02 1.34 -1 1 C-0.67 0.67 -0.34 0.34 0 0 Z " fill="#8A6C46" transform="translate(370,664)"/>
<path d="M0 0 C0.66 0.66 1.32 1.32 2 2 C1.01 1.67 0.02 1.34 -1 1 C-0.67 0.67 -0.34 0.34 0 0 Z " fill="#8E7049" transform="translate(644,658)"/>
<path d="M0 0 C0.99 0.33 1.98 0.66 3 1 C2.01 1 1.02 1 0 1 C0 0.67 0 0.34 0 0 Z " fill="#8C6F4D" transform="translate(757,640)"/>
<path d="M0 0 C4 1 4 1 4 1 Z " fill="#8B6C45" transform="translate(265,615)"/>
<path d="M0 0 C0.99 0.33 1.98 0.66 3 1 C2.01 1 1.02 1 0 1 C0 0.67 0 0.34 0 0 Z " fill="#876A44" transform="translate(262,614)"/>
<path d="M0 0 C0 3 0 3 0 3 Z " fill="#806341" transform="translate(194,568)"/>
<path d="M0 0 C0.66 0.66 1.32 1.32 2 2 C1.01 1.67 0.02 1.34 -1 1 C-0.67 0.67 -0.34 0.34 0 0 Z " fill="#816744" transform="translate(830,558)"/>
<path d="M0 0 C0.33 0.165 0.33 0.165 2 1 C1.67 1.66 1.34 2.32 1 3 C0.67 2.01 0.34 1.02 0 0 Z " fill="#806540" transform="translate(798,159)"/>
<path d="M0 0 C0.33 0.165 0.33 0.165 2 1 C1.34 1.66 0.68 2.32 0 3 C0 2.01 0 1.02 0 0 Z " fill="#7C623F" transform="translate(750,96)"/>
<path d="M0 0 C0.99 0.33 1.98 0.66 3 1 C2.01 1 1.02 1 0 1 C0 0.67 0 0.34 0 0 Z " fill="#7B5F3D" transform="translate(274,88)"/>
<path d="M0 0 C0.66 0.66 1.32 1.32 2 2 C1.01 1.67 0.02 1.34 -1 1 C-0.67 0.67 -0.34 0.34 0 0 Z " fill="#876B46" transform="translate(646,34)"/>
<path d="M0 0 C0.99 0 1.98 0 3 0 C2.67 0.66 2.34 1.32 2 2 C1.34 1.34 0.68 0.68 0 0 Z " fill="#886B46" transform="translate(609,24)"/>
<path d="M0 0 C4 1 4 1 4 1 Z " fill="#91734B" transform="translate(472,13)"/>
<path d="M0 0 C0.66 0.66 1.32 1.32 2 2 C1.34 2 0.68 2 0 2 C0 1.34 0 0.68 0 0 Z " fill="#826642" transform="translate(649,958)"/>
<path d="M0 0 C3 1 3 1 3 1 Z " fill="#886942" transform="translate(601,925)"/>
<path d="M0 0 C0.66 0 1.32 0 2 0 C1.67 0.66 1.34 1.32 1 2 C0.67 1.34 0.34 0.68 0 0 Z " fill="#816441" transform="translate(738,888)"/>
<path d="M0 0 C0.66 0.66 1.32 1.32 2 2 C1.34 2 0.68 2 0 2 C0 1.34 0 0.68 0 0 Z " fill="#795F3B" transform="translate(417,882)"/>
<path d="" fill="#806541" transform="translate(0,0)"/>
<path d="" fill="#7C633F" transform="translate(0,0)"/>
<path d="M0 0 C3 1 3 1 3 1 Z " fill="#8E744C" transform="translate(720,768)"/>
<path d="" fill="#886D48" transform="translate(0,0)"/>
<path d="M0 0 C3 1 3 1 3 1 Z " fill="#92734B" transform="translate(739,708)"/>
<path d="M0 0 C0.66 0 1.32 0 2 0 C1.67 0.66 1.34 1.32 1 2 C0.67 1.34 0.34 0.68 0 0 Z " fill="#8F704B" transform="translate(372,658)"/>
<path d="M0 0 C3 1 3 1 3 1 Z " fill="#866A44" transform="translate(243,607)"/>
<path d="M0 0 C0.33 0.165 0.33 0.165 2 1 C1.67 1.165 1.67 1.165 0 2 C0 1.34 0 0.68 0 0 Z " fill="#876B43" transform="translate(240,606)"/>
<path d="M0 0 C0.66 0.66 1.32 1.32 2 2 C1.34 2 0.68 2 0 2 C0 1.34 0 0.68 0 0 Z " fill="#806441" transform="translate(200,576)"/>
<path d="M0 0 C3 1 3 1 3 1 Z " fill="#836842" transform="translate(832,558)"/>
<path d="" fill="#7D613D" transform="translate(0,0)"/>
<path d="" fill="#806541" transform="translate(0,0)"/>
<path d="" fill="#806542" transform="translate(0,0)"/>
<path d="M0 0 C0.66 0.66 1.32 1.32 2 2 C1.34 2 0.68 2 0 2 C0 1.34 0 0.68 0 0 Z " fill="#816441" transform="translate(113,412)"/>
<path d="" fill="#806340" transform="translate(0,0)"/>
<path d="M0 0 C0.66 0 1.32 0 2 0 C1.67 0.66 1.34 1.32 1 2 C0.67 1.34 0.34 0.68 0 0 Z " fill="#826742" transform="translate(850,321)"/>
<path d="" fill="#816641" transform="translate(0,0)"/>
<path d="M0 0 C0.33 0.165 0.33 0.165 2 1 C1.67 1.165 1.67 1.165 0 2 C0 1.34 0 0.68 0 0 Z " fill="#7E623E" transform="translate(184,235)"/>
<path d="M0 0 C3 1 3 1 3 1 Z " fill="#866843" transform="translate(821,208)"/>
<path d="" fill="#7E633F" transform="translate(0,0)"/>
<path d="M0 0 C0.33 0.165 0.33 0.165 2 1 C1.67 1.165 1.67 1.165 0 2 C0 1.34 0 0.68 0 0 Z " fill="#795F3C" transform="translate(208,170)"/>
<path d="M0 0 C0.33 0.66 0.66 1.32 1 2 C0.34 1.67 -0.32 1.34 -1 1 C-0.67 0.67 -0.34 0.34 0 0 Z " fill="#7D6340" transform="translate(281,84)"/>
<path d="M0 0 C0.66 0 1.32 0 2 0 C1.67 0.66 1.34 1.32 1 2 C0.67 1.34 0.34 0.68 0 0 Z " fill="#836844" transform="translate(659,40)"/>
<path d="M0 0 C3 1 3 1 3 1 Z " fill="#846743" transform="translate(376,32)"/>
<path d="M0 0 C3 1 3 1 3 1 Z " fill="#8F724D" transform="translate(451,16)"/>
<path d="M0 0 C2 1 2 1 2 1 Z " fill="#8B6F4B" transform="translate(769,1005)"/>
<path d="M0 0 C2 1 2 1 2 1 Z " fill="#8B6D46" transform="translate(740,1004)"/>
<path d="M0 0 C2 1 2 1 2 1 Z " fill="#8C6E48" transform="translate(737,1004)"/>
<path d="M0 0 C2 1 2 1 2 1 Z " fill="#886A46" transform="translate(680,985)"/>
<path d="" fill="#7D6542" transform="translate(0,0)"/>
<path d="" fill="#866942" transform="translate(0,0)"/>
<path d="" fill="#826843" transform="translate(0,0)"/>
<path d="" fill="#806440" transform="translate(0,0)"/>
<path d="M0 0 C2 1 2 1 2 1 Z " fill="#8A6C45" transform="translate(596,926)"/>
<path d="M0 0 C2 1 2 1 2 1 Z " fill="#846540" transform="translate(501,924)"/>
<path d="M0 0 C2 1 2 1 2 1 Z " fill="#846743" transform="translate(626,919)"/>
<path d="" fill="#7F623E" transform="translate(0,0)"/>
<path d="M0 0 C2 1 2 1 2 1 Z " fill="#785E3B" transform="translate(440,903)"/>
<path d="M0 0 C2 1 2 1 2 1 Z " fill="#795E3B" transform="translate(444,902)"/>
<path d="M0 0 C2 1 2 1 2 1 Z " fill="#7B613C" transform="translate(442,901)"/>
<path d="M0 0 C2 1 2 1 2 1 Z " fill="#765C39" transform="translate(403,871)"/>
<path d="" fill="#765D3A" transform="translate(0,0)"/>
<path d="M0 0 C2 1 2 1 2 1 Z " fill="#785C3A" transform="translate(403,869)"/>
<path d="" fill="#785F3E" transform="translate(0,0)"/>
<path d="M0 0 C2 1 2 1 2 1 Z " fill="#806241" transform="translate(767,855)"/>
<path d="" fill="#7F613E" transform="translate(0,0)"/>
<path d="" fill="#7C623E" transform="translate(0,0)"/>
<path d="" fill="#7C6341" transform="translate(0,0)"/>
<path d="M0 0 C2 1 2 1 2 1 Z " fill="#886E47" transform="translate(640,829)"/>
<path d="" fill="#876B46" transform="translate(0,0)"/>
<path d="" fill="#7E6341" transform="translate(0,0)"/>
<path d="M0 0 C2 1 2 1 2 1 Z " fill="#7D6340" transform="translate(368,817)"/>
<path d="M0 0 C2 1 2 1 2 1 Z " fill="#816640" transform="translate(787,815)"/>
<path d="M0 0 C2 1 2 1 2 1 Z " fill="#8A7049" transform="translate(680,787)"/>
<path d="M0 0 C2 1 2 1 2 1 Z " fill="#886F49" transform="translate(680,784)"/>
<path d="M0 0 C2 1 2 1 2 1 Z " fill="#8C7049" transform="translate(694,779)"/>
<path d="M0 0 C2 1 2 1 2 1 Z " fill="#886D48" transform="translate(696,778)"/>
<path d="" fill="#7A5E3B" transform="translate(0,0)"/>
<path d="M0 0 C2 1 2 1 2 1 Z " fill="#8F744B" transform="translate(714,769)"/>
<path d="M0 0 C2 1 2 1 2 1 Z " fill="#8A704B" transform="translate(770,761)"/>
<path d="" fill="#8B724B" transform="translate(0,0)"/>
<path d="M0 0 C2 1 2 1 2 1 Z " fill="#8D7149" transform="translate(327,719)"/>
<path d="M0 0 C2 1 2 1 2 1 Z " fill="#95764E" transform="translate(685,718)"/>
<path d="" fill="#93754F" transform="translate(0,0)"/>
<path d="M0 0 C2 1 2 1 2 1 Z " fill="#997951" transform="translate(729,709)"/>
<path d="M0 0 C2 1 2 1 2 1 Z " fill="#8C7047" transform="translate(280,709)"/>
<path d="M0 0 C2 1 2 1 2 1 Z " fill="#896B45" transform="translate(273,708)"/>
<path d="M0 0 C2 1 2 1 2 1 Z " fill="#866945" transform="translate(266,707)"/>
<path d="" fill="#8D714A" transform="translate(0,0)"/>
<path d="M0 0 C2 1 2 1 2 1 Z " fill="#836844" transform="translate(255,702)"/>
<path d="" fill="#816640" transform="translate(0,0)"/>
<path d="" fill="#8C6E48" transform="translate(0,0)"/>
<path d="M0 0 C2 1 2 1 2 1 Z " fill="#8D6D46" transform="translate(746,633)"/>
<path d="M0 0 C2 1 2 1 2 1 Z " fill="#8D6F49" transform="translate(278,624)"/>
<path d="M0 0 C2 1 2 1 2 1 Z " fill="#8C6E48" transform="translate(283,619)"/>
<path d="M0 0 C2 1 2 1 2 1 Z " fill="#8A6D49" transform="translate(762,611)"/>
<path d="" fill="#806340" transform="translate(0,0)"/>
<path d="M0 0 C2 1 2 1 2 1 Z " fill="#836640" transform="translate(836,558)"/>
<path d="M0 0 C2 1 2 1 2 1 Z " fill="#7F6543" transform="translate(847,555)"/>
<path d="" fill="#7D6541" transform="translate(0,0)"/>
<path d="" fill="#7C603C" transform="translate(0,0)"/>
<path d="" fill="#79603D" transform="translate(0,0)"/>
<path d="" fill="#7E6442" transform="translate(0,0)"/>
<path d="M0 0 C2 1 2 1 2 1 Z " fill="#7B613D" transform="translate(121,501)"/>
<path d="" fill="#81643F" transform="translate(0,0)"/>
<path d="" fill="#7B6442" transform="translate(0,0)"/>
<path d="" fill="#7F6643" transform="translate(0,0)"/>
<path d="" fill="#836842" transform="translate(0,0)"/>
<path d="" fill="#7E633C" transform="translate(0,0)"/>
<path d="M0 0 C2 1 2 1 2 1 Z " fill="#7D633E" transform="translate(136,364)"/>
<path d="" fill="#7B6240" transform="translate(0,0)"/>
<path d="" fill="#7F643F" transform="translate(0,0)"/>
<path d="M0 0 C2 1 2 1 2 1 Z " fill="#7D603E" transform="translate(145,344)"/>
<path d="" fill="#816642" transform="translate(0,0)"/>
<path d="" fill="#81633F" transform="translate(0,0)"/>
<path d="" fill="#816540" transform="translate(0,0)"/>
<path d="M0 0 C2 1 2 1 2 1 Z " fill="#80643F" transform="translate(169,296)"/>
<path d="" fill="#826641" transform="translate(0,0)"/>
<path d="" fill="#7E623F" transform="translate(0,0)"/>
<path d="" fill="#806441" transform="translate(0,0)"/>
<path d="M0 0 C2 1 2 1 2 1 Z " fill="#7E623F" transform="translate(184,233)"/>
<path d="" fill="#7E6440" transform="translate(0,0)"/>
<path d="" fill="#886B44" transform="translate(0,0)"/>
<path d="M0 0 C2 1 2 1 2 1 Z " fill="#7C6240" transform="translate(201,186)"/>
<path d="" fill="#816A44" transform="translate(0,0)"/>
<path d="M0 0 C2 1 2 1 2 1 Z " fill="#7D6240" transform="translate(790,144)"/>
<path d="" fill="#7D613F" transform="translate(0,0)"/>
<path d="" fill="#7F6641" transform="translate(0,0)"/>
<path d="M0 0 C2 1 2 1 2 1 Z " fill="#7F6440" transform="translate(258,104)"/>
<path d="M0 0 C2 1 2 1 2 1 Z " fill="#7C603E" transform="translate(266,96)"/>
<path d="" fill="#7E603D" transform="translate(0,0)"/>
<path d="M0 0 C2 1 2 1 2 1 Z " fill="#806442" transform="translate(297,72)"/>
<path d="M0 0 C2 1 2 1 2 1 Z " fill="#7F643E" transform="translate(310,64)"/>
<path d="M0 0 C2 1 2 1 2 1 Z " fill="#866944" transform="translate(667,44)"/>
<path d="" fill="#886D47" transform="translate(0,0)"/>
<path d="" fill="#866A44" transform="translate(0,0)"/>
<path d="M0 0 C2 1 2 1 2 1 Z " fill="#836744" transform="translate(361,40)"/>
<path d="" fill="#866A47" transform="translate(0,0)"/>
<path d="M0 0 C2 1 2 1 2 1 Z " fill="#876B47" transform="translate(383,32)"/>
<path d="" fill="#896E46" transform="translate(0,0)"/>
<path d="M0 0 C2 1 2 1 2 1 Z " fill="#8A6C47" transform="translate(399,27)"/>
<path d="" fill="#896B47" transform="translate(0,0)"/>
<path d="M0 0 C2 1 2 1 2 1 Z " fill="#8B6E46" transform="translate(411,24)"/>
<path d="M0 0 C2 1 2 1 2 1 Z " fill="#8E724A" transform="translate(581,18)"/>
<path d="M0 0 C2 1 2 1 2 1 Z " fill="#90734C" transform="translate(524,12)"/>
<path d="M0 0 C2 1 2 1 2 1 Z " fill="#91734C" transform="translate(484,12)"/>
<path d="" fill="#8C6F4B" transform="translate(0,0)"/>
<path d="" fill="#8B704A" transform="translate(0,0)"/>
<path d="" fill="#8B7048" transform="translate(0,0)"/>
<path d="" fill="#896C48" transform="translate(0,0)"/>
<path d="" fill="#8C714A" transform="translate(0,0)"/>
<path d="" fill="#8C714B" transform="translate(0,0)"/>
<path d="" fill="#8F714B" transform="translate(0,0)"/>
<path d="" fill="#8C6F49" transform="translate(0,0)"/>
<path d="" fill="#866B47" transform="translate(0,0)"/>
<path d="" fill="#8E704B" transform="translate(0,0)"/>
<path d="" fill="#91734C" transform="translate(0,0)"/>
<path d="" fill="#8F734C" transform="translate(0,0)"/>
<path d="" fill="#806642" transform="translate(0,0)"/>
<path d="" fill="#80653F" transform="translate(0,0)"/>
<path d="" fill="#866B43" transform="translate(0,0)"/>
<path d="" fill="#584328" transform="translate(0,0)"/>
<path d="" fill="#856944" transform="translate(0,0)"/>
<path d="" fill="#846A44" transform="translate(0,0)"/>
<path d="" fill="#826743" transform="translate(0,0)"/>
<path d="" fill="#816942" transform="translate(0,0)"/>
<path d="" fill="#846944" transform="translate(0,0)"/>
<path d="" fill="#856B46" transform="translate(0,0)"/>
<path d="" fill="#886A43" transform="translate(0,0)"/>
<path d="" fill="#5F4B2E" transform="translate(0,0)"/>
<path d="" fill="#856944" transform="translate(0,0)"/>
<path d="" fill="#836842" transform="translate(0,0)"/>
<path d="" fill="#171107" transform="translate(0,0)"/>
<path d="" fill="#483820" transform="translate(0,0)"/>
<path d="" fill="#856943" transform="translate(0,0)"/>
<path d="" fill="#765D3A" transform="translate(0,0)"/>
<path d="" fill="#826642" transform="translate(0,0)"/>
<path d="" fill="#826941" transform="translate(0,0)"/>
<path d="" fill="#846B45" transform="translate(0,0)"/>
<path d="" fill="#846944" transform="translate(0,0)"/>
<path d="" fill="#866942" transform="translate(0,0)"/>
<path d="" fill="#866A45" transform="translate(0,0)"/>
<path d="" fill="#846942" transform="translate(0,0)"/>
<path d="" fill="#856945" transform="translate(0,0)"/>
<path d="" fill="#181107" transform="translate(0,0)"/>
<path d="" fill="#896E47" transform="translate(0,0)"/>
<path d="" fill="#8B6F47" transform="translate(0,0)"/>
<path d="" fill="#8B6C44" transform="translate(0,0)"/>
<path d="" fill="#8B6E47" transform="translate(0,0)"/>
<path d="" fill="#8B6E46" transform="translate(0,0)"/>
<path d="" fill="#816744" transform="translate(0,0)"/>
<path d="" fill="#896F45" transform="translate(0,0)"/>
<path d="" fill="#8A6F47" transform="translate(0,0)"/>
<path d="" fill="#7F6440" transform="translate(0,0)"/>
<path d="" fill="#251A0D" transform="translate(0,0)"/>
<path d="" fill="#8A6B45" transform="translate(0,0)"/>
<path d="" fill="#886A43" transform="translate(0,0)"/>
<path d="" fill="#170F05" transform="translate(0,0)"/>
<path d="" fill="#806640" transform="translate(0,0)"/>
<path d="" fill="#7D613E" transform="translate(0,0)"/>
<path d="" fill="#816742" transform="translate(0,0)"/>
<path d="" fill="#7F623E" transform="translate(0,0)"/>
<path d="" fill="#7E623F" transform="translate(0,0)"/>
<path d="" fill="#7F663F" transform="translate(0,0)"/>
<path d="" fill="#846741" transform="translate(0,0)"/>
<path d="" fill="#7B643E" transform="translate(0,0)"/>
<path d="" fill="#7F6542" transform="translate(0,0)"/>
<path d="" fill="#806643" transform="translate(0,0)"/>
<path d="" fill="#7A613E" transform="translate(0,0)"/>
<path d="" fill="#7C603B" transform="translate(0,0)"/>
<path d="" fill="#7B5C3E" transform="translate(0,0)"/>
<path d="" fill="#7C5F3B" transform="translate(0,0)"/>
<path d="" fill="#806742" transform="translate(0,0)"/>
<path d="" fill="#7C603D" transform="translate(0,0)"/>
<path d="" fill="#7D6441" transform="translate(0,0)"/>
<path d="" fill="#80633E" transform="translate(0,0)"/>
<path d="" fill="#806640" transform="translate(0,0)"/>
<path d="" fill="#7A613E" transform="translate(0,0)"/>
<path d="" fill="#7A603E" transform="translate(0,0)"/>
<path d="" fill="#775C3A" transform="translate(0,0)"/>
<path d="" fill="#876643" transform="translate(0,0)"/>
<path d="" fill="#7B623C" transform="translate(0,0)"/>
<path d="" fill="#83643F" transform="translate(0,0)"/>
<path d="" fill="#81623F" transform="translate(0,0)"/>
<path d="" fill="#826541" transform="translate(0,0)"/>
<path d="" fill="#785F3B" transform="translate(0,0)"/>
<path d="" fill="#755B38" transform="translate(0,0)"/>
<path d="" fill="#765E39" transform="translate(0,0)"/>
<path d="" fill="#7E613E" transform="translate(0,0)"/>
<path d="" fill="#7A5F3C" transform="translate(0,0)"/>
<path d="" fill="#7B5F3D" transform="translate(0,0)"/>
<path d="" fill="#7E633C" transform="translate(0,0)"/>
<path d="" fill="#7C6240" transform="translate(0,0)"/>
<path d="" fill="#7E5F3D" transform="translate(0,0)"/>
<path d="" fill="#7D633F" transform="translate(0,0)"/>
<path d="" fill="#79603C" transform="translate(0,0)"/>
<path d="" fill="#7A613D" transform="translate(0,0)"/>
<path d="" fill="#7B603C" transform="translate(0,0)"/>
<path d="" fill="#7E6543" transform="translate(0,0)"/>
<path d="" fill="#7F6744" transform="translate(0,0)"/>
<path d="" fill="#886A44" transform="translate(0,0)"/>
<path d="" fill="#886D48" transform="translate(0,0)"/>
<path d="" fill="#826641" transform="translate(0,0)"/>
<path d="" fill="#816642" transform="translate(0,0)"/>
<path d="" fill="#876C47" transform="translate(0,0)"/>
<path d="" fill="#7F643F" transform="translate(0,0)"/>
<path d="" fill="#876B46" transform="translate(0,0)"/>
<path d="" fill="#896C48" transform="translate(0,0)"/>
<path d="" fill="#816843" transform="translate(0,0)"/>
<path d="" fill="#856945" transform="translate(0,0)"/>
<path d="" fill="#816742" transform="translate(0,0)"/>
<path d="" fill="#836843" transform="translate(0,0)"/>
<path d="" fill="#836843" transform="translate(0,0)"/>
<path d="" fill="#866C4A" transform="translate(0,0)"/>
<path d="" fill="#8B6F49" transform="translate(0,0)"/>
<path d="" fill="#8C6E4A" transform="translate(0,0)"/>
<path d="" fill="#7F6340" transform="translate(0,0)"/>
<path d="" fill="#876B47" transform="translate(0,0)"/>
<path d="" fill="#896E46" transform="translate(0,0)"/>
<path d="" fill="#79603D" transform="translate(0,0)"/>
<path d="" fill="#836B48" transform="translate(0,0)"/>
<path d="" fill="#8D734B" transform="translate(0,0)"/>
<path d="" fill="#896E48" transform="translate(0,0)"/>
<path d="" fill="#866944" transform="translate(0,0)"/>
<path d="" fill="#91734C" transform="translate(0,0)"/>
<path d="" fill="#94774E" transform="translate(0,0)"/>
<path d="" fill="#836740" transform="translate(0,0)"/>
<path d="" fill="#90724C" transform="translate(0,0)"/>
<path d="" fill="#957850" transform="translate(0,0)"/>
<path d="" fill="#886D46" transform="translate(0,0)"/>
<path d="" fill="#876B45" transform="translate(0,0)"/>
<path d="" fill="#91754C" transform="translate(0,0)"/>
<path d="" fill="#92774E" transform="translate(0,0)"/>
<path d="" fill="#8D714C" transform="translate(0,0)"/>
<path d="" fill="#957950" transform="translate(0,0)"/>
<path d="" fill="#95774F" transform="translate(0,0)"/>
<path d="" fill="#8A734E" transform="translate(0,0)"/>
<path d="" fill="#8C724D" transform="translate(0,0)"/>
<path d="" fill="#886D46" transform="translate(0,0)"/>
<path d="" fill="#8E714A" transform="translate(0,0)"/>
<path d="" fill="#8D7048" transform="translate(0,0)"/>
<path d="" fill="#8E7247" transform="translate(0,0)"/>
<path d="" fill="#856A45" transform="translate(0,0)"/>
<path d="" fill="#95754D" transform="translate(0,0)"/>
<path d="" fill="#94764F" transform="translate(0,0)"/>
<path d="" fill="#94774D" transform="translate(0,0)"/>
<path d="" fill="#896B46" transform="translate(0,0)"/>
<path d="" fill="#92724A" transform="translate(0,0)"/>
<path d="" fill="#92734D" transform="translate(0,0)"/>
<path d="" fill="#93754B" transform="translate(0,0)"/>
<path d="" fill="#95754E" transform="translate(0,0)"/>
<path d="" fill="#8D7048" transform="translate(0,0)"/>
<path d="" fill="#96764C" transform="translate(0,0)"/>
<path d="" fill="#977951" transform="translate(0,0)"/>
<path d="" fill="#967850" transform="translate(0,0)"/>
<path d="" fill="#8C6F46" transform="translate(0,0)"/>
<path d="" fill="#8C6E48" transform="translate(0,0)"/>
<path d="" fill="#897047" transform="translate(0,0)"/>
<path d="" fill="#8B6F48" transform="translate(0,0)"/>
<path d="" fill="#95774D" transform="translate(0,0)"/>
<path d="" fill="#98794F" transform="translate(0,0)"/>
<path d="" fill="#96774F" transform="translate(0,0)"/>
<path d="" fill="#8D6F47" transform="translate(0,0)"/>
<path d="" fill="#8D6F47" transform="translate(0,0)"/>
<path d="" fill="#886D47" transform="translate(0,0)"/>
<path d="" fill="#94754E" transform="translate(0,0)"/>
<path d="" fill="#94764E" transform="translate(0,0)"/>
<path d="" fill="#947550" transform="translate(0,0)"/>
<path d="" fill="#8A704C" transform="translate(0,0)"/>
<path d="" fill="#876843" transform="translate(0,0)"/>
<path d="" fill="#856A43" transform="translate(0,0)"/>
<path d="" fill="#91744C" transform="translate(0,0)"/>
<path d="" fill="#8F724C" transform="translate(0,0)"/>
<path d="" fill="#866A44" transform="translate(0,0)"/>
<path d="" fill="#8F734A" transform="translate(0,0)"/>
<path d="" fill="#8B6C46" transform="translate(0,0)"/>
<path d="" fill="#8F704D" transform="translate(0,0)"/>
<path d="" fill="#8C704A" transform="translate(0,0)"/>
<path d="" fill="#826542" transform="translate(0,0)"/>
<path d="" fill="#93764E" transform="translate(0,0)"/>
<path d="" fill="#8E734C" transform="translate(0,0)"/>
<path d="" fill="#8C7049" transform="translate(0,0)"/>
<path d="" fill="#816640" transform="translate(0,0)"/>
<path d="" fill="#8D714B" transform="translate(0,0)"/>
<path d="" fill="#8E704B" transform="translate(0,0)"/>
<path d="" fill="#7E633E" transform="translate(0,0)"/>
<path d="" fill="#7E653F" transform="translate(0,0)"/>
<path d="" fill="#8E7049" transform="translate(0,0)"/>
<path d="" fill="#94754D" transform="translate(0,0)"/>
<path d="" fill="#95734C" transform="translate(0,0)"/>
<path d="" fill="#91724B" transform="translate(0,0)"/>
<path d="" fill="#8A6D49" transform="translate(0,0)"/>
<path d="" fill="#8F6E48" transform="translate(0,0)"/>
<path d="" fill="#91724E" transform="translate(0,0)"/>
<path d="" fill="#8F714C" transform="translate(0,0)"/>
<path d="" fill="#8F7048" transform="translate(0,0)"/>
<path d="" fill="#8E6E48" transform="translate(0,0)"/>
<path d="" fill="#806742" transform="translate(0,0)"/>
<path d="" fill="#8E704A" transform="translate(0,0)"/>
<path d="" fill="#806640" transform="translate(0,0)"/>
<path d="" fill="#8A6A46" transform="translate(0,0)"/>
<path d="" fill="#8C6E49" transform="translate(0,0)"/>
<path d="" fill="#8D6F4B" transform="translate(0,0)"/>
<path d="" fill="#8D6F4A" transform="translate(0,0)"/>
<path d="" fill="#846941" transform="translate(0,0)"/>
<path d="" fill="#8D6C47" transform="translate(0,0)"/>
<path d="" fill="#8B6E49" transform="translate(0,0)"/>
<path d="" fill="#856A43" transform="translate(0,0)"/>
<path d="" fill="#8E6F49" transform="translate(0,0)"/>
<path d="" fill="#896E48" transform="translate(0,0)"/>
<path d="" fill="#896B46" transform="translate(0,0)"/>
<path d="" fill="#8E704A" transform="translate(0,0)"/>
<path d="" fill="#8E6F49" transform="translate(0,0)"/>
<path d="" fill="#896A49" transform="translate(0,0)"/>
<path d="" fill="#8D6C4A" transform="translate(0,0)"/>
<path d="" fill="#8E7146" transform="translate(0,0)"/>
<path d="" fill="#896C46" transform="translate(0,0)"/>
<path d="" fill="#8C714A" transform="translate(0,0)"/>
<path d="" fill="#8A6C49" transform="translate(0,0)"/>
<path d="" fill="#92724C" transform="translate(0,0)"/>
<path d="" fill="#8A6D46" transform="translate(0,0)"/>
<path d="" fill="#8B6E45" transform="translate(0,0)"/>
<path d="" fill="#866C44" transform="translate(0,0)"/>
<path d="" fill="#896C46" transform="translate(0,0)"/>
<path d="" fill="#8F6F4A" transform="translate(0,0)"/>
<path d="" fill="#896E46" transform="translate(0,0)"/>
<path d="" fill="#866A44" transform="translate(0,0)"/>
<path d="" fill="#876B46" transform="translate(0,0)"/>
<path d="" fill="#8E724B" transform="translate(0,0)"/>
<path d="" fill="#8B6B46" transform="translate(0,0)"/>
<path d="" fill="#896B47" transform="translate(0,0)"/>
<path d="" fill="#8A6D48" transform="translate(0,0)"/>
<path d="" fill="#866943" transform="translate(0,0)"/>
<path d="" fill="#8D7048" transform="translate(0,0)"/>
<path d="" fill="#8B6E43" transform="translate(0,0)"/>
<path d="" fill="#866A41" transform="translate(0,0)"/>
<path d="" fill="#8D724B" transform="translate(0,0)"/>
<path d="" fill="#8B6E4C" transform="translate(0,0)"/>
<path d="" fill="#8A6C45" transform="translate(0,0)"/>
<path d="" fill="#8E6D47" transform="translate(0,0)"/>
<path d="" fill="#8E714A" transform="translate(0,0)"/>
<path d="" fill="#8A6E46" transform="translate(0,0)"/>
<path d="" fill="#40301B" transform="translate(0,0)"/>
<path d="" fill="#8D704A" transform="translate(0,0)"/>
<path d="" fill="#8D704B" transform="translate(0,0)"/>
<path d="" fill="#8E6F4B" transform="translate(0,0)"/>
<path d="" fill="#8E704A" transform="translate(0,0)"/>
<path d="" fill="#8B6D46" transform="translate(0,0)"/>
<path d="" fill="#90714B" transform="translate(0,0)"/>
<path d="" fill="#93744B" transform="translate(0,0)"/>
<path d="" fill="#8F6D4A" transform="translate(0,0)"/>
<path d="" fill="#8B6D47" transform="translate(0,0)"/>
<path d="" fill="#8B7049" transform="translate(0,0)"/>
<path d="" fill="#0B0701" transform="translate(0,0)"/>
<path d="" fill="#8B6E47" transform="translate(0,0)"/>
<path d="" fill="#8D6E47" transform="translate(0,0)"/>
<path d="" fill="#8A6C48" transform="translate(0,0)"/>
<path d="" fill="#8B6F45" transform="translate(0,0)"/>
<path d="" fill="#8C6E49" transform="translate(0,0)"/>
<path d="" fill="#90724C" transform="translate(0,0)"/>
<path d="" fill="#8A6941" transform="translate(0,0)"/>
<path d="" fill="#906E45" transform="translate(0,0)"/>
<path d="" fill="#8A6E46" transform="translate(0,0)"/>
<path d="" fill="#866845" transform="translate(0,0)"/>
<path d="" fill="#896B47" transform="translate(0,0)"/>
<path d="" fill="#896A46" transform="translate(0,0)"/>
<path d="" fill="#876A44" transform="translate(0,0)"/>
<path d="" fill="#876945" transform="translate(0,0)"/>
<path d="" fill="#856643" transform="translate(0,0)"/>
<path d="" fill="#876A44" transform="translate(0,0)"/>
<path d="" fill="#876743" transform="translate(0,0)"/>
<path d="" fill="#856945" transform="translate(0,0)"/>
<path d="" fill="#836742" transform="translate(0,0)"/>
<path d="" fill="#130B03" transform="translate(0,0)"/>
<path d="" fill="#846840" transform="translate(0,0)"/>
<path d="" fill="#7B5C3A" transform="translate(0,0)"/>
<path d="" fill="#816342" transform="translate(0,0)"/>
<path d="" fill="#806441" transform="translate(0,0)"/>
<path d="" fill="#846643" transform="translate(0,0)"/>
<path d="" fill="#806441" transform="translate(0,0)"/>
<path d="" fill="#816440" transform="translate(0,0)"/>
<path d="" fill="#806441" transform="translate(0,0)"/>
<path d="" fill="#7E6441" transform="translate(0,0)"/>
<path d="" fill="#7E6441" transform="translate(0,0)"/>
<path d="" fill="#826441" transform="translate(0,0)"/>
<path d="" fill="#826440" transform="translate(0,0)"/>
<path d="" fill="#7E6240" transform="translate(0,0)"/>
<path d="" fill="#7E643F" transform="translate(0,0)"/>
<path d="" fill="#7E613F" transform="translate(0,0)"/>
<path d="" fill="#82633F" transform="translate(0,0)"/>
<path d="" fill="#7D6141" transform="translate(0,0)"/>
<path d="" fill="#7C663E" transform="translate(0,0)"/>
<path d="" fill="#7F653D" transform="translate(0,0)"/>
<path d="" fill="#806240" transform="translate(0,0)"/>
<path d="" fill="#816740" transform="translate(0,0)"/>
<path d="" fill="#826442" transform="translate(0,0)"/>
<path d="" fill="#816540" transform="translate(0,0)"/>
<path d="" fill="#816441" transform="translate(0,0)"/>
<path d="" fill="#816541" transform="translate(0,0)"/>
<path d="" fill="#7F633E" transform="translate(0,0)"/>
<path d="" fill="#81653D" transform="translate(0,0)"/>
<path d="" fill="#7C5F3E" transform="translate(0,0)"/>
<path d="" fill="#836440" transform="translate(0,0)"/>
<path d="" fill="#7B6040" transform="translate(0,0)"/>
<path d="" fill="#7D623E" transform="translate(0,0)"/>
<path d="" fill="#7A603B" transform="translate(0,0)"/>
<path d="" fill="#7C5E3D" transform="translate(0,0)"/>
<path d="" fill="#785F3B" transform="translate(0,0)"/>
<path d="" fill="#7A5D3A" transform="translate(0,0)"/>
<path d="" fill="#7B623D" transform="translate(0,0)"/>
<path d="" fill="#7D613F" transform="translate(0,0)"/>
<path d="" fill="#7A613F" transform="translate(0,0)"/>
<path d="" fill="#7E623F" transform="translate(0,0)"/>
<path d="" fill="#7E6441" transform="translate(0,0)"/>
<path d="" fill="#7B613D" transform="translate(0,0)"/>
<path d="" fill="#7E633E" transform="translate(0,0)"/>
<path d="" fill="#806544" transform="translate(0,0)"/>
<path d="" fill="#7A6241" transform="translate(0,0)"/>
<path d="" fill="#7E6240" transform="translate(0,0)"/>
<path d="" fill="#7D6843" transform="translate(0,0)"/>
<path d="" fill="#826945" transform="translate(0,0)"/>
<path d="" fill="#806743" transform="translate(0,0)"/>
<path d="" fill="#685234" transform="translate(0,0)"/>
<path d="" fill="#826843" transform="translate(0,0)"/>
<path d="" fill="#7F6542" transform="translate(0,0)"/>
<path d="" fill="#7D6442" transform="translate(0,0)"/>
<path d="" fill="#7E6641" transform="translate(0,0)"/>
<path d="" fill="#7E6342" transform="translate(0,0)"/>
<path d="" fill="#806742" transform="translate(0,0)"/>
<path d="" fill="#826641" transform="translate(0,0)"/>
<path d="" fill="#836740" transform="translate(0,0)"/>
<path d="" fill="#79623F" transform="translate(0,0)"/>
<path d="" fill="#7C6541" transform="translate(0,0)"/>
<path d="" fill="#7D6540" transform="translate(0,0)"/>
<path d="" fill="#806645" transform="translate(0,0)"/>
<path d="" fill="#7E623C" transform="translate(0,0)"/>
<path d="" fill="#7E6541" transform="translate(0,0)"/>
<path d="" fill="#826743" transform="translate(0,0)"/>
<path d="" fill="#7B633F" transform="translate(0,0)"/>
<path d="" fill="#775E3C" transform="translate(0,0)"/>
<path d="" fill="#795F3B" transform="translate(0,0)"/>
<path d="" fill="#826541" transform="translate(0,0)"/>
<path d="" fill="#79603D" transform="translate(0,0)"/>
<path d="" fill="#826845" transform="translate(0,0)"/>
<path d="" fill="#7F643E" transform="translate(0,0)"/>
<path d="" fill="#7C6540" transform="translate(0,0)"/>
<path d="" fill="#7C603E" transform="translate(0,0)"/>
<path d="" fill="#7A613E" transform="translate(0,0)"/>
<path d="" fill="#7F6540" transform="translate(0,0)"/>
<path d="" fill="#7C643F" transform="translate(0,0)"/>
<path d="" fill="#7E6642" transform="translate(0,0)"/>
<path d="" fill="#7F623E" transform="translate(0,0)"/>
<path d="" fill="#7E6840" transform="translate(0,0)"/>
<path d="" fill="#7E6640" transform="translate(0,0)"/>
<path d="" fill="#7E623F" transform="translate(0,0)"/>
<path d="" fill="#7C623E" transform="translate(0,0)"/>
<path d="" fill="#79613F" transform="translate(0,0)"/>
<path d="" fill="#7B613E" transform="translate(0,0)"/>
<path d="" fill="#806340" transform="translate(0,0)"/>
<path d="" fill="#785F3F" transform="translate(0,0)"/>
<path d="" fill="#7D623F" transform="translate(0,0)"/>
<path d="" fill="#816140" transform="translate(0,0)"/>
<path d="" fill="#7F6240" transform="translate(0,0)"/>
<path d="" fill="#7E6342" transform="translate(0,0)"/>
<path d="" fill="#816643" transform="translate(0,0)"/>
<path d="" fill="#806242" transform="translate(0,0)"/>
<path d="" fill="#816444" transform="translate(0,0)"/>
<path d="" fill="#846944" transform="translate(0,0)"/>
<path d="" fill="#836844" transform="translate(0,0)"/>
<path d="" fill="#846C46" transform="translate(0,0)"/>
<path d="" fill="#816A41" transform="translate(0,0)"/>
<path d="" fill="#826B44" transform="translate(0,0)"/>
<path d="" fill="#876C47" transform="translate(0,0)"/>
<path d="" fill="#7F6440" transform="translate(0,0)"/>
<path d="" fill="#7F6240" transform="translate(0,0)"/>
<path d="" fill="#806542" transform="translate(0,0)"/>
<path d="" fill="#886E47" transform="translate(0,0)"/>
<path d="" fill="#8B7047" transform="translate(0,0)"/>
<path d="" fill="#8B6E46" transform="translate(0,0)"/>
<path d="" fill="#826843" transform="translate(0,0)"/>
<path d="" fill="#876944" transform="translate(0,0)"/>
<path d="" fill="#7C623C" transform="translate(0,0)"/>
<path d="" fill="#7E653F" transform="translate(0,0)"/>
<path d="" fill="#7A5F3E" transform="translate(0,0)"/>
<path d="" fill="#7B6140" transform="translate(0,0)"/>
<path d="" fill="#7E6141" transform="translate(0,0)"/>
<path d="" fill="#7D5F3C" transform="translate(0,0)"/>
<path d="" fill="#7F6947" transform="translate(0,0)"/>
<path d="" fill="#826946" transform="translate(0,0)"/>
<path d="" fill="#816944" transform="translate(0,0)"/>
<path d="" fill="#836A43" transform="translate(0,0)"/>
<path d="" fill="#7C5F3F" transform="translate(0,0)"/>
<path d="" fill="#866B47" transform="translate(0,0)"/>
<path d="" fill="#806340" transform="translate(0,0)"/>
<path d="" fill="#846B46" transform="translate(0,0)"/>
<path d="" fill="#7D6440" transform="translate(0,0)"/>
<path d="" fill="#816844" transform="translate(0,0)"/>
<path d="" fill="#765D3B" transform="translate(0,0)"/>
<path d="" fill="#7F6240" transform="translate(0,0)"/>
<path d="" fill="#846744" transform="translate(0,0)"/>
<path d="" fill="#7C643E" transform="translate(0,0)"/>
<path d="" fill="#7E6440" transform="translate(0,0)"/>
<path d="" fill="#80663F" transform="translate(0,0)"/>
<path d="" fill="#795F3D" transform="translate(0,0)"/>
<path d="" fill="#7B613F" transform="translate(0,0)"/>
<path d="" fill="#7D633F" transform="translate(0,0)"/>
<path d="" fill="#7C603E" transform="translate(0,0)"/>
<path d="" fill="#7B623D" transform="translate(0,0)"/>
<path d="" fill="#7B603B" transform="translate(0,0)"/>
<path d="" fill="#7F6441" transform="translate(0,0)"/>
<path d="" fill="#7D613F" transform="translate(0,0)"/>
<path d="" fill="#7A5F3D" transform="translate(0,0)"/>
<path d="" fill="#765F3C" transform="translate(0,0)"/>
<path d="" fill="#7C623E" transform="translate(0,0)"/>
<path d="" fill="#7D603E" transform="translate(0,0)"/>
<path d="" fill="#7B5F3E" transform="translate(0,0)"/>
<path d="" fill="#7E6342" transform="translate(0,0)"/>
<path d="" fill="#7C613E" transform="translate(0,0)"/>
<path d="" fill="#836943" transform="translate(0,0)"/>
<path d="" fill="#806842" transform="translate(0,0)"/>
<path d="" fill="#7B603E" transform="translate(0,0)"/>
<path d="" fill="#806342" transform="translate(0,0)"/>
<path d="" fill="#7D633F" transform="translate(0,0)"/>
<path d="" fill="#7D6440" transform="translate(0,0)"/>
<path d="" fill="#826742" transform="translate(0,0)"/>
<path d="" fill="#795E3C" transform="translate(0,0)"/>
<path d="" fill="#030200" transform="translate(0,0)"/>
<path d="" fill="#7D623F" transform="translate(0,0)"/>
<path d="" fill="#7E6440" transform="translate(0,0)"/>
<path d="" fill="#7E603E" transform="translate(0,0)"/>
<path d="" fill="#816643" transform="translate(0,0)"/>
<path d="" fill="#7E623E" transform="translate(0,0)"/>
<path d="" fill="#7F6440" transform="translate(0,0)"/>
<path d="" fill="#7D623D" transform="translate(0,0)"/>
<path d="" fill="#826743" transform="translate(0,0)"/>
<path d="" fill="#846743" transform="translate(0,0)"/>
<path d="" fill="#7F623F" transform="translate(0,0)"/>
<path d="" fill="#7F623F" transform="translate(0,0)"/>
<path d="" fill="#7E6440" transform="translate(0,0)"/>
<path d="" fill="#836643" transform="translate(0,0)"/>
<path d="" fill="#816641" transform="translate(0,0)"/>
<path d="" fill="#826943" transform="translate(0,0)"/>
<path d="" fill="#826641" transform="translate(0,0)"/>
<path d="" fill="#816841" transform="translate(0,0)"/>
<path d="" fill="#7D6542" transform="translate(0,0)"/>
<path d="" fill="#7D603E" transform="translate(0,0)"/>
<path d="" fill="#7E6342" transform="translate(0,0)"/>
<path d="" fill="#816746" transform="translate(0,0)"/>
<path d="" fill="#826440" transform="translate(0,0)"/>
<path d="" fill="#7D623E" transform="translate(0,0)"/>
<path d="" fill="#7D643E" transform="translate(0,0)"/>
<path d="" fill="#7D6140" transform="translate(0,0)"/>
<path d="" fill="#524025" transform="translate(0,0)"/>
<path d="" fill="#846844" transform="translate(0,0)"/>
<path d="" fill="#806646" transform="translate(0,0)"/>
<path d="" fill="#7E613D" transform="translate(0,0)"/>
<path d="" fill="#7D623D" transform="translate(0,0)"/>
<path d="" fill="#7D633F" transform="translate(0,0)"/>
<path d="" fill="#866844" transform="translate(0,0)"/>
<path d="" fill="#856941" transform="translate(0,0)"/>
<path d="" fill="#7E633F" transform="translate(0,0)"/>
<path d="" fill="#856A43" transform="translate(0,0)"/>
<path d="" fill="#846945" transform="translate(0,0)"/>
<path d="" fill="#816542" transform="translate(0,0)"/>
<path d="" fill="#856943" transform="translate(0,0)"/>
<path d="" fill="#876947" transform="translate(0,0)"/>
<path d="" fill="#876C47" transform="translate(0,0)"/>
<path d="" fill="#846A43" transform="translate(0,0)"/>
<path d="" fill="#866A45" transform="translate(0,0)"/>
<path d="" fill="#816641" transform="translate(0,0)"/>
<path d="" fill="#836544" transform="translate(0,0)"/>
<path d="" fill="#836643" transform="translate(0,0)"/>
<path d="" fill="#866B47" transform="translate(0,0)"/>
<path d="" fill="#886A44" transform="translate(0,0)"/>
<path d="" fill="#896A46" transform="translate(0,0)"/>
<path d="" fill="#886A46" transform="translate(0,0)"/>
<path d="" fill="#846B45" transform="translate(0,0)"/>
<path d="" fill="#816743" transform="translate(0,0)"/>
<path d="" fill="#846B48" transform="translate(0,0)"/>
<path d="" fill="#886D49" transform="translate(0,0)"/>
<path d="" fill="#8A704B" transform="translate(0,0)"/>
<path d="" fill="#8A6B47" transform="translate(0,0)"/>
<path d="" fill="#8A6D46" transform="translate(0,0)"/>
<path d="" fill="#896F46" transform="translate(0,0)"/>
<path d="" fill="#8B6E46" transform="translate(0,0)"/>
<path d="" fill="#896D47" transform="translate(0,0)"/>
<path d="" fill="#876B47" transform="translate(0,0)"/>
<path d="" fill="#886E47" transform="translate(0,0)"/>
<path d="" fill="#8F724A" transform="translate(0,0)"/>
<path d="" fill="#92714B" transform="translate(0,0)"/>
<path d="" fill="#91734C" transform="translate(0,0)"/>
<path d="" fill="#91724A" transform="translate(0,0)"/>
<path d="" fill="#8F724A" transform="translate(0,0)"/>
<path d="" fill="#90734B" transform="translate(0,0)"/>
<path d="" fill="#90734B" transform="translate(0,0)"/>
<path d="" fill="#92764D" transform="translate(0,0)"/>
<path d="" fill="#8E7149" transform="translate(0,0)"/>
<path d="" fill="#91744D" transform="translate(0,0)"/>
<path d="" fill="#8B7049" transform="translate(0,0)"/>
<path d="" fill="#8F7349" transform="translate(0,0)"/>
<path d="" fill="#8E7148" transform="translate(0,0)"/>
<path d="" fill="#92744D" transform="translate(0,0)"/>
<path d="" fill="#8E714A" transform="translate(0,0)"/>
<path d="" fill="#94774C" transform="translate(0,0)"/>
<path d="" fill="#93744D" transform="translate(0,0)"/>
<path d="" fill="#92744C" transform="translate(0,0)"/>
<path d="" fill="#91754D" transform="translate(0,0)"/>
<path d="" fill="#8D714A" transform="translate(0,0)"/>
<path d="" fill="#93764D" transform="translate(0,0)"/>
<path d="" fill="#92754D" transform="translate(0,0)"/>
<path d="" fill="#91734C" transform="translate(0,0)"/>
<path d="" fill="#93764E" transform="translate(0,0)"/>
<path d="" fill="#91754B" transform="translate(0,0)"/>
<path d="" fill="#987950" transform="translate(0,0)"/>
</svg>
