<?xml version="1.0" encoding="UTF-8"?>
<!-- Generator: visioncortex VTracer 0.6.12 -->
<svg version="1.1" xmlns="http://www.w3.org/2000/svg" width="1024" height="1024">
<path d="M0 0 C1.95 -0.003 3.901 -0.007 5.851 -0.01 C9.928 -0.016 14.006 -0.018 18.083 -0.017 C23.246 -0.017 28.409 -0.031 33.572 -0.048 C37.601 -0.059 41.629 -0.061 45.657 -0.061 C47.557 -0.062 49.458 -0.066 51.358 -0.074 C64.646 -0.124 77.676 0.675 90.879 2.168 C91.76 2.267 92.64 2.365 93.547 2.467 C96.702 2.822 99.856 3.177 103.008 3.557 C106.989 4.022 110.871 4.256 114.879 4.168 C114.549 4.828 114.219 5.488 113.879 6.168 C114.471 6.308 115.063 6.448 115.673 6.592 C129.269 9.851 142.128 13.835 154.954 19.415 C156.879 20.168 156.879 20.168 158.876 20.639 C161.12 21.232 162.862 22.133 164.883 23.27 C165.623 23.677 166.364 24.084 167.127 24.504 C168.676 25.367 170.223 26.234 171.768 27.105 C172.507 27.51 173.246 27.915 174.008 28.332 C174.679 28.708 175.35 29.084 176.041 29.471 C177.879 30.168 177.879 30.168 180.879 29.168 C180.879 30.158 180.879 31.148 180.879 32.168 C182.574 33.422 182.574 33.422 185.004 34.73 C190.372 37.768 195.285 41.249 200.231 44.916 C204.672 48.168 204.672 48.168 206.879 48.168 C208.22 49.829 209.552 51.496 210.879 53.168 C212.489 54.544 214.138 55.876 215.816 57.168 C221.157 61.422 225.918 66.074 230.638 71.002 C232.017 72.425 233.444 73.801 234.879 75.168 C235.539 75.168 236.199 75.168 236.879 75.168 C237.159 74.369 237.438 73.57 237.727 72.746 C243.857 55.952 252.17 42.337 268.344 33.879 C274.82 30.883 280.268 30.029 287.441 30.043 C288.742 30.04 290.043 30.038 291.383 30.035 C294.121 30.139 296.295 30.34 298.879 31.168 C299.209 30.178 299.539 29.188 299.879 28.168 C300.209 28.828 300.539 29.488 300.879 30.168 C300.549 30.828 300.219 31.488 299.879 32.168 C300.152 32.23 300.152 32.23 301.531 32.543 C307.641 34.214 311.391 36.957 315.934 41.328 C317.879 43.168 317.879 43.168 320.879 45.168 C320.879 45.828 320.879 46.488 320.879 47.168 C321.931 49.069 322.996 50.964 324.066 52.855 C330.705 65.363 332.686 80.212 333.879 94.168 C337.509 94.168 341.139 94.168 344.879 94.168 C344.879 93.508 344.879 92.848 344.879 92.168 C345.869 92.168 346.859 92.168 347.879 92.168 C347.879 92.828 347.879 93.488 347.879 94.168 C348.242 94.156 348.242 94.156 350.082 94.098 C367.126 93.792 367.126 93.792 373.879 97.168 C374.971 97.696 376.063 98.225 377.188 98.77 C406.958 113.287 425.94 134.458 437.641 165.539 C439.735 171.678 441.499 177.831 442.879 184.168 C443.03 184.852 443.181 185.537 443.336 186.242 C450.132 218.439 444.281 248.53 433.543 278.953 C432.879 281.168 432.879 281.168 432.879 284.168 C432.219 284.168 431.559 284.168 430.879 284.168 C430.769 284.716 430.66 285.264 430.547 285.828 C430.388 286.621 430.23 287.414 430.066 288.23 C429.887 289.137 429.708 290.043 429.523 290.977 C429.057 293.284 428.573 295.589 428.078 297.891 C423.986 317.267 423.986 317.267 428.879 326.168 C436.376 334.938 445.004 338.244 456.18 339.676 C459.703 340.318 462.011 341.362 464.629 343.793 C466.425 347.205 466.322 350.424 465.879 354.168 C465.001 356.96 463.756 359.466 462.379 362.043 C462.197 362.391 462.197 362.391 461.279 364.15 C453.635 378.377 442.13 388.466 426.879 394.168 C424.208 394.641 421.584 394.915 418.879 395.168 C418.793 396.221 418.706 397.274 418.617 398.359 C416.78 418.136 410.641 434.261 395.879 448.168 C380.022 460.496 362.418 463.532 342.879 462.168 C339.161 461.675 335.555 460.856 331.922 459.922 C328.591 459.097 325.281 458.608 321.879 458.168 C321.879 457.508 321.879 456.848 321.879 456.168 C319.867 454.871 319.867 454.871 317.191 453.418 C312.655 450.767 309.673 448.638 306.879 444.168 C306.129 441.168 306.129 441.168 306.879 438.168 C310.726 433.463 316.317 430.576 321.547 427.66 C325.371 425.213 328.246 422.439 329.879 418.168 C330.262 416.177 330.605 414.177 330.879 412.168 C330.219 412.168 329.559 412.168 328.879 412.168 C328.879 411.508 328.879 410.848 328.879 410.168 C328.348 409.953 327.817 409.737 327.27 409.516 C323.979 407.661 321.368 405.172 318.629 402.605 C318.056 402.074 317.482 401.543 316.891 400.995 C312.769 397.128 308.975 393.071 305.367 388.715 C304.876 388.204 304.385 387.694 303.879 387.168 C303.219 387.168 302.559 387.168 301.879 387.168 C301.833 386.896 301.833 386.896 301.602 385.52 C300.664 382.468 299.086 380.195 297.316 377.543 C293.879 372.383 293.879 372.383 293.879 370.168 C293.116 370.684 292.353 371.199 291.566 371.73 C291.29 371.912 291.29 371.912 289.891 372.832 C288.422 373.807 286.968 374.805 285.523 375.816 C276.769 381.739 267.384 385.674 256.879 387.168 C256.879 387.498 256.879 387.828 256.879 388.168 C255.213 388.211 253.545 388.209 251.879 388.168 C251.549 387.838 251.219 387.508 250.879 387.168 C249.36 387.096 247.837 387.084 246.316 387.105 C245.903 387.11 245.903 387.11 243.812 387.133 C243.174 387.144 242.536 387.156 241.879 387.168 C241.549 388.818 241.219 390.468 240.879 392.168 C240.219 392.168 239.559 392.168 238.879 392.168 C238.615 392.874 238.35 393.581 238.078 394.309 C232.601 407.367 223.398 417.912 213.879 428.168 C213.339 428.774 212.799 429.38 212.242 430.004 C202.994 439.928 190.644 446.699 178.879 453.168 C178.277 453.524 177.675 453.88 177.054 454.247 C173.989 456.059 171.325 457.363 167.879 458.168 C166.555 458.632 165.239 459.118 163.93 459.621 C163.171 459.908 162.413 460.196 161.632 460.492 C160.827 460.798 160.021 461.103 159.191 461.418 C150.204 464.788 141.124 467.599 131.879 470.168 C133.42 473.559 134.39 474.75 137.879 476.168 C140.764 477.611 142.604 479.886 144.879 482.168 C146.905 483.942 148.939 485.69 151.004 487.418 C151.574 487.899 152.144 488.38 152.731 488.876 C156.213 491.806 159.75 494.654 163.316 497.48 C168.674 501.818 173.48 506.629 178.285 511.56 C178.853 512.142 179.422 512.724 180.008 513.324 C180.514 513.848 181.02 514.372 181.541 514.912 C182.879 516.168 182.879 516.168 184.879 517.168 C184.879 517.828 184.879 518.488 184.879 519.168 C185.454 519.419 186.029 519.669 186.622 519.928 C189.183 521.335 190.919 522.95 192.988 525.012 C193.742 525.763 194.496 526.515 195.273 527.289 C196.051 528.074 196.828 528.859 197.629 529.668 C198.422 530.453 199.214 531.238 200.031 532.047 C200.406 532.423 200.406 532.423 202.301 534.324 C202.988 535.013 203.674 535.702 204.382 536.412 C205.879 538.168 205.879 538.168 205.879 540.168 C206.468 540.43 207.057 540.691 207.664 540.961 C209.997 542.232 211.482 543.57 213.316 545.48 C213.872 546.054 214.428 546.628 215 547.219 C215.31 547.54 215.31 547.54 216.879 549.168 C217.661 549.948 218.444 550.728 219.25 551.531 C221.057 553.344 222.841 555.18 224.605 557.035 C233.096 565.912 241.649 571.897 253.004 576.668 C263.018 580.887 270.985 586.099 275.879 596.168 C279.384 605.67 279.989 614.058 275.754 623.355 C270.022 633.744 262.15 637.489 251.316 641.48 C245.761 642.591 240.212 642.868 234.754 641.23 C231.153 641.152 230.609 641.983 228.004 644.355 C227.33 645.001 226.656 645.647 225.961 646.312 C219.863 651.747 212.965 653.401 204.938 653.34 C201.799 653.078 198.891 652.054 195.879 651.168 C194.889 651.498 193.899 651.828 192.879 652.168 C192.848 651.879 192.848 651.879 192.691 650.418 C191.879 648.168 191.879 648.168 189.691 646.543 C185.154 642.711 182.516 637.442 179.879 632.168 C179.879 630.668 179.879 629.168 179.879 627.668 C179.237 620.598 174.796 616.885 169.879 612.168 C168.356 610.67 166.835 609.17 165.316 607.668 C164.655 607.039 163.994 606.41 163.312 605.762 C161.879 604.168 161.879 604.168 161.879 602.168 C161.301 601.941 160.724 601.714 160.129 601.48 C157.3 599.83 155.896 597.735 153.879 595.168 C150.979 592.558 148.786 590.747 144.879 590.168 C144.771 589.58 144.662 588.992 144.551 588.387 C142.858 582.797 137.425 578.511 132.879 575.168 C134.491 580.748 136.229 586.272 138.105 591.77 C138.497 592.919 138.889 594.069 139.293 595.254 C140.103 597.623 140.919 599.99 141.738 602.355 C143.767 608.335 145.427 613.859 145.879 620.168 C146.869 620.168 147.859 620.168 148.879 620.168 C148.668 620.798 148.456 621.429 148.238 622.078 C147.718 626.553 148.97 630.294 150.129 634.605 C160.441 675.315 158.647 717.457 146.566 757.543 C144.13 765.651 142.032 773.039 145.004 781.293 C147.487 783.776 149.438 783.939 152.879 784.168 C152.879 782.848 152.879 781.528 152.879 780.168 C153.539 780.168 154.199 780.168 154.879 780.168 C155.026 779.585 155.173 779.003 155.324 778.402 C157.072 772.015 159.619 766.457 162.77 760.637 C162.953 760.229 162.953 760.229 163.879 758.168 C163.549 757.508 163.219 756.848 162.879 756.168 C163.869 756.168 164.859 756.168 165.879 756.168 C166.134 755.441 166.389 754.714 166.652 753.965 C167.951 751.004 169.457 748.913 171.504 746.418 C172.21 745.556 172.917 744.693 173.645 743.805 C176.44 740.506 179.303 737.274 182.215 734.078 C183.879 732.168 183.879 732.168 185.879 729.168 C186.539 729.168 187.199 729.168 187.879 729.168 C189.184 728.213 190.448 727.202 191.691 726.168 C209.101 712.477 228.2 705.674 249.879 702.168 C249.549 701.508 249.219 700.848 248.879 700.168 C253.4 700.119 257.92 700.082 262.441 700.058 C263.979 700.048 265.518 700.034 267.056 700.017 C269.265 699.993 271.474 699.981 273.684 699.973 C274.373 699.962 275.063 699.952 275.773 699.941 C277.477 699.941 279.18 700.046 280.879 700.168 C281.539 700.828 282.199 701.488 282.879 702.168 C286.106 702.969 289.351 703.573 292.617 704.191 C296.289 705.291 298.25 706.381 300.879 709.168 C302.455 713.908 301.621 716.816 299.629 721.293 C299.191 722.306 298.752 723.319 298.301 724.363 C296.879 727.168 296.879 727.168 295.348 729.207 C289.803 736.61 287.883 747.407 285.379 756.168 C277.592 783.317 265.838 804.411 240.879 819.168 C241.642 819.312 242.405 819.457 243.191 819.605 C245.879 820.168 245.879 820.168 248.879 821.168 C248.219 821.828 247.559 822.488 246.879 823.168 C247.413 823.497 247.946 823.825 248.496 824.164 C261.907 832.726 271.713 843.393 277.879 858.168 C277.879 858.828 277.879 859.488 277.879 860.168 C278.539 860.498 279.199 860.828 279.879 861.168 C280.588 863.158 280.588 863.158 281.25 865.816 C281.506 866.814 281.763 867.811 282.027 868.839 C282.308 869.937 282.589 871.036 282.879 872.168 C283.531 874.537 284.189 876.904 284.852 879.27 C285.194 880.502 285.536 881.734 285.889 883.004 C286.593 885.538 287.299 888.072 288.006 890.605 C293.686 911.093 293.686 911.093 292.879 916.168 C289.489 920.687 286.302 921.963 280.879 923.168 C279.889 923.498 278.899 923.828 277.879 924.168 C275.293 924.253 272.734 924.284 270.148 924.266 C269.398 924.264 268.648 924.263 267.874 924.261 C265.48 924.256 263.086 924.243 260.691 924.23 C259.067 924.225 257.443 924.221 255.818 924.217 C251.839 924.206 247.859 924.189 243.879 924.168 C243.879 923.838 243.879 923.508 243.879 923.168 C237.939 921.848 231.999 920.528 225.879 919.168 C225.549 919.828 225.219 920.488 224.879 921.168 C224.879 920.178 224.879 919.188 224.879 918.168 C223.992 918.106 223.105 918.044 222.191 917.98 C200.52 914.797 182.486 899.369 167.879 884.168 C167.147 883.473 166.415 882.778 165.66 882.062 C163.843 880.129 162.966 878.57 161.879 876.168 C160.729 874.075 159.561 871.992 158.379 869.918 C157.77 868.84 157.162 867.763 156.535 866.652 C155.989 865.832 155.442 865.013 154.879 864.168 C154.219 864.168 153.559 864.168 152.879 864.168 C152.827 863.652 152.827 863.652 152.566 861.043 C151.881 857.181 150.677 854.614 148.879 851.168 C148.511 849.509 148.172 847.842 147.879 846.168 C147.363 846.354 146.847 846.54 146.316 846.731 C132.368 851.703 118.446 855.498 103.879 858.168 C103.175 858.301 102.471 858.434 101.745 858.57 C91.327 860.441 80.802 860.342 70.254 860.355 C69.557 860.357 68.86 860.358 68.141 860.359 C59.344 860.357 50.644 860.027 41.877 859.282 C38.879 859.168 38.879 859.168 35.879 860.168 C35.879 859.178 35.879 858.188 35.879 857.168 C35.29 857.131 34.701 857.095 34.094 857.057 C27.264 856.517 21.004 855.021 14.441 853.105 C12.506 852.549 10.57 851.995 8.633 851.445 C7.79 851.2 6.948 850.955 6.08 850.703 C3.879 850.168 3.879 850.168 0.879 850.168 C0.879 849.508 0.879 848.848 0.879 848.168 C-1.761 848.168 -4.401 848.168 -7.121 848.168 C-7.121 847.178 -7.121 846.188 -7.121 845.168 C-8.379 844.817 -9.637 844.467 -10.934 844.105 C-11.641 843.908 -12.349 843.711 -13.078 843.508 C-15.121 843.168 -15.121 843.168 -18.121 844.168 C-18.318 843.585 -18.516 843.003 -18.719 842.402 C-20.67 839.294 -23.395 838.066 -26.559 836.418 C-32.436 833.231 -37.705 829.719 -43.012 825.637 C-45.121 824.168 -45.121 824.168 -47.121 824.168 C-48.849 822.541 -50.482 820.881 -52.121 819.168 C-53.452 817.832 -54.785 816.499 -56.121 815.168 C-56.812 814.476 -57.503 813.784 -58.215 813.07 C-59.674 811.614 -61.145 810.17 -62.621 808.73 C-65.647 805.629 -68.446 802.358 -71.254 799.059 C-73.121 797.168 -73.121 797.168 -76.121 796.168 C-76.121 795.508 -76.121 794.848 -76.121 794.168 C-76.781 794.168 -77.441 794.168 -78.121 794.168 C-78.265 793.621 -78.265 793.621 -78.996 790.855 C-80.121 787.168 -80.121 787.168 -82.121 784.168 C-82.781 784.828 -83.441 785.488 -84.121 786.168 C-85.111 785.838 -86.101 785.508 -87.121 785.168 C-87.121 783.518 -87.121 781.868 -87.121 780.168 C-86.461 780.498 -85.801 780.828 -85.121 781.168 C-85.821 778.021 -86.882 775.142 -88.121 772.168 C-89.111 772.168 -90.101 772.168 -91.121 772.168 C-93.309 770.418 -93.309 770.418 -95.121 768.168 C-95.121 766.848 -95.121 765.528 -95.121 764.168 C-94.461 763.838 -93.801 763.508 -93.121 763.168 C-93.412 762.569 -93.704 761.969 -94.004 761.352 C-97.261 754.152 -99.434 746.865 -101.434 739.23 C-101.7 738.224 -101.966 737.217 -102.241 736.179 C-103.38 731.716 -104.272 727.8 -104.121 723.168 C-104.781 722.838 -105.441 722.508 -106.121 722.168 C-106.408 719.662 -106.588 717.244 -106.684 714.73 C-107.003 707.403 -107.003 707.403 -108.121 705.168 C-108.242 700.626 -108.027 696.083 -107.871 691.543 C-107.86 691.208 -107.86 691.208 -107.805 689.513 C-107.399 677.48 -106.187 665.658 -104.464 653.74 C-104.112 651.1 -103.847 648.461 -103.602 645.809 C-103.214 641.723 -102.422 637.932 -101.328 633.98 C-101.26 633.382 -101.191 632.784 -101.121 632.168 C-101.781 631.508 -102.441 630.848 -103.121 630.168 C-102.461 629.838 -101.801 629.508 -101.121 629.168 C-100.461 629.498 -99.801 629.828 -99.121 630.168 C-99.016 629.519 -98.911 628.87 -98.802 628.201 C-97.552 620.881 -95.778 613.807 -93.746 606.668 C-93.455 605.617 -93.163 604.567 -92.863 603.484 C-91.141 597.373 -89.191 591.437 -86.869 585.525 C-86.121 583.168 -86.121 583.168 -86.121 579.168 C-85.461 579.168 -84.801 579.168 -84.121 579.168 C-84.121 577.848 -84.121 576.528 -84.121 575.168 C-84.913 575.96 -85.705 576.751 -86.52 577.567 C-93.705 584.752 -100.89 591.937 -108.075 599.122 C-108.332 599.379 -108.332 599.379 -109.632 600.683 C-111.053 602.1 -112.49 603.502 -113.927 604.904 C-116.121 607.168 -116.121 607.168 -117.621 609.793 C-119.426 612.651 -121.239 613.452 -124.121 615.168 C-128.55 619.057 -129.722 622.844 -131.059 628.48 C-133.109 637.112 -136.478 644.2 -144.121 649.168 C-151.353 653.236 -158.222 654.33 -166.309 652.105 C-169.88 651.227 -170.848 651.13 -174.121 652.168 C-174.207 651.587 -174.294 651.005 -174.383 650.406 C-175.327 647.545 -176.685 646.337 -178.934 644.355 C-179.621 643.73 -180.308 643.105 -181.016 642.461 C-183.121 641.168 -183.121 641.168 -184.93 641.465 C-185.291 641.581 -185.291 641.581 -187.121 642.168 C-189.537 642.236 -191.954 642.253 -194.371 642.23 C-195.634 642.221 -196.898 642.212 -198.199 642.203 C-199.163 642.192 -200.128 642.18 -201.121 642.168 C-201.451 642.828 -201.781 643.488 -202.121 644.168 C-203.441 643.508 -204.761 642.848 -206.121 642.168 C-206.451 642.828 -206.781 643.488 -207.121 644.168 C-207.162 643.549 -207.204 642.93 -207.246 642.293 C-207.535 641.592 -207.824 640.89 -208.121 640.168 C-208.987 639.879 -209.854 639.59 -210.746 639.293 C-215.188 637.812 -217.811 635.403 -221.121 632.168 C-221.673 631.629 -222.225 631.09 -222.793 630.535 C-228.242 624.736 -230.229 618.63 -230.496 610.73 C-230.145 600.261 -226.665 592.866 -219.434 585.434 C-213.643 580.344 -206.737 577.56 -199.656 574.715 C-188.535 570.074 -180.392 561.726 -172.05 553.248 C-170.458 551.629 -168.858 550.017 -167.258 548.406 C-163.873 544.999 -160.497 541.584 -157.121 538.168 C-153.179 534.178 -149.233 530.192 -145.278 526.213 C-143.702 524.624 -142.132 523.029 -140.562 521.434 C-139.604 520.468 -138.646 519.504 -137.688 518.539 C-137.27 518.116 -137.27 518.116 -135.155 515.974 C-133.121 514.168 -133.121 514.168 -131.121 514.168 C-130.791 513.178 -130.461 512.188 -130.121 511.168 C-128.66 509.695 -128.66 509.695 -126.746 508.105 C-123.361 505.239 -120.069 502.301 -116.809 499.293 C-108.456 491.688 -99.689 484.742 -90.555 478.113 C-88.121 476.168 -88.121 476.168 -86.121 473.168 C-85.791 473.498 -85.461 473.828 -85.121 474.168 C-84.461 473.178 -83.801 472.188 -83.121 471.168 C-88.572 468.929 -93.253 467.692 -99.121 467.168 C-99.121 466.508 -99.121 465.848 -99.121 465.168 C-99.709 465.065 -99.709 465.065 -102.684 464.543 C-108.063 463.374 -113.007 461.323 -118.067 459.201 C-122.938 457.168 -122.938 457.168 -125.121 457.168 C-125.781 458.158 -126.441 459.148 -127.121 460.168 C-127.121 458.188 -127.121 456.208 -127.121 454.168 C-127.976 453.922 -128.83 453.676 -129.711 453.422 C-134.602 451.623 -138.65 448.779 -143 445.945 C-146.121 444.168 -146.121 444.168 -148.898 443.672 C-149.632 443.506 -150.365 443.339 -151.121 443.168 C-152.109 441.375 -152.109 441.375 -153.121 439.168 C-154.795 437.666 -156.533 436.235 -158.309 434.855 C-170.525 425.047 -179.998 413.169 -187.121 399.168 C-188.111 399.828 -189.101 400.488 -190.121 401.168 C-190.451 400.508 -190.781 399.848 -191.121 399.168 C-190.77 398.549 -190.42 397.93 -190.059 397.293 C-189.749 396.592 -189.44 395.89 -189.121 395.168 C-189.996 393.105 -189.996 393.105 -191.121 391.168 C-191.121 390.178 -191.121 389.188 -191.121 388.168 C-192.255 388.168 -193.39 388.168 -194.559 388.168 C-213.749 388.168 -229.265 381.87 -244.121 370.168 C-244.704 371.172 -245.286 372.176 -245.887 373.211 C-254.488 387.693 -265.258 400.155 -278.891 410.211 C-281.121 412.168 -281.121 412.168 -281.371 415.418 C-278.311 424.599 -270.963 428.84 -262.914 433.406 C-260.121 435.168 -260.121 435.168 -258.121 438.168 C-257.377 442.258 -257.989 443.945 -260.121 447.543 C-269.07 457.086 -284.701 461.95 -297.332 462.406 C-307.081 462.599 -316.592 462.419 -326.121 460.168 C-326.121 459.508 -326.121 458.848 -326.121 458.168 C-327.379 457.817 -328.637 457.467 -329.934 457.105 C-343.893 452.409 -352.886 442.697 -360.457 430.512 C-360.732 430.125 -360.732 430.125 -362.121 428.168 C-362.781 428.168 -363.441 428.168 -364.121 428.168 C-364.233 426.932 -364.345 425.696 -364.461 424.422 C-365.113 418.555 -366.388 412.858 -367.684 407.105 C-367.918 406.049 -368.152 404.993 -368.393 403.904 C-368.965 401.325 -369.541 398.746 -370.121 396.168 C-370.955 395.937 -371.789 395.706 -372.648 395.469 C-383.097 392.441 -390.617 388.477 -399.035 381.684 C-401.584 379.832 -404.06 378.874 -407.121 378.168 C-406.461 377.178 -405.801 376.188 -405.121 375.168 C-405.58 374.551 -406.039 373.933 -406.512 373.297 C-412.11 365.57 -417.121 357.978 -417.121 348.168 C-415.657 345.08 -414.468 342.786 -411.265 341.316 C-409.022 340.664 -406.782 340.148 -404.496 339.668 C-393.471 336.975 -385.382 333.199 -379.023 323.492 C-374.564 312.006 -379.086 297.496 -382.487 286.319 C-383.476 282.962 -384.296 279.569 -385.121 276.168 C-385.781 276.168 -386.441 276.168 -387.121 276.168 C-387.224 275.157 -387.327 274.147 -387.434 273.105 C-388.121 269.168 -388.121 269.168 -389.621 265.855 C-391.48 261.286 -391.836 257.056 -392.121 252.168 C-393.111 252.168 -394.101 252.168 -395.121 252.168 C-394.956 251.611 -394.791 251.054 -394.621 250.48 C-394.081 247.981 -394.05 245.718 -394.121 243.168 C-395.111 242.838 -396.101 242.508 -397.121 242.168 C-396.791 241.838 -396.461 241.508 -396.121 241.168 C-396.216 238.998 -396.374 236.832 -396.559 234.668 C-397.44 223.055 -397.325 211.482 -396.746 199.855 C-396.715 199.144 -396.685 198.433 -396.653 197.7 C-396.436 193.97 -395.858 191.429 -394.121 188.168 C-393.608 186.158 -393.099 184.147 -392.626 182.128 C-385.737 153.02 -370.284 125.91 -345.246 108.832 C-344.545 108.283 -343.844 107.734 -343.121 107.168 C-343.121 106.508 -343.121 105.848 -343.121 105.168 C-342.429 105.065 -341.737 104.962 -341.023 104.855 C-336.492 103.782 -332.539 101.588 -328.375 99.543 C-325.232 98.215 -322.495 97.575 -319.121 97.168 C-318.956 96.673 -318.956 96.673 -318.121 94.168 C-318.121 94.828 -318.121 95.488 -318.121 96.168 C-313.171 95.178 -308.221 94.188 -303.121 93.168 C-303.121 92.838 -303.121 92.508 -303.121 92.168 C-299.491 92.168 -295.861 92.168 -292.121 92.168 C-292.121 92.498 -292.121 92.828 -292.121 93.168 C-289.481 93.498 -286.841 93.828 -284.121 94.168 C-283.472 90.981 -282.827 87.793 -282.184 84.605 C-282.001 83.71 -281.819 82.815 -281.631 81.893 C-280.644 76.996 -279.767 72.122 -279.121 67.168 C-278.461 67.168 -277.801 67.168 -277.121 67.168 C-276.915 65.91 -276.709 64.652 -276.496 63.355 C-274.148 53.006 -267.608 43.55 -260.121 36.168 C-257.477 34.93 -257.477 34.93 -255.121 34.168 C-254.42 33.797 -253.719 33.425 -252.996 33.043 C-251.121 32.168 -251.121 32.168 -248.121 32.168 C-247.791 31.508 -247.461 30.848 -247.121 30.168 C-245.059 29.543 -245.059 29.543 -243.121 29.168 C-243.121 28.838 -243.121 28.508 -243.121 28.168 C-237.601 27.974 -233.433 28.461 -228.121 30.168 C-227.492 30.302 -227.492 30.302 -224.309 30.98 C-215.782 33.124 -208.026 37.62 -202.121 44.168 C-202.121 44.828 -202.121 45.488 -202.121 46.168 C-201.461 46.168 -200.801 46.168 -200.121 46.168 C-198.593 48.179 -197.221 50.165 -195.871 52.293 C-195.473 52.914 -195.075 53.536 -194.664 54.176 C-190.704 60.536 -187.825 67.191 -185.121 74.168 C-181.501 72.125 -179.329 70.239 -176.762 66.973 C-173.853 63.773 -170.412 61.198 -167.035 58.512 C-164.891 56.787 -162.805 55.039 -160.73 53.234 C-157.19 50.185 -153.516 47.364 -149.746 44.605 C-149.095 44.127 -148.444 43.649 -147.773 43.156 C-143.592 40.127 -139.375 37.401 -134.758 35.07 C-133.121 34.168 -133.121 34.168 -131.121 32.168 C-128.825 30.906 -126.529 29.707 -124.184 28.543 C-123.486 28.195 -122.788 27.846 -122.069 27.488 C-115.686 24.352 -109.172 21.568 -102.594 18.871 C-98.34 17.125 -94.227 15.245 -90.121 13.168 C-84.635 11.339 -78.966 10.098 -73.352 8.721 C-71.25 8.2 -69.154 7.662 -67.059 7.121 C-45.011 1.542 -22.661 0.009 0 0 Z M-363.121 425.168 C-362.121 427.168 -362.121 427.168 -362.121 427.168 Z M-91.121 768.168 C-90.121 770.168 -90.121 770.168 -90.121 770.168 Z " fill="#402A16" transform="translate(487.12109375,59.83203125)"/>
<path d="M0 0 C0.66 0 1.32 0 2 0 C2.485 1.027 2.969 2.055 3.469 3.113 C12.887 22.731 24.719 37.452 45.188 45.875 C60.239 50.316 79.035 51.992 93.48 44.758 C96 44 96 44 98.43 44.828 C98.833 45.063 98.833 45.063 100.875 46.25 C112.714 53.026 129.012 53.05 142.176 50.277 C145.245 49.37 148.083 48.312 151 47 C151.436 46.825 151.436 46.825 153.641 45.938 C170.967 38.284 179.809 22.418 187.074 5.926 C188 4 188 4 190 1 C190.401 1.799 190.802 2.598 191.215 3.422 C195.437 11.578 200.18 18.853 206 26 C206.749 26.927 207.498 27.854 208.27 28.809 C225.347 48.774 251.948 61.097 278.034 63.25 C281.085 63.413 284.134 63.531 287.188 63.625 C288.235 63.664 289.282 63.702 290.361 63.742 C292.907 63.835 295.453 63.921 298 64 C298.489 66.081 298.966 68.165 299.438 70.25 C299.571 70.83 299.571 70.83 300.246 73.766 C302.464 85.206 302.156 96.907 302.13 108.508 C302.125 111.362 302.13 114.216 302.137 117.07 C302.14 126.105 302.016 135.057 301.239 144.063 C300.728 150.346 300.364 156.409 301.875 162.562 C305.144 166.312 309.251 166.984 314 168 C309.787 194.052 297.292 216.081 279 235 C278.644 235.369 278.644 235.369 276.844 237.234 C252.809 260.446 216.91 270.298 185 276 C182.76 276.421 180.52 276.842 178.281 277.265 C155.946 281.089 133.736 281.347 111.139 281.316 C107.524 281.311 103.91 281.318 100.295 281.336 C38.592 281.645 -31.887 277.286 -79 232.375 C-95.083 215.839 -109.242 191.489 -110 168 C-108.742 167.773 -107.484 167.546 -106.188 167.312 C-103.28 166.556 -102.172 166.172 -100 164 C-98.079 158.237 -98.837 152.44 -99.502 146.491 C-100.05 141.037 -100.161 135.634 -100.168 130.156 C-100.171 129.148 -100.175 128.139 -100.178 127.1 C-100.183 124.976 -100.185 122.851 -100.185 120.727 C-100.187 117.536 -100.206 114.346 -100.225 111.156 C-100.303 82.54 -100.303 82.54 -97 71 C-96.448 70.941 -95.895 70.881 -95.326 70.82 C-64.299 67.33 -38.475 53.411 -18 29.566 C-10.83 20.365 -4.858 10.605 0 0 Z " fill="#FDCC9A" transform="translate(410,244)"/>
<path d="M0 0 C7.416 0.963 14.533 0.35 21.915 -0.61 C77.479 -7.475 138.067 9.822 182.054 44.086 C196.127 55.247 210.549 67.852 220.929 82.648 C220.929 82.978 220.929 83.308 220.929 83.648 C220.106 83.674 219.284 83.7 218.437 83.727 C206.896 84.313 198.147 87.189 189.366 94.898 C181.163 104.154 179.196 113.288 179.776 125.559 C181.348 147.122 188.22 172.911 204.128 188.309 C209.565 192.851 215.529 195.415 222.745 194.965 C232.178 193.598 239.802 190.579 247.929 185.648 C248.858 185.092 249.788 184.535 250.745 183.961 C251.466 183.528 252.186 183.095 252.929 182.648 C264.197 204.27 261.168 233.214 257.929 256.648 C257.483 256.637 257.483 256.637 255.226 256.578 C254.055 256.56 252.885 256.542 251.679 256.523 C251.099 256.512 251.099 256.512 248.163 256.453 C245.04 256.642 243.431 256.824 240.929 258.648 C238.708 261.828 238.705 264.655 238.616 268.461 C237.729 283.118 235.198 307.046 223.929 317.648 C223.925 316.941 223.921 316.233 223.918 315.503 C223.427 228.702 223.427 228.702 215.929 219.648 C212.92 218.961 212.92 218.961 209.233 218.863 C208.573 218.837 207.913 218.811 207.233 218.784 C205.821 218.729 204.409 218.683 202.997 218.647 C199.333 218.545 195.675 218.352 192.015 218.156 C191.301 218.119 190.587 218.081 189.851 218.042 C164.76 216.611 141.428 204.096 124.304 185.961 C112.526 172.314 104.013 155.79 99.718 138.309 C98.929 135.648 98.929 135.648 96.929 133.648 C94.304 133.523 94.304 133.523 91.929 133.648 C89.459 137.578 88.62 140.984 87.991 145.586 C85.274 164.757 78.442 184.221 63.214 197.043 C51.244 205.453 38.051 205.844 23.929 204.648 C14.492 202.955 5.306 199.007 -1.071 191.648 C-1.071 190.988 -1.071 190.328 -1.071 189.648 C-7.224 189.551 -7.224 189.551 -9.071 189.648 C-10.071 190.648 -10.071 190.648 -10.134 193.117 C-10.123 193.617 -10.123 193.617 -10.071 196.148 C-10.033 197.981 -10.025 199.816 -10.071 201.648 C-12.56 204.137 -19.171 202.883 -22.509 202.898 C-23.037 202.909 -23.037 202.909 -25.71 202.961 C-39.341 203.028 -51.222 198.462 -61.259 189.023 C-74.762 174.402 -83.178 156.06 -86.642 136.582 C-87.071 134.648 -87.071 134.648 -88.071 133.648 C-89.737 133.608 -91.405 133.606 -93.071 133.648 C-93.251 134.192 -93.43 134.736 -93.615 135.296 C-104.788 168.989 -120.713 198.66 -153.599 215.449 C-163.785 220.067 -177.705 225.723 -189.071 224.648 C-191.321 222.711 -191.321 222.711 -193.071 220.648 C-196.181 220.52 -196.181 220.52 -199.071 220.648 C-201.492 228.477 -202.682 236.349 -203.696 244.461 C-203.819 245.432 -203.942 246.402 -204.069 247.402 C-206.011 263.599 -206.332 279.795 -206.634 296.086 C-206.677 298.282 -206.721 300.478 -206.765 302.674 C-206.871 307.999 -206.972 313.323 -207.071 318.648 C-219.289 306.431 -220.131 279.373 -220.532 263.574 C-221.071 260.648 -221.071 260.648 -222.657 258.27 C-225.989 256.032 -228.348 256.251 -232.321 256.398 C-233.585 256.435 -234.848 256.471 -236.149 256.508 C-237.114 256.554 -238.078 256.601 -239.071 256.648 C-242.541 205.656 -242.541 205.656 -236.071 186.648 C-235.697 185.518 -235.324 184.387 -234.938 183.223 C-234.652 182.373 -234.366 181.524 -234.071 180.648 C-230.127 181.268 -227.543 183.245 -224.321 185.523 C-215.017 191.79 -207.465 193.887 -196.071 193.648 C-191.396 192.713 -187.767 190.634 -184.071 187.648 C-183.411 187.648 -182.751 187.648 -182.071 187.648 C-181.797 187.046 -181.522 186.444 -181.239 185.824 C-180.071 183.648 -180.071 183.648 -177.384 180.836 C-163.294 164.552 -158.149 136.276 -158.759 115.387 C-159.541 106.032 -164.11 98.274 -170.919 91.926 C-179.765 84.768 -188.972 84.106 -200.071 83.648 C-167.247 37.566 -113.364 10.105 -58.579 0.672 C-39.269 -2.368 -19.373 -2.624 0 0 Z " fill="#FB816C" transform="translate(502.0712890625,76.3515625)"/>
<path d="M0 0 C27.789 6.532 54.895 17.715 80.12 31.013 C82.201 32.105 84.293 33.174 86.387 34.242 C93.598 37.956 100.418 41.614 106.727 46.785 C110.036 48.553 112.298 48.452 116 48 C118.297 46.709 120.18 45.458 122.25 43.875 C150.956 23.465 188.436 7.799 223 1 C225.217 9.799 226.762 18.476 227.688 27.5 C227.813 28.719 227.938 29.938 228.067 31.194 C231.034 61.982 226.316 90.935 217.125 120.375 C214.107 130.196 213.539 139.495 218 149 C221.44 154.147 225.934 159.138 232 161 C236.815 161.604 241.215 161.635 245.812 160 C251.876 154.456 255.08 148.063 257.812 140.438 C267.53 115.022 284.135 97.291 308.828 85.758 C320.107 80.805 332.025 77.878 344.359 77.867 C345.03 77.866 345.701 77.865 346.393 77.864 C347.798 77.864 349.203 77.865 350.608 77.87 C352.758 77.875 354.908 77.87 357.059 77.863 C358.43 77.864 359.801 77.865 361.172 77.867 C361.791 77.868 361.791 77.868 364.925 77.871 C368 78 368 78 371 79 C369.755 82.246 368.35 85.263 366.688 88.312 C362.469 96.689 360.121 105.859 357.668 114.879 C353.22 130.944 347.276 145.3 335 157 C334.389 157.619 333.778 158.237 333.148 158.875 C325.143 166.506 314.631 172.109 304 175 C302.824 175.392 301.649 175.784 300.438 176.188 C299.633 176.456 298.829 176.724 298 177 C297.631 183.519 297.631 183.519 299.271 185.657 C301.17 187.132 302.513 187.633 304.844 188.176 C305.217 188.268 305.217 188.268 307.105 188.735 C307.896 188.926 308.686 189.116 309.5 189.312 C326.539 193.787 339.061 203.063 348.012 218.344 C355.764 232.296 363.623 252.888 363 269 C329.874 269.724 298.856 266.142 273.5 242.688 C273.087 242.244 273.087 242.244 271 240 C270.322 239.304 269.644 238.608 268.945 237.891 C256.974 225.234 251.236 210.409 246.895 193.801 C246 191 246 191 244 189 C238.999 189.322 235.047 190.664 230.5 192.688 C223.88 195.494 217.145 197.457 210.188 199.25 C209.234 199.496 208.28 199.742 207.297 199.995 C194.605 203.187 182.345 205.119 169.242 205.238 C168.793 205.243 168.793 205.243 166.521 205.268 C140.371 205.495 116.78 204.03 92 195 C91.332 194.76 90.664 194.52 89.975 194.273 C68.762 186.562 50.98 174.842 35 159 C34.126 158.139 33.252 157.278 32.352 156.391 C5.149 128.072 -5.167 88.249 -5.312 50 C-5.316 49.264 -5.32 48.529 -5.323 47.771 C-5.355 31.537 -3.213 15.911 0 0 Z " fill="#50C1A5" transform="translate(400,699)"/>
<path d="M0 0 C0.33 1.815 0.33 1.815 2 11 C1.456 11.261 1.456 11.261 -1.297 12.582 C-16.203 19.956 -27.793 28.455 -34.375 44.312 C-36.693 57.99 -33.855 70.561 -26 82 C-14.908 96.864 0.555 110.468 19.48 113.797 C27.179 114.418 35.455 114.828 43 113 C43.88 122.838 44.132 132.668 44.177 142.541 C44.187 144.536 44.207 146.531 44.227 148.526 C44.239 160.911 44.239 160.911 42 166 C40.301 167.609 40.301 167.609 38.312 168.75 C30.082 174.376 26.056 183.5 24 193 C23.609 196.597 23.573 200.135 23.625 203.75 C23.63 204.734 23.635 205.719 23.64 206.733 C23.775 214.805 24.674 222.686 26.02 230.642 C28.052 243.049 24.104 252.322 17.25 262.633 C10.114 271.953 1.275 280.429 -7.625 288.062 C-14.705 294.155 -14.705 294.155 -15.5 299.125 C-14.136 309.694 -9.776 316.788 -2 324 C-0.05 325.465 1.921 326.721 4 328 C4 328.66 4 329.32 4 330 C2.273 330.65 0.543 331.295 -1.188 331.938 C-2.15 332.297 -3.113 332.657 -4.105 333.027 C-16.562 337.213 -32.106 336.391 -44 331 C-47.21 329.228 -50.107 327.246 -53 325 C-54.052 324.237 -55.104 323.474 -56.188 322.688 C-65.935 313.373 -70.671 299.794 -71.077 286.466 C-71.164 280.31 -71.111 274.156 -71 268 C-77.75 267.875 -77.75 267.875 -80 269 C-88.39 270.094 -96.508 266.01 -103.25 261.25 C-109.98 255.785 -114.825 250.041 -118 242 C-116.949 241.709 -115.899 241.417 -114.816 241.117 C-106.722 238.789 -99.555 236.51 -93 231 C-92.367 230.477 -91.734 229.953 -91.082 229.414 C-84.765 223.677 -80.322 215.633 -79.727 207.07 C-79.132 187.144 -84.872 169.509 -91.433 150.918 C-103.307 116.777 -101.207 80.704 -86 48.012 C-74.82 25.041 -58.223 7.891 -34 -1 C-23.05 -4.529 -10.594 -4.461 0 0 Z " fill="#FB816C" transform="translate(205,172)"/>
<path d="M0 0 C3.145 2.18 6.078 4.532 9 7 C9.592 7.447 10.183 7.895 10.793 8.355 C30.64 23.842 42.948 55.91 46 80 C46.298 85.211 46.343 90.408 46.312 95.625 C46.311 95.981 46.311 95.981 46.303 97.782 C46.174 117.674 41.551 134.183 35.059 152.928 C21.288 192.894 21.288 192.894 29 210 C30.755 213.222 32.736 216.116 35 219 C35.48 219.617 35.959 220.235 36.453 220.871 C43.182 228.5 54.127 233.223 64 235 C63.55 242.207 57.729 247.508 52.75 252.188 C45.041 258.825 37.115 262.321 27 262 C26.34 261.67 25.68 261.34 25 261 C23 260.96 21 260.957 19 261 C19.017 261.635 19.017 261.635 19.105 264.848 C19.468 283.538 17.7 301.101 4.312 315.5 C-5.48 324.562 -17.116 328.402 -30.25 328.312 C-31.079 328.309 -31.908 328.306 -32.762 328.302 C-41.617 328.146 -49.454 326.828 -57 322 C-56.66 321.732 -56.66 321.732 -54.938 320.375 C-54.453 319.983 -54.453 319.983 -52 318 C-51.434 317.564 -50.868 317.129 -50.285 316.68 C-42.091 310.117 -38.573 302.005 -36.312 291.938 C-37.903 285.143 -45.164 280.838 -50.375 276.688 C-62.764 266.677 -76.071 251.861 -80 236 C-80.275 231.552 -79.686 227.393 -79 223 C-78.611 220.364 -78.227 217.727 -77.846 215.09 C-77.581 213.287 -77.305 211.485 -77.018 209.686 C-74.573 193.826 -76.119 179.273 -85.516 165.832 C-87.881 162.913 -89.683 161.166 -93.067 159.39 C-96 157 -96 157 -96.697 153.479 C-96.703 152.073 -96.675 150.667 -96.621 149.262 C-96.615 148.504 -96.609 147.746 -96.603 146.965 C-96.576 144.538 -96.507 142.114 -96.438 139.688 C-96.416 138.098 -96.397 136.509 -96.381 134.92 C-96.252 125.255 -95.747 115.636 -95 106 C-94.089 106.161 -93.179 106.322 -92.24 106.487 C-75.305 109.167 -58.265 106.126 -44.238 96.008 C-41.775 94.056 -39.38 92.052 -37 90 C-36.019 89.23 -35.038 88.461 -34.027 87.668 C-30.764 84.946 -28.361 81.847 -25.938 78.375 C-25.722 78.071 -25.722 78.071 -24.633 76.53 C-16.866 65.266 -13.756 54.578 -15 41 C-15.848 37.325 -17.156 34.28 -19 31 C-19.212 30.617 -19.212 30.617 -20.285 28.676 C-27.701 16.509 -40.05 9.18 -53 4 C-52.34 0.04 -51.68 -3.92 -51 -8 C-33.775 -13.607 -15.198 -9.163 0 0 Z " fill="#FB806B" transform="translate(871,179)"/>
<path d="M0 0 C12.623 1.867 25.446 1.728 38.177 1.756 C38.632 1.757 38.632 1.757 40.931 1.764 C45.751 1.779 50.57 1.788 55.39 1.793 C59.302 1.797 63.214 1.811 67.126 1.834 C116.849 2.118 116.849 2.118 139.744 -2.203 C143.28 -2.492 144.438 -1.971 147.267 0.095 C148.07 0.669 148.874 1.242 149.701 1.833 C150.538 2.462 151.374 3.092 152.236 3.74 C152.675 4.059 152.675 4.059 154.894 5.672 C162.128 10.976 169.182 16.501 176.1 22.209 C177.663 23.492 179.242 24.755 180.822 26.017 C185.694 29.922 190.292 33.904 194.591 38.435 C196.402 40.223 198.244 41.848 200.18 43.494 C205.101 47.789 209.678 52.411 214.259 57.062 C215.818 58.643 217.382 60.221 218.947 61.797 C223.391 66.274 227.831 70.756 232.26 75.248 C234.986 78.012 237.719 80.768 240.457 83.519 C241.485 84.555 242.51 85.593 243.531 86.635 C253.844 97.141 264.377 106.267 278.174 111.865 C286.809 115.446 294.045 118.471 298.037 127.447 C299.492 131.83 299.57 135.355 297.924 139.693 C295.329 144.558 292.357 146.721 287.351 148.816 C282.653 150.139 278.054 149.573 273.236 149.24 C262.967 148.847 262.967 148.847 258.451 151.435 C256.325 153.704 254.532 156.02 252.736 158.552 C248.871 161.155 245.49 162.239 240.759 162.021 C236.757 161.094 234.21 158.744 231.736 155.552 C229.959 152.019 228.809 148.349 228.648 144.382 C228.031 135.534 221.533 130.467 215.474 124.75 C213.454 122.842 211.461 120.908 209.473 118.966 C204.535 114.15 199.557 109.374 194.57 104.607 C190.35 100.572 186.151 96.517 181.979 92.433 C180.025 90.535 178.043 88.67 176.059 86.803 C169.795 80.763 165.332 76.354 164.872 67.194 C164.397 57.988 158.383 49.969 151.927 43.834 C138.943 33.252 122.83 31.431 106.736 32.552 C102.547 33.142 98.73 34.172 94.736 35.552 C93.545 35.955 92.354 36.357 91.127 36.771 C79.449 40.954 69.091 47.243 60.736 56.552 C57.505 55.134 55.42 53.399 52.924 50.927 C37.443 36.967 16.599 31.63 -3.755 32.378 C-16.154 33.242 -28.283 38.915 -36.764 47.99 C-40.716 52.872 -43.96 57.318 -44.561 63.712 C-46.478 78.64 -57.641 87.279 -68.064 97.118 C-70.582 99.506 -73.07 101.926 -75.559 104.345 C-78.368 107.075 -81.181 109.8 -84.017 112.5 C-88.518 116.795 -92.806 121.14 -96.812 125.902 C-98.844 128.211 -101.178 130.121 -103.514 132.115 C-108.758 137.224 -109.764 142.045 -110.569 149.037 C-111.541 153.954 -113.678 157.231 -117.514 160.427 C-121.167 161.922 -124.411 162.216 -128.264 161.552 C-131.425 159.972 -133.637 158.339 -135.846 155.569 C-138.68 152.151 -140.801 149.847 -145.253 148.95 C-148.662 148.874 -151.988 149.001 -155.389 149.24 C-169.419 149.985 -169.419 149.985 -174.264 146.552 C-180.054 141.277 -180.054 141.277 -180.573 137.013 C-180.844 130.513 -180.451 126.446 -176.26 121.369 C-171.146 116.715 -165.842 113.724 -159.451 111.177 C-138.238 102.239 -122.952 83.352 -107.014 67.302 C-103.562 63.827 -100.109 60.354 -96.652 56.884 C-95.289 55.516 -93.93 54.144 -92.571 52.772 C-87.634 47.816 -82.582 43.095 -77.264 38.552 C-75.656 37.098 -74.052 35.64 -72.451 34.177 C-63.235 25.883 -53.518 18.175 -43.549 10.806 C-40.828 8.789 -38.297 6.704 -35.823 4.392 C-24.87 -5.205 -13.523 -2.248 0 0 Z " fill="#FCCE9D" transform="translate(452.26397705078125,536.4475250244141)"/>
<path d="M0 0 C0.66 0 1.32 0 2 0 C3.445 1.539 3.445 1.539 5.125 3.625 C15.909 16.18 30.987 20.884 47.116 22.168 C63.778 23.085 82.747 20.781 96 10 C96.66 10 97.32 10 98 10 C103.202 22.709 106.732 35.675 110 49 C105.089 50.649 100.171 52.268 95.234 53.84 C66.045 63.224 36.266 74.44 10.312 91.004 C6.636 93.3 4.324 94.549 0 94 C-2.864 92.474 -2.864 92.474 -5.98 90.398 C-12.5 86.192 -19.243 82.831 -26.312 79.625 C-27.54 79.063 -28.767 78.502 -29.994 77.94 C-54.728 66.668 -79.951 56.811 -106 49 C-105.402 42.201 -103.673 36.059 -101.625 29.562 C-101.321 28.577 -101.017 27.592 -100.703 26.576 C-98.878 20.691 -96.968 14.839 -95 9 C-92.345 10.243 -90.536 11.39 -88.25 13.312 C-84.475 16.078 -80.421 17.377 -76 18.75 C-75.324 18.961 -74.647 19.171 -73.95 19.388 C-54.925 25.026 -33.742 22.637 -16 14 C-9.639 10.098 -4.556 5.879 0 0 Z " fill="#FBCC9C" transform="translate(510,637)"/>
<path d="M0 0 C1.227 0.72 2.438 1.467 3.625 2.25 C4.512 2.828 5.399 3.405 6.312 4 C18.616 15.971 21.443 39.077 21.977 55.594 C22.052 62.263 21.251 68.235 19.281 74.602 C18.512 77.705 18.172 80.071 18.625 83.25 C21.702 85.741 25.077 86.854 28.812 88.062 C40.522 92.244 50.567 99.178 56.688 110.25 C59.758 117.169 59.36 122.574 57.062 129.688 C54.746 135.528 51.481 140.323 47.625 145.25 C47.375 145.594 47.375 145.594 46.109 147.336 C39.643 155.599 28.098 163.66 17.625 165.25 C11.524 165.789 5.876 166.232 0.188 163.75 C-0.658 162.925 -1.504 162.1 -2.375 161.25 C-2.91 160.772 -3.445 160.294 -3.996 159.801 C-8.426 155.41 -11.046 150.322 -13.688 144.75 C-14.025 144.038 -14.363 143.326 -14.71 142.593 C-17.524 136.401 -19.807 130.166 -19.375 123.25 C-18.385 123.08 -17.395 122.91 -16.375 122.734 C0.117 119.758 0.117 119.758 4.625 115.25 C4.666 113.584 4.668 111.916 4.625 110.25 C0.78 109.085 -1.503 109.528 -5.262 110.77 C-9.55 111.745 -14.003 111.392 -18.375 111.25 C-19.216 108.356 -20.048 105.46 -20.875 102.562 C-21.113 101.746 -21.352 100.929 -21.598 100.088 C-22.74 96.058 -23.72 92.485 -23.375 88.25 C-16.777 86.935 -10.311 85.979 -3.59 85.594 C-1.375 85.25 -1.375 85.25 0.625 83.25 C0.625 80.812 0.625 80.812 -0.375 78.25 C-5.071 75.183 -8.894 74.957 -14.312 75.5 C-14.99 75.553 -15.667 75.606 -16.365 75.66 C-19.673 75.933 -22.865 76.345 -26.125 76.977 C-29.375 77.25 -29.375 77.25 -31.598 76.133 C-40.289 67.829 -46.692 58.322 -47.613 46.086 C-47.932 31.228 -42.351 19.03 -32.367 8.07 C-23.725 0.174 -11.322 -5.457 0 0 Z " fill="#F87866" transform="translate(784.375,106.75)"/>
<path d="M0 0 C8.754 7.177 16.551 18.874 18.434 30.223 C19.495 43.065 17.307 53.859 9.434 64.223 C8.925 64.906 8.417 65.59 7.893 66.294 C5.044 69.668 2.907 71.918 -1.509 72.832 C-4.833 72.937 -8.062 72.825 -11.379 72.598 C-13.614 72.493 -15.85 72.396 -18.086 72.309 C-19.067 72.247 -20.047 72.186 -21.058 72.123 C-23.566 72.223 -23.566 72.223 -26.566 74.223 C-26.941 76.723 -26.941 76.723 -26.566 79.223 C-22.809 81.727 -19.379 81.868 -15.004 82.285 C-6.802 83.105 -6.802 83.105 -4.566 84.223 C-6.177 92.009 -8.332 99.597 -10.566 107.223 C-17.046 107.434 -22.4 107.196 -28.566 105.223 C-31.504 105.098 -31.504 105.098 -33.566 105.223 C-34.316 107.473 -34.316 107.473 -34.566 110.223 C-31.165 115.251 -25.3 116.669 -19.637 117.816 C-17.691 118.16 -15.741 118.487 -13.789 118.793 C-11.566 119.223 -11.566 119.223 -10.566 120.223 C-11.001 133.266 -17.364 147.562 -26.344 157.113 C-32.315 162.194 -37.993 161.823 -45.566 161.223 C-53.231 159.403 -59.402 154.958 -65.566 150.223 C-66.194 149.761 -66.822 149.3 -67.469 148.824 C-75.872 142.231 -82.208 132.299 -85.566 122.223 C-86.44 114.338 -86.12 108.162 -81.504 101.559 C-74.088 92.618 -65.65 87.875 -55.314 83.071 C-49.678 80.335 -49.678 80.335 -47.566 78.223 C-47.617 76.402 -47.617 76.402 -47.879 74.098 C-47.958 73.353 -48.036 72.608 -48.117 71.84 C-48.566 69.223 -48.566 69.223 -49.59 65.902 C-50.62 62.021 -50.912 58.457 -50.879 54.473 C-50.876 54.108 -50.876 54.108 -50.864 52.264 C-50.515 35.42 -47.818 13.899 -35.684 1.262 C-25.115 -8.583 -11.629 -8.053 0 0 Z " fill="#F87966" transform="translate(269.56640625,110.77734375)"/>
<path d="M0 0 C6.065 4.931 10.377 11.579 11.688 19.312 C12.525 28.407 11.572 36.728 6.25 44.379 C-2.024 53.587 -14.066 55.72 -25.844 56.566 C-39.969 57.026 -55.741 54.216 -66.469 44.324 C-72.552 37.705 -73.723 32.391 -73.562 23.473 C-73.045 16.931 -70.195 11.744 -65.312 7.312 C-46.963 -6.396 -20.329 -13.693 0 0 Z " fill="#C797DB" transform="translate(593.3125,589.6875)"/>
<path d="M0 0 C6.886 4.278 12.653 8.943 15.283 16.834 C16.064 26.076 15.389 33.145 9.916 40.729 C1.441 50.406 -13.034 54.173 -25.412 55.115 C-38.733 55.444 -51.027 53.372 -61.338 44.428 C-67.651 37.683 -68.283 29.089 -68.064 20.272 C-67.237 12.093 -63.817 5.343 -57.717 -0.166 C-40.796 -13.294 -17.489 -10.269 0 0 Z " fill="#C797DB" transform="translate(486.716552734375,591.165771484375)"/>
<path d="M0 0 C12.984 6.584 20.122 15.851 25.297 29.395 C28.597 41.14 27.758 56.358 22.48 67.258 C17.648 75.053 11.212 78.824 2.48 81.258 C-1.814 82.195 -4.843 82.266 -8.676 79.961 C-23.481 67.918 -28.196 44.881 -30.27 26.758 C-30.37 25.259 -30.454 23.759 -30.52 22.258 C-30.583 21.42 -30.646 20.582 -30.711 19.719 C-30.994 13.679 -30.148 9.184 -26.52 4.258 C-18.585 -4.02 -10.323 -4.577 0 0 Z " fill="#F87966" transform="translate(726.51953125,176.7421875)"/>
<path d="M0 0 C5.204 3.936 7.867 9.378 8.941 15.738 C9.754 34.267 3.23 61.568 -8.5 76.125 C-12.797 80.222 -16.271 81.501 -22.254 81.402 C-29.416 80.518 -35.694 76.35 -40.5 71.125 C-48.55 60.449 -49.422 48.153 -48.5 35.125 C-46.01 22.334 -39.854 10.832 -28.973 3.398 C-20.444 -1.887 -9.54 -5.17 0 0 Z " fill="#F87866" transform="translate(320.5,175.875)"/>
<path d="M0 0 C7.08 5.904 11.851 14.867 13 24 C13.829 37.549 13.061 50.135 4 61 C-1.337 66.337 -7.514 68.16 -14.875 68.5 C-23.057 68.252 -29.2 65.231 -34.875 59.375 C-43.626 48.1 -43.146 34.67 -42 21 C-40.554 12.222 -35.747 5.691 -29 0 C-19.344 -5.776 -9.776 -5.195 0 0 Z " fill="#412B15" transform="translate(415,354)"/>
<path d="M0 0 C8.772 5.669 12.593 14.096 15 24 C16.172 37.004 14.52 49.328 6.633 60.129 C1.7 65.781 -3.85 68.443 -11.348 69.254 C-18.889 69.615 -24.409 67.484 -30.559 63.23 C-33.326 60.703 -34.635 58.432 -36.25 55.062 C-36.75 54.043 -37.25 53.023 -37.766 51.973 C-41.973 41.841 -41.849 26.118 -38.562 15.75 C-34.961 7.93 -29.467 1.547 -21.375 -1.625 C-13.685 -3.879 -7.215 -3.477 0 0 Z " fill="#412C15" transform="translate(635,353)"/>
<path d="M0 0 C1.412 -0.043 2.825 -0.073 4.238 -0.098 C4.632 -0.107 4.632 -0.107 6.622 -0.153 C12.2 0.205 16.495 3.144 20.25 7.125 C27.512 16.53 28.082 26.522 26.769 38.027 C24.654 53.598 20.305 66.834 7.629 76.879 C0.991 81.524 -4.727 83.33 -12.875 83.125 C-13.563 83.116 -14.252 83.107 -14.961 83.098 C-16.641 83.074 -18.32 83.038 -20 83 C-18.485 69.854 -14.932 57.631 -10.732 45.121 C-10.621 44.791 -10.621 44.791 -10.062 43.125 C-9.952 42.796 -9.952 42.796 -9.393 41.13 C-4.897 27.616 -2.13 14.093 0 0 Z " fill="#FCCE9E" transform="translate(754,347)"/>
<path d="M0 0 C0.147 1.177 0.294 2.354 0.445 3.566 C2.92 22.21 7.606 39.807 14.231 57.396 C17.334 65.689 20.259 74.033 20 83 C7.831 84.165 -0.572 81.405 -10.41 74.246 C-21.455 64.393 -25.275 49.266 -26.277 35.07 C-26.53 25.024 -25.542 15.996 -19 8 C-12.93 1.974 -8.665 -0.101 0 0 Z " fill="#FCCE9E" transform="translate(268,347)"/>
<path d="M0 0 C2.625 0.25 2.625 0.25 4.438 1.375 C6.275 4.276 6.211 5.864 5.625 9.25 C1.93 15.503 -3.552 18.836 -10.392 20.841 C-16.18 22.202 -21.689 22.6 -27.625 22.562 C-28.544 22.558 -29.463 22.553 -30.409 22.548 C-41.106 22.364 -51.592 20.842 -60.375 14.25 C-62.844 10.546 -62.844 8.629 -62.375 4.25 C-60.75 2.188 -60.75 2.188 -58.375 1.25 C-55.419 1.869 -52.906 3.01 -50.164 4.25 C-49.776 4.425 -49.776 4.425 -47.812 5.312 C-47.089 5.654 -46.366 5.996 -45.621 6.348 C-35.88 10.261 -21.068 9.756 -11.328 6.18 C-7.507 4.361 -4.039 0.425 0 0 Z " fill="#3A2713" transform="translate(540.375,444.75)"/>
<path d="M0 0 C0.577 0.66 1.155 1.32 1.75 2 C1.562 4.375 1.562 4.375 0.75 7 C-2.156 8.725 -5.228 9.206 -8.5 9.875 C-11.923 10.582 -14.841 11.63 -18 13.125 C-21.219 14.622 -23.645 15.742 -27.25 15 C-29.617 13.449 -30.138 12.414 -30.875 9.688 C-29.863 5.337 -26.863 3.404 -23.25 1 C-16.394 -2.935 -6.852 -4.217 0 0 Z " fill="#392513" transform="translate(418.25,289)"/>
<path d="M0 0 C6.422 1.327 13.129 3.421 18 8 C19 11.312 19 11.312 19 14 C17.375 15.562 17.375 15.562 15 17 C10.8 16.809 7.312 15.367 3.434 13.832 C-1.587 12.116 -6.819 11.114 -12 10 C-12.33 8.02 -12.66 6.04 -13 4 C-8.911 -0.089 -5.574 -0.798 0 0 Z " fill="#3B2614" transform="translate(616,290)"/>
<path d="M0 0 C0.33 0 0.66 0 1 0 C3.63 21.574 3.638 43.297 4 65 C5.32 61.37 6.64 57.74 8 54 C9.18 58.72 8.098 60.975 6.188 65.188 C6.051 65.508 6.051 65.508 5.357 67.131 C3.274 71.863 3.274 71.863 1 73 C0.67 48.91 0.34 24.82 0 0 Z " fill="#F59982" transform="translate(725,321)"/>
<path d="M0 0 C1.156 -0.005 2.312 -0.009 3.503 -0.014 C11.188 -0 18.784 0.433 26.438 1.125 C26.438 1.455 26.438 1.785 26.438 2.125 C13.941 3.031 1.462 3.418 -11.062 3.688 C-12.965 3.731 -14.867 3.774 -16.77 3.818 C-21.367 3.924 -25.965 4.026 -30.562 4.125 C-30.562 3.795 -30.562 3.465 -30.562 3.125 C-35.512 2.795 -40.462 2.465 -45.562 2.125 C-45.562 1.795 -45.562 1.465 -45.562 1.125 C-30.375 0.517 -15.201 0.024 0 0 Z " fill="#5A3622" transform="translate(543.5625,59.875)"/>
<path d="M0 0 C2.97 0.33 5.94 0.66 9 1 C9 1.66 9 2.32 9 3 C6.188 3.188 6.188 3.188 3 3 C2.01 2.01 1.02 1.02 0 0 Z " fill="#666F42" transform="translate(513,917)"/>
<path d="M0 0 C1.65 1.65 3.3 3.3 5 5 C4.01 5 3.02 5 2 5 C2 4.34 2 3.68 2 3 C1.34 3 0.68 3 0 3 C0 2.01 0 1.02 0 0 Z " fill="#666D41" transform="translate(657,947)"/>
<path d="M0 0 C1.32 0 2.64 0 4 0 C3.67 1.32 3.34 2.64 3 4 C1 2 1 2 0 0 Z " fill="#6B7045" transform="translate(376,771)"/>
<path d="M0 0 C2.97 0 5.94 0 9 0 C9 0.33 9 0.66 9 1 C6.03 1 3.06 1 0 1 C0 0.67 0 0.34 0 0 Z " fill="#7F6640" transform="translate(287,703)"/>
<path d="M0 0 C0.99 0.33 1.98 0.66 3 1 C3 2.65 3 4.3 3 6 C2 4 1 2 0 0 Z " fill="#686E43" transform="translate(384,803)"/>
<path d="M0 0 C0.66 0.66 1.32 1.32 2 2 C1.67 2.66 1.34 3.32 1 4 C0.34 4 -0.32 4 -1 4 C-0.67 2.68 -0.34 1.36 0 0 Z " fill="#8F603E" transform="translate(785,440)"/>
<path d="M0 0 C1.32 0.33 2.64 0.66 4 1 C3.01 1.66 2.02 2.32 1 3 C0.67 2.01 0.34 1.02 0 0 Z " fill="#6C7A4D" transform="translate(675,784)"/>
<path d="M0 0 C0.33 0 0.66 0 1 0 C1 1.65 1 3.3 1 5 C0.34 4.34 -0.32 3.68 -1 3 C-0.67 2.01 -0.34 1.02 0 0 Z " fill="#706F42" transform="translate(378,746)"/>
<path d="M0 0 C1.32 0.33 2.64 0.66 4 1 C3.34 1.66 2.68 2.32 2 3 C1.34 2.67 0.68 2.34 0 2 C0 1.34 0 0.68 0 0 Z " fill="#916542" transform="translate(360,563)"/>
<path d="M0 0 C0.66 0 1.32 0 2 0 C2 1.65 2 3.3 2 5 C0 1.125 0 1.125 0 0 Z " fill="#6F6E42" transform="translate(377,752)"/>
<path d="M0 0 C1.65 0 3.3 0 5 0 C4.67 0.66 4.34 1.32 4 2 C2.68 1.34 1.36 0.68 0 0 Z " fill="#896E46" transform="translate(720,702)"/>
<path d="M0 0 C1.65 0 3.3 0 5 0 C4.01 0.66 3.02 1.32 2 2 C1.34 1.34 0.68 0.68 0 0 Z " fill="#86623D" transform="translate(623,643)"/>
<path d="M0 0 C1.98 0 3.96 0 6 0 C6 0.33 6 0.66 6 1 C4.02 1 2.04 1 0 1 C0 0.67 0 0.34 0 0 Z " fill="#8D6340" transform="translate(274,447)"/>
<path d="M0 0 C0.66 1.32 1.32 2.64 2 4 C1.34 4 0.68 4 0 4 C0 2.68 0 1.36 0 0 Z " fill="#8B5135" transform="translate(88,264)"/>
<path d="M0 0 C1.98 0 3.96 0 6 0 C6 0.33 6 0.66 6 1 C4.02 1 2.04 1 0 1 C0 0.67 0 0.34 0 0 Z " fill="#834C31" transform="translate(840,152)"/>
<path d="M0 0 C0.33 1.32 0.66 2.64 1 4 C0.67 4.165 0.67 4.165 -1 5 C-0.67 3.35 -0.34 1.7 0 0 Z " fill="#824B31" transform="translate(209,120)"/>
<path d="M0 0 C0.99 0.33 1.98 0.66 3 1 C1.68 1.33 0.36 1.66 -1 2 C-0.67 1.34 -0.34 0.68 0 0 Z " fill="#895135" transform="translate(603,64)"/>
<path d="M0 0 C0.33 0.165 0.33 0.165 2 1 C1.67 1.99 1.34 2.98 1 4 C0.67 2.68 0.34 1.36 0 0 Z " fill="#6B7044" transform="translate(641,924)"/>
<path d="M0 0 C0.66 0.33 0.66 0.33 4 2 C2.68 1.67 1.36 1.34 0 1 C0 0.67 0 0.34 0 0 Z " fill="#64683D" transform="translate(482,910)"/>
<path d="M0 0 C0.33 0.99 0.66 1.98 1 3 C0.67 3.165 0.67 3.165 -1 4 C-0.67 2.68 -0.34 1.36 0 0 Z " fill="#726F44" transform="translate(378,738)"/>
<path d="M0 0 C0.99 0.33 1.98 0.66 3 1 C2.01 1.33 1.02 1.66 0 2 C0 1.34 0 0.68 0 0 Z " fill="#806B43" transform="translate(664,690)"/>
<path d="M0 0 C0.66 0.33 1.32 0.66 2 1 C1.34 1.66 0.68 2.32 0 3 C0 2.01 0 1.02 0 0 Z " fill="#7F643D" transform="translate(385,683)"/>
<path d="M0 0 C0.99 0.33 1.98 0.66 3 1 C2.34 1.66 1.68 2.32 1 3 C0.67 2.01 0.34 1.02 0 0 Z " fill="#8F633F" transform="translate(362,517)"/>
<path d="M0 0 C0.66 0 1.32 0 2 0 C2 0.99 2 1.98 2 3 C1.34 2.67 0.68 2.34 0 2 C0 1.34 0 0.68 0 0 Z " fill="#804E32" transform="translate(136,505)"/>
<path d="M0 0 C0.33 0.99 0.66 1.98 1 3 C0.67 3.165 0.67 3.165 -1 4 C-0.67 2.68 -0.34 1.36 0 0 Z " fill="#814C31" transform="translate(121,480)"/>
<path d="M0 0 C1.65 0 3.3 0 5 0 C5 0.33 5 0.66 5 1 C3.35 1 1.7 1 0 1 C0 0.67 0 0.34 0 0 Z " fill="#926842" transform="translate(745,447)"/>
<path d="M0 0 C0.33 0 0.66 0 1 0 C1 1.65 1 3.3 1 5 C0.67 5 0.34 5 0 5 C0 3.35 0 1.7 0 0 Z " fill="#8A5135" transform="translate(90,296)"/>
<path d="M0 0 C0.33 1.32 0.66 2.64 1 4 C0.34 3.67 -0.32 3.34 -1 3 C-0.67 2.01 -0.34 1.02 0 0 Z " fill="#8D5136" transform="translate(88,280)"/>
<path d="M0 0 C1.65 0 3.3 0 5 0 C5 0.33 5 0.66 5 1 C3.35 1 1.7 1 0 1 C0 0.67 0 0.34 0 0 Z " fill="#7F492F" transform="translate(178,152)"/>
<path d="M0 0 C0.66 1.32 1.32 2.64 2 4 C1.34 4 0.68 4 0 4 C0 2.68 0 1.36 0 0 Z " fill="#874E34" transform="translate(820,139)"/>
<path d="M0 0 C0.495 0.33 0.495 0.33 3 2 C1.68 1.67 0.36 1.34 -1 1 C-0.67 0.67 -0.34 0.34 0 0 Z " fill="#824D33" transform="translate(763,88)"/>
<path d="M0 0 C1.65 0 3.3 0 5 0 C5 0.33 5 0.66 5 1 C3.35 1 1.7 1 0 1 C0 0.67 0 0.34 0 0 Z " fill="#854D35" transform="translate(777,88)"/>
<path d="M0 0 C0.99 0.33 1.98 0.66 3 1 C2.01 1.33 1.02 1.66 0 2 C0 1.34 0 0.68 0 0 Z " fill="#6B7446" transform="translate(722,982)"/>
<path d="M0 0 C0.66 0.66 1.32 1.32 2 2 C1.67 2.165 1.67 2.165 0 3 C0 2.01 0 1.02 0 0 Z " fill="#676D43" transform="translate(665,955)"/>
<path d="M0 0 C0.99 0.33 1.98 0.66 3 1 C2.01 1 1.02 1 0 1 C0 0.67 0 0.34 0 0 Z " fill="#697043" transform="translate(595,918)"/>
<path d="M0 0 C0.66 0 1.32 0 2 0 C2 0.66 2 1.32 2 2 C1.34 2 0.68 2 0 2 C0 1.34 0 0.68 0 0 Z " fill="#6B7144" transform="translate(633,907)"/>
<path d="M0 0 C1 4 1 4 1 4 Z " fill="#835F3C" transform="translate(392,656)"/>
<path d="M0 0 C1 4 1 4 1 4 Z " fill="#815B39" transform="translate(257,656)"/>
<path d="M0 0 C0.66 0.66 1.32 1.32 2 2 C1.01 1.67 0.02 1.34 -1 1 C-0.67 0.67 -0.34 0.34 0 0 Z " fill="#906642" transform="translate(306,616)"/>
<path d="M0 0 C1 4 1 4 1 4 Z " fill="#916844" transform="translate(344,576)"/>
<path d="M0 0 C0.495 0.33 0.495 0.33 3 2 C2.01 2 1.02 2 0 2 C0 1.34 0 0.68 0 0 Z " fill="#895E39" transform="translate(376,522)"/>
<path d="M0 0 C0 3 0 3 0 3 Z " fill="#997049" transform="translate(313,480)"/>
<path d="M0 0 C0.99 0.33 1.98 0.66 3 1 C2.01 1 1.02 1 0 1 C0 0.67 0 0.34 0 0 Z " fill="#8D5938" transform="translate(808,466)"/>
<path d="M0 0 C0.99 0.33 1.98 0.66 3 1 C2.01 1 1.02 1 0 1 C0 0.67 0 0.34 0 0 Z " fill="#854E33" transform="translate(104,453)"/>
<path d="M0 0 C1 4 1 4 1 4 Z " fill="#8B5437" transform="translate(106,356)"/>
<path d="M0 0 C0 3 0 3 0 3 Z " fill="#8C5438" transform="translate(99,332)"/>
<path d="M0 0 C1 4 1 4 1 4 Z " fill="#8C5235" transform="translate(88,272)"/>
<path d="M0 0 C0.495 0.33 0.495 0.33 3 2 C2.01 2 1.02 2 0 2 C0 1.34 0 0.68 0 0 Z " fill="#824A32" transform="translate(144,162)"/>
<path d="M0 0 C4 1 4 1 4 1 Z " fill="#7E4B33" transform="translate(769,88)"/>
<path d="M0 0 C4 1 4 1 4 1 Z " fill="#8A5237" transform="translate(424,64)"/>
<path d="M0 0 C4 1 4 1 4 1 Z " fill="#90563B" transform="translate(484,58)"/>
<path d="M0 0 C0.33 0.66 0.66 1.32 1 2 C0.34 1.67 -0.32 1.34 -1 1 C-0.67 0.67 -0.34 0.34 0 0 Z " fill="#656C41" transform="translate(651,940)"/>
<path d="M0 0 C0.66 0.66 1.32 1.32 2 2 C1.34 2 0.68 2 0 2 C0 1.34 0 0.68 0 0 Z " fill="#686E42" transform="translate(648,936)"/>
<path d="M0 0 C0.66 0 1.32 0 2 0 C1.67 0.66 1.34 1.32 1 2 C0.67 1.34 0.34 0.68 0 0 Z " fill="#6A7142" transform="translate(592,918)"/>
<path d="M0 0 C0.33 0.165 0.33 0.165 2 1 C1.67 1.165 1.67 1.165 0 2 C0 1.34 0 0.68 0 0 Z " fill="#656A3E" transform="translate(480,909)"/>
<path d="M0 0 C0.66 0 1.32 0 2 0 C1.67 0.66 1.34 1.32 1 2 C0.67 1.34 0.34 0.68 0 0 Z " fill="#6A6D40" transform="translate(626,909)"/>
<path d="M0 0 C0.66 0.66 1.32 1.32 2 2 C1.34 2 0.68 2 0 2 C0 1.34 0 0.68 0 0 Z " fill="#656A3F" transform="translate(405,846)"/>
<path d="M0 0 C0.66 0 1.32 0 2 0 C1.67 0.66 1.34 1.32 1 2 C0.67 1.34 0.34 0.68 0 0 Z " fill="#657147" transform="translate(640,835)"/>
<path d="M0 0 C0.66 0 1.32 0 2 0 C1.67 0.66 1.34 1.32 1 2 C0.67 1.34 0.34 0.68 0 0 Z " fill="#667248" transform="translate(641,833)"/>
<path d="M0 0 C0.33 0.66 0.66 1.32 1 2 C0.34 1.67 -0.32 1.34 -1 1 C-0.67 0.67 -0.34 0.34 0 0 Z " fill="#62663E" transform="translate(393,830)"/>
<path d="" fill="#697043" transform="translate(0,0)"/>
<path d="M0 0 C0.66 0 1.32 0 2 0 C1.67 0.66 1.34 1.32 1 2 C0.67 1.34 0.34 0.68 0 0 Z " fill="#6A7044" transform="translate(378,768)"/>
<path d="M0 0 C3 1 3 1 3 1 Z " fill="#777A4B" transform="translate(720,763)"/>
<path d="" fill="#856942" transform="translate(0,0)"/>
<path d="" fill="#86633D" transform="translate(0,0)"/>
<path d="M0 0 C0.33 0.165 0.33 0.165 2 1 C1.67 1.165 1.67 1.165 0 2 C0 1.34 0 0.68 0 0 Z " fill="#855E3C" transform="translate(265,643)"/>
<path d="M0 0 C3 1 3 1 3 1 Z " fill="#886342" transform="translate(732,632)"/>
<path d="M0 0 C0.33 0.165 0.33 0.165 2 1 C1.67 1.165 1.67 1.165 0 2 C0 1.34 0 0.68 0 0 Z " fill="#916843" transform="translate(304,621)"/>
<path d="M0 0 C0.66 0.66 1.32 1.32 2 2 C1.34 2 0.68 2 0 2 C0 1.34 0 0.68 0 0 Z " fill="#8F6642" transform="translate(304,618)"/>
<path d="M0 0 C0.66 0.66 1.32 1.32 2 2 C1.34 2 0.68 2 0 2 C0 1.34 0 0.68 0 0 Z " fill="#916742" transform="translate(352,568)"/>
<path d="M0 0 C3 1 3 1 3 1 Z " fill="#906440" transform="translate(361,560)"/>
<path d="M0 0 C0.66 0 1.32 0 2 0 C1.67 0.66 1.34 1.32 1 2 C0.67 1.34 0.34 0.68 0 0 Z " fill="#845B37" transform="translate(627,537)"/>
<path d="M0 0 C0.66 0 1.32 0 2 0 C1.67 0.66 1.34 1.32 1 2 C0.67 1.34 0.34 0.68 0 0 Z " fill="#855D39" transform="translate(622,533)"/>
<path d="M0 0 C3 1 3 1 3 1 Z " fill="#845134" transform="translate(846,523)"/>
<path d="M0 0 C3 1 3 1 3 1 Z " fill="#845033" transform="translate(176,523)"/>
<path d="M0 0 C0.33 0.165 0.33 0.165 2 1 C1.67 1.165 1.67 1.165 0 2 C0 1.34 0 0.68 0 0 Z " fill="#926641" transform="translate(347,509)"/>
<path d="M0 0 C0.66 0.66 1.32 1.32 2 2 C1.34 2 0.68 2 0 2 C0 1.34 0 0.68 0 0 Z " fill="#8B5A39" transform="translate(793,504)"/>
<path d="M0 0 C0.66 0.66 1.32 1.32 2 2 C1.34 2 0.68 2 0 2 C0 1.34 0 0.68 0 0 Z " fill="#9C714B" transform="translate(323,491)"/>
<path d="" fill="#8E5639" transform="translate(0,0)"/>
<path d="" fill="#986F49" transform="translate(0,0)"/>
<path d="" fill="#8E5E3D" transform="translate(0,0)"/>
<path d="M0 0 C0.66 0.66 1.32 1.32 2 2 C1.34 2 0.68 2 0 2 C0 1.34 0 0.68 0 0 Z " fill="#8A5C3C" transform="translate(251,437)"/>
<path d="M0 0 C0.33 0.165 0.33 0.165 2 1 C1.67 1.165 1.67 1.165 0 2 C0 1.34 0 0.68 0 0 Z " fill="#865033" transform="translate(72,400)"/>
<path d="M0 0 C0.33 0.165 0.33 0.165 2 1 C1.67 1.165 1.67 1.165 0 2 C0 1.34 0 0.68 0 0 Z " fill="#8A5236" transform="translate(105,384)"/>
<path d="M0 0 C0.66 0 1.32 0 2 0 C1.67 0.66 1.34 1.32 1 2 C0.67 1.34 0.34 0.68 0 0 Z " fill="#8B5238" transform="translate(88,305)"/>
<path d="" fill="#8C5336" transform="translate(0,0)"/>
<path d="" fill="#8C5236" transform="translate(0,0)"/>
<path d="M0 0 C0.33 0.165 0.33 0.165 2 1 C1.67 1.165 1.67 1.165 0 2 C0 1.34 0 0.68 0 0 Z " fill="#834C31" transform="translate(112,196)"/>
<path d="M0 0 C0.66 0.66 1.32 1.32 2 2 C1.34 2 0.68 2 0 2 C0 1.34 0 0.68 0 0 Z " fill="#7E4C30" transform="translate(902,184)"/>
<path d="M0 0 C3 1 3 1 3 1 Z " fill="#844D32" transform="translate(824,152)"/>
<path d="M0 0 C3 1 3 1 3 1 Z " fill="#814A2E" transform="translate(196,152)"/>
<path d="" fill="#834B32" transform="translate(0,0)"/>
<path d="M0 0 C3 1 3 1 3 1 Z " fill="#864E34" transform="translate(654,83)"/>
<path d="M0 0 C3 1 3 1 3 1 Z " fill="#8C5237" transform="translate(376,80)"/>
<path d="M0 0 C3 1 3 1 3 1 Z " fill="#875134" transform="translate(626,72)"/>
<path d="M0 0 C3 1 3 1 3 1 Z " fill="#885136" transform="translate(420,65)"/>
<path d="M0 0 C3 1 3 1 3 1 Z " fill="#91573C" transform="translate(456,59)"/>
<path d="M0 0 C2 1 2 1 2 1 Z " fill="#676D42" transform="translate(769,983)"/>
<path d="M0 0 C2 1 2 1 2 1 Z " fill="#6D7548" transform="translate(728,983)"/>
<path d="M0 0 C2 1 2 1 2 1 Z " fill="#6A7647" transform="translate(725,983)"/>
<path d="M0 0 C2 1 2 1 2 1 Z " fill="#676C40" transform="translate(772,982)"/>
<path d="M0 0 C2 1 2 1 2 1 Z " fill="#646C40" transform="translate(696,975)"/>
<path d="M0 0 C2 1 2 1 2 1 Z " fill="#6B7143" transform="translate(675,966)"/>
<path d="" fill="#696F45" transform="translate(0,0)"/>
<path d="" fill="#696E44" transform="translate(0,0)"/>
<path d="M0 0 C2 1 2 1 2 1 Z " fill="#6C6F42" transform="translate(604,919)"/>
<path d="M0 0 C2 1 2 1 2 1 Z " fill="#677043" transform="translate(527,919)"/>
<path d="M0 0 C2 1 2 1 2 1 Z " fill="#696D44" transform="translate(766,918)"/>
<path d="M0 0 C2 1 2 1 2 1 Z " fill="#6C6F43" transform="translate(604,916)"/>
<path d="M0 0 C2 1 2 1 2 1 Z " fill="#6B6F43" transform="translate(509,916)"/>
<path d="" fill="#676D42" transform="translate(0,0)"/>
<path d="M0 0 C2 1 2 1 2 1 Z " fill="#6A754A" transform="translate(637,842)"/>
<path d="" fill="#687147" transform="translate(0,0)"/>
<path d="" fill="#64734A" transform="translate(0,0)"/>
<path d="" fill="#6A7247" transform="translate(0,0)"/>
<path d="" fill="#626B43" transform="translate(0,0)"/>
<path d="M0 0 C2 1 2 1 2 1 Z " fill="#687346" transform="translate(648,819)"/>
<path d="" fill="#676B42" transform="translate(0,0)"/>
<path d="M0 0 C2 1 2 1 2 1 Z " fill="#6D774A" transform="translate(661,800)"/>
<path d="" fill="#6A744A" transform="translate(0,0)"/>
<path d="M0 0 C2 1 2 1 2 1 Z " fill="#6F774B" transform="translate(704,769)"/>
<path d="M0 0 C2 1 2 1 2 1 Z " fill="#73794E" transform="translate(701,768)"/>
<path d="M0 0 C2 1 2 1 2 1 Z " fill="#75764A" transform="translate(726,762)"/>
<path d="" fill="#747649" transform="translate(0,0)"/>
<path d="M0 0 C2 1 2 1 2 1 Z " fill="#816942" transform="translate(340,711)"/>
<path d="M0 0 C2 1 2 1 2 1 Z " fill="#876F47" transform="translate(731,703)"/>
<path d="M0 0 C2 1 2 1 2 1 Z " fill="#816840" transform="translate(297,703)"/>
<path d="M0 0 C2 1 2 1 2 1 Z " fill="#856F44" transform="translate(736,702)"/>
<path d="M0 0 C2 1 2 1 2 1 Z " fill="#856B42" transform="translate(739,701)"/>
<path d="M0 0 C2 1 2 1 2 1 Z " fill="#7D613C" transform="translate(277,700)"/>
<path d="" fill="#7B7349" transform="translate(0,0)"/>
<path d="" fill="#7D6E45" transform="translate(0,0)"/>
<path d="" fill="#816741" transform="translate(0,0)"/>
<path d="" fill="#7A5C39" transform="translate(0,0)"/>
<path d="" fill="#7E5E3C" transform="translate(0,0)"/>
<path d="M0 0 C2 1 2 1 2 1 Z " fill="#83673E" transform="translate(659,676)"/>
<path d="M0 0 C2 1 2 1 2 1 Z " fill="#85673F" transform="translate(648,667)"/>
<path d="" fill="#85613D" transform="translate(0,0)"/>
<path d="M0 0 C2 1 2 1 2 1 Z " fill="#85603C" transform="translate(632,651)"/>
<path d="" fill="#845E3A" transform="translate(0,0)"/>
<path d="M0 0 C2 1 2 1 2 1 Z " fill="#87603E" transform="translate(270,640)"/>
<path d="M0 0 C2 1 2 1 2 1 Z " fill="#906742" transform="translate(737,634)"/>
<path d="M0 0 C2 1 2 1 2 1 Z " fill="#89623E" transform="translate(285,634)"/>
<path d="" fill="#8F6441" transform="translate(0,0)"/>
<path d="M0 0 C2 1 2 1 2 1 Z " fill="#936944" transform="translate(336,586)"/>
<path d="M0 0 C2 1 2 1 2 1 Z " fill="#8E6342" transform="translate(375,552)"/>
<path d="M0 0 C2 1 2 1 2 1 Z " fill="#8A5C39" transform="translate(389,527)"/>
<path d="M0 0 C2 1 2 1 2 1 Z " fill="#865D39" transform="translate(635,526)"/>
<path d="M0 0 C2 1 2 1 2 1 Z " fill="#8B5D3A" transform="translate(380,524)"/>
<path d="" fill="#865136" transform="translate(0,0)"/>
<path d="M0 0 C2 1 2 1 2 1 Z " fill="#814D33" transform="translate(154,517)"/>
<path d="M0 0 C2 1 2 1 2 1 Z " fill="#804D31" transform="translate(870,516)"/>
<path d="M0 0 C2 1 2 1 2 1 Z " fill="#916741" transform="translate(350,511)"/>
<path d="" fill="#946943" transform="translate(0,0)"/>
<path d="M0 0 C2 1 2 1 2 1 Z " fill="#91613E" transform="translate(793,496)"/>
<path d="" fill="#854D32" transform="translate(0,0)"/>
<path d="" fill="#956D47" transform="translate(0,0)"/>
<path d="" fill="#926843" transform="translate(0,0)"/>
<path d="M0 0 C2 1 2 1 2 1 Z " fill="#844F33" transform="translate(107,454)"/>
<path d="M0 0 C2 1 2 1 2 1 Z " fill="#844E33" transform="translate(916,453)"/>
<path d="M0 0 C2 1 2 1 2 1 Z " fill="#824D32" transform="translate(93,447)"/>
<path d="M0 0 C2 1 2 1 2 1 Z " fill="#8D603E" transform="translate(266,445)"/>
<path d="" fill="#8F6140" transform="translate(0,0)"/>
<path d="" fill="#834E32" transform="translate(0,0)"/>
<path d="" fill="#885A3B" transform="translate(0,0)"/>
<path d="" fill="#824B30" transform="translate(0,0)"/>
<path d="" fill="#865033" transform="translate(0,0)"/>
<path d="" fill="#855035" transform="translate(0,0)"/>
<path d="M0 0 C2 1 2 1 2 1 Z " fill="#865033" transform="translate(932,396)"/>
<path d="" fill="#8D5436" transform="translate(0,0)"/>
<path d="" fill="#8D5538" transform="translate(0,0)"/>
<path d="" fill="#8A5538" transform="translate(0,0)"/>
<path d="" fill="#90563A" transform="translate(0,0)"/>
<path d="" fill="#8D563B" transform="translate(0,0)"/>
<path d="M0 0 C2 1 2 1 2 1 Z " fill="#8D5236" transform="translate(88,288)"/>
<path d="" fill="#8A5436" transform="translate(0,0)"/>
<path d="" fill="#824D32" transform="translate(0,0)"/>
<path d="" fill="#8A5236" transform="translate(0,0)"/>
<path d="" fill="#885036" transform="translate(0,0)"/>
<path d="" fill="#874F35" transform="translate(0,0)"/>
<path d="" fill="#874D32" transform="translate(0,0)"/>
<path d="" fill="#814F32" transform="translate(0,0)"/>
<path d="M0 0 C2 1 2 1 2 1 Z " fill="#7D482F" transform="translate(139,168)"/>
<path d="M0 0 C2 1 2 1 2 1 Z " fill="#7D4A2E" transform="translate(870,160)"/>
<path d="M0 0 C2 1 2 1 2 1 Z " fill="#864F33" transform="translate(152,160)"/>
<path d="M0 0 C2 1 2 1 2 1 Z " fill="#844D31" transform="translate(854,154)"/>
<path d="M0 0 C2 1 2 1 2 1 Z " fill="#844B32" transform="translate(172,153)"/>
<path d="M0 0 C2 1 2 1 2 1 Z " fill="#834B2F" transform="translate(829,152)"/>
<path d="M0 0 C2 1 2 1 2 1 Z " fill="#8B5035" transform="translate(201,152)"/>
<path d="" fill="#7F4B31" transform="translate(0,0)"/>
<path d="M0 0 C2 1 2 1 2 1 Z " fill="#824F33" transform="translate(719,131)"/>
<path d="M0 0 C2 1 2 1 2 1 Z " fill="#834C33" transform="translate(315,120)"/>
<path d="M0 0 C2 1 2 1 2 1 Z " fill="#865035" transform="translate(321,115)"/>
<path d="" fill="#824A30" transform="translate(0,0)"/>
<path d="M0 0 C2 1 2 1 2 1 Z " fill="#865034" transform="translate(293,114)"/>
<path d="" fill="#885034" transform="translate(0,0)"/>
<path d="M0 0 C2 1 2 1 2 1 Z " fill="#834C32" transform="translate(790,91)"/>
<path d="M0 0 C2 1 2 1 2 1 Z " fill="#845033" transform="translate(668,91)"/>
<path d="M0 0 C2 1 2 1 2 1 Z " fill="#844E32" transform="translate(357,90)"/>
<path d="" fill="#844E33" transform="translate(0,0)"/>
<path d="M0 0 C2 1 2 1 2 1 Z " fill="#824D33" transform="translate(241,89)"/>
<path d="M0 0 C2 1 2 1 2 1 Z " fill="#874D33" transform="translate(257,88)"/>
<path d="" fill="#864D33" transform="translate(0,0)"/>
<path d="M0 0 C2 1 2 1 2 1 Z " fill="#875033" transform="translate(638,76)"/>
<path d="M0 0 C2 1 2 1 2 1 Z " fill="#8B5135" transform="translate(386,76)"/>
<path d="M0 0 C2 1 2 1 2 1 Z " fill="#864F36" transform="translate(385,74)"/>
<path d="M0 0 C2 1 2 1 2 1 Z " fill="#895135" transform="translate(409,68)"/>
<path d="M0 0 C2 1 2 1 2 1 Z " fill="#895237" transform="translate(416,66)"/>
<path d="M0 0 C2 1 2 1 2 1 Z " fill="#915539" transform="translate(572,60)"/>
<path d="M0 0 C2 1 2 1 2 1 Z " fill="#90583D" transform="translate(535,58)"/>
<path d="M0 0 C2 1 2 1 2 1 Z " fill="#92583C" transform="translate(478,58)"/>
<path d="" fill="#6B6D46" transform="translate(0,0)"/>
<path d="" fill="#434425" transform="translate(0,0)"/>
<path d="" fill="#6A7144" transform="translate(0,0)"/>
<path d="" fill="#6D784B" transform="translate(0,0)"/>
<path d="" fill="#696E41" transform="translate(0,0)"/>
<path d="" fill="#6C7145" transform="translate(0,0)"/>
<path d="" fill="#6B7445" transform="translate(0,0)"/>
<path d="" fill="#6D7347" transform="translate(0,0)"/>
<path d="" fill="#6A6D44" transform="translate(0,0)"/>
<path d="" fill="#4B4B2B" transform="translate(0,0)"/>
<path d="" fill="#6B6E44" transform="translate(0,0)"/>
<path d="" fill="#696F43" transform="translate(0,0)"/>
<path d="" fill="#6C6E44" transform="translate(0,0)"/>
<path d="" fill="#6A7044" transform="translate(0,0)"/>
<path d="" fill="#6A6F46" transform="translate(0,0)"/>
<path d="" fill="#171608" transform="translate(0,0)"/>
<path d="" fill="#3B3B20" transform="translate(0,0)"/>
<path d="" fill="#6E7044" transform="translate(0,0)"/>
<path d="" fill="#6C6C43" transform="translate(0,0)"/>
<path d="" fill="#6A7042" transform="translate(0,0)"/>
<path d="" fill="#697243" transform="translate(0,0)"/>
<path d="" fill="#686F42" transform="translate(0,0)"/>
<path d="" fill="#6A6A3F" transform="translate(0,0)"/>
<path d="" fill="#5A5D37" transform="translate(0,0)"/>
<path d="" fill="#666C41" transform="translate(0,0)"/>
<path d="" fill="#656940" transform="translate(0,0)"/>
<path d="" fill="#575935" transform="translate(0,0)"/>
<path d="" fill="#666A40" transform="translate(0,0)"/>
<path d="" fill="#656C42" transform="translate(0,0)"/>
<path d="" fill="#696E43" transform="translate(0,0)"/>
<path d="" fill="#6D7246" transform="translate(0,0)"/>
<path d="" fill="#6C6E40" transform="translate(0,0)"/>
<path d="" fill="#171809" transform="translate(0,0)"/>
<path d="" fill="#6D7243" transform="translate(0,0)"/>
<path d="" fill="#6A6E43" transform="translate(0,0)"/>
<path d="" fill="#6D7345" transform="translate(0,0)"/>
<path d="" fill="#6C7244" transform="translate(0,0)"/>
<path d="" fill="#181709" transform="translate(0,0)"/>
<path d="" fill="#1E1E0D" transform="translate(0,0)"/>
<path d="" fill="#39361E" transform="translate(0,0)"/>
<path d="" fill="#6A6C42" transform="translate(0,0)"/>
<path d="" fill="#60643B" transform="translate(0,0)"/>
<path d="" fill="#474A27" transform="translate(0,0)"/>
<path d="" fill="#21200F" transform="translate(0,0)"/>
<path d="" fill="#010300" transform="translate(0,0)"/>
<path d="" fill="#676E41" transform="translate(0,0)"/>
<path d="" fill="#6A7144" transform="translate(0,0)"/>
<path d="" fill="#696E41" transform="translate(0,0)"/>
<path d="" fill="#6B7244" transform="translate(0,0)"/>
<path d="" fill="#6D7244" transform="translate(0,0)"/>
<path d="" fill="#6B6F42" transform="translate(0,0)"/>
<path d="" fill="#6B7042" transform="translate(0,0)"/>
<path d="" fill="#676E40" transform="translate(0,0)"/>
<path d="" fill="#6C7043" transform="translate(0,0)"/>
<path d="" fill="#676D41" transform="translate(0,0)"/>
<path d="" fill="#171608" transform="translate(0,0)"/>
<path d="" fill="#676D42" transform="translate(0,0)"/>
<path d="" fill="#696D43" transform="translate(0,0)"/>
<path d="" fill="#6F7445" transform="translate(0,0)"/>
<path d="" fill="#6E7547" transform="translate(0,0)"/>
<path d="" fill="#686F43" transform="translate(0,0)"/>
<path d="" fill="#6E7245" transform="translate(0,0)"/>
<path d="" fill="#666D43" transform="translate(0,0)"/>
<path d="" fill="#747647" transform="translate(0,0)"/>
<path d="" fill="#646E41" transform="translate(0,0)"/>
<path d="" fill="#676F41" transform="translate(0,0)"/>
<path d="" fill="#272612" transform="translate(0,0)"/>
<path d="" fill="#6E7245" transform="translate(0,0)"/>
<path d="" fill="#6B6A42" transform="translate(0,0)"/>
<path d="" fill="#646A3E" transform="translate(0,0)"/>
<path d="" fill="#646A40" transform="translate(0,0)"/>
<path d="" fill="#63693D" transform="translate(0,0)"/>
<path d="" fill="#676A40" transform="translate(0,0)"/>
<path d="" fill="#65683D" transform="translate(0,0)"/>
<path d="" fill="#7B794B" transform="translate(0,0)"/>
<path d="" fill="#110F05" transform="translate(0,0)"/>
<path d="" fill="#62663B" transform="translate(0,0)"/>
<path d="" fill="#687143" transform="translate(0,0)"/>
<path d="" fill="#62643D" transform="translate(0,0)"/>
<path d="" fill="#697445" transform="translate(0,0)"/>
<path d="" fill="#62633A" transform="translate(0,0)"/>
<path d="" fill="#676E42" transform="translate(0,0)"/>
<path d="" fill="#656A3F" transform="translate(0,0)"/>
<path d="" fill="#6C7144" transform="translate(0,0)"/>
<path d="" fill="#6B7346" transform="translate(0,0)"/>
<path d="" fill="#6F7546" transform="translate(0,0)"/>
<path d="" fill="#6B6F42" transform="translate(0,0)"/>
<path d="" fill="#38341C" transform="translate(0,0)"/>
<path d="" fill="#6D7245" transform="translate(0,0)"/>
<path d="" fill="#687244" transform="translate(0,0)"/>
<path d="" fill="#676D42" transform="translate(0,0)"/>
<path d="" fill="#656B40" transform="translate(0,0)"/>
<path d="" fill="#68683D" transform="translate(0,0)"/>
<path d="" fill="#6C7146" transform="translate(0,0)"/>
<path d="" fill="#677346" transform="translate(0,0)"/>
<path d="" fill="#66683F" transform="translate(0,0)"/>
<path d="" fill="#6C7246" transform="translate(0,0)"/>
<path d="" fill="#6B7246" transform="translate(0,0)"/>
<path d="" fill="#6B7549" transform="translate(0,0)"/>
<path d="" fill="#636941" transform="translate(0,0)"/>
<path d="" fill="#6D7A4A" transform="translate(0,0)"/>
<path d="" fill="#666C42" transform="translate(0,0)"/>
<path d="" fill="#656B42" transform="translate(0,0)"/>
<path d="" fill="#666D41" transform="translate(0,0)"/>
<path d="" fill="#6D784B" transform="translate(0,0)"/>
<path d="" fill="#6B784B" transform="translate(0,0)"/>
<path d="" fill="#6C784D" transform="translate(0,0)"/>
<path d="" fill="#69754B" transform="translate(0,0)"/>
<path d="" fill="#697246" transform="translate(0,0)"/>
<path d="" fill="#687042" transform="translate(0,0)"/>
<path d="" fill="#656C45" transform="translate(0,0)"/>
<path d="" fill="#6D794C" transform="translate(0,0)"/>
<path d="" fill="#68693F" transform="translate(0,0)"/>
<path d="" fill="#6A6E44" transform="translate(0,0)"/>
<path d="" fill="#6D7B4C" transform="translate(0,0)"/>
<path d="" fill="#6A754A" transform="translate(0,0)"/>
<path d="" fill="#6A794E" transform="translate(0,0)"/>
<path d="" fill="#6B6F43" transform="translate(0,0)"/>
<path d="" fill="#6A7B4E" transform="translate(0,0)"/>
<path d="" fill="#6F7A4E" transform="translate(0,0)"/>
<path d="" fill="#707B4E" transform="translate(0,0)"/>
<path d="" fill="#3C371E" transform="translate(0,0)"/>
<path d="" fill="#717A4D" transform="translate(0,0)"/>
<path d="" fill="#6C7244" transform="translate(0,0)"/>
<path d="" fill="#181307" transform="translate(0,0)"/>
<path d="" fill="#72794F" transform="translate(0,0)"/>
<path d="" fill="#68653C" transform="translate(0,0)"/>
<path d="" fill="#75794D" transform="translate(0,0)"/>
<path d="" fill="#70784B" transform="translate(0,0)"/>
<path d="" fill="#767C4D" transform="translate(0,0)"/>
<path d="" fill="#6C6F42" transform="translate(0,0)"/>
<path d="" fill="#6E6F45" transform="translate(0,0)"/>
<path d="" fill="#757A4D" transform="translate(0,0)"/>
<path d="" fill="#77794B" transform="translate(0,0)"/>
<path d="" fill="#717447" transform="translate(0,0)"/>
<path d="" fill="#777A4B" transform="translate(0,0)"/>
<path d="" fill="#6C6F43" transform="translate(0,0)"/>
<path d="" fill="#6E6E43" transform="translate(0,0)"/>
<path d="" fill="#7E784E" transform="translate(0,0)"/>
<path d="" fill="#727044" transform="translate(0,0)"/>
<path d="" fill="#717045" transform="translate(0,0)"/>
<path d="" fill="#716F44" transform="translate(0,0)"/>
<path d="" fill="#727547" transform="translate(0,0)"/>
<path d="" fill="#74774A" transform="translate(0,0)"/>
<path d="" fill="#757046" transform="translate(0,0)"/>
<path d="" fill="#757147" transform="translate(0,0)"/>
<path d="" fill="#757147" transform="translate(0,0)"/>
<path d="" fill="#777146" transform="translate(0,0)"/>
<path d="" fill="#747046" transform="translate(0,0)"/>
<path d="" fill="#747143" transform="translate(0,0)"/>
<path d="" fill="#7B7D4D" transform="translate(0,0)"/>
<path d="" fill="#7C784D" transform="translate(0,0)"/>
<path d="" fill="#7E7047" transform="translate(0,0)"/>
<path d="" fill="#806940" transform="translate(0,0)"/>
<path d="" fill="#2E2110" transform="translate(0,0)"/>
<path d="" fill="#816C43" transform="translate(0,0)"/>
<path d="" fill="#886D46" transform="translate(0,0)"/>
<path d="" fill="#91754A" transform="translate(0,0)"/>
<path d="" fill="#856C43" transform="translate(0,0)"/>
<path d="" fill="#7D603C" transform="translate(0,0)"/>
<path d="" fill="#816F43" transform="translate(0,0)"/>
<path d="" fill="#795B39" transform="translate(0,0)"/>
<path d="" fill="#7A663D" transform="translate(0,0)"/>
<path d="" fill="#785B3A" transform="translate(0,0)"/>
<path d="" fill="#775C3B" transform="translate(0,0)"/>
<path d="" fill="#7B5B3D" transform="translate(0,0)"/>
<path d="" fill="#81673F" transform="translate(0,0)"/>
<path d="" fill="#7D623F" transform="translate(0,0)"/>
<path d="" fill="#83643F" transform="translate(0,0)"/>
<path d="" fill="#7A663D" transform="translate(0,0)"/>
<path d="" fill="#83633E" transform="translate(0,0)"/>
<path d="" fill="#7E643E" transform="translate(0,0)"/>
<path d="" fill="#7A5D3C" transform="translate(0,0)"/>
<path d="" fill="#84633E" transform="translate(0,0)"/>
<path d="" fill="#7A5C39" transform="translate(0,0)"/>
<path d="" fill="#84663F" transform="translate(0,0)"/>
<path d="" fill="#82633B" transform="translate(0,0)"/>
<path d="" fill="#7C5B39" transform="translate(0,0)"/>
<path d="" fill="#836540" transform="translate(0,0)"/>
<path d="" fill="#846840" transform="translate(0,0)"/>
<path d="" fill="#826640" transform="translate(0,0)"/>
<path d="" fill="#83683E" transform="translate(0,0)"/>
<path d="" fill="#83663F" transform="translate(0,0)"/>
<path d="" fill="#83643D" transform="translate(0,0)"/>
<path d="" fill="#866941" transform="translate(0,0)"/>
<path d="" fill="#83633F" transform="translate(0,0)"/>
<path d="" fill="#846740" transform="translate(0,0)"/>
<path d="" fill="#85613C" transform="translate(0,0)"/>
<path d="" fill="#85633E" transform="translate(0,0)"/>
<path d="" fill="#856540" transform="translate(0,0)"/>
<path d="" fill="#85643F" transform="translate(0,0)"/>
<path d="" fill="#83643E" transform="translate(0,0)"/>
<path d="" fill="#7F603C" transform="translate(0,0)"/>
<path d="" fill="#876640" transform="translate(0,0)"/>
<path d="" fill="#80603C" transform="translate(0,0)"/>
<path d="" fill="#82623E" transform="translate(0,0)"/>
<path d="" fill="#83603E" transform="translate(0,0)"/>
<path d="" fill="#82623D" transform="translate(0,0)"/>
<path d="" fill="#86633E" transform="translate(0,0)"/>
<path d="" fill="#85633F" transform="translate(0,0)"/>
<path d="" fill="#86643E" transform="translate(0,0)"/>
<path d="" fill="#866440" transform="translate(0,0)"/>
<path d="" fill="#825F3C" transform="translate(0,0)"/>
<path d="" fill="#845A3C" transform="translate(0,0)"/>
<path d="" fill="#845B3A" transform="translate(0,0)"/>
<path d="" fill="#88613D" transform="translate(0,0)"/>
<path d="" fill="#86613C" transform="translate(0,0)"/>
<path d="" fill="#89603C" transform="translate(0,0)"/>
<path d="" fill="#876140" transform="translate(0,0)"/>
<path d="" fill="#825B39" transform="translate(0,0)"/>
<path d="" fill="#885F3E" transform="translate(0,0)"/>
<path d="" fill="#86623C" transform="translate(0,0)"/>
<path d="" fill="#8B653F" transform="translate(0,0)"/>
<path d="" fill="#87613E" transform="translate(0,0)"/>
<path d="" fill="#87603E" transform="translate(0,0)"/>
<path d="" fill="#815C3A" transform="translate(0,0)"/>
<path d="" fill="#8B613E" transform="translate(0,0)"/>
<path d="" fill="#886140" transform="translate(0,0)"/>
<path d="" fill="#8F6743" transform="translate(0,0)"/>
<path d="" fill="#87603D" transform="translate(0,0)"/>
<path d="" fill="#8A5E3E" transform="translate(0,0)"/>
<path d="" fill="#8A623F" transform="translate(0,0)"/>
<path d="" fill="#8D6242" transform="translate(0,0)"/>
<path d="" fill="#88603D" transform="translate(0,0)"/>
<path d="" fill="#372210" transform="translate(0,0)"/>
<path d="" fill="#87603E" transform="translate(0,0)"/>
<path d="" fill="#906741" transform="translate(0,0)"/>
<path d="" fill="#8F6442" transform="translate(0,0)"/>
<path d="" fill="#946A47" transform="translate(0,0)"/>
<path d="" fill="#130801" transform="translate(0,0)"/>
<path d="" fill="#83593A" transform="translate(0,0)"/>
<path d="" fill="#996F4A" transform="translate(0,0)"/>
<path d="" fill="#916A43" transform="translate(0,0)"/>
<path d="" fill="#946B48" transform="translate(0,0)"/>
<path d="" fill="#946B44" transform="translate(0,0)"/>
<path d="" fill="#906742" transform="translate(0,0)"/>
<path d="" fill="#5D3B22" transform="translate(0,0)"/>
<path d="" fill="#936A47" transform="translate(0,0)"/>
<path d="" fill="#926B47" transform="translate(0,0)"/>
<path d="" fill="#916947" transform="translate(0,0)"/>
<path d="" fill="#946B44" transform="translate(0,0)"/>
<path d="" fill="#916A44" transform="translate(0,0)"/>
<path d="" fill="#936A44" transform="translate(0,0)"/>
<path d="" fill="#917047" transform="translate(0,0)"/>
<path d="" fill="#916A46" transform="translate(0,0)"/>
<path d="" fill="#926E44" transform="translate(0,0)"/>
<path d="" fill="#966E48" transform="translate(0,0)"/>
<path d="" fill="#997046" transform="translate(0,0)"/>
<path d="" fill="#956E4A" transform="translate(0,0)"/>
<path d="" fill="#956C45" transform="translate(0,0)"/>
<path d="" fill="#956B43" transform="translate(0,0)"/>
<path d="" fill="#875A3B" transform="translate(0,0)"/>
<path d="" fill="#956B46" transform="translate(0,0)"/>
<path d="" fill="#946B45" transform="translate(0,0)"/>
<path d="" fill="#926944" transform="translate(0,0)"/>
<path d="" fill="#8C6542" transform="translate(0,0)"/>
<path d="" fill="#956B45" transform="translate(0,0)"/>
<path d="" fill="#916844" transform="translate(0,0)"/>
<path d="" fill="#936741" transform="translate(0,0)"/>
<path d="" fill="#906A43" transform="translate(0,0)"/>
<path d="" fill="#916844" transform="translate(0,0)"/>
<path d="" fill="#8F6844" transform="translate(0,0)"/>
<path d="" fill="#926541" transform="translate(0,0)"/>
<path d="" fill="#936943" transform="translate(0,0)"/>
<path d="" fill="#936B44" transform="translate(0,0)"/>
<path d="" fill="#8E6A41" transform="translate(0,0)"/>
<path d="" fill="#946D43" transform="translate(0,0)"/>
<path d="" fill="#926741" transform="translate(0,0)"/>
<path d="" fill="#906743" transform="translate(0,0)"/>
<path d="" fill="#906541" transform="translate(0,0)"/>
<path d="" fill="#8F6541" transform="translate(0,0)"/>
<path d="" fill="#906542" transform="translate(0,0)"/>
<path d="" fill="#906440" transform="translate(0,0)"/>
<path d="" fill="#986B47" transform="translate(0,0)"/>
<path d="" fill="#946741" transform="translate(0,0)"/>
<path d="" fill="#8D653F" transform="translate(0,0)"/>
<path d="" fill="#8B5F3E" transform="translate(0,0)"/>
<path d="" fill="#90643E" transform="translate(0,0)"/>
<path d="" fill="#865938" transform="translate(0,0)"/>
<path d="" fill="#71452C" transform="translate(0,0)"/>
<path d="" fill="#875D3C" transform="translate(0,0)"/>
<path d="" fill="#8A5C38" transform="translate(0,0)"/>
<path d="" fill="#8D5D3C" transform="translate(0,0)"/>
<path d="" fill="#8A5E3A" transform="translate(0,0)"/>
<path d="" fill="#875A36" transform="translate(0,0)"/>
<path d="" fill="#855A38" transform="translate(0,0)"/>
<path d="" fill="#855D38" transform="translate(0,0)"/>
<path d="" fill="#845B37" transform="translate(0,0)"/>
<path d="" fill="#815C36" transform="translate(0,0)"/>
<path d="" fill="#885E3B" transform="translate(0,0)"/>
<path d="" fill="#865C3A" transform="translate(0,0)"/>
<path d="" fill="#8A5E3C" transform="translate(0,0)"/>
<path d="" fill="#8B5D38" transform="translate(0,0)"/>
<path d="" fill="#8C5E3B" transform="translate(0,0)"/>
<path d="" fill="#936542" transform="translate(0,0)"/>
<path d="" fill="#865D3B" transform="translate(0,0)"/>
<path d="" fill="#8B603B" transform="translate(0,0)"/>
<path d="" fill="#8A5539" transform="translate(0,0)"/>
<path d="" fill="#885236" transform="translate(0,0)"/>
<path d="" fill="#885335" transform="translate(0,0)"/>
<path d="" fill="#824E32" transform="translate(0,0)"/>
<path d="" fill="#875434" transform="translate(0,0)"/>
<path d="" fill="#885638" transform="translate(0,0)"/>
<path d="" fill="#814C32" transform="translate(0,0)"/>
<path d="" fill="#8B633D" transform="translate(0,0)"/>
<path d="" fill="#885637" transform="translate(0,0)"/>
<path d="" fill="#824E33" transform="translate(0,0)"/>
<path d="" fill="#906442" transform="translate(0,0)"/>
<path d="" fill="#875537" transform="translate(0,0)"/>
<path d="" fill="#814F34" transform="translate(0,0)"/>
<path d="" fill="#946942" transform="translate(0,0)"/>
<path d="" fill="#844E32" transform="translate(0,0)"/>
<path d="" fill="#834F32" transform="translate(0,0)"/>
<path d="" fill="#7A4F31" transform="translate(0,0)"/>
<path d="" fill="#804E33" transform="translate(0,0)"/>
<path d="" fill="#976C46" transform="translate(0,0)"/>
<path d="" fill="#916843" transform="translate(0,0)"/>
<path d="" fill="#7E4D33" transform="translate(0,0)"/>
<path d="" fill="#946A47" transform="translate(0,0)"/>
<path d="" fill="#956A43" transform="translate(0,0)"/>
<path d="" fill="#7E4B31" transform="translate(0,0)"/>
<path d="" fill="#996D49" transform="translate(0,0)"/>
<path d="" fill="#936943" transform="translate(0,0)"/>
<path d="" fill="#824E32" transform="translate(0,0)"/>
<path d="" fill="#976E45" transform="translate(0,0)"/>
<path d="" fill="#8B593A" transform="translate(0,0)"/>
<path d="" fill="#966E47" transform="translate(0,0)"/>
<path d="" fill="#997048" transform="translate(0,0)"/>
<path d="" fill="#824F34" transform="translate(0,0)"/>
<path d="" fill="#986F47" transform="translate(0,0)"/>
<path d="" fill="#855234" transform="translate(0,0)"/>
<path d="" fill="#915F3D" transform="translate(0,0)"/>
<path d="" fill="#9A6F47" transform="translate(0,0)"/>
<path d="" fill="#9B6F49" transform="translate(0,0)"/>
<path d="" fill="#8F5F3C" transform="translate(0,0)"/>
<path d="" fill="#835034" transform="translate(0,0)"/>
<path d="" fill="#825033" transform="translate(0,0)"/>
<path d="" fill="#9A724A" transform="translate(0,0)"/>
<path d="" fill="#9C714A" transform="translate(0,0)"/>
<path d="" fill="#9E734B" transform="translate(0,0)"/>
<path d="" fill="#8A5938" transform="translate(0,0)"/>
<path d="" fill="#9A7249" transform="translate(0,0)"/>
<path d="" fill="#9A724B" transform="translate(0,0)"/>
<path d="" fill="#987049" transform="translate(0,0)"/>
<path d="" fill="#98704A" transform="translate(0,0)"/>
<path d="" fill="#845035" transform="translate(0,0)"/>
<path d="" fill="#875938" transform="translate(0,0)"/>
<path d="" fill="#9A7049" transform="translate(0,0)"/>
<path d="" fill="#9A704B" transform="translate(0,0)"/>
<path d="" fill="#9B6F49" transform="translate(0,0)"/>
<path d="" fill="#986D4A" transform="translate(0,0)"/>
<path d="" fill="#9D714A" transform="translate(0,0)"/>
<path d="" fill="#9D714B" transform="translate(0,0)"/>
<path d="" fill="#885537" transform="translate(0,0)"/>
<path d="" fill="#9B724B" transform="translate(0,0)"/>
<path d="" fill="#9A724A" transform="translate(0,0)"/>
<path d="" fill="#7F4E2F" transform="translate(0,0)"/>
<path d="" fill="#865436" transform="translate(0,0)"/>
<path d="" fill="#815034" transform="translate(0,0)"/>
<path d="" fill="#895538" transform="translate(0,0)"/>
<path d="" fill="#844C31" transform="translate(0,0)"/>
<path d="" fill="#8C5437" transform="translate(0,0)"/>
<path d="" fill="#996E47" transform="translate(0,0)"/>
<path d="" fill="#9B704C" transform="translate(0,0)"/>
<path d="" fill="#9A704A" transform="translate(0,0)"/>
<path d="" fill="#9A714B" transform="translate(0,0)"/>
<path d="" fill="#8C5A3A" transform="translate(0,0)"/>
<path d="" fill="#8B5938" transform="translate(0,0)"/>
<path d="" fill="#9D724A" transform="translate(0,0)"/>
<path d="" fill="#885637" transform="translate(0,0)"/>
<path d="" fill="#8B5739" transform="translate(0,0)"/>
<path d="" fill="#8C5939" transform="translate(0,0)"/>
<path d="" fill="#9B6F49" transform="translate(0,0)"/>
<path d="" fill="#9C724B" transform="translate(0,0)"/>
<path d="" fill="#8C5937" transform="translate(0,0)"/>
<path d="" fill="#8E5939" transform="translate(0,0)"/>
<path d="" fill="#986E4B" transform="translate(0,0)"/>
<path d="" fill="#9B6F49" transform="translate(0,0)"/>
<path d="" fill="#875538" transform="translate(0,0)"/>
<path d="" fill="#956D49" transform="translate(0,0)"/>
<path d="" fill="#8F5B3B" transform="translate(0,0)"/>
<path d="" fill="#834F34" transform="translate(0,0)"/>
<path d="" fill="#8E5A3B" transform="translate(0,0)"/>
<path d="" fill="#8F5B3C" transform="translate(0,0)"/>
<path d="" fill="#976C48" transform="translate(0,0)"/>
<path d="" fill="#8D583B" transform="translate(0,0)"/>
<path d="" fill="#8D5B3C" transform="translate(0,0)"/>
<path d="" fill="#865034" transform="translate(0,0)"/>
<path d="" fill="#885234" transform="translate(0,0)"/>
<path d="" fill="#895C3A" transform="translate(0,0)"/>
<path d="" fill="#8B5F3D" transform="translate(0,0)"/>
<path d="" fill="#936946" transform="translate(0,0)"/>
<path d="" fill="#844F32" transform="translate(0,0)"/>
<path d="" fill="#865133" transform="translate(0,0)"/>
<path d="" fill="#8F5F3F" transform="translate(0,0)"/>
<path d="" fill="#8D5E3E" transform="translate(0,0)"/>
<path d="" fill="#906745" transform="translate(0,0)"/>
<path d="" fill="#814F33" transform="translate(0,0)"/>
<path d="" fill="#834D32" transform="translate(0,0)"/>
<path d="" fill="#8F5C3C" transform="translate(0,0)"/>
<path d="" fill="#8D5E3E" transform="translate(0,0)"/>
<path d="" fill="#8F633E" transform="translate(0,0)"/>
<path d="" fill="#8C6141" transform="translate(0,0)"/>
<path d="" fill="#926441" transform="translate(0,0)"/>
<path d="" fill="#8F623E" transform="translate(0,0)"/>
<path d="" fill="#926944" transform="translate(0,0)"/>
<path d="" fill="#906845" transform="translate(0,0)"/>
<path d="" fill="#8E6742" transform="translate(0,0)"/>
<path d="" fill="#8F613F" transform="translate(0,0)"/>
<path d="" fill="#824D31" transform="translate(0,0)"/>
<path d="" fill="#8E6540" transform="translate(0,0)"/>
<path d="" fill="#8F613F" transform="translate(0,0)"/>
<path d="" fill="#834F34" transform="translate(0,0)"/>
<path d="" fill="#926640" transform="translate(0,0)"/>
<path d="" fill="#875C3D" transform="translate(0,0)"/>
<path d="" fill="#8F5D3E" transform="translate(0,0)"/>
<path d="" fill="#936140" transform="translate(0,0)"/>
<path d="" fill="#8F623E" transform="translate(0,0)"/>
<path d="" fill="#91633E" transform="translate(0,0)"/>
<path d="" fill="#875737" transform="translate(0,0)"/>
<path d="" fill="#814F34" transform="translate(0,0)"/>
<path d="" fill="#865035" transform="translate(0,0)"/>
<path d="" fill="#845133" transform="translate(0,0)"/>
<path d="" fill="#6C4229" transform="translate(0,0)"/>
<path d="" fill="#845034" transform="translate(0,0)"/>
<path d="" fill="#7E4B31" transform="translate(0,0)"/>
<path d="" fill="#824E32" transform="translate(0,0)"/>
<path d="" fill="#864E33" transform="translate(0,0)"/>
<path d="" fill="#865135" transform="translate(0,0)"/>
<path d="" fill="#855235" transform="translate(0,0)"/>
<path d="" fill="#825036" transform="translate(0,0)"/>
<path d="" fill="#845135" transform="translate(0,0)"/>
<path d="" fill="#8B5238" transform="translate(0,0)"/>
<path d="" fill="#854F34" transform="translate(0,0)"/>
<path d="" fill="#8C5437" transform="translate(0,0)"/>
<path d="" fill="#8C5336" transform="translate(0,0)"/>
<path d="" fill="#8A5236" transform="translate(0,0)"/>
<path d="" fill="#8B5438" transform="translate(0,0)"/>
<path d="" fill="#8B5336" transform="translate(0,0)"/>
<path d="" fill="#8B5337" transform="translate(0,0)"/>
<path d="" fill="#7A4B2E" transform="translate(0,0)"/>
<path d="" fill="#925739" transform="translate(0,0)"/>
<path d="" fill="#8D563A" transform="translate(0,0)"/>
<path d="" fill="#8A5639" transform="translate(0,0)"/>
<path d="" fill="#8F553A" transform="translate(0,0)"/>
<path d="" fill="#925539" transform="translate(0,0)"/>
<path d="" fill="#8B553A" transform="translate(0,0)"/>
<path d="" fill="#90553A" transform="translate(0,0)"/>
<path d="" fill="#8D5438" transform="translate(0,0)"/>
<path d="" fill="#895035" transform="translate(0,0)"/>
<path d="" fill="#8E573A" transform="translate(0,0)"/>
<path d="" fill="#895237" transform="translate(0,0)"/>
<path d="" fill="#8C5439" transform="translate(0,0)"/>
<path d="" fill="#8B5139" transform="translate(0,0)"/>
<path d="" fill="#8A5037" transform="translate(0,0)"/>
<path d="" fill="#875236" transform="translate(0,0)"/>
<path d="" fill="#844E35" transform="translate(0,0)"/>
<path d="" fill="#8A5437" transform="translate(0,0)"/>
<path d="" fill="#885036" transform="translate(0,0)"/>
<path d="" fill="#865032" transform="translate(0,0)"/>
<path d="" fill="#834D34" transform="translate(0,0)"/>
<path d="" fill="#834E32" transform="translate(0,0)"/>
<path d="" fill="#7F4C31" transform="translate(0,0)"/>
<path d="" fill="#854D33" transform="translate(0,0)"/>
<path d="" fill="#854C32" transform="translate(0,0)"/>
<path d="" fill="#804C33" transform="translate(0,0)"/>
<path d="" fill="#854B32" transform="translate(0,0)"/>
<path d="" fill="#824E32" transform="translate(0,0)"/>
<path d="" fill="#854B31" transform="translate(0,0)"/>
<path d="" fill="#874D34" transform="translate(0,0)"/>
<path d="" fill="#874F34" transform="translate(0,0)"/>
<path d="" fill="#824D32" transform="translate(0,0)"/>
<path d="" fill="#834B33" transform="translate(0,0)"/>
<path d="" fill="#864D34" transform="translate(0,0)"/>
<path d="" fill="#854D33" transform="translate(0,0)"/>
<path d="" fill="#814A2F" transform="translate(0,0)"/>
<path d="" fill="#834C32" transform="translate(0,0)"/>
<path d="" fill="#804D32" transform="translate(0,0)"/>
<path d="" fill="#844E34" transform="translate(0,0)"/>
<path d="" fill="#824B32" transform="translate(0,0)"/>
<path d="" fill="#7F4931" transform="translate(0,0)"/>
<path d="" fill="#854A30" transform="translate(0,0)"/>
<path d="" fill="#844E30" transform="translate(0,0)"/>
<path d="" fill="#834C31" transform="translate(0,0)"/>
<path d="" fill="#804930" transform="translate(0,0)"/>
<path d="" fill="#814B30" transform="translate(0,0)"/>
<path d="" fill="#804A32" transform="translate(0,0)"/>
<path d="" fill="#804B30" transform="translate(0,0)"/>
<path d="" fill="#7E4930" transform="translate(0,0)"/>
<path d="" fill="#874D34" transform="translate(0,0)"/>
<path d="" fill="#854B33" transform="translate(0,0)"/>
<path d="" fill="#814A31" transform="translate(0,0)"/>
<path d="" fill="#875134" transform="translate(0,0)"/>
<path d="" fill="#7D462D" transform="translate(0,0)"/>
<path d="" fill="#875235" transform="translate(0,0)"/>
<path d="" fill="#7F4B30" transform="translate(0,0)"/>
<path d="" fill="#814930" transform="translate(0,0)"/>
<path d="" fill="#834A33" transform="translate(0,0)"/>
<path d="" fill="#884E34" transform="translate(0,0)"/>
<path d="" fill="#824C31" transform="translate(0,0)"/>
<path d="" fill="#814D33" transform="translate(0,0)"/>
<path d="" fill="#844D32" transform="translate(0,0)"/>
<path d="" fill="#804B31" transform="translate(0,0)"/>
<path d="" fill="#845132" transform="translate(0,0)"/>
<path d="" fill="#854D34" transform="translate(0,0)"/>
<path d="" fill="#865337" transform="translate(0,0)"/>
<path d="" fill="#864D34" transform="translate(0,0)"/>
<path d="" fill="#804E33" transform="translate(0,0)"/>
<path d="" fill="#844E33" transform="translate(0,0)"/>
<path d="" fill="#854E35" transform="translate(0,0)"/>
<path d="" fill="#855036" transform="translate(0,0)"/>
<path d="" fill="#844F31" transform="translate(0,0)"/>
<path d="" fill="#885235" transform="translate(0,0)"/>
<path d="" fill="#8B5435" transform="translate(0,0)"/>
<path d="" fill="#845134" transform="translate(0,0)"/>
<path d="" fill="#854D33" transform="translate(0,0)"/>
<path d="" fill="#845033" transform="translate(0,0)"/>
<path d="" fill="#824C32" transform="translate(0,0)"/>
<path d="" fill="#854E30" transform="translate(0,0)"/>
<path d="" fill="#93593C" transform="translate(0,0)"/>
<path d="" fill="#854F31" transform="translate(0,0)"/>
<path d="" fill="#875034" transform="translate(0,0)"/>
<path d="" fill="#2E1709" transform="translate(0,0)"/>
<path d="" fill="#874F35" transform="translate(0,0)"/>
<path d="" fill="#824D32" transform="translate(0,0)"/>
<path d="" fill="#875036" transform="translate(0,0)"/>
<path d="" fill="#885337" transform="translate(0,0)"/>
<path d="" fill="#804C33" transform="translate(0,0)"/>
<path d="" fill="#7F4D32" transform="translate(0,0)"/>
<path d="" fill="#804A30" transform="translate(0,0)"/>
<path d="" fill="#875035" transform="translate(0,0)"/>
<path d="" fill="#844E35" transform="translate(0,0)"/>
<path d="" fill="#884D34" transform="translate(0,0)"/>
<path d="" fill="#884F35" transform="translate(0,0)"/>
<path d="" fill="#854F33" transform="translate(0,0)"/>
<path d="" fill="#834E33" transform="translate(0,0)"/>
<path d="" fill="#8A5031" transform="translate(0,0)"/>
<path d="" fill="#854F32" transform="translate(0,0)"/>
<path d="" fill="#7E4931" transform="translate(0,0)"/>
<path d="" fill="#864D34" transform="translate(0,0)"/>
<path d="" fill="#814E34" transform="translate(0,0)"/>
<path d="" fill="#834E33" transform="translate(0,0)"/>
<path d="" fill="#844E34" transform="translate(0,0)"/>
<path d="" fill="#844C33" transform="translate(0,0)"/>
<path d="" fill="#834B33" transform="translate(0,0)"/>
<path d="" fill="#804B33" transform="translate(0,0)"/>
<path d="" fill="#835034" transform="translate(0,0)"/>
<path d="" fill="#7B4A32" transform="translate(0,0)"/>
<path d="" fill="#894F34" transform="translate(0,0)"/>
<path d="" fill="#895038" transform="translate(0,0)"/>
<path d="" fill="#844E33" transform="translate(0,0)"/>
<path d="" fill="#834E33" transform="translate(0,0)"/>
<path d="" fill="#854E34" transform="translate(0,0)"/>
<path d="" fill="#7C492F" transform="translate(0,0)"/>
<path d="" fill="#8C5136" transform="translate(0,0)"/>
<path d="" fill="#8C5136" transform="translate(0,0)"/>
<path d="" fill="#814D34" transform="translate(0,0)"/>
<path d="" fill="#855135" transform="translate(0,0)"/>
<path d="" fill="#864F36" transform="translate(0,0)"/>
<path d="" fill="#854F33" transform="translate(0,0)"/>
<path d="" fill="#875135" transform="translate(0,0)"/>
<path d="" fill="#874F35" transform="translate(0,0)"/>
<path d="" fill="#905137" transform="translate(0,0)"/>
<path d="" fill="#8A5035" transform="translate(0,0)"/>
<path d="" fill="#8A5336" transform="translate(0,0)"/>
<path d="" fill="#8C5336" transform="translate(0,0)"/>
<path d="" fill="#885137" transform="translate(0,0)"/>
<path d="" fill="#875335" transform="translate(0,0)"/>
<path d="" fill="#704228" transform="translate(0,0)"/>
<path d="" fill="#925439" transform="translate(0,0)"/>
<path d="" fill="#92563C" transform="translate(0,0)"/>
<path d="" fill="#93583C" transform="translate(0,0)"/>
<path d="" fill="#92563C" transform="translate(0,0)"/>
<path d="" fill="#93553C" transform="translate(0,0)"/>
<path d="" fill="#8B523A" transform="translate(0,0)"/>
<path d="" fill="#8F553C" transform="translate(0,0)"/>
<path d="" fill="#91563B" transform="translate(0,0)"/>
<path d="" fill="#90563C" transform="translate(0,0)"/>
<path d="" fill="#90583D" transform="translate(0,0)"/>
<path d="" fill="#91583D" transform="translate(0,0)"/>
<path d="" fill="#754229" transform="translate(0,0)"/>
<path d="" fill="#94573C" transform="translate(0,0)"/>
<path d="" fill="#955A3E" transform="translate(0,0)"/>
<path d="" fill="#894F35" transform="translate(0,0)"/>
<path d="" fill="#7B472C" transform="translate(0,0)"/>
<path d="" fill="#844D30" transform="translate(0,0)"/>
<path d="" fill="#8C5236" transform="translate(0,0)"/>
</svg>
