<?xml version="1.0" encoding="UTF-8"?>
<!-- Generator: visioncortex VTracer 0.6.12 -->
<svg version="1.1" xmlns="http://www.w3.org/2000/svg" width="1024" height="1024">
<path d="M0 0 C1.05 -0.001 2.101 -0.002 3.183 -0.003 C5.385 -0.004 7.586 -0.002 9.788 0.002 C13.174 0.008 16.56 0.002 19.945 -0.004 C22.089 -0.003 24.232 -0.002 26.375 0 C27.392 -0.002 28.408 -0.004 29.455 -0.006 C30.387 -0.003 31.319 0 32.279 0.003 C33.103 0.004 33.926 0.005 34.774 0.006 C36.656 0.133 36.656 0.133 37.656 1.133 C39.074 1.441 40.502 1.697 41.934 1.93 C42.831 2.081 43.727 2.232 44.652 2.388 C45.623 2.551 46.593 2.715 47.594 2.883 C69.659 6.777 89.482 13.447 108.656 25.133 C109.093 25.388 109.093 25.388 111.301 26.68 C113.126 27.766 114.9 28.938 116.656 30.133 C116.656 30.793 116.656 31.453 116.656 32.133 C117.288 32.061 117.92 31.988 118.57 31.914 C132.334 30.486 147.078 30.124 160.656 33.133 C160.656 33.793 160.656 34.453 160.656 35.133 C161.192 35.196 161.729 35.259 162.281 35.324 C175.028 37.316 186.606 43.83 197.604 50.287 C202.468 53.133 202.468 53.133 204.656 53.133 C205.754 54.266 206.851 55.402 207.941 56.543 C210.003 58.455 212.218 59.972 214.531 61.57 C233.933 75.448 248.942 94.097 261.844 113.945 C262.231 114.538 262.617 115.131 263.016 115.741 C265.656 119.885 265.656 119.885 265.656 122.133 C266.316 122.463 266.976 122.793 267.656 123.133 C268.672 125.46 269.671 127.793 270.656 130.133 C271.316 130.793 271.976 131.453 272.656 132.133 C273.426 133.707 274.14 135.308 274.82 136.922 C275.22 137.863 275.62 138.804 276.031 139.773 C276.237 140.266 276.237 140.266 277.281 142.758 C277.701 143.75 278.122 144.743 278.555 145.766 C279.593 148.22 280.627 150.675 281.656 153.133 C282.316 153.133 282.976 153.133 283.656 153.133 C283.703 153.684 283.703 153.684 283.941 156.473 C284.607 161.79 286.328 166.656 288.094 171.695 C288.719 173.509 289.343 175.322 289.965 177.137 C290.259 177.99 290.552 178.844 290.855 179.723 C291.565 181.858 292.212 183.994 292.816 186.16 C293.656 189.133 293.656 189.133 294.656 191.133 C294.993 192.717 295.292 194.31 295.57 195.906 C295.745 196.899 295.919 197.891 296.099 198.913 C296.283 199.976 296.467 201.038 296.656 202.133 C296.843 203.182 297.029 204.232 297.222 205.313 C300.134 221.776 302.543 238.209 304.312 254.833 C304.388 255.515 304.464 256.198 304.542 256.901 C304.749 258.755 304.945 260.611 305.141 262.466 C305.311 263.346 305.481 264.226 305.656 265.133 C306.316 265.463 306.976 265.793 307.656 266.133 C307.627 266.482 307.627 266.482 307.48 268.246 C306.742 285.522 310.937 303.531 316.543 319.801 C317.41 322.397 318.04 324.834 318.613 327.496 C318.957 328.696 319.302 329.896 319.656 331.133 C320.646 331.463 321.636 331.793 322.656 332.133 C321.996 332.133 321.336 332.133 320.656 332.133 C326.176 342.655 331.676 352.266 339.656 361.133 C340.332 361.927 341.007 362.721 341.703 363.539 C346.331 368.97 346.331 368.97 348.656 370.133 C348.656 370.793 348.656 371.453 348.656 372.133 C349.221 372.378 349.785 372.623 350.367 372.875 C353.069 374.36 355.029 376.152 357.281 378.258 C360.651 381.351 364.059 384.307 367.656 387.133 C390.396 405.074 410.373 426.819 414.344 456.57 C414.471 458.089 414.574 459.611 414.656 461.133 C414.709 462.073 414.762 463.012 414.816 463.98 C415.507 488.2 406.112 507.787 391.92 526.907 C385.939 535.113 382.096 542.776 383.656 553.133 C385.644 557.506 388.219 560.187 392.508 562.453 C396.783 563.806 401.23 563.421 405.656 563.133 C405.986 562.473 406.316 561.813 406.656 561.133 C410.593 561.695 413.563 562.57 416.656 565.133 C417.281 568.008 417.281 568.008 416.656 571.133 C412.911 576.376 407.567 578.172 401.656 580.133 C401.062 580.331 400.468 580.53 399.855 580.734 C396.429 581.355 393.001 581.279 389.531 581.258 C389.152 581.257 389.152 581.257 387.233 581.254 C382.308 581.22 377.5 580.888 372.609 580.289 C370.148 580.092 368.024 580.467 365.656 581.133 C364.996 581.133 364.336 581.133 363.656 581.133 C363.656 579.813 363.656 578.493 363.656 577.133 C362.996 576.803 362.336 576.473 361.656 576.133 C360.303 574.82 358.968 573.488 357.656 572.133 C357.656 572.793 357.656 573.453 357.656 574.133 C358.316 574.133 358.976 574.133 359.656 574.133 C359.986 576.113 360.316 578.093 360.656 580.133 C361.316 580.133 361.976 580.133 362.656 580.133 C362.326 580.793 361.996 581.453 361.656 582.133 C360.996 581.803 360.336 581.473 359.656 581.133 C363.879 590.252 367.573 598.202 376.656 603.133 C376.986 603.793 377.316 604.453 377.656 605.133 C379.781 606.133 379.781 606.133 382.656 607.133 C383.646 607.504 384.636 607.875 385.656 608.258 C392.508 610.162 400.304 609.667 407.219 608.32 C410.656 608.133 410.656 608.133 413.219 610.195 C415.077 613.993 415.02 615.118 413.656 619.133 C406.318 633.909 394.287 644.739 378.656 650.133 C368.051 653.001 358.558 653.433 347.656 652.133 C347.656 652.463 347.656 652.793 347.656 653.133 C343.096 653.503 343.096 653.503 341.094 651.82 C340.619 651.263 340.145 650.707 339.656 650.133 C336.562 647.572 333.275 645.86 329.656 644.133 C326.949 646.84 326.74 649.764 325.969 653.383 C322.632 667.534 315.896 678.91 305.656 689.133 C304.996 689.133 304.336 689.133 303.656 689.133 C303.326 690.123 302.996 691.113 302.656 692.133 C285.681 705.133 268.471 708.133 247.656 708.133 C246.666 707.803 245.676 707.473 244.656 707.133 C243.969 705.508 243.969 705.508 243.656 703.133 C243.512 702.122 243.367 701.112 243.219 700.07 C243.759 695.206 245.673 692.239 248.121 688.066 C250.444 683.628 251.582 679.003 252.656 674.133 C252.347 674.452 252.347 674.452 250.781 676.07 C249.017 677.854 247.212 679.515 245.309 681.152 C231.575 692.98 231.575 692.98 230.348 701.199 C230.017 707.595 231.27 711.018 235.246 716.027 C236.865 718.444 237.385 720.247 237.656 723.133 C234.983 727.264 231.083 728.201 226.582 729.52 C224.656 730.133 224.656 730.133 223.656 731.133 C221.82 731.095 219.986 730.978 218.156 730.82 C217.156 730.742 216.156 730.663 215.125 730.582 C214.31 730.434 213.496 730.286 212.656 730.133 C212.326 729.473 211.996 728.813 211.656 728.133 C209.532 727.344 207.38 726.627 205.219 725.945 C198.504 723.708 193.225 720.534 187.656 716.133 C186.325 715.131 184.992 714.13 183.656 713.133 C182.996 713.463 182.336 713.793 181.656 714.133 C181.986 712.813 182.316 711.493 182.656 710.133 C181.336 709.473 180.016 708.813 178.656 708.133 C178.656 706.813 178.656 705.493 178.656 704.133 C178.017 704.772 177.378 705.412 176.719 706.07 C176.255 706.527 175.791 706.983 175.312 707.453 C174.115 708.668 172.952 709.918 171.812 711.188 C160.056 723.865 145.943 728.08 129.656 732.133 C129.301 732.237 129.301 732.237 127.5 732.766 C125.656 733.133 125.656 733.133 123.656 732.133 C123.426 732.68 123.195 733.227 122.957 733.791 C121.86 736.385 120.759 738.978 119.656 741.57 C119.253 742.52 118.849 743.47 118.433 744.448 C116.16 749.757 113.796 754.996 111.262 760.185 C107.135 768.634 103.934 776.509 104.656 786.133 C104.986 786.793 105.316 787.453 105.656 788.133 C106.02 787.564 106.383 786.996 106.758 786.41 C109.723 781.856 112.775 777.642 116.457 773.641 C117.656 772.133 117.656 772.133 118.656 769.133 C122.143 765.92 125.936 763.071 129.656 760.133 C130.395 759.506 131.134 758.88 131.895 758.234 C147.564 745.192 167.701 739.702 187.781 739.945 C188.801 739.946 189.821 739.947 190.871 739.947 C199.562 739.997 207.324 740.689 215.594 743.445 C215.988 743.576 215.988 743.576 217.98 744.234 C219.905 744.881 221.824 745.544 223.738 746.219 C224.784 746.582 225.829 746.946 226.906 747.32 C227.881 747.664 228.855 748.009 229.859 748.363 C232.606 749.119 234.826 749.283 237.656 749.133 C237.656 749.793 237.656 750.453 237.656 751.133 C238.461 751.69 239.265 752.247 240.094 752.82 C243.382 755.788 243.407 757.814 243.656 762.133 C242.996 762.133 242.336 762.133 241.656 762.133 C241.326 763.329 240.996 764.525 240.656 765.758 C234.183 785.026 219.407 802.825 202.965 814.32 C202.584 814.619 202.584 814.619 200.656 816.133 C200.656 816.793 200.656 817.453 200.656 818.133 C198.656 818.799 196.656 819.466 194.656 820.133 C192.648 821.117 190.647 822.115 188.656 823.133 C188.656 823.793 188.656 824.453 188.656 825.133 C187.666 824.803 186.676 824.473 185.656 824.133 C182.969 825.07 182.969 825.07 180.656 826.133 C181.689 829.438 183.123 831.801 185.281 834.445 C198.366 851.443 203.004 873.287 204.469 894.258 C204.522 894.944 204.575 895.63 204.63 896.337 C204.94 902.022 204.188 906.703 201.129 911.555 C197.269 914.018 193.565 913.557 189.094 913.383 C188.231 913.365 187.368 913.347 186.479 913.328 C184.878 913.293 183.278 913.25 181.677 913.196 C180.004 913.144 178.33 913.133 176.656 913.133 C176.986 912.803 177.316 912.473 177.656 912.133 C174.365 911.463 171.073 910.798 167.781 910.133 C166.844 909.942 165.907 909.751 164.941 909.555 C164.046 909.374 163.15 909.194 162.227 909.008 C161.399 908.84 160.572 908.673 159.719 908.5 C157.344 908.077 156.11 907.922 153.906 908.945 C151.656 909.133 151.656 909.133 148.906 906.883 C148.654 906.651 148.654 906.651 147.375 905.477 C144.443 903.184 141.168 902.303 137.656 901.133 C124.578 894.594 113.43 883.219 105.418 871.258 C104.837 870.557 104.255 869.855 103.656 869.133 C102.666 869.133 101.676 869.133 100.656 869.133 C100.326 867.483 99.996 865.833 99.656 864.133 C100.316 863.803 100.976 863.473 101.656 863.133 C100.892 860.901 100.12 858.673 99.344 856.445 C98.914 855.204 98.485 853.963 98.043 852.684 C96.826 849.567 95.478 846.927 93.656 844.133 C92.996 844.463 92.336 844.793 91.656 845.133 C91.326 843.813 90.996 842.493 90.656 841.133 C89.999 841.291 89.342 841.45 88.665 841.613 C84.947 842.255 81.274 842.364 77.512 842.449 C76.742 842.47 75.972 842.491 75.179 842.512 C72.734 842.577 70.289 842.636 67.844 842.695 C66.18 842.739 64.517 842.782 62.854 842.826 C58.788 842.933 54.722 843.034 50.656 843.133 C50.656 842.473 50.656 841.813 50.656 841.133 C48.346 841.133 46.036 841.133 43.656 841.133 C43.326 841.793 42.996 842.453 42.656 843.133 C35.906 841.383 35.906 841.383 33.656 839.133 C26.701 836.704 20.871 835.797 13.656 837.133 C12.996 836.803 12.336 836.473 11.656 836.133 C11.656 835.143 11.656 834.153 11.656 833.133 C5.372 829.805 0.77 828.681 -6.344 829.133 C-6.44 828.518 -6.537 827.903 -6.636 827.269 C-7.862 823.568 -11.626 822.402 -14.906 820.695 C-16.376 819.9 -17.844 819.103 -19.312 818.305 C-20.015 817.928 -20.718 817.551 -21.441 817.162 C-27.078 814.112 -32.037 810.754 -36.801 806.465 C-38.344 805.133 -38.344 805.133 -41.344 803.133 C-41.674 803.793 -42.004 804.453 -42.344 805.133 C-42.612 804.349 -42.88 803.565 -43.156 802.758 C-44.344 800.133 -44.344 800.133 -47.344 798.133 C-47.344 797.473 -47.344 796.813 -47.344 796.133 C-48.004 796.133 -48.664 796.133 -49.344 796.133 C-49.344 795.473 -49.344 794.813 -49.344 794.133 C-49.962 793.885 -50.581 793.638 -51.219 793.383 C-53.694 791.927 -54.295 790.755 -55.344 788.133 C-56.004 788.133 -56.664 788.133 -57.344 788.133 C-58.852 786.383 -58.852 786.383 -60.469 784.133 C-61.008 783.39 -61.546 782.648 -62.102 781.883 C-62.511 781.305 -62.921 780.728 -63.344 780.133 C-64.664 780.463 -65.984 780.793 -67.344 781.133 C-68.344 777.133 -68.344 777.133 -68.75 775.204 C-69.738 771.758 -71.922 768.955 -73.906 766.008 C-78.344 759.395 -78.344 759.395 -78.344 757.133 C-79.664 756.803 -80.984 756.473 -82.344 756.133 C-82.344 755.803 -82.344 755.473 -82.344 755.133 C-82.674 754.143 -83.004 753.153 -83.344 752.133 C-83.344 750.813 -83.344 749.493 -83.344 748.133 C-84.219 745.992 -84.219 745.992 -85.344 743.883 C-85.715 743.176 -86.086 742.47 -86.469 741.742 C-86.757 741.211 -87.046 740.68 -87.344 740.133 C-88.334 740.133 -89.324 740.133 -90.344 740.133 C-91.004 740.133 -91.664 740.133 -92.344 740.133 C-92.344 738.813 -92.344 737.493 -92.344 736.133 C-100.484 733.959 -107.909 732.676 -116.344 733.133 C-116.404 732.385 -116.465 731.638 -116.527 730.867 C-117.621 727.203 -119.225 726.431 -122.406 724.383 C-127.951 720.59 -132.137 716.341 -136.344 711.133 C-136.999 711.918 -137.653 712.703 -138.328 713.512 C-147.533 724.225 -157.87 731.709 -172.344 733.133 C-178.133 733.335 -183.645 733.273 -189.344 732.133 C-190.334 732.133 -191.324 732.133 -192.344 732.133 C-193.141 728.743 -193.658 725.616 -193.344 722.133 C-191.767 720.226 -190.098 719.054 -188.07 717.648 C-185.071 715.016 -184.939 711.966 -184.344 708.133 C-185.004 707.803 -185.664 707.473 -186.344 707.133 C-186.137 706.411 -185.931 705.689 -185.719 704.945 C-185.273 701.6 -185.686 700.053 -187.344 697.133 C-188.676 696.465 -190.01 695.799 -191.344 695.133 C-193.122 693.752 -194.87 692.331 -196.594 690.883 C-201.08 687.155 -205.635 683.574 -210.344 680.133 C-210.674 680.793 -211.004 681.453 -211.344 682.133 C-212.344 679.133 -212.344 679.133 -212.344 677.133 C-213.508 675.761 -214.727 674.435 -215.969 673.133 C-220.81 667.819 -225.053 662.004 -227.344 655.133 C-229.294 664.591 -227.001 672.87 -222.344 681.133 C-222.014 682.123 -221.684 683.113 -221.344 684.133 C-220.354 684.463 -219.364 684.793 -218.344 685.133 C-218.344 685.793 -218.344 686.453 -218.344 687.133 C-217.684 687.133 -217.024 687.133 -216.344 687.133 C-214.865 689.482 -214.316 690.768 -214.531 693.57 C-215.43 696.406 -216.782 698.612 -218.344 701.133 C-222.094 700.826 -225.844 700.511 -229.594 700.195 C-230.657 700.108 -231.721 700.021 -232.816 699.932 C-233.841 699.845 -234.866 699.758 -235.922 699.668 C-236.865 699.589 -237.807 699.511 -238.778 699.43 C-242.753 698.97 -244.967 698.384 -248.344 696.133 C-249.641 695.576 -250.955 695.056 -252.281 694.57 C-252.616 694.446 -252.616 694.446 -254.309 693.816 C-256.304 693.146 -258.296 692.614 -260.344 692.133 C-260.344 691.473 -260.344 690.813 -260.344 690.133 C-261.726 689.234 -263.11 688.337 -264.5 687.449 C-270.696 683.025 -275.159 677.371 -278.922 670.82 C-279.156 670.542 -279.156 670.542 -280.344 669.133 C-281.664 669.133 -282.984 669.133 -284.344 669.133 C-284.386 667.133 -284.385 665.132 -284.344 663.133 C-284.014 662.803 -283.684 662.473 -283.344 662.133 C-283.751 660.37 -284.222 658.622 -284.719 656.883 C-286.447 650.316 -287.027 643.899 -287.344 637.133 C-288.334 637.133 -289.324 637.133 -290.344 637.133 C-290.344 635.133 -290.344 635.133 -289.344 634.133 C-290.287 634.422 -291.231 634.71 -292.203 635.008 C-303.184 638.236 -312.746 638.66 -324.141 637.355 C-326.882 637.078 -329.591 637.06 -332.344 637.133 C-332.344 636.473 -332.344 635.813 -332.344 635.133 C-333.334 634.803 -334.324 634.473 -335.344 634.133 C-335.901 633.473 -336.457 632.813 -337.031 632.133 C-340.361 629.253 -343 629.422 -347.344 629.133 C-348.004 626.823 -348.664 624.513 -349.344 622.133 C-350.127 621.988 -350.911 621.844 -351.719 621.695 C-354.344 621.133 -354.344 621.133 -356.344 620.133 C-356.241 619.328 -356.137 618.524 -356.031 617.695 C-356.403 613.461 -357.846 611.214 -359.969 607.613 C-364.68 599.114 -367.668 589.312 -365.594 579.633 C-363.874 576.193 -362.607 574.746 -359.156 573.07 C-355.213 573.158 -353.42 575.069 -350.504 577.59 C-344.212 582.084 -336.746 581.843 -329.344 581.133 C-325.762 580.227 -322.443 579.17 -319.344 577.133 C-318.633 575.823 -317.961 574.49 -317.344 573.133 C-316.539 572.7 -315.735 572.267 -314.906 571.82 C-311.306 569.45 -310.613 567.209 -309.344 563.133 C-308.8 559.208 -308.998 555.97 -310.531 552.258 C-312.679 549.739 -314.138 548.915 -317.344 548.133 C-318.679 548.457 -320.013 548.789 -321.344 549.133 C-323.594 548.195 -323.594 548.195 -325.344 547.133 C-325.344 546.473 -325.344 545.813 -325.344 545.133 C-327.281 544.319 -329.218 543.507 -331.156 542.695 C-332.235 542.243 -333.314 541.79 -334.426 541.324 C-336.373 540.529 -338.348 539.798 -340.344 539.133 C-341.031 537.81 -341.694 536.475 -342.344 535.133 C-343.629 533.713 -344.967 532.339 -346.344 531.008 C-347.045 530.325 -347.746 529.641 -348.469 528.938 C-349.087 528.342 -349.706 527.746 -350.344 527.133 C-351.004 526.473 -351.664 525.813 -352.344 525.133 C-354.469 524.508 -354.469 524.508 -356.344 524.133 C-356.261 523.143 -356.179 522.153 -356.094 521.133 C-356.056 516.499 -358.061 513.056 -360.344 509.133 C-361.004 509.133 -361.664 509.133 -362.344 509.133 C-362.933 505.765 -363.443 502.403 -363.844 499.008 C-364.344 495.133 -364.344 495.133 -364.862 493.208 C-368.152 479.027 -366.116 459.459 -360.344 446.133 C-361.004 445.803 -361.664 445.473 -362.344 445.133 C-361.354 445.133 -360.364 445.133 -359.344 445.133 C-359.074 444.267 -358.805 443.4 -358.527 442.508 C-353.293 427.582 -342.789 414.804 -331.344 404.133 C-330.684 403.473 -330.024 402.813 -329.344 402.133 C-325.44 398.717 -321.47 395.42 -317.406 392.195 C-293.23 372.943 -275.292 350.558 -268.344 320.133 C-268.889 320.012 -269.434 319.89 -269.996 319.766 C-275.445 318.555 -280.895 317.344 -286.344 316.133 C-286.014 315.473 -285.684 314.813 -285.344 314.133 C-287.654 313.803 -289.964 313.473 -292.344 313.133 C-292.014 312.143 -291.684 311.153 -291.344 310.133 C-292.947 308.84 -294.551 307.548 -296.156 306.258 C-297.05 305.539 -297.943 304.819 -298.863 304.078 C-301.344 302.133 -301.344 302.133 -304.344 300.133 C-304.344 299.473 -304.344 298.813 -304.344 298.133 C-304.674 297.803 -305.004 297.473 -305.344 297.133 C-306.334 298.453 -307.324 299.773 -308.344 301.133 C-308.344 298.466 -308.344 295.799 -308.344 293.133 C-309.301 291.236 -310.308 289.363 -311.344 287.508 C-311.901 286.505 -312.457 285.502 -313.031 284.469 C-313.248 284.083 -313.248 284.083 -314.344 282.133 C-315.004 282.133 -315.664 282.133 -316.344 282.133 C-316.447 280.937 -316.55 279.74 -316.656 278.508 C-317.221 273.022 -318.606 267.788 -320.016 262.465 C-320.419 258.369 -319.575 256.543 -317.344 253.133 C-314.344 251.133 -314.344 251.133 -311.844 251.445 C-306.56 252.898 -306.56 252.898 -304.156 255.508 C-300.086 259.306 -295.894 260.973 -290.344 261.32 C-290.014 261.289 -290.014 261.289 -288.344 261.133 C-288.344 261.463 -288.344 261.793 -288.344 262.133 C-283.62 262.784 -279.124 263.252 -274.344 263.133 C-274.344 262.473 -274.344 261.813 -274.344 261.133 C-273.684 261.463 -273.024 261.793 -272.344 262.133 C-270.011 262.173 -267.677 262.176 -265.344 262.133 C-263.763 259.268 -262.97 256.809 -262.492 253.578 C-262.363 252.716 -262.234 251.853 -262.102 250.965 C-261.975 250.072 -261.849 249.178 -261.719 248.258 C-261.585 247.372 -261.451 246.487 -261.312 245.574 C-260.788 241.982 -260.338 238.574 -260.383 234.938 C-260.334 231.415 -259.327 228.514 -258.344 225.133 C-257.853 222.965 -257.384 220.793 -256.934 218.617 C-251.663 193.793 -244.633 169.963 -233.344 147.133 C-232.956 146.345 -232.568 145.557 -232.169 144.746 C-223.351 127.012 -213.056 110.336 -200.344 95.133 C-199.854 94.541 -199.364 93.95 -198.859 93.34 C-190.096 82.792 -180.82 73.011 -170.344 64.133 C-169.01 62.987 -167.677 61.841 -166.344 60.695 C-165.354 59.85 -164.364 59.004 -163.344 58.133 C-163.674 57.143 -164.004 56.153 -164.344 55.133 C-163.789 55.37 -163.235 55.607 -162.664 55.852 C-159.21 56.27 -157.914 54.739 -155.219 52.633 C-125.457 29.671 -74.617 2.269 -35.344 4.133 C-35.014 3.473 -34.684 2.813 -34.344 2.133 C-31.5 1.754 -31.5 1.754 -27.844 1.57 C-23.975 1.364 -20.15 1.122 -16.309 0.626 C-10.868 0.013 -5.47 -0.011 0 0 Z M104.656 334.133 C102.276 337.193 102.307 340.482 102.391 344.23 C102.756 346.849 103.809 348.285 105.656 350.133 C105.986 350.463 106.316 350.793 106.656 351.133 C108.781 352.383 108.781 352.383 111.656 353.133 C115.909 351.96 118.044 350.974 120.656 347.383 C121.833 343.559 121.508 341.006 120.656 337.133 C119.666 337.133 118.676 337.133 117.656 337.133 C117.986 336.143 118.316 335.153 118.656 334.133 C113.28 330.549 109.96 330.225 104.656 334.133 Z M-85.344 333.133 C-87.294 334.747 -88.214 335.873 -89.344 338.133 C-89.688 343.38 -89.912 346.95 -86.344 351.133 C-83.434 352.863 -81.669 353.139 -78.281 353.07 C-74.366 351.821 -73.276 350.774 -71.344 347.133 C-71.025 343.771 -71.109 340.498 -71.344 337.133 C-71.674 337.133 -72.004 337.133 -72.344 337.133 C-72.344 338.783 -72.344 340.433 -72.344 342.133 C-72.674 341.143 -73.004 340.153 -73.344 339.133 C-74.004 338.803 -74.664 338.473 -75.344 338.133 C-75.344 337.143 -75.344 336.153 -75.344 335.133 C-75.674 334.143 -76.004 333.153 -76.344 332.133 C-80.169 330.858 -81.678 331.605 -85.344 333.133 Z M-73.344 335.133 C-72.344 337.133 -72.344 337.133 -72.344 337.133 Z M-362.344 504.133 C-361.344 506.133 -361.344 506.133 -361.344 506.133 Z M357.656 576.133 C358.656 579.133 358.656 579.133 358.656 579.133 Z M358.656 579.133 C359.656 581.133 359.656 581.133 359.656 581.133 Z M252.656 672.133 C253.656 674.133 253.656 674.133 253.656 674.133 Z M214.656 728.133 C214.656 728.463 214.656 728.793 214.656 729.133 C216.966 729.463 219.276 729.793 221.656 730.133 C221.656 729.473 221.656 728.813 221.656 728.133 C219.346 728.133 217.036 728.133 214.656 728.133 Z M15.656 834.133 C16.316 834.793 16.976 835.453 17.656 836.133 C17.656 835.473 17.656 834.813 17.656 834.133 C16.996 834.133 16.336 834.133 15.656 834.133 Z M38.656 840.133 C38.656 840.463 38.656 840.793 38.656 841.133 C40.306 841.133 41.956 841.133 43.656 841.133 C43.656 840.803 43.656 840.473 43.656 840.133 C42.006 840.133 40.356 840.133 38.656 840.133 Z M91.656 840.133 C91.986 840.793 92.316 841.453 92.656 842.133 C92.986 841.473 93.316 840.813 93.656 840.133 C92.996 840.133 92.336 840.133 91.656 840.133 Z M94.656 840.133 C95.656 842.133 95.656 842.133 95.656 842.133 Z " fill="#3E2510" transform="translate(484.34375,58.8671875)"/>
<path d="M0 0 C0.773 0.001 1.546 0.003 2.342 0.004 C37.992 0.115 79.383 6.821 105.75 33.188 C109.456 33.313 112.791 33.362 116.441 32.699 C143.855 28.459 170.673 38.36 192.75 54.188 C214.391 70.099 230.785 89.381 244.75 112.188 C245.178 112.884 245.606 113.581 246.047 114.299 C253.902 127.267 259.463 141.009 264.75 155.188 C264.886 155.546 264.886 155.546 265.574 157.362 C268.607 165.452 270.744 173.747 272.812 182.125 C273.046 183.058 273.28 183.992 273.521 184.953 C278.639 206.451 281.04 228.519 283.677 250.423 C288.438 289.775 288.438 289.775 293.938 306.312 C294.232 307.212 294.527 308.112 294.831 309.039 C301.514 328.758 311.294 345.176 325.75 360.188 C326.182 360.64 326.182 360.64 328.371 362.93 C333.603 368.288 339.014 373.202 344.863 377.875 C349.736 381.779 354.487 385.824 359.226 389.888 C360.611 391.069 362.01 392.233 363.41 393.395 C379.071 406.772 390.251 424.522 392.75 445.188 C394.23 469.259 385.111 487.433 371.898 506.918 C364.546 518.009 361.187 527.683 362.75 541.188 C363.768 544.299 364.953 546.41 366.75 549.188 C367.08 549.847 367.41 550.508 367.75 551.188 C361.645 550.615 356.73 547.114 352.438 542.938 C347.77 535.33 347.368 527.989 347.598 519.242 C347.626 516.924 347.654 514.607 347.682 512.289 C347.744 508.682 347.812 505.075 347.887 501.469 C348.386 475.36 348.386 475.36 343.75 463.188 C343.452 462.382 343.154 461.577 342.847 460.748 C342.047 458.771 341.168 456.894 340.188 455 C339.852 454.341 339.516 453.683 339.17 453.004 C335.424 446.037 330.418 440.635 324.75 435.188 C324.032 434.473 323.314 433.759 322.574 433.023 C315.12 425.976 305.529 418.584 295.75 415.188 C297.311 419.772 299.121 422.792 302.441 426.332 C322.498 448.486 333.712 475.48 333.996 505.254 C334.029 507.62 334.062 509.987 334.096 512.354 C334.143 516.044 334.187 519.734 334.227 523.424 C334.508 548.56 335.079 573.837 353.008 593.531 C362.902 602.937 374.284 606.657 387.75 607.188 C380.874 616.003 371.975 622.383 360.75 624.188 C346.407 625.146 334.58 622.848 322.75 614.188 C320.12 611.835 317.567 609.442 315.074 606.945 C312.317 604.86 311.105 605.031 307.75 605.188 C307.741 605.907 307.731 606.627 307.722 607.368 C307.288 633.927 307.288 633.927 302.75 644.188 C302.401 645.058 302.051 645.928 301.691 646.824 C298.639 653.722 294.043 658.885 288.75 664.188 C288.184 664.765 287.618 665.342 287.035 665.938 C278.351 674.091 265.736 678.968 253.871 679.258 C253.521 679.246 253.521 679.246 251.75 679.188 C251.932 678.651 252.114 678.115 252.301 677.562 C255.501 667.585 257.776 657.36 257.905 646.867 C258.032 638.658 259.823 632.857 263.591 625.58 C267.461 618.074 269.66 610.343 271.75 602.188 C271.985 601.28 272.219 600.372 272.461 599.438 C279.348 570.694 272.551 541.38 258.02 516.188 C254.329 510.452 250.163 505.12 245.988 499.733 C235.145 485.709 226.402 472.253 220.348 455.521 C220.198 455.116 220.198 455.116 219.441 453.062 C219.186 452.338 218.93 451.614 218.666 450.867 C217.75 449.188 217.75 449.188 214.75 448.188 C213.028 469.285 226.729 489.181 238.75 505.188 C258.919 532.06 268.221 556.887 264.434 591.041 C263.631 595.912 262.327 600.514 260.75 605.188 C260.388 606.291 260.026 607.394 259.652 608.531 C252.182 629.397 240.946 645.744 224.882 660.909 C217.759 667.74 210.234 676.23 209.605 686.562 C209.529 691.211 209.789 695.622 210.75 700.188 C201.974 699.895 194.124 697.225 187.57 691.176 C182.145 684.691 179.814 677.161 177.625 669.125 C176.75 666.188 176.75 666.188 174.75 664.188 C172.438 664.062 172.438 664.062 169.75 665.188 C167.74 667.653 166.281 670.407 164.75 673.188 C156.207 688.091 146.252 697.197 129.266 701.871 C125.599 702.74 122.554 703.188 118.75 703.188 C118.883 702.533 119.016 701.878 119.152 701.203 C122.783 682.44 124.756 659.084 117.238 641.02 C116.31 637.537 117.797 635.09 119.312 631.938 C121.446 626.937 121.574 622.717 119.906 617.598 C116.948 610.792 116.948 610.792 113.707 609.156 C113.353 609.038 113.353 609.038 111.562 608.438 C109.488 607.656 109.488 607.656 107.75 606.188 C106.426 601.56 106.006 596.983 105.75 592.188 C108.255 594.679 110.743 597.18 113.188 599.73 C121.313 608.116 129.954 615.541 140.125 621.375 C143.96 623.578 146.695 625.982 149.707 629.188 C152.397 631.821 155.282 634.127 158.25 636.438 C158.784 636.862 159.318 637.286 159.868 637.724 C167.183 643.343 173.693 645.198 182.75 644.188 C186.548 642.733 187.458 641.76 189.312 638.125 C192.684 634.061 195.571 634.292 200.645 633.668 C207.688 632.578 213.827 629.34 218.75 624.188 C223.313 617.407 223.709 610.146 222.75 602.188 C219.982 591.494 211.896 584.624 202.75 579.188 C199.575 577.613 196.331 576.242 193.062 574.875 C173.996 566.515 158.701 554.39 145.879 537.918 C143.466 534.823 140.93 531.853 138.375 528.875 C134.573 524.418 130.906 519.877 127.312 515.25 C116.082 500.88 104.846 487.34 88.75 478.188 C91.658 476.606 94.358 475.692 97.582 474.961 C98.534 474.738 99.485 474.516 100.466 474.286 C101.488 474.047 102.51 473.809 103.562 473.562 C134.617 465.989 170.495 453.187 188.476 424.658 C191.065 420.359 193.484 416.179 195.109 411.414 C196.372 407.883 197.414 405.129 199.75 402.188 C203.555 400.915 206.928 400.626 210.93 400.418 C221.819 399.761 233.564 393.497 241.02 385.562 C250.813 372.121 254.28 357.633 252.75 341.188 C250.776 330.642 246.248 321.205 237.715 314.465 C230.397 309.708 222.275 308.301 213.75 307.188 C213.577 305.105 213.412 303.021 213.25 300.938 C213.157 299.777 213.064 298.617 212.969 297.422 C212.619 292.016 212.71 286.601 212.75 281.188 C213.471 281.203 214.191 281.219 214.934 281.235 C218.227 281.298 221.519 281.337 224.812 281.375 C225.379 281.388 225.379 281.388 228.248 281.451 C239.607 281.551 239.607 281.551 244.75 278.188 C245.867 275.727 245.867 275.727 245.75 273.188 C244.633 271.336 244.633 271.336 242.875 269.562 C242.55 269.215 242.55 269.215 240.902 267.457 C240.192 266.708 239.482 265.959 238.75 265.188 C219.193 243.397 208.523 214.658 197.812 187.863 C197.331 186.663 196.849 185.463 196.353 184.226 C195.437 181.936 194.529 179.643 193.63 177.346 C191.187 171.231 188.448 165.672 184.88 160.131 C183.75 158.188 183.75 158.188 183.75 156.188 C182.43 155.857 181.11 155.528 179.75 155.188 C181.479 164.97 183.755 174.384 186.943 183.802 C187.513 185.488 188.075 187.176 188.631 188.866 C198.024 217.247 210.723 244.339 229.695 267.59 C231.75 270.188 231.75 270.188 231.75 271.188 C205.934 272.571 181.962 259.429 163.176 242.793 C150.185 230.967 139.839 216.702 131.772 201.149 C130.761 199.208 129.717 197.288 128.668 195.367 C124.722 187.99 121.61 180.491 118.938 172.562 C118.66 171.74 118.382 170.918 118.095 170.072 C113.829 156.854 112.302 144.346 112.188 130.562 C112.164 128.272 112.135 125.983 112.096 123.693 C112.061 121.642 112.04 119.591 112.021 117.541 C111.772 114.462 111.384 112.756 109.75 110.188 C106.75 111.188 106.75 111.188 105.75 113.188 C105.642 115.436 105.564 117.687 105.5 119.938 C103.812 154.098 89.089 187.519 65.75 212.188 C64.991 213.011 64.231 213.835 63.449 214.684 C43.811 235.287 11.799 252.27 -17.023 253.285 C-17.453 253.279 -17.453 253.279 -19.625 253.25 C-20.499 253.241 -21.373 253.232 -22.273 253.223 C-22.6 253.217 -22.6 253.217 -24.25 253.188 C-23.466 252.156 -22.683 251.125 -21.875 250.062 C-18.651 245.764 -15.527 241.398 -12.412 237.02 C-9.466 232.882 -6.499 228.76 -3.519 224.646 C-1.303 221.585 0.906 218.517 3.115 215.45 C4.689 213.271 6.274 211.1 7.859 208.93 C24.713 185.686 38.084 161.011 41.75 132.188 C38.75 133.188 38.75 133.188 37.147 136.029 C36.56 137.293 35.983 138.563 35.414 139.836 C34.763 141.24 34.111 142.643 33.458 144.046 C33.118 144.784 32.779 145.522 32.429 146.282 C26.022 160.145 19.202 173.115 9.75 185.188 C9.519 185.485 9.519 185.485 8.351 186.993 C-2.494 200.804 -15.143 212.778 -29.25 223.188 C-29.822 223.615 -30.394 224.043 -30.984 224.483 C-39.721 230.995 -48.747 236.856 -58.25 242.188 C-59.071 242.649 -59.892 243.111 -60.737 243.586 C-75.726 251.922 -91.084 258.487 -107.25 264.188 C-108.084 264.484 -108.918 264.78 -109.778 265.084 C-169.742 286.023 -169.742 286.023 -187.25 280.188 C-186.318 279.593 -185.386 278.999 -184.426 278.387 C-169.765 268.906 -156.493 258.207 -145.938 244.188 C-145.66 243.822 -145.66 243.822 -144.254 241.97 C-138.948 234.91 -133.999 227.632 -129.25 220.188 C-128.665 219.306 -128.08 218.424 -127.477 217.516 C-126.25 215.188 -126.25 215.188 -126.25 211.188 C-129.182 211.816 -131.705 212.576 -134.25 214.188 C-134.518 214.741 -134.786 215.294 -135.062 215.863 C-136.697 219.063 -138.897 221.763 -141.125 224.562 C-141.609 225.173 -142.093 225.784 -142.592 226.413 C-163.503 252.622 -187.36 275.913 -221.25 283.188 C-220.694 286.243 -220.185 288.489 -217.617 290.406 C-213.001 292.796 -208.315 294.102 -203.25 295.188 C-203.25 299.808 -203.25 304.428 -203.25 309.188 C-205.23 309.889 -207.21 310.59 -209.25 311.312 C-219.55 315.327 -225.538 320.026 -230.25 330.188 C-233.09 336.927 -233.798 343.096 -233.75 350.375 C-233.747 350.88 -233.747 350.88 -233.733 353.438 C-233.429 366.225 -229.433 376.275 -221.25 386.188 C-221.001 386.505 -221.001 386.505 -219.738 388.109 C-213.177 395.58 -202.725 399.891 -193.25 402.188 C-191.863 402.233 -190.477 402.279 -189.09 402.324 C-185.25 403.188 -185.25 403.188 -183.918 404.663 C-182.732 406.729 -181.76 408.814 -180.812 411 C-180.063 412.561 -179.305 414.118 -178.539 415.672 C-178.35 416.056 -178.35 416.056 -177.396 418.002 C-164.408 442.781 -136.087 458.656 -110.367 466.918 C-108.995 467.343 -107.623 467.766 -106.25 468.188 C-105.544 468.411 -104.838 468.635 -104.11 468.866 C-91.392 472.89 -78.577 476.018 -65.25 477.188 C-65.25 477.848 -65.25 478.507 -65.25 479.188 C-66.797 480.309 -66.797 480.309 -69 481.625 C-86.689 493.113 -99.302 511.213 -111.961 527.723 C-118.311 535.963 -125.053 543.678 -132.25 551.188 C-133.005 551.984 -133.761 552.781 -134.539 553.602 C-138.49 557.674 -142.464 561.124 -147.25 564.188 C-147.91 564.188 -148.57 564.188 -149.25 564.188 C-154.422 544.655 -154.202 529.033 -148.884 509.526 C-147.953 506.093 -147.103 502.641 -146.25 499.188 C-146.91 499.188 -147.57 499.188 -148.25 499.188 C-148.521 499.755 -148.791 500.322 -149.07 500.906 C-150.293 503.271 -151.685 505.449 -153.125 507.688 C-163.126 524.217 -163.598 545.135 -159.25 563.562 C-158.62 566.117 -157.951 568.651 -157.25 571.188 C-158.943 572.034 -160.637 572.881 -162.33 573.727 C-163.787 574.456 -165.243 575.186 -166.699 575.917 C-170.032 577.591 -173.369 579.244 -176.738 580.844 C-186.081 585.307 -192.433 589.852 -197.25 599.188 C-199.633 606.336 -199.364 614.846 -196.188 621.688 C-192.485 628.022 -187.587 632.288 -180.633 634.688 C-177.582 635.328 -174.614 635.389 -171.5 635.5 C-168.113 635.68 -168.113 635.68 -165.25 636.188 C-162.688 639.125 -162.688 639.125 -161.25 642.188 C-156.62 645.216 -151.56 644.924 -146.25 644.188 C-137.905 641.528 -132.4 635.588 -126.519 629.436 C-122.108 624.873 -117.517 621.407 -112.121 618.039 C-104.207 612.935 -97.255 606.397 -90.344 600.035 C-88.25 598.188 -88.25 598.188 -85.25 596.188 C-85.263 599.286 -85.444 602.187 -86.25 605.188 C-89 607.25 -89 607.25 -92.25 609.188 C-96.732 613.704 -97.606 618.114 -97.75 624.375 C-97.706 629.36 -96.938 632.031 -94.25 636.188 C-94.875 638.375 -94.875 638.375 -96.25 641.188 C-103.955 662.071 -102.05 685.539 -99.25 707.188 C-105.681 706.839 -110.681 705.552 -116.375 702.562 C-117.072 702.201 -117.769 701.839 -118.488 701.466 C-129.309 695.654 -134.723 687.556 -138.289 675.746 C-139.008 672.902 -139.669 670.062 -140.25 667.188 C-141.9 667.188 -143.55 667.188 -145.25 667.188 C-145.39 667.671 -145.39 667.671 -146.098 670.117 C-149.666 681.918 -154.707 692.065 -165.25 699.188 C-170.269 701.774 -174.556 703.44 -180.25 703.188 C-180.221 702.632 -180.221 702.632 -180.074 699.82 C-179.697 689.602 -180.208 682.359 -186.906 674.16 C-190.753 670.045 -195.138 666.693 -199.625 663.312 C-213.59 652.783 -224.135 640.793 -227.25 623.188 C-228.04 615.572 -226.664 608.701 -224.761 601.378 C-220.081 583.32 -223.158 567.115 -228.312 549.562 C-234.963 526.87 -234.642 507.971 -223.391 486.898 C-221.017 482.657 -218.205 478.816 -215.262 474.953 C-205.205 461.127 -198.287 445.225 -197.887 428 C-198.25 426.188 -198.25 426.188 -201.25 424.188 C-201.663 425.425 -202.075 426.663 -202.5 427.938 C-202.778 428.764 -203.057 429.59 -203.344 430.441 C-203.949 432.275 -204.532 434.117 -205.094 435.965 C-209.337 449.592 -216.059 460.636 -224.316 472.098 C-238.008 491.116 -245.388 511.295 -241.835 534.947 C-240.334 542.622 -238.285 550.168 -235.805 557.582 C-228.369 580.005 -233.541 598.591 -242.021 619.914 C-248.13 635.341 -251.47 650.008 -245.027 665.93 C-244.771 666.675 -244.514 667.42 -244.25 668.188 C-244.58 668.847 -244.91 669.508 -245.25 670.188 C-257.722 666.985 -267.798 661.705 -274.863 650.598 C-281.351 639.321 -282.974 627.69 -280.648 614.871 C-279.933 612.271 -279.142 609.732 -278.25 607.188 C-276.537 601.867 -276.056 597.719 -276.25 592.188 C-281.231 593.054 -284.027 594.642 -287.875 597.938 C-298.692 607.045 -310.259 610.156 -324.121 609.41 C-336.097 608.16 -345.68 601.789 -353.125 592.688 C-356.416 588.213 -359.25 583.895 -359.25 578.188 C-357.992 578.518 -356.734 578.847 -355.438 579.188 C-343.665 581.748 -332.823 580.213 -322.5 573.938 C-313.747 567.965 -307.965 561.557 -304.641 551.309 C-302.598 540.215 -304.796 530.564 -308.531 520.191 C-309.491 517.514 -310.394 514.819 -311.292 512.121 C-311.898 510.307 -312.517 508.497 -313.137 506.688 C-319.957 485.247 -316.368 465.452 -307.191 445.504 C-304.907 440.504 -302.995 435.399 -301.25 430.188 C-314.108 438.046 -321.851 453.667 -325.688 467.875 C-330.085 486.199 -326.924 504.207 -319.25 521.188 C-333.08 517.833 -343.83 510.449 -351.562 498.375 C-360.621 482.246 -362.083 461.033 -357.75 443.188 C-354.031 431.492 -348.412 420.391 -340.25 411.188 C-339.906 410.784 -339.906 410.784 -338.164 408.742 C-331.459 401.049 -324.048 394.405 -316.086 388.043 C-301.812 376.382 -288.022 362.919 -278.25 347.188 C-277.881 346.599 -277.513 346.01 -277.133 345.403 C-270.078 333.864 -265.119 320.612 -263.25 307.188 C-262.971 307.153 -262.971 307.153 -261.557 306.976 C-258.973 306.644 -256.393 306.291 -253.812 305.938 C-252.934 305.828 -252.056 305.718 -251.15 305.605 C-245.706 304.842 -241.17 303.544 -236.238 301.099 C-234.255 300.19 -232.377 299.648 -230.25 299.188 C-230.25 297.868 -230.25 296.548 -230.25 295.188 C-231.549 295.353 -232.849 295.517 -234.188 295.688 C-255.803 297.797 -276.658 296.032 -294.25 282.188 C-295.084 281.565 -295.918 280.942 -296.777 280.301 C-303.194 274.816 -308.011 266.933 -311.25 259.188 C-310.92 258.527 -310.59 257.868 -310.25 257.188 C-309.96 257.29 -309.96 257.29 -308.492 257.809 C-308.102 257.943 -308.102 257.943 -306.125 258.625 C-305.359 258.892 -304.594 259.159 -303.805 259.434 C-284.276 265.197 -263.335 260.696 -245.875 251.258 C-237.033 246.291 -229.609 240.133 -222.25 233.188 C-221.657 232.647 -221.064 232.107 -220.453 231.551 C-214.838 226.243 -210.258 220.032 -205.577 213.912 C-204.424 212.414 -203.249 210.934 -202.07 209.457 C-193.246 198.185 -186.079 185.7 -178.611 173.513 C-167.497 155.395 -155.105 139.396 -140.25 124.188 C-139.704 123.621 -139.158 123.055 -138.596 122.472 C-132.729 116.384 -126.691 110.696 -120.062 105.426 C-116.913 102.919 -113.83 100.341 -110.75 97.75 C-107.964 95.408 -105.279 93.207 -102.25 91.188 C-101.92 90.197 -101.59 89.207 -101.25 88.188 C-108.972 90.884 -115.517 94.569 -122.25 99.188 C-123.124 99.784 -123.998 100.381 -124.898 100.996 C-141.324 112.581 -155.848 126.395 -168.25 142.188 C-169.078 143.198 -169.905 144.209 -170.758 145.25 C-179.011 155.391 -186.089 166.263 -193.25 177.188 C-195.957 181.313 -198.672 185.433 -201.396 189.547 C-202.526 191.257 -203.648 192.971 -204.77 194.686 C-216.335 212.168 -233.354 236.488 -254.633 242.906 C-255.166 242.999 -255.7 243.092 -256.25 243.188 C-252.996 186.976 -231.212 128.766 -194.25 86.188 C-193.705 85.551 -193.161 84.915 -192.599 84.26 C-181.689 71.616 -169.813 59.953 -156.25 50.188 C-155.623 49.732 -154.995 49.276 -154.349 48.807 C-144.709 41.851 -134.739 35.77 -124.25 30.188 C-123.643 29.857 -123.036 29.526 -122.411 29.186 C-84.862 8.8 -42.463 -0.072 0 0 Z " fill="#FACB6A" transform="translate(492.25,73.8125)"/>
<path d="M0 0 C2.6 2.6 3.093 5.371 4.062 8.812 C10.607 30.609 20.801 50.949 36 68 C36.37 68.424 36.37 68.424 38.242 70.57 C40.461 73.081 42.721 75.545 45 78 C45.65 78.727 46.299 79.454 46.969 80.203 C59.913 94.044 76.772 102.715 94 110 C97.784 155.34 98.536 219.107 67.758 256.027 C67.178 256.678 66.598 257.329 66 258 C65.42 258.661 64.84 259.323 64.242 260.004 C36.521 289.639 -11.44 298.948 -50.266 301.258 C-50.958 301.3 -51.65 301.342 -52.363 301.385 C-54.228 301.492 -56.094 301.575 -57.961 301.656 C-60.827 301.98 -62.564 302.512 -65 304 C-65 305.98 -65 307.96 -65 310 C-62.306 311.347 -60.398 310.98 -57.391 310.816 C-33.196 309.858 -33.196 309.858 -22 319 C-21.117 319.639 -20.234 320.279 -19.324 320.938 C-6.544 330.631 4.744 342.814 14.379 355.582 C18.953 361.631 24.021 367.285 29 373 C29.659 373.761 30.317 374.521 30.996 375.305 C32.654 377.212 34.326 379.106 36 381 C36.672 381.776 37.343 382.552 38.035 383.352 C52.421 399.741 68.932 411.652 89.312 419.438 C95.723 422.029 101.446 425.998 105.219 431.91 C107.231 437.293 106.759 443.26 104.5 448.438 C98.614 454.471 92.173 455.612 84 455.75 C83.565 455.765 83.565 455.765 81.363 455.84 C79.243 455.91 77.121 455.957 75 456 C74.01 458.97 73.02 461.94 72 465 C63.697 464.654 58.963 460.169 53.5 454.25 C49.294 449.895 44.455 446.955 39.25 443.94 C28.983 437.88 20.399 429.735 12.045 421.306 C10.612 419.862 9.168 418.429 7.723 416.996 C5.104 414.37 2.54 411.703 0 409 C-0.551 408.448 -1.102 407.896 -1.669 407.327 C-6.646 401.606 -6.904 393.17 -8 385.938 C-9.519 376.085 -11.388 366.977 -15.012 357.662 C-16 355 -16 355 -16 353 C-17.011 353.124 -18.021 353.247 -19.062 353.375 C-23.777 352.926 -24.949 351.662 -28.242 348.531 C-36.225 341.577 -48.091 342.388 -58 343 C-72.435 344.769 -84.985 352.82 -95 363 C-95.928 362.154 -96.856 361.309 -97.812 360.438 C-111.956 348.395 -128.372 341.607 -147 343 C-153.84 344.063 -159.588 345.826 -165.262 349.832 C-167 351 -167 351 -170.188 352.188 C-177.294 356.767 -178.782 366.11 -180.549 373.893 C-182.085 381.028 -183.346 388.221 -184.518 395.425 C-184.668 396.308 -184.818 397.191 -184.973 398.102 C-185.099 398.878 -185.225 399.655 -185.356 400.456 C-186.957 406.78 -189.525 411.031 -194.121 415.617 C-194.621 416.119 -195.121 416.62 -195.636 417.137 C-196.693 418.192 -197.755 419.242 -198.821 420.288 C-200.414 421.852 -201.988 423.434 -203.561 425.02 C-211.883 433.324 -220.886 440.107 -230.5 446.875 C-235.293 450.328 -239.599 454.148 -243.854 458.232 C-250.689 464.731 -250.689 464.731 -255.688 465.312 C-258 465 -258 465 -260 463 C-260.719 460.682 -261.391 458.349 -262 456 C-262.564 456.026 -263.128 456.052 -263.709 456.079 C-266.306 456.184 -268.902 456.249 -271.5 456.312 C-272.387 456.354 -273.274 456.396 -274.188 456.439 C-280.748 456.56 -284.926 455.204 -290 451 C-292.505 448.311 -293.892 446.543 -294.152 442.828 C-293.708 436.037 -290.97 431.653 -285.988 427.098 C-281.703 423.476 -276.997 421.64 -271.812 419.625 C-263.426 416.191 -256.217 412.546 -249 407 C-248.153 406.372 -247.306 405.744 -246.434 405.098 C-233.048 394.704 -221.459 382.171 -211.292 368.672 C-209.061 365.784 -206.687 363.02 -204.312 360.25 C-201.151 356.557 -198.054 352.832 -195.062 349 C-186.662 338.487 -177.74 329.066 -166.743 321.245 C-165.611 320.436 -164.491 319.611 -163.386 318.767 C-152.96 310.884 -142.877 310.905 -130.23 311.192 C-128 311 -128 311 -125 309 C-125.375 306.563 -125.375 306.563 -126 304 C-129.255 302.372 -132.887 302.367 -136.469 301.984 C-138.243 301.786 -140.017 301.588 -141.791 301.389 C-142.724 301.285 -143.656 301.181 -144.617 301.074 C-173.052 297.879 -201.081 294.131 -227.197 281.847 C-228.849 281.071 -230.512 280.319 -232.176 279.57 C-257.311 267.785 -274.034 247.91 -283.488 222.004 C-293.936 191.448 -296.601 157.044 -296 125 C-295.329 124.941 -294.657 124.881 -293.966 124.82 C-234.572 119.366 -174.435 100.192 -128.086 61.594 C-126.124 60.094 -124.244 59.015 -122 58 C-126.404 64.166 -131.264 69.829 -136.329 75.455 C-145 85.249 -145 85.249 -145 92 C-139.925 95.004 -134.549 94.34 -128.812 94.312 C-128.227 94.31 -128.227 94.31 -125.266 94.298 C-93.54 93.872 -64.724 80.611 -41 60 C-40.568 59.629 -40.568 59.629 -38.379 57.75 C-28.534 49.119 -21.117 39.703 -14.106 28.726 C-13.178 27.278 -12.23 25.842 -11.277 24.41 C-6.399 16.801 -3.287 8.382 0 0 Z M-9 151 C-11.38 154.06 -11.349 157.35 -11.266 161.098 C-10.9 163.716 -9.847 165.153 -8 167 C-7.67 167.33 -7.34 167.66 -7 168 C-4.875 169.25 -4.875 169.25 -2 170 C2.253 168.827 4.388 167.842 7 164.25 C8.177 160.426 7.852 157.873 7 154 C6.01 154 5.02 154 4 154 C4.33 153.01 4.66 152.02 5 151 C-0.376 147.416 -3.697 147.092 -9 151 Z M-199 150 C-200.95 151.614 -201.87 152.74 -203 155 C-203.344 160.248 -203.568 163.817 -200 168 C-197.091 169.73 -195.325 170.007 -191.938 169.938 C-188.022 168.688 -186.932 167.642 -185 164 C-184.681 160.638 -184.765 157.365 -185 154 C-185.33 154 -185.66 154 -186 154 C-186 155.65 -186 157.3 -186 159 C-186.33 158.01 -186.66 157.02 -187 156 C-187.66 155.67 -188.32 155.34 -189 155 C-189 154.01 -189 153.02 -189 152 C-189.33 151.01 -189.66 150.02 -190 149 C-193.825 147.725 -195.334 148.473 -199 150 Z M-187 152 C-186 154 -186 154 -186 154 Z " fill="#FAD1B3" transform="translate(598,242)"/>
<path d="M0 0 C0.721 0.338 1.443 0.676 2.186 1.024 C6.735 3.086 11.342 4.732 16.073 6.317 C67.113 23.86 67.113 23.86 80.932 36.954 C84.261 38.879 86.425 38.13 90.073 37.192 C93.221 35.442 93.221 35.442 96.448 33.192 C116.703 19.644 139.318 11.412 162.26 3.505 C163.221 3.166 164.181 2.826 165.171 2.477 C171.031 0.518 175.887 -0.328 182.073 0.192 C184.631 2.75 184.457 3.946 184.573 7.505 C184.625 8.45 184.676 9.394 184.729 10.368 C183.799 14.373 181.403 16.084 178.073 18.192 C170.813 21.8 163.01 24.321 155.237 26.587 C154.512 26.799 153.786 27.011 153.039 27.23 C143.704 29.924 134.262 32.183 124.822 34.471 C122.461 35.044 120.101 35.624 117.741 36.204 C117.027 36.375 116.314 36.546 115.579 36.722 C112.19 37.556 109.108 38.444 106.073 40.192 C106.073 41.512 106.073 42.832 106.073 44.192 C114.084 44.606 121.181 43.073 128.948 41.192 C129.271 41.115 129.271 41.115 130.909 40.726 C146.29 37.066 161.894 33.186 176.643 27.458 C180.073 26.192 180.073 26.192 183.073 26.192 C185.388 37.325 186.736 47.781 186.073 59.192 C186.036 59.856 185.999 60.521 185.96 61.205 C184.587 82.118 177.051 101.029 167.889 119.634 C161.905 131.86 155.984 145.422 159.94 159.216 C160.91 161.913 161.962 164.551 163.073 167.192 C163.403 168.182 163.733 169.172 164.073 170.192 C166.01 171.317 166.01 171.317 168.073 172.192 C168.733 172.522 169.393 172.852 170.073 173.192 C172.823 173.692 172.823 173.692 176.073 173.192 C180.186 169.262 183.084 164.708 186.26 160.005 C198.164 142.494 214.835 128.514 235.698 123.192 C256.4 119.62 275.498 123.438 295.073 130.192 C287.711 150.885 270.236 169.022 251.073 179.13 C241.785 183.472 232.229 186.422 221.964 187.016 C220.073 187.192 220.073 187.192 218.073 188.192 C218.135 190.391 218.135 190.391 219.073 193.192 C221.392 195.005 223.571 196.497 226.073 198.005 C227.452 198.89 228.828 199.779 230.202 200.673 C230.87 201.105 231.538 201.537 232.226 201.983 C244.946 210.311 250.608 223.196 254.331 237.61 C256.286 247.044 257.417 256.546 257.073 266.192 C236.804 266.728 215.49 261.303 199.073 249.192 C198.369 248.695 197.665 248.197 196.94 247.684 C181.971 236.003 176.927 217.109 174.651 199.208 C174.607 198.833 174.607 198.833 174.383 196.935 C174.073 195.192 174.073 195.192 173.073 194.192 C171.466 194.231 169.861 194.351 168.26 194.505 C167.388 194.583 166.515 194.662 165.616 194.743 C163.566 195.003 161.518 195.295 159.486 195.671 C151.775 197.094 144.345 197.543 136.51 197.505 C135.283 197.499 134.056 197.493 132.792 197.488 C122.633 197.353 112.969 196.481 103.073 194.192 C102.253 194.004 101.434 193.816 100.59 193.622 C75.635 187.666 52.332 176.201 33.073 159.192 C32.098 158.35 31.124 157.509 30.12 156.641 C9.771 138.785 -5.99 114.807 -11.927 88.192 C-12.075 87.537 -12.223 86.882 -12.376 86.208 C-16.857 65.679 -16.556 44.183 -9.927 24.192 C-4.842 25.67 0.209 27.21 5.21 28.954 C16.901 33.025 28.661 36.571 40.635 39.692 C41.305 39.87 41.975 40.047 42.666 40.23 C44.592 40.738 46.522 41.231 48.452 41.723 C49.561 42.008 50.671 42.292 51.813 42.585 C55.301 43.235 58.534 43.297 62.073 43.192 C61.822 40.818 61.822 40.818 61.073 38.192 C54.443 33.455 43.91 32.147 36.072 30.074 C24.964 27.119 13.887 24.15 3.198 19.88 C2.434 19.579 1.671 19.278 0.884 18.969 C-3.766 17.013 -7.363 14.794 -10.927 11.192 C-11.886 8.089 -11.639 5.349 -10.927 2.192 C-7.888 -1.522 -4.337 -1.818 0 0 Z " fill="#4D9B88" transform="translate(416.927001953125,690.807861328125)"/>
<path d="M0 0 C0.99 0.846 1.98 1.691 3 2.562 C3.646 3.11 4.292 3.658 4.957 4.223 C6.273 5.367 7.564 6.54 8.824 7.746 C21.03 19.235 34.743 21.62 50.84 21.312 C62.919 20.787 71.9 15.775 80 7 C81.459 11.167 82.582 15.29 83.508 19.605 C83.772 20.836 84.036 22.066 84.309 23.334 C84.578 24.606 84.847 25.877 85.125 27.188 C85.402 28.471 85.679 29.754 85.965 31.076 C88 40.615 88 40.615 88 44 C86.99 44.331 85.981 44.662 84.94 45.003 C21.306 65.943 21.306 65.943 6.461 79.281 C4 81 4 81 1.555 80.992 C-1.619 79.759 -4.084 78.081 -6.875 76.125 C-21.997 66.086 -38.707 59.49 -55.75 53.5 C-56.477 53.244 -57.203 52.989 -57.952 52.726 C-65.581 50.059 -73.17 47.532 -81.067 45.756 C-81.705 45.506 -82.343 45.257 -83 45 C-84.265 41.205 -83.439 38.481 -82.566 34.707 C-82.41 34.001 -82.253 33.295 -82.091 32.568 C-81.589 30.314 -81.076 28.063 -80.562 25.812 C-80.22 24.285 -79.878 22.757 -79.537 21.229 C-78.7 17.484 -77.852 13.741 -77 10 C-74.099 11.407 -71.707 12.921 -69.188 14.938 C-59.065 22.652 -47.736 23.117 -35.395 21.539 C-20.955 18.815 -8.62 12.173 0 0 Z " fill="#FAD2B5" transform="translate(501,637)"/>
<path d="M0 0 C11.058 6.958 17.006 17.174 20.625 29.48 C23.536 42.717 22.695 57.673 16.102 69.727 C9.557 79.43 1.738 86.201 -9.617 89.223 C-19.397 91.109 -27.866 89.422 -36.473 84.445 C-46.209 77.711 -51.786 67.746 -54.867 56.473 C-56.413 45.396 -56.294 33.225 -52.25 22.73 C-52.876 22.199 -53.503 21.668 -54.148 21.121 C-54.966 20.415 -55.783 19.708 -56.625 18.98 C-57.437 18.284 -58.249 17.588 -59.086 16.871 C-61.881 14.106 -63.088 12.058 -63.562 8.168 C-63.25 5.73 -63.25 5.73 -62.062 3.855 C-60.25 2.73 -60.25 2.73 -57.867 2.906 C-54.662 3.916 -53.618 5.174 -51.562 7.793 C-50.497 9.137 -49.4 10.458 -48.25 11.73 C-47.59 11.73 -46.93 11.73 -46.25 11.73 C-45.16 10.544 -44.128 9.304 -43.125 8.043 C-32.415 -4.537 -14.707 -7.134 0 0 Z M-9.25 17.73 C-11.2 19.345 -12.12 20.471 -13.25 22.73 C-13.594 27.978 -13.818 31.547 -10.25 35.73 C-7.341 37.46 -5.575 37.737 -2.188 37.668 C1.728 36.418 2.818 35.372 4.75 31.73 C5.069 28.369 4.985 25.096 4.75 21.73 C4.42 21.73 4.09 21.73 3.75 21.73 C3.75 23.38 3.75 25.03 3.75 26.73 C3.42 25.74 3.09 24.75 2.75 23.73 C2.09 23.4 1.43 23.07 0.75 22.73 C0.75 21.74 0.75 20.75 0.75 19.73 C0.42 18.74 0.09 17.75 -0.25 16.73 C-4.075 15.455 -5.584 16.203 -9.25 17.73 Z M2.75 19.73 C3.75 21.73 3.75 21.73 3.75 21.73 Z " fill="#3F2610" transform="translate(408.25,374.26953125)"/>
<path d="M0 0 C4.83 3.124 10.669 7.241 13.289 12.48 C15.477 12.355 15.477 12.355 18.289 11.48 C18.702 10.975 18.702 10.975 20.789 8.418 C23.289 5.48 23.289 5.48 25.977 4.98 C28.289 5.48 28.289 5.48 30.289 7.48 C30.95 11.636 30.511 13.158 28.102 16.668 C25.574 19.195 23.485 20.926 20.289 22.48 C19.629 22.48 18.969 22.48 18.289 22.48 C18.494 23.012 18.699 23.543 18.91 24.09 C19.18 24.796 19.449 25.503 19.727 26.23 C19.993 26.927 20.26 27.623 20.535 28.34 C24.838 40.558 22.96 55.664 18.289 67.48 C12.614 78.287 4.062 85.689 -7.449 89.633 C-17.451 92.232 -27.072 90.31 -36 85.16 C-46.323 77.866 -52.554 67.979 -54.711 55.48 C-55.987 37.537 -54.567 23.204 -42.711 9.102 C-31.831 -2.691 -14.988 -7.133 0 0 Z M-36.711 19.48 C-39.091 22.541 -39.06 25.83 -38.977 29.578 C-38.611 32.196 -37.558 33.633 -35.711 35.48 C-35.381 35.81 -35.051 36.14 -34.711 36.48 C-32.586 37.73 -32.586 37.73 -29.711 38.48 C-25.458 37.307 -23.323 36.322 -20.711 32.73 C-19.534 28.907 -19.859 26.354 -20.711 22.48 C-21.701 22.48 -22.691 22.48 -23.711 22.48 C-23.381 21.49 -23.051 20.5 -22.711 19.48 C-28.087 15.897 -31.408 15.573 -36.711 19.48 Z " fill="#3F2510" transform="translate(625.7109375,373.51953125)"/>
<path d="M0 0 C7.897 -0.269 13.467 0.171 20 5 C27.234 12.737 29.591 22.564 29.285 32.918 C28.249 44.117 24.695 54.518 16 62 C15.495 62.492 14.989 62.985 14.469 63.492 C7.896 69.287 -2.306 72 -11 72 C-10.758 70.979 -10.515 69.958 -10.266 68.906 C-4.965 46.124 -2.077 23.261 0 0 Z " fill="#F9D2B5" transform="translate(706,393)"/>
<path d="M0 0 C0.065 0.742 0.129 1.485 0.196 2.25 C2.084 23.358 5.022 43.969 10.432 64.502 C11 67 11 67 11 70 C0.539 69.318 -6.801 64.019 -13.867 56.555 C-20.573 48.523 -22.36 39.385 -22.375 29.125 C-22.387 28.702 -22.387 28.702 -22.449 26.559 C-22.485 18.799 -20.267 11.916 -15 6.062 C-14.526 5.517 -14.051 4.972 -13.562 4.41 C-9.717 0.94 -5.104 0 0 0 Z " fill="#F9D3B6" transform="translate(291,395)"/>
<path d="M0 0 C4.368 3.306 7.617 6.55 9.363 11.789 C9.431 13.35 9.448 14.914 9.426 16.477 C9.417 17.285 9.408 18.093 9.398 18.926 C9.387 19.541 9.375 20.156 9.363 20.789 C-5.566 21.711 -20.432 21.913 -35.387 21.852 C-37.56 21.847 -39.733 21.842 -41.906 21.838 C-47.15 21.827 -52.393 21.81 -57.637 21.789 C-56.663 14.444 -55.155 10.792 -49.504 5.969 C-35.248 -4.62 -16.19 -9.664 0 0 Z " fill="#4D9F8A" transform="translate(565.63671875,598.2109375)"/>
<path d="M0 0 C5.791 3.71 9.899 8.911 12.562 15.25 C12.562 16.57 12.562 17.89 12.562 19.25 C6.359 19.275 0.156 19.293 -6.047 19.305 C-8.148 19.31 -10.25 19.317 -12.351 19.325 C-25.751 19.38 -39.064 19.126 -52.438 18.25 C-52.923 7.247 -52.923 7.247 -49.438 2.25 C-36.003 -11.512 -15.581 -8.512 0 0 Z " fill="#4DA08B" transform="translate(483.4375,600.75)"/>
<path d="M0 0 C0.906 -0.002 1.811 -0.005 2.744 -0.008 C5.337 -0.013 7.93 -0.012 10.523 -0.008 C10.918 -0.009 10.918 -0.009 12.913 -0.014 C18.394 0.01 18.394 0.01 20.625 1.125 C21.153 7.042 20.535 10.478 17.098 15.371 C12.192 21.213 5.017 23.573 -2.379 24.33 C-15.565 25.26 -26.595 23.6 -36.938 14.688 C-40.297 11.404 -43.192 8.292 -45.375 4.125 C-45.375 3.135 -45.375 2.145 -45.375 1.125 C-30.246 0.264 -15.15 0.015 0 0 Z " fill="#4D9F8A" transform="translate(555.375,625.875)"/>
<path d="M0 0 C0.883 -0.003 1.766 -0.006 2.675 -0.01 C3.642 -0.008 4.608 -0.006 5.604 -0.003 C6.603 -0.004 7.602 -0.005 8.631 -0.006 C10.763 -0.007 12.894 -0.005 15.025 -0.001 C18.222 0.004 21.42 -0.001 24.617 -0.007 C36.732 -0.011 48.771 0.287 60.858 1.129 C59.636 7.786 56.699 11.921 51.33 16.094 C42.509 21.946 34.508 24.708 23.92 24.629 C23.044 24.625 22.167 24.621 21.264 24.616 C12.815 24.394 7.465 22.109 0.983 16.754 C-2.326 12.667 -4.955 9.155 -5.455 3.754 C-4.961 -0.394 -3.83 0.004 0 0 Z " fill="#4D9F8A" transform="translate(433.142333984375,625.87060546875)"/>
<path d="M0 0 C3.551 0.307 5.227 1.93 7.688 4.375 C14.31 10.315 21.212 11.66 30.004 11.414 C36.598 10.503 41.843 7.493 46.312 2.625 C47.199 1.759 48.086 0.892 49 0 C51.875 0.125 51.875 0.125 54 1 C54.856 4.348 55.281 6.323 53.938 9.562 C48.635 16.233 41.449 20.702 33 22 C22.065 22.893 12.911 21.917 3.738 15.391 C0.445 12.478 -1.348 10.073 -2.062 5.688 C-2 2 -2 2 0 0 Z " fill="#36200E" transform="translate(476,470)"/>
<path d="M0 0 C3.255 1.975 6.267 3.949 8.762 6.859 C9.012 9.484 9.012 9.484 8.762 11.859 C7.762 12.859 7.762 12.859 5.137 13.172 C0.724 12.763 -1.465 11.165 -5.238 8.859 C-12.852 6.343 -21.018 7.415 -28.324 10.258 C-30.875 11.059 -32.744 10.744 -35.238 9.859 C-35.403 9.034 -35.403 9.034 -36.238 4.859 C-26.793 -4.26 -11.579 -5.901 0 0 Z " fill="#39210F" transform="translate(619.23828125,311.140625)"/>
<path d="M0 0 C1.32 1.65 2.64 3.3 4 5 C3.34 5.66 2.68 6.32 2 7 C0.438 5.75 0.438 5.75 -1 4 C-0.688 1.812 -0.688 1.812 0 0 Z " fill="#6D6640" transform="translate(409,824)"/>
<path d="M0 0 C1.32 0.66 2.64 1.32 4 2 C3.67 3.32 3.34 4.64 3 6 C2.34 6 1.68 6 1 6 C0 3 0 3 0 0 Z " fill="#6E653E" transform="translate(601,946)"/>
<path d="M0 0 C2.97 0 5.94 0 9 0 C4.821 2.09 4.196 2.166 0 1 C0 0.67 0 0.34 0 0 Z " fill="#6E6D45" transform="translate(560,902)"/>
<path d="M0 0 C0.33 0.99 0.66 1.98 1 3 C1.66 3 2.32 3 3 3 C2.67 4.98 2.34 6.96 2 9 C1.227 6.018 0.588 3.024 0 0 Z " fill="#92632F" transform="translate(232,240)"/>
<path d="M0 0 C0.825 0.165 0.825 0.165 5 1 C5 1.66 5 2.32 5 3 C3.062 2.625 3.062 2.625 1 2 C0.67 1.34 0.34 0.68 0 0 Z " fill="#6E6E47" transform="translate(530,901)"/>
<path d="M0 0 C2.64 0 5.28 0 8 0 C5 2 5 2 2.312 1.625 C1.931 1.522 1.931 1.522 0 1 C0 0.67 0 0.34 0 0 Z " fill="#7D663A" transform="translate(640,800)"/>
<path d="M0 0 C0.99 0.99 1.98 1.98 3 3 C1.68 3.33 0.36 3.66 -1 4 C-0.67 2.68 -0.34 1.36 0 0 Z " fill="#706641" transform="translate(595,939)"/>
<path d="M0 0 C2.31 0 4.62 0 7 0 C6.34 0.33 6.34 0.33 3 2 C2.01 1.34 1.02 0.68 0 0 Z " fill="#6E6E47" transform="translate(539,902)"/>
<path d="M0 0 C0.66 0.33 1.32 0.66 2 1 C1.67 1.99 1.34 2.98 1 4 C0.34 3.67 -0.32 3.34 -1 3 C-0.67 2.01 -0.34 1.02 0 0 Z " fill="#95652F" transform="translate(161,633)"/>
<path d="M0 0 C0.66 0.33 0.66 0.33 4 2 C3.34 2.66 2.68 3.32 2 4 C1.34 2.68 0.68 1.36 0 0 Z " fill="#966533" transform="translate(185,364)"/>
<path d="M0 0 C0.66 0.33 1.32 0.66 2 1 C2 1.99 2 2.98 2 4 C1.01 3.67 0.02 3.34 -1 3 C-0.67 2.01 -0.34 1.02 0 0 Z " fill="#6E6C45" transform="translate(601,824)"/>
<path d="M0 0 C0.825 0.165 0.825 0.165 5 1 C3.68 1.33 2.36 1.66 1 2 C0.67 1.34 0.34 0.68 0 0 Z " fill="#8D602F" transform="translate(243,758)"/>
<path d="M0 0 C0.33 1.32 0.66 2.64 1 4 C0.34 4 -0.32 4 -1 4 C-0.67 2.68 -0.34 1.36 0 0 Z " fill="#816139" transform="translate(411,402)"/>
<path d="M0 0 C0.66 0.66 1.32 1.32 2 2 C1.34 3.32 0.68 4.64 0 6 C0 4.02 0 2.04 0 0 Z " fill="#7C5D37" transform="translate(603,400)"/>
<path d="M0 0 C0.99 1.32 1.98 2.64 3 4 C2.01 4 1.02 4 0 4 C0 2.68 0 1.36 0 0 Z " fill="#956530" transform="translate(416,64)"/>
<path d="M0 0 C0.495 0.33 0.495 0.33 3 2 C2.67 2.66 2.34 3.32 2 4 C1.34 2.68 0.68 1.36 0 0 Z " fill="#8E6533" transform="translate(354,780)"/>
<path d="M0 0 C0.33 0.165 0.33 0.165 2 1 C1.67 1.99 1.34 2.98 1 4 C0.67 2.68 0.34 1.36 0 0 Z " fill="#956934" transform="translate(662,763)"/>
<path d="M0 0 C0.66 0 1.32 0 2 0 C2.33 0.99 2.66 1.98 3 3 C2.67 3.165 2.67 3.165 1 4 C0.67 2.68 0.34 1.36 0 0 Z " fill="#9C6C33" transform="translate(264,729)"/>
<path d="M0 0 C1.98 0 3.96 0 6 0 C6 0.33 6 0.66 6 1 C4.02 1 2.04 1 0 1 C0 0.67 0 0.34 0 0 Z " fill="#92622F" transform="translate(874,667)"/>
<path d="M0 0 C0.33 0.165 0.33 0.165 2 1 C1.67 1.99 1.34 2.98 1 4 C0.67 2.68 0.34 1.36 0 0 Z " fill="#9B6A34" transform="translate(192,419)"/>
<path d="M0 0 C0.33 0.165 0.33 0.165 2 1 C2 1.99 2 2.98 2 4 C1.34 3.67 0.68 3.34 0 3 C0 2.01 0 1.02 0 0 Z " fill="#7D5D37" transform="translate(600,402)"/>
<path d="M0 0 C0.66 0 1.32 0 2 0 C1.34 1.32 0.68 2.64 0 4 C0 2.68 0 1.36 0 0 Z " fill="#9D6C34" transform="translate(209,394)"/>
<path d="M0 0 C0.66 0 1.32 0 2 0 C2 1.32 2 2.64 2 4 C1.34 3.67 0.68 3.34 0 3 C0 2.01 0 1.02 0 0 Z " fill="#9A6731" transform="translate(224,280)"/>
<path d="M0 0 C0.99 0.33 1.98 0.66 3 1 C2.01 1.33 1.02 1.66 0 2 C0 1.34 0 0.68 0 0 Z " fill="#6F6841" transform="translate(616,957)"/>
<path d="M0 0 C0.66 0 1.32 0 2 0 C1.67 1.32 1.34 2.64 1 4 C0.67 2.68 0.34 1.36 0 0 Z " fill="#716A44" transform="translate(684,921)"/>
<path d="M0 0 C1.32 0.33 2.64 0.66 4 1 C3.67 1.165 3.67 1.165 2 2 C1.34 1.34 0.68 0.68 0 0 Z " fill="#6D6C45" transform="translate(547,902)"/>
<path d="M0 0 C0.99 0.33 1.98 0.66 3 1 C2.01 1.33 1.02 1.66 0 2 C0 1.34 0 0.68 0 0 Z " fill="#6A6641" transform="translate(472,882)"/>
<path d="M0 0 C0.66 0 1.32 0 2 0 C2 0.66 2 1.32 2 2 C1.01 1.67 0.02 1.34 -1 1 C-0.67 0.67 -0.34 0.34 0 0 Z " fill="#696541" transform="translate(449,868)"/>
<path d="M0 0 C0.66 0.99 1.32 1.98 2 3 C1.01 2.67 0.02 2.34 -1 2 C-0.67 1.34 -0.34 0.68 0 0 Z " fill="#6D6741" transform="translate(425,845)"/>
<path d="M0 0 C1.32 0.33 2.64 0.66 4 1 C3.67 1.165 3.67 1.165 2 2 C1.34 1.34 0.68 0.68 0 0 Z " fill="#726942" transform="translate(612,816)"/>
<path d="M0 0 C0.66 0.33 0.66 0.33 4 2 C2.68 2 1.36 2 0 2 C0 1.34 0 0.68 0 0 Z " fill="#896535" transform="translate(680,782)"/>
<path d="M0 0 C0.33 0.66 0.66 1.32 1 2 C0.34 2.66 -0.32 3.32 -1 4 C-0.67 2.68 -0.34 1.36 0 0 Z " fill="#8F622F" transform="translate(298,770)"/>
<path d="M0 0 C0.99 0.33 1.98 0.66 3 1 C2.67 1.66 2.34 2.32 2 3 C1.34 2.67 0.68 2.34 0 2 C0 1.34 0 0.68 0 0 Z " fill="#7E5D36" transform="translate(593,408)"/>
<path d="M0 0 C0.99 0.33 1.98 0.66 3 1 C2.01 1 1.02 1 0 1 C0 0.67 0 0.34 0 0 Z " fill="#716B45" transform="translate(670,972)"/>
<path d="M0 0 C4 1 4 1 4 1 Z " fill="#746C45" transform="translate(655,971)"/>
<path d="M0 0 C1 4 1 4 1 4 Z " fill="#726E47" transform="translate(687,932)"/>
<path d="M0 0 C0.66 0 1.32 0 2 0 C1.67 0.99 1.34 1.98 1 3 C0.67 2.01 0.34 1.02 0 0 Z " fill="#6F6A45" transform="translate(678,906)"/>
<path d="M0 0 C0.66 0.66 1.32 1.32 2 2 C1.01 1.67 0.02 1.34 -1 1 C-0.67 0.67 -0.34 0.34 0 0 Z " fill="#726D46" transform="translate(685,878)"/>
<path d="M0 0 C1 4 1 4 1 4 Z " fill="#6A6E4C" transform="translate(589,841)"/>
<path d="M0 0 C0.495 0.33 0.495 0.33 3 2 C2.01 2 1.02 2 0 2 C0 1.34 0 0.68 0 0 Z " fill="#926835" transform="translate(358,782)"/>
<path d="M0 0 C4 1 4 1 4 1 Z " fill="#946936" transform="translate(748,767)"/>
<path d="M0 0 C4 1 4 1 4 1 Z " fill="#8A602E" transform="translate(250,759)"/>
<path d="M0 0 C0 3 0 3 0 3 Z " fill="#8E6331" transform="translate(791,747)"/>
<path d="M0 0 C0.33 0.165 0.33 0.165 2 1 C1.67 1.66 1.34 2.32 1 3 C0.67 2.01 0.34 1.02 0 0 Z " fill="#926631" transform="translate(728,744)"/>
<path d="M0 0 C0 3 0 3 0 3 Z " fill="#855929" transform="translate(124,668)"/>
<path d="M0 0 C0.99 0.33 1.98 0.66 3 1 C2.01 1 1.02 1 0 1 C0 0.67 0 0.34 0 0 Z " fill="#9A6832" transform="translate(169,628)"/>
<path d="M0 0 C0.99 0 1.98 0 3 0 C2.67 0.66 2.34 1.32 2 2 C1.34 1.34 0.68 0.68 0 0 Z " fill="#7D5D37" transform="translate(401,409)"/>
<path d="M0 0 C0.33 0.99 0.66 1.98 1 3 C0.34 2.67 -0.32 2.34 -1 2 C-0.67 1.34 -0.34 0.68 0 0 Z " fill="#7F5E39" transform="translate(409,406)"/>
<path d="M0 0 C1 4 1 4 1 4 Z " fill="#81623B" transform="translate(396,398)"/>
<path d="M0 0 C0 3 0 3 0 3 Z " fill="#936432" transform="translate(179,357)"/>
<path d="M0 0 C4 1 4 1 4 1 Z " fill="#956431" transform="translate(420,66)"/>
<path d="M0 0 C0.66 0 1.32 0 2 0 C1.67 0.66 1.34 1.32 1 2 C0.67 1.34 0.34 0.68 0 0 Z " fill="#6F6841" transform="translate(593,937)"/>
<path d="M0 0 C3 1 3 1 3 1 Z " fill="#726F46" transform="translate(571,901)"/>
<path d="M0 0 C3 1 3 1 3 1 Z " fill="#6E6A42" transform="translate(493,892)"/>
<path d="M0 0 C0.33 0.165 0.33 0.165 2 1 C1.67 1.165 1.67 1.165 0 2 C0 1.34 0 0.68 0 0 Z " fill="#6D6E4A" transform="translate(590,835)"/>
<path d="M0 0 C0.33 0.165 0.33 0.165 2 1 C1.67 1.165 1.67 1.165 0 2 C0 1.34 0 0.68 0 0 Z " fill="#706D46" transform="translate(605,824)"/>
<path d="M0 0 C3 1 3 1 3 1 Z " fill="#706A44" transform="translate(607,819)"/>
<path d="M0 0 C0.33 0.66 0.66 1.32 1 2 C0.34 1.67 -0.32 1.34 -1 1 C-0.67 0.67 -0.34 0.34 0 0 Z " fill="#826336" transform="translate(706,802)"/>
<path d="M0 0 C3 1 3 1 3 1 Z " fill="#806335" transform="translate(698,801)"/>
<path d="M0 0 C3 1 3 1 3 1 Z " fill="#806233" transform="translate(616,790)"/>
<path d="M0 0 C3 1 3 1 3 1 Z " fill="#895E2C" transform="translate(290,777)"/>
<path d="M0 0 C3 1 3 1 3 1 Z " fill="#8A6031" transform="translate(738,767)"/>
<path d="M0 0 C3 1 3 1 3 1 Z " fill="#8E612F" transform="translate(232,755)"/>
<path d="" fill="#936431" transform="translate(0,0)"/>
<path d="M0 0 C0.66 0.66 1.32 1.32 2 2 C1.34 2 0.68 2 0 2 C0 1.34 0 0.68 0 0 Z " fill="#936330" transform="translate(211,739)"/>
<path d="M0 0 C0.66 0.66 1.32 1.32 2 2 C1.34 2 0.68 2 0 2 C0 1.34 0 0.68 0 0 Z " fill="#906330" transform="translate(208,738)"/>
<path d="M0 0 C0.66 0.66 1.32 1.32 2 2 C1.34 2 0.68 2 0 2 C0 1.34 0 0.68 0 0 Z " fill="#9A6B33" transform="translate(267,732)"/>
<path d="" fill="#986731" transform="translate(0,0)"/>
<path d="M0 0 C0.33 0.66 0.66 1.32 1 2 C0.34 1.67 -0.32 1.34 -1 1 C-0.67 0.67 -0.34 0.34 0 0 Z " fill="#84592A" transform="translate(125,670)"/>
<path d="M0 0 C0.66 0.66 1.32 1.32 2 2 C1.34 2 0.68 2 0 2 C0 1.34 0 0.68 0 0 Z " fill="#905F2C" transform="translate(881,666)"/>
<path d="M0 0 C3 1 3 1 3 1 Z " fill="#85592A" transform="translate(121,667)"/>
<path d="M0 0 C0.33 0.66 0.66 1.32 1 2 C0.34 1.67 -0.32 1.34 -1 1 C-0.67 0.67 -0.34 0.34 0 0 Z " fill="#9B6831" transform="translate(173,611)"/>
<path d="M0 0 C0.33 0.66 0.66 1.32 1 2 C0.34 1.67 -0.32 1.34 -1 1 C-0.67 0.67 -0.34 0.34 0 0 Z " fill="#91632E" transform="translate(129,490)"/>
<path d="M0 0 C0.33 0.165 0.33 0.165 2 1 C1.67 1.165 1.67 1.165 0 2 C0 1.34 0 0.68 0 0 Z " fill="#93632F" transform="translate(141,472)"/>
<path d="M0 0 C3 1 3 1 3 1 Z " fill="#7C5B35" transform="translate(597,409)"/>
<path d="M0 0 C3 1 3 1 3 1 Z " fill="#A36F36" transform="translate(212,380)"/>
<path d="" fill="#875A2B" transform="translate(0,0)"/>
<path d="" fill="#9B6730" transform="translate(0,0)"/>
<path d="M0 0 C0.66 0.66 1.32 1.32 2 2 C1.34 2 0.68 2 0 2 C0 1.34 0 0.68 0 0 Z " fill="#966834" transform="translate(788,302)"/>
<path d="" fill="#9B6933" transform="translate(0,0)"/>
<path d="M0 0 C0.66 0.66 1.32 1.32 2 2 C1.34 2 0.68 2 0 2 C0 1.34 0 0.68 0 0 Z " fill="#926330" transform="translate(779,250)"/>
<path d="M0 0 C0.66 0.66 1.32 1.32 2 2 C1.34 2 0.68 2 0 2 C0 1.34 0 0.68 0 0 Z " fill="#91612E" transform="translate(240,218)"/>
<path d="M0 0 C3 1 3 1 3 1 Z " fill="#92622E" transform="translate(657,96)"/>
<path d="M0 0 C3 1 3 1 3 1 Z " fill="#996934" transform="translate(456,59)"/>
<path d="M0 0 C3 1 3 1 3 1 Z " fill="#936430" transform="translate(497,57)"/>
<path d="M0 0 C3 1 3 1 3 1 Z " fill="#946432" transform="translate(489,57)"/>
<path d="M0 0 C2 1 2 1 2 1 Z " fill="#716B44" transform="translate(651,970)"/>
<path d="" fill="#716D45" transform="translate(0,0)"/>
<path d="" fill="#6D663F" transform="translate(0,0)"/>
<path d="" fill="#6D663E" transform="translate(0,0)"/>
<path d="M0 0 C2 1 2 1 2 1 Z " fill="#706841" transform="translate(597,943)"/>
<path d="" fill="#716E48" transform="translate(0,0)"/>
<path d="" fill="#716B43" transform="translate(0,0)"/>
<path d="M0 0 C2 1 2 1 2 1 Z " fill="#6D6843" transform="translate(490,891)"/>
<path d="M0 0 C2 1 2 1 2 1 Z " fill="#6E6F49" transform="translate(665,885)"/>
<path d="M0 0 C2 1 2 1 2 1 Z " fill="#6B6743" transform="translate(473,885)"/>
<path d="M0 0 C2 1 2 1 2 1 Z " fill="#736D45" transform="translate(686,875)"/>
<path d="M0 0 C2 1 2 1 2 1 Z " fill="#726A41" transform="translate(694,868)"/>
<path d="" fill="#6E6C47" transform="translate(0,0)"/>
<path d="M0 0 C2 1 2 1 2 1 Z " fill="#6C6E47" transform="translate(592,832)"/>
<path d="" fill="#6F6B49" transform="translate(0,0)"/>
<path d="" fill="#6C6641" transform="translate(0,0)"/>
<path d="" fill="#75643D" transform="translate(0,0)"/>
<path d="" fill="#72663E" transform="translate(0,0)"/>
<path d="" fill="#78663E" transform="translate(0,0)"/>
<path d="M0 0 C2 1 2 1 2 1 Z " fill="#7F6136" transform="translate(702,802)"/>
<path d="M0 0 C2 1 2 1 2 1 Z " fill="#876738" transform="translate(664,797)"/>
<path d="" fill="#7C683E" transform="translate(0,0)"/>
<path d="M0 0 C2 1 2 1 2 1 Z " fill="#8B602F" transform="translate(323,790)"/>
<path d="" fill="#865F30" transform="translate(0,0)"/>
<path d="M0 0 C2 1 2 1 2 1 Z " fill="#876737" transform="translate(623,789)"/>
<path d="M0 0 C2 1 2 1 2 1 Z " fill="#8A6735" transform="translate(630,787)"/>
<path d="M0 0 C2 1 2 1 2 1 Z " fill="#8D6635" transform="translate(646,779)"/>
<path d="M0 0 C2 1 2 1 2 1 Z " fill="#906733" transform="translate(352,779)"/>
<path d="M0 0 C2 1 2 1 2 1 Z " fill="#865C2B" transform="translate(288,776)"/>
<path d="M0 0 C2 1 2 1 2 1 Z " fill="#8E6534" transform="translate(667,774)"/>
<path d="" fill="#8F612E" transform="translate(0,0)"/>
<path d="" fill="#8B6132" transform="translate(0,0)"/>
<path d="M0 0 C2 1 2 1 2 1 Z " fill="#956733" transform="translate(761,765)"/>
<path d="M0 0 C2 1 2 1 2 1 Z " fill="#91612D" transform="translate(297,762)"/>
<path d="" fill="#966732" transform="translate(0,0)"/>
<path d="" fill="#946633" transform="translate(0,0)"/>
<path d="M0 0 C2 1 2 1 2 1 Z " fill="#916330" transform="translate(237,756)"/>
<path d="" fill="#926230" transform="translate(0,0)"/>
<path d="M0 0 C2 1 2 1 2 1 Z " fill="#93632F" transform="translate(214,743)"/>
<path d="" fill="#95642F" transform="translate(0,0)"/>
<path d="" fill="#90622F" transform="translate(0,0)"/>
<path d="" fill="#976733" transform="translate(0,0)"/>
<path d="M0 0 C2 1 2 1 2 1 Z " fill="#9A6B34" transform="translate(816,709)"/>
<path d="M0 0 C2 1 2 1 2 1 Z " fill="#8E602D" transform="translate(146,691)"/>
<path d="" fill="#8A5C2B" transform="translate(0,0)"/>
<path d="M0 0 C2 1 2 1 2 1 Z " fill="#915F2D" transform="translate(868,665)"/>
<path d="M0 0 C2 1 2 1 2 1 Z " fill="#91602C" transform="translate(865,664)"/>
<path d="" fill="#9B6933" transform="translate(0,0)"/>
<path d="" fill="#97632F" transform="translate(0,0)"/>
<path d="M0 0 C2 1 2 1 2 1 Z " fill="#90622F" transform="translate(887,639)"/>
<path d="M0 0 C2 1 2 1 2 1 Z " fill="#8D5F2E" transform="translate(894,636)"/>
<path d="M0 0 C2 1 2 1 2 1 Z " fill="#91612E" transform="translate(880,621)"/>
<path d="M0 0 C2 1 2 1 2 1 Z " fill="#8F5F2C" transform="translate(892,620)"/>
<path d="M0 0 C2 1 2 1 2 1 Z " fill="#96652E" transform="translate(876,620)"/>
<path d="" fill="#926330" transform="translate(0,0)"/>
<path d="M0 0 C2 1 2 1 2 1 Z " fill="#9A6830" transform="translate(157,604)"/>
<path d="M0 0 C2 1 2 1 2 1 Z " fill="#966831" transform="translate(152,602)"/>
<path d="" fill="#996834" transform="translate(0,0)"/>
<path d="" fill="#996A35" transform="translate(0,0)"/>
<path d="" fill="#966832" transform="translate(0,0)"/>
<path d="M0 0 C2 1 2 1 2 1 Z " fill="#926231" transform="translate(886,480)"/>
<path d="M0 0 C2 1 2 1 2 1 Z " fill="#956730" transform="translate(876,467)"/>
<path d="M0 0 C2 1 2 1 2 1 Z " fill="#98672F" transform="translate(874,465)"/>
<path d="" fill="#92622D" transform="translate(0,0)"/>
<path d="" fill="#99672F" transform="translate(0,0)"/>
<path d="" fill="#9F6D33" transform="translate(0,0)"/>
<path d="" fill="#9B6A34" transform="translate(0,0)"/>
<path d="M0 0 C2 1 2 1 2 1 Z " fill="#7B5A38" transform="translate(600,408)"/>
<path d="" fill="#9B6B34" transform="translate(0,0)"/>
<path d="" fill="#9A6A33" transform="translate(0,0)"/>
<path d="M0 0 C2 1 2 1 2 1 Z " fill="#80633B" transform="translate(407,403)"/>
<path d="" fill="#80633A" transform="translate(0,0)"/>
<path d="" fill="#9D6C35" transform="translate(0,0)"/>
<path d="M0 0 C2 1 2 1 2 1 Z " fill="#81623A" transform="translate(399,395)"/>
<path d="M0 0 C2 1 2 1 2 1 Z " fill="#9D6E35" transform="translate(210,392)"/>
<path d="M0 0 C2 1 2 1 2 1 Z " fill="#A06D34" transform="translate(210,379)"/>
<path d="" fill="#986832" transform="translate(0,0)"/>
<path d="" fill="#8C5E2D" transform="translate(0,0)"/>
<path d="" fill="#85592B" transform="translate(0,0)"/>
<path d="" fill="#946734" transform="translate(0,0)"/>
<path d="M0 0 C2 1 2 1 2 1 Z " fill="#956333" transform="translate(197,320)"/>
<path d="" fill="#93642F" transform="translate(0,0)"/>
<path d="M0 0 C2 1 2 1 2 1 Z " fill="#8F602D" transform="translate(182,315)"/>
<path d="M0 0 C2 1 2 1 2 1 Z " fill="#91622F" transform="translate(180,314)"/>
<path d="M0 0 C2 1 2 1 2 1 Z " fill="#956633" transform="translate(789,312)"/>
<path d="M0 0 C2 1 2 1 2 1 Z " fill="#966632" transform="translate(225,274)"/>
<path d="" fill="#976431" transform="translate(0,0)"/>
<path d="" fill="#93642F" transform="translate(0,0)"/>
<path d="" fill="#956330" transform="translate(0,0)"/>
<path d="" fill="#92652F" transform="translate(0,0)"/>
<path d="" fill="#976630" transform="translate(0,0)"/>
<path d="" fill="#97652E" transform="translate(0,0)"/>
<path d="M0 0 C2 1 2 1 2 1 Z " fill="#946530" transform="translate(740,163)"/>
<path d="" fill="#916430" transform="translate(0,0)"/>
<path d="M0 0 C2 1 2 1 2 1 Z " fill="#8E612D" transform="translate(675,104)"/>
<path d="M0 0 C2 1 2 1 2 1 Z " fill="#946330" transform="translate(359,90)"/>
<path d="M0 0 C2 1 2 1 2 1 Z " fill="#956631" transform="translate(631,89)"/>
<path d="" fill="#93622F" transform="translate(0,0)"/>
<path d="M0 0 C2 1 2 1 2 1 Z " fill="#956631" transform="translate(554,65)"/>
<path d="M0 0 C2 1 2 1 2 1 Z " fill="#936532" transform="translate(549,64)"/>
<path d="M0 0 C2 1 2 1 2 1 Z " fill="#966631" transform="translate(429,64)"/>
<path d="M0 0 C2 1 2 1 2 1 Z " fill="#976631" transform="translate(513,58)"/>
<path d="M0 0 C2 1 2 1 2 1 Z " fill="#976632" transform="translate(505,57)"/>
<path d="" fill="#966632" transform="translate(0,0)"/>
<path d="M0 0 C2 1 2 1 2 1 Z " fill="#966532" transform="translate(482,57)"/>
<path d="" fill="#605432" transform="translate(0,0)"/>
<path d="" fill="#3B361E" transform="translate(0,0)"/>
<path d="" fill="#6E6641" transform="translate(0,0)"/>
<path d="" fill="#171307" transform="translate(0,0)"/>
<path d="" fill="#716A44" transform="translate(0,0)"/>
<path d="" fill="#736A43" transform="translate(0,0)"/>
<path d="" fill="#706843" transform="translate(0,0)"/>
<path d="" fill="#726D46" transform="translate(0,0)"/>
<path d="" fill="#6C6440" transform="translate(0,0)"/>
<path d="" fill="#736B44" transform="translate(0,0)"/>
<path d="" fill="#6B623E" transform="translate(0,0)"/>
<path d="" fill="#746B44" transform="translate(0,0)"/>
<path d="" fill="#726540" transform="translate(0,0)"/>
<path d="" fill="#0F0D03" transform="translate(0,0)"/>
<path d="" fill="#726640" transform="translate(0,0)"/>
<path d="" fill="#726941" transform="translate(0,0)"/>
<path d="" fill="#706841" transform="translate(0,0)"/>
<path d="" fill="#595231" transform="translate(0,0)"/>
<path d="" fill="#6E673F" transform="translate(0,0)"/>
<path d="" fill="#726B42" transform="translate(0,0)"/>
<path d="" fill="#736A41" transform="translate(0,0)"/>
<path d="" fill="#706740" transform="translate(0,0)"/>
<path d="" fill="#73653F" transform="translate(0,0)"/>
<path d="" fill="#6F6541" transform="translate(0,0)"/>
<path d="" fill="#716840" transform="translate(0,0)"/>
<path d="" fill="#161206" transform="translate(0,0)"/>
<path d="" fill="#716844" transform="translate(0,0)"/>
<path d="" fill="#6F6B44" transform="translate(0,0)"/>
<path d="" fill="#716A45" transform="translate(0,0)"/>
<path d="" fill="#130D04" transform="translate(0,0)"/>
<path d="" fill="#3D391E" transform="translate(0,0)"/>
<path d="" fill="#1F180A" transform="translate(0,0)"/>
<path d="" fill="#070600" transform="translate(0,0)"/>
<path d="" fill="#6D6942" transform="translate(0,0)"/>
<path d="" fill="#706840" transform="translate(0,0)"/>
<path d="" fill="#706A41" transform="translate(0,0)"/>
<path d="" fill="#726D44" transform="translate(0,0)"/>
<path d="" fill="#716A42" transform="translate(0,0)"/>
<path d="" fill="#706C45" transform="translate(0,0)"/>
<path d="" fill="#716D46" transform="translate(0,0)"/>
<path d="" fill="#716946" transform="translate(0,0)"/>
<path d="" fill="#706D45" transform="translate(0,0)"/>
<path d="" fill="#736B43" transform="translate(0,0)"/>
<path d="" fill="#706D45" transform="translate(0,0)"/>
<path d="" fill="#706E47" transform="translate(0,0)"/>
<path d="" fill="#6E6E48" transform="translate(0,0)"/>
<path d="" fill="#6D6A44" transform="translate(0,0)"/>
<path d="" fill="#726E48" transform="translate(0,0)"/>
<path d="" fill="#6F6E47" transform="translate(0,0)"/>
<path d="" fill="#6D6945" transform="translate(0,0)"/>
<path d="" fill="#6F6C44" transform="translate(0,0)"/>
<path d="" fill="#706943" transform="translate(0,0)"/>
<path d="" fill="#6E6C43" transform="translate(0,0)"/>
<path d="" fill="#6E6B42" transform="translate(0,0)"/>
<path d="" fill="#716B45" transform="translate(0,0)"/>
<path d="" fill="#6E6742" transform="translate(0,0)"/>
<path d="" fill="#6C6942" transform="translate(0,0)"/>
<path d="" fill="#6F6A44" transform="translate(0,0)"/>
<path d="" fill="#6E6943" transform="translate(0,0)"/>
<path d="" fill="#6F6C44" transform="translate(0,0)"/>
<path d="" fill="#6F6942" transform="translate(0,0)"/>
<path d="" fill="#6F6C44" transform="translate(0,0)"/>
<path d="" fill="#706B44" transform="translate(0,0)"/>
<path d="" fill="#72704B" transform="translate(0,0)"/>
<path d="" fill="#6B6743" transform="translate(0,0)"/>
<path d="" fill="#72714A" transform="translate(0,0)"/>
<path d="" fill="#716742" transform="translate(0,0)"/>
<path d="" fill="#6B6A44" transform="translate(0,0)"/>
<path d="" fill="#6A6A44" transform="translate(0,0)"/>
<path d="" fill="#746D46" transform="translate(0,0)"/>
<path d="" fill="#6C663F" transform="translate(0,0)"/>
<path d="" fill="#6B6742" transform="translate(0,0)"/>
<path d="" fill="#6B6841" transform="translate(0,0)"/>
<path d="" fill="#6C6943" transform="translate(0,0)"/>
<path d="" fill="#6B6540" transform="translate(0,0)"/>
<path d="" fill="#676540" transform="translate(0,0)"/>
<path d="" fill="#716943" transform="translate(0,0)"/>
<path d="" fill="#726B42" transform="translate(0,0)"/>
<path d="" fill="#6A6641" transform="translate(0,0)"/>
<path d="" fill="#746C44" transform="translate(0,0)"/>
<path d="" fill="#6A6640" transform="translate(0,0)"/>
<path d="" fill="#766D45" transform="translate(0,0)"/>
<path d="" fill="#6E6743" transform="translate(0,0)"/>
<path d="" fill="#696641" transform="translate(0,0)"/>
<path d="" fill="#6B653E" transform="translate(0,0)"/>
<path d="" fill="#706742" transform="translate(0,0)"/>
<path d="" fill="#69643E" transform="translate(0,0)"/>
<path d="" fill="#736B44" transform="translate(0,0)"/>
<path d="" fill="#6E6741" transform="translate(0,0)"/>
<path d="" fill="#766A43" transform="translate(0,0)"/>
<path d="" fill="#6E683F" transform="translate(0,0)"/>
<path d="" fill="#716A41" transform="translate(0,0)"/>
<path d="" fill="#6D724F" transform="translate(0,0)"/>
<path d="" fill="#756942" transform="translate(0,0)"/>
<path d="" fill="#706D45" transform="translate(0,0)"/>
<path d="" fill="#6F653F" transform="translate(0,0)"/>
<path d="" fill="#6D6F49" transform="translate(0,0)"/>
<path d="" fill="#6E6E47" transform="translate(0,0)"/>
<path d="" fill="#716F47" transform="translate(0,0)"/>
<path d="" fill="#6E6F47" transform="translate(0,0)"/>
<path d="" fill="#707149" transform="translate(0,0)"/>
<path d="" fill="#726E47" transform="translate(0,0)"/>
<path d="" fill="#716E47" transform="translate(0,0)"/>
<path d="" fill="#726E46" transform="translate(0,0)"/>
<path d="" fill="#736D47" transform="translate(0,0)"/>
<path d="" fill="#726D47" transform="translate(0,0)"/>
<path d="" fill="#706944" transform="translate(0,0)"/>
<path d="" fill="#706A43" transform="translate(0,0)"/>
<path d="" fill="#766C44" transform="translate(0,0)"/>
<path d="" fill="#706C47" transform="translate(0,0)"/>
<path d="" fill="#7B6033" transform="translate(0,0)"/>
<path d="" fill="#766A42" transform="translate(0,0)"/>
<path d="" fill="#7F6439" transform="translate(0,0)"/>
<path d="" fill="#776740" transform="translate(0,0)"/>
<path d="" fill="#79653D" transform="translate(0,0)"/>
<path d="" fill="#836335" transform="translate(0,0)"/>
<path d="" fill="#816034" transform="translate(0,0)"/>
<path d="" fill="#7D6438" transform="translate(0,0)"/>
<path d="" fill="#7F683A" transform="translate(0,0)"/>
<path d="" fill="#7F6134" transform="translate(0,0)"/>
<path d="" fill="#806538" transform="translate(0,0)"/>
<path d="" fill="#876636" transform="translate(0,0)"/>
<path d="" fill="#85693A" transform="translate(0,0)"/>
<path d="" fill="#866436" transform="translate(0,0)"/>
<path d="" fill="#866637" transform="translate(0,0)"/>
<path d="" fill="#876737" transform="translate(0,0)"/>
<path d="" fill="#866737" transform="translate(0,0)"/>
<path d="" fill="#84683A" transform="translate(0,0)"/>
<path d="" fill="#876839" transform="translate(0,0)"/>
<path d="" fill="#8A6939" transform="translate(0,0)"/>
<path d="" fill="#8A6331" transform="translate(0,0)"/>
<path d="" fill="#895F30" transform="translate(0,0)"/>
<path d="" fill="#7D592A" transform="translate(0,0)"/>
<path d="" fill="#886333" transform="translate(0,0)"/>
<path d="" fill="#855C2C" transform="translate(0,0)"/>
<path d="" fill="#865D2D" transform="translate(0,0)"/>
<path d="" fill="#8B6534" transform="translate(0,0)"/>
<path d="" fill="#906532" transform="translate(0,0)"/>
<path d="" fill="#8E6333" transform="translate(0,0)"/>
<path d="" fill="#916530" transform="translate(0,0)"/>
<path d="" fill="#886134" transform="translate(0,0)"/>
<path d="" fill="#906532" transform="translate(0,0)"/>
<path d="" fill="#8C6533" transform="translate(0,0)"/>
<path d="" fill="#8D6736" transform="translate(0,0)"/>
<path d="" fill="#956834" transform="translate(0,0)"/>
<path d="" fill="#926534" transform="translate(0,0)"/>
<path d="" fill="#865F30" transform="translate(0,0)"/>
<path d="" fill="#936833" transform="translate(0,0)"/>
<path d="" fill="#885C2D" transform="translate(0,0)"/>
<path d="" fill="#895E2D" transform="translate(0,0)"/>
<path d="" fill="#986B35" transform="translate(0,0)"/>
<path d="" fill="#946934" transform="translate(0,0)"/>
<path d="" fill="#8E6835" transform="translate(0,0)"/>
<path d="" fill="#906533" transform="translate(0,0)"/>
<path d="" fill="#8E6534" transform="translate(0,0)"/>
<path d="" fill="#8E6735" transform="translate(0,0)"/>
<path d="" fill="#906736" transform="translate(0,0)"/>
<path d="" fill="#8F6633" transform="translate(0,0)"/>
<path d="" fill="#8B6435" transform="translate(0,0)"/>
<path d="" fill="#986933" transform="translate(0,0)"/>
<path d="" fill="#90632F" transform="translate(0,0)"/>
<path d="" fill="#956834" transform="translate(0,0)"/>
<path d="" fill="#875D2F" transform="translate(0,0)"/>
<path d="" fill="#8B6233" transform="translate(0,0)"/>
<path d="" fill="#976C36" transform="translate(0,0)"/>
<path d="" fill="#936732" transform="translate(0,0)"/>
<path d="" fill="#966933" transform="translate(0,0)"/>
<path d="" fill="#936330" transform="translate(0,0)"/>
<path d="" fill="#976A35" transform="translate(0,0)"/>
<path d="" fill="#956834" transform="translate(0,0)"/>
<path d="" fill="#916331" transform="translate(0,0)"/>
<path d="" fill="#946733" transform="translate(0,0)"/>
<path d="" fill="#8F6431" transform="translate(0,0)"/>
<path d="" fill="#8E602F" transform="translate(0,0)"/>
<path d="" fill="#906331" transform="translate(0,0)"/>
<path d="" fill="#976533" transform="translate(0,0)"/>
<path d="" fill="#936934" transform="translate(0,0)"/>
<path d="" fill="#9A6832" transform="translate(0,0)"/>
<path d="" fill="#986933" transform="translate(0,0)"/>
<path d="" fill="#956734" transform="translate(0,0)"/>
<path d="" fill="#8F6232" transform="translate(0,0)"/>
<path d="" fill="#8F6237" transform="translate(0,0)"/>
<path d="" fill="#8E6131" transform="translate(0,0)"/>
<path d="" fill="#946732" transform="translate(0,0)"/>
<path d="" fill="#936530" transform="translate(0,0)"/>
<path d="" fill="#986732" transform="translate(0,0)"/>
<path d="" fill="#936330" transform="translate(0,0)"/>
<path d="" fill="#956833" transform="translate(0,0)"/>
<path d="" fill="#966731" transform="translate(0,0)"/>
<path d="" fill="#966630" transform="translate(0,0)"/>
<path d="" fill="#92652F" transform="translate(0,0)"/>
<path d="" fill="#946932" transform="translate(0,0)"/>
<path d="" fill="#92652F" transform="translate(0,0)"/>
<path d="" fill="#9D6E36" transform="translate(0,0)"/>
<path d="" fill="#91642F" transform="translate(0,0)"/>
<path d="" fill="#9C6C36" transform="translate(0,0)"/>
<path d="" fill="#9F6F37" transform="translate(0,0)"/>
<path d="" fill="#9E6E38" transform="translate(0,0)"/>
<path d="" fill="#936531" transform="translate(0,0)"/>
<path d="" fill="#9F6E37" transform="translate(0,0)"/>
<path d="" fill="#95652D" transform="translate(0,0)"/>
<path d="" fill="#A06F35" transform="translate(0,0)"/>
<path d="" fill="#976932" transform="translate(0,0)"/>
<path d="" fill="#996A33" transform="translate(0,0)"/>
<path d="" fill="#986832" transform="translate(0,0)"/>
<path d="" fill="#936332" transform="translate(0,0)"/>
<path d="" fill="#926530" transform="translate(0,0)"/>
<path d="" fill="#946431" transform="translate(0,0)"/>
<path d="" fill="#906230" transform="translate(0,0)"/>
<path d="" fill="#A37037" transform="translate(0,0)"/>
<path d="" fill="#A27036" transform="translate(0,0)"/>
<path d="" fill="#A5743B" transform="translate(0,0)"/>
<path d="" fill="#9E6E35" transform="translate(0,0)"/>
<path d="" fill="#90642F" transform="translate(0,0)"/>
<path d="" fill="#946332" transform="translate(0,0)"/>
<path d="" fill="#916530" transform="translate(0,0)"/>
<path d="" fill="#91612F" transform="translate(0,0)"/>
<path d="" fill="#91612E" transform="translate(0,0)"/>
<path d="" fill="#996931" transform="translate(0,0)"/>
<path d="" fill="#9A6A33" transform="translate(0,0)"/>
<path d="" fill="#9D6D34" transform="translate(0,0)"/>
<path d="" fill="#986B33" transform="translate(0,0)"/>
<path d="" fill="#946530" transform="translate(0,0)"/>
<path d="" fill="#895E2F" transform="translate(0,0)"/>
<path d="" fill="#9D6B35" transform="translate(0,0)"/>
<path d="" fill="#8C5F2E" transform="translate(0,0)"/>
<path d="" fill="#895E2F" transform="translate(0,0)"/>
<path d="" fill="#8C612F" transform="translate(0,0)"/>
<path d="" fill="#8D602F" transform="translate(0,0)"/>
<path d="" fill="#8C5D2E" transform="translate(0,0)"/>
<path d="" fill="#8D612E" transform="translate(0,0)"/>
<path d="" fill="#885D2B" transform="translate(0,0)"/>
<path d="" fill="#8D5D2B" transform="translate(0,0)"/>
<path d="" fill="#8D5F2D" transform="translate(0,0)"/>
<path d="" fill="#8C5E2E" transform="translate(0,0)"/>
<path d="" fill="#956430" transform="translate(0,0)"/>
<path d="" fill="#895D2C" transform="translate(0,0)"/>
<path d="" fill="#8D612A" transform="translate(0,0)"/>
<path d="" fill="#93622E" transform="translate(0,0)"/>
<path d="" fill="#845729" transform="translate(0,0)"/>
<path d="" fill="#865B2B" transform="translate(0,0)"/>
<path d="" fill="#9B6A33" transform="translate(0,0)"/>
<path d="" fill="#9A6934" transform="translate(0,0)"/>
<path d="" fill="#A97639" transform="translate(0,0)"/>
<path d="" fill="#825727" transform="translate(0,0)"/>
<path d="" fill="#9A6832" transform="translate(0,0)"/>
<path d="" fill="#875829" transform="translate(0,0)"/>
<path d="" fill="#97652F" transform="translate(0,0)"/>
<path d="" fill="#8D5F2D" transform="translate(0,0)"/>
<path d="" fill="#94642F" transform="translate(0,0)"/>
<path d="" fill="#8D6131" transform="translate(0,0)"/>
<path d="" fill="#90602D" transform="translate(0,0)"/>
<path d="" fill="#9A6931" transform="translate(0,0)"/>
<path d="" fill="#9C6C34" transform="translate(0,0)"/>
<path d="" fill="#90602D" transform="translate(0,0)"/>
<path d="" fill="#93652E" transform="translate(0,0)"/>
<path d="" fill="#8F5D2C" transform="translate(0,0)"/>
<path d="" fill="#895C2D" transform="translate(0,0)"/>
<path d="" fill="#8A612D" transform="translate(0,0)"/>
<path d="" fill="#986A30" transform="translate(0,0)"/>
<path d="" fill="#9D6B32" transform="translate(0,0)"/>
<path d="" fill="#8A5B2B" transform="translate(0,0)"/>
<path d="" fill="#4D3213" transform="translate(0,0)"/>
<path d="" fill="#93632E" transform="translate(0,0)"/>
<path d="" fill="#97642F" transform="translate(0,0)"/>
<path d="" fill="#95652E" transform="translate(0,0)"/>
<path d="" fill="#91602E" transform="translate(0,0)"/>
<path d="" fill="#916230" transform="translate(0,0)"/>
<path d="" fill="#976530" transform="translate(0,0)"/>
<path d="" fill="#9A6931" transform="translate(0,0)"/>
<path d="" fill="#9C6A31" transform="translate(0,0)"/>
<path d="" fill="#A16E34" transform="translate(0,0)"/>
<path d="" fill="#9C6B34" transform="translate(0,0)"/>
<path d="" fill="#9A6934" transform="translate(0,0)"/>
<path d="" fill="#986731" transform="translate(0,0)"/>
<path d="" fill="#956732" transform="translate(0,0)"/>
<path d="" fill="#996934" transform="translate(0,0)"/>
<path d="" fill="#9C6C34" transform="translate(0,0)"/>
<path d="" fill="#986A36" transform="translate(0,0)"/>
<path d="" fill="#9A6A33" transform="translate(0,0)"/>
<path d="" fill="#986832" transform="translate(0,0)"/>
<path d="" fill="#976630" transform="translate(0,0)"/>
<path d="" fill="#9A6C37" transform="translate(0,0)"/>
<path d="" fill="#996732" transform="translate(0,0)"/>
<path d="" fill="#97672F" transform="translate(0,0)"/>
<path d="" fill="#956531" transform="translate(0,0)"/>
<path d="" fill="#966530" transform="translate(0,0)"/>
<path d="" fill="#94632D" transform="translate(0,0)"/>
<path d="" fill="#93622F" transform="translate(0,0)"/>
<path d="" fill="#93622C" transform="translate(0,0)"/>
<path d="" fill="#966732" transform="translate(0,0)"/>
<path d="" fill="#956631" transform="translate(0,0)"/>
<path d="" fill="#926331" transform="translate(0,0)"/>
<path d="" fill="#91602C" transform="translate(0,0)"/>
<path d="" fill="#956731" transform="translate(0,0)"/>
<path d="" fill="#966A32" transform="translate(0,0)"/>
<path d="" fill="#96652E" transform="translate(0,0)"/>
<path d="" fill="#946530" transform="translate(0,0)"/>
<path d="" fill="#946530" transform="translate(0,0)"/>
<path d="" fill="#916530" transform="translate(0,0)"/>
<path d="" fill="#986630" transform="translate(0,0)"/>
<path d="" fill="#93642E" transform="translate(0,0)"/>
<path d="" fill="#996734" transform="translate(0,0)"/>
<path d="" fill="#94662F" transform="translate(0,0)"/>
<path d="" fill="#966731" transform="translate(0,0)"/>
<path d="" fill="#97672F" transform="translate(0,0)"/>
<path d="" fill="#8D602D" transform="translate(0,0)"/>
<path d="" fill="#966632" transform="translate(0,0)"/>
<path d="" fill="#97652F" transform="translate(0,0)"/>
<path d="" fill="#92632E" transform="translate(0,0)"/>
<path d="" fill="#94642E" transform="translate(0,0)"/>
<path d="" fill="#926530" transform="translate(0,0)"/>
<path d="" fill="#9C692F" transform="translate(0,0)"/>
<path d="" fill="#91642E" transform="translate(0,0)"/>
<path d="" fill="#926330" transform="translate(0,0)"/>
<path d="" fill="#93612F" transform="translate(0,0)"/>
<path d="" fill="#93622D" transform="translate(0,0)"/>
<path d="" fill="#98652F" transform="translate(0,0)"/>
<path d="" fill="#90602D" transform="translate(0,0)"/>
<path d="" fill="#966631" transform="translate(0,0)"/>
<path d="" fill="#986631" transform="translate(0,0)"/>
<path d="" fill="#936630" transform="translate(0,0)"/>
<path d="" fill="#93632E" transform="translate(0,0)"/>
<path d="" fill="#9C6B32" transform="translate(0,0)"/>
<path d="" fill="#9D6930" transform="translate(0,0)"/>
<path d="" fill="#9D6A32" transform="translate(0,0)"/>
<path d="" fill="#9C6931" transform="translate(0,0)"/>
<path d="" fill="#9B6B32" transform="translate(0,0)"/>
<path d="" fill="#976730" transform="translate(0,0)"/>
<path d="" fill="#95652F" transform="translate(0,0)"/>
<path d="" fill="#976534" transform="translate(0,0)"/>
<path d="" fill="#966633" transform="translate(0,0)"/>
<path d="" fill="#9E6A35" transform="translate(0,0)"/>
<path d="" fill="#9C6B32" transform="translate(0,0)"/>
<path d="" fill="#986933" transform="translate(0,0)"/>
<path d="" fill="#251605" transform="translate(0,0)"/>
<path d="" fill="#966630" transform="translate(0,0)"/>
<path d="" fill="#9D6A37" transform="translate(0,0)"/>
<path d="" fill="#996B32" transform="translate(0,0)"/>
<path d="" fill="#9E6B33" transform="translate(0,0)"/>
<path d="" fill="#9B6934" transform="translate(0,0)"/>
<path d="" fill="#996833" transform="translate(0,0)"/>
<path d="" fill="#9D6C35" transform="translate(0,0)"/>
<path d="" fill="#9B6B34" transform="translate(0,0)"/>
<path d="" fill="#9C6A33" transform="translate(0,0)"/>
<path d="" fill="#9A6933" transform="translate(0,0)"/>
<path d="" fill="#7E5D34" transform="translate(0,0)"/>
<path d="" fill="#9E6B32" transform="translate(0,0)"/>
<path d="" fill="#9E6C34" transform="translate(0,0)"/>
<path d="" fill="#816137" transform="translate(0,0)"/>
<path d="" fill="#816039" transform="translate(0,0)"/>
<path d="" fill="#82623B" transform="translate(0,0)"/>
<path d="" fill="#7D5D37" transform="translate(0,0)"/>
<path d="" fill="#815F39" transform="translate(0,0)"/>
<path d="" fill="#7E5F38" transform="translate(0,0)"/>
<path d="" fill="#7F6137" transform="translate(0,0)"/>
<path d="" fill="#7D6037" transform="translate(0,0)"/>
<path d="" fill="#81603A" transform="translate(0,0)"/>
<path d="" fill="#806139" transform="translate(0,0)"/>
<path d="" fill="#83633C" transform="translate(0,0)"/>
<path d="" fill="#83643D" transform="translate(0,0)"/>
<path d="" fill="#83653D" transform="translate(0,0)"/>
<path d="" fill="#966632" transform="translate(0,0)"/>
<path d="" fill="#7F5E35" transform="translate(0,0)"/>
<path d="" fill="#976731" transform="translate(0,0)"/>
<path d="" fill="#806037" transform="translate(0,0)"/>
<path d="" fill="#9B6B34" transform="translate(0,0)"/>
<path d="" fill="#A16F35" transform="translate(0,0)"/>
<path d="" fill="#9A6A32" transform="translate(0,0)"/>
<path d="" fill="#9C6C34" transform="translate(0,0)"/>
<path d="" fill="#986935" transform="translate(0,0)"/>
<path d="" fill="#986836" transform="translate(0,0)"/>
<path d="" fill="#946631" transform="translate(0,0)"/>
<path d="" fill="#986935" transform="translate(0,0)"/>
<path d="" fill="#936432" transform="translate(0,0)"/>
<path d="" fill="#936430" transform="translate(0,0)"/>
<path d="" fill="#9D6D36" transform="translate(0,0)"/>
<path d="" fill="#9B6B34" transform="translate(0,0)"/>
<path d="" fill="#9B6C35" transform="translate(0,0)"/>
<path d="" fill="#966530" transform="translate(0,0)"/>
<path d="" fill="#0F0900" transform="translate(0,0)"/>
<path d="" fill="#543818" transform="translate(0,0)"/>
<path d="" fill="#956330" transform="translate(0,0)"/>
<path d="" fill="#986933" transform="translate(0,0)"/>
<path d="" fill="#936430" transform="translate(0,0)"/>
<path d="" fill="#926130" transform="translate(0,0)"/>
<path d="" fill="#9C6D34" transform="translate(0,0)"/>
<path d="" fill="#91612E" transform="translate(0,0)"/>
<path d="" fill="#996835" transform="translate(0,0)"/>
<path d="" fill="#9A6933" transform="translate(0,0)"/>
<path d="" fill="#9D6934" transform="translate(0,0)"/>
<path d="" fill="#976730" transform="translate(0,0)"/>
<path d="" fill="#976730" transform="translate(0,0)"/>
<path d="" fill="#956730" transform="translate(0,0)"/>
<path d="" fill="#93622E" transform="translate(0,0)"/>
<path d="" fill="#855828" transform="translate(0,0)"/>
<path d="" fill="#8E602D" transform="translate(0,0)"/>
<path d="" fill="#865C2C" transform="translate(0,0)"/>
<path d="" fill="#8D5F2E" transform="translate(0,0)"/>
<path d="" fill="#946732" transform="translate(0,0)"/>
<path d="" fill="#946733" transform="translate(0,0)"/>
<path d="" fill="#996834" transform="translate(0,0)"/>
<path d="" fill="#976734" transform="translate(0,0)"/>
<path d="" fill="#996731" transform="translate(0,0)"/>
<path d="" fill="#996933" transform="translate(0,0)"/>
<path d="" fill="#956631" transform="translate(0,0)"/>
<path d="" fill="#996732" transform="translate(0,0)"/>
<path d="" fill="#9A6732" transform="translate(0,0)"/>
<path d="" fill="#936434" transform="translate(0,0)"/>
<path d="" fill="#946332" transform="translate(0,0)"/>
<path d="" fill="#97642F" transform="translate(0,0)"/>
<path d="" fill="#956631" transform="translate(0,0)"/>
<path d="" fill="#92612F" transform="translate(0,0)"/>
<path d="" fill="#946230" transform="translate(0,0)"/>
<path d="" fill="#976832" transform="translate(0,0)"/>
<path d="" fill="#92622F" transform="translate(0,0)"/>
<path d="" fill="#92622F" transform="translate(0,0)"/>
<path d="" fill="#996831" transform="translate(0,0)"/>
<path d="" fill="#93652F" transform="translate(0,0)"/>
<path d="" fill="#916532" transform="translate(0,0)"/>
<path d="" fill="#966830" transform="translate(0,0)"/>
<path d="" fill="#8F602E" transform="translate(0,0)"/>
<path d="" fill="#8D602B" transform="translate(0,0)"/>
<path d="" fill="#9B6830" transform="translate(0,0)"/>
<path d="" fill="#94622D" transform="translate(0,0)"/>
<path d="" fill="#946631" transform="translate(0,0)"/>
<path d="" fill="#916530" transform="translate(0,0)"/>
<path d="" fill="#8D5E2C" transform="translate(0,0)"/>
<path d="" fill="#906230" transform="translate(0,0)"/>
<path d="" fill="#916532" transform="translate(0,0)"/>
<path d="" fill="#946632" transform="translate(0,0)"/>
<path d="" fill="#956430" transform="translate(0,0)"/>
<path d="" fill="#936430" transform="translate(0,0)"/>
<path d="" fill="#97662F" transform="translate(0,0)"/>
<path d="" fill="#8D5D2D" transform="translate(0,0)"/>
<path d="" fill="#936331" transform="translate(0,0)"/>
<path d="" fill="#966531" transform="translate(0,0)"/>
<path d="" fill="#8A5E2B" transform="translate(0,0)"/>
<path d="" fill="#160C00" transform="translate(0,0)"/>
<path d="" fill="#926430" transform="translate(0,0)"/>
<path d="" fill="#8F622F" transform="translate(0,0)"/>
<path d="" fill="#946430" transform="translate(0,0)"/>
<path d="" fill="#90622F" transform="translate(0,0)"/>
<path d="" fill="#966730" transform="translate(0,0)"/>
<path d="" fill="#966733" transform="translate(0,0)"/>
<path d="" fill="#976530" transform="translate(0,0)"/>
<path d="" fill="#8F5F2E" transform="translate(0,0)"/>
<path d="" fill="#8F5C2D" transform="translate(0,0)"/>
<path d="" fill="#956330" transform="translate(0,0)"/>
<path d="" fill="#92622F" transform="translate(0,0)"/>
<path d="" fill="#946231" transform="translate(0,0)"/>
<path d="" fill="#93602E" transform="translate(0,0)"/>
<path d="" fill="#90622F" transform="translate(0,0)"/>
<path d="" fill="#8A5D2C" transform="translate(0,0)"/>
<path d="" fill="#8F622E" transform="translate(0,0)"/>
<path d="" fill="#8E5E2B" transform="translate(0,0)"/>
<path d="" fill="#90622F" transform="translate(0,0)"/>
<path d="" fill="#93612E" transform="translate(0,0)"/>
<path d="" fill="#956634" transform="translate(0,0)"/>
<path d="" fill="#905F2F" transform="translate(0,0)"/>
<path d="" fill="#724A21" transform="translate(0,0)"/>
<path d="" fill="#92602F" transform="translate(0,0)"/>
<path d="" fill="#906232" transform="translate(0,0)"/>
<path d="" fill="#926130" transform="translate(0,0)"/>
<path d="" fill="#90602F" transform="translate(0,0)"/>
<path d="" fill="#8B5D2E" transform="translate(0,0)"/>
<path d="" fill="#95632E" transform="translate(0,0)"/>
<path d="" fill="#8D5F2D" transform="translate(0,0)"/>
<path d="" fill="#8D602E" transform="translate(0,0)"/>
<path d="" fill="#92632D" transform="translate(0,0)"/>
<path d="" fill="#8F6130" transform="translate(0,0)"/>
<path d="" fill="#8D6030" transform="translate(0,0)"/>
<path d="" fill="#8C5F2D" transform="translate(0,0)"/>
<path d="" fill="#8E602F" transform="translate(0,0)"/>
<path d="" fill="#8C602E" transform="translate(0,0)"/>
<path d="" fill="#8F5E2E" transform="translate(0,0)"/>
<path d="" fill="#8E612F" transform="translate(0,0)"/>
<path d="" fill="#92622E" transform="translate(0,0)"/>
<path d="" fill="#92652E" transform="translate(0,0)"/>
<path d="" fill="#8A5C29" transform="translate(0,0)"/>
<path d="" fill="#98652F" transform="translate(0,0)"/>
<path d="" fill="#8F602F" transform="translate(0,0)"/>
<path d="" fill="#91632F" transform="translate(0,0)"/>
<path d="" fill="#91612D" transform="translate(0,0)"/>
<path d="" fill="#916230" transform="translate(0,0)"/>
<path d="" fill="#956530" transform="translate(0,0)"/>
<path d="" fill="#996833" transform="translate(0,0)"/>
<path d="" fill="#916230" transform="translate(0,0)"/>
<path d="" fill="#956432" transform="translate(0,0)"/>
<path d="" fill="#926432" transform="translate(0,0)"/>
<path d="" fill="#926631" transform="translate(0,0)"/>
<path d="" fill="#94632F" transform="translate(0,0)"/>
<path d="" fill="#9C6A33" transform="translate(0,0)"/>
<path d="" fill="#966231" transform="translate(0,0)"/>
<path d="" fill="#93632E" transform="translate(0,0)"/>
<path d="" fill="#8F6233" transform="translate(0,0)"/>
<path d="" fill="#916431" transform="translate(0,0)"/>
<path d="" fill="#96632F" transform="translate(0,0)"/>
<path d="" fill="#92632F" transform="translate(0,0)"/>
<path d="" fill="#936330" transform="translate(0,0)"/>
<path d="" fill="#986632" transform="translate(0,0)"/>
<path d="" fill="#996731" transform="translate(0,0)"/>
<path d="" fill="#95642E" transform="translate(0,0)"/>
<path d="" fill="#976833" transform="translate(0,0)"/>
<path d="" fill="#976631" transform="translate(0,0)"/>
<path d="" fill="#976931" transform="translate(0,0)"/>
<path d="" fill="#966832" transform="translate(0,0)"/>
<path d="" fill="#966734" transform="translate(0,0)"/>
<path d="" fill="#986834" transform="translate(0,0)"/>
<path d="" fill="#956832" transform="translate(0,0)"/>
<path d="" fill="#986532" transform="translate(0,0)"/>
<path d="" fill="#996631" transform="translate(0,0)"/>
<path d="" fill="#996832" transform="translate(0,0)"/>
<path d="" fill="#93672F" transform="translate(0,0)"/>
<path d="" fill="#966632" transform="translate(0,0)"/>
<path d="" fill="#966832" transform="translate(0,0)"/>
<path d="" fill="#946735" transform="translate(0,0)"/>
<path d="" fill="#956530" transform="translate(0,0)"/>
<path d="" fill="#93642F" transform="translate(0,0)"/>
<path d="" fill="#2A1B06" transform="translate(0,0)"/>
<path d="" fill="#996733" transform="translate(0,0)"/>
<path d="" fill="#996732" transform="translate(0,0)"/>
<path d="" fill="#9A6933" transform="translate(0,0)"/>
<path d="" fill="#986634" transform="translate(0,0)"/>
<path d="" fill="#976931" transform="translate(0,0)"/>
<path d="" fill="#966633" transform="translate(0,0)"/>
<path d="" fill="#966433" transform="translate(0,0)"/>
<path d="" fill="#946530" transform="translate(0,0)"/>
<path d="" fill="#986734" transform="translate(0,0)"/>
<path d="" fill="#986833" transform="translate(0,0)"/>
<path d="" fill="#956632" transform="translate(0,0)"/>
<path d="" fill="#895C2B" transform="translate(0,0)"/>
<path d="" fill="#6D481E" transform="translate(0,0)"/>
<path d="" fill="#795122" transform="translate(0,0)"/>
<path d="" fill="#8B5E2C" transform="translate(0,0)"/>
</svg>
