<?xml version="1.0" encoding="UTF-8"?>
<!-- Generator: visioncortex VTracer 0.6.12 -->
<svg version="1.1" xmlns="http://www.w3.org/2000/svg" width="1024" height="1024">
<path d="M0 0 C337.92 0 675.84 0 1024 0 C1024 337.92 1024 675.84 1024 1024 C686.08 1024 348.16 1024 0 1024 C0 686.08 0 348.16 0 0 Z " fill="#FEFEFE" transform="translate(0,0)"/>
<path d="M0 0 C1.266 0.199 2.532 0.397 3.837 0.602 C22.012 3.538 39.594 7.996 57 14 C57.914 14.312 58.828 14.623 59.77 14.944 C81.569 22.485 101.915 33.09 121 46 C121.646 46.436 122.293 46.871 122.959 47.32 C131.792 53.321 139.984 59.954 148 67 C148.886 67.773 149.771 68.547 150.684 69.344 C160.324 77.887 169.037 86.871 177 97 C177.39 97.481 177.39 97.481 179.363 99.918 C193.652 117.899 219 151.312 219 175 C219.599 175.271 220.199 175.541 220.816 175.82 C227.189 179.263 230.532 186.025 233.094 192.535 C234.943 199.604 234.971 207.563 233.411 214.691 C232.891 218.875 233.449 222.473 234.152 226.605 C234.22 227.02 234.22 227.02 234.561 229.117 C235.006 231.81 235.469 234.499 235.938 237.188 C236.096 238.106 236.254 239.025 236.416 239.971 C242.292 273.814 253.831 303.353 271.375 332.75 C286.644 358.4 298.678 382.728 298.438 413.25 C298.435 413.92 298.432 414.59 298.429 415.28 C298.332 431.176 296.094 445.653 289 460 C288.52 461.031 288.041 462.062 287.547 463.125 C277.916 482.575 261.624 496.647 241.453 504.355 C235.218 506.309 229.593 507.146 223.062 507.312 C216.583 507.611 216.583 507.611 214.062 509.293 C213.028 510.47 212.023 511.672 211.043 512.895 C203.21 520.967 190.657 525.469 180 528 C179.591 528.112 179.591 528.112 177.523 528.676 C171.055 530.185 164.547 530.204 157.938 530.25 C157.015 530.259 156.093 530.269 155.143 530.278 C150.47 530.257 146.34 529.913 141.805 528.758 C136.532 527.597 133.681 528.891 129.188 531.625 C127.813 532.387 126.434 533.14 125.051 533.887 C124.374 534.253 123.696 534.62 122.999 534.998 C107.317 542.863 87.184 543.215 70.652 537.93 C65.624 536.094 61.076 534.208 56.688 531.125 C53.743 529.182 53.072 529 49.312 529 C47.867 529.298 46.431 529.638 45 530 C44.44 530.124 44.44 530.124 41.605 530.754 C38.396 531.474 35.197 532.225 32 533 C32.895 533.69 33.789 534.379 34.711 535.09 C41.269 540.175 47.663 545.334 53.773 550.957 C55.814 552.83 57.895 554.638 60 556.438 C64.06 559.966 67.799 563.785 71.578 567.609 C73.58 569.585 75.605 571.435 77.75 573.25 C81.659 576.582 85.214 580.216 88.812 583.875 C94.575 589.703 100.462 595.037 107 600 C107.784 600.601 108.567 601.201 109.375 601.82 C119.776 609.45 130.479 614.696 142.75 618.5 C154.015 622.038 162.404 626.39 168.879 636.727 C172.927 644.935 173.468 654.176 170.75 662.938 C167.275 671.73 161.084 678.324 152.5 682.312 C145.996 684.901 140.277 686.015 133.312 686.312 C127.376 686.681 127.376 686.681 124.125 689.438 C123.424 690.283 122.722 691.129 122 692 C112.536 695.822 104.753 694.101 95.477 690.535 C79.667 683.554 66.385 670.789 54 659 C54.257 659.825 54.514 660.65 54.779 661.5 C64.385 692.496 64.385 692.496 66 705 C66.099 705.737 66.197 706.475 66.299 707.234 C68.72 725.877 68.443 744.015 66.5 762.688 C61.97 806.453 61.97 806.453 73.434 821.336 C78.663 826.891 84.982 828.996 92.488 829.301 C94.096 829.319 95.704 829.323 97.312 829.312 C97.731 829.311 97.731 829.311 99.852 829.306 C106.007 829.207 111.259 828.266 117 826 C118.328 825.648 119.661 825.309 121 825 C118.344 822.057 115.227 820.063 111.938 817.875 C94.213 805.761 80.948 789.881 76.062 768.688 C73.73 754.821 74.502 741.588 78 728 C78.302 726.797 78.603 725.595 78.914 724.355 C82.08 712.888 82.08 712.888 87 710 C94.019 709.205 100.813 710.465 107.625 712.062 C108.58 712.285 109.535 712.508 110.519 712.737 C131.476 717.886 147.761 728.953 161 746 C161.485 745.31 161.969 744.621 162.469 743.91 C177.167 723.305 194.552 711.717 218 703 C218.966 702.586 219.931 702.172 220.926 701.746 C228.08 698.774 236.532 696.796 244.016 699.812 C251.759 705.444 253.384 717.279 255 726 C258.737 750.688 255.114 774.071 241 795 C238.199 798.552 235.192 801.798 232 805 C231.631 805.38 231.631 805.38 229.766 807.305 C219.665 817.1 204.707 825.678 190.902 828.672 C186.848 830.527 185.851 833.411 184.188 837.312 C167.174 873.924 132.727 898.663 95.913 912.943 C81.395 918.21 66.286 921.873 51 924 C50.347 924.102 49.694 924.203 49.021 924.308 C-6.301 932.846 -68.075 918.752 -113.441 885.699 C-134.781 869.682 -152.846 850.298 -166 827 C-166.36 826.367 -166.721 825.733 -167.092 825.081 C-176.619 808.206 -182.998 790.954 -187 772 C-187.083 771.616 -187.083 771.616 -187.5 769.67 C-195.18 732.599 -187.161 696.964 -175 662 C-175.33 661.67 -175.66 661.34 -176 661 C-176.715 661.678 -177.431 662.356 -178.168 663.055 C-193.273 677.228 -211.638 693.623 -233.438 694.438 C-238.459 694.209 -242.006 692.662 -245.875 689.438 C-247 688 -247 688 -247 686 C-247.727 686.035 -248.454 686.07 -249.203 686.105 C-262.163 686.454 -273.559 683.845 -283.293 674.891 C-290.668 667.099 -292.521 660.637 -292.495 650.008 C-292.261 643.669 -290.562 639.165 -287 634 C-286.278 632.928 -285.556 631.855 -284.812 630.75 C-278.03 624.118 -269.781 620.967 -260.875 618.188 C-235.264 609.694 -216.996 593.158 -198.297 574.278 C-194.614 570.571 -190.872 567.028 -186.875 563.66 C-184.532 561.586 -182.374 559.363 -180.188 557.125 C-175.1 551.991 -169.683 547.458 -164 543 C-163.716 542.775 -163.716 542.775 -162.279 541.636 C-160.504 540.23 -158.722 538.832 -156.938 537.438 C-156.657 537.216 -156.657 537.216 -155.239 536.098 C-151.232 533 -151.232 533 -149 533 C-149 532.34 -149 531.68 -149 531 C-149.617 530.939 -150.235 530.879 -150.871 530.816 C-151.718 530.733 -152.565 530.649 -153.438 530.562 C-154.362 530.483 -155.286 530.403 -156.238 530.32 C-159 530 -159 530 -161.105 529.43 C-166.806 528.04 -170.573 530.011 -175.562 532.688 C-194.137 542.628 -214.617 543.776 -234.799 537.767 C-240.03 535.944 -244.895 533.365 -249.742 530.707 C-255.673 527.599 -255.673 527.599 -260.016 528.91 C-260.622 529.101 -261.229 529.292 -261.854 529.489 C-281.78 534.235 -304.86 528.521 -322 518 C-326.271 514.942 -330.285 511.715 -334 508 C-336.616 507.627 -339.183 507.35 -341.812 507.125 C-362.626 504.958 -380.123 495.718 -393.75 479.688 C-411.775 456.471 -418.809 428.119 -415.504 399.031 C-412.027 373.229 -400.803 350.816 -387 329.062 C-377.345 313.759 -370.172 298.011 -364 281 C-363.737 280.285 -363.474 279.57 -363.203 278.834 C-357.752 263.767 -355.451 247.727 -352.82 231.98 C-344.942 185.212 -327.508 138.911 -297 102 C-296.265 101.076 -295.53 100.151 -294.773 99.199 C-282.689 84.105 -269.271 69.888 -254 58 C-252.721 56.981 -251.443 55.961 -250.164 54.941 C-180.784 0.159 -85.778 -13.466 0 0 Z " fill="#322117" transform="translate(561,38)"/>
<path d="M0 0 C4.601 0.017 9.201 0.007 13.802 -0.01 C33.77 -0.074 53.392 0.189 73.156 3.391 C73.523 3.45 73.523 3.45 75.382 3.749 C79.421 4.422 83.414 5.235 87.406 6.141 C88.565 6.399 89.723 6.656 90.917 6.921 C142.669 18.774 194.439 46.591 227.945 88.622 C229.394 90.436 230.867 92.232 232.367 94.004 C241.199 104.463 248.407 115.64 254.844 127.704 C255.067 128.119 255.067 128.119 256.197 130.221 C256.6 130.995 257.003 131.769 257.418 132.567 C257.779 133.257 258.139 133.947 258.51 134.658 C258.617 134.944 258.617 134.944 259.156 136.391 C258.826 137.051 258.496 137.711 258.156 138.391 C256.561 137.642 254.966 136.894 253.371 136.145 C247.891 134.28 242.202 134.255 236.469 134.266 C235.186 134.264 233.904 134.261 232.582 134.258 C229.156 134.391 229.156 134.391 227.008 135.047 C224.2 135.569 222.666 134.381 220.219 133.016 C211.069 127.953 199.483 128.302 189.293 129.817 C179.044 132.784 172.577 140.656 167.156 149.391 C166.946 149.819 166.946 149.819 165.883 151.985 C163.542 155.247 161.059 156.159 157.406 157.766 C146.04 163.133 141.593 169.63 137.156 181.391 C134.018 193.151 135.072 204.884 141.117 215.348 C146.619 223.559 153.232 229.309 161.105 235.129 C162.112 235.876 163.119 236.622 164.156 237.391 C165.075 237.997 165.994 238.603 166.941 239.227 C169.962 242.178 170.226 244.575 170.906 248.704 C171.128 249.978 171.35 251.253 171.578 252.567 C171.674 253.198 171.674 253.198 172.156 256.391 C172.332 257.441 172.508 258.49 172.688 259.572 C173.214 263.862 173.267 268.014 173.219 272.329 C173.214 273.108 173.21 273.887 173.205 274.69 C173.193 276.59 173.175 278.491 173.156 280.391 C166.683 280.545 160.21 280.649 153.735 280.721 C151.537 280.751 149.339 280.791 147.142 280.844 C131.756 281.2 121.381 280.923 109.406 270.391 C91.518 250.982 87.006 221.663 84.247 196.477 C83.512 189.921 82.584 183.471 81.219 177.016 C81.146 176.648 81.146 176.648 80.777 174.783 C80.075 171.676 79.47 169.703 77.188 167.43 C74.647 166.131 72.977 166.102 70.156 166.391 C69.166 166.721 68.176 167.051 67.156 167.391 C66.905 174.391 67.309 181.143 68.156 188.079 C71.325 215.692 71.539 250.98 56.156 275.391 C53.736 278.309 52.746 279.194 49.156 280.391 C46.171 280.519 43.208 280.59 40.222 280.616 C39.308 280.627 38.394 280.639 37.452 280.65 C27.895 280.761 18.338 280.808 8.781 280.851 C4.248 280.873 -0.284 280.915 -4.817 280.974 C-10.293 281.045 -15.768 281.082 -21.244 281.094 C-23.328 281.105 -25.412 281.127 -27.496 281.162 C-30.419 281.208 -33.339 281.21 -36.262 281.202 C-37.117 281.225 -37.972 281.249 -38.853 281.273 C-44.91 281.19 -47.904 279.341 -52.24 275.161 C-55.683 271.361 -57.7 267.006 -59.844 262.391 C-60.224 261.575 -60.604 260.759 -60.996 259.918 C-71.378 235.825 -70.609 207.484 -66.5 182.106 C-64.809 171.134 -64.809 171.134 -67.031 167.391 C-69.589 165.98 -70.966 165.83 -73.844 166.391 C-77.514 170.15 -79.009 174.107 -80.363 179.075 C-80.573 179.817 -80.783 180.559 -80.999 181.324 C-83.073 188.865 -84.656 196.492 -86.102 204.176 C-86.532 206.458 -86.977 208.738 -87.424 211.018 C-90.645 227.655 -92.152 243.894 -92.406 260.829 C-92.45 263.493 -92.497 266.157 -92.549 268.821 C-92.581 270.461 -92.608 272.102 -92.629 273.742 C-92.732 279.279 -92.732 279.279 -93.844 280.391 C-95.32 280.51 -96.803 280.561 -98.284 280.584 C-98.757 280.592 -98.757 280.592 -101.147 280.633 C-105.482 280.677 -109.817 280.718 -114.152 280.741 C-116.44 280.758 -118.727 280.785 -121.014 280.823 C-124.306 280.878 -127.598 280.9 -130.891 280.915 C-131.912 280.937 -132.933 280.96 -133.985 280.983 C-141.113 280.962 -141.113 280.962 -144.927 277.981 C-145.559 277.126 -146.192 276.272 -146.844 275.391 C-147.38 274.743 -147.916 274.094 -148.469 273.426 C-154.884 264.222 -158.601 253.607 -158.844 242.391 C-158.906 241.107 -158.967 239.823 -159.031 238.5 C-159.86 214.667 -154.507 191.357 -146.648 168.989 C-145.484 165.231 -145.582 162.312 -145.844 158.391 C-147.844 156.391 -147.844 156.391 -151.219 155.954 C-154.844 156.391 -154.844 156.391 -156.855 158.403 C-159.258 162.014 -160.796 165.58 -162.281 169.641 C-162.581 170.456 -162.88 171.271 -163.188 172.11 C-166.958 182.91 -168.927 194.141 -170.844 205.391 C-171.033 206.427 -171.222 207.463 -171.417 208.531 C-172.82 216.698 -173.115 224.615 -173.031 232.891 C-173.031 234.107 -173.03 235.322 -173.029 236.575 C-173.001 242.557 -172.76 248.382 -172.102 254.329 C-171.634 259.974 -172.289 263.287 -175.531 267.891 C-175.933 268.509 -176.335 269.126 -176.75 269.762 C-183.196 279.313 -191.631 288.45 -200.844 295.391 C-201.174 295.391 -201.504 295.391 -201.844 295.391 C-202.223 278.442 -201.584 262.146 -199.5 245.313 C-198.046 233.163 -198.046 233.163 -199.969 228.891 C-201.844 227.391 -201.844 227.391 -204.844 226.891 C-207.844 227.391 -207.844 227.391 -209.434 229.036 C-219.075 245.141 -217.017 273.855 -216.941 291.981 C-216.94 293.291 -216.939 294.602 -216.937 295.952 C-216.933 299.38 -216.924 302.807 -216.912 306.235 C-216.902 309.755 -216.898 313.275 -216.893 316.795 C-216.882 323.661 -216.865 330.526 -216.844 337.391 C-217.216 337.52 -217.216 337.52 -219.101 338.169 C-220.083 338.516 -221.066 338.862 -222.078 339.219 C-222.564 339.389 -222.564 339.389 -225.022 340.248 C-236.241 344.795 -243.003 354.481 -247.621 365.243 C-253.084 379.31 -252.007 394.381 -246.844 408.391 C-240.169 422.978 -228.288 432.443 -213.816 438.665 C-210.611 439.845 -208.452 440.459 -204.996 440.075 C-201.041 439.772 -198.567 439.945 -194.844 441.391 C-190.609 445.901 -187.975 451.755 -185.087 457.172 C-182.324 462.103 -178.646 466.243 -174.844 470.391 C-174.405 470.872 -173.966 471.354 -173.514 471.85 C-159.372 487.177 -142.092 497.618 -122.844 505.391 C-127.968 510.515 -135.508 509.815 -142.281 509.829 C-158.83 509.821 -173.699 505.26 -185.844 493.391 C-187.585 491.18 -189.066 488.854 -190.531 486.454 C-190.908 485.859 -191.285 485.264 -191.674 484.651 C-197.844 474.798 -197.844 474.798 -197.844 471.391 C-206.028 470.773 -206.028 470.773 -208.906 472.954 C-210.72 477.668 -210.233 481.457 -208.312 486.067 C-207.67 487.287 -207.014 488.499 -206.344 489.704 C-202.844 496.197 -202.844 496.197 -202.844 498.391 C-215.529 502.037 -231.242 498.096 -242.547 491.856 C-257.861 482.089 -268.052 467.686 -272.363 449.997 C-273.001 446.536 -273.344 443.095 -273.535 439.583 C-273.88 437.136 -274.549 435.488 -275.844 433.391 C-278.673 431.977 -280.718 432.072 -283.844 432.391 C-286.684 435.036 -287.413 437.602 -287.844 441.391 C-288.043 447.061 -287.536 451.917 -286.094 457.391 C-285.916 458.087 -285.739 458.784 -285.556 459.501 C-284.209 464.555 -282.388 468.848 -279.844 473.391 C-279.844 474.051 -279.844 474.711 -279.844 475.391 C-297.106 471.122 -310.253 461.294 -319.844 446.391 C-325.093 437.386 -328.37 428.471 -330.844 418.391 C-331.019 417.81 -331.194 417.229 -331.374 416.631 C-334.632 401.089 -333.251 380.197 -327.844 365.391 C-327.591 364.673 -327.339 363.956 -327.079 363.216 C-322.063 349.313 -314.566 336.93 -306.844 324.391 C-303.808 319.413 -300.793 314.422 -297.844 309.391 C-297.505 308.814 -297.167 308.238 -296.818 307.644 C-290.946 297.502 -286.694 286.927 -282.753 275.905 C-281.953 273.693 -281.113 271.503 -280.254 269.313 C-273.478 251.381 -270.949 231.735 -267.723 212.911 C-256.009 144.662 -217.311 84.833 -161.199 44.77 C-134.664 26.253 -104.408 13.642 -73.031 6.141 C-72.074 5.907 -71.117 5.673 -70.13 5.431 C-66.714 4.654 -63.294 4.004 -59.844 3.391 C-59.099 3.258 -58.354 3.124 -57.587 2.987 C-38.495 -0.279 -19.302 -0.072 0 0 Z " fill="#8BCDBC" transform="translate(493.84375,52.60888671875)"/>
<path d="M0 0 C0.66 0 1.32 0 2 0 C2.28 0.811 2.559 1.622 2.848 2.457 C9.411 20.586 19.234 33.134 36.812 41.375 C43.587 44.389 50.713 44.185 57.988 44.238 C58.517 44.242 58.517 44.242 61.194 44.263 C63.427 44.277 65.66 44.287 67.893 44.295 C70.167 44.307 72.442 44.327 74.716 44.357 C78.015 44.399 81.314 44.416 84.613 44.426 C85.62 44.443 86.626 44.461 87.663 44.479 C94.303 44.459 99.172 43.196 105 40 C105.273 40.351 105.273 40.351 106.652 42.125 C114.703 52.254 122.425 59.181 134 65 C134.232 78.061 133.63 90.826 132.25 103.812 C132.16 104.684 132.069 105.555 131.977 106.453 C127.499 149.48 118.234 193.324 83.281 222.25 C51.207 246.4 13.298 252.594 -25.797 255.523 C-26.855 255.605 -27.914 255.687 -29.005 255.771 C-30.996 255.92 -32.988 256.057 -34.982 256.178 C-35.866 256.243 -36.749 256.308 -37.66 256.375 C-38.43 256.424 -39.199 256.473 -39.992 256.523 C-42.5 257.119 -43.467 257.948 -45 260 C-45 263.799 -44.539 265.446 -41.873 268.187 C-38.251 270.473 -36.284 270.347 -32.039 270.074 C-30.674 270.011 -29.308 269.951 -27.942 269.892 C-27.236 269.857 -26.53 269.822 -25.802 269.785 C-12.203 269.175 -2.602 269.84 8 279 C10.018 280.442 12.039 281.879 14.062 283.312 C22.88 290.117 31.609 297.269 39.321 305.322 C41.008 307.008 42.763 308.54 44.582 310.082 C49.583 314.428 54.174 319.149 58.812 323.875 C65.59 330.71 72.291 337.218 80 343 C80.923 343.728 81.846 344.457 82.797 345.207 C97.274 356.448 111.823 363.373 129.184 369.039 C135.317 371.186 139.917 374.091 143 380 C144.088 385.225 143.797 390.135 141.375 394.938 C135.457 402.568 128.281 403.588 119 405 C116.647 405.127 114.293 405.232 111.938 405.312 C106.478 405.603 106.478 405.603 104.324 407.391 C103.928 407.942 103.533 408.494 103.125 409.062 C102.424 410.032 101.723 411.001 101 412 C90.623 413.129 81.629 406.516 73.867 400.316 C71.151 398.081 68.467 395.811 65.795 393.523 C63.409 391.499 60.953 389.567 58.5 387.625 C51.6 381.984 45.12 375.834 38.723 369.632 C37.278 368.264 35.754 366.98 34.215 365.719 C30.905 361.656 30.104 357.29 28.938 352.25 C28.684 351.223 28.431 350.196 28.17 349.138 C26.874 343.847 25.664 338.538 24.463 333.225 C22.928 326.476 21.162 319.847 19.062 313.25 C18.948 312.874 18.948 312.874 18.369 310.973 C16.799 306.221 14.979 303.25 11 300 C8.375 299.438 8.375 299.438 6 300 C4.188 302 4.188 302 3 304 C2.478 303.807 1.956 303.613 1.418 303.414 C-15.068 297.582 -30.869 297.02 -46.977 304.355 C-56.678 309.34 -62.876 315.077 -68.457 324.449 C-69.852 326.756 -71.344 328.876 -73 331 C-73.534 330.094 -74.067 329.188 -74.617 328.254 C-83.308 313.881 -93.756 304.487 -110.375 300.125 C-123.737 297.417 -135.53 299.012 -148 304 C-148.371 303.34 -148.743 302.68 -149.125 302 C-151 300 -151 300 -153.875 299.438 C-157.874 300.157 -159.74 301.751 -162 305 C-163.611 308.652 -164.706 312.419 -165.812 316.25 C-166.153 317.371 -166.494 318.492 -166.844 319.646 C-168.81 326.29 -170.467 332.93 -171.906 339.703 C-172.229 341.179 -172.552 342.656 -172.876 344.132 C-173.498 346.982 -174.062 349.836 -174.595 352.704 C-176.724 363.118 -180.586 367.694 -189 374 C-190.281 375.113 -191.555 376.235 -192.812 377.375 C-194.207 378.585 -195.603 379.793 -197 381 C-197.493 381.43 -197.987 381.861 -198.495 382.304 C-233.172 412.547 -233.172 412.547 -248 412 C-248.268 411.031 -248.536 410.061 -248.812 409.062 C-249.008 408.557 -249.008 408.557 -250 406 C-252.824 405.059 -254.641 404.865 -257.57 404.824 C-258.467 404.8 -259.365 404.777 -260.289 404.752 C-262.156 404.71 -264.023 404.678 -265.891 404.658 C-272.764 404.448 -279.419 403.343 -284.625 398.483 C-289.076 393.277 -289.374 389.661 -289.254 382.977 C-288.889 378.704 -288.128 376.986 -285 374 C-278.774 370.037 -272.152 367.633 -265.125 365.562 C-246.143 359.916 -230.264 348.5 -216 335 C-214.713 333.89 -213.422 332.786 -212.125 331.688 C-208.023 328.126 -204.242 324.269 -200.427 320.407 C-197.071 317.026 -193.612 313.851 -189.98 310.766 C-187.608 308.65 -185.409 306.399 -183.188 304.125 C-178.935 299.827 -174.483 295.965 -169.754 292.203 C-167.985 290.788 -166.24 289.342 -164.527 287.859 C-161.754 285.476 -158.915 283.206 -156 281 C-155.314 280.478 -154.627 279.957 -153.92 279.419 C-138.158 267.722 -138.158 267.722 -128.688 268.75 C-126.122 269.145 -123.559 269.561 -121 270 C-118.44 270.12 -115.876 270.185 -113.312 270.188 C-112.216 270.202 -111.119 270.216 -109.988 270.23 C-106.876 269.99 -104.756 269.453 -102 268 C-99.433 264.15 -100.167 262.414 -101 258 C-105.693 256.536 -109.951 255.678 -114.883 255.324 C-116.214 255.221 -117.545 255.117 -118.876 255.012 C-119.568 254.96 -120.261 254.908 -120.974 254.854 C-144.482 253.036 -167.641 249.741 -190 242 C-190.354 241.881 -190.354 241.881 -192.148 241.278 C-221.775 231.249 -245.881 212.342 -260.188 184.188 C-261.506 181.479 -262.768 178.749 -264 176 C-264.274 175.389 -264.549 174.778 -264.832 174.148 C-276.218 148.074 -280.163 117.16 -281.811 88.952 C-281.942 86.903 -282.103 84.855 -282.287 82.81 C-283.86 64.937 -283.86 64.937 -280.876 60.226 C-277.483 56.856 -273.252 55.074 -269 53 C-259.441 45.568 -251.03 36.503 -245 26 C-244.505 26.639 -244.01 27.279 -243.5 27.938 C-241.412 30.495 -239.325 33.047 -237.188 35.562 C-236.562 36.306 -235.937 37.05 -235.293 37.816 C-228.534 44.253 -222.842 44.587 -213.82 44.496 C-212.653 44.498 -211.486 44.499 -210.283 44.501 C-207.82 44.499 -205.358 44.487 -202.895 44.467 C-199.144 44.438 -195.395 44.446 -191.645 44.459 C-189.245 44.453 -186.845 44.444 -184.445 44.434 C-183.333 44.437 -182.22 44.439 -181.073 44.442 C-174.077 44.359 -166.226 44.226 -161 39 C-159.203 35.405 -158.83 32.423 -158.684 28.457 C-158.642 27.384 -158.6 26.311 -158.557 25.205 C-158.517 24.086 -158.478 22.966 -158.438 21.812 C-158.416 21.247 -158.416 21.247 -158.307 18.385 C-158.201 15.59 -158.098 12.795 -158 10 C-155.25 12.75 -153.961 16.092 -152.312 19.562 C-147.463 29.473 -142.088 38.658 -131.477 43.043 C-127.071 44.256 -123.045 44.295 -118.497 44.291 C-117.558 44.297 -116.619 44.304 -115.652 44.311 C-112.555 44.33 -109.46 44.334 -106.363 44.336 C-104.201 44.342 -102.039 44.349 -99.877 44.356 C-95.345 44.368 -90.813 44.372 -86.281 44.371 C-80.496 44.37 -74.711 44.398 -68.925 44.432 C-64.458 44.454 -59.991 44.458 -55.524 44.457 C-53.392 44.46 -51.26 44.469 -49.129 44.484 C-24.134 44.649 -24.134 44.649 -14.688 36.562 C-6.016 26.987 -1.889 12.552 0 0 Z " fill="#FCDFC7" transform="translate(574,304)"/>
<path d="M0 0 C8.86 2.105 17.558 4.599 26.25 7.312 C26.568 7.412 26.568 7.412 28.18 7.914 C37.923 10.959 47.556 14.116 57 18 C57.706 18.287 58.412 18.573 59.139 18.869 C74.034 24.973 87.687 32.411 99.57 43.383 C102.741 45.493 104.254 45.666 108 45 C110.349 43.427 112.329 41.907 114.438 40.062 C140.858 18.276 176.138 7.755 209 0 C211.97 7.538 213.602 15.045 215 23 C215.104 23.559 215.104 23.559 215.633 26.391 C218.257 42.577 217.588 59.302 216 75.562 C215.122 84.699 214.752 93.781 214.7 102.954 C214.692 104.374 214.679 105.794 214.659 107.214 C214.469 122.965 216.556 139.052 227.105 151.48 C240.299 163.927 254.791 163.674 271.966 163.175 C285.589 162.39 298.634 154.703 308 145 C310.059 141.911 310.239 141.291 310.125 137.812 C310.104 137.183 310.104 137.183 310 134 C309.475 133.888 308.951 133.776 308.41 133.66 C290.945 129.214 275.263 118.627 265.457 103.453 C264.976 102.644 264.495 101.834 264 101 C263.765 100.606 263.765 100.606 262.574 98.609 C253.43 81.885 255.007 63.872 259 46 C264.596 45.795 269.279 46.299 274.625 48.062 C275.31 48.284 275.995 48.506 276.701 48.735 C294.335 54.679 306.694 63.915 315.352 80.605 C317.791 86.313 319.072 92.241 320.289 98.312 C321 101 321 101 323 103 C324.875 103.266 324.875 103.266 327 103.25 C327.701 103.255 328.402 103.26 329.125 103.266 C331 103 331 103 333 101 C333.371 98.508 333.649 96.067 333.875 93.562 C335.16 81.93 338.67 73.21 346 64 C346.659 63.165 347.317 62.329 347.996 61.469 C360.018 47.174 378.962 37.429 397 33 C398.32 33 399.64 33 401 33 C407.649 50.187 408.092 72.543 401.477 89.766 C400.989 90.833 400.502 91.9 400 93 C399.554 94.005 399.108 95.011 398.648 96.047 C395.196 103.03 390.467 108.506 385 114 C384.261 114.773 383.523 115.547 382.762 116.344 C373.182 125.747 360.999 130.96 348.14 134.278 C345.284 135.054 343.305 135.697 341.184 137.805 C339.851 140.276 338.849 142.741 337.875 145.375 C332.634 158.213 324.215 168.793 315 179 C314.334 179.739 313.667 180.477 312.98 181.238 C300.424 194.43 284.511 203.505 268.25 211.312 C267.825 211.517 267.825 211.517 265.672 212.551 C255.666 217.245 245.559 220.578 234.812 223.125 C234.308 223.251 234.308 223.251 231.756 223.887 C216.432 227.561 201.501 228.35 185.811 228.316 C182.768 228.313 179.726 228.336 176.684 228.361 C159.951 228.416 143.745 226.712 127.562 222.312 C126.61 222.056 125.657 221.8 124.676 221.536 C100.863 214.917 77.328 204.615 58 189 C57.712 188.768 57.712 188.768 56.257 187.595 C52.067 184.177 47.999 180.639 44 177 C43.741 176.764 43.741 176.764 42.43 175.572 C14.473 149.752 -6.472 110.258 -9 72 C-9.696 53.178 -10.36 34.229 -5 16 C-4.888 15.611 -4.888 15.611 -4.32 13.641 C-2.98 9.058 -1.54 4.519 0 0 Z " fill="#8BCDBC" transform="translate(396,719)"/>
<path d="M0 0 C0.33 0 0.66 0 1 0 C1.115 0.632 1.23 1.263 1.348 1.914 C5.573 24.834 11.156 46.812 21 68 C21.3 68.653 21.599 69.305 21.908 69.978 C28.403 83.983 36.573 97.119 44.415 110.395 C60.035 136.959 68 166.55 60.975 197.3 C56.304 215.279 46.523 230.488 31 241 C24.281 244.696 17.53 247.524 10 249 C10.438 247.688 10.875 246.375 11.312 245.062 C11.584 244.243 11.856 243.423 12.137 242.578 C12.692 240.919 13.257 239.262 13.832 237.609 C14.094 236.851 14.355 236.093 14.625 235.312 C14.865 234.628 15.105 233.944 15.352 233.238 C16.83 228.135 17.159 223.17 17.188 217.875 C17.202 216.676 17.216 215.477 17.23 214.242 C17.012 211.169 16.811 209.465 15 207 C11.625 206 11.625 206 8 206 C4.663 208.308 4.043 209.803 3.164 213.801 C2.975 215.303 2.795 216.808 2.625 218.312 C0.265 234.921 -6.759 250.156 -20 261 C-32.667 270.011 -48.594 274.985 -64.125 272.5 C-64.744 272.335 -65.362 272.17 -66 272 C-64.887 268.383 -63.548 265.069 -61.875 261.688 C-59.328 256.092 -59.058 250.827 -61 245 C-63.97 245 -66.94 245 -70 245 C-70.606 246.183 -71.212 247.367 -71.836 248.586 C-79.763 263.702 -88.001 273.41 -104 280 C-104.859 280.361 -105.717 280.722 -106.602 281.094 C-112.8 283.219 -119.073 283.299 -125.562 283.375 C-126.437 283.389 -127.312 283.403 -128.213 283.418 C-134.567 283.371 -140.02 282.112 -146 280 C-144.361 276.723 -140.819 275.828 -137.625 274.312 C-115.519 263.506 -94.36 246.65 -83.059 224.258 C-81.317 220.873 -79.583 217.836 -77 215 C-73.734 214.011 -71.032 213.999 -67.625 214.062 C-54.345 213.834 -42.226 206.877 -32.816 197.922 C-31.075 196.019 -29.519 194.083 -28 192 C-27.542 191.399 -27.085 190.799 -26.613 190.18 C-18.263 178.193 -16.365 161.865 -18.496 147.703 C-21.312 135.419 -27.075 124.108 -37.934 117.109 C-43.845 114.007 -49.489 112.295 -56 111 C-56.146 90.971 -55.77 71.013 -55 51 C-54.671 50.937 -54.671 50.937 -53.003 50.62 C-19.57 44.184 -19.57 44.184 -12 36 C-9.699 32.025 -9.622 28.535 -10 24 C-10.845 20.937 -11.869 17.968 -13 15 C-12.481 14.504 -11.961 14.007 -11.426 13.496 C-7.065 9.248 -3.445 5.01 0 0 Z " fill="#8BCDBD" transform="translate(780,279)"/>
<path d="M0 0 C5.95 3.12 7.388 8.163 9.461 14.219 C10.412 17.36 11.186 20.516 11.898 23.719 C12.103 24.628 12.308 25.537 12.519 26.474 C14.465 35.537 15.864 44.677 17.211 53.844 C17.318 54.568 17.425 55.292 17.535 56.037 C18.808 64.744 19.862 73.435 20.461 82.219 C22.794 82.261 25.128 82.26 27.461 82.219 C28.461 81.219 28.461 81.219 28.48 78.352 C27.621 58.784 24.141 39.382 20.036 20.264 C17.916 10.246 17.916 10.246 18.461 6.219 C23.182 3.071 27.939 3.561 33.461 4.219 C39.34 6.154 44.185 8.806 47.461 14.219 C52.768 30.141 46.607 52.283 42.23 67.871 C41.481 71.132 41.238 73.887 41.461 77.219 C42.461 78.219 42.461 78.219 45.023 78.281 C45.828 78.261 46.632 78.24 47.461 78.219 C49.885 73.777 51.361 69.443 52.461 64.531 C52.628 63.8 52.796 63.069 52.968 62.316 C55.752 49.778 57.718 37.045 58.461 24.219 C64.332 25.017 67.527 27.961 71.461 32.219 C75.243 38.601 75.313 44.221 73.805 51.297 C69.611 66.554 59.759 77.617 48.273 88.031 C45.83 90.463 45.487 91.086 44.773 94.656 C45.506 98.453 46.754 101.071 48.781 104.324 C49.461 106.219 49.461 106.219 49.082 108.297 C46.525 111.328 43.108 111.859 39.398 112.781 C38.596 112.99 37.793 113.199 36.966 113.415 C24.062 116.686 11.817 118.79 -1.539 118.219 C-2.594 113.906 -2.271 110.791 -1.402 106.5 C-1.614 102.968 -3.043 101.688 -5.539 99.219 C-8.19 97.48 -10.972 96.044 -13.789 94.594 C-53.931 73.042 -53.931 73.042 -59.539 56.219 C-60.361 47.194 -60.04 39.676 -54.539 32.219 C-51.08 28.589 -47.78 25.677 -42.789 24.656 C-38.358 25.423 -37.629 27.357 -35.109 30.885 C-32.567 34.664 -30.221 38.542 -27.914 42.469 C-26.866 44.234 -25.818 46 -24.77 47.766 C-24.238 48.665 -23.706 49.564 -23.158 50.49 C-20.535 54.912 -17.878 59.314 -15.227 63.719 C-11.364 70.142 -7.553 76.588 -3.844 83.102 C-2.539 85.219 -2.539 85.219 -0.539 87.219 C2.023 87.406 2.023 87.406 4.461 87.219 C5.461 86.219 5.461 86.219 5.657 83.921 C5.443 80.971 4.819 79.507 3.328 76.98 C2.859 76.173 2.389 75.365 1.906 74.532 C1.388 73.666 0.87 72.799 0.336 71.906 C-0.199 70.992 -0.734 70.078 -1.285 69.136 C-2.433 67.175 -3.585 65.217 -4.742 63.261 C-6.542 60.214 -8.324 57.158 -10.102 54.098 C-10.69 53.085 -11.279 52.072 -11.886 51.028 C-13.069 48.993 -14.252 46.957 -15.435 44.921 C-18.124 40.305 -20.836 35.71 -23.648 31.168 C-24.119 30.399 -24.589 29.631 -25.074 28.839 C-25.935 27.437 -26.808 26.042 -27.696 24.657 C-30.33 20.344 -31.171 17.245 -30.539 12.219 C-28.223 7.147 -23.84 2.802 -19.008 0.07 C-12.918 -2.03 -6.131 -1.886 0 0 Z " fill="#FBEBDA" transform="translate(704.5390625,197.78125)"/>
<path d="M0 0 C0.516 0.66 1.031 1.32 1.562 2 C2.367 2.99 3.171 3.98 4 5 C4.243 5.308 4.243 5.308 5.473 6.867 C12.38 15.261 20.683 20.662 31 24 C31.659 24.226 32.317 24.451 32.996 24.684 C47.645 28.824 65.317 26.516 78.5 19.25 C83.161 16.21 86.631 12.395 90 8 C92.376 10.376 92.67 11.859 93.508 15.086 C93.772 16.099 94.036 17.112 94.309 18.156 C94.578 19.218 94.847 20.281 95.125 21.375 C95.402 22.429 95.679 23.484 95.965 24.57 C97.075 28.878 98 32.526 98 37 C97.252 37.226 96.505 37.451 95.735 37.683 C28.526 58.038 28.526 58.038 3.531 76.719 C1 78 1 78 -1.547 77.41 C-4.012 75.993 -6.391 74.526 -8.75 72.938 C-36.337 55.252 -67.956 46.585 -99 37 C-98.371 34.148 -97.74 31.297 -97.109 28.445 C-96.933 27.646 -96.757 26.848 -96.576 26.025 C-95.164 19.652 -93.635 13.319 -92 7 C-91.34 7 -90.68 7 -90 7 C-89.083 8.426 -88.167 9.853 -87.254 11.281 C-81.068 19.76 -70.899 23.737 -61 26 C-57.362 26.392 -53.781 26.43 -50.125 26.375 C-49.161 26.366 -48.197 26.358 -47.204 26.349 C-34.232 26.082 -22.538 22.728 -12 15 C-11.01 14.299 -10.02 13.597 -9 12.875 C-4.894 9.432 -2.54 4.639 0 0 Z " fill="#FBDFC8" transform="translate(501,668)"/>
<path d="M0 0 C12.612 7.93 19.255 19.539 22.887 33.723 C25.413 50.205 22.798 66.283 13.184 80.113 C7.204 87.547 -0.235 92.602 -9.695 94.449 C-21.834 95.294 -31.261 93.375 -40.695 85.449 C-51.418 74.61 -55.592 61.135 -56.07 46.199 C-55.834 31.561 -50.704 18.13 -40.508 7.574 C-29.493 -2.774 -14.227 -6.826 0 0 Z " fill="#342318" transform="translate(401.6953125,374.55078125)"/>
<path d="M0 0 C12.288 7.944 19.518 19.568 22.613 33.824 C24.671 50.722 22.653 66.463 12.219 80.375 C7.804 85.7 3.307 89.181 -3 92 C-3.764 92.365 -4.529 92.73 -5.316 93.105 C-12.094 95.365 -21.325 95.145 -27.938 92.375 C-29.319 91.631 -30.675 90.839 -32 90 C-32.342 89.788 -32.342 89.788 -34.074 88.715 C-44.987 81.253 -51.083 69.627 -54 57 C-54.415 53.384 -54.478 49.825 -54.438 46.188 C-54.433 45.706 -54.433 45.706 -54.412 43.268 C-54.094 29.78 -49.797 17.517 -40.641 7.391 C-29.661 -3.043 -14.225 -7.809 0 0 Z " fill="#332318" transform="translate(633,375)"/>
<path d="M0 0 C5.711 4.524 9.741 10.427 11.117 17.664 C11.351 22.613 10.298 27.326 7.711 31.527 C1.214 38.613 -4.947 42.12 -14.613 42.656 C-23.785 42.867 -30.976 41.284 -38.289 35.527 C-43.925 30.078 -46.564 25.19 -46.727 17.215 C-46.628 11.019 -45.436 7.13 -41.289 2.527 C-29.971 -8.21 -12.786 -8.226 0 0 Z " fill="#F5A394" transform="translate(366.2890625,467.47265625)"/>
<path d="M0 0 C7.783 4.06 12.234 9.024 15.125 17.312 C16.307 24.172 14.666 29.663 10.684 35.383 C5.715 41.631 -0.114 44.688 -7.875 46.312 C-17.322 47.34 -26.062 44.682 -33.875 39.312 C-35.422 37.375 -35.422 37.375 -36.625 35.312 C-37.032 34.632 -37.44 33.951 -37.859 33.25 C-40.544 28.128 -40.305 22.955 -39.875 17.312 C-37.796 10.952 -33 6.157 -27.301 2.793 C-18.495 -1.668 -9.542 -4.024 0 0 Z " fill="#F5A394" transform="translate(666.875,463.6875)"/>
<path d="M0 0 C7.387 5.717 13.756 12.071 16.312 21.312 C16.338 23.312 16.34 25.313 16.312 27.312 C-26.712 27.946 -26.712 27.946 -44.688 24.312 C-45.509 24.155 -46.33 23.997 -47.177 23.835 C-47.987 23.67 -48.798 23.506 -49.633 23.336 C-49.998 23.262 -49.998 23.262 -51.844 22.888 C-53.688 22.312 -53.688 22.312 -55.688 20.312 C-55.57 13.368 -52.064 7.466 -47.688 2.312 C-34.695 -10.242 -14.416 -9.956 0 0 Z " fill="#B7AFD8" transform="translate(473.6875,623.6875)"/>
<path d="M0 0 C5.593 4.557 9.438 10.513 10.348 17.695 C10.404 18.302 10.404 18.302 10.688 21.375 C8.4 22.017 6.109 22.638 3.812 23.25 C3.2 23.424 2.588 23.598 1.957 23.777 C-12.682 27.615 -27.917 27.658 -42.938 27.5 C-44.638 27.49 -46.339 27.481 -48.039 27.473 C-52.13 27.451 -56.221 27.417 -60.312 27.375 C-60.466 17.259 -56.284 10.614 -49.402 3.348 C-35.955 -9.346 -15.147 -10.117 0 0 Z " fill="#B7B0D9" transform="translate(573.3125,623.625)"/>
<path d="M0 0 C6.442 0.537 12.117 2.014 16.734 6.797 C24.104 16.209 25.981 26.199 25 38 C22.699 49.894 16.936 59.027 7 66 C0.65 69.743 -5.518 72.356 -13 72 C-12.371 66.294 -11.013 60.854 -9.625 55.289 C-5.649 39.227 -3.152 23.268 -1.37 6.824 C-1.062 4.471 -0.641 2.28 0 0 Z " fill="#FADFC8" transform="translate(722,406)"/>
<path d="M0 0 C0.095 0.717 0.19 1.435 0.288 2.174 C3.218 24.057 6.396 45.865 13.082 66.965 C14 70 14 70 14 72 C2.921 70.213 -5.992 64.834 -13 56 C-19.82 44.79 -21.934 32.902 -19.418 20.02 C-16.891 12.762 -8.642 0 0 0 Z " fill="#FADFC9" transform="translate(278,406)"/>
<path d="M0 0 C3.869 1.126 4.541 1.569 6.438 5 C6.994 6.114 7.551 7.228 8.125 8.375 C11.11 13.692 15.907 16.79 21.312 19.375 C31.361 21.385 39.237 19.434 47.75 13.812 C50.676 10.751 52.413 7.769 54.262 3.988 C55.438 2 55.438 2 58.438 0 C61.783 0.139 63.747 0.443 66.375 2.562 C67.982 6.249 67.61 9.272 66.438 13 C60.829 24.256 52.057 29.983 40.438 34 C30.811 37.029 20.3 35.411 11.438 31 C3.224 26.544 -4.31 19.992 -7.562 11 C-8.044 7.014 -8.142 4.927 -6 1.5 C-3.562 0 -3.562 0 0 0 Z " fill="#312117" transform="translate(471.5625,472)"/>
<path d="M0 0 C0.33 0.063 0.33 0.063 1.998 0.38 C24.716 4.62 46.977 5.419 70 5 C66.06 13.53 61.641 18.729 52.75 22.375 C46.151 24.792 40.375 25.243 33.375 25.312 C32.428 25.342 31.48 25.371 30.504 25.4 C21.33 25.482 13.185 22.848 6 17 C1.287 11.416 -0.14 7.424 0 0 Z " fill="#B9B1DA" transform="translate(419,655)"/>
<path d="M0 0 C-0.48 7.679 -3.679 13.105 -9.312 18.312 C-19.175 26.237 -32.04 25.706 -44 25 C-53.794 23.57 -61.601 18.172 -67.906 10.711 C-69.115 8.82 -69.504 7.173 -70 5 C-69.166 5.01 -68.331 5.021 -67.472 5.032 C-46.663 5.258 -26.546 4.781 -6.09 0.586 C-3 0 -3 0 0 0 Z " fill="#B8B1DA" transform="translate(584,655)"/>
<path d="M0 0 C3.377 1.414 4.761 2.645 6.812 5.688 C8.711 10.984 8.711 15.016 6.812 20.312 C4.739 23.387 3.461 24.663 0 26 C-3.439 26.061 -5.837 25.999 -8.523 23.691 C-12.636 18.925 -13.419 15.174 -13 9 C-10.415 2.278 -7.428 -0.91 0 0 Z " fill="#FAFAFA" transform="translate(405,393)"/>
<path d="M0 0 C3.264 0.933 4.488 2.761 6.16 5.617 C7.76 8.817 7.523 12.137 7.16 15.617 C5.621 19.697 4.131 22.632 0.16 24.617 C-3.951 25.14 -6.074 25.076 -9.652 22.93 C-13.487 18.876 -14.302 15.208 -14.164 9.613 C-13.624 6.286 -11.959 4.16 -9.84 1.617 C-6.085 -0.886 -4.32 -0.576 0 0 Z " fill="#FBFAFA" transform="translate(605.83984375,393.3828125)"/>
<path d="M0 0 C4.875 1.875 4.875 1.875 6 3 C6.501 6.227 6.901 9.462 7.305 12.703 C8.521 18.472 11.089 21.777 16 25 C19.332 26.047 19.332 26.047 22.812 26.75 C24.854 27.163 26.896 27.575 29 28 C29 34.6 29 41.2 29 48 C17.433 40.288 10.824 30.848 4 19 C3.599 18.341 3.198 17.683 2.785 17.004 C1.553 13.858 1.259 10.583 0.875 7.25 C0.789 6.553 0.702 5.855 0.613 5.137 C0.402 3.425 0.2 1.713 0 0 Z " fill="#91D6C6" transform="translate(680,305)"/>
</svg>
