<?xml version="1.0" encoding="UTF-8"?>
<!-- Generator: visioncortex VTracer 0.6.12 -->
<svg version="1.1" xmlns="http://www.w3.org/2000/svg" width="1024" height="1024">
<path d="M0 0 C1.772 0 3.544 0.006 5.316 0.016 C6.247 0.017 7.178 0.019 8.137 0.02 C11.122 0.026 14.108 0.038 17.094 0.051 C19.112 0.056 21.131 0.061 23.15 0.065 C28.11 0.076 33.071 0.093 38.031 0.114 C38.031 0.774 38.031 1.434 38.031 2.114 C38.691 2.114 39.351 2.114 40.031 2.114 C40.031 1.454 40.031 0.794 40.031 0.114 C40.66 0.093 40.66 0.093 43.844 -0.011 C44.197 -0.023 44.197 -0.023 45.988 -0.082 C48.031 0.114 48.031 0.114 51.031 2.114 C53.15 2.537 53.15 2.537 55.617 2.789 C56.537 2.892 57.458 2.995 58.406 3.101 C59.396 3.208 60.386 3.316 61.406 3.426 C90.166 6.872 117.829 15.647 141.594 32.614 C141.996 32.861 141.996 32.861 144.031 34.114 C144.526 33.949 144.526 33.949 147.031 33.114 C152.354 32.654 157.258 33.2 162.418 34.492 C165.582 35.244 168.768 35.787 171.969 36.364 C192.049 40.428 210.716 48.628 227.031 61.114 C227.686 61.579 228.341 62.044 229.015 62.524 C234.167 66.222 238.783 70.438 243.433 74.742 C245.463 76.595 247.513 78.336 249.656 80.051 C254.455 84.117 258.14 89.207 262.031 94.114 C262.679 94.873 263.328 95.632 263.996 96.414 C278.889 114.048 288.949 136.047 296.91 157.543 C298.031 160.114 298.031 160.114 300.031 161.114 C299.701 162.104 299.371 163.094 299.031 164.114 C299.691 164.444 300.351 164.774 301.031 165.114 C301.251 166.901 301.463 168.69 301.646 170.482 C302.389 175.56 303.898 180.475 305.24 185.422 C318.726 235.392 318.726 235.392 318.031 258.114 C318.691 258.444 319.351 258.774 320.031 259.114 C320.269 261.176 320.269 261.176 320.344 264.114 C322.465 297.365 334.256 330.024 357.414 354.223 C359.031 356.114 359.031 356.114 359.031 358.114 C359.691 358.114 360.351 358.114 361.031 358.114 C363.331 360.626 365.237 363.472 367.219 366.239 C367.51 366.643 367.51 366.643 368.987 368.691 C373.807 375.515 377.654 382.476 381.031 390.114 C381.691 390.114 382.351 390.114 383.031 390.114 C383.361 391.104 383.691 392.094 384.031 393.114 C383.371 393.114 382.711 393.114 382.031 393.114 C382.369 393.936 382.706 394.758 383.054 395.606 C383.277 396.164 383.277 396.164 384.406 398.989 C384.847 400.079 385.288 401.17 385.742 402.293 C393.408 423.6 390.238 448.489 380.969 468.676 C377.193 476.52 372.526 483.53 367.484 490.602 C358.874 502.747 355.528 516.032 357.531 530.801 C357.696 531.564 357.861 532.327 358.031 533.114 C358.691 533.114 359.351 533.114 360.031 533.114 C360.062 533.701 360.062 533.701 360.219 536.676 C360.689 541.108 361.951 544.93 363.469 549.114 C366.402 557.338 367.403 565.436 368.031 574.114 C368.103 575.097 368.175 576.081 368.25 577.094 C368.593 586.33 364.748 593.998 361.117 602.317 C360.031 605.114 360.031 605.114 359.57 607.848 C359.031 610.114 359.031 610.114 356.031 612.114 C356.031 613.104 356.031 614.094 356.031 615.114 C355.371 615.114 354.711 615.114 354.031 615.114 C352.901 616.514 351.828 617.962 350.781 619.426 C343.911 628.235 333.509 636.927 323.031 641.114 C322.041 641.114 321.051 641.114 320.031 641.114 C319.701 641.774 319.371 642.434 319.031 643.114 C316.816 643.93 316.816 643.93 314.094 644.676 C309.173 646.042 309.173 646.042 307.031 647.114 C305.354 646.834 303.685 646.505 302.031 646.114 C301.919 646.685 301.807 647.256 301.691 647.844 C298.193 662.224 286.795 674.875 274.656 682.864 C272.795 683.971 270.92 685.055 269.031 686.114 C268.095 686.648 267.159 687.183 266.195 687.735 C247.292 697.896 222.798 700.949 201.969 695.614 C197.602 694.739 197.602 694.739 195.226 696.297 C194.098 697.509 193.01 698.758 191.957 700.035 C184.451 708.134 170.926 713.362 160.031 714.114 C155.696 714.18 151.366 714.172 147.031 714.114 C147.054 714.832 147.077 715.55 147.101 716.289 C147.401 733.457 144.417 750.031 141.344 766.867 C140.056 773.94 138.814 781.018 137.656 788.114 C137.476 789.144 137.297 790.175 137.112 791.237 C135.47 801.526 135.358 811.104 141.031 820.114 C144.031 822.114 144.031 822.114 147.031 822.114 C147.353 821.419 147.674 820.725 148.006 820.009 C163.041 787.698 181.041 764.294 214.031 749.114 C214.657 748.826 215.282 748.538 215.927 748.241 C231.308 741.31 247.354 738.718 264.031 737.114 C264.031 736.784 264.031 736.454 264.031 736.114 C268.981 736.114 273.931 736.114 279.031 736.114 C279.031 736.444 279.031 736.774 279.031 737.114 C280.128 737.223 281.225 737.333 282.355 737.446 C283.81 737.605 285.264 737.765 286.719 737.926 C287.44 737.996 288.161 738.067 288.904 738.139 C293.196 738.629 296.73 739.103 300.031 742.114 C301.762 747.733 300.457 751.764 298.281 756.989 C295.785 763.312 293.48 769.664 291.394 776.133 C291.167 776.838 290.939 777.543 290.705 778.269 C290.59 778.625 290.59 778.625 290.008 780.43 C281.106 808.006 268.726 836.994 241.906 851.676 C240.288 852.503 238.666 853.321 237.031 854.114 C240.928 855.8 243.767 856.312 248.031 856.114 C247.371 857.104 246.711 858.094 246.031 859.114 C246.346 859.326 246.346 859.326 247.937 860.399 C267.949 874.112 279.917 892.715 286.031 916.114 C286.031 917.434 286.031 918.754 286.031 920.114 C286.691 920.444 287.351 920.774 288.031 921.114 C288.679 923.532 289.22 925.913 289.719 928.364 C291.475 936.484 293.957 944.245 296.745 952.068 C297.04 952.913 297.336 953.758 297.64 954.629 C297.908 955.375 298.176 956.12 298.452 956.888 C299.117 959.444 299.303 961.484 299.031 964.114 C294.201 969.297 290.145 969.957 283.242 970.219 C279.921 970.285 276.603 970.303 273.281 970.301 C272.082 970.302 270.883 970.302 269.647 970.303 C261.875 970.257 254.29 969.798 246.583 968.83 C239.048 967.906 231.616 967.925 224.031 968.114 C224.031 966.794 224.031 965.474 224.031 964.114 C223.39 963.992 222.75 963.871 222.09 963.746 C215.918 962.551 209.998 961.103 204.031 959.114 C203.041 959.114 202.051 959.114 201.031 959.114 C200.701 958.124 200.371 957.134 200.031 956.114 C197.914 954.789 197.914 954.789 195.156 953.426 C185.65 948.439 176.456 941.924 169.031 934.114 C169.031 933.454 169.031 932.794 169.031 932.114 C168.371 932.114 167.711 932.114 167.031 932.114 C165.794 930.737 165.794 930.737 164.429 928.832 C163.94 928.156 163.45 927.479 162.945 926.781 C162.437 926.066 161.929 925.351 161.406 924.614 C160.89 923.898 160.375 923.183 159.844 922.446 C158.567 920.672 157.296 918.895 156.031 917.114 C155.041 917.444 154.051 917.774 153.031 918.114 C152.701 917.124 152.371 916.134 152.031 915.114 C152.691 914.784 153.351 914.454 154.031 914.114 C153.13 912.459 152.21 910.815 151.281 909.176 C150.771 908.26 150.26 907.343 149.734 906.399 C148.031 904.114 148.031 904.114 145.828 903.297 C145.235 903.237 144.642 903.176 144.031 903.114 C144.043 902.787 144.043 902.787 144.101 901.137 C144.119 900.263 144.137 899.389 144.156 898.489 C144.168 898.059 144.168 898.059 144.226 895.887 C144.002 892.707 143.14 890.09 142.031 887.114 C141.056 887.416 140.082 887.719 139.078 888.031 C122.754 892.917 105.905 895.841 89.031 898.114 C89.031 898.774 89.031 899.434 89.031 900.114 C87.381 900.114 85.731 900.114 84.031 900.114 C84.031 899.784 84.031 899.454 84.031 899.114 C73.967 898.996 64.065 899.236 54.031 900.114 C54.031 899.454 54.031 898.794 54.031 898.114 C53.408 898.148 52.786 898.183 52.144 898.219 C17.71 899.228 -19.988 886.979 -47.28 866.139 C-50.093 864.431 -52.719 864.313 -55.969 864.114 C-55.639 863.124 -55.309 862.134 -54.969 861.114 C-57.547 858.466 -59.885 856.169 -62.969 854.114 C-62.969 853.454 -62.969 852.794 -62.969 852.114 C-63.959 851.784 -64.949 851.454 -65.969 851.114 C-67.653 849.371 -67.653 849.371 -69.406 847.239 C-71.719 844.434 -73.912 842.11 -76.969 840.114 C-77.629 840.114 -78.289 840.114 -78.969 840.114 C-79.969 837.114 -79.969 837.114 -79.969 835.114 C-81.559 833.307 -82.808 832.194 -84.969 831.114 C-85.302 829.78 -85.636 828.447 -85.969 827.114 C-86.929 825.424 -87.923 823.751 -88.969 822.114 C-89.629 822.444 -90.289 822.774 -90.969 823.114 C-91.051 822.206 -91.134 821.299 -91.219 820.364 C-91.969 817.114 -91.969 817.114 -93.969 815.176 C-96.702 812.358 -96.675 809.937 -96.969 806.114 C-97.959 806.114 -98.949 806.114 -99.969 806.114 C-99.969 804.464 -99.969 802.814 -99.969 801.114 C-100.959 800.784 -101.949 800.454 -102.969 800.114 C-103.031 799.629 -103.031 799.629 -103.344 797.176 C-104.177 791.424 -105.52 785.811 -106.989 780.192 C-107.17 779.49 -107.351 778.789 -107.538 778.066 C-107.902 776.667 -108.271 775.269 -108.648 773.874 C-109.69 769.858 -110.162 766.258 -109.969 762.114 C-110.629 762.114 -111.289 762.114 -111.969 762.114 C-111.948 761.027 -111.928 759.94 -111.906 758.821 C-111.906 752.471 -112.636 746.179 -113.258 739.865 C-114.808 723.268 -114.808 723.268 -112.969 715.114 C-116.052 715.084 -119.136 715.067 -122.219 715.051 C-123.092 715.043 -123.964 715.034 -124.864 715.026 C-125.708 715.022 -126.552 715.019 -127.422 715.016 C-128.197 715.011 -128.972 715.005 -129.771 715 C-131.962 715.113 -133.865 715.508 -135.969 716.114 C-136.299 715.454 -136.629 714.794 -136.969 714.114 C-139.465 713.267 -141.935 712.513 -144.469 711.801 C-150.127 710.133 -155.151 708.278 -160.203 705.164 C-161.969 704.114 -161.969 704.114 -164.906 703.114 C-167.757 701.731 -167.93 700.007 -168.969 697.114 C-172.61 695.9 -174.637 696.408 -178.406 697.051 C-189.275 698.686 -199.327 698.106 -210.164 696.625 C-214.757 696.008 -219.355 695.535 -223.969 695.114 C-223.639 694.454 -223.309 693.794 -222.969 693.114 C-223.838 692.727 -224.707 692.34 -225.602 691.942 C-243.54 683.835 -259.462 670.539 -267.297 651.965 C-268.247 649.362 -269.145 646.759 -269.969 644.114 C-270.629 644.114 -271.289 644.114 -271.969 644.114 C-272.299 643.619 -272.299 643.619 -273.969 641.114 C-276.471 640.247 -278.846 639.545 -281.406 638.926 C-282.088 638.749 -282.769 638.572 -283.471 638.389 C-286.38 637.651 -288.957 637.114 -291.969 637.114 C-292.402 636.66 -292.835 636.206 -293.281 635.739 C-295.581 633.524 -297.934 632.999 -300.969 632.114 C-301.959 631.784 -302.949 631.454 -303.969 631.114 C-303.639 630.454 -303.309 629.794 -302.969 629.114 C-303.67 628.591 -304.371 628.069 -305.094 627.531 C-311.371 622.662 -315.937 618.011 -320.41 611.399 C-321.969 609.114 -321.969 609.114 -323.969 607.114 C-324.897 605.159 -325.765 603.175 -326.594 601.176 C-327.04 600.115 -327.486 599.054 -327.946 597.961 C-328.969 595.114 -328.969 595.114 -328.969 592.114 C-329.959 591.784 -330.949 591.454 -331.969 591.114 C-331.309 591.114 -330.649 591.114 -329.969 591.114 C-329.969 589.794 -329.969 588.474 -329.969 587.114 C-330.629 586.784 -331.289 586.454 -331.969 586.114 C-331.529 568.054 -329.345 553.549 -322.106 536.889 C-319.972 531.923 -318.391 527.565 -317.969 522.114 C-317.902 521.305 -317.835 520.497 -317.766 519.664 C-317.622 512.791 -319.106 506.698 -320.969 500.114 C-321.115 499.358 -321.26 498.603 -321.41 497.824 C-321.595 497.26 -321.779 496.695 -321.969 496.114 C-322.794 495.784 -323.619 495.454 -324.469 495.114 C-325.294 494.784 -326.119 494.454 -326.969 494.114 C-327.656 492.239 -327.656 492.239 -327.969 490.114 C-330.068 485.292 -333.325 481.108 -336.289 476.793 C-337.969 474.114 -337.969 474.114 -337.969 472.114 C-339.289 472.114 -340.609 472.114 -341.969 472.114 C-341.756 471.425 -341.544 470.737 -341.324 470.028 C-340.862 466.24 -341.868 464.017 -343.281 460.489 C-351.585 438.49 -349.14 414.464 -339.892 393.127 C-333.777 379.788 -325.46 368.443 -315.909 357.398 C-301.136 340.272 -280.469 312.121 -281.969 288.114 C-281.309 288.114 -280.649 288.114 -279.969 288.114 C-279.969 282.834 -279.969 277.554 -279.969 272.114 C-279.309 271.784 -278.649 271.454 -277.969 271.114 C-277.36 268.236 -276.876 265.42 -276.461 262.512 C-276.331 261.642 -276.2 260.772 -276.066 259.876 C-275.791 258.029 -275.521 256.181 -275.255 254.333 C-274.848 251.52 -274.428 248.709 -274.004 245.899 C-273.739 244.103 -273.475 242.308 -273.211 240.512 C-273.086 239.676 -272.961 238.841 -272.832 237.98 C-272.31 234.314 -271.971 230.93 -272.016 227.214 C-271.969 224.114 -271.969 224.114 -269.969 221.114 C-269.417 219.195 -268.935 217.256 -268.496 215.309 C-268.237 214.168 -267.977 213.027 -267.709 211.852 C-267.444 210.659 -267.179 209.467 -266.906 208.239 C-266.638 207.054 -266.369 205.869 -266.092 204.649 C-265.374 201.472 -264.661 198.295 -263.969 195.114 C-263.767 194.211 -263.566 193.309 -263.358 192.379 C-262.94 189.945 -263.195 188.436 -263.969 186.114 C-262.979 185.784 -261.989 185.454 -260.969 185.114 C-259.986 183.351 -259.986 183.351 -259.145 181.071 C-258.992 180.657 -258.992 180.657 -258.217 178.565 C-257.908 177.694 -257.6 176.823 -257.281 175.926 C-256.961 175.075 -256.641 174.223 -256.311 173.346 C-254.66 168.795 -253.543 165.03 -253.969 160.114 C-253.339 159.866 -252.708 159.619 -252.059 159.364 C-249.474 157.817 -249.271 156.973 -248.528 154.11 C-246.945 148.786 -244.625 144.076 -242.031 139.176 C-241.553 138.269 -241.074 137.361 -240.581 136.427 C-231.612 119.748 -220.621 105.118 -207.817 91.207 C-205.969 89.114 -205.969 89.114 -203.969 86.114 C-203.309 86.114 -202.649 86.114 -201.969 86.114 C-201.723 85.533 -201.477 84.953 -201.223 84.356 C-198.937 80.268 -195.165 77.557 -191.64 74.543 C-190.47 73.542 -189.304 72.535 -188.142 71.524 C-174.782 59.937 -160.471 50.582 -144.969 42.114 C-144.969 41.454 -144.969 40.794 -144.969 40.114 C-144.331 40.036 -143.693 39.959 -143.035 39.879 C-138.697 38.796 -134.909 36.828 -130.906 34.864 C-123.676 31.378 -116.42 28.104 -108.969 25.114 C-107.895 24.656 -106.821 24.198 -105.715 23.727 C-75.8 11.216 -43.498 4.291 -11.252 1.708 C-7.123 1.374 -3.966 0.113 0 0 Z M-252.969 161.114 C-251.969 163.114 -251.969 163.114 -251.969 163.114 Z M-102.969 794.114 C-101.969 796.114 -101.969 796.114 -101.969 796.114 Z M-101.969 797.114 C-100.969 799.114 -100.969 799.114 -100.969 799.114 Z M145.031 896.114 C146.031 898.114 146.031 898.114 146.031 898.114 Z M225.031 965.114 C229.031 966.114 229.031 966.114 229.031 966.114 Z M229.031 966.114 C233.031 967.114 233.031 967.114 233.031 967.114 Z " fill="#4E3513" transform="translate(487.968994140625,23.886474609375)"/>
<path d="M0 0 C1.857 1.861 2.848 3.449 3.855 5.859 C4.421 5.781 4.421 5.781 7.281 5.383 C37.818 1.617 64.507 11.871 88.656 29.957 C94.64 34.638 100.296 39.686 105.855 44.859 C106.572 45.51 107.289 46.161 108.027 46.832 C152.428 88.883 165.17 157.617 172.355 215.734 C177.062 253.724 186.851 288.123 212.738 317.086 C230.295 336.88 244.392 361.516 243.026 388.8 C241.48 407.48 232.805 423.028 222.262 438.145 C211.403 453.851 208.591 470.367 211.176 489.196 C212.272 494.765 214.124 500.038 216.234 505.293 C221.768 519.686 222.571 536.505 216.395 550.859 C206.881 569.403 193.812 579.245 174.48 586.047 C169.314 587.205 164.132 587.53 158.855 587.859 C158.781 588.61 158.706 589.36 158.629 590.133 C156.888 603.687 149.55 613.277 139.289 622.055 C121.521 635.659 100.808 639.972 78.855 637.859 C74.323 637.053 70.14 635.511 65.855 633.859 C64.196 633.491 62.531 633.147 60.855 632.859 C60.371 633.512 59.886 634.164 59.387 634.836 C51.588 645.005 42.61 652.314 29.723 654.517 C26.629 654.886 23.643 654.932 20.527 654.906 C19.461 654.899 18.395 654.893 17.296 654.886 C16.491 654.877 15.685 654.868 14.855 654.859 C14.821 654.245 14.787 653.63 14.751 652.996 C12.928 622.154 8.174 591.636 -0.145 561.859 C3.793 565.156 7.6 568.545 11.338 572.067 C19.903 580.111 28.675 587.524 38.918 593.359 C44.621 596.864 45.954 600.665 47.855 606.859 C51.304 614.611 56.387 620.187 64.293 623.297 C73.374 626.151 80.288 625.155 88.855 620.859 C91.758 618.736 94.338 616.424 96.855 613.859 C98.758 611.957 102.245 612.364 104.793 612.109 C113.458 611.058 120.705 609.009 126.355 601.922 C130.943 594.937 131.975 588.124 130.855 579.859 C128.208 571.887 124.072 565.301 116.855 560.859 C111.554 558.301 106.108 556.14 100.633 553.984 C91.913 550.134 84.539 542.875 78.223 535.892 C70.303 527.144 61.949 518.837 53.586 510.515 C50.911 507.853 48.239 505.187 45.568 502.521 C39.917 496.881 34.261 491.245 28.605 485.609 C22.006 479.034 15.408 472.456 8.815 465.875 C6.178 463.244 3.538 460.616 0.897 457.989 C-0.702 456.393 -2.301 454.798 -3.899 453.202 C-4.638 452.469 -5.377 451.735 -6.137 450.98 C-6.802 450.316 -7.466 449.651 -8.15 448.967 C-8.732 448.388 -9.314 447.808 -9.913 447.211 C-11.145 445.859 -11.145 445.859 -11.145 444.859 C-10.818 444.774 -10.818 444.774 -9.167 444.344 C22.337 436.046 51.013 424.644 74.855 401.859 C75.59 401.199 76.325 400.539 77.082 399.859 C89.264 388.495 97.876 373.281 103.855 357.859 C105.16 357.773 106.465 357.687 107.809 357.598 C123.276 356.423 135.075 353.892 145.855 341.859 C157.411 326.867 160.218 309.246 158.578 290.727 C157.041 279.512 152.91 267.915 144.117 260.367 C136.423 254.983 126.966 253.92 117.855 252.859 C117.805 252.007 117.755 251.155 117.704 250.277 C117.513 247.099 117.314 243.921 117.111 240.744 C117.025 239.372 116.941 237.999 116.861 236.627 C116.745 234.648 116.617 232.67 116.488 230.691 C116.415 229.503 116.342 228.314 116.266 227.089 C115.867 223.949 115.391 221.626 113.855 218.859 C110.975 218.005 108.428 217.476 105.48 217.047 C94.604 215.112 84.915 211.338 74.855 206.859 C74.207 206.577 73.559 206.295 72.892 206.004 C57.318 199.142 43.97 188.671 31.855 176.859 C31.228 176.293 30.6 175.728 29.953 175.145 C11.094 157.705 -1.038 131.55 -6.355 106.852 C-7.145 103.859 -7.145 103.859 -9.145 101.859 C-12.082 101.422 -12.082 101.422 -15.145 101.859 C-17.506 105.203 -19.237 108.94 -21.099 112.581 C-25.839 121.795 -31.103 130.444 -37.145 138.859 C-37.554 139.432 -37.963 140.005 -38.384 140.595 C-66.371 179.243 -107.853 201.479 -154.332 209.172 C-172.532 211.444 -189.124 210.339 -205.145 200.859 C-205.981 200.104 -206.818 199.349 -207.68 198.57 C-210.145 196.859 -210.145 196.859 -213.016 197.059 C-216.296 197.898 -218.017 198.901 -220.668 200.961 C-226.7 205.376 -233.131 208.827 -239.77 212.234 C-240.401 212.56 -241.032 212.885 -241.682 213.22 C-270.108 227.785 -299.888 236.141 -331.828 237.519 C-337.043 237.758 -337.043 237.758 -338.145 238.859 C-338.38 241.209 -338.558 243.565 -338.707 245.922 C-338.749 246.567 -338.749 246.567 -338.961 249.832 C-339.022 250.831 -339.082 251.83 -339.145 252.859 C-340.039 252.957 -340.934 253.055 -341.855 253.156 C-354.549 254.726 -364.327 257.443 -372.609 267.668 C-381.674 280.92 -382.711 297.561 -379.957 312.922 C-377.178 327.152 -370.728 340.728 -359.145 349.859 C-348.455 356.008 -338.286 357.211 -326.145 357.859 C-325.924 358.387 -325.704 358.914 -325.477 359.457 C-318.111 376.908 -309.553 391.432 -296.145 404.859 C-295.367 405.648 -294.59 406.437 -293.789 407.25 C-273.065 427.106 -243.267 437.466 -216.145 444.859 C-217.517 448.032 -218.997 449.83 -221.662 452.01 C-226.655 456.24 -231.247 460.818 -235.867 465.449 C-236.772 466.353 -237.676 467.256 -238.608 468.187 C-240.509 470.087 -242.409 471.989 -244.308 473.892 C-246.72 476.311 -249.137 478.724 -251.556 481.137 C-253.891 483.468 -256.223 485.802 -258.555 488.137 C-259.412 488.992 -260.27 489.848 -261.153 490.729 C-265.448 495.04 -269.575 499.423 -273.543 504.036 C-275.997 506.831 -278.619 509.439 -281.27 512.047 C-281.545 512.32 -281.545 512.32 -282.938 513.704 C-285.252 516.002 -287.573 518.294 -289.893 520.587 C-296.209 526.835 -302.381 533.09 -308.145 539.859 C-316.446 548.946 -324.297 554.466 -335.77 558.859 C-346.256 562.886 -353.593 568.434 -358.52 578.734 C-360.375 588.011 -359.16 596.108 -354.082 604.109 C-346.996 611.724 -336.287 613.45 -326.395 614.109 C-322.473 615.014 -320.904 616.628 -318.008 619.293 C-312.038 624.312 -305.722 625.483 -298.066 625.172 C-289.791 624.287 -283.529 621.332 -278.145 614.859 C-275.388 610.245 -272.89 605.463 -271.406 600.281 C-269.573 596.762 -266.626 595.23 -263.332 593.234 C-256.293 588.76 -250.03 583.778 -243.772 578.281 C-240.925 575.794 -238.033 573.361 -235.145 570.922 C-234.616 570.473 -234.088 570.025 -233.544 569.563 C-230.453 566.941 -227.322 564.377 -224.145 561.859 C-225.53 569.898 -227.214 577.843 -229.02 585.797 C-232.53 601.472 -235.768 617.125 -238.332 632.984 C-238.499 634.016 -238.666 635.047 -238.838 636.11 C-239.724 641.73 -240.437 647.32 -240.892 652.992 C-241.145 654.859 -241.145 654.859 -242.145 655.859 C-257.344 656.892 -271.823 655.727 -284.145 645.859 C-285.031 645.241 -285.918 644.622 -286.832 643.984 C-288.988 642.003 -290.557 640.073 -292.289 637.727 C-292.825 637.003 -293.361 636.28 -293.913 635.535 C-294.32 634.982 -294.726 634.429 -295.145 633.859 C-295.702 634.011 -296.26 634.162 -296.834 634.318 C-318.731 640.167 -337.343 640.857 -357.82 629.977 C-363.62 626.283 -368.353 621.758 -373.145 616.859 C-373.823 616.214 -374.501 615.568 -375.199 614.902 C-384.129 605.794 -388.117 593.3 -389.145 580.859 C-390.088 580.906 -391.032 580.952 -392.004 581 C-407.452 581.434 -421.031 576.858 -432.52 566.047 C-442.709 555.054 -447.802 540.924 -447.488 526.062 C-446.874 515.036 -441.689 504.32 -437.477 494.262 C-432.338 481.136 -431.933 464.978 -436.891 451.66 C-440.144 444.394 -444.044 437.912 -448.645 431.422 C-461.72 412.909 -466.324 392.976 -462.52 370.543 C-458.579 353.955 -449.101 337.957 -437.594 325.57 C-416.718 302.463 -402.287 275.392 -396.191 244.773 C-396.021 243.921 -395.851 243.068 -395.676 242.189 C-393.803 232.498 -392.505 222.734 -391.196 212.954 C-384.454 163.039 -372.307 112.048 -340.145 71.859 C-339.38 70.891 -338.616 69.923 -337.828 68.926 C-334.04 64.201 -330.173 59.728 -325.812 55.527 C-324.043 53.758 -322.445 51.898 -320.832 49.984 C-276.527 -1.084 -200.454 -23.77 -135.473 -28.623 C-91.049 -31.5 -36.114 -29.278 0 0 Z " fill="#FDC654" transform="translate(619.14453125,69.140625)"/>
<path d="M0 0 C3.159 1.58 3.371 4.307 4.562 7.562 C12.021 27.035 24.109 43.501 39 58 C39.219 58.242 39.219 58.242 40.328 59.465 C60.42 81.028 90.017 93.1 118 100 C119.135 104.702 119.339 109.375 119.562 114.188 C119.583 114.631 119.583 114.631 119.689 116.876 C120.069 125.591 120.18 134.279 120 143 C119.991 143.437 119.991 143.437 119.946 145.651 C118.99 185.359 112.884 228.594 85 259 C84.13 259.963 83.26 260.926 82.363 261.918 C43.377 303.715 -23.7 312.749 -78 315 C-84.041 315.177 -90.082 315.196 -96.125 315.188 C-96.942 315.187 -97.758 315.186 -98.6 315.186 C-151.872 315.08 -214.843 310.169 -259 277 C-259.855 276.366 -260.709 275.732 -261.59 275.078 C-287.421 255.178 -302.043 226.11 -306.379 194.008 C-306.586 192.339 -306.793 190.669 -307 189 C-307.134 188.019 -307.268 187.037 -307.406 186.026 C-310.329 164.332 -310.333 142.846 -310 121 C-309.691 120.968 -309.691 120.968 -308.13 120.804 C-270.922 116.798 -235.355 105.512 -203.009 86.452 C-200.259 84.885 -198.472 83.972 -195.27 84.16 C-193 85 -193 85 -189.688 86.812 C-171.395 96.009 -147.618 95.064 -128 91 C-127.1 90.817 -126.2 90.634 -125.272 90.445 C-78.722 80.724 -36.085 55.229 -9.414 15.172 C-6.162 10.184 -3.048 5.115 0 0 Z " fill="#FDD6AA" transform="translate(604,198)"/>
<path d="M0 0 C35.776 6.792 73.205 18.941 104.477 37.918 C107.667 39.286 108.734 39.157 112 38 C114.809 36.645 117.523 35.136 120.25 33.625 C149.175 18.127 188.433 -0.519 222 0 C224.318 10.981 224.307 21.844 224.261 33.018 C224.25 36.098 224.261 39.178 224.273 42.258 C224.294 63.652 221.38 83.459 216.735 104.309 C212.774 122.218 208.766 142.127 218.625 158.75 C222.469 164.184 227.698 167.899 234 170 C235.954 170.17 237.914 170.266 239.875 170.312 C240.904 170.35 241.932 170.387 242.992 170.426 C246.806 169.886 248.202 168.612 251 166 C252.45 163.457 252.45 163.457 253.613 160.598 C254.052 159.548 254.492 158.499 254.944 157.418 C255.396 156.311 255.847 155.203 256.312 154.062 C261.991 140.675 268.384 129.025 278 118 C278.579 117.326 279.158 116.652 279.754 115.957 C294.212 100.312 315.615 91.542 336 87 C336.815 86.812 337.63 86.623 338.469 86.429 C346.227 84.808 353.786 84.768 361.688 84.875 C362.33 84.88 362.33 84.88 365.584 84.902 C368.723 84.926 371.861 84.958 375 85 C352.072 158.635 352.072 158.635 318 177 C315.157 178.203 312.354 179.248 309.402 180.148 C306.613 181.137 304.382 182.236 302 184 C301.371 185.938 301.371 185.938 301.438 188 C301.437 188.34 301.437 188.34 301.434 190.062 C302.266 192.912 303.419 193.556 306 195 C308.53 195.691 311.002 196.28 313.562 196.812 C328.734 200.332 341.404 209.05 350.168 222.027 C357.965 234.679 362.013 247.784 366 262 C366.294 263.036 366.587 264.072 366.89 265.139 C367.747 268.173 368.596 271.211 369.438 274.25 C369.697 275.185 369.956 276.119 370.223 277.082 C370.457 277.947 370.692 278.812 370.934 279.703 C371.14 280.463 371.347 281.222 371.56 282.005 C372 284 372 284 372 287 C349.655 287.492 329.22 286.292 308 279 C307.473 278.821 307.473 278.821 304.805 277.918 C281.124 268.982 263.645 249.71 252.965 227.221 C250.64 221.87 248.707 216.33 246.876 210.792 C246.573 209.925 246.27 209.058 245.957 208.164 C245.828 207.775 245.828 207.775 245.175 205.803 C244 204 244 204 241.727 203.161 C238.642 202.979 236.384 203.433 233.406 204.258 C232.307 204.552 231.208 204.845 230.076 205.148 C228.896 205.47 227.716 205.793 226.5 206.125 C216.171 208.833 205.904 211.091 195.375 212.875 C194.186 213.078 192.997 213.28 191.771 213.489 C145.082 221.18 93.974 214.892 54.625 187.125 C47.58 181.977 41.189 176.136 35 170 C34.569 169.575 34.569 169.575 32.387 167.426 C4.477 138.359 -6.161 99.468 -6.375 60.125 C-6.38 59.284 -6.385 58.442 -6.391 57.575 C-6.444 39.02 -5.921 17.763 0 0 Z " fill="#70BEA1" transform="translate(396,692)"/>
<path d="M0 0 C0.314 0.315 0.314 0.315 1.905 1.91 C2.633 2.632 3.36 3.354 4.11 4.097 C4.504 4.496 4.504 4.496 6.498 6.513 C6.917 6.931 6.917 6.931 9.037 9.046 C11.334 11.341 13.624 13.642 15.912 15.946 C18.312 18.362 20.721 20.77 23.129 23.178 C27.176 27.229 31.218 31.286 35.256 35.347 C40.421 40.54 45.594 45.724 50.771 50.905 C55.238 55.376 59.7 59.851 64.162 64.327 C65.587 65.756 67.013 67.185 68.439 68.613 C71.112 71.294 73.782 73.977 76.451 76.662 C76.842 77.054 76.842 77.054 78.821 79.035 C82.934 83.18 86.893 87.407 90.698 91.837 C100.873 103.623 112.073 111.663 126.669 116.853 C133.128 119.284 138.68 122.458 142.352 128.482 C143.802 132.139 143.705 135.68 143.169 139.541 C140.744 144.577 138.281 146.473 133.169 148.541 C130.199 148.967 127.226 149.077 124.231 149.228 C116.149 149.851 116.149 149.851 112.614 152.337 C110.974 154.335 109.561 156.366 108.169 158.541 C104.515 161.617 101.188 162.189 96.512 162.017 C91.524 161.003 88.013 157.79 84.852 153.935 C82.636 150.492 81.984 147.52 81.481 143.478 C80.957 140.484 80.627 138.988 78.434 136.849 C76.064 135.307 73.633 133.928 71.169 132.541 C60.24 125.165 49.88 116.597 40.723 107.099 C39.027 105.399 37.246 103.85 35.419 102.291 C34.763 101.711 34.106 101.13 33.43 100.533 C31.727 99.032 29.995 97.564 28.251 96.111 C20.638 89.469 20.638 89.469 19.387 84.33 C19.283 82.136 19.236 79.94 19.247 77.744 C19.014 68.217 13.662 58.907 6.946 52.38 C-6.66 40.844 -23.271 37.248 -40.831 38.541 C-55.687 40.234 -70.078 47.1 -80.831 57.541 C-81.538 58.444 -82.244 59.348 -82.972 60.279 C-83.279 60.652 -83.279 60.652 -84.831 62.541 C-85.491 62.541 -86.151 62.541 -86.831 62.541 C-88.277 61.002 -88.277 61.002 -89.956 58.916 C-100.265 46.921 -116.19 39.384 -131.831 37.541 C-136.25 37.218 -140.652 37.091 -145.081 37.041 C-146.158 37.022 -147.235 37.003 -148.344 36.984 C-161.473 37.088 -173.71 41.527 -183.156 50.83 C-189.57 58.299 -192.913 65.603 -192.943 75.509 C-192.984 82.069 -193.52 86.237 -198.394 91.103 C-200.175 92.62 -201.985 94.103 -203.831 95.541 C-205.067 96.617 -206.296 97.7 -207.519 98.791 C-208.154 99.333 -208.79 99.876 -209.445 100.435 C-212.094 102.773 -214.66 105.187 -217.229 107.613 C-225.762 115.663 -234.58 122.974 -244.081 129.853 C-244.66 130.274 -245.239 130.695 -245.835 131.129 C-248.551 133.067 -251.043 134.629 -254.132 135.916 C-256.831 137.541 -256.831 137.541 -258.046 140.615 C-258.285 141.807 -258.523 143 -258.769 144.228 C-260.56 151.477 -263.258 156.767 -269.777 160.72 C-273.428 162.178 -276.973 162.078 -280.831 161.541 C-284.672 159.62 -286.537 157.965 -288.988 154.435 C-291.318 151.601 -291.787 151.549 -295.722 150.841 C-297.175 150.821 -298.628 150.826 -300.081 150.853 C-301.601 150.821 -303.121 150.781 -304.64 150.732 C-305.364 150.709 -306.089 150.686 -306.835 150.662 C-312.376 150.325 -316.466 148.94 -320.331 144.978 C-323.126 140.437 -323.95 136.839 -322.831 131.541 C-318.083 123.61 -311.627 120.469 -303.202 117.666 C-290.592 113.36 -281.779 106.09 -272.581 96.603 C-271.632 95.642 -270.681 94.682 -269.73 93.722 C-265.929 89.86 -262.195 85.98 -258.656 81.876 C-254.899 77.573 -250.976 73.456 -246.991 69.365 C-246.24 68.591 -245.49 67.818 -244.716 67.021 C-237.851 59.961 -230.947 52.939 -224.029 45.931 C-219.393 41.232 -214.771 36.521 -210.18 31.778 C-205.722 27.173 -201.231 22.604 -196.715 18.057 C-195.005 16.323 -193.307 14.578 -191.622 12.821 C-178.457 -0.887 -178.457 -0.887 -171.99 -2.297 C-168.67 -2.069 -165.985 -1.482 -162.831 -0.459 C-161.09 -0.201 -159.343 0.028 -157.593 0.224 C-155.901 0.474 -154.21 0.725 -152.519 0.978 C-131.285 3.985 -110.201 4.917 -88.769 4.853 C-87.522 4.852 -86.274 4.85 -84.989 4.849 C-60.531 4.796 -36.828 3.482 -12.776 -1.277 C-11.914 -1.445 -11.052 -1.614 -10.163 -1.788 C-9.418 -1.941 -8.673 -2.095 -7.905 -2.253 C-4.647 -2.577 -2.581 -2.056 0 0 Z " fill="#FDD7AB" transform="translate(594.8313493728638,520.4594125747681)"/>
<path d="M0 0 C0.639 0.66 1.279 1.32 1.938 2 C2.955 3.003 3.976 4.003 5 5 C5.632 5.628 6.263 6.256 6.914 6.902 C19.175 18.517 33.672 22.593 50.25 22.5 C51.438 22.494 52.626 22.489 53.85 22.483 C71.383 22.127 83.986 15.399 97 4 C100.002 15.618 102.966 27.242 105.375 39 C105.542 39.792 105.71 40.585 105.882 41.401 C106.866 46.356 107.149 50.948 107 56 C106.429 56.068 106.429 56.068 103.539 56.41 C70.371 60.677 38.344 72.602 8.406 87.223 C8.062 87.39 8.062 87.39 6.317 88.236 C4.524 89.115 2.742 90.015 0.961 90.918 C-3.842 92.673 -6.661 91.203 -11.105 89.172 C-12.8 88.366 -14.494 87.558 -16.188 86.75 C-45.1 73.324 -77.068 60.193 -109 57 C-107.812 47.55 -106.116 38.354 -103.968 29.084 C-103.495 27.041 -103.03 24.996 -102.566 22.951 C-101.189 16.918 -99.738 10.939 -98 5 C-94.937 6.389 -92.663 8.058 -90.125 10.25 C-76.367 21.076 -58.77 24.326 -41.715 22.684 C-26.227 20.635 -12.314 15.149 -2 3 C-1.34 2.01 -0.68 1.02 0 0 Z " fill="#FDD7AB" transform="translate(508,624)"/>
<path d="M0 0 C7.579 6.424 12.32 12.439 13.438 22.5 C13.083 30.047 9.078 36.307 4.051 41.711 C-7.666 52.289 -21.773 54.236 -36.96 53.694 C-48.583 52.943 -60.52 47.164 -68.379 38.652 C-74.792 30.384 -75.958 21.844 -75 11.562 C-72.626 3.662 -67.606 -2.608 -60.609 -6.906 C-41.355 -17.065 -17.229 -12.842 0 0 Z " fill="#C89BC1" transform="translate(489,581.4375)"/>
<path d="M0 0 C5.477 5.092 9.131 10.392 10.078 17.914 C10.389 26.825 8.566 33.389 2.926 40.34 C-2.606 46.143 -8.945 49.217 -16.262 52.215 C-16.959 52.502 -17.656 52.79 -18.375 53.086 C-30.741 57.062 -45.954 54.193 -57.449 49.09 C-64.998 45.03 -71.616 38.798 -74.664 30.66 C-76.354 23.746 -76.364 17.415 -73.012 11.027 C-65.416 -0.063 -52.58 -6.426 -39.699 -9.098 C-25.566 -11.206 -11.482 -9.062 0 0 Z " fill="#C89BC1" transform="translate(591.26171875,580.78515625)"/>
<path d="M0 0 C8.365 4.816 12.858 12.822 15.496 21.836 C18.515 34.701 17.486 47.394 10.938 58.938 C8.641 62.525 6.463 65.195 2.812 67.5 C2.263 67.852 1.714 68.204 1.148 68.566 C-4.775 70.934 -13.807 70.585 -19.805 68.66 C-28.16 63.832 -32.18 55.487 -34.747 46.553 C-37.331 34.512 -36.062 20.822 -29.867 10.246 C-23.263 0.447 -11.398 -5.053 0 0 Z " fill="#4F3613" transform="translate(409.1875,342.5)"/>
<path d="M0 0 C7.183 6.483 11.462 14.717 12.177 24.397 C12.821 50.467 12.821 50.467 4.25 61.062 C-1.15 66.552 -5.905 68.081 -13.5 68.438 C-20.535 68.204 -25.414 65.977 -30.25 60.875 C-38.661 50.241 -38.804 36.904 -38 24 C-36.635 14.963 -32.13 6.098 -24.875 0.438 C-17.604 -4.717 -7.516 -4.538 0 0 Z " fill="#4F3613" transform="translate(634,344)"/>
<path d="M0 0 C0.005 0.297 0.005 0.297 0.028 1.8 C0.308 16.327 1.319 30.686 2.875 45.125 C2.956 45.896 3.037 46.666 3.121 47.46 C4.25 58.087 5.879 68.527 8 79 C-1.379 79.656 -7.92 78.356 -15.191 72.121 C-26.088 60.893 -29.423 46.627 -29.367 31.468 C-29.076 21.141 -26.617 12.239 -19.207 4.746 C-13.236 0.022 -7.317 -0.115 0 0 Z " fill="#FCD9AE" transform="translate(280,335)"/>
<path d="M0 0 C6.951 -0.116 12.393 -0.064 17.918 4.629 C27.687 14.94 28.464 27.179 28.277 40.641 C27.887 51.728 23.947 62.664 16.27 70.844 C9.987 76.502 3.752 79.057 -4.668 79.02 C-5.479 79.017 -6.29 79.014 -7.126 79.011 C-7.744 79.007 -8.363 79.004 -9 79 C-8.746 77.788 -8.492 76.577 -8.23 75.328 C-3.033 50.171 -0.894 25.659 0 0 Z " fill="#FCD8AD" transform="translate(737,335)"/>
<path d="M0 0 C2.124 1.628 3.995 3.37 5.875 5.273 C12.095 10.327 20.43 9.687 28 9 C32.902 7.704 36.144 5.876 39.688 2.25 C42 0 42 0 45.062 -0.625 C48 0 48 0 50.375 2.125 C52.316 5.56 52.713 7.118 52 11 C47.73 17.974 40.546 21.222 32.812 23.312 C18.448 25.927 5.813 23.698 -6.258 15.562 C-8.212 13.81 -9.099 12.458 -10 10 C-9.821 6.592 -9.613 4 -7.812 1.062 C-4.865 -0.665 -3.385 -0.639 0 0 Z " fill="#493111" transform="translate(489,429)"/>
<path d="M0 0 C1.32 0.66 2.64 1.32 4 2 C2.35 2.33 0.7 2.66 -1 3 C-0.67 2.01 -0.34 1.02 0 0 Z " fill="#827338" transform="translate(441,892)"/>
<path d="M0 0 C0.99 1.32 1.98 2.64 3 4 C2.01 4.66 1.02 5.32 0 6 C0 4.02 0 2.04 0 0 Z " fill="#827336" transform="translate(400,849)"/>
<path d="M0 0 C2.97 0 5.94 0 9 0 C9 0.33 9 0.66 9 1 C6.03 1 3.06 1 0 1 C0 0.67 0 0.34 0 0 Z " fill="#968545" transform="translate(768,760)"/>
<path d="M0 0 C0.825 0.165 0.825 0.165 5 1 C4.67 1.165 4.67 1.165 3 2 C2.67 2.66 2.34 3.32 2 4 C1.34 2.68 0.68 1.36 0 0 Z " fill="#86793C" transform="translate(494,916)"/>
<path d="M0 0 C2.31 0.33 4.62 0.66 7 1 C7 1.33 7 1.66 7 2 C4.69 1.67 2.38 1.34 0 1 C0 0.67 0 0.34 0 0 Z " fill="#AB7A2E" transform="translate(199,662)"/>
<path d="M0 0 C0.66 0 1.32 0 2 0 C2 1.65 2 3.3 2 5 C1.34 4.34 0.68 3.68 0 3 C0 2.01 0 1.02 0 0 Z " fill="#A97A2F" transform="translate(208,289)"/>
<path d="M0 0 C1.32 0.99 2.64 1.98 4 3 C2.68 3.33 1.36 3.66 0 4 C0 2.68 0 1.36 0 0 Z " fill="#A5752C" transform="translate(336,64)"/>
<path d="M0 0 C0.33 0.99 0.66 1.98 1 3 C0.34 3.66 -0.32 4.32 -1 5 C-0.67 3.35 -0.34 1.7 0 0 Z " fill="#AA7A30" transform="translate(201,328)"/>
<path d="M0 0 C0.33 1.32 0.66 2.64 1 4 C0.01 3.67 -0.98 3.34 -2 3 C-1.34 2.01 -0.68 1.02 0 0 Z " fill="#A2712B" transform="translate(322,72)"/>
<path d="M0 0 C1.32 0.33 2.64 0.66 4 1 C2.68 1.33 1.36 1.66 0 2 C0 1.34 0 0.68 0 0 Z " fill="#AB792F" transform="translate(368,50)"/>
<path d="M0 0 C0.66 0.33 0.66 0.33 4 2 C3.01 2 2.02 2 1 2 C0.67 1.34 0.34 0.68 0 0 Z " fill="#85783B" transform="translate(487,914)"/>
<path d="M0 0 C1.32 0.33 2.64 0.66 4 1 C2.68 1.33 1.36 1.66 0 2 C0 1.34 0 0.68 0 0 Z " fill="#A88C45" transform="translate(638,739)"/>
<path d="M0 0 C0.66 0.33 0.66 0.33 4 2 C2.68 2 1.36 2 0 2 C0 1.34 0 0.68 0 0 Z " fill="#AB8337" transform="translate(336,734)"/>
<path d="M0 0 C0.33 0 0.66 0 1 0 C1 1.65 1 3.3 1 5 C0.34 4.34 -0.32 3.68 -1 3 C-0.67 2.01 -0.34 1.02 0 0 Z " fill="#A4772F" transform="translate(138,450)"/>
<path d="M0 0 C0.33 0.99 0.66 1.98 1 3 C0.01 2.67 -0.98 2.34 -2 2 C-1.34 1.34 -0.68 0.68 0 0 Z " fill="#AA792E" transform="translate(212,272)"/>
<path d="M0 0 C1.98 0 3.96 0 6 0 C6 0.33 6 0.66 6 1 C4.02 1 2.04 1 0 1 C0 0.67 0 0.34 0 0 Z " fill="#BF8A38" transform="translate(472,24)"/>
<path d="M0 0 C0.99 0 1.98 0 3 0 C3 0.66 3 1.32 3 2 C2.01 1.67 1.02 1.34 0 1 C0 0.67 0 0.34 0 0 Z " fill="#867B3C" transform="translate(499,918)"/>
<path d="M0 0 C0.99 0.33 1.98 0.66 3 1 C2.67 1.66 2.34 2.32 2 3 C1.34 2.67 0.68 2.34 0 2 C0 1.34 0 0.68 0 0 Z " fill="#A7752B" transform="translate(192,658)"/>
<path d="M0 0 C0.66 0 1.32 0 2 0 C1.67 0.99 1.34 1.98 1 3 C0.67 2.01 0.34 1.02 0 0 Z " fill="#A87C36" transform="translate(822,342)"/>
<path d="M0 0 C0.33 0 0.66 0 1 0 C1 1.65 1 3.3 1 5 C0.67 5 0.34 5 0 5 C0 3.35 0 1.7 0 0 Z " fill="#A67B36" transform="translate(799,228)"/>
<path d="M0 0 C0.33 0.165 0.33 0.165 2 1 C2 1.66 2 2.32 2 3 C1.34 3 0.68 3 0 3 C0 2.01 0 1.02 0 0 Z " fill="#9D6F29" transform="translate(248,153)"/>
<path d="M0 0 C1.32 0.33 2.64 0.66 4 1 C3.67 1.165 3.67 1.165 2 2 C1.34 1.34 0.68 0.68 0 0 Z " fill="#A6752C" transform="translate(339,64)"/>
<path d="M0 0 C0.99 0.33 1.98 0.66 3 1 C2.01 1 1.02 1 0 1 C0 0.67 0 0.34 0 0 Z " fill="#8C7D3D" transform="translate(674,973)"/>
<path d="M0 0 C0.33 0.66 0.66 1.32 1 2 C0.01 1.67 -0.98 1.34 -2 1 C-1.34 0.67 -0.68 0.34 0 0 Z " fill="#897A3D" transform="translate(642,942)"/>
<path d="M0 0 C4 1 4 1 4 1 Z " fill="#877D3E" transform="translate(505,919)"/>
<path d="M0 0 C0.99 0 1.98 0 3 0 C2.67 0.66 2.34 1.32 2 2 C1.34 1.34 0.68 0.68 0 0 Z " fill="#8C7E3D" transform="translate(739,869)"/>
<path d="M0 0 C1 4 1 4 1 4 Z " fill="#8D8143" transform="translate(631,783)"/>
<path d="M0 0 C0.66 0 1.32 0 2 0 C2 0.66 2 1.32 2 2 C1.34 2 0.68 2 0 2 C0 1.34 0 0.68 0 0 Z " fill="#928544" transform="translate(677,784)"/>
<path d="M0 0 C0.66 0.66 1.32 1.32 2 2 C1.01 1.67 0.02 1.34 -1 1 C-0.67 0.67 -0.34 0.34 0 0 Z " fill="#A3853E" transform="translate(372,742)"/>
<path d="M0 0 C0.66 0 1.32 0 2 0 C2 0.66 2 1.32 2 2 C1.34 2 0.68 2 0 2 C0 1.34 0 0.68 0 0 Z " fill="#A8873D" transform="translate(360,740)"/>
<path d="M0 0 C0.66 0.66 1.32 1.32 2 2 C1.01 1.67 0.02 1.34 -1 1 C-0.67 0.67 -0.34 0.34 0 0 Z " fill="#A4782F" transform="translate(249,710)"/>
<path d="M0 0 C0 3 0 3 0 3 Z " fill="#AC7F36" transform="translate(791,671)"/>
<path d="M0 0 C1 4 1 4 1 4 Z " fill="#A67D35" transform="translate(855,609)"/>
<path d="M0 0 C1 4 1 4 1 4 Z " fill="#AC7D31" transform="translate(160,568)"/>
<path d="M0 0 C1 4 1 4 1 4 Z " fill="#AA7B33" transform="translate(168,531)"/>
<path d="M0 0 C4 1 4 1 4 1 Z " fill="#A1712C" transform="translate(304,88)"/>
<path d="M0 0 C4 1 4 1 4 1 Z " fill="#AF8133" transform="translate(649,57)"/>
<path d="M0 0 C4 1 4 1 4 1 Z " fill="#B38033" transform="translate(635,56)"/>
<path d="M0 0 C0.66 0.66 1.32 1.32 2 2 C1.01 1.67 0.02 1.34 -1 1 C-0.67 0.67 -0.34 0.34 0 0 Z " fill="#B38033" transform="translate(418,33)"/>
<path d="M0 0 C3 1 3 1 3 1 Z " fill="#8F8343" transform="translate(766,995)"/>
<path d="M0 0 C3 1 3 1 3 1 Z " fill="#918443" transform="translate(758,995)"/>
<path d="M0 0 C3 1 3 1 3 1 Z " fill="#928545" transform="translate(752,995)"/>
<path d="M0 0 C0.66 0.66 1.32 1.32 2 2 C1.34 2 0.68 2 0 2 C0 1.34 0 0.68 0 0 Z " fill="#8B7D3C" transform="translate(672,971)"/>
<path d="M0 0 C0.66 0 1.32 0 2 0 C1.67 0.66 1.34 1.32 1 2 C0.67 1.34 0.34 0.68 0 0 Z " fill="#8F8040" transform="translate(635,929)"/>
<path d="M0 0 C3 1 3 1 3 1 Z " fill="#897D3F" transform="translate(566,923)"/>
<path d="M0 0 C3 1 3 1 3 1 Z " fill="#8B7E3F" transform="translate(534,923)"/>
<path d="M0 0 C0.66 0 1.32 0 2 0 C1.67 0.66 1.34 1.32 1 2 C0.67 1.34 0.34 0.68 0 0 Z " fill="#8E8040" transform="translate(603,918)"/>
<path d="M0 0 C3 1 3 1 3 1 Z " fill="#84783B" transform="translate(477,911)"/>
<path d="M0 0 C0.33 0.66 0.66 1.32 1 2 C0.34 1.67 -0.32 1.34 -1 1 C-0.67 0.67 -0.34 0.34 0 0 Z " fill="#8D8442" transform="translate(634,844)"/>
<path d="M0 0 C0.66 0 1.32 0 2 0 C1.67 0.66 1.34 1.32 1 2 C0.67 1.34 0.34 0.68 0 0 Z " fill="#8E8546" transform="translate(628,842)"/>
<path d="M0 0 C0.66 0.66 1.32 1.32 2 2 C1.34 2 0.68 2 0 2 C0 1.34 0 0.68 0 0 Z " fill="#8C8142" transform="translate(641,826)"/>
<path d="M0 0 C0.33 0.66 0.66 1.32 1 2 C0.34 1.67 -0.32 1.34 -1 1 C-0.67 0.67 -0.34 0.34 0 0 Z " fill="#87793C" transform="translate(387,826)"/>
<path d="" fill="#8B7D3E" transform="translate(0,0)"/>
<path d="" fill="#8C7B3D" transform="translate(0,0)"/>
<path d="" fill="#8C7C3D" transform="translate(0,0)"/>
<path d="M0 0 C0.33 0.66 0.66 1.32 1 2 C0.34 1.67 -0.32 1.34 -1 1 C-0.67 0.67 -0.34 0.34 0 0 Z " fill="#988844" transform="translate(705,769)"/>
<path d="M0 0 C3 1 3 1 3 1 Z " fill="#988741" transform="translate(708,768)"/>
<path d="M0 0 C3 1 3 1 3 1 Z " fill="#9E8A48" transform="translate(741,760)"/>
<path d="" fill="#A48A44" transform="translate(0,0)"/>
<path d="M0 0 C0.66 0 1.32 0 2 0 C1.67 0.66 1.34 1.32 1 2 C0.67 1.34 0.34 0.68 0 0 Z " fill="#A4853C" transform="translate(372,740)"/>
<path d="M0 0 C0.33 0.66 0.66 1.32 1 2 C0.34 1.67 -0.32 1.34 -1 1 C-0.67 0.67 -0.34 0.34 0 0 Z " fill="#A7893F" transform="translate(369,740)"/>
<path d="M0 0 C3 1 3 1 3 1 Z " fill="#A7853C" transform="translate(365,740)"/>
<path d="M0 0 C0.66 0 1.32 0 2 0 C1.67 0.66 1.34 1.32 1 2 C0.67 1.34 0.34 0.68 0 0 Z " fill="#B38336" transform="translate(287,722)"/>
<path d="M0 0 C0.33 0.66 0.66 1.32 1 2 C0.34 1.67 -0.32 1.34 -1 1 C-0.67 0.67 -0.34 0.34 0 0 Z " fill="#A5762F" transform="translate(217,674)"/>
<path d="M0 0 C0.66 0 1.32 0 2 0 C1.67 0.66 1.34 1.32 1 2 C0.67 1.34 0.34 0.68 0 0 Z " fill="#A87B32" transform="translate(818,661)"/>
<path d="" fill="#A2752A" transform="translate(0,0)"/>
<path d="" fill="#A97A32" transform="translate(0,0)"/>
<path d="M0 0 C0.33 0.66 0.66 1.32 1 2 C0.34 1.67 -0.32 1.34 -1 1 C-0.67 0.67 -0.34 0.34 0 0 Z " fill="#AE7B2F" transform="translate(169,540)"/>
<path d="M0 0 C0.33 0.66 0.66 1.32 1 2 C0.34 1.67 -0.32 1.34 -1 1 C-0.67 0.67 -0.34 0.34 0 0 Z " fill="#A7772F" transform="translate(145,489)"/>
<path d="" fill="#A87830" transform="translate(0,0)"/>
<path d="" fill="#A67931" transform="translate(0,0)"/>
<path d="M0 0 C0.66 0 1.32 0 2 0 C1.67 0.66 1.34 1.32 1 2 C0.67 1.34 0.34 0.68 0 0 Z " fill="#A2762E" transform="translate(137,460)"/>
<path d="M0 0 C0.33 0.66 0.66 1.32 1 2 C0.34 1.67 -0.32 1.34 -1 1 C-0.67 0.67 -0.34 0.34 0 0 Z " fill="#A17530" transform="translate(137,442)"/>
<path d="M0 0 C0.33 0.165 0.33 0.165 2 1 C1.67 1.165 1.67 1.165 0 2 C0 1.34 0 0.68 0 0 Z " fill="#A5762F" transform="translate(146,416)"/>
<path d="M0 0 C0.33 0.165 0.33 0.165 2 1 C1.67 1.165 1.67 1.165 0 2 C0 1.34 0 0.68 0 0 Z " fill="#A1712C" transform="translate(155,400)"/>
<path d="" fill="#AC7930" transform="translate(0,0)"/>
<path d="" fill="#A87831" transform="translate(0,0)"/>
<path d="" fill="#A87830" transform="translate(0,0)"/>
<path d="" fill="#A2742D" transform="translate(0,0)"/>
<path d="" fill="#A47933" transform="translate(0,0)"/>
<path d="M0 0 C0.33 0.66 0.66 1.32 1 2 C0.34 1.67 -0.32 1.34 -1 1 C-0.67 0.67 -0.34 0.34 0 0 Z " fill="#9F712B" transform="translate(233,187)"/>
<path d="" fill="#A37834" transform="translate(0,0)"/>
<path d="M0 0 C3 1 3 1 3 1 Z " fill="#AD7E32" transform="translate(678,64)"/>
<path d="M0 0 C0.66 0.66 1.32 1.32 2 2 C1.34 2 0.68 2 0 2 C0 1.34 0 0.68 0 0 Z " fill="#B07F33" transform="translate(662,58)"/>
<path d="M0 0 C3 1 3 1 3 1 Z " fill="#AA772E" transform="translate(355,57)"/>
<path d="" fill="#AE7E33" transform="translate(0,0)"/>
<path d="M0 0 C0.66 0 1.32 0 2 0 C1.67 0.66 1.34 1.32 1 2 C0.67 1.34 0.34 0.68 0 0 Z " fill="#B08033" transform="translate(619,48)"/>
<path d="M0 0 C3 1 3 1 3 1 Z " fill="#AE7B2F" transform="translate(375,48)"/>
<path d="M0 0 C3 1 3 1 3 1 Z " fill="#B28237" transform="translate(602,40)"/>
<path d="M0 0 C3 1 3 1 3 1 Z " fill="#BA8336" transform="translate(424,32)"/>
<path d="M0 0 C3 1 3 1 3 1 Z " fill="#B8873A" transform="translate(480,24)"/>
<path d="M0 0 C2 1 2 1 2 1 Z " fill="#91823F" transform="translate(707,991)"/>
<path d="M0 0 C2 1 2 1 2 1 Z " fill="#928341" transform="translate(704,991)"/>
<path d="M0 0 C2 1 2 1 2 1 Z " fill="#92823F" transform="translate(706,988)"/>
<path d="M0 0 C2 1 2 1 2 1 Z " fill="#8E7F3F" transform="translate(680,977)"/>
<path d="" fill="#867E42" transform="translate(0,0)"/>
<path d="M0 0 C2 1 2 1 2 1 Z " fill="#89793A" transform="translate(664,966)"/>
<path d="" fill="#8E7B3D" transform="translate(0,0)"/>
<path d="" fill="#887E42" transform="translate(0,0)"/>
<path d="" fill="#8C7D3C" transform="translate(0,0)"/>
<path d="M0 0 C2 1 2 1 2 1 Z " fill="#887A3F" transform="translate(773,936)"/>
<path d="M0 0 C2 1 2 1 2 1 Z " fill="#85763B" transform="translate(493,919)"/>
<path d="M0 0 C2 1 2 1 2 1 Z " fill="#8B7D3F" transform="translate(608,917)"/>
<path d="" fill="#877C3F" transform="translate(0,0)"/>
<path d="M0 0 C2 1 2 1 2 1 Z " fill="#83763C" transform="translate(475,910)"/>
<path d="M0 0 C2 1 2 1 2 1 Z " fill="#847A3D" transform="translate(457,902)"/>
<path d="M0 0 C2 1 2 1 2 1 Z " fill="#827336" transform="translate(425,879)"/>
<path d="M0 0 C2 1 2 1 2 1 Z " fill="#8F8243" transform="translate(759,847)"/>
<path d="" fill="#918845" transform="translate(0,0)"/>
<path d="" fill="#837338" transform="translate(0,0)"/>
<path d="" fill="#8C7F3F" transform="translate(0,0)"/>
<path d="" fill="#897A3C" transform="translate(0,0)"/>
<path d="" fill="#8A7B41" transform="translate(0,0)"/>
<path d="" fill="#948644" transform="translate(0,0)"/>
<path d="M0 0 C2 1 2 1 2 1 Z " fill="#9E8944" transform="translate(727,763)"/>
<path d="M0 0 C2 1 2 1 2 1 Z " fill="#9F8D49" transform="translate(737,761)"/>
<path d="M0 0 C2 1 2 1 2 1 Z " fill="#9B8946" transform="translate(749,760)"/>
<path d="M0 0 C2 1 2 1 2 1 Z " fill="#9F8E4B" transform="translate(745,760)"/>
<path d="M0 0 C2 1 2 1 2 1 Z " fill="#AD893D" transform="translate(664,734)"/>
<path d="M0 0 C2 1 2 1 2 1 Z " fill="#A9843C" transform="translate(666,733)"/>
<path d="M0 0 C2 1 2 1 2 1 Z " fill="#AC8337" transform="translate(330,731)"/>
<path d="M0 0 C2 1 2 1 2 1 Z " fill="#B18034" transform="translate(290,723)"/>
<path d="M0 0 C2 1 2 1 2 1 Z " fill="#A97C32" transform="translate(268,719)"/>
<path d="M0 0 C2 1 2 1 2 1 Z " fill="#B3893E" transform="translate(739,718)"/>
<path d="M0 0 C2 1 2 1 2 1 Z " fill="#B0873F" transform="translate(743,717)"/>
<path d="M0 0 C2 1 2 1 2 1 Z " fill="#B0873D" transform="translate(750,714)"/>
<path d="" fill="#A5762E" transform="translate(0,0)"/>
<path d="" fill="#AC8037" transform="translate(0,0)"/>
<path d="" fill="#A77E36" transform="translate(0,0)"/>
<path d="M0 0 C2 1 2 1 2 1 Z " fill="#AA7D32" transform="translate(800,669)"/>
<path d="" fill="#AA792B" transform="translate(0,0)"/>
<path d="M0 0 C2 1 2 1 2 1 Z " fill="#9E7532" transform="translate(845,639)"/>
<path d="" fill="#A1702A" transform="translate(0,0)"/>
<path d="" fill="#A07029" transform="translate(0,0)"/>
<path d="" fill="#A87C35" transform="translate(0,0)"/>
<path d="" fill="#A5762D" transform="translate(0,0)"/>
<path d="" fill="#AB7E36" transform="translate(0,0)"/>
<path d="M0 0 C2 1 2 1 2 1 Z " fill="#AB7D36" transform="translate(853,576)"/>
<path d="" fill="#AE7D31" transform="translate(0,0)"/>
<path d="" fill="#AA8037" transform="translate(0,0)"/>
<path d="M0 0 C2 1 2 1 2 1 Z " fill="#A4772F" transform="translate(160,519)"/>
<path d="" fill="#AA7B2F" transform="translate(0,0)"/>
<path d="M0 0 C2 1 2 1 2 1 Z " fill="#A67831" transform="translate(138,440)"/>
<path d="" fill="#A57730" transform="translate(0,0)"/>
<path d="" fill="#9F722C" transform="translate(0,0)"/>
<path d="M0 0 C2 1 2 1 2 1 Z " fill="#A47B34" transform="translate(845,376)"/>
<path d="M0 0 C2 1 2 1 2 1 Z " fill="#9C712C" transform="translate(168,376)"/>
<path d="" fill="#A3752F" transform="translate(0,0)"/>
<path d="" fill="#A7762F" transform="translate(0,0)"/>
<path d="" fill="#A87830" transform="translate(0,0)"/>
<path d="" fill="#AF7C33" transform="translate(0,0)"/>
<path d="" fill="#A87F37" transform="translate(0,0)"/>
<path d="" fill="#A47C37" transform="translate(0,0)"/>
<path d="" fill="#A87F38" transform="translate(0,0)"/>
<path d="" fill="#A3742B" transform="translate(0,0)"/>
<path d="M0 0 C2 1 2 1 2 1 Z " fill="#A0702B" transform="translate(216,234)"/>
<path d="" fill="#A0722B" transform="translate(0,0)"/>
<path d="" fill="#A9762E" transform="translate(0,0)"/>
<path d="" fill="#A5742C" transform="translate(0,0)"/>
<path d="" fill="#A57A34" transform="translate(0,0)"/>
<path d="M0 0 C2 1 2 1 2 1 Z " fill="#A1722A" transform="translate(224,208)"/>
<path d="" fill="#A17630" transform="translate(0,0)"/>
<path d="" fill="#A1732F" transform="translate(0,0)"/>
<path d="" fill="#A2732B" transform="translate(0,0)"/>
<path d="M0 0 C2 1 2 1 2 1 Z " fill="#A27129" transform="translate(244,161)"/>
<path d="" fill="#9F6F2B" transform="translate(0,0)"/>
<path d="" fill="#9D6F29" transform="translate(0,0)"/>
<path d="M0 0 C2 1 2 1 2 1 Z " fill="#9A6E2A" transform="translate(257,136)"/>
<path d="M0 0 C2 1 2 1 2 1 Z " fill="#A0722B" transform="translate(266,128)"/>
<path d="" fill="#9F712B" transform="translate(0,0)"/>
<path d="M0 0 C2 1 2 1 2 1 Z " fill="#A3722F" transform="translate(321,77)"/>
<path d="" fill="#A5742D" transform="translate(0,0)"/>
<path d="M0 0 C2 1 2 1 2 1 Z " fill="#AA7730" transform="translate(329,72)"/>
<path d="M0 0 C2 1 2 1 2 1 Z " fill="#B38234" transform="translate(632,56)"/>
<path d="" fill="#AE7D2F" transform="translate(0,0)"/>
<path d="M0 0 C2 1 2 1 2 1 Z " fill="#B17D2E" transform="translate(410,36)"/>
<path d="M0 0 C2 1 2 1 2 1 Z " fill="#B17F32" transform="translate(589,35)"/>
<path d="M0 0 C2 1 2 1 2 1 Z " fill="#B58034" transform="translate(421,33)"/>
<path d="M0 0 C2 1 2 1 2 1 Z " fill="#B68236" transform="translate(580,32)"/>
<path d="M0 0 C2 1 2 1 2 1 Z " fill="#BB8836" transform="translate(449,27)"/>
<path d="M0 0 C2 1 2 1 2 1 Z " fill="#BD8837" transform="translate(465,25)"/>
<path d="" fill="#8E8243" transform="translate(0,0)"/>
<path d="" fill="#5B4E22" transform="translate(0,0)"/>
<path d="" fill="#958343" transform="translate(0,0)"/>
<path d="" fill="#948642" transform="translate(0,0)"/>
<path d="" fill="#8E833F" transform="translate(0,0)"/>
<path d="" fill="#917E42" transform="translate(0,0)"/>
<path d="" fill="#928140" transform="translate(0,0)"/>
<path d="" fill="#917F40" transform="translate(0,0)"/>
<path d="" fill="#8C7C3D" transform="translate(0,0)"/>
<path d="" fill="#897A3D" transform="translate(0,0)"/>
<path d="" fill="#645527" transform="translate(0,0)"/>
<path d="" fill="#837B41" transform="translate(0,0)"/>
<path d="" fill="#8D7C3C" transform="translate(0,0)"/>
<path d="" fill="#1C1606" transform="translate(0,0)"/>
<path d="" fill="#8E7C3C" transform="translate(0,0)"/>
<path d="" fill="#877C42" transform="translate(0,0)"/>
<path d="" fill="#8E7E3D" transform="translate(0,0)"/>
<path d="" fill="#8C793C" transform="translate(0,0)"/>
<path d="" fill="#796A33" transform="translate(0,0)"/>
<path d="" fill="#907F3C" transform="translate(0,0)"/>
<path d="" fill="#877E3F" transform="translate(0,0)"/>
<path d="" fill="#8B7A3D" transform="translate(0,0)"/>
<path d="" fill="#8B793B" transform="translate(0,0)"/>
<path d="" fill="#8B7E3E" transform="translate(0,0)"/>
<path d="" fill="#897D40" transform="translate(0,0)"/>
<path d="" fill="#90803D" transform="translate(0,0)"/>
<path d="" fill="#201907" transform="translate(0,0)"/>
<path d="" fill="#918041" transform="translate(0,0)"/>
<path d="" fill="#877C3F" transform="translate(0,0)"/>
<path d="" fill="#8B7E3F" transform="translate(0,0)"/>
<path d="" fill="#8A7B3D" transform="translate(0,0)"/>
<path d="" fill="#241E09" transform="translate(0,0)"/>
<path d="" fill="#483A19" transform="translate(0,0)"/>
<path d="" fill="#887D40" transform="translate(0,0)"/>
<path d="" fill="#8A7B3E" transform="translate(0,0)"/>
<path d="" fill="#615424" transform="translate(0,0)"/>
<path d="" fill="#2E240D" transform="translate(0,0)"/>
<path d="" fill="#060500" transform="translate(0,0)"/>
<path d="" fill="#8E7F41" transform="translate(0,0)"/>
<path d="" fill="#8C7F3F" transform="translate(0,0)"/>
<path d="" fill="#897E3D" transform="translate(0,0)"/>
<path d="" fill="#8B7E42" transform="translate(0,0)"/>
<path d="" fill="#8B7B3E" transform="translate(0,0)"/>
<path d="" fill="#908240" transform="translate(0,0)"/>
<path d="" fill="#8F8441" transform="translate(0,0)"/>
<path d="" fill="#867B3F" transform="translate(0,0)"/>
<path d="" fill="#897C41" transform="translate(0,0)"/>
<path d="" fill="#85763A" transform="translate(0,0)"/>
<path d="" fill="#201806" transform="translate(0,0)"/>
<path d="" fill="#877A3E" transform="translate(0,0)"/>
<path d="" fill="#958743" transform="translate(0,0)"/>
<path d="" fill="#817239" transform="translate(0,0)"/>
<path d="" fill="#857B3F" transform="translate(0,0)"/>
<path d="" fill="#837639" transform="translate(0,0)"/>
<path d="" fill="#847A3B" transform="translate(0,0)"/>
<path d="" fill="#8C7D3D" transform="translate(0,0)"/>
<path d="" fill="#867D3C" transform="translate(0,0)"/>
<path d="" fill="#827539" transform="translate(0,0)"/>
<path d="" fill="#020100" transform="translate(0,0)"/>
<path d="" fill="#887E3E" transform="translate(0,0)"/>
<path d="" fill="#85783A" transform="translate(0,0)"/>
<path d="" fill="#857A3A" transform="translate(0,0)"/>
<path d="" fill="#85783D" transform="translate(0,0)"/>
<path d="" fill="#837539" transform="translate(0,0)"/>
<path d="" fill="#827437" transform="translate(0,0)"/>
<path d="" fill="#827437" transform="translate(0,0)"/>
<path d="" fill="#988844" transform="translate(0,0)"/>
<path d="" fill="#897E3E" transform="translate(0,0)"/>
<path d="" fill="#0D0A00" transform="translate(0,0)"/>
<path d="" fill="#8A7E3E" transform="translate(0,0)"/>
<path d="" fill="#847037" transform="translate(0,0)"/>
<path d="" fill="#837237" transform="translate(0,0)"/>
<path d="" fill="#827036" transform="translate(0,0)"/>
<path d="" fill="#827137" transform="translate(0,0)"/>
<path d="" fill="#8B7D3D" transform="translate(0,0)"/>
<path d="" fill="#857439" transform="translate(0,0)"/>
<path d="" fill="#8B7C3B" transform="translate(0,0)"/>
<path d="" fill="#847539" transform="translate(0,0)"/>
<path d="" fill="#8A7A3D" transform="translate(0,0)"/>
<path d="" fill="#8A7B3D" transform="translate(0,0)"/>
<path d="" fill="#87763A" transform="translate(0,0)"/>
<path d="" fill="#827538" transform="translate(0,0)"/>
<path d="" fill="#8C7D40" transform="translate(0,0)"/>
<path d="" fill="#8D8746" transform="translate(0,0)"/>
<path d="" fill="#857438" transform="translate(0,0)"/>
<path d="" fill="#85763A" transform="translate(0,0)"/>
<path d="" fill="#867639" transform="translate(0,0)"/>
<path d="" fill="#8E8542" transform="translate(0,0)"/>
<path d="" fill="#857539" transform="translate(0,0)"/>
<path d="" fill="#90853F" transform="translate(0,0)"/>
<path d="" fill="#8F8646" transform="translate(0,0)"/>
<path d="" fill="#89793A" transform="translate(0,0)"/>
<path d="" fill="#8C7F42" transform="translate(0,0)"/>
<path d="" fill="#837539" transform="translate(0,0)"/>
<path d="" fill="#887C42" transform="translate(0,0)"/>
<path d="" fill="#8F8647" transform="translate(0,0)"/>
<path d="" fill="#87763A" transform="translate(0,0)"/>
<path d="" fill="#88773D" transform="translate(0,0)"/>
<path d="" fill="#8E8143" transform="translate(0,0)"/>
<path d="" fill="#86773B" transform="translate(0,0)"/>
<path d="" fill="#87773C" transform="translate(0,0)"/>
<path d="" fill="#8D8041" transform="translate(0,0)"/>
<path d="" fill="#8A7A3B" transform="translate(0,0)"/>
<path d="" fill="#8F7F3F" transform="translate(0,0)"/>
<path d="" fill="#030000" transform="translate(0,0)"/>
<path d="" fill="#8D813F" transform="translate(0,0)"/>
<path d="" fill="#928342" transform="translate(0,0)"/>
<path d="" fill="#918442" transform="translate(0,0)"/>
<path d="" fill="#8F8244" transform="translate(0,0)"/>
<path d="" fill="#928541" transform="translate(0,0)"/>
<path d="" fill="#908242" transform="translate(0,0)"/>
<path d="" fill="#050300" transform="translate(0,0)"/>
<path d="" fill="#988C45" transform="translate(0,0)"/>
<path d="" fill="#908540" transform="translate(0,0)"/>
<path d="" fill="#8C7E40" transform="translate(0,0)"/>
<path d="" fill="#938643" transform="translate(0,0)"/>
<path d="" fill="#958743" transform="translate(0,0)"/>
<path d="" fill="#8C7D3F" transform="translate(0,0)"/>
<path d="" fill="#8B7C3C" transform="translate(0,0)"/>
<path d="" fill="#908441" transform="translate(0,0)"/>
<path d="" fill="#8A7A3C" transform="translate(0,0)"/>
<path d="" fill="#8B7C3F" transform="translate(0,0)"/>
<path d="" fill="#897B40" transform="translate(0,0)"/>
<path d="" fill="#958743" transform="translate(0,0)"/>
<path d="" fill="#918644" transform="translate(0,0)"/>
<path d="" fill="#908241" transform="translate(0,0)"/>
<path d="" fill="#887A3C" transform="translate(0,0)"/>
<path d="" fill="#8A7B3B" transform="translate(0,0)"/>
<path d="" fill="#918847" transform="translate(0,0)"/>
<path d="" fill="#928548" transform="translate(0,0)"/>
<path d="" fill="#908142" transform="translate(0,0)"/>
<path d="" fill="#908444" transform="translate(0,0)"/>
<path d="" fill="#988544" transform="translate(0,0)"/>
<path d="" fill="#928344" transform="translate(0,0)"/>
<path d="" fill="#928444" transform="translate(0,0)"/>
<path d="" fill="#958444" transform="translate(0,0)"/>
<path d="" fill="#978645" transform="translate(0,0)"/>
<path d="" fill="#978644" transform="translate(0,0)"/>
<path d="" fill="#907E3D" transform="translate(0,0)"/>
<path d="" fill="#8C763A" transform="translate(0,0)"/>
<path d="" fill="#8F7C3D" transform="translate(0,0)"/>
<path d="" fill="#978745" transform="translate(0,0)"/>
<path d="" fill="#9A8944" transform="translate(0,0)"/>
<path d="" fill="#9A8844" transform="translate(0,0)"/>
<path d="" fill="#957F3E" transform="translate(0,0)"/>
<path d="" fill="#9F8A46" transform="translate(0,0)"/>
<path d="" fill="#A28C46" transform="translate(0,0)"/>
<path d="" fill="#A08E48" transform="translate(0,0)"/>
<path d="" fill="#9F8A46" transform="translate(0,0)"/>
<path d="" fill="#9F8C46" transform="translate(0,0)"/>
<path d="" fill="#9D8946" transform="translate(0,0)"/>
<path d="" fill="#927F3D" transform="translate(0,0)"/>
<path d="" fill="#988340" transform="translate(0,0)"/>
<path d="" fill="#937F3B" transform="translate(0,0)"/>
<path d="" fill="#A39046" transform="translate(0,0)"/>
<path d="" fill="#A9853D" transform="translate(0,0)"/>
<path d="" fill="#A88D48" transform="translate(0,0)"/>
<path d="" fill="#AB843C" transform="translate(0,0)"/>
<path d="" fill="#A6863B" transform="translate(0,0)"/>
<path d="" fill="#AD8D43" transform="translate(0,0)"/>
<path d="" fill="#AA8B42" transform="translate(0,0)"/>
<path d="" fill="#B89044" transform="translate(0,0)"/>
<path d="" fill="#AC8A40" transform="translate(0,0)"/>
<path d="" fill="#AB843A" transform="translate(0,0)"/>
<path d="" fill="#AB8339" transform="translate(0,0)"/>
<path d="" fill="#AE853C" transform="translate(0,0)"/>
<path d="" fill="#A87D35" transform="translate(0,0)"/>
<path d="" fill="#B69042" transform="translate(0,0)"/>
<path d="" fill="#B08436" transform="translate(0,0)"/>
<path d="" fill="#B18035" transform="translate(0,0)"/>
<path d="" fill="#AE8034" transform="translate(0,0)"/>
<path d="" fill="#AE883E" transform="translate(0,0)"/>
<path d="" fill="#B38B40" transform="translate(0,0)"/>
<path d="" fill="#B6893C" transform="translate(0,0)"/>
<path d="" fill="#C99944" transform="translate(0,0)"/>
<path d="" fill="#B48C3E" transform="translate(0,0)"/>
<path d="" fill="#A97A31" transform="translate(0,0)"/>
<path d="" fill="#AD833C" transform="translate(0,0)"/>
<path d="" fill="#A67930" transform="translate(0,0)"/>
<path d="" fill="#A3762E" transform="translate(0,0)"/>
<path d="" fill="#6A4919" transform="translate(0,0)"/>
<path d="" fill="#AC843D" transform="translate(0,0)"/>
<path d="" fill="#A8782E" transform="translate(0,0)"/>
<path d="" fill="#A3772D" transform="translate(0,0)"/>
<path d="" fill="#A6782E" transform="translate(0,0)"/>
<path d="" fill="#A4772E" transform="translate(0,0)"/>
<path d="" fill="#AB7F37" transform="translate(0,0)"/>
<path d="" fill="#A77831" transform="translate(0,0)"/>
<path d="" fill="#AA8232" transform="translate(0,0)"/>
<path d="" fill="#A87930" transform="translate(0,0)"/>
<path d="" fill="#A97C31" transform="translate(0,0)"/>
<path d="" fill="#AE8134" transform="translate(0,0)"/>
<path d="" fill="#A97A2D" transform="translate(0,0)"/>
<path d="" fill="#AD7F31" transform="translate(0,0)"/>
<path d="" fill="#A27833" transform="translate(0,0)"/>
<path d="" fill="#B3863C" transform="translate(0,0)"/>
<path d="" fill="#A6742B" transform="translate(0,0)"/>
<path d="" fill="#A3732C" transform="translate(0,0)"/>
<path d="" fill="#A87D31" transform="translate(0,0)"/>
<path d="" fill="#A77E33" transform="translate(0,0)"/>
<path d="" fill="#A3762E" transform="translate(0,0)"/>
<path d="" fill="#A5772E" transform="translate(0,0)"/>
<path d="" fill="#A3752A" transform="translate(0,0)"/>
<path d="" fill="#A3752B" transform="translate(0,0)"/>
<path d="" fill="#A1712B" transform="translate(0,0)"/>
<path d="" fill="#A2782F" transform="translate(0,0)"/>
<path d="" fill="#9E702A" transform="translate(0,0)"/>
<path d="" fill="#71511E" transform="translate(0,0)"/>
<path d="" fill="#A06E2B" transform="translate(0,0)"/>
<path d="" fill="#1E1303" transform="translate(0,0)"/>
<path d="" fill="#A37B34" transform="translate(0,0)"/>
<path d="" fill="#A7762C" transform="translate(0,0)"/>
<path d="" fill="#9D702C" transform="translate(0,0)"/>
<path d="" fill="#A3742C" transform="translate(0,0)"/>
<path d="" fill="#A6762D" transform="translate(0,0)"/>
<path d="" fill="#A6772F" transform="translate(0,0)"/>
<path d="" fill="#A77C35" transform="translate(0,0)"/>
<path d="" fill="#AA8136" transform="translate(0,0)"/>
<path d="" fill="#AD8337" transform="translate(0,0)"/>
<path d="" fill="#A87931" transform="translate(0,0)"/>
<path d="" fill="#A7772F" transform="translate(0,0)"/>
<path d="" fill="#AB7D35" transform="translate(0,0)"/>
<path d="" fill="#AE8036" transform="translate(0,0)"/>
<path d="" fill="#AC7F37" transform="translate(0,0)"/>
<path d="" fill="#AD7C33" transform="translate(0,0)"/>
<path d="" fill="#AA7931" transform="translate(0,0)"/>
<path d="" fill="#A97E36" transform="translate(0,0)"/>
<path d="" fill="#A87C38" transform="translate(0,0)"/>
<path d="" fill="#AC8132" transform="translate(0,0)"/>
<path d="" fill="#A67D36" transform="translate(0,0)"/>
<path d="" fill="#A77C36" transform="translate(0,0)"/>
<path d="" fill="#A97B30" transform="translate(0,0)"/>
<path d="" fill="#A87930" transform="translate(0,0)"/>
<path d="" fill="#A97D37" transform="translate(0,0)"/>
<path d="" fill="#A67D37" transform="translate(0,0)"/>
<path d="" fill="#AA7A33" transform="translate(0,0)"/>
<path d="" fill="#AA7A31" transform="translate(0,0)"/>
<path d="" fill="#A67E36" transform="translate(0,0)"/>
<path d="" fill="#AB813A" transform="translate(0,0)"/>
<path d="" fill="#9E7132" transform="translate(0,0)"/>
<path d="" fill="#A87831" transform="translate(0,0)"/>
<path d="" fill="#A87E37" transform="translate(0,0)"/>
<path d="" fill="#A27431" transform="translate(0,0)"/>
<path d="" fill="#A3772D" transform="translate(0,0)"/>
<path d="" fill="#A8782E" transform="translate(0,0)"/>
<path d="" fill="#A97B30" transform="translate(0,0)"/>
<path d="" fill="#5E441A" transform="translate(0,0)"/>
<path d="" fill="#A67F36" transform="translate(0,0)"/>
<path d="" fill="#A57932" transform="translate(0,0)"/>
<path d="" fill="#A67D36" transform="translate(0,0)"/>
<path d="" fill="#A47B35" transform="translate(0,0)"/>
<path d="" fill="#A4752D" transform="translate(0,0)"/>
<path d="" fill="#A67D36" transform="translate(0,0)"/>
<path d="" fill="#291C07" transform="translate(0,0)"/>
<path d="" fill="#A2732E" transform="translate(0,0)"/>
<path d="" fill="#A77730" transform="translate(0,0)"/>
<path d="" fill="#A47B37" transform="translate(0,0)"/>
<path d="" fill="#A37430" transform="translate(0,0)"/>
<path d="" fill="#A07A37" transform="translate(0,0)"/>
<path d="" fill="#9F712F" transform="translate(0,0)"/>
<path d="" fill="#A0712E" transform="translate(0,0)"/>
<path d="" fill="#A07532" transform="translate(0,0)"/>
<path d="" fill="#A17833" transform="translate(0,0)"/>
<path d="" fill="#A97730" transform="translate(0,0)"/>
<path d="" fill="#A97C36" transform="translate(0,0)"/>
<path d="" fill="#AC8139" transform="translate(0,0)"/>
<path d="" fill="#A3742F" transform="translate(0,0)"/>
<path d="" fill="#A37B35" transform="translate(0,0)"/>
<path d="" fill="#A2732C" transform="translate(0,0)"/>
<path d="" fill="#A67C35" transform="translate(0,0)"/>
<path d="" fill="#A4762D" transform="translate(0,0)"/>
<path d="" fill="#A1752F" transform="translate(0,0)"/>
<path d="" fill="#A1732F" transform="translate(0,0)"/>
<path d="" fill="#A5772D" transform="translate(0,0)"/>
<path d="" fill="#A8782E" transform="translate(0,0)"/>
<path d="" fill="#A77931" transform="translate(0,0)"/>
<path d="" fill="#A77830" transform="translate(0,0)"/>
<path d="" fill="#AC7B34" transform="translate(0,0)"/>
<path d="" fill="#A67C36" transform="translate(0,0)"/>
<path d="" fill="#A67E35" transform="translate(0,0)"/>
<path d="" fill="#A97C35" transform="translate(0,0)"/>
<path d="" fill="#A67C37" transform="translate(0,0)"/>
<path d="" fill="#A97B32" transform="translate(0,0)"/>
<path d="" fill="#1C1401" transform="translate(0,0)"/>
<path d="" fill="#7B5A26" transform="translate(0,0)"/>
<path d="" fill="#A77630" transform="translate(0,0)"/>
<path d="" fill="#A7782E" transform="translate(0,0)"/>
<path d="" fill="#A4772F" transform="translate(0,0)"/>
<path d="" fill="#201501" transform="translate(0,0)"/>
<path d="" fill="#AB7930" transform="translate(0,0)"/>
<path d="" fill="#A77D38" transform="translate(0,0)"/>
<path d="" fill="#A8762F" transform="translate(0,0)"/>
<path d="" fill="#A97D37" transform="translate(0,0)"/>
<path d="" fill="#AE823A" transform="translate(0,0)"/>
<path d="" fill="#B07B31" transform="translate(0,0)"/>
<path d="" fill="#AA7F38" transform="translate(0,0)"/>
<path d="" fill="#AA8038" transform="translate(0,0)"/>
<path d="" fill="#A77D39" transform="translate(0,0)"/>
<path d="" fill="#A5772E" transform="translate(0,0)"/>
<path d="" fill="#A67631" transform="translate(0,0)"/>
<path d="" fill="#AD7D31" transform="translate(0,0)"/>
<path d="" fill="#A5762F" transform="translate(0,0)"/>
<path d="" fill="#A97F38" transform="translate(0,0)"/>
<path d="" fill="#A97731" transform="translate(0,0)"/>
<path d="" fill="#A77C35" transform="translate(0,0)"/>
<path d="" fill="#A67B35" transform="translate(0,0)"/>
<path d="" fill="#A67D37" transform="translate(0,0)"/>
<path d="" fill="#A2742A" transform="translate(0,0)"/>
<path d="" fill="#A87A36" transform="translate(0,0)"/>
<path d="" fill="#9D6E2B" transform="translate(0,0)"/>
<path d="" fill="#A4752D" transform="translate(0,0)"/>
<path d="" fill="#A57934" transform="translate(0,0)"/>
<path d="" fill="#A37A34" transform="translate(0,0)"/>
<path d="" fill="#312007" transform="translate(0,0)"/>
<path d="" fill="#9F6F2A" transform="translate(0,0)"/>
<path d="" fill="#1E1403" transform="translate(0,0)"/>
<path d="" fill="#312006" transform="translate(0,0)"/>
<path d="" fill="#A17533" transform="translate(0,0)"/>
<path d="" fill="#A2712B" transform="translate(0,0)"/>
<path d="" fill="#A2722B" transform="translate(0,0)"/>
<path d="" fill="#9F7530" transform="translate(0,0)"/>
<path d="" fill="#A1712A" transform="translate(0,0)"/>
<path d="" fill="#9E6F2B" transform="translate(0,0)"/>
<path d="" fill="#9D6D2A" transform="translate(0,0)"/>
<path d="" fill="#A47328" transform="translate(0,0)"/>
<path d="" fill="#9F742F" transform="translate(0,0)"/>
<path d="" fill="#A2722C" transform="translate(0,0)"/>
<path d="" fill="#A0732E" transform="translate(0,0)"/>
<path d="" fill="#A0702B" transform="translate(0,0)"/>
<path d="" fill="#9E732E" transform="translate(0,0)"/>
<path d="" fill="#9F7028" transform="translate(0,0)"/>
<path d="" fill="#A0712A" transform="translate(0,0)"/>
<path d="" fill="#9B6F2F" transform="translate(0,0)"/>
<path d="" fill="#9B712D" transform="translate(0,0)"/>
<path d="" fill="#9E712D" transform="translate(0,0)"/>
<path d="" fill="#9F6D28" transform="translate(0,0)"/>
<path d="" fill="#A5712C" transform="translate(0,0)"/>
<path d="" fill="#9D732F" transform="translate(0,0)"/>
<path d="" fill="#A17029" transform="translate(0,0)"/>
<path d="" fill="#040200" transform="translate(0,0)"/>
<path d="" fill="#A0742F" transform="translate(0,0)"/>
<path d="" fill="#A2762F" transform="translate(0,0)"/>
<path d="" fill="#9F712B" transform="translate(0,0)"/>
<path d="" fill="#A5722A" transform="translate(0,0)"/>
<path d="" fill="#A1732B" transform="translate(0,0)"/>
<path d="" fill="#A4732E" transform="translate(0,0)"/>
<path d="" fill="#A1712B" transform="translate(0,0)"/>
<path d="" fill="#B88935" transform="translate(0,0)"/>
<path d="" fill="#AB7830" transform="translate(0,0)"/>
<path d="" fill="#A57730" transform="translate(0,0)"/>
<path d="" fill="#A1722B" transform="translate(0,0)"/>
<path d="" fill="#A4782D" transform="translate(0,0)"/>
<path d="" fill="#AB7B2F" transform="translate(0,0)"/>
<path d="" fill="#A47028" transform="translate(0,0)"/>
<path d="" fill="#A3742C" transform="translate(0,0)"/>
<path d="" fill="#A87830" transform="translate(0,0)"/>
<path d="" fill="#A6762B" transform="translate(0,0)"/>
<path d="" fill="#A3732C" transform="translate(0,0)"/>
<path d="" fill="#AB792E" transform="translate(0,0)"/>
<path d="" fill="#A1732E" transform="translate(0,0)"/>
<path d="" fill="#A07129" transform="translate(0,0)"/>
<path d="" fill="#AE7F30" transform="translate(0,0)"/>
<path d="" fill="#AD782D" transform="translate(0,0)"/>
<path d="" fill="#A97A31" transform="translate(0,0)"/>
<path d="" fill="#AC7D31" transform="translate(0,0)"/>
<path d="" fill="#AA7930" transform="translate(0,0)"/>
<path d="" fill="#AD7C32" transform="translate(0,0)"/>
<path d="" fill="#AB772E" transform="translate(0,0)"/>
<path d="" fill="#B08032" transform="translate(0,0)"/>
<path d="" fill="#A97B2E" transform="translate(0,0)"/>
<path d="" fill="#B28135" transform="translate(0,0)"/>
<path d="" fill="#AF8034" transform="translate(0,0)"/>
<path d="" fill="#BB8633" transform="translate(0,0)"/>
<path d="" fill="#AB792F" transform="translate(0,0)"/>
<path d="" fill="#A9752F" transform="translate(0,0)"/>
<path d="" fill="#AB7D31" transform="translate(0,0)"/>
<path d="" fill="#AA792E" transform="translate(0,0)"/>
<path d="" fill="#B58438" transform="translate(0,0)"/>
<path d="" fill="#B58433" transform="translate(0,0)"/>
<path d="" fill="#AD792E" transform="translate(0,0)"/>
<path d="" fill="#B17C33" transform="translate(0,0)"/>
<path d="" fill="#B37F32" transform="translate(0,0)"/>
<path d="" fill="#AB7B32" transform="translate(0,0)"/>
<path d="" fill="#B68134" transform="translate(0,0)"/>
<path d="" fill="#B38232" transform="translate(0,0)"/>
<path d="" fill="#B48233" transform="translate(0,0)"/>
<path d="" fill="#B08132" transform="translate(0,0)"/>
<path d="" fill="#B38031" transform="translate(0,0)"/>
<path d="" fill="#B28134" transform="translate(0,0)"/>
<path d="" fill="#B38135" transform="translate(0,0)"/>
<path d="" fill="#B98536" transform="translate(0,0)"/>
<path d="" fill="#B68333" transform="translate(0,0)"/>
<path d="" fill="#BB8737" transform="translate(0,0)"/>
<path d="" fill="#B78436" transform="translate(0,0)"/>
<path d="" fill="#B88537" transform="translate(0,0)"/>
<path d="" fill="#BC8936" transform="translate(0,0)"/>
<path d="" fill="#BA8837" transform="translate(0,0)"/>
<path d="" fill="#C08C3A" transform="translate(0,0)"/>
<path d="" fill="#000000" transform="translate(0,0)"/>
<path d="" fill="#AB7C31" transform="translate(0,0)"/>
</svg>
