<svg xmlns="http://www.w3.org/2000/svg" viewBox="0 0 1024 1024" preserveAspectRatio="xMidYMid meet" id="mermaid-svg">
  <path d="M0 0 C1.447 -0.003 2.893 -0.007 4.34 -0.01 C7.366 -0.016 10.393 -0.018 13.419 -0.017 C16.464 -0.017 19.51 -0.024 22.555 -0.038 C46.688 -0.145 70.893 0.005 94.66 4.713 C96.263 5.029 97.869 5.335 99.477 5.631 C150.102 15.003 195.754 38.727 232.965 74.168 C233.564 74.738 234.163 75.308 234.78 75.896 C243.123 83.899 250.768 92.118 257.654 101.409 C258.983 103.192 260.338 104.952 261.699 106.711 C287.762 140.8 303.194 181.89 308.965 224.168 C309.069 224.846 309.173 225.524 309.28 226.223 C310.4 234.431 310.165 242.775 310.152 251.043 C310.151 251.874 310.15 252.705 310.148 253.562 C310.079 277.323 307.095 299.358 299.416 322.01 C298.901 324.472 299.07 325.83 299.965 328.168 C302.004 330.141 302.004 330.141 304.59 332.23 C316.141 342.364 321.855 356.666 323.203 371.852 C323.644 388.194 317.974 402.142 307.15 414.059 C304.016 417.367 300.805 419.781 296.965 422.168 C298.408 425.178 300.064 427.968 301.84 430.793 C306.135 437.952 310.544 445.573 308.965 454.168 C306.48 463.341 301.558 470.094 293.527 475.168 C292.342 475.839 291.155 476.507 289.965 477.168 C290.447 478.23 290.929 479.292 291.426 480.387 C292.064 481.814 292.702 483.241 293.34 484.668 C293.498 485.016 293.498 485.016 294.301 486.777 C299.772 499.088 301.153 511.742 296.527 524.543 C294.638 530.376 294.638 530.376 296.082 533.875 C297.902 536.355 297.902 536.355 299.941 538.73 C306.779 546.967 309.36 557.876 309.34 568.355 C309.339 569.19 309.338 570.025 309.337 570.886 C309.204 577.873 307.794 583.759 304.965 590.168 C304.657 590.921 304.349 591.674 304.031 592.449 C303.374 594.035 302.675 595.605 301.965 597.168 C302.435 597.653 302.906 598.137 303.391 598.637 C309.733 605.465 312.532 611.151 312.27 620.559 C311.758 624.942 310.446 629.025 308.965 633.168 C309.666 633.713 310.367 634.259 311.09 634.82 C321.466 643.068 328.812 650.825 333.965 663.168 C334.306 663.984 334.648 664.8 335 665.641 C339.833 679.826 338.229 696.783 331.965 710.168 C324.327 724.951 312.697 734.174 297.156 739.555 C288.678 742.069 278.512 744.444 269.863 741.438 C266.551 739.439 264.37 736.721 262.965 733.168 C262.965 727.725 264.754 724.481 267.906 720.258 C269.403 717.304 269.395 715.451 268.965 712.168 C267.645 709.845 266.334 707.813 264.777 705.668 C256.05 692.701 252.935 679.696 254.965 664.168 C256.273 658.351 258.912 653.205 261.633 647.941 C262.965 645.168 262.965 645.168 262.965 643.168 C261.913 642.384 260.861 641.6 259.777 640.793 C254.821 636.723 252.786 631.193 250.965 625.168 C250.965 623.848 250.965 622.528 250.965 621.168 C250.099 620.92 249.232 620.673 248.34 620.418 C240.9 617.662 235.448 612.835 231.734 605.855 C228.883 599.596 227.905 595.279 228.34 588.355 C228.38 581.791 228.38 581.791 226.691 579.258 C225.489 578.238 224.271 577.235 223.043 576.246 C213.613 566.816 209.921 550.964 209.652 538.168 C209.717 533.343 210.381 529 211.402 524.293 C212.343 518.842 212.343 518.842 210.75 516 C209.537 514.713 208.279 513.467 206.984 512.262 C200.202 505.23 196.831 494.742 196.965 485.168 C196.498 485.465 196.031 485.761 195.551 486.067 C174.221 499.548 152.243 508.422 127.965 515.168 C128.729 515.727 129.494 516.287 130.281 516.863 C136.335 521.364 142.122 526.059 147.621 531.227 C148.253 531.818 148.884 532.41 149.535 533.019 C158.868 541.832 167.861 550.996 176.902 560.105 C180.513 563.743 184.126 567.376 187.742 571.008 C188.551 571.825 189.359 572.641 190.192 573.483 C194.948 578.259 199.83 582.802 204.965 587.168 C206.07 588.118 207.176 589.069 208.281 590.02 C209.363 590.944 210.445 591.869 211.527 592.793 C218.433 598.706 225.336 604.62 232.176 610.608 C233.345 611.627 234.517 612.641 235.695 613.649 C245.599 622.134 253.104 630.441 254.301 643.965 C254.418 655.855 252.96 665.218 244.371 674.16 C235.368 681.673 224.511 684.838 212.965 684.168 C211.83 684.046 210.696 683.923 209.527 683.797 C202.124 683.036 198.01 682.7 191.965 687.168 C186.533 689.271 180.761 688.746 175.465 686.605 C167.955 682.948 162.487 677.139 157.711 670.398 C153.636 664.769 148.973 659.976 143.965 655.168 C144.152 655.745 144.152 655.745 145.102 658.664 C159.356 703.633 163.293 750.646 140.94 793.771 C133.667 807.327 124.683 820.248 113.328 830.715 C111.965 832.168 111.965 832.168 111.965 834.168 C112.969 834.629 113.973 835.091 115.008 835.566 C141.817 848.218 160.13 869.449 170.328 897.305 C175.743 912.876 184.341 937.887 177.402 953.73 C172.843 961.029 166.379 962.993 158.396 964.852 C123.042 972.503 84.994 969.872 53.965 950.168 C42.827 942.508 33.903 933.755 25.98 922.84 C24.402 920.748 22.881 918.939 20.965 917.168 C20.835 917.533 20.835 917.533 20.18 919.379 C14.672 932.023 1.422 943.024 -10.035 950.168 C-11.025 950.814 -12.015 951.46 -13.035 952.125 C-43.044 970.633 -81.828 972.408 -115.535 964.793 C-123.597 962.594 -129.166 960.103 -134.035 953.168 C-140.529 933.687 -130.431 903.598 -121.871 885.805 C-121.263 884.591 -120.651 883.378 -120.035 882.168 C-119.734 881.562 -119.433 880.955 -119.122 880.331 C-114.364 870.892 -108.421 863.632 -101.035 856.168 C-100.441 855.513 -99.847 854.858 -99.234 854.184 C-91.134 845.42 -79.949 838.768 -69.035 834.168 C-68.375 834.168 -67.715 834.168 -67.035 834.168 C-68.013 833.042 -68.993 831.917 -69.973 830.793 C-70.615 830.054 -71.257 829.316 -71.918 828.555 C-73.304 826.992 -74.715 825.452 -76.152 823.938 C-82.75 816.929 -88.003 809.338 -93.035 801.168 C-93.215 800.879 -93.215 800.879 -94.125 799.416 C-98.989 791.45 -102.338 783.117 -105.348 774.293 C-105.673 773.349 -105.999 772.406 -106.334 771.434 C-111.135 756.693 -112.569 742.258 -112.41 726.855 C-112.406 726.046 -112.401 725.237 -112.396 724.403 C-112.261 704.299 -108.84 686.179 -103.714 666.756 C-102.79 663.234 -101.91 659.702 -101.035 656.168 C-111.655 666.27 -111.655 666.27 -115.723 672.418 C-120.793 680.005 -127.171 685.551 -136.035 688.168 C-143.067 689.338 -149.261 687.017 -155.035 683.168 C-157.373 683.096 -157.373 683.096 -160.121 683.332 C-161.128 683.405 -162.136 683.478 -163.174 683.552 C-164.242 683.632 -165.31 683.711 -166.41 683.793 C-179.62 684.546 -190.664 683.24 -201.035 674.168 C-208.655 666.246 -210.506 657.874 -210.387 647.119 C-209.966 634.697 -204.974 625.481 -196.066 616.965 C-192.798 614.073 -189.392 611.356 -185.992 608.621 C-182.909 606.063 -179.965 603.398 -177.035 600.668 C-173.206 597.1 -169.304 593.701 -165.223 590.418 C-161.482 587.406 -158.04 584.296 -154.707 580.844 C-152.292 578.423 -149.688 576.237 -147.094 574.012 C-144.148 571.374 -141.426 568.534 -138.699 565.672 C-137.035 564.168 -137.035 564.168 -135.035 564.168 C-135.035 563.508 -135.035 562.848 -135.035 562.168 C-133.426 560.617 -133.426 560.617 -131.285 558.855 C-128.118 556.18 -125.604 553.429 -123.035 550.168 C-122.375 550.168 -121.715 550.168 -121.035 550.168 C-120.77 549.576 -120.504 548.985 -120.23 548.375 C-117.135 542.66 -111.277 538.445 -106.406 534.258 C-104.535 532.609 -102.703 530.938 -100.883 529.234 C-100.321 528.709 -99.759 528.184 -99.18 527.643 C-98.073 526.605 -96.968 525.564 -95.867 524.519 C-92.138 521.029 -88.243 518.065 -84.035 515.168 C-84.427 515.053 -84.427 515.053 -86.412 514.469 C-101.709 509.935 -116.74 505.37 -131.035 498.168 C-131.723 497.823 -132.411 497.479 -133.12 497.124 C-140.085 493.602 -146.862 489.986 -153.035 485.168 C-153.061 485.846 -153.087 486.524 -153.113 487.223 C-153.738 497.477 -156.279 504.179 -162.848 512.105 C-165.899 516.035 -167.677 518.326 -167.098 523.355 C-166.93 524.251 -166.762 525.147 -166.59 526.07 C-163.879 541.208 -166.709 556.399 -174.312 569.719 C-176.102 572.264 -178.069 574.123 -180.348 576.23 C-185.061 581.165 -184.621 585.911 -184.683 592.359 C-184.856 600.904 -187.496 607.16 -193.188 613.605 C-197.497 617.731 -201.139 620.164 -207.035 621.168 C-207.118 622.323 -207.2 623.478 -207.285 624.668 C-208.307 632.588 -212.102 638.008 -218.035 643.168 C-218.695 643.168 -219.355 643.168 -220.035 643.168 C-219.469 644.36 -218.903 645.553 -218.32 646.781 C-217.579 648.348 -216.838 649.914 -216.098 651.48 C-215.724 652.266 -215.351 653.052 -214.967 653.861 C-214.609 654.619 -214.251 655.376 -213.883 656.156 C-213.553 656.853 -213.223 657.549 -212.883 658.267 C-208.829 667.357 -209.694 681.476 -212.66 690.793 C-215.39 697.56 -218.623 704.375 -223.41 709.918 C-225.797 713.222 -225.645 715.172 -225.035 719.168 C-223.906 721.113 -223.906 721.113 -222.535 723.105 C-219.602 727.429 -219.185 729.984 -220.035 735.168 C-223.368 739.548 -226.956 741.731 -232.402 742.504 C-248.228 742.75 -264.089 736.639 -276.035 726.355 C-286.659 716.012 -292.982 701.511 -293.328 686.684 C-293.476 668.249 -287.978 653.854 -275.258 640.305 C-272.369 637.527 -269.41 635.322 -266.035 633.168 C-266.107 632.859 -266.107 632.859 -266.473 631.297 C-268.675 621.249 -269.104 613.444 -264.035 604.168 C-262.866 602.86 -261.679 601.567 -260.473 600.293 C-258.906 598.359 -258.906 598.359 -258.035 596.168 C-259.036 591.849 -261.074 588.122 -263.035 584.168 C-267.578 571.048 -265.336 556.828 -259.516 544.541 C-257.168 539.752 -255.04 535.759 -251.035 532.168 C-251.24 531.504 -251.445 530.84 -251.656 530.156 C-251.926 529.273 -252.195 528.39 -252.473 527.48 C-252.739 526.61 -253.006 525.74 -253.281 524.844 C-257.387 510.272 -255.615 496.199 -248.285 483.043 C-247.857 482.339 -247.429 481.635 -246.988 480.91 C-246.035 479.168 -246.035 479.168 -246.035 477.168 C-247.706 475.928 -249.424 474.752 -251.16 473.605 C-257.361 469.226 -261.616 464.424 -264.035 457.168 C-265.185 445.753 -262.657 436.684 -255.723 427.543 C-255.467 427.237 -255.467 427.237 -254.172 425.691 C-253.035 424.168 -253.035 424.168 -253.035 422.168 C-254.539 420.906 -254.539 420.906 -256.598 419.48 C-267.809 411.185 -275.023 399.951 -278.035 386.168 C-279.55 370.044 -277.967 354.491 -268.035 341.168 C-263.646 335.887 -258.905 331.004 -254.035 326.168 C-254.422 324.956 -254.809 323.745 -255.207 322.496 C-257.964 313.691 -260.481 304.909 -262.285 295.855 C-262.436 295.106 -262.586 294.357 -262.741 293.585 C-263.211 291.118 -263.632 288.647 -264.035 286.168 C-264.215 285.073 -264.394 283.978 -264.579 282.849 C-266.053 272.991 -266.356 263.368 -266.285 253.418 C-266.283 253.022 -266.283 253.022 -266.275 251.017 C-266.215 239.309 -266.03 227.733 -264.035 216.168 C-263.884 215.284 -263.734 214.4 -263.579 213.49 C-256.71 174.675 -242.051 137.6 -218.035 106.168 C-217.614 105.606 -217.194 105.044 -216.76 104.465 C-209.486 94.754 -201.446 85.902 -193.035 77.168 C-192.282 76.374 -191.53 75.58 -190.754 74.762 C-186.413 70.279 -181.727 66.333 -176.855 62.438 C-175.076 61.006 -173.318 59.548 -171.59 58.055 C-131.231 23.453 -78.013 6.87 -26.035 1.168 C-25.267 1.081 -24.499 0.994 -23.708 0.904 C-15.805 0.086 -7.939 0.004 0 0 Z " fill="#191712" transform="translate(490.03515625,28.83203125)" />
  <path d="M0 0 C2.621 3.168 4.857 6.333 6.938 9.875 C14.669 22.133 24.955 32.69 36 42 C36.51 42.432 37.021 42.864 37.547 43.309 C63.755 65.228 94.361 80.814 124.633 96.223 C166.439 117.503 204.789 142.11 220.186 188.835 C230.319 220.93 219.835 265.54 204.75 294.812 C200.26 303.216 195.394 310.893 189 318 C188.497 318.562 187.993 319.125 187.475 319.704 C148.964 361.964 89.518 372.788 35 376 C24.955 376.458 14.896 376.439 4.843 376.391 C1.224 376.374 -2.395 376.384 -6.014 376.401 C-67.945 376.65 -137.145 369.167 -183.625 323.875 C-204.636 302.7 -214.478 274.706 -220 246 C-220.134 245.311 -220.268 244.622 -220.407 243.912 C-222.203 234.1 -222.271 224.088 -222.404 214.14 C-222.426 212.657 -222.455 211.173 -222.493 209.69 C-222.813 195.771 -219.647 184.182 -213.188 171.75 C-212.847 171.085 -212.506 170.42 -212.156 169.735 C-208.991 163.714 -205.272 158.296 -201 153 C-200.594 152.489 -200.188 151.977 -199.77 151.451 C-178.249 124.471 -149.038 108.812 -118.541 93.76 C-107.856 88.477 -97.388 82.843 -87 77 C-86.244 76.577 -85.489 76.153 -84.71 75.717 C-51.794 57.164 -19.45 33.064 0 0 Z " fill="#A2623B" transform="translate(512,160)" />
  <path d="M0 0 C5.7 0.183 11.317 1.351 16.812 2.812 C17.585 3.018 18.358 3.223 19.154 3.434 C74.308 18.659 74.308 18.659 96.895 33.961 C97.857 34.613 98.82 35.265 99.812 35.938 C100.665 36.545 101.517 37.152 102.395 37.777 C105.854 39.401 107.364 39.135 111 38 C113.507 36.545 115.86 35.061 118.25 33.438 C143.477 17.116 183.809 0 214 0 C219.7 16.018 223.724 33.982 224 51 C224.024 51.892 224.049 52.783 224.074 53.702 C224.41 66.83 224.351 79.247 221 92 C220.836 92.637 220.836 92.637 220.004 95.859 C213.797 118.288 201.989 136.419 186 153 C185.642 153.389 185.642 153.389 183.832 155.359 C174.349 165.394 162.794 172.885 150.73 179.441 C148 181 148 181 146 183 C145.875 186.625 145.875 186.625 146 190 C153.486 191.449 158.28 190.615 165 187 C166.512 185.913 168.012 184.808 169.5 183.688 C173.629 180.848 176.294 180.385 181.203 181.262 C196.386 185.27 207.837 192.024 219 203 C219.7 203.687 220.4 204.374 221.121 205.082 C237.796 222.602 246.434 251.303 247.312 275.062 C247 279 247 279 245.81 280.687 C243.435 282.41 241.633 282.611 238.723 282.949 C238.192 283.012 238.192 283.012 235.508 283.332 C234.371 283.449 233.234 283.566 232.062 283.688 C230.893 283.813 229.723 283.938 228.517 284.067 C197.669 287.16 165.753 283.818 140.624 263.965 C127.431 253.094 119.408 240.108 113.901 224.154 C112.181 219.181 112.181 219.181 110 217 C107.062 216.625 107.062 216.625 104 217 C101.31 219.863 100.323 222.707 99.25 226.438 C95.636 237.676 89.792 247.189 82 256 C81.493 256.601 80.987 257.201 80.465 257.82 C63.769 276.182 36.803 283.947 12.756 285.108 C10.419 285.17 8.087 285.19 5.75 285.188 C5.326 285.187 5.326 285.187 3.179 285.185 C-3.388 285.124 -9.898 284.724 -16.438 284.125 C-17.319 284.047 -18.2 283.968 -19.108 283.887 C-29.128 282.872 -29.128 282.872 -33 279 C-33.999 271.675 -32.402 264.217 -30.938 257.062 C-30.715 255.973 -30.492 254.883 -30.263 253.761 C-25.929 233.575 -18.516 216.967 -4 202 C-3.45 201.376 -2.899 200.752 -2.332 200.109 C6.744 190.16 21.787 181.942 35.305 180.695 C39.659 181.054 42.523 182.587 46.125 184.875 C52.557 188.823 57.251 191.574 65 191 C68 189 68 189 68.727 185.703 C68 182 68 182 66.433 180.576 C64.131 179.172 61.788 177.951 59.375 176.75 C57.612 175.798 55.852 174.839 54.098 173.871 C53.226 173.391 52.355 172.912 51.458 172.417 C34.341 162.545 19.476 146.576 9 130 C8.295 128.906 7.59 127.811 6.863 126.684 C-13.746 92.806 -13.702 51.848 -4.656 14.332 C-1.415 1.415 -1.415 1.415 0 0 Z " fill="#F2BC5F" transform="translate(405,695)" />
  <path d="M0 0 C2.366 2.046 4.652 4.169 6.926 6.316 C7.567 6.918 8.207 7.52 8.867 8.14 C16.556 15.405 23.995 22.921 31.438 30.438 C34.204 33.231 36.974 36.021 39.746 38.809 C40.052 39.119 40.052 39.119 41.599 40.687 C45.349 44.457 49.225 48.022 53.253 51.493 C55.478 53.412 57.644 55.393 59.812 57.375 C64.103 61.247 68.524 64.916 73.016 68.551 C76.998 71.819 80.899 75.177 84.79 78.553 C88.438 81.707 92.176 84.685 96 87.625 C103.377 93.622 108.184 101.419 109.215 110.996 C109.443 115.822 108.749 119.048 106 123 C100.571 127.83 96.289 130.346 88.82 130.297 C82.529 129.635 75.675 127.837 70 125 C63.734 124.544 63.734 124.544 61.188 126.125 C59.607 128.62 58.817 131.174 58 134 C54.648 133.933 51.994 133.826 49.34 131.621 C46.797 128.715 44.77 125.706 42.938 122.312 C40.904 118.836 39.157 117.423 36 115 C34.998 113.856 34.018 112.693 33.051 111.52 C30.095 108.083 26.937 105.091 23.531 102.102 C9.727 89.748 3.067 80.295 -0.275 61.605 C-1.506 55.482 -3.305 49.528 -5.083 43.545 C-5.67 41.56 -6.241 39.571 -6.808 37.58 C-12.242 18.758 -12.242 18.758 -15 16 C-17.938 15.75 -17.938 15.75 -21 16 C-23.296 19.445 -23.54 21.938 -24 26 C-24.5 25.743 -25 25.487 -25.516 25.223 C-28.897 23.559 -32.315 21.986 -35.75 20.438 C-36.428 20.121 -37.106 19.805 -37.805 19.479 C-51.589 13.307 -68.075 14.962 -82 20 C-88.973 22.894 -95.736 26.166 -101.652 30.879 C-105 33 -105 33 -107.691 32.484 C-109.818 31.117 -111.902 29.749 -113.938 28.25 C-129.149 17.933 -147.087 13.974 -165.191 16.434 C-173.43 18.2 -180.644 22.028 -188 26 C-188.133 25.362 -188.266 24.724 -188.402 24.066 C-188.579 23.24 -188.756 22.414 -188.938 21.562 C-189.112 20.739 -189.286 19.915 -189.465 19.066 C-190 17 -190 17 -191 16 C-193.339 16.287 -195.674 16.619 -198 17 C-203.152 30.375 -207.618 44.072 -210.984 58.004 C-211.152 58.691 -211.321 59.378 -211.494 60.086 C-212.324 63.485 -213.13 66.887 -213.896 70.302 C-217.802 86.541 -229.495 95.682 -241.115 106.923 C-255.014 120.399 -255.014 120.399 -258.907 128.086 C-260.709 131.242 -262.751 132.446 -266 134 C-267.32 134 -268.64 134 -270 134 C-270.99 131.03 -271.98 128.06 -273 125 C-278.149 123.677 -281.777 124.559 -286.625 126.375 C-302.82 132.177 -302.82 132.177 -310.77 128.836 C-315.483 126.144 -318.589 123.989 -321 119 C-322.641 111.11 -319.837 103.812 -316 97 C-307.646 85.327 -294.906 76.331 -283.852 67.348 C-266.791 53.302 -250.861 38.099 -235.423 22.299 C-234.614 21.478 -233.806 20.658 -232.973 19.812 C-232.253 19.076 -231.534 18.34 -230.793 17.582 C-229 16 -229 16 -227 16 C-227 15.34 -227 14.68 -227 14 C-225.602 12.59 -225.602 12.59 -223.625 10.938 C-220.439 8.243 -217.361 5.474 -214.312 2.625 C-208.593 -2.532 -202.443 -6.81 -196 -11 C-195.171 -11.553 -194.342 -12.106 -193.488 -12.676 C-192.75 -13.133 -192.011 -13.591 -191.25 -14.062 C-190.943 -14.254 -190.943 -14.254 -189.391 -15.223 C-181.291 -17.856 -171.228 -15.428 -162.938 -14.562 C-144.147 -12.621 -125.579 -11.765 -106.688 -11.75 C-106.129 -11.749 -106.129 -11.749 -103.305 -11.745 C-82.395 -11.743 -61.619 -12.587 -40.9 -15.583 C-40.562 -15.631 -40.562 -15.631 -38.85 -15.875 C-36.977 -16.147 -35.105 -16.432 -33.233 -16.717 C-20.98 -17.789 -9.125 -7.269 0 0 Z " fill="#A3623B" transform="translate(618,566)" />
  <path d="M0 0 C1.092 0.509 2.184 1.018 3.309 1.543 C26.062 11.769 51.88 13.199 75.32 4.387 C77.336 3.55 79.342 2.686 81.328 1.781 C83.482 0.845 85.47 0.265 87.746 -0.27 C88.889 3.681 90.028 7.632 91.164 11.583 C91.551 12.928 91.939 14.273 92.328 15.617 C92.887 17.547 93.441 19.479 93.996 21.41 C94.331 22.573 94.666 23.735 95.012 24.933 C95.746 27.73 95.746 27.73 95.746 29.73 C95.068 29.894 94.389 30.058 93.69 30.227 C76.498 34.445 59.697 39.549 42.934 45.23 C42.007 45.541 41.08 45.851 40.126 46.171 C24.655 51.37 9.253 56.873 -3.957 66.676 C-6.254 67.73 -6.254 67.73 -8.668 67.137 C-11.62 65.531 -14.503 63.845 -17.379 62.105 C-22.705 58.995 -28.118 56.325 -33.805 53.941 C-34.212 53.771 -34.212 53.771 -36.272 52.907 C-45.477 49.125 -54.884 45.99 -64.352 42.938 C-67.321 41.979 -70.285 41.002 -73.248 40.023 C-83.719 36.602 -94.129 33.642 -104.927 31.448 C-108.254 30.73 -108.254 30.73 -110.254 29.73 C-107.97 19.585 -105.488 9.622 -102.254 -0.27 C-98.045 0.374 -94.611 1.827 -90.754 3.605 C-68.357 13.372 -44.191 11.517 -21.705 2.976 C-18.741 1.808 -15.989 0.577 -13.227 -1.02 C-8.383 -3.056 -4.758 -1.857 0 0 Z " fill="#A3623B" transform="translate(519.25390625,651.26953125)" />
  <path d="M0 0 C0.438 0.004 0.438 0.004 2.652 0.023 C18.985 0.433 32.163 6.875 43.961 17.918 C47.827 21.428 47.827 21.428 50.543 21.477 C52.763 20.217 54.079 18.807 55.75 16.875 C65.726 6.547 79.919 0.456 94.143 -0.031 C108.199 -0.188 118.822 2.604 129.375 12.438 C135.232 19.851 138.636 26.966 138.812 36.5 C138.852 37.687 138.892 38.874 138.934 40.098 C138.205 44.456 136.843 45.76 133.375 48.438 C130.141 49.949 130.141 49.949 126.625 51.125 C125.475 51.521 124.325 51.916 123.141 52.324 C101.831 58.624 81.328 56.026 61.375 46.438 C59.763 45.514 58.158 44.577 56.562 43.625 C52.573 41.38 50.019 40.541 45.375 41.438 C42.916 42.778 40.587 44.269 38.23 45.781 C21.345 55.575 -0.795 58.444 -19.688 53.75 C-26.54 51.646 -33.586 49.477 -38.75 44.312 C-41.042 36.782 -40.002 29.348 -37.078 22.141 C-31.691 12.12 -22.447 4.874 -11.849 1.046 C-7.916 -0.03 -4.056 -0.049 0 0 Z " fill="#F0966A" transform="translate(462.625,593.5625)" />
  <path d="M0 0 C10.037 7.278 16.459 17.385 18.719 29.641 C20.303 42.933 18.432 57.049 10.504 68.082 C5.704 74.057 -0.347 78.542 -8 80 C-16.888 80.866 -24.314 79.67 -31.449 74.082 C-41.539 64.659 -45.935 52.356 -46.438 38.688 C-46.071 25.405 -41.989 12.432 -32.25 3.125 C-21.993 -5.155 -11.488 -6.236 0 0 Z " fill="#0A0803" transform="translate(647,362)" />
  <path d="M0 0 C9.552 5.884 16.636 14.459 19.562 25.305 C22.662 38.599 21.719 52.984 15.461 65.262 C11.136 71.843 5.344 77.197 -1.996 80.234 C-12.098 81.891 -20.399 81.584 -29.047 75.773 C-37.879 68.8 -41.993 59.997 -43.68 49.043 C-45.34 34.305 -42.603 20.06 -33.402 8.176 C-24.845 -1.209 -12.031 -5.325 0 0 Z " fill="#0A0803" transform="translate(401.99609375,360.765625)" />
  <path d="M0 0 C12.352 0 22.404 0.635 32 8.891 C41.447 18.854 44.67 29.77 44.344 43.254 C43.371 53.855 38.95 63.38 31.168 70.73 C27.663 73.457 25.349 74.223 21 74 C20.709 73.408 20.417 72.817 20.117 72.207 C16.822 65.856 13.905 61.735 7.188 58.75 C3.125 57.794 -0.843 57.378 -5 57 C-4.34 53.04 -3.68 49.08 -3 45 C1.62 45 6.24 45 11 45 C11 39 11 39 9.5 36.25 C7 34 7 34 -1 32 C-0.67 21.44 -0.34 10.88 0 0 Z " fill="#A3623B" transform="translate(752,364)" />
  <path d="M0 0 C0.631 10.679 1.173 21.298 1 32 C0.374 32.193 -0.253 32.387 -0.898 32.586 C-1.716 32.846 -2.533 33.107 -3.375 33.375 C-4.187 33.63 -4.999 33.885 -5.836 34.148 C-8 35 -8 35 -10 37 C-10.188 40.562 -10.188 40.562 -10 44 C-9 45 -9 45 -6.277 45.098 C-5.175 45.086 -4.073 45.074 -2.938 45.062 C-1.833 45.053 -0.728 45.044 0.41 45.035 C0.837 45.029 0.837 45.029 3 45 C4.305 49.159 5.12 52.65 5 57 C4.203 57.098 3.407 57.196 2.586 57.297 C-3.703 58.184 -8.008 59.059 -13 63 C-13.66 63 -14.32 63 -15 63 C-16.866 66.588 -18.425 70.278 -20 74 C-27.82 73.255 -32.491 69.084 -37.391 63.285 C-44.295 53.482 -45.242 41.48 -43.312 29.938 C-41.061 20.088 -36.268 12.26 -27.891 6.566 C-19.661 1.913 -9.398 0 0 0 Z " fill="#A4633C" transform="translate(272,364)" />
  <path d="M0 0 C2.562 1.562 2.562 1.562 4 4 C5.018 8.309 5.165 11.727 4 16 C4.701 16.082 5.403 16.165 6.125 16.25 C13.85 18.265 20.293 24.95 24.621 31.426 C27.601 36.854 29.28 41.812 28 48 C25.781 52.437 23.487 54.875 19 57 C18.34 57 17.68 57 17 57 C16.758 56.01 16.515 55.02 16.266 54 C12.669 39.671 12.669 39.671 9 34 C6.25 32.5 6.25 32.5 4 32 C3.791 37.825 4.426 42.657 6 48.25 C7.104 52.262 8 55.791 8 60 C0.949 62.212 -5.647 62.202 -13 62 C-13.1 55.865 -12.9 50.078 -12 44 C-11.835 42.42 -11.712 40.836 -11.625 39.25 C-11.576 38.513 -11.527 37.775 -11.477 37.016 C-12 35 -12 35 -14.523 33.234 C-15.341 32.827 -16.158 32.42 -17 32 C-19.017 40.969 -20.714 49.895 -22 59 C-26.477 57.584 -29.675 56.417 -33 53 C-34.352 49.73 -34.352 49.73 -35 46 C-33.727 43 -33.727 43 -31.625 40 C-30.87 38.883 -30.121 37.763 -29.375 36.641 C-28.983 36.056 -28.591 35.471 -28.188 34.869 C-25.722 30.989 -23.695 26.858 -21.616 22.762 C-19.206 18.103 -19.206 18.103 -17 17 C-16.473 14.672 -16.473 14.672 -16.062 11.75 C-15.373 7.57 -14.707 4.384 -12 1 C-8.297 -0.851 -4.042 -0.457 0 0 Z " fill="#F8BD8B" transform="translate(755,436)" />
  <path d="M0 0 C0.866 -0.017 1.733 -0.034 2.625 -0.051 C5.453 0.382 6.264 1.092 8 3.312 C10.541 7.971 10.617 13.119 11 18.312 C11.99 18.642 12.98 18.973 14 19.312 C15.179 21.059 15.179 21.059 16.305 23.32 C16.724 24.143 17.143 24.965 17.574 25.812 C18.003 26.679 18.433 27.545 18.875 28.438 C23.661 38.01 23.661 38.01 26.816 42.234 C29 45.312 29 45.312 29.062 48.438 C27.565 52.49 25.633 55.241 22 57.625 C20 58.312 20 58.312 16 58.312 C15.89 57.262 15.781 56.211 15.668 55.129 C14.823 47.495 13.829 40.514 11 33.312 C10.34 33.478 10.34 33.478 7 34.312 C6.907 34.911 6.907 34.911 6.438 37.938 C6.333 38.61 6.229 39.283 6.121 39.977 C5.971 42.871 6.515 45.457 7 48.312 C7.089 50.582 7.13 52.854 7.125 55.125 C7.126 55.695 7.126 55.695 7.133 58.582 C7 61.312 7 61.312 6 62.312 C-0.94 62.745 -7.447 62.751 -14 60.312 C-13.649 54.964 -12.875 50.673 -10.875 45.688 C-9.036 40.984 -8.704 38.172 -10 33.312 C-12.505 33.658 -13.725 34.018 -15.473 35.891 C-17.446 39.02 -18.523 42.309 -19.625 45.812 C-19.842 46.476 -20.058 47.14 -20.281 47.824 C-21.296 50.963 -22.262 54.096 -23 57.312 C-28.029 55.876 -29.957 53.37 -33 49.312 C-34.515 46.282 -34.52 43.588 -34 40.312 C-30.497 30.393 -23.719 22.486 -14.762 17.09 C-13 16.312 -13 16.312 -10 16.312 C-10.023 15.637 -10.046 14.962 -10.07 14.266 C-10.079 13.82 -10.079 13.82 -10.125 11.562 C-10.148 10.681 -10.171 9.799 -10.195 8.891 C-9.986 6.133 -9.511 4.613 -8 2.312 C-4.782 0.167 -3.732 0.017 0 0 Z " fill="#F9BD8B" transform="translate(275,435.6875)" />
  <path d="M0 0 C2.942 1.04 3.948 1.92 5.668 4.582 C10.848 15.594 12.547 25.36 9.074 37.191 C6.808 43.115 4.459 47.747 -1.312 50.688 C-6.594 49.703 -8.536 46.625 -11.789 42.516 C-14 40 -14 40 -16.734 38.41 C-17.482 37.945 -18.23 37.479 -19 37 C-20.333 28.867 -17.57 21.281 -14 14 C-10.01 8.494 -5.349 4.162 0 0 Z " fill="#302B26" transform="translate(773,573)" />
  <path d="M0 0 C3.758 1.304 5.297 3.231 8.062 6.062 C15.51 11.361 24.237 11.124 33.062 10.062 C37.967 8.784 40.817 6.429 44.188 2.75 C47.062 0.062 47.062 0.062 50.312 0 C53.062 1.062 53.062 1.062 55.062 4.062 C55.5 7.438 55.5 7.438 55.062 11.062 C52.875 13.75 52.875 13.75 50.062 16.062 C49.382 16.743 48.701 17.424 48 18.125 C38.088 24.663 26.577 25.335 15.062 24.062 C6.293 22.224 -1.95 17.685 -6.938 10.062 C-7.474 6.386 -7.387 4.737 -5.312 1.625 C-2.938 0.062 -2.938 0.062 0 0 Z " fill="#0A0803" transform="translate(487.9375,453.9375)" />
  <path d="M0 0 C2 3 2 3 1.938 6 C1 9 1 9 -1.152 10.691 C-4.582 12.268 -6.75 12.174 -10.5 11.938 C-22.879 11.691 -32.636 15.833 -42.02 23.691 C-44 25 -44 25 -47.625 24.875 C-51 24 -51 24 -53 21 C-53.153 17.704 -52.517 15.706 -50.566 13.043 C-38.915 0.374 -16.451 -6.946 0 0 Z " fill="#0B0903" transform="translate(407,297)" />
  <path d="M0 0 C4.787 3.24 8.558 6.329 10.605 11.824 C10.418 14.637 10.418 14.637 8.918 17.074 C6.418 18.637 6.418 18.637 3.105 18.762 C-0.953 17.524 -2.679 16.016 -5.703 13.195 C-14.442 5.946 -25.321 5.405 -36.094 6.055 C-39.582 5.637 -39.582 5.637 -42.535 3.289 C-44.582 0.637 -44.582 0.637 -44.645 -1.988 C-43.371 -4.836 -42.276 -5.824 -39.582 -7.363 C-26.392 -11.527 -11.456 -6.718 0 0 Z " fill="#0B0903" transform="translate(659.58203125,303.36328125)" />
  <path d="M0 0 C3.798 3.695 4.907 6.706 5 12 C3.606 15.625 2.072 18.568 -1 21 C-6.399 22.8 -11.936 22.701 -17.312 20.875 C-21.09 18.24 -23.916 15.168 -26 11 C-26.506 7.892 -26.521 5.84 -24.836 3.121 C-18.01 -5.262 -9.12 -5.939 0 0 Z " fill="#F2BF63" transform="translate(263,640)" />
  <path d="M0 0 C2.653 2.819 3.925 4.479 4.375 8.375 C3.925 12.87 2.88 15.662 0 19.125 C-5.036 23.133 -9.09 23.713 -15.477 23.441 C-18.742 23.032 -20.585 22.389 -23 20.125 C-26.109 15.773 -26.388 12.353 -25.562 7.238 C-24.525 3.339 -22.771 1.172 -19.309 -0.875 C-12.891 -3.779 -6.015 -3.759 0 0 Z " fill="#F2BF63" transform="translate(783,638.875)" />
  <path d="M0 0 C6.357 -0.662 10.056 0.998 15 5 C16.859 6.918 18.4 8.85 20 11 C17.192 13.964 14.817 16.445 11 18 C6.837 15.445 3.534 13.224 1 9 C0.4 6.005 0.133 3.049 0 0 Z " fill="#312D28" transform="translate(734,617)" />
  <path d="M0 0 C2.938 0.625 2.938 0.625 5.312 2.688 C7.365 6.398 7.61 8.441 6.938 12.625 C4.626 15.73 3.195 17.349 -0.625 18.188 C-3.801 17.455 -5.015 16.111 -7.062 13.625 C-8.507 10.736 -8.439 8.829 -8.062 5.625 C-5.581 2.268 -4.119 0.841 0 0 Z " fill="#F8F8F7" transform="translate(406.0625,376.375)" />
  <path d="M0 0 C3.37 1.246 4.371 1.805 5.875 5.062 C6.554 9.148 6.537 12.044 4.25 15.562 C1.154 17.518 -0.524 17.663 -4.125 17.062 C-6.5 15.562 -6.5 15.562 -8.125 13.062 C-8.844 8.03 -8.911 6.196 -6 2 C-3.125 0.062 -3.125 0.062 0 0 Z " fill="#FBFAFA" transform="translate(650.125,376.9375)" />
</svg>