<svg xmlns="http://www.w3.org/2000/svg" viewBox="0 0 1024 1024" preserveAspectRatio="xMidYMid meet" id="mermaid-svg">
  <path d="M0 0 C2.775 0.331 5.552 0.618 8.332 0.902 C23.702 2.552 38.61 5.631 53.613 9.312 C54.564 9.543 55.515 9.773 56.495 10.011 C83.227 16.59 108.212 26.734 132.613 39.312 C133.023 39.523 133.023 39.523 135.096 40.589 C154.924 50.929 173.919 64.094 190.359 79.242 C192.366 81.085 194.412 82.86 196.488 84.625 C205.77 92.743 214.033 101.594 221.613 111.312 C222.402 112.296 223.191 113.279 224.004 114.292 C255.744 154.214 271.641 201.353 284.585 249.961 C292.897 281.103 305.369 308.541 320.901 336.642 C332.167 357.117 340.687 378.203 344.613 401.312 C344.799 402.354 344.985 403.395 345.176 404.468 C346.906 419.672 346.491 435.489 342.613 450.312 C342.346 451.399 342.08 452.485 341.805 453.605 C337.79 468.256 330.418 480.836 320.613 492.312 C320.041 492.986 319.469 493.66 318.879 494.355 C308.307 505.79 294.604 512.548 279.488 515.125 C272.292 516.379 267.947 517.683 262.848 523.16 C250.196 535.347 229.362 539.504 212.551 539.5 C211.522 539.504 210.494 539.508 209.434 539.512 C203.903 539.489 198.829 539.156 193.426 538 C187.564 536.907 184.167 538.337 178.879 540.863 C161.204 548.707 139.72 548.779 121.613 542.312 C118.744 541.073 115.932 539.724 113.113 538.375 C105.186 534.655 105.186 534.655 101.051 536 C99.553 536.733 98.075 537.509 96.613 538.312 C94.418 539.28 92.208 540.213 89.988 541.125 C89.369 541.38 88.75 541.635 88.112 541.898 C75.574 546.884 61.896 550.196 48.527 551.988 C46.613 552.312 46.613 552.312 45.613 553.312 C46.196 553.75 46.779 554.189 47.379 554.64 C70.1 572.217 85.708 596.325 101.02 620.277 C103.989 624.918 107.056 629.493 110.126 634.069 C112.514 637.636 114.838 641.234 117.113 644.875 C123.629 655.122 129.918 664.771 139.613 672.312 C139.809 671.786 139.809 671.786 140.801 669.125 C142.155 665.512 143.536 661.911 144.926 658.312 C145.354 657.197 145.782 656.082 146.223 654.933 C146.933 653.083 147.644 651.234 148.361 649.387 C151.578 641.101 154.426 632.943 156.559 624.3 C158.007 620.197 160.073 617.309 163.738 614.937 C179.219 611.572 198.937 622.263 211.613 630.312 C215.512 633.044 219.07 636.138 222.613 639.312 C223.842 640.291 225.072 641.27 226.301 642.25 C244.72 658.3 254.467 683.956 256.363 707.875 C256.461 709.686 256.55 711.499 256.613 713.312 C257.427 712.732 258.24 712.152 259.078 711.554 C265.534 707.098 271.878 703.474 279.301 700.875 C279.632 700.757 279.632 700.757 281.31 700.165 C290.916 696.991 300.408 695.968 310.488 696.062 C311.543 696.069 312.598 696.076 313.685 696.083 C321.155 696.182 328.311 696.649 335.613 698.312 C336.679 698.534 337.745 698.755 338.844 698.984 C347.436 701.006 355.539 704.077 363.738 707.312 C364.83 707.739 365.921 708.167 367.046 708.607 C368.081 709.025 369.117 709.444 370.184 709.875 C371.109 710.247 372.035 710.62 372.989 711.003 C376.526 712.767 379.809 714.704 381.613 718.312 C382.445 725.71 380.944 731.335 377.863 738 C377.664 738.445 377.664 738.445 376.656 740.698 C369.716 755.959 362.605 771.512 351.613 784.312 C350.898 785.164 350.182 786.016 349.445 786.894 C331.344 807.751 308.206 820.659 280.613 823.312 C263.254 824.499 247.543 821.179 231.613 814.312 C231.453 814.908 231.293 815.505 231.128 816.119 C229.249 822.777 226.741 828.9 223.738 835.125 C223.5 835.62 223.5 835.62 222.293 838.126 C213.126 856.756 201.761 873.803 187.676 889.062 C185.863 891.04 184.143 893.064 182.426 895.125 C164.551 915.5 141.092 931.037 116.613 942.312 C115.883 942.65 115.152 942.987 114.399 943.335 C74.872 961.362 31.329 966.17 -11.387 959.312 C-11.747 959.259 -11.747 959.259 -13.57 958.988 C-63.458 951.585 -111.598 922.594 -141.887 882.25 C-173.357 838.945 -186.569 786.231 -178.824 733.125 C-176.27 717.135 -172.008 701.638 -164.387 687.312 C-165.022 687.788 -165.656 688.264 -166.31 688.755 C-172.915 693.662 -179.84 697.083 -187.387 700.312 C-186.083 704.072 -184.542 706.544 -181.824 709.437 C-177.553 714.001 -177.087 717.513 -177.176 723.613 C-177.637 729.513 -179.007 733.836 -183.074 738.187 C-191.013 743.28 -198.025 744.266 -207.387 743.312 C-209.777 742.292 -209.777 742.292 -211.387 741.312 C-211.469 742.034 -211.552 742.756 -211.637 743.5 C-213.49 750.449 -219.489 753.88 -225.387 757.312 C-230.583 759.044 -236.461 759.443 -241.641 757.441 C-246.457 754.566 -250.865 750.681 -254.387 746.312 C-254.387 745.652 -254.387 744.992 -254.387 744.312 C-255.047 744.312 -255.707 744.312 -256.387 744.312 C-256.639 744.888 -256.892 745.464 -257.152 746.058 C-260.289 751.785 -266.146 757.392 -272.387 759.312 C-278.653 760.184 -283.855 760.17 -289.324 756.75 C-293.255 753.734 -295.889 750.582 -298.387 746.312 C-298.387 745.322 -298.387 744.332 -298.387 743.312 C-298.918 743.589 -299.449 743.866 -299.996 744.152 C-300.702 744.514 -301.409 744.876 -302.137 745.25 C-302.833 745.609 -303.529 745.969 -304.246 746.339 C-310.83 749.331 -319.165 749.649 -326.027 747.476 C-332.411 744.241 -337.113 739.133 -339.387 732.312 C-340.099 725.081 -339.686 719.295 -335.387 713.312 C-333.396 711.04 -331.347 708.831 -329.293 706.617 C-325.455 701.977 -323.387 697.322 -323.387 691.312 C-325.293 689.707 -325.293 689.707 -327.887 688.125 C-340.161 679.947 -345.918 669.015 -348.887 654.761 C-352.25 631.557 -345.664 607.626 -332.445 588.503 C-330.516 586.006 -328.505 583.65 -326.387 581.312 C-325.649 580.482 -324.912 579.652 -324.152 578.796 C-309.81 563.516 -288.276 552.759 -267.16 552.011 C-265.361 551.992 -263.561 551.988 -261.762 552 C-261.283 552.002 -261.283 552.002 -258.859 552.017 C-234.031 552.436 -213.834 561.75 -196.387 579.312 C-192.442 583.458 -188.566 587.544 -185.387 592.312 C-181.162 590.678 -178.406 587.532 -175.328 584.343 C-174.124 583.119 -172.921 581.895 -171.717 580.671 C-169.845 578.757 -167.976 576.84 -166.111 574.919 C-158.02 566.609 -149.808 559.091 -140.387 552.312 C-140.793 552.227 -140.793 552.227 -142.852 551.796 C-159.142 548.351 -174.926 544.506 -190.641 538.914 C-199.779 535.746 -199.779 535.746 -203.816 537.167 C-204.22 537.387 -204.22 537.387 -206.262 538.5 C-225.29 547.656 -246.491 547.735 -266.387 541.312 C-268.049 540.556 -269.699 539.771 -271.324 538.937 C-274.601 537.311 -276.336 537.264 -279.855 538.183 C-300.996 542.907 -321.633 538.952 -340.164 528.378 C-343.007 526.555 -345.159 524.767 -347.512 522.375 C-351.597 518.457 -355.495 518.684 -360.961 518.527 C-377.313 517.501 -392.783 507.363 -403.789 495.785 C-424.28 471.931 -430.198 442.032 -428.387 411.312 C-426.186 383.253 -413.437 357.09 -400.855 332.402 C-386.418 304.05 -376.66 274.558 -368.886 243.766 C-365.595 230.755 -361.699 218.018 -357.387 205.312 C-357.089 204.408 -356.791 203.504 -356.483 202.572 C-342.977 161.733 -320.198 124.272 -290.387 93.312 C-289.885 92.788 -289.383 92.265 -288.866 91.725 C-282.104 84.702 -275.058 78.349 -267.387 72.312 C-266.577 71.647 -265.768 70.982 -264.934 70.296 C-193.923 12.114 -90.328 -10.979 0 0 Z " fill="#80D0B6" transform="translate(544.38671875,20.68798828125)" />
  <path d="M0 0 C2.775 0.331 5.552 0.618 8.332 0.902 C23.702 2.552 38.61 5.631 53.613 9.312 C54.564 9.543 55.515 9.773 56.495 10.011 C83.227 16.59 108.212 26.734 132.613 39.312 C133.023 39.523 133.023 39.523 135.096 40.589 C154.924 50.929 173.919 64.094 190.359 79.242 C192.366 81.085 194.412 82.86 196.488 84.625 C205.77 92.743 214.033 101.594 221.613 111.312 C222.402 112.296 223.191 113.279 224.004 114.292 C255.744 154.214 271.641 201.353 284.585 249.961 C292.897 281.103 305.369 308.541 320.901 336.642 C332.167 357.117 340.687 378.203 344.613 401.312 C344.799 402.354 344.985 403.395 345.176 404.468 C346.906 419.672 346.491 435.489 342.613 450.312 C342.346 451.399 342.08 452.485 341.805 453.605 C337.79 468.256 330.418 480.836 320.613 492.312 C320.041 492.986 319.469 493.66 318.879 494.355 C308.307 505.79 294.604 512.548 279.488 515.125 C272.292 516.379 267.947 517.683 262.848 523.16 C250.196 535.347 229.362 539.504 212.551 539.5 C211.522 539.504 210.494 539.508 209.434 539.512 C203.903 539.489 198.829 539.156 193.426 538 C187.564 536.907 184.167 538.337 178.879 540.863 C161.204 548.707 139.72 548.779 121.613 542.312 C118.744 541.073 115.932 539.724 113.113 538.375 C105.186 534.655 105.186 534.655 101.051 536 C99.553 536.733 98.075 537.509 96.613 538.312 C94.418 539.28 92.208 540.213 89.988 541.125 C89.369 541.38 88.75 541.635 88.112 541.898 C75.574 546.884 61.896 550.196 48.527 551.988 C46.613 552.312 46.613 552.312 45.613 553.312 C46.196 553.75 46.779 554.189 47.379 554.64 C70.1 572.217 85.708 596.325 101.02 620.277 C103.989 624.918 107.056 629.493 110.126 634.069 C112.514 637.636 114.838 641.234 117.113 644.875 C123.629 655.122 129.918 664.771 139.613 672.312 C139.809 671.786 139.809 671.786 140.801 669.125 C142.155 665.512 143.536 661.911 144.926 658.312 C145.354 657.197 145.782 656.082 146.223 654.933 C146.933 653.083 147.644 651.234 148.361 649.387 C151.578 641.101 154.426 632.943 156.559 624.3 C158.007 620.197 160.073 617.309 163.738 614.937 C179.219 611.572 198.937 622.263 211.613 630.312 C215.512 633.044 219.07 636.138 222.613 639.312 C223.842 640.291 225.072 641.27 226.301 642.25 C244.72 658.3 254.467 683.956 256.363 707.875 C256.461 709.686 256.55 711.499 256.613 713.312 C257.427 712.732 258.24 712.152 259.078 711.554 C265.534 707.098 271.878 703.474 279.301 700.875 C279.632 700.757 279.632 700.757 281.31 700.165 C290.916 696.991 300.408 695.968 310.488 696.062 C311.543 696.069 312.598 696.076 313.685 696.083 C321.155 696.182 328.311 696.649 335.613 698.312 C336.679 698.534 337.745 698.755 338.844 698.984 C347.436 701.006 355.539 704.077 363.738 707.312 C364.83 707.739 365.921 708.167 367.046 708.607 C368.081 709.025 369.117 709.444 370.184 709.875 C371.109 710.247 372.035 710.62 372.989 711.003 C376.526 712.767 379.809 714.704 381.613 718.312 C382.445 725.71 380.944 731.335 377.863 738 C377.664 738.445 377.664 738.445 376.656 740.698 C369.716 755.959 362.605 771.512 351.613 784.312 C350.898 785.164 350.182 786.016 349.445 786.894 C331.344 807.751 308.206 820.659 280.613 823.312 C263.254 824.499 247.543 821.179 231.613 814.312 C231.453 814.908 231.293 815.505 231.128 816.119 C229.249 822.777 226.741 828.9 223.738 835.125 C223.5 835.62 223.5 835.62 222.293 838.126 C213.126 856.756 201.761 873.803 187.676 889.062 C185.863 891.04 184.143 893.064 182.426 895.125 C164.551 915.5 141.092 931.037 116.613 942.312 C115.883 942.65 115.152 942.987 114.399 943.335 C74.872 961.362 31.329 966.17 -11.387 959.312 C-11.747 959.259 -11.747 959.259 -13.57 958.988 C-63.458 951.585 -111.598 922.594 -141.887 882.25 C-173.357 838.945 -186.569 786.231 -178.824 733.125 C-176.27 717.135 -172.008 701.638 -164.387 687.312 C-165.022 687.788 -165.656 688.264 -166.31 688.755 C-172.915 693.662 -179.84 697.083 -187.387 700.312 C-186.083 704.072 -184.542 706.544 -181.824 709.437 C-177.553 714.001 -177.087 717.513 -177.176 723.613 C-177.637 729.513 -179.007 733.836 -183.074 738.187 C-191.013 743.28 -198.025 744.266 -207.387 743.312 C-209.777 742.292 -209.777 742.292 -211.387 741.312 C-211.469 742.034 -211.552 742.756 -211.637 743.5 C-213.49 750.449 -219.489 753.88 -225.387 757.312 C-230.583 759.044 -236.461 759.443 -241.641 757.441 C-246.457 754.566 -250.865 750.681 -254.387 746.312 C-254.387 745.652 -254.387 744.992 -254.387 744.312 C-255.047 744.312 -255.707 744.312 -256.387 744.312 C-256.639 744.888 -256.892 745.464 -257.152 746.058 C-260.289 751.785 -266.146 757.392 -272.387 759.312 C-278.653 760.184 -283.855 760.17 -289.324 756.75 C-293.255 753.734 -295.889 750.582 -298.387 746.312 C-298.387 745.322 -298.387 744.332 -298.387 743.312 C-298.918 743.589 -299.449 743.866 -299.996 744.152 C-300.702 744.514 -301.409 744.876 -302.137 745.25 C-302.833 745.609 -303.529 745.969 -304.246 746.339 C-310.83 749.331 -319.165 749.649 -326.027 747.476 C-332.411 744.241 -337.113 739.133 -339.387 732.312 C-340.099 725.081 -339.686 719.295 -335.387 713.312 C-333.396 711.04 -331.347 708.831 -329.293 706.617 C-325.455 701.977 -323.387 697.322 -323.387 691.312 C-325.293 689.707 -325.293 689.707 -327.887 688.125 C-340.161 679.947 -345.918 669.015 -348.887 654.761 C-352.25 631.557 -345.664 607.626 -332.445 588.503 C-330.516 586.006 -328.505 583.65 -326.387 581.312 C-325.649 580.482 -324.912 579.652 -324.152 578.796 C-309.81 563.516 -288.276 552.759 -267.16 552.011 C-265.361 551.992 -263.561 551.988 -261.762 552 C-261.283 552.002 -261.283 552.002 -258.859 552.017 C-234.031 552.436 -213.834 561.75 -196.387 579.312 C-192.442 583.458 -188.566 587.544 -185.387 592.312 C-181.162 590.678 -178.406 587.532 -175.328 584.343 C-174.124 583.119 -172.921 581.895 -171.717 580.671 C-169.845 578.757 -167.976 576.84 -166.111 574.919 C-158.02 566.609 -149.808 559.091 -140.387 552.312 C-140.793 552.227 -140.793 552.227 -142.852 551.796 C-159.142 548.351 -174.926 544.506 -190.641 538.914 C-199.779 535.746 -199.779 535.746 -203.816 537.167 C-204.22 537.387 -204.22 537.387 -206.262 538.5 C-225.29 547.656 -246.491 547.735 -266.387 541.312 C-268.049 540.556 -269.699 539.771 -271.324 538.937 C-274.601 537.311 -276.336 537.264 -279.855 538.183 C-300.996 542.907 -321.633 538.952 -340.164 528.378 C-343.007 526.555 -345.159 524.767 -347.512 522.375 C-351.597 518.457 -355.495 518.684 -360.961 518.527 C-377.313 517.501 -392.783 507.363 -403.789 495.785 C-424.28 471.931 -430.198 442.032 -428.387 411.312 C-426.186 383.253 -413.437 357.09 -400.855 332.402 C-386.418 304.05 -376.66 274.558 -368.886 243.766 C-365.595 230.755 -361.699 218.018 -357.387 205.312 C-357.089 204.408 -356.791 203.504 -356.483 202.572 C-342.977 161.733 -320.198 124.272 -290.387 93.312 C-289.885 92.788 -289.383 92.265 -288.866 91.725 C-282.104 84.702 -275.058 78.349 -267.387 72.312 C-266.577 71.647 -265.768 70.982 -264.934 70.296 C-193.923 12.114 -90.328 -10.979 0 0 Z M-263.387 91.312 C-263.731 91.601 -263.731 91.601 -265.473 93.062 C-276.138 102.062 -285.893 112.255 -294.387 123.312 C-294.837 123.886 -295.288 124.46 -295.752 125.052 C-328.891 167.316 -345.839 218.027 -359.387 269.312 C-365.607 292.854 -374.112 314.065 -384.781 335.906 C-401.776 370.699 -401.776 370.699 -407.387 388.312 C-407.608 388.968 -407.83 389.624 -408.058 390.3 C-416.098 414.894 -413.699 445.798 -402.574 468.875 C-396.124 481.339 -386.634 492.804 -373.387 498.312 C-371.396 498.697 -369.396 499.041 -367.387 499.312 C-367.857 498.308 -368.328 497.304 -368.812 496.269 C-372.724 487.745 -375.77 479.609 -377.387 470.312 C-377.614 469.013 -377.84 467.713 -378.074 466.375 C-379.585 451.726 -379.841 431.994 -371.387 419.312 C-367.762 419.125 -367.762 419.125 -364.387 419.312 C-362.727 422.632 -363.331 426.339 -363.395 429.984 C-363.412 431.782 -363.429 433.58 -363.445 435.378 C-363.476 438.202 -363.511 441.025 -363.558 443.849 C-363.923 466.995 -359.686 487.689 -343.449 505.339 C-335.746 512.707 -327.48 517.911 -317.387 521.312 C-316.299 521.682 -315.211 522.052 -314.09 522.433 C-309.764 523.46 -305.869 523.535 -301.449 523.437 C-301.06 523.433 -301.06 523.433 -299.088 523.41 C-297.187 523.386 -295.287 523.35 -293.387 523.312 C-293.846 522.611 -294.305 521.91 -294.777 521.187 C-301.171 511.302 -306.685 502.661 -306.637 490.562 C-306.639 489.905 -306.639 489.905 -306.652 486.578 C-306.387 483.312 -306.387 483.312 -304.387 481.312 C-301.449 480.875 -301.449 480.875 -298.387 481.312 C-295.783 484.837 -294.685 488.361 -293.574 492.562 C-289.578 505.904 -280.23 515.6 -268.422 522.742 C-252.701 530.875 -237.242 532.333 -220.387 527.312 C-220.387 526.322 -220.387 525.332 -220.387 524.312 C-222.626 522.638 -224.83 521.156 -227.199 519.687 C-246.468 507.263 -266.586 488.265 -273.512 465.636 C-275.387 462.312 -275.387 462.312 -278.977 461.148 C-280.423 460.968 -281.873 460.816 -283.324 460.687 C-299.134 458.566 -311.809 451.472 -322.25 439.269 C-334.421 422.426 -337.906 402.635 -335.094 382.181 C-332.592 369.417 -324.676 358.945 -314.387 351.312 C-306.995 347.268 -299.665 346.04 -291.387 345.312 C-291.359 343.875 -291.34 342.437 -291.324 341 C-291.313 340.199 -291.301 339.398 -291.289 338.574 C-291.368 335.923 -291.59 333.399 -291.879 330.769 C-292.653 322.581 -292.573 314.371 -292.572 306.154 C-292.574 303.346 -292.592 300.538 -292.611 297.73 C-292.683 274.678 -292.467 241.934 -278.387 222.312 C-275.887 221.312 -275.887 221.312 -273.387 221.312 C-271.719 222.525 -271.719 222.525 -270.387 224.312 C-270.244 226.461 -270.244 226.461 -270.578 228.91 C-270.697 229.799 -270.816 230.689 -270.938 231.605 C-271.614 235.683 -272.442 239.712 -273.324 243.75 C-276.702 260.293 -277.562 276.266 -277.574 293.125 C-277.575 293.976 -277.576 294.827 -277.578 295.705 C-277.577 298.164 -277.568 300.622 -277.555 303.082 C-277.553 303.822 -277.552 304.561 -277.551 305.324 C-277.514 309.42 -277.178 313.293 -276.387 317.312 C-266.765 314.98 -260.537 302.238 -255.612 294.36 C-247.316 280.495 -241.552 265.358 -236.475 250.077 C-235.764 247.944 -235.041 245.815 -234.316 243.687 C-231.725 235.979 -229.608 228.359 -228.009 220.372 C-224.886 205.015 -219.29 190.18 -211.699 176.5 C-211.319 175.811 -210.938 175.123 -210.546 174.413 C-208.72 171.228 -207.488 169.38 -204.387 167.312 C-201.199 167.187 -201.199 167.187 -198.387 167.312 C-196.94 174.102 -197.796 177.199 -201.387 183 C-205.064 189.435 -207.923 195.84 -210.262 202.875 C-210.535 203.675 -210.808 204.476 -211.09 205.301 C-215.246 218.218 -216.912 231.024 -216.833 244.539 C-216.824 246.746 -216.853 248.951 -216.885 251.158 C-216.951 264.488 -214.647 277.22 -209.137 289.437 C-206.921 294.361 -206.084 297.897 -206.387 303.312 C-208.367 303.642 -210.347 303.972 -212.387 304.312 C-218.882 294.029 -224.898 284.054 -228.387 272.312 C-230.691 275.192 -232.312 278.03 -233.84 281.382 C-234.295 282.362 -234.75 283.342 -235.219 284.351 C-236.152 286.383 -237.082 288.417 -238.008 290.453 C-242.457 300 -248.214 308.293 -255.012 316.312 C-255.261 316.612 -255.261 316.612 -256.522 318.127 C-259.669 321.766 -262.815 324.414 -266.869 326.984 C-271.043 329.677 -273.975 331.756 -275.309 336.792 C-275.587 341.347 -274.963 345.801 -274.387 350.312 C-274.19 352.276 -273.997 354.241 -273.809 356.207 C-272.546 368.637 -270.724 380.984 -268.866 393.336 C-267.613 401.952 -266.813 410.551 -266.122 419.224 C-263.596 450.581 -253.871 477.287 -229.387 498.312 C-199.117 522.909 -162.537 532.211 -124.699 537.625 C-123.797 537.754 -122.894 537.883 -121.964 538.016 C-112.381 539.374 -102.907 540.586 -93.223 540.895 C-89.926 541.38 -88.017 542.278 -85.387 544.312 C-84.449 547.812 -84.449 547.812 -84.387 551.312 C-86.387 554.312 -86.387 554.312 -88.242 554.859 C-93.579 555.324 -98.549 555.149 -103.887 554.625 C-117.933 553.612 -127.958 562.009 -138.223 570.718 C-139.799 572.134 -141.364 573.563 -142.91 575.011 C-144.883 576.844 -146.881 578.612 -148.918 580.371 C-154.04 584.847 -159.032 589.449 -163.927 594.172 C-164.991 595.189 -166.066 596.196 -167.15 597.191 C-176.184 605.498 -176.184 605.498 -176.673 609.876 C-176.169 612.235 -175.451 614.154 -174.387 616.312 C-174.106 617.152 -173.825 617.993 -173.535 618.859 C-173.28 619.586 -173.025 620.313 -172.762 621.062 C-168.981 634.937 -170.181 650.388 -176.387 663.312 C-180.443 670.325 -185.412 675.917 -191.699 681 C-192.586 681.763 -193.473 682.526 -194.387 683.312 C-194.387 683.972 -194.387 684.632 -194.387 685.312 C-181.995 682.306 -173.493 676.045 -164.387 667.312 C-163.662 666.651 -162.938 665.989 -162.191 665.308 C-153.95 657.552 -149.837 649.133 -147.387 638.187 C-144.25 625.316 -140.109 613.509 -134.262 601.625 C-134.099 601.295 -134.099 601.295 -133.278 599.625 C-131.344 595.829 -129.33 592.408 -126.387 589.312 C-123.137 589 -123.137 589 -120.387 589.312 C-120.274 595.423 -120.491 601.264 -121.387 607.312 C-116.426 606.707 -111.888 605.644 -107.074 604.25 C-88.209 599.234 -72.179 602.96 -55.387 612.312 C-54.362 613.066 -53.337 613.82 -52.281 614.597 C-49.387 616.312 -49.387 616.312 -46.816 616.265 C-44.048 615.179 -41.929 613.794 -39.512 612.062 C-27.04 603.826 -11.093 600.2 3.711 602.661 C8.41 603.651 13.008 604.955 17.613 606.312 C18.679 606.62 19.745 606.928 20.844 607.246 C23.108 607.913 25.364 608.598 27.613 609.312 C27.452 608.584 27.291 607.855 27.125 607.105 C26.657 604.549 26.448 602.217 26.426 599.625 C26.412 598.858 26.397 598.091 26.383 597.3 C26.613 595.312 26.613 595.312 28.613 593.312 C32.238 593.187 32.238 593.187 35.613 593.312 C35.885 594.154 36.157 594.996 36.438 595.863 C37.438 598.798 38.529 601.675 39.667 604.559 C43.103 613.35 45.545 622.233 47.858 631.371 C49.242 636.76 50.688 642.133 52.15 647.501 C52.663 649.391 53.167 651.282 53.671 653.174 C59.922 676.097 77.391 713.7 98.625 726.066 C102.395 727.638 104.697 727.31 108.613 726.312 C109.914 723.711 110.178 721.172 110.613 718.312 C111.603 718.456 112.593 718.601 113.613 718.75 C133.199 721.54 133.199 721.54 139.613 717.312 C142.186 715.078 143.4 713.453 144.031 710.082 C144.418 703.342 142.849 698.537 138.613 693.312 C135.224 689.818 131.628 686.557 127.988 683.328 C119.732 675.998 112.777 667.962 106.734 658.738 C106.205 657.94 105.675 657.142 105.129 656.319 C103.431 653.758 101.741 651.191 100.051 648.625 C98.879 646.855 97.706 645.085 96.533 643.316 C93.712 639.059 90.896 634.799 88.082 630.536 C52.628 576.845 52.628 576.845 31.613 561.312 C30.784 560.667 29.956 560.023 29.102 559.359 C20.829 554.066 12.13 554.878 2.601 555.269 C1.502 555.31 0.402 555.351 -0.73 555.394 C-1.722 555.448 -2.714 555.502 -3.736 555.557 C-6.894 555.265 -8.176 554.56 -10.387 552.312 C-10.949 548.875 -10.949 548.875 -10.387 545.312 C-6.614 541.41 -3.664 540.746 1.66 540.406 C2 540.381 2 540.381 3.72 540.255 C5.176 540.149 6.634 540.05 8.091 539.958 C11.95 539.71 15.803 539.392 19.656 539.078 C20.426 539.016 21.197 538.954 21.99 538.89 C65.346 535.313 112.148 521.008 141.613 487.312 C160.688 464.411 164.51 436.926 167.414 408.152 C168.371 398.926 169.695 389.799 171.256 380.657 C172.161 375.334 172.913 370.049 173.391 364.67 C173.535 363.143 173.708 361.618 173.914 360.099 C175.568 347.912 175.568 347.912 172.412 343.714 C169.135 340.717 165.34 338.581 161.482 336.419 C158.635 334.732 156.151 332.677 153.613 330.562 C152.738 329.836 151.863 329.111 150.961 328.363 C148.898 326.561 146.959 324.713 145.051 322.75 C144.246 321.945 143.442 321.141 142.613 320.312 C141.953 320.312 141.293 320.312 140.613 320.312 C140.477 320.019 140.477 320.019 139.789 318.539 C138.634 316.351 137.351 314.609 135.801 312.687 C131.074 306.435 128.078 300.137 126.045 292.564 C123.718 284.192 123.718 284.192 119.957 281.195 C116.988 279.687 116.988 279.687 114.137 278.585 C110.541 276.771 109.319 274.173 107.926 270.5 C106.963 263.758 107.605 260.328 110.613 254.312 C109.419 250.677 107.238 248.997 104.238 246.75 C85.245 231.983 67.811 213.885 63.613 189.312 C62.588 177.732 64.949 167.427 72.484 158.394 C75.71 155.24 79.388 152.832 83.102 150.289 C86.144 147.894 87.68 145.478 89.523 142.132 C92.595 137.002 97.361 134.601 102.859 132.917 C106.262 132.169 109.65 131.815 113.113 131.437 C118.859 130.763 122.968 129.632 127.781 126.433 C133.855 122.716 142.823 123.457 149.488 124.96 C154.617 126.705 158.927 129.094 163.488 132 C168.955 135.338 173.136 135.909 179.453 136.097 C190.949 136.879 202.378 144.168 210.121 152.429 C213.626 156.852 216.057 161.672 217.863 167 C219.735 170.543 220.605 171.116 223.926 173.062 C230.584 177.107 233.264 183.425 235.75 190.585 C238.407 202.054 237.585 214.642 232.613 225.312 C232.401 225.772 232.401 225.772 231.328 228.097 C225.662 239.318 216.381 251.997 204.613 257.312 C204.937 258.168 205.26 259.024 205.594 259.906 C207.535 266.392 207.568 273.447 205.426 279.875 C201.679 284.913 198.664 286.295 192.613 288.312 C192.283 307.452 191.953 326.592 191.613 346.312 C196.893 346.642 202.173 346.972 207.613 347.312 C218.376 350.06 225.904 355.699 231.988 365.062 C232.91 366.788 233.785 368.539 234.613 370.312 C235.026 371.185 235.438 372.057 235.863 372.957 C242.283 389.607 239.972 410.448 233.258 426.566 C226.424 441.204 215.828 452.439 200.613 458.312 C194.929 459.956 189.286 461.446 183.34 461.148 C179.946 460.986 177.761 460.996 174.613 462.312 C171.557 466.61 169.661 471.226 167.617 476.066 C158.59 496.262 141.765 512.693 122.613 523.312 C123.613 526.312 123.613 526.312 125.852 527.48 C139.53 532.016 154.981 532.182 168.613 527.312 C169.605 526.96 170.596 526.608 171.617 526.246 C187.347 520.159 202.029 509.912 209.016 494.148 C209.88 492.047 210.722 489.937 211.535 487.816 C212.613 485.312 212.613 485.312 214.613 483.312 C217.613 483.062 217.613 483.062 220.613 483.312 C222.613 485.312 222.613 485.312 222.988 489.125 C222.687 500.15 218.181 508.771 211.613 517.312 C210.268 519.304 208.932 521.302 207.613 523.312 C226.846 524.463 243.505 518.979 258.426 506.562 C271.661 493.94 282.984 474.47 283.759 455.814 C283.772 454.479 283.779 453.143 283.781 451.808 C283.785 451.089 283.788 450.37 283.791 449.629 C283.796 448.108 283.799 446.588 283.799 445.068 C283.801 442.781 283.819 440.495 283.838 438.208 C283.866 430.563 283.579 423.307 282.069 415.776 C281.405 412.183 281.343 408.955 281.613 405.312 C283.613 403.312 283.613 403.312 285.926 402.687 C289.052 403.414 289.406 403.88 291.176 406.437 C301.537 424.773 301.731 452.925 296.392 472.867 C294.178 480.317 291.128 487.395 287.613 494.312 C297.167 493.33 305.675 485.606 311.613 478.312 C318.488 469.036 323.318 459.385 326.613 448.312 C326.807 447.687 327 447.063 327.2 446.419 C329.282 438.64 329.053 430.556 329.051 422.562 C329.051 422.173 329.051 422.173 329.054 420.205 C329.028 407.317 327.748 395.592 323.613 383.312 C323.405 382.649 323.196 381.987 322.981 381.304 C316.975 362.386 306.955 344.712 297.613 327.28 C286.449 306.429 277.801 286.194 271.613 263.312 C254.443 199.904 254.443 199.904 241.613 174.312 C241.383 173.847 241.383 173.847 240.219 171.494 C234.113 159.224 227.704 147.388 219.613 136.312 C219.117 135.629 218.621 134.947 218.11 134.244 C210.861 124.346 203.16 115.106 194.613 106.312 C194.033 105.706 193.453 105.1 192.855 104.476 C184.851 96.131 176.64 88.492 167.346 81.605 C165.64 80.332 163.959 79.029 162.281 77.718 C112.595 39.448 43.582 16.201 -19.152 16.144 C-20.462 16.141 -21.772 16.137 -23.122 16.134 C-25.888 16.128 -28.655 16.126 -31.422 16.127 C-34.21 16.127 -36.999 16.12 -39.787 16.106 C-120.141 15.716 -201.984 37.347 -263.387 91.312 Z " fill="#22170E" transform="translate(544.38671875,20.68798828125)" />
  <path d="M0 0 C1.854 2.781 2.836 5.084 4 8.188 C6.207 13.547 8.852 18.446 11.875 23.375 C12.273 24.04 12.672 24.706 13.082 25.391 C15.968 29.982 19.314 34.143 24 37 C27.812 37.062 27.812 37.062 31 36 C31.66 35.01 32.32 34.02 33 33 C35.379 32.493 35.379 32.493 38.34 32.321 C39.423 32.257 40.507 32.192 41.623 32.126 C46.937 31.928 52.241 31.858 57.559 31.867 C58.73 31.866 59.902 31.864 61.109 31.863 C64.885 31.86 68.661 31.867 72.438 31.875 C73.08 31.876 73.08 31.876 76.332 31.882 C85.222 31.9 94.111 31.942 103 32 C104.064 32.006 105.127 32.012 106.223 32.019 C111.638 32.053 117.052 32.109 122.467 32.21 C124.018 32.236 125.57 32.257 127.121 32.27 C129.234 32.291 131.345 32.337 133.457 32.391 C134.612 32.412 135.767 32.433 136.956 32.454 C140.62 33.111 142.241 34.575 145 37 C147.688 37.375 147.688 37.375 150 37 C150.66 36.34 151.32 35.68 152 35 C151.671 27.352 148.937 20.56 146.352 13.426 C146.037 12.527 145.723 11.629 145.398 10.703 C145.106 9.895 144.814 9.087 144.513 8.255 C143.949 5.775 144.181 4.38 145 2 C145.329 2.678 145.657 3.356 145.996 4.055 C149.758 11.415 154.172 17.163 160 23 C160.429 23.435 160.429 23.435 162.602 25.637 C170.699 33.443 179.475 39.557 191 40 C191.66 38.02 192.32 36.04 193 34 C194.65 34.33 196.3 34.66 198 35 C198.155 35.485 198.155 35.485 198.938 37.938 C200 41 200 41 201 42 C202.333 42.179 203.674 42.3 205.016 42.395 C217.768 43.408 228.821 45.046 240.211 51.25 C243.203 52.505 245.801 52.267 249 52 C249.412 48.397 249.154 47.216 247 44.188 C246.34 43.466 245.68 42.744 245 42 C251.831 41.523 258.637 42.434 265 45 C268.848 48.421 271.375 52.124 273 57 C274.317 57.698 275.653 58.361 277 59 C278.638 60.509 278.638 60.509 280.246 62.238 C283.898 65.997 287.84 69.098 292.062 72.188 C292.403 72.441 292.403 72.441 294.127 73.725 C294.462 73.973 294.462 73.973 296.16 75.23 C296.807 75.71 297.454 76.19 298.12 76.684 C300 78 300 78 303.457 79.938 C306 82 306 82 306.727 85.02 C306.71 85.645 306.71 85.645 306.625 88.812 C306.616 89.17 306.616 89.17 306.568 90.979 C305.819 108.422 302.69 125.972 300.002 143.201 C299.196 148.436 298.593 153.668 298.062 158.938 C294.599 191.788 283.529 218.8 257.219 240.27 C226.652 262.592 189.287 272.79 152.02 275.773 C151.252 275.836 150.484 275.898 149.693 275.962 C145.883 276.266 142.074 276.545 138.26 276.786 C136.855 276.888 135.451 276.991 134.047 277.094 C133.427 277.133 133.427 277.133 130.292 277.334 C126.477 278.106 124.692 279.216 122 282 C121.438 285.562 121.438 285.562 122 289 C124.211 291.248 125.493 291.953 128.65 292.245 C129.642 292.191 130.634 292.138 131.656 292.082 C132.755 292.04 133.855 291.999 134.987 291.956 C136.146 291.909 137.306 291.861 138.5 291.812 C148.398 291.643 155.949 291.652 164 298 C164.539 298.413 165.079 298.827 165.635 299.252 C186.913 315.743 201.094 337.917 215.755 360.115 C220.038 366.598 224.327 373.077 228.625 379.549 C229.78 381.291 230.933 383.033 232.084 384.777 C238.058 393.827 244.007 402.698 251 411 C251.694 411.874 252.388 412.749 253.102 413.65 C254.846 415.809 256.574 417.527 258.688 419.312 C259.377 419.908 260.067 420.504 260.777 421.117 C262.3 422.407 263.834 423.682 265.379 424.945 C271.126 429.774 275.181 433.928 276.406 441.516 C276.664 445.823 276.501 449.012 273.812 452.5 C269.507 456.328 266.384 457.337 260.602 457.203 C254.705 456.743 248.85 455.853 243 455 C242.897 456.114 242.794 457.227 242.688 458.375 C242.574 458.973 242.574 458.973 242 462 C239 464 239 464 235.688 463.875 C222.536 460.754 215.187 446.248 208.549 435.53 C203.586 427.422 198.681 419.274 194 411 C193.628 410.352 193.256 409.704 192.872 409.037 C189.584 402.949 187.896 396.39 186.062 389.75 C185.713 388.51 185.364 387.27 185.004 385.993 C182.994 378.796 181.121 371.578 179.375 364.312 C176.936 354.189 173.999 343.985 169.32 334.648 C168 332 168 332 168 330 C164.625 329.875 164.625 329.875 161 330 C159 332 159 332 158.77 333.988 C158.784 334.755 158.798 335.522 158.812 336.312 C158.819 337.072 158.825 337.831 158.832 338.613 C159.01 341.143 159.453 343.526 160 346 C159.464 345.83 158.928 345.66 158.375 345.484 C155.592 344.624 152.798 343.809 150 343 C148.779 342.64 147.559 342.281 146.301 341.91 C127.947 336.739 111.513 338.585 94.523 347.535 C92.436 348.747 90.505 350.012 88.562 351.438 C86 353 86 353 83.723 352.836 C80.332 351.795 77.831 350.145 74.875 348.188 C61.248 339.439 45.438 336.401 29.508 339.859 C26.83 340.515 24.201 341.26 21.551 342.027 C17.996 343.001 14.65 343.555 11 344 C11.072 342.868 11.144 341.736 11.219 340.57 C11.313 339.089 11.406 337.607 11.5 336.125 C11.548 335.379 11.595 334.632 11.645 333.863 C12 328.227 12 328.227 12 326 C9.375 325.5 9.375 325.5 6 326 C1.144 330.815 -1.796 337.127 -4.5 343.312 C-4.883 344.178 -5.266 345.043 -5.661 345.934 C-10.316 356.7 -13.767 367.81 -16.526 379.2 C-20.3 394.515 -31.703 406.514 -44.75 415.125 C-56.498 422 -56.498 422 -62 422 C-60.858 418.575 -60.408 418.437 -57.5 416.625 C-47.588 409.382 -41.016 396.965 -39 385 C-37.61 372.792 -38.905 361.904 -43.004 350.371 C-44.001 346.996 -44.148 346.144 -43 343 C-41.108 340.827 -39.212 338.816 -37.164 336.801 C-36.57 336.206 -35.976 335.612 -35.364 334.999 C-34.102 333.739 -32.835 332.483 -31.566 331.23 C-29.658 329.345 -27.764 327.448 -25.871 325.549 C-18.889 318.583 -11.786 312.069 -4 306 C-2.787 305.025 -1.575 304.05 -0.363 303.074 C12.224 293.227 20.267 290.178 36.328 291.768 C40.45 292.125 43.297 291.887 47 290 C48.343 283.652 48.343 283.652 46.75 280.625 C43.025 277.166 37.906 277.543 33.082 277.109 C22.573 276.108 12.133 274.775 1.688 273.25 C0.797 273.12 -0.094 272.99 -1.012 272.856 C-39.719 267.137 -75.057 255.169 -104 228 C-104.602 227.474 -105.204 226.948 -105.824 226.406 C-125.03 208.857 -131.857 182.046 -133.801 157.098 C-134.149 152.666 -134.553 148.239 -134.957 143.812 C-135.038 142.915 -135.119 142.017 -135.203 141.092 C-136.282 129.497 -137.966 117.989 -139.649 106.469 C-140.595 99.987 -141.438 93.527 -142 87 C-142.077 86.265 -142.155 85.53 -142.235 84.773 C-143.489 71.995 -143.489 71.995 -140.016 67.34 C-137.44 65.315 -134.833 63.641 -132 62 C-114.556 49.06 -105.847 28.091 -97 9 C-94.731 11.269 -94.343 12.661 -93.375 15.688 C-91.622 20.688 -89.433 25.279 -86.938 29.938 C-86.597 30.576 -86.257 31.214 -85.906 31.872 C-84.966 33.597 -83.985 35.3 -83 37 C-82.771 37.405 -82.771 37.405 -81.609 39.457 C-80 41 -80 41 -77.301 41.172 C-76.315 41.033 -75.329 40.893 -74.312 40.75 C-73.319 40.621 -72.325 40.492 -71.301 40.359 C-70.542 40.241 -69.782 40.122 -69 40 C-71.688 42.252 -73.646 43.882 -77 45 C-77.043 47 -77.041 49 -77 51 C-76 52 -76 52 -73.414 52.242 C-69.361 51.955 -66.077 50.67 -62.375 49.125 C-52.014 45.041 -42.143 43.844 -31.031 43.344 C-26.216 42.798 -26.216 42.798 -24 41 C-23.25 37.875 -23.25 37.875 -23 35 C-20.73 34.664 -18.459 34.331 -16.188 34 C-14.923 33.814 -13.658 33.629 -12.355 33.438 C-9 33 -9 33 -6 33 C-5.67 34.32 -5.34 35.64 -5 37 C-2.125 37.188 -2.125 37.188 1 37 C4.179 32.232 2.332 27.119 1.48 21.684 C0.366 14.379 -0.271 7.39 0 0 Z " fill="#FCCF9E" transform="translate(412,284)" />
  <path d="M0 0 C16.684 4.276 31.195 12.287 43 25 C43.665 25.672 44.33 26.343 45.016 27.035 C55.353 37.847 60.932 49.79 65 64 C65.178 64.612 65.356 65.224 65.54 65.854 C68.356 78.987 67.006 94.29 62.191 106.73 C60.638 110.993 59.226 115.114 61 119.438 C63 121 63 121 66.312 121.688 C71.53 120.715 73.009 118.171 76 114 C88.479 97.44 104.034 85.358 124.949 81.473 C144.802 78.817 162.436 82.497 181.062 89.062 C182.034 89.403 183.005 89.743 184.006 90.094 C184.902 90.425 185.799 90.756 186.723 91.098 C187.525 91.392 188.326 91.686 189.153 91.989 C191 93 191 93 192 96 C191.079 98.657 191.079 98.657 189.605 101.855 C189.067 103.028 188.528 104.2 187.974 105.408 C187.38 106.669 186.784 107.928 186.188 109.188 C186.039 109.504 186.039 109.504 185.287 111.107 C172.834 137.582 156.603 160.979 128.199 171.969 C107.861 178.525 86.289 178.158 66.844 169.016 C65 168 65 168 61.938 165.75 C57.806 163.289 55.759 163.232 51 164 C46.658 169.133 44.732 175.471 42.375 181.688 C31.663 209.042 16.399 234.623 -5 255 C-5.804 255.804 -6.609 256.609 -7.438 257.438 C-8.283 258.283 -9.129 259.129 -10 260 C-10.277 260.29 -10.277 260.29 -11.682 261.756 C-16.47 266.69 -21.498 270.909 -27.062 274.938 C-27.894 275.542 -28.725 276.147 -29.582 276.77 C-63.397 301.085 -103.308 314.417 -144.977 314.316 C-147.667 314.313 -150.355 314.336 -153.045 314.361 C-202.605 314.543 -249.379 293.879 -285 260 C-285.633 259.42 -286.266 258.84 -286.918 258.242 C-305.063 241.089 -318.624 217.328 -327 194 C-327.442 192.77 -327.884 191.54 -328.34 190.273 C-338.363 160.976 -340.45 127.226 -334 97 C-333.93 96.645 -333.93 96.645 -333.578 94.849 C-330.207 77.668 -323.619 62.179 -315 47 C-305.359 48.636 -296.178 51.551 -286.875 54.5 C-286.454 54.633 -286.454 54.633 -284.326 55.306 C-237.961 70.039 -237.961 70.039 -227 81 C-220.561 81.725 -217.128 79.755 -211.875 76.5 C-189.112 63.251 -152.72 49.73 -126 51 C-112.83 77.14 -107.279 103.345 -106.71 132.622 C-106.276 154.723 -105.25 176.055 -89.16 192.93 C-77.497 204.044 -63.027 205.594 -47.691 205.309 C-24.579 204.376 -6.419 192.629 10 177 C10.265 176.749 10.265 176.749 11.604 175.478 C28.156 159.683 28.156 159.683 29.688 151.188 C29 148 29 148 27.188 145.938 C25.347 144.819 23.483 143.733 21.57 142.742 C14.367 139.008 8.751 134.721 3 129 C2.374 128.408 1.747 127.817 1.102 127.207 C-6.979 118.925 -13.488 105.452 -15 94 C-14.944 91.809 -14.687 89.749 -14.34 87.586 C-13.429 80.653 -12.726 72.905 -15.562 66.438 C-20.608 54.372 -13.664 35.838 -9.01 24.236 C-8.301 22.51 -7.587 20.785 -6.869 19.063 C-4.643 13.717 -2.799 8.451 -1.473 2.801 C-1 1 -1 1 0 0 Z " fill="#6ACCC4" transform="translate(717,652)" />
  <path d="M0 0 C9.641 1.636 18.822 4.551 28.125 7.5 C28.546 7.633 28.546 7.633 30.674 8.306 C77.039 23.039 77.039 23.039 88 34 C94.439 34.725 97.872 32.755 103.125 29.5 C125.888 16.251 162.28 2.73 189 4 C203.402 32.584 207.791 60.953 208.562 92.75 C208.606 94.43 208.649 96.109 208.693 97.789 C208.799 101.859 208.901 105.93 209 110 C208.01 110.33 207.02 110.66 206 111 C206 111.66 206 112.32 206 113 C204.707 114.305 204.707 114.305 202.812 115.875 C188.712 127.897 174.91 140.782 163 155 C161.654 156.558 160.307 158.116 158.96 159.673 C156.29 162.768 153.643 165.882 151 169 C150.438 169.662 149.877 170.324 149.298 171.006 C140.317 181.634 131.978 192.602 124 204 C123.519 204.684 123.039 205.369 122.543 206.074 C96.019 243.943 96.019 243.943 93 253 C73.972 247.564 55.749 235.988 41 223 C40.569 222.624 40.569 222.624 38.387 220.719 C35.894 218.51 33.439 216.267 31 214 C30.335 213.389 29.67 212.778 28.984 212.148 C10.507 194.498 -3.413 170.916 -12 147 C-12.442 145.77 -12.884 144.54 -13.34 143.273 C-23.363 113.976 -25.45 80.226 -19 50 C-18.861 49.29 -18.722 48.58 -18.578 47.849 C-15.207 30.668 -8.619 15.179 0 0 Z " fill="#FCBD5D" transform="translate(402,699)" />
  <path d="M0 0 C1.152 0.474 2.305 0.949 3.492 1.438 C17.455 7.793 27.523 17.258 36 30 C36.282 30.411 36.282 30.411 37.707 32.488 C45.638 44.757 49.986 59.351 47.504 73.91 C44.994 83.993 40.745 92.073 32 98 C29.334 99.316 26.872 100.138 24 101 C23.415 101.186 22.83 101.371 22.227 101.562 C19.031 102.19 15.879 102.08 12.625 102.125 C4.947 102.4 -0.402 104.616 -7.012 108.406 C-15.45 112.907 -25.708 111.874 -34.593 109.209 C-36.037 108.748 -37.477 108.272 -38.911 107.779 C-46.183 105.344 -51.664 105.484 -59 108 C-70.427 109.028 -80.134 108.192 -89.312 100.75 C-96.394 94.055 -99.924 86.535 -100.336 76.812 C-100.676 55.291 -95.916 35.955 -81.391 19.453 C-72.717 10.553 -63.272 4.924 -52 0 C-50.998 -0.458 -49.997 -0.915 -48.965 -1.387 C-34.346 -6.994 -14.353 -6.043 0 0 Z " fill="#D2C3DF" transform="translate(311,593)" />
  <path d="M0 0 C2.274 1.716 3.988 3.543 5.902 5.641 C9.361 8.887 12.017 9.094 16.557 9.04 C18.077 8.982 19.597 8.92 21.117 8.854 C26.846 8.635 30.693 9.177 35.34 12.766 C35.95 13.201 36.559 13.637 37.188 14.086 C43.398 18.912 46.677 24.756 49.277 32.078 C50.969 36.556 50.969 36.556 54.215 38.391 C55.246 38.844 56.277 39.298 57.34 39.766 C63.669 46.545 65.928 52.914 65.976 62.188 C65.514 75.164 57.268 86.696 48.048 95.304 C44.094 98.687 39.81 101.714 35.471 104.583 C30.484 108.027 30.484 108.027 29.727 111.906 C30.347 114.797 30.883 115.999 32.84 118.141 C35.957 122.066 35.77 124.866 35.34 129.766 C17.125 136.661 -12.837 131.497 -30.66 124.766 C-31.65 124.106 -32.64 123.446 -33.66 122.766 C-34.16 119.516 -34.16 119.516 -33.66 115.766 C-32.815 114.776 -31.969 113.786 -31.098 112.766 C-28.66 109.766 -28.66 109.766 -28.223 106.453 C-30.831 99.762 -36.825 96.028 -42.312 91.648 C-57.805 79.227 -74.03 64.224 -77.66 43.766 C-78.247 36.366 -77.082 29.971 -72.535 23.953 C-69.897 21.946 -68.144 21.168 -65.098 20.078 C-62.14 18.891 -60.954 18.334 -59.473 15.469 C-59.184 14.597 -58.895 13.726 -58.598 12.828 C-57.035 8.128 -55.474 5.871 -51.074 3.531 C-45.275 1.692 -39.071 2.196 -33.223 3.578 C-30.66 3.766 -30.66 3.766 -28.035 1.516 C-27.251 0.608 -26.468 -0.299 -25.66 -1.234 C-17.617 -8.059 -8.18 -5.193 0 0 Z " fill="#FCD2A2" transform="translate(700.66015625,164.234375)" />
  <path d="M0 0 C1.041 0.919 2.073 1.848 3.094 2.789 C6 5 6 5 8.988 5.574 C12.89 4.83 15.034 3.214 18.188 0.812 C30.749 -8.409 43.019 -12.423 58.617 -10.57 C70.227 -8.615 81.455 -4.361 90 4 C91.285 6.926 91.285 6.926 92.062 10.312 C92.21 10.936 92.358 11.559 92.511 12.2 C93.036 14.461 93.518 16.729 94 19 C94.108 19.492 94.108 19.492 94.654 21.979 C95.815 27.275 96.952 32.576 98.047 37.887 C98.139 38.331 98.139 38.331 98.604 40.581 C99 43 99 43 99 47 C98.051 47.2 97.102 47.401 96.124 47.607 C31.516 61.317 31.516 61.317 12.625 74.312 C7.83 77.192 7.83 77.192 4.488 76.418 C1.938 75 1.938 75 -0.668 73.176 C-14.77 63.969 -31.2 58.873 -47.062 53.625 C-49.156 52.922 -51.249 52.217 -53.342 51.512 C-62.191 48.54 -71.044 45.635 -80 43 C-79.455 34.336 -77.887 26.175 -75.812 17.75 C-75.533 16.523 -75.254 15.296 -74.967 14.031 C-72.877 5.505 -70.539 0.156 -63.281 -4.891 C-41.336 -15.617 -19.892 -13.762 0 0 Z " fill="#FCB5A3" transform="translate(487,644)" />
  <path d="M0 0 C5.734 4.258 9.079 9.436 12.312 15.688 C12.638 16.31 12.964 16.933 13.3 17.574 C18.365 28.032 19.494 39.023 19.375 50.5 C19.387 51.62 19.398 52.74 19.41 53.895 C19.355 69.706 15.21 83.276 4.262 94.934 C-6.657 104.91 -19.161 109.173 -33.625 109.25 C-34.572 109.271 -35.52 109.291 -36.496 109.312 C-49.922 109.386 -63.502 104.025 -73.387 94.777 C-85.496 81.436 -90.395 67.565 -90.375 49.812 C-90.377 48.711 -90.379 47.61 -90.381 46.476 C-90.288 38.975 -89.434 32.721 -86.777 25.672 C-85.882 22.595 -85.954 21.014 -87 18 C-88.445 16.227 -88.445 16.227 -90.125 14.625 C-92.752 11.746 -92.994 11.34 -93.062 7.188 C-92 4 -92 4 -89 2 C-86.562 2.062 -86.562 2.062 -84 3 C-81.688 5.562 -81.688 5.562 -80 8 C-76.249 7.427 -74.502 5.856 -71.812 3.25 C-51.308 -15.512 -22.299 -15.497 0 0 Z " fill="#25190F" transform="translate(409,363)" />
  <path d="M0 0 C0.459 0.206 0.459 0.206 2.781 1.25 C10.34 4.987 16.021 10.148 22 16 C25.74 14.318 27.561 12.31 30 9 C33.075 9.332 34.618 9.631 36.875 11.812 C38 14 38 14 37.789 15.879 C36.807 18.518 35.411 20.066 33.5 22.125 C30.081 25.839 30.081 25.839 29 28 C29.389 29.725 29.861 31.433 30.375 33.125 C35.515 51.315 34.563 73.115 25.43 89.883 C17.307 103.25 5.992 111.652 -9.188 115.5 C-24.574 119.023 -38.563 116.346 -52 108 C-65.162 98.001 -73.226 85.55 -75.719 69.062 C-77.545 49.177 -74.702 29.752 -62.227 13.539 C-47.066 -3.749 -21.009 -9.887 0 0 Z " fill="#23170D" transform="translate(640,356)" />
  <path d="M0 0 C2.086 3.713 3.174 7.691 4.375 11.75 C8.278 24.407 13.948 35.202 26 42 C25.385 45.182 24.324 47.264 22.438 49.887 C21.896 50.648 21.355 51.409 20.797 52.193 C20.204 53.016 19.611 53.839 19 54.688 C17.725 56.482 16.452 58.278 15.18 60.074 C14.503 61.03 13.826 61.986 13.128 62.97 C9.403 68.274 5.764 73.637 2.125 79 C1.437 80.013 0.748 81.026 0.039 82.069 C-6.651 91.929 -13.325 101.799 -19.688 111.875 C-20.187 112.665 -20.686 113.456 -21.2 114.27 C-25.172 120.6 -29.01 127.005 -32.812 133.438 C-33.37 134.366 -33.927 135.295 -34.501 136.252 C-36.8 140.109 -39.034 143.897 -40.812 148.023 C-42.288 151.258 -43.42 153.555 -46 156 C-51.409 157.717 -56.437 157.516 -62 157 C-62.787 156.928 -63.573 156.855 -64.384 156.781 C-81.815 154.968 -98.674 150.259 -115 144 C-114.445 138.996 -112.116 135.345 -109.562 131.125 C-109.113 130.373 -108.663 129.621 -108.2 128.847 C-103.707 121.398 -98.936 114.161 -94 107 C-93.729 106.606 -93.729 106.606 -92.357 104.611 C-85.177 94.191 -77.901 83.891 -70 74 C-69.491 73.361 -68.982 72.722 -68.457 72.063 C-61.87 63.816 -55.134 55.782 -48 48 C-46.829 46.67 -45.662 45.337 -44.5 44 C-44.215 43.675 -44.215 43.675 -42.773 42.027 C-41.567 40.648 -40.364 39.265 -39.164 37.879 C-34.123 32.152 -28.822 26.716 -23.438 21.312 C-22.729 20.6 -22.021 19.887 -21.292 19.153 C-17.241 15.113 -13.095 11.249 -8.746 7.532 C-7 6 -7 6 -5.396 4.302 C-4 3 -4 3 -2 3 C-2 2.34 -2 1.68 -2 1 C-1.34 0.67 -0.68 0.34 0 0 Z " fill="#98CF9E" transform="translate(610,809)" />
  <path d="M0 0 C9.641 1.636 18.822 4.551 28.125 7.5 C28.546 7.633 28.546 7.633 30.674 8.306 C77.039 23.039 77.039 23.039 88 34 C90.328 34.368 92.662 34.702 95 35 C94.305 35.54 93.61 36.08 92.895 36.637 C89.701 39.244 86.697 41.998 83.688 44.812 C79.427 48.776 75.126 52.669 70.715 56.465 C68.938 58.055 67.282 59.724 65.625 61.438 C63 64 63 64 61 64 C60.835 64.495 60.835 64.495 60 67 C59.34 67 58.68 67 58 67 C58 67.66 58 68.32 58 69 C56.533 70.448 56.533 70.448 54.504 72.129 C50.104 75.872 46.009 79.843 41.938 83.938 C41.269 84.602 40.601 85.267 39.912 85.951 C35.96 89.911 32.197 93.981 28.543 98.216 C26.658 100.395 24.705 102.508 22.75 104.625 C10.452 118.28 -0.367 133.37 -10 149 C-12.58 146.42 -13.315 143.652 -14.375 140.25 C-14.591 139.556 -14.807 138.862 -15.03 138.148 C-16.838 132.067 -18.114 125.925 -19.25 119.688 C-19.413 118.794 -19.576 117.9 -19.744 116.979 C-23.549 94.991 -23.66 71.84 -19 50 C-18.861 49.29 -18.722 48.58 -18.578 47.849 C-15.207 30.668 -8.619 15.179 0 0 Z " fill="#FB998A" transform="translate(402,699)" />
  <path d="M0 0 C0.501 0.41 1.001 0.819 1.517 1.241 C9.637 7.784 17.595 11.845 28.195 11.363 C32.53 10.802 37.384 10.006 40.262 6.434 C43.018 4.161 45.748 4.508 49.25 4.375 C54.25 4.164 59.065 3.78 64 3 C64.2 3.513 64.401 4.025 64.607 4.554 C72.809 25.319 83.45 41.091 102 54 C95.187 68.8 77.309 81.606 62.375 87.438 C48.52 91.887 35.523 92.716 22 87 C14.54 83.127 8.656 76.515 5.625 68.688 C2.025 56.764 1.637 44.969 1.438 32.625 C1.379 29.43 1.314 26.234 1.246 23.039 C1.238 22.655 1.238 22.655 1.198 20.714 C1.035 13.789 0.583 6.904 0 0 Z " fill="#FDFBF9" transform="translate(624,752)" />
  <path d="M0 0 C2.438 0.5 2.438 0.5 4.25 1.5 C7.564 7.081 4.811 15.679 3.592 21.705 C-0.9 45.128 0.019 70.36 5.438 93.5 C5.726 94.736 6.015 95.972 6.312 97.246 C9.369 108.396 14.743 120.098 22.309 128.922 C23.647 130.793 24.157 132.219 24.438 134.5 C22.812 136.75 22.812 136.75 20.438 138.5 C17.622 138.824 15.982 138.799 13.48 137.426 C3.732 128.95 -3.496 115.701 -7.562 103.5 C-7.189 111.982 -6.809 120.18 -4.914 128.48 C-4.412 131.362 -4.727 133.716 -5.562 136.5 C-7.562 138.5 -7.562 138.5 -10.438 138.625 C-13.562 137.5 -13.562 137.5 -15.75 134.25 C-21.232 121.235 -21.047 108.115 -20.938 94.25 C-20.933 93.226 -20.929 92.202 -20.924 91.147 C-20.848 75.753 -20.372 60.675 -17.562 45.5 C-17.474 45.011 -17.474 45.011 -17.026 42.535 C-15.151 32.458 -12.84 22.573 -9.5 12.875 C-9.267 12.194 -9.034 11.514 -8.794 10.812 C-5.19 1.013 -5.19 1.013 0 0 Z " fill="#21160D" transform="translate(420.5625,183.5)" />
  <path d="M0 0 C7.41 2.276 12.25 6.257 16 13 C22.697 27.528 20.485 43.307 15.316 58.012 C10.752 68.372 3.306 75.167 -6.188 80.938 C-12.091 82.583 -17.916 82.19 -24 82 C-23.457 72.345 -22.588 62.832 -21.25 53.25 C-21.077 51.997 -20.905 50.745 -20.727 49.454 C-20.45 47.447 -20.172 45.44 -19.891 43.433 C-19.256 38.891 -18.648 34.346 -18.053 29.798 C-17.629 26.569 -17.193 23.342 -16.755 20.115 C-16.544 18.542 -16.337 16.97 -16.135 15.396 C-15.851 13.194 -15.551 10.996 -15.246 8.797 C-15.078 7.532 -14.909 6.267 -14.736 4.964 C-13.022 -1.937 -5.751 -0.715 0 0 Z " fill="#FBD1A1" transform="translate(748,383)" />
  <path d="M0 0 C3.071 1.151 3.802 2.162 5.5 4.938 C6.113 7.565 6.113 7.565 6.457 10.574 C6.597 11.696 6.736 12.818 6.88 13.975 C7.023 15.179 7.165 16.384 7.312 17.625 C11.41 48.657 19.323 85.123 44.488 106.473 C49.598 110.386 54.795 113.955 60.5 116.938 C60.625 119.812 60.625 119.812 60.5 122.938 C59.84 123.597 59.18 124.257 58.5 124.938 C46.185 124.938 36.842 117.168 28.484 108.961 C27.487 107.956 26.492 106.949 25.5 105.938 C24.701 105.125 23.902 104.313 23.078 103.477 C18.64 98.722 15.368 93.77 12.5 87.938 C14.274 95.814 16.606 103.274 19.512 110.809 C20.448 113.772 20.805 115.864 20.5 118.938 C19.312 120.75 19.312 120.75 17.5 121.938 C15.062 122.438 15.062 122.438 12.5 121.938 C8.327 117.773 6.821 112.98 5.062 107.5 C4.762 106.578 4.462 105.657 4.153 104.707 C-4.22 78.29 -7.472 51.535 -7.688 23.938 C-7.701 22.887 -7.714 21.836 -7.727 20.753 C-7.743 5.707 -7.743 5.707 -4.083 1.188 C-2.5 -0.062 -2.5 -0.062 0 0 Z " fill="#21170D" transform="translate(544.5,200.0625)" />
  <path d="M0 0 C0.764 -0.014 1.529 -0.028 2.316 -0.043 C4.438 0.188 4.438 0.188 7.438 2.188 C8.174 5.1 8.174 5.1 8.684 8.887 C8.78 9.578 8.876 10.269 8.975 10.981 C9.289 13.277 9.583 15.576 9.875 17.875 C10.088 19.476 10.301 21.077 10.514 22.678 C12.129 34.971 13.484 47.292 14.75 59.625 C14.837 60.473 14.924 61.321 15.014 62.194 C15.259 64.607 15.5 67.02 15.738 69.434 C15.81 70.147 15.882 70.86 15.955 71.594 C16.297 75.139 16.515 78.626 16.438 82.188 C6.288 82.842 -0.478 80.3 -8.25 73.688 C-19.685 62.608 -24.425 48.784 -25.033 33.156 C-25.172 22.069 -23.072 14.053 -15.297 5.812 C-10.671 1.479 -6.222 0.053 0 0 Z " fill="#FBD2A2" transform="translate(248.5625,382.8125)" />
  <path d="M0 0 C8.086 -0.168 16.067 0.362 24.125 1 C24.746 1.048 24.746 1.048 27.891 1.289 C30.927 1.523 33.964 1.76 37 2 C37.049 7.054 37.086 12.107 37.11 17.161 C37.12 18.88 37.134 20.599 37.151 22.317 C37.175 24.79 37.186 27.262 37.195 29.734 C37.206 30.501 37.216 31.268 37.227 32.058 C37.227 35.86 37.145 38.779 35 42 C18.948 30.64 8.013 19.062 0 1 C0 0.67 0 0.34 0 0 Z " fill="#82D4BB" transform="translate(684,309)" />
  <path d="M0 0 C0.159 1.137 0.317 2.274 0.48 3.445 C2.119 14.515 4.755 24.317 9.125 34.664 C10.371 37.989 10.447 40.485 10 44 C7.636 46.634 6.008 47.767 2.562 48.562 C-2.165 47.525 -4.838 44.79 -7.387 40.863 C-13.985 28.558 -14.408 16.611 -14 3 C-12.042 2.497 -10.084 1.998 -8.125 1.5 C-7.034 1.222 -5.944 0.943 -4.82 0.656 C-2 0 -2 0 0 0 Z " fill="#D3C5E0" transform="translate(309,716)" />
  <path d="M0 0 C1.894 2.842 2.259 3.819 2.75 7 C4.725 16.374 10.227 23.738 16.559 30.711 C18 33 18 33 17.91 35.664 C17 38 17 38 14 40 C8.93 40.684 4.399 40.607 -0.312 38.562 C-11.284 28.101 -13.534 15.415 -15 1 C-10.05 0.67 -5.1 0.34 0 0 Z " fill="#D3C5E0" transform="translate(335,709)" />
  <path d="M0 0 C4.29 0.99 8.58 1.98 13 3 C13.34 18.931 13.651 34.736 2 47 C-1.05 48.525 -3.642 48.236 -7 48 C-9.188 46.417 -9.9 45.498 -10.434 42.836 C-10.442 37.309 -9.604 33.525 -7.148 28.605 C-3.211 19.673 -1.574 9.573 0 0 Z " fill="#D3C6E1" transform="translate(270,716)" />
  <path d="M0 0 C3.794 0.862 5.32 3.009 7.918 5.805 C12.623 10.48 18.301 12.707 24.875 12.938 C31.331 12.821 37.169 11.027 41.949 6.578 C43.281 5.148 44.608 3.713 45.93 2.273 C47.75 0.625 47.75 0.625 51.125 0 C53.75 0.625 53.75 0.625 55.75 2.625 C56.544 6.792 55.663 9.269 53.375 12.688 C46.85 20.698 37.155 22.851 27.32 23.879 C16.139 24.433 6.104 19.853 -2.25 12.625 C-4.264 10.262 -5.173 9.153 -5.625 6.062 C-5.25 3.625 -5.25 3.625 -4.062 1.812 C-2.25 0.625 -2.25 0.625 0 0 Z " fill="#23170D" transform="translate(469.25,463.375)" />
  <path d="M0 0 C5.28 0 10.56 0 16 0 C10.043 27.166 10.043 27.166 -0.324 34.984 C-4.751 37.667 -7.7 38.558 -13 38 C-16 36.438 -16 36.438 -18 34 C-18.25 30.688 -18.25 30.688 -17 27 C-15.413 25.166 -13.692 23.577 -11.906 21.938 C-5.971 15.905 -2.897 7.799 0 0 Z " fill="#D3C5E0" transform="translate(238,716)" />
  <path d="M0 0 C0.842 -0.012 1.684 -0.024 2.551 -0.037 C6.985 -0.048 10.469 0.098 14.5 2.188 C14.665 3.342 14.665 3.342 15.5 9.188 C10.869 12.687 6.522 12.808 0.938 13.188 C-9.875 14.102 -19.283 16.189 -29.305 20.395 C-32.161 21.426 -34.5 21.637 -37.5 21.188 C-38.16 20.527 -38.82 19.868 -39.5 19.188 C-39.492 16.32 -39.492 16.32 -38.5 13.188 C-35.945 10.992 -35.945 10.992 -32.625 9.062 C-32.044 8.723 -31.462 8.384 -30.863 8.035 C-20.886 2.385 -11.371 0.009 0 0 Z " fill="#21160C" transform="translate(373.5,315.8125)" />
  <path d="M0 0 C3.062 0.25 3.062 0.25 6 1 C13.322 15.643 4.956 43.409 1.438 58.625 C1.228 59.533 1.018 60.44 0.802 61.376 C0.598 62.213 0.394 63.051 0.184 63.914 C0.094 64.285 0.094 64.285 -0.362 66.163 C-1 68 -1 68 -3 70 C-5.625 69.625 -5.625 69.625 -8 69 C-8.865 64.296 -9.003 60.915 -7.75 56.312 C-4.034 40.374 -2.813 23.493 -2.378 7.153 C-2.206 2.206 -2.206 2.206 0 0 Z " fill="#22170D" transform="translate(714,188)" />
  <path d="M0 0 C2.438 0.062 2.438 0.062 5 1 C7.947 4.998 9.164 9.378 10.375 14.125 C10.584 14.934 10.793 15.743 11.009 16.576 C12.858 23.977 14.341 31.442 15.75 38.938 C15.961 40.049 16.171 41.161 16.388 42.307 C19.153 57.528 19.153 57.528 19 64 C18.67 64.33 18.67 64.33 17 66 C14.562 66 14.562 66 12 65 C8.636 59.797 8.092 54.375 7.25 48.375 C5.595 37.452 3.118 26.854 0.286 16.179 C-0.009 15.054 -0.305 13.929 -0.609 12.77 C-0.877 11.775 -1.145 10.781 -1.421 9.757 C-1.991 7.041 -2.259 4.763 -2 2 C-1.34 1.34 -0.68 0.68 0 0 Z " fill="#23170D" transform="translate(672,189)" />
  <path d="M0 0 C7.972 2.625 15.556 6.299 21.132 12.702 C21.507 15.452 21.507 15.452 21.132 17.702 C20.132 18.702 20.132 18.702 16.949 18.94 C12.858 18.685 10.66 17.794 7.07 15.89 C-3.271 10.873 -13.592 9.419 -25.004 9.108 C-27.868 8.702 -27.868 8.702 -29.731 7.323 C-30.868 5.702 -30.868 5.702 -31.368 3.265 C-30.868 0.702 -30.868 0.702 -29.055 -1.61 C-20.382 -6.202 -8.966 -2.611 0 0 Z " fill="#22170D" transform="translate(640.86767578125,318.2978515625)" />
  <path d="M0 0 C1.902 0.27 1.902 0.27 4 1 C4.879 2.637 4.879 2.637 5.562 4.688 C8.139 10.524 13.446 12.472 19 15 C18.762 16.875 18.762 16.875 18 19 C16.145 20.062 16.145 20.062 13.812 21 C7.518 24.167 5.552 29.724 3 36 C1.125 35.805 1.125 35.805 -1 35 C-2.125 32.82 -2.125 32.82 -3 30.125 C-4.815 24.566 -7.144 22.964 -12.25 20.312 C-12.704 20.096 -12.704 20.096 -15 19 C-15 17.68 -15 16.36 -15 15 C-14.336 14.755 -13.672 14.51 -12.988 14.258 C-6.301 11.427 -3.573 8.699 -0.742 2.012 C-0.497 1.348 -0.252 0.684 0 0 Z " fill="#FBFAFA" transform="translate(631,412)" />
  <path d="M0 0 C1.898 0.266 1.898 0.266 4 1 C4.914 2.672 4.914 2.672 5.625 4.75 C8.067 10.27 12.628 11.868 18 14 C17.734 16.395 17.734 16.395 17 19 C15.328 20.012 15.328 20.012 13.25 20.688 C8.359 22.796 7.068 25.982 5.105 30.758 C4 33 4 33 1 35 C-1.252 32.426 -2.205 30.302 -3.062 27.062 C-4.434 23.031 -6.423 21.861 -10.188 20 C-11.781 19.307 -13.382 18.632 -15 18 C-14.766 16.102 -14.766 16.102 -14 14 C-12.109 13.086 -12.109 13.086 -9.75 12.375 C-5.438 10.683 -3.964 8.897 -1.938 4.75 C-1.263 3.179 -0.607 1.599 0 0 Z " fill="#FAFAF9" transform="translate(392,412)" />
  <path d="M0 0 C3.98 2.143 6.363 3.781 8 8 C8.691 13.321 8.632 17.714 6.25 22.562 C2.824 26.274 2.824 26.274 0 27 C-4.466 26.919 -6.436 26.478 -9.875 23.562 C-13.562 19.117 -13.387 15.655 -13.359 9.996 C-12.823 5.523 -11.333 3.936 -8 1 C-5.134 -0.433 -3.187 -0.306 0 0 Z " fill="#221910" transform="translate(324,638)" />
  <path d="M0 0 C3.235 0.874 3.868 1.802 5.75 4.625 C7.555 9.499 8.098 13.433 6.051 18.219 C4.242 21.369 2.678 23.554 -0.375 25.562 C-3.904 26.151 -6.532 25.883 -10 25 C-12.318 23.109 -13.669 21.662 -15 19 C-15.535 13.632 -15.662 9.301 -13.188 4.438 C-9.124 -0.09 -5.833 -0.543 0 0 Z " fill="#FAFAF9" transform="translate(609,380)" />
  <path d="M0 0 C2.919 1.84 5.432 3.863 7 7 C8.029 18.272 8.029 18.272 5.125 22.688 C2.318 25.742 0.717 26.199 -3.312 26.375 C-7.105 26.344 -7.832 26.129 -11 23.688 C-14.463 19.034 -14.544 14.605 -14 9 C-11.408 2.861 -6.867 -1.261 0 0 Z " fill="#221910" transform="translate(253,646)" />
  <path d="M0 0 C2.753 1.796 4.526 3.053 6 6 C6.535 11.368 6.662 15.699 4.188 20.562 C1.946 23.06 0.274 24.798 -3.121 25.336 C-9.411 25.442 -9.411 25.442 -12.5 23.125 C-15.997 18.171 -15.7 12.898 -15 7 C-13.644 4.198 -12.422 3.084 -10 1 C-6.394 -0.202 -3.79 -0.327 0 0 Z " fill="#FCFCFC" transform="translate(373,380)" />
  <path d="M0 0 C1.675 0.286 3.344 0.618 5 1 C6.483 7.223 5.439 10.391 2.5 15.75 C2.134 16.447 1.768 17.143 1.391 17.861 C-1.762 23.777 -5.241 29.449 -9 35 C-9.452 35.723 -9.905 36.446 -10.371 37.191 C-12.232 40.062 -13.457 41.785 -16.688 43.062 C-19 43 -19 43 -21 41 C-20.65 37.288 -19.406 34.588 -17.523 31.41 C-17.02 30.549 -16.517 29.689 -15.999 28.802 C-15.463 27.898 -14.927 26.994 -14.375 26.062 C-10.038 18.631 -5.945 11.171 -2.207 3.422 C-1 1 -1 1 0 0 Z " fill="#22160C" transform="translate(746,217)" />
  <path d="M0 0 C2.125 0.938 2.125 0.938 3.125 1.938 C3.625 4.125 3.625 4.125 3.125 6.938 C-0.69 11.213 -5.111 14.662 -10.898 15.238 C-22.174 15.278 -22.174 15.278 -26.875 11.938 C-27.514 11.484 -28.154 11.03 -28.812 10.562 C-29.875 8.938 -29.875 8.938 -29.562 6.25 C-29.449 5.868 -29.449 5.868 -28.875 3.938 C-25.514 2.85 -24.274 2.734 -21.062 4.375 C-17.253 6.242 -13.998 6.976 -9.875 5.938 C-7.905 4.497 -6.227 2.913 -4.48 1.211 C-2.875 -0.062 -2.875 -0.062 0 0 Z " fill="#1F160F" transform="translate(301.875,663.0625)" />
</svg>