<svg xmlns="http://www.w3.org/2000/svg" viewBox="0 0 1024 1024" preserveAspectRatio="xMidYMid meet" id="mermaid-svg">
  <defs>
    <clipPath id="hair-clip">
      <rect x="-512" y="-512" width="2048" height="822"/>
    </clipPath>
  </defs>

  <path d="M0 0 C2.332 -0.01 4.664 -0.041 6.996 -0.072 C16.2 -0.136 24.829 0.656 33.849 2.495 C41.579 3.999 47.568 4.444 55.205 2.326 C63.879 0.174 72.066 -0.316 80.976 -0.171 C83.299 -0.135 85.62 -0.13 87.943 -0.131 C103.232 -0.062 118.198 1.496 133.111 4.928 C134.265 5.193 135.419 5.458 136.608 5.73 C152.871 9.572 167.8 14.973 182.861 22.178 C183.469 22.467 184.076 22.755 184.702 23.053 C193.232 27.136 201.057 31.82 208.799 37.24 C210.046 38.089 211.293 38.938 212.541 39.787 C232.51 53.83 251.231 70.807 265.609 90.61 C266.789 92.227 268.007 93.816 269.224 95.404 C302.017 138.757 314.286 193.487 317.877 246.695 C319.886 275.954 326.576 300.751 347.205 322.502 C349.889 325.336 352.453 328.247 354.998 331.205 C356.344 332.726 357.728 334.213 359.131 335.682 C375.201 352.641 384.681 372.383 384.177 395.982 C383.464 409.941 377.604 421.635 370.263 433.256 C369.816 433.965 369.369 434.675 368.909 435.406 C368.023 436.804 367.129 438.197 366.226 439.584 C361.111 447.557 359.63 454.775 360.799 464.24 C363.405 472.579 368.928 479.217 374.187 486.032 C388.305 504.52 395.442 523.87 393.799 547.24 C391.838 561.837 384.376 574.567 372.893 583.767 C370.089 585.906 367.261 588.004 364.383 590.042 C359.955 593.206 356.287 596.264 353.799 601.24 C353.799 609.507 356.851 613.826 361.799 620.24 C363.445 623.533 363.337 625.592 362.799 629.24 C357.048 637.15 347.011 639.702 337.799 641.24 C319.292 642.655 305.582 636.02 291.799 624.24 C291.532 624.967 291.265 625.694 290.99 626.443 C284.287 642.179 269.357 653.308 254.131 659.955 C247.28 662.597 240.616 664.281 233.248 664.322 C220.932 664.402 214.597 666.965 204.799 674.24 C195.66 679.506 183.348 683.101 172.799 682.24 C172.756 682.895 172.714 683.55 172.67 684.225 C169.547 725.125 148.666 759.774 118.76 786.729 C116.799 788.24 116.799 788.24 114.799 788.24 C114.799 788.9 114.799 789.56 114.799 790.24 C115.383 790.296 115.383 790.296 118.342 790.576 C137.756 793.027 155.172 807.285 166.799 822.24 C179.067 839.667 186.877 861.949 187.111 883.303 C187.126 883.745 187.126 883.745 187.199 885.984 C187.24 890.152 187.187 892.582 185.033 896.232 C170.742 909.074 143.547 907.405 125.557 906.515 C116.978 905.888 108.943 903.928 100.799 901.24 C100.073 901.01 99.347 900.78 98.6 900.543 C77.518 893.75 58.134 880.877 45.799 862.24 C45.139 861.91 44.479 861.58 43.799 861.24 C43.532 861.824 43.265 862.408 42.99 863.01 C40.895 866.931 37.8 869.991 34.799 873.24 C34.137 873.967 33.476 874.694 32.795 875.443 C18.365 890.643 -0.187 899.154 -20.201 904.24 C-20.65 904.358 -20.65 904.358 -22.92 904.951 C-44.168 910.113 -72.285 908.784 -92.201 899.24 C-95.584 896.167 -97.439 893.824 -97.795 889.279 C-97.795 887.808 -97.762 886.336 -97.701 884.865 C-97.682 884.076 -97.663 883.286 -97.643 882.473 C-96.638 855.325 -85.171 828.085 -65.498 809.26 C-55.414 800.393 -40.07 790.24 -26.201 790.24 C-26.201 789.58 -26.201 788.92 -26.201 788.24 C-26.792 787.967 -27.382 787.694 -27.99 787.412 C-53.133 774.086 -70.848 741.402 -79.049 715.572 C-82.43 704.461 -84.649 693.871 -85.201 682.24 C-85.769 682.292 -85.769 682.292 -88.639 682.553 C-101.913 682.49 -117.897 676.166 -127.537 667.025 C-131.346 664.474 -134.593 664.736 -139.076 664.74 C-159.184 664.174 -177.147 656.731 -191.201 642.24 C-196.076 636.727 -200.041 630.885 -203.201 624.24 C-204.13 625.086 -205.058 625.931 -206.014 626.803 C-215.911 635.223 -226.113 640.441 -239.201 641.24 C-240.095 641.305 -240.988 641.369 -241.908 641.436 C-251.96 641.831 -262.279 639.74 -270.201 633.24 C-270.593 632.941 -270.593 632.941 -272.576 631.428 C-274.964 628.213 -274.741 626.154 -274.201 622.24 C-272.634 619.454 -270.874 617.065 -268.858 614.592 C-265.367 610.106 -264.11 606.999 -264.201 601.24 C-267.329 594.984 -272.496 591.687 -278.162 587.842 C-291.742 578.529 -301.107 567.129 -304.733 550.705 C-306.299 539.127 -306.093 527.329 -302.201 516.24 C-301.884 515.306 -301.567 514.371 -301.24 513.408 C-296.672 501.306 -289.242 490.442 -281.022 480.541 C-274.906 472.811 -270.057 464.375 -271.201 454.24 C-273.556 445.657 -277.535 438.921 -282.533 431.688 C-293.012 416.442 -297.628 398.786 -294.576 380.494 C-289.752 360.14 -278.88 343.268 -263.955 328.912 C-260.469 325.53 -257.301 321.975 -254.201 318.24 C-253.557 317.485 -252.912 316.729 -252.248 315.951 C-245.093 307.348 -239.737 298.388 -235.951 287.865 C-235.717 287.219 -235.483 286.572 -235.242 285.906 C-230.457 271.845 -229.48 257.789 -228.553 243.075 C-225.747 199.424 -216.941 159.114 -196.201 120.24 C-195.851 119.573 -195.501 118.906 -195.14 118.218 C-190.38 109.197 -185.173 100.944 -178.686 93.058 C-177.555 91.673 -176.442 90.274 -175.338 88.868 C-169.651 81.721 -163.495 75.225 -157.018 68.796 C-155.328 67.117 -153.649 65.427 -151.971 63.736 C-145.371 57.128 -138.578 50.989 -131.201 45.24 C-130.876 44.982 -130.876 44.982 -129.229 43.678 C-119.495 36.052 -109.174 29.907 -98.201 24.24 C-97.47 23.856 -96.739 23.472 -95.985 23.077 C-66.215 7.594 -33.451 0.083 0 0 Z " fill="#261908" transform="translate(467.201416015625,59.759765625)"  clip-path="url(#hair-clip)"/>
  <path d="M0 0 C6.661 1.613 13.012 -0.189 19.48 -1.828 C50.658 -9.069 87.202 -1.222 116.727 9.418 C117.48 9.688 118.234 9.958 119.011 10.236 C155.885 23.68 188.932 48.121 212.727 79.418 C213.149 79.964 213.571 80.509 214.005 81.071 C245.118 121.414 259.305 169.852 263.465 220.105 C263.529 220.871 263.592 221.637 263.658 222.425 C263.972 226.224 264.273 230.023 264.55 233.824 C265.54 246.877 267.682 259.479 271.914 271.918 C272.216 272.807 272.518 273.697 272.829 274.613 C278.956 292.055 288.956 305.542 301.664 318.793 C316.949 334.773 330.187 352.36 330.024 375.405 C329.893 381.206 328.981 386.093 326.727 391.418 C326.568 391.798 326.568 391.798 325.766 393.719 C323.273 399.119 320.083 403.908 316.727 408.793 C309.067 419.949 304.564 430.752 305.727 444.418 C308.232 455.271 314.652 464.616 321.098 473.507 C333.321 490.372 342.231 506.779 339.188 528.215 C338.001 534.393 336.885 539.525 332.727 544.418 C332.046 545.346 331.365 546.274 330.664 547.23 C327.484 550.973 323.587 553.861 319.777 556.934 C301.144 572.107 301.144 572.107 299.301 582.914 C298.945 589.433 301.041 594.586 303.727 600.418 C304.401 602.081 305.07 603.747 305.727 605.418 C303.471 607.674 298.312 606.709 295.289 606.73 C283.164 606.721 275.819 604.477 266.922 595.887 C260.576 588.75 258.957 580.855 257.598 571.641 C256.727 568.418 256.727 568.418 254.801 566.496 C252.23 565.16 250.586 565.042 247.727 565.418 C245.335 567.81 245.479 568.344 245.453 571.602 C245.444 572.022 245.444 572.022 245.4 574.147 C245.384 575.041 245.368 575.935 245.352 576.855 C245.075 584.71 244.357 591.321 240.727 598.418 C240.327 599.24 239.927 600.063 239.516 600.91 C232.183 614.516 219.543 624.361 204.859 628.91 C200.627 629.918 196.642 630.468 192.293 630.418 C179.487 630.343 172.054 633.058 161.727 640.418 C153.947 645.154 143.883 648.901 134.727 648.418 C134.701 647.518 134.675 646.618 134.648 645.691 C134.095 633.128 132.377 620.499 129.174 608.316 C128.531 605.586 128.634 602.966 128.664 600.168 C128.673 599.09 128.682 598.013 128.691 596.902 C128.697 596.492 128.697 596.492 128.727 594.418 C132.678 597.277 135.009 600.081 137.539 604.23 C142.801 612.32 149.108 618.94 158.727 621.418 C164.356 622.074 170.433 622.767 175.414 619.605 C177.727 617.418 177.727 617.418 179.727 614.418 C181.615 614.141 181.615 614.141 183.91 614.266 C184.75 614.297 185.59 614.328 186.456 614.36 C187.35 614.399 188.243 614.439 189.164 614.48 C198.208 614.653 205.948 614.581 213.09 608.359 C220.08 600.997 221.333 594.328 221.156 584.309 C220.097 574.717 215.146 567.832 207.891 561.75 C203.98 558.868 199.928 556.245 195.852 553.605 C181.5 544.251 172.386 532.671 162.475 518.833 C159.729 515.04 156.891 511.319 154.039 507.605 C153.771 507.256 153.771 507.256 152.415 505.49 C150.855 503.464 149.291 501.44 147.727 499.418 C147.246 498.796 146.765 498.173 146.27 497.532 C119.286 462.649 119.286 462.649 101.078 451.09 C100.302 450.538 99.526 449.986 98.727 449.418 C98.727 448.758 98.727 448.098 98.727 447.418 C99.901 447.066 101.075 446.714 102.285 446.352 C134.74 436.469 165.33 420.908 184.414 391.543 C184.797 390.954 185.181 390.365 185.576 389.758 C188.028 385.861 189.693 381.977 191.352 377.668 C192.762 374.711 192.762 374.711 194.727 372.418 C198.464 371.253 201.865 370.976 205.77 370.746 C217.847 369.745 227.274 363.278 235.414 354.73 C245.864 342.172 248.862 327.293 247.727 311.418 C246.669 303.881 244.292 297.93 240.129 291.574 C238.727 289.418 238.727 289.418 237.793 287.262 C236.43 284.906 235.199 284.486 232.727 283.418 C231.245 282.463 229.766 281.504 228.289 280.543 C222.398 276.95 216.356 275.252 209.727 273.418 C209.397 266.488 209.067 259.558 208.727 252.418 C210.603 252.356 212.48 252.294 214.414 252.23 C218.579 251.871 220.46 251.589 224.039 249.293 C225.727 246.418 225.727 246.418 226.102 243.043 C224.368 238.473 222.146 237.059 218.254 234.273 C199.652 220.617 190.643 198.939 182.948 178.033 C176.587 160.815 176.587 160.815 173.727 157.418 C170.734 156.5 170.734 156.5 167.727 156.418 C164.789 158.543 164.789 158.543 162.727 161.418 C163.385 167.769 166.35 173.863 168.602 179.793 C168.845 180.435 169.089 181.076 169.34 181.738 C175.794 198.655 182.607 215.339 193.73 229.773 C195.379 231.958 196.627 233.928 197.727 236.418 C166.84 230.264 139.866 213.704 120.727 188.418 C120.524 188.15 120.524 188.15 119.496 186.792 C107.384 170.661 97.955 153.191 91.767 133.964 C89.592 127.383 89.592 127.383 86.727 125.418 C81.58 124.775 81.58 124.775 79.043 126.688 C77.378 128.877 77.391 129.764 77.664 132.48 C80.163 150.768 89.306 169.411 99.727 184.418 C100.454 185.492 101.181 186.566 101.93 187.672 C106.441 194.236 111.28 200.444 116.477 206.48 C117.007 207.1 117.538 207.719 118.084 208.356 C121.376 212.112 124.811 215.317 128.727 218.418 C125.565 220.525 124.737 220.681 121.113 220.719 C120.202 220.728 119.291 220.738 118.352 220.748 C90.058 220.579 70.44 210.07 50.453 190.152 C33.346 172.025 23.112 148.642 17.5 124.59 C16.623 122.128 15.805 120.988 13.727 119.418 C10.289 118.98 10.289 118.98 6.727 119.418 C4.312 121.334 2.946 122.625 2.117 125.625 C1.941 128.892 1.8 132.147 1.727 135.418 C1.706 136.233 1.686 137.048 1.665 137.888 C1.044 166.184 2.084 200.258 18.727 224.418 C18.727 225.078 18.727 225.738 18.727 226.418 C-5.73 225.724 -24.434 217.344 -41.348 199.719 C-53.341 186.63 -60.818 169.4 -65.273 152.418 C-65.455 151.73 -65.636 151.042 -65.822 150.334 C-67.526 143.34 -67.92 136.32 -68.309 129.15 C-68.824 122.071 -68.824 122.071 -71.09 118.781 C-74.783 116.475 -76.969 116.871 -81.273 117.418 C-84.27 120.436 -85.183 123.815 -86.324 127.844 C-86.69 129.108 -87.055 130.373 -87.432 131.676 C-87.62 132.339 -87.808 133.002 -88.002 133.685 C-96.784 164.475 -110.484 189.741 -133.273 212.418 C-134.126 213.27 -134.978 214.122 -135.855 215 C-148.359 226.84 -165.297 237.664 -182.273 241.418 C-184.711 241.043 -184.711 241.043 -186.273 240.418 C-185.644 239.509 -185.015 238.6 -184.367 237.664 C-167.803 213.475 -143.924 171.564 -147.273 141.418 C-150.273 139.418 -150.273 139.418 -153.773 139.418 C-157.273 140.418 -157.273 140.418 -158.766 142.738 C-160.849 147.822 -162.353 153.025 -163.898 158.293 C-173.233 189.206 -185.195 228.238 -215.273 245.418 C-216.694 248.259 -216.588 250.273 -216.273 253.418 C-213.617 256.694 -211.669 258.261 -207.453 258.734 C-206.363 258.816 -205.272 258.897 -204.148 258.98 C-202.21 259.125 -200.271 259.269 -198.273 259.418 C-198.273 263.708 -198.273 267.998 -198.273 272.418 C-199.088 272.686 -199.088 272.686 -203.211 274.043 C-215.729 278.602 -224.836 286.967 -230.508 299.047 C-236.723 314.157 -235.025 329.612 -229.023 344.523 C-222.414 357.837 -211.603 365.336 -197.953 370.254 C-195.202 371.022 -192.737 371.463 -189.887 371.184 C-186.81 371.014 -185.089 371.106 -182.273 372.418 C-179.094 376.802 -176.803 381.509 -174.382 386.339 C-157.588 417.82 -124.342 435.071 -91.848 445.52 C-89.665 446.18 -87.471 446.806 -85.273 447.418 C-88.468 450.704 -91.73 453.657 -95.336 456.48 C-105.279 464.568 -113.656 473.536 -121.418 483.707 C-124.487 487.728 -127.69 491.633 -130.898 495.543 C-135.289 500.92 -139.553 506.363 -143.688 511.941 C-147.24 516.734 -150.852 521.481 -154.461 526.23 C-155.139 527.127 -155.817 528.023 -156.515 528.946 C-167.153 542.94 -167.153 542.94 -173.711 547.73 C-174.745 548.487 -175.779 549.244 -176.844 550.023 C-179.886 552.177 -182.994 554.221 -186.116 556.257 C-196.348 562.938 -204.825 569.391 -207.887 581.93 C-209.157 590.1 -208.497 597.175 -204.273 604.418 C-199.97 609.738 -193.86 612.858 -187.273 614.418 C-181.455 614.873 -175.739 614.944 -170.016 613.723 C-169.111 613.622 -168.206 613.522 -167.273 613.418 C-164.648 616.23 -164.648 616.23 -162.273 619.418 C-157.431 622.587 -151.823 621.947 -146.273 621.418 C-133.483 618.615 -125.828 608.46 -119.086 598.043 C-117.273 595.418 -117.273 595.418 -115.273 594.418 C-114.734 601.896 -115.817 607.755 -118.188 614.832 C-121.474 625.686 -122.704 637.13 -123.273 648.418 C-138.872 648.031 -151.674 639.818 -164.273 631.418 C-166.168 631.147 -166.168 631.147 -168.301 631.109 C-168.694 631.098 -168.694 631.098 -170.683 631.041 C-171.517 631.021 -172.351 631.001 -173.211 630.98 C-190.868 630.254 -206.08 624.896 -218.711 612.246 C-222.304 608.281 -225.035 604.27 -227.273 599.418 C-227.609 598.722 -227.944 598.026 -228.29 597.31 C-231.295 590.594 -231.921 584.597 -232.023 577.293 C-232.053 576.241 -232.083 575.189 -232.113 574.105 C-232.183 571.543 -232.236 568.981 -232.273 566.418 C-235.148 564.981 -237.092 565.036 -240.273 565.418 C-244.107 569.187 -244.9 572.372 -245.648 577.605 C-247.213 586.687 -250.372 593.282 -257.461 599.293 C-268.866 607.254 -279.87 606.891 -293.273 606.418 C-293.273 602.302 -292.999 601.517 -290.836 598.293 C-286.516 591.77 -286.568 586.231 -287.273 578.418 C-290.175 568.028 -298.446 562.399 -306.836 556.418 C-316.575 549.399 -325.151 540.83 -327.273 528.418 C-328.894 505.3 -319.305 487.86 -305.886 469.82 C-297.485 458.442 -291.791 446.91 -293.273 432.418 C-295.338 421.814 -301.447 413.279 -307.273 404.418 C-315.844 391.233 -318.773 377.912 -315.866 362.22 C-311.459 344.445 -300.229 330.477 -287.836 317.543 C-263.098 291.605 -252.878 261.284 -250.919 225.815 C-247.077 157.606 -223.746 97.565 -173.273 50.418 C-169.708 47.274 -166.035 44.323 -162.273 41.418 C-161.271 40.61 -160.268 39.801 -159.234 38.969 C-117.168 5.32 -52.921 -13.549 0 0 Z " fill="#FED48B" transform="translate(505.2734375,78.58203125)"  clip-path="url(#hair-clip)"/>
  <path d="M0 0 C1.941 2.911 2.876 5.533 3.901 8.851 C12.249 35.808 28.504 60.52 54 74 C69.294 81.16 84.564 83.171 101.312 83.312 C102.478 83.342 103.644 83.371 104.846 83.4 C105.965 83.409 107.085 83.417 108.238 83.426 C109.249 83.44 110.26 83.455 111.302 83.47 C114.751 82.869 115.908 81.763 118 79 C118.821 73.263 118.038 70.185 114.698 65.523 C114.241 64.917 113.783 64.312 113.312 63.688 C112.384 62.375 111.46 61.059 110.543 59.738 C110.1 59.101 109.657 58.464 109.201 57.807 C102.495 47.715 99.508 35.32 97.25 23.562 C97.186 23.231 97.186 23.231 96.863 21.556 C96.161 17.658 95.878 13.957 96 10 C98.254 12.845 99.932 15.7 101.562 18.938 C114.761 43.356 138.474 65.277 165 74 C174.449 76.787 183.37 77.464 193.188 77.375 C194.476 77.387 195.764 77.398 197.092 77.41 C204.647 77.387 210.899 76.507 218 74 C221.9 72.915 223.213 72.614 226.867 74.406 C227.86 75.097 228.852 75.788 229.875 76.5 C241.574 84.207 254.014 88.596 267.527 92.055 C271 93 271 93 272 94 C275.545 117.52 273.698 140.513 271 164 C270.888 164.986 270.776 165.973 270.66 166.989 C267.639 192.494 260.595 217.563 243 237 C242.372 237.817 241.744 238.635 241.098 239.477 C237.339 243.999 232.625 247.404 228 251 C227.25 251.589 226.5 252.178 225.727 252.785 C175.004 290.427 94.572 292.14 34.554 283.771 C31.027 283.225 27.514 282.628 24 282 C23.445 281.904 23.445 281.904 20.638 281.417 C-8.338 276.257 -36.91 266.801 -60 248 C-60.927 247.251 -61.854 246.502 -62.809 245.73 C-91.328 221.337 -99.884 182.863 -102.918 147.084 C-104.133 131.475 -105.243 115.557 -103 100 C-99.095 98.521 -95.196 97.067 -91.246 95.711 C-72.297 89.149 -56.526 77.726 -42 64 C-41.151 63.227 -40.301 62.453 -39.426 61.656 C-21.383 44.588 -9.359 22.747 0 0 Z " fill="#FDDBC3" transform="translate(426,236)" />
  <path d="M0 0 C0.574 0.289 1.147 0.577 1.738 0.875 C8.39 3.782 13.705 4.098 20.812 3.75 C29.104 3.405 29.104 3.405 32.555 5.695 C34.58 8.399 36 10.571 36 14 C36.581 14.278 37.163 14.557 37.762 14.844 C39.891 15.944 41.821 17.17 43.812 18.5 C51.42 23.223 59.186 24.015 68 23 C71.801 21.812 75.346 20.468 79.004 18.898 C82 18 82 18 84.078 18.637 C84.712 19.087 85.347 19.536 86 20 C86.409 20.267 86.409 20.267 88.48 21.621 C89.374 22.221 90.267 22.82 91.188 23.438 C101.499 29.967 111.106 31.777 123.285 29.344 C128.653 27.769 132.245 26.059 136.188 22.062 C138.059 20.223 138.059 20.223 140 19 C143.377 19.264 145.981 20.547 149 22 C158.19 24.901 167.522 23.078 176 19 C180.816 16.481 183.079 13.979 185.625 9.188 C187.094 6.816 187.094 6.816 189 5 C192.291 4.453 195.212 4.631 198.535 4.879 C203.978 5.069 208.822 3.526 214 2 C215.332 1.66 216.664 1.324 218 1 C218.486 2.978 218.963 4.957 219.438 6.938 C219.704 8.04 219.971 9.142 220.246 10.277 C223.985 28.739 223.138 48.695 219 67 C218.745 68.219 218.49 69.439 218.227 70.695 C212.886 93.382 201.663 113.904 186 131 C185.245 131.849 184.489 132.699 183.711 133.574 C172.738 145.283 158.59 153.885 144.965 162.172 C142 164 142 164 141 165 C141.312 168.5 141.312 168.5 142 172 C145.459 173.73 150.073 173.523 153.801 172.512 C168.661 169.054 184.616 173.969 197.652 180.906 C216.51 192.7 228.757 213.803 234 235 C234.926 239.514 235.106 243.771 235.062 248.375 C235.053 249.62 235.044 250.865 235.035 252.148 C235.029 252.619 235.029 252.619 235 255 C213.496 264.276 186.71 261.528 165.188 253.688 C163.112 252.822 161.05 251.925 159 251 C157.827 250.474 156.654 249.948 155.445 249.406 C147.795 245.846 141.275 241.641 135 236 C134.389 235.482 133.778 234.964 133.148 234.43 C124.385 226.467 118.736 215.327 114.484 204.449 C113 202 113 202 110.578 200.895 C108 201 108 201 105.922 202.461 C103.52 205.634 101.902 209.029 100.25 212.625 C96.939 219.523 93.188 225.325 88 231 C87.471 231.608 86.943 232.217 86.398 232.844 C71.975 248.475 47.949 258.848 26.816 259.945 C25.887 259.963 24.958 259.981 24 260 C22.792 260.039 21.584 260.077 20.34 260.117 C7.663 260.401 -5.097 259.676 -17 255 C-18.294 233.628 -11.149 213.208 3 197 C3.253 196.67 3.253 196.67 4.535 195 C12.861 184.526 24.686 178.529 37 174 C37.704 173.733 38.408 173.466 39.133 173.191 C46.084 171.01 56.148 170.716 63 173 C69.193 173.442 69.193 173.442 71.938 171.938 C73.721 168.686 73.594 166.648 73 163 C70.441 160.509 67.42 158.913 64.312 157.188 C62.554 156.145 60.799 155.099 59.047 154.047 C58.183 153.533 57.318 153.019 56.428 152.49 C24.321 132.782 5.412 101.533 -3.571 65.723 C-8.512 44.724 -7.512 20.268 0 0 Z " fill="#FBB4AD" transform="translate(403,691)" />
  <path d="M0 0 C0.159 0.652 0.317 1.305 0.48 1.977 C2.049 7.853 3.463 11.866 8 16 C11.727 17.956 15.109 18.95 19.312 19.188 C20.199 19.456 21.086 19.724 22 20 C22.999 21.929 23.597 23.863 24.238 25.938 C25.951 30.575 30.428 33.932 34.641 36.309 C37.973 37.285 41.196 37.026 44.625 36.875 C48.609 36.758 48.609 36.758 52 37 C54.875 39.75 54.875 39.75 57 43 C63.104 47.161 69.783 48.07 77 47 C79.472 46.159 81.714 45.179 84.027 43.973 C86.068 42.967 87.742 42.296 90 42 C93.062 43.875 93.062 43.875 96 46 C101.934 47.978 108.639 48.008 114.375 45.375 C117.387 43.704 118.115 42.819 120.062 39.75 C121.203 38.184 121.203 38.184 123 37 C126.143 36.74 129.187 36.768 132.336 36.892 C137.839 37.093 141.189 36.673 146 34 C149.373 30.777 150.994 28.237 152.125 23.812 C152.801 21.75 152.801 21.75 154 20 C156.724 18.874 159.391 18.295 162.27 17.672 C166.622 16.601 168.125 15.522 171 12 C172.349 8.055 173.255 4.099 174 0 C188.137 7.58 198.561 20.61 208.504 32.914 C210.312 35.149 212.131 37.372 213.965 39.586 C219.951 46.841 225.705 54.214 231.25 61.812 C236.3 68.733 241.427 75.488 247 82 C247.701 82.847 248.402 83.694 249.125 84.566 C256.387 93.061 264.992 99.098 274.375 105.062 C280.307 108.95 284.727 113.18 287 120 C287.45 126.074 286.417 129.181 282.5 133.75 C278.134 137.388 271.32 136.415 266 136 C263.902 135.328 263.902 135.328 262.188 134.5 C258.545 132.786 255.977 132.757 252 133 C251.807 133.626 251.613 134.253 251.414 134.898 C251.284 135.307 251.284 135.307 250.625 137.375 C250.37 138.187 250.115 138.999 249.852 139.836 C249 142 249 142 247 144 C241.668 144 238.594 142.574 234.809 139.059 C231.835 135.674 229.526 131.875 227.098 128.09 C220.875 118.923 212.392 110.252 203.75 103.312 C201.253 101.213 199.392 99.062 197.413 96.485 C195.774 94.763 194.09 93.95 192.012 92.809 C187.911 89.78 186.989 86.546 186.23 81.688 C185.823 78.797 185.498 75.902 185.188 73 C184.838 70.124 184.471 67.249 184.105 64.375 C184.019 63.672 183.932 62.97 183.842 62.246 C181.358 42.603 181.358 42.603 177 38 C174.062 37 174.062 37 171 37 C168.562 38.438 168.562 38.438 167 41 C167.445 46.388 168.459 51.619 169.594 56.902 C169.905 58.385 170.216 59.867 170.527 61.35 C171.013 63.645 171.5 65.94 171.989 68.234 C175.351 84.071 175.351 84.071 176 92 C175.408 92.034 174.816 92.069 174.206 92.104 C146.023 93.855 113.724 100.794 90.879 118.659 C89 120 89 120 86.621 119.914 C83.42 118.798 80.902 117.23 78.062 115.375 C53.105 99.61 27.063 94.11 -2 92 C-0.795 81.439 1.149 71.265 3.625 60.938 C4.271 58.24 4.907 55.541 5.539 52.84 C5.82 51.668 6.1 50.496 6.389 49.289 C7.832 41.518 7.832 41.518 5.938 38.062 C2.71 36.293 0.437 37.018 -3 38 C-5.411 41.287 -6.505 44.282 -7.281 48.254 C-7.481 49.264 -7.681 50.273 -7.887 51.314 C-8.089 52.386 -8.291 53.458 -8.5 54.562 C-8.723 55.671 -8.946 56.78 -9.176 57.923 C-10.205 63.168 -11.098 68.342 -11.531 73.672 C-12.77 88.284 -12.77 88.284 -19.312 93.875 C-21.119 95.329 -22.947 96.752 -24.779 98.173 C-29.504 102.06 -33.794 106.434 -38.125 110.75 C-38.605 111.225 -39.085 111.7 -39.58 112.189 C-46.64 119.201 -52.663 126.404 -57.879 134.883 C-60.721 139.059 -64.229 142.211 -69 144 C-71.562 144.438 -71.562 144.438 -74 144 C-76.781 140.47 -78.297 136.136 -80 132 C-83.633 132.466 -86.84 133.278 -90.25 134.562 C-95.19 136.245 -99.82 136.809 -105 136 C-108.855 134.003 -110.598 132.603 -113 129 C-113.809 123.622 -113.617 118.349 -110.508 113.707 C-105.605 108.157 -99.306 104.162 -93.125 100.188 C-76.572 89.294 -65.076 73.646 -53.435 57.928 C-46.862 49.094 -40.049 40.459 -33 32 C-32.571 31.484 -32.141 30.969 -31.699 30.438 C-28.497 26.598 -25.262 22.789 -22 19 C-21.152 18.014 -20.304 17.028 -19.43 16.012 C-5.3 0 -5.3 0 0 0 Z " fill="#FDDFC9" transform="translate(425,543)" />
  <path d="M0 0 C9.084 4.277 18.291 8.875 26.278 15 C28.411 16.531 29.571 17.217 32.177 17.793 C35.602 17.009 38.121 15.224 40.946 13.23 C58.749 1.299 78.733 -6.288 99.634 -10.77 C100.139 -10.882 100.139 -10.882 102.696 -11.453 C111.744 -13.236 125.004 -15.483 133.384 -10.77 C138.19 -6.937 141.221 -2.339 142.196 3.73 C141.226 9.767 139.226 14.457 134.259 18.23 C128.487 21.419 122.009 21.079 115.634 20.23 C112.751 19.142 110.331 17.751 107.634 16.23 C104.919 16.609 104.919 16.609 102.634 17.23 C102.512 17.671 102.512 17.671 101.899 19.898 C101.564 21.06 101.229 22.221 100.884 23.418 C100.559 24.567 100.234 25.715 99.899 26.898 C98.195 31.386 96.007 34.235 92.134 37.043 C85.589 39.263 78.47 39.482 72.134 36.48 C69.212 34.764 66.767 32.897 64.634 30.23 C64.634 29.57 64.634 28.91 64.634 28.23 C61.821 27.918 61.821 27.918 58.634 28.23 C56.631 30.752 55.576 33.36 54.259 36.293 C51.537 41.212 47.858 43.469 42.634 45.23 C33.974 46.309 26.784 45.399 19.634 40.23 C15.877 36.737 13.088 32.73 10.634 28.23 C6.456 28.434 4.215 29.346 1.196 32.105 C-4.818 37.544 -10.446 38.808 -18.429 38.578 C-24.358 37.876 -27.963 35.603 -32.179 31.48 C-34.636 27.83 -36.004 24.378 -37.366 20.23 C-38.027 18.561 -38.691 16.894 -39.366 15.23 C-43.125 15.606 -45.834 16.414 -49.054 18.293 C-54.821 21.298 -60.668 21.145 -66.894 19.605 C-71.985 17.708 -74.987 15.179 -77.554 10.375 C-79.447 5.379 -78.912 1.606 -76.929 -3.395 C-62.459 -24.877 -18.783 -8.543 0 0 Z " fill="#FBB7B0" transform="translate(480.366455078125,661.76953125)" />
  <path d="M0 0 C9.561 6.247 14.603 16.073 17 27 C17.414 30.803 17.478 34.552 17.438 38.375 C17.43 39.385 17.422 40.395 17.415 41.436 C17.171 52.486 14.864 61.882 7 70 C-0.932 77.362 -9.06 79.644 -19.789 79.344 C-29.451 78.309 -36.186 73.429 -42.5 66.309 C-51.1 55.277 -50.967 40.309 -50 27 C-48.366 17.858 -43.985 9.173 -36.793 3.152 C-34.585 1.621 -32.359 0.283 -30 -1 C-29.453 -1.309 -29.453 -1.309 -26.688 -2.875 C-17.475 -5.686 -8.487 -4.407 0 0 Z " fill="#291C08" transform="translate(427,352)" />
  <path d="M0 0 C10.085 7.486 15.572 15.651 18 28 C19.404 41.34 18.244 54.971 10.402 66.293 C4.873 73.024 -1.856 76.285 -10 79 C-20.97 79.938 -29.164 78.376 -37.812 71.438 C-46.58 63.088 -48.899 51.565 -49.334 39.899 C-49.583 26.409 -46.326 14.734 -36.895 4.777 C-26.188 -5.376 -13.236 -7.152 0 0 Z " fill="#281B08" transform="translate(629,352)" />
  <path d="M0 0 C4.945 5.29 7.916 11.017 8.438 18.312 C8.085 25.093 4.714 29.62 0.688 34.875 C-0.034 35.852 -0.756 36.829 -1.5 37.836 C-10.88 49.984 -10.88 49.984 -18.719 51.27 C-28.351 51.671 -37.07 48.165 -44.312 41.875 C-49.991 35.104 -52.829 28.399 -52.629 19.531 C-51.811 12.668 -48.751 5.319 -43.312 0.875 C-29.174 -8.067 -14.382 -9.226 0 0 Z " fill="#FEBBA8" transform="translate(673.3125,432.125)" />
  <path d="M0 0 C6.955 0.248 11.041 2.082 16 7 C23.059 15.745 24.99 23.857 24 35 C21.61 47.007 16.082 55.976 6 63 C0.989 65.594 -3.311 67.253 -9 67 C-8.758 66.034 -8.515 65.069 -8.266 64.074 C-5.612 52.847 -4.095 41.574 -2.812 30.125 C-2.728 29.377 -2.644 28.629 -2.557 27.858 C-1.52 18.584 -0.644 9.311 0 0 Z " fill="#FCE2CF" transform="translate(715,368)" />
  <path d="M0 0 C0.022 0.273 0.022 0.273 0.136 1.655 C2.005 24.054 4.49 46.169 10 68 C0.279 67.47 -6.577 63.265 -13.211 56.234 C-19.978 47.783 -22.615 37.596 -22.375 26.898 C-21.227 18.028 -16.803 9.799 -10 4 C-3.727 0 -3.727 0 0 0 Z " fill="#FBE1CF" transform="translate(307,367)" />
  <path d="M0 0 C5.3 -0.108 10.509 0.008 15.789 0.496 C23.927 1.143 32.03 1.152 40.188 1.125 C40.965 1.124 41.743 1.123 42.545 1.122 C56.713 1.103 70.848 0.716 85 0 C82.104 2.977 79.25 5.703 75.875 8.125 C72.204 10.768 72.204 10.768 70.628 12.564 C67.795 15.063 63.988 14.452 60.375 14.5 C50.657 14.771 50.657 14.771 46.062 16.812 C42.355 18.314 40.494 17.734 36.812 16.25 C35.892 15.849 34.972 15.448 34.023 15.035 C30.537 13.842 27.614 13.747 23.938 13.688 C16.487 13.353 12.577 10.696 7 6 C5.633 5.03 4.259 4.07 2.875 3.125 C1.926 2.424 0.978 1.722 0 1 C0 0.67 0 0.34 0 0 Z " fill="#FAE2CF" transform="translate(470,536)" />
  <path d="M0 0 C1.194 -0.026 2.387 -0.052 3.617 -0.078 C8.396 0.369 11.73 1.855 15.125 5.25 C15.375 8.25 15.375 8.25 15.125 11.25 C13.125 13.25 13.125 13.25 11.252 13.382 C10.501 13.333 9.75 13.285 8.977 13.234 C-3.905 12.65 -12.824 13.699 -22.812 22.625 C-23.342 23.116 -23.872 23.607 -24.418 24.113 C-25.875 25.25 -25.875 25.25 -28.625 25.812 C-31.375 25.125 -32.351 24.656 -33.875 22.25 C-34.568 19.199 -34.513 17.303 -32.867 14.586 C-25.119 5.702 -11.544 0.149 0 0 Z " fill="#281B0A" transform="translate(409.875,294.75)" />
  <path d="M0 0 C4.502 0.281 7.092 0.887 10.75 3.562 C15.687 6.841 20.241 6.885 26 6 C30.749 4.586 34.879 2.748 39 0 C42.062 0.188 42.062 0.188 45 1 C47 4 47 4 47 6.375 C45.242 10.991 41.846 13.118 37.555 15.168 C27.093 19.493 18.271 20.514 7.594 16.27 C2.848 13.947 -1.007 11.316 -3.125 6.375 C-2.968 3.391 -2.001 2.162 0 0 Z " fill="#261909" transform="translate(490,463)" />
  <path d="M0 0 C3.504 2.23 5.424 4.192 7 8 C7.741 12.742 7.438 16.17 5.188 20.438 C3 23 3 23 0 25 C-3.978 24.855 -6.257 24.606 -9.375 22.062 C-12.97 17.5 -12.593 12.615 -12 7 C-9.587 1.077 -6.252 -0.613 0 0 Z " fill="#87BBDA" transform="translate(607,364)" />
  <path d="M0 0 C3.205 2.706 5.768 4.885 6.238 9.172 C6.406 15.003 6.005 18.423 2 23 C-1 25 -1 25 -3.938 24.875 C-8.109 23.683 -9.787 21.698 -12.25 18.25 C-13.396 14.812 -13.566 11.549 -13 8 C-9.847 2.129 -6.905 -0.967 0 0 Z " fill="#86BCDA" transform="translate(422,364)" />
  <path d="M0 0 C3.502 2.588 4.775 4.271 6.062 8.438 C5.985 12.881 4.873 14.661 2 18 C-1.205 20.351 -4.099 20.398 -8 20 C-11.786 18.279 -13.486 16.844 -15 13 C-15.214 9.877 -14.873 7.006 -14 4 C-9.389 -0.729 -6.403 -1.519 0 0 Z " fill="#F8F4F1" transform="translate(451,531)" />
  <path d="M0 0 C3.274 2.672 4.782 4.065 5.254 8.258 C5.04 12.187 4.444 14.432 2 17.562 C-2.108 19.531 -5.529 19.923 -10 19 C-13.663 16.482 -14.754 14.797 -16.062 10.562 C-15.985 6.119 -14.873 4.339 -12 1 C-8.465 -1.904 -4.155 -1.38 0 0 Z " fill="#F8F4F1" transform="translate(502,560)" />
  <path d="M0 0 C2.97 1.79 5.425 3.85 7 7 C7.599 12.269 6.254 14.885 3 19 C-0.24 20.62 -3.498 20.565 -7 20 C-9.807 18.66 -10.861 17.453 -13 15 C-14.194 11.067 -14.448 9.037 -12.812 5.25 C-8.949 0.454 -6.304 -0.869 0 0 Z " fill="#F8F4F1" transform="translate(561,550)" />
  <path d="M0 0 C2.823 1.255 4.463 2.284 6.312 4.75 C7.312 8.021 7.358 10.597 7 14 C5.204 16.753 3.947 18.526 1 20 C-6.09 20.581 -6.09 20.581 -9.938 18.125 C-13.097 14.87 -13.334 12.576 -13.293 8.039 C-12.837 4.869 -11.247 3.181 -9 1 C-5.936 -0.532 -3.383 -0.229 0 0 Z " fill="#FAF7F4" transform="translate(582,531)" />
  <path d="M0 0 C3.533 3.091 4.829 4.915 5.562 9.562 C4.914 13.524 3.812 15.188 1 18 C-2.492 19.746 -6.19 19.558 -10 19 C-13.062 17.062 -13.062 17.062 -15 14 C-15.941 9.353 -15.649 6.073 -13.188 2 C-9.222 -1.625 -4.958 -1.553 0 0 Z " fill="#FAF6F3" transform="translate(534,560)" />
  <path d="M0 0 C3.684 3.083 4.861 4.848 5.438 9.625 C4.774 14.742 4.774 14.742 3 17 C-0.398 19.291 -2.447 20 -6.562 20 C-10.795 18.769 -12.465 17.61 -15 14 C-15.646 11.193 -15.63 8.809 -15 6 C-11.138 -0.051 -6.935 -1.244 0 0 Z " fill="#FAF7F4" transform="translate(473,550)" />
  <path d="M0 0 C2.785 1.979 3.811 3.159 4.562 6.5 C4 9 4 9 1.875 11.375 C-1 13 -1 13 -4.188 12.875 C-7 12 -7 12 -9 10 C-9.55 3.948 -9.55 3.948 -7.875 1.062 C-5.065 -0.53 -3.172 -0.453 0 0 Z " fill="#23170B" transform="translate(515,424)" />
</svg>