<svg xmlns="http://www.w3.org/2000/svg" viewBox="0 0 1024 1024" preserveAspectRatio="xMidYMid meet" id="mermaid-svg">
  <defs>
    <clipPath id="hair-clip">
      <rect x="-512" y="-512" width="2048" height="822"/>
    </clipPath>
  </defs>

  <path d="M0 0 C337.92 0 675.84 0 1024 0 C1024 337.92 1024 675.84 1024 1024 C686.08 1024 348.16 1024 0 1024 C0 686.08 0 348.16 0 0 Z " fill="#15130A" transform="translate(0,0)" />
  <path d="M0 0 C337.92 0 675.84 0 1024 0 C1024 337.92 1024 675.84 1024 1024 C686.08 1024 348.16 1024 0 1024 C0 686.08 0 348.16 0 0 Z M377 35 C376.238 35.23 375.476 35.46 374.691 35.697 C346.2 44.436 319.048 59.137 296 78 C295.073 78.736 294.146 79.472 293.191 80.23 C275.762 94.199 258.461 110.127 245 128 C244.076 129.184 243.152 130.368 242.227 131.551 C224.033 155.037 209.737 181.321 199 209 C198.711 209.724 198.422 210.449 198.125 211.195 C184.763 244.774 177.18 280.479 175.516 316.551 C175.476 317.377 175.437 318.204 175.397 319.056 C175.206 323.161 175.038 327.266 174.909 331.374 C174.619 339.207 174.277 346.184 170 353 C169.647 353.576 169.294 354.152 168.93 354.745 C167.845 356.412 166.672 358.019 165.5 359.625 C165.286 359.92 165.286 359.92 164.201 361.415 C161.431 365.189 158.533 368.842 155.572 372.466 C134.247 398.562 117.792 428.495 120 463 C121.149 472.726 124.719 481.427 129.357 489.979 C132.671 496.347 132.841 501.846 131 508.75 C129.438 512.499 127.289 515.821 125.125 519.25 C115.911 533.884 111.405 549.393 114.688 566.605 C116.945 574.63 120.467 581.006 125.977 587.234 C130.815 592.825 130.815 592.825 131.359 596.285 C130.992 601.159 129.163 604.913 126.875 609.16 C125.518 612.013 125.396 613.911 126 617 C128.852 621.545 131.577 623.913 136.703 625.531 C145.421 627.31 154.424 626.242 162.156 621.746 C171.358 615.252 177.539 607.217 179.531 596.012 C180.048 591.389 180.258 587.265 179.062 582.75 C176.935 574.638 176.357 564.416 179.938 556.688 C183.295 550.992 187.665 545.968 192 541 C191.454 547.04 190.45 552.799 189.133 558.716 C183.576 583.965 185.834 602.419 198.121 625.066 C201.129 630.78 202.435 635.523 201 642 C199.036 645.082 196.62 647.473 194 650 C191.509 653.192 191 654.36 191 658.438 C192.571 664.035 195.53 667.293 200.375 670.25 C210.334 675.379 220.491 674.974 231.078 672.039 C243.197 667.73 250.281 660.208 255.78 648.887 C258.266 643.61 259.11 639.846 259 634 C259.99 634.66 260.98 635.32 262 636 C262.091 638.785 262.03 641.416 261.875 644.188 C261.495 658.517 266.263 671.34 275.898 682.125 C277.557 683.805 279.255 685.411 281 687 C282.003 687.997 283.003 688.997 284 690 C283.776 690.176 283.776 690.176 282.642 691.066 C257.074 711.24 257.074 711.24 255 726 C254.694 736.157 256.929 743.145 263.566 750.809 C271.103 758.091 280.503 759.517 290.562 759.416 C297.28 759.182 303.543 757.887 310 756 C310.34 756.471 310.681 756.941 311.031 757.426 C315.345 762.967 319.219 765.308 326.16 766.312 C334.668 766.793 341.582 763.504 348.062 758.188 C352.714 753.798 355.642 748.926 358.727 743.403 C361.679 738.216 365.075 734.449 370 731 C369.927 731.36 369.927 731.36 369.559 733.184 C368.647 737.779 367.823 742.388 367 747 C366.822 747.966 366.644 748.931 366.461 749.926 C364.202 762.656 363.789 775.353 363.812 788.25 C363.814 788.979 363.815 789.708 363.816 790.459 C363.973 837.849 382.11 877.659 415.229 911.257 C419.229 915.194 423.497 918.661 428 922 C428.265 922.199 428.265 922.199 429.604 923.208 C438.017 929.528 446.708 935.056 456 940 C456.621 940.332 457.242 940.665 457.882 941.007 C483.569 954.634 511.219 962.217 540 966 C540.647 966.086 541.294 966.172 541.96 966.26 C547.806 966.98 553.578 967.175 559.465 967.203 C560.447 967.21 561.43 967.217 562.442 967.225 C603.697 967.453 603.697 967.453 623 964 C624.138 963.801 625.276 963.603 626.448 963.398 C644.045 960.242 661.085 955.772 678 950 C678.458 949.844 678.458 949.844 680.778 949.056 C707.631 939.764 731.418 925.701 754.353 909.17 C755.882 908.084 757.44 907.04 759 906 C759.246 906.687 759.492 907.374 759.746 908.082 C770.155 932.306 792.782 948.354 816.375 958.25 C851.156 971.384 891.855 974.681 927 961 C934.326 957.347 934.326 957.347 936 954 C936.78 947.422 936.78 947.422 935.012 944.199 C932.107 940.64 928.705 937.962 925.062 935.188 C912.249 925.081 905.777 907.919 898.875 893.5 C893.576 882.841 886.305 873.486 878 865 C877.412 864.376 876.824 863.752 876.219 863.109 C868.124 855.228 856.131 849.59 845 848 C845.401 847.55 845.802 847.1 846.215 846.637 C848.158 844.437 850.078 842.218 852 840 C852.722 839.19 853.444 838.381 854.188 837.547 C872.088 816.787 876.73 791.802 876 765 C875.851 762.999 875.685 760.998 875.5 759 C874.281 744.302 873.356 729.863 879 716 C880.777 711.032 881.355 707.227 880 702 C877.5 697.983 875.436 696.453 871 695 C847.161 692.227 823.071 704.67 804.726 718.634 C799.884 722.467 795.441 726.717 791 731 C790.611 731.358 790.611 731.358 788.641 733.168 C763.04 757.361 751.433 791.232 746.179 825.083 C743.419 842.467 743.419 842.467 738.125 847.938 C724.571 854.714 706.26 853.316 692 849 C677.47 843.704 667.926 834.76 661 821 C654.667 805.801 652.945 789.95 651.267 773.728 C649.603 758.346 646.929 742.973 643 728 C650.343 734.125 655.853 739.669 660.43 748.203 C665.061 756.452 671.429 761.563 680 765.312 C687.086 766.936 693.496 766.246 700 763 C702.401 761.151 704.042 759.36 706 757 C706 756.34 706 755.68 706 755 C706.73 755.289 707.459 755.577 708.211 755.875 C720.15 760.12 733.854 761.492 745.738 756.25 C753.717 751.84 757.875 745.754 760.613 737.051 C762.407 727.54 760.842 719.967 755.68 711.949 C748.289 701.55 738.174 693.536 728 686 C729.062 684.938 730.125 683.875 731.188 682.812 C731.831 682.163 732.474 681.513 733.137 680.844 C734.544 679.451 736.01 678.116 737.5 676.812 C748.98 663.898 751.287 648.514 752.605 631.98 C753 628 753 628 754 627 C754.073 627.544 754.073 627.544 754.445 630.297 C756.53 644.45 760.452 655.722 772 665 C774.572 666.715 777.105 667.928 780 669 C780.782 669.296 781.565 669.593 782.371 669.898 C791.929 673.149 800.664 672.882 810 669 C815.181 666.369 819.805 663.989 823 659 C823.938 656.125 823.938 656.125 824 653 C822.103 649.358 819.719 646.656 816.812 643.812 C813.543 640.543 813.119 639.089 812.625 634.562 C812.756 625.604 818.403 616.947 822.57 609.277 C827.617 597.71 827.361 586.708 827.188 574.312 C827.172 572.436 827.159 570.559 827.146 568.682 C827.114 564.121 827.062 559.561 827 555 C831.382 561.344 833.942 566.045 833.438 573.812 C833.428 574.174 833.428 574.174 833.381 576.006 C833.253 579.777 832.745 583.314 832 587 C831.102 599.755 832.652 609.966 841.086 619.996 C848.802 628.074 856.383 631.108 867.5 631.375 C875.831 631.191 882.911 630.089 889 624 C890.938 621.445 890.999 620.056 891.062 616.812 C889.787 612.234 887.578 609.751 884.605 606.129 C882.483 603.315 881.769 601.537 882 598 C883.962 593.666 886.523 590.315 889.5 586.625 C897.769 576.178 900.137 564.123 899 551 C896.545 536.518 889.98 524.47 881 513 C876.942 507.183 877.073 500.827 878 494 C879.08 490.795 880.293 487.755 881.641 484.661 C889.967 465.432 887.863 446.103 880.533 426.966 C875.629 414.802 868.5 404.72 860.299 394.608 C842.27 372.288 838.182 348.085 834.806 320.465 C833.15 306.93 831.29 293.445 829 280 C828.829 278.995 828.658 277.99 828.482 276.955 C822.417 242.196 811.146 208.39 795 177 C794.626 176.272 794.252 175.545 793.866 174.795 C782.737 153.439 769.004 133.255 752.508 115.695 C750.493 113.53 748.579 111.334 746.688 109.062 C736.58 97.497 724.412 87.949 712 79 C711.294 78.491 710.588 77.982 709.86 77.457 C678.591 55.19 642.843 40.974 605 35 C603.903 34.824 602.807 34.648 601.677 34.467 C595.208 33.645 588.699 33.756 582.188 33.75 C581.818 33.749 581.818 33.749 579.947 33.747 C568.703 33.757 557.954 34.316 547 37 C545.759 37.302 544.517 37.603 543.238 37.914 C536.393 39.734 530.023 42.117 523.621 45.145 C518.195 46.916 513.957 44.151 509.125 41.75 C467.927 21.98 420.131 21.618 377 35 Z " fill="#FEFCF9" transform="translate(0,0)"  clip-path="url(#hair-clip)"/>
  <path d="M0 0 C3.373 0.846 5.412 1.992 8.254 3.968 C14.214 7.915 20.399 11.005 26.859 14.046 C28.031 14.605 29.203 15.164 30.411 15.741 C37.09 18.922 43.813 21.996 50.565 25.019 C73.723 35.42 94.847 48.294 114.172 64.796 C115.35 65.788 116.528 66.78 117.707 67.772 C123.192 72.409 128.608 77.03 133.59 82.214 C135.431 84.055 137.379 85.73 139.359 87.421 C142.351 89.998 144.77 92.649 147.172 95.796 C149.319 98.001 151.502 100.158 153.73 102.28 C158.525 106.93 162.713 111.968 166.877 117.184 C168.259 118.904 169.66 120.608 171.062 122.311 C193.363 149.538 204.312 171.94 201.297 207.608 C201.218 208.55 201.14 209.492 201.059 210.462 C200.464 216.987 199.442 223.369 198.172 229.796 C197.779 229.833 197.779 229.833 195.793 230.022 C189.659 230.79 184.956 231.553 180.504 236.038 C176.977 240.691 176.151 245.121 176.047 250.858 C175.811 254.015 175.595 255.35 173.395 257.671 C171.836 258.822 170.253 259.942 168.652 261.034 C157.723 268.796 153.614 280.506 149.958 292.845 C148.836 296.474 148.449 297.611 145.172 299.796 C143.077 300.148 140.97 300.432 138.859 300.671 C132.084 301.649 128.477 303.308 123.797 308.358 C121.498 313.221 121.383 317.505 122.172 322.796 C123.914 326.218 125.726 328.35 128.422 331.046 C128.999 331.623 129.577 332.201 130.172 332.796 C130.172 333.456 130.172 334.116 130.172 334.796 C106.462 348.126 80.192 357.075 53.172 360.796 C52.236 360.931 51.301 361.066 50.337 361.206 C31.101 363.848 11.866 364.091 -7.52 364.106 C-9.489 364.108 -11.457 364.113 -13.425 364.119 C-65.144 364.196 -129.696 357.14 -169.828 320.796 C-170.652 320.101 -171.476 319.406 -172.324 318.69 C-188.176 305.058 -199.408 287.453 -204.078 267.046 C-204.229 266.393 -204.38 265.74 -204.536 265.067 C-207.519 250.815 -208.237 236.25 -208.203 221.733 C-208.203 220.926 -208.203 220.119 -208.203 219.287 C-208.132 185.225 -204.93 153.871 -182.828 126.796 C-182.373 126.236 -181.918 125.677 -181.449 125.1 C-170.48 111.717 -158.467 99.464 -144.828 88.796 C-143.688 87.857 -142.55 86.915 -141.414 85.971 C-128.345 75.178 -114.106 66.385 -99.524 57.798 C-97.941 56.862 -96.365 55.913 -94.789 54.964 C-89.512 51.813 -84.161 48.931 -78.641 46.233 C-55.389 34.827 -33.132 21.359 -11.84 6.643 C-11.488 6.4 -11.488 6.4 -9.708 5.171 C-7.828 3.796 -7.828 3.796 -5.16 1.354 C-2.828 -0.204 -2.828 -0.204 0 0 Z " fill="#874725" transform="translate(516.828125,195.204345703125)" />
  <path d="M0 0 C0.374 0.001 0.374 0.001 2.264 0.007 C21.968 0.098 39.707 3.207 58.438 9.312 C59.638 9.703 60.838 10.094 62.074 10.496 C67.666 12.565 71.387 14.974 75.688 19.125 C80.8 23.985 80.8 23.985 84.438 24.312 C88.974 23.76 92.128 20.882 95.672 18.191 C116.809 3.831 151.333 4.409 175.674 8.764 C214.315 16.681 250.537 33.515 280.438 59.312 C281.589 60.281 282.741 61.248 283.895 62.215 C293.516 70.313 302.307 78.647 310.184 88.496 C311.675 90.36 313.188 92.207 314.723 94.035 C320.144 100.498 324.934 107.182 329.438 114.312 C329.78 114.855 329.78 114.855 331.516 117.598 C363.953 169.816 377.583 228.092 384.007 288.532 C385.325 300.713 387.196 312.813 391.188 324.438 C391.316 324.814 391.316 324.814 391.966 326.719 C396.461 339.436 403.649 349.801 411.996 360.267 C426.126 378.012 436.386 395.745 434.438 419.312 C433.068 425.542 431.587 431.354 427.438 436.312 C418.294 433.863 410.546 429.058 402.438 424.312 C402.438 423.652 402.438 422.993 402.438 422.312 C401.778 422.312 401.117 422.312 400.438 422.312 C400.358 421.732 400.358 421.732 399.957 418.797 C397.464 401.666 391.246 388.258 381.069 374.227 C362.429 348.512 357.284 320.887 353.858 289.845 C351.819 271.511 349.728 253.28 345.438 235.312 C345.195 234.285 344.952 233.258 344.701 232.2 C332.288 180.851 308.633 128.38 269.594 91.574 C268.438 90.313 268.438 90.313 268.438 88.312 C267.117 87.653 265.798 86.993 264.438 86.312 C264.438 85.653 264.438 84.993 264.438 84.312 C263.874 84.073 263.311 83.833 262.73 83.586 C259.955 82.044 258.03 80.149 255.75 77.938 C243.534 66.527 229.228 57.946 214.438 50.312 C213.737 49.946 213.036 49.58 212.313 49.203 C204.231 45.028 196.081 41.653 187.375 39 C186.621 38.77 185.867 38.539 185.09 38.302 C172.47 34.673 160.066 32.785 146.955 32.866 C144.871 32.875 142.789 32.846 140.705 32.814 C125.616 32.736 106.925 36.024 95.652 46.773 C93.669 49.286 93.303 51.149 93.438 54.312 C95.042 57.842 96.179 59.14 99.438 61.312 C104.037 61.217 107.256 60.007 111.375 58 C135.775 46.657 163.747 49.898 188.477 58.723 C213.907 68.687 234.672 83.663 254.438 102.312 C254.865 102.713 254.865 102.713 257.031 104.742 C263.358 110.849 268.763 117.47 274.046 124.473 C275.416 126.283 276.803 128.079 278.191 129.875 C285.025 138.827 290.751 148.253 296.205 158.098 C297.289 160.047 298.399 161.978 299.52 163.906 C325.798 210.575 338.929 270.565 338.5 324.062 C338.495 325.153 338.491 326.244 338.486 327.367 C338.475 330.016 338.458 332.664 338.438 335.312 C338.064 335.21 338.064 335.21 336.172 334.691 C335.679 334.557 335.679 334.557 333.188 333.875 C332.213 333.608 331.238 333.341 330.234 333.066 C329.773 332.942 329.773 332.942 327.438 332.312 C326.748 332.117 326.059 331.922 325.349 331.721 C323.217 331.265 321.288 331.199 319.109 331.215 C318.71 331.216 318.71 331.216 316.688 331.225 C315.862 331.233 315.038 331.241 314.188 331.25 C313.767 331.252 313.767 331.252 311.641 331.264 C309.573 331.275 307.505 331.293 305.438 331.312 C303.97 328.378 304.272 325.729 304.227 322.453 C304.201 321.024 304.175 319.595 304.147 318.165 C304.134 317.414 304.121 316.663 304.107 315.889 C303.83 301.512 303.037 287.483 300.438 273.312 C300.283 272.433 300.129 271.553 299.97 270.646 C295.604 246.325 287.43 222.424 276.438 200.312 C275.986 199.394 275.535 198.476 275.071 197.53 C251.258 149.363 212.94 101.4 161.031 82.433 C156.22 80.811 151.37 79.508 146.438 78.312 C145.539 78.069 144.641 77.825 143.715 77.574 C137.299 76.079 130.806 76.113 124.25 76.062 C123.311 76.053 122.371 76.044 121.404 76.034 C114.153 76.068 107.625 76.915 101.062 80.25 C100.415 80.568 99.768 80.887 99.102 81.215 C97.438 82.312 97.438 82.312 95.438 85.312 C95.018 89.16 94.843 91.409 97 94.688 C100.25 96.854 102.54 97.18 106.438 97.312 C107.484 96.992 108.531 96.671 109.609 96.34 C113.993 95.163 117.863 94.968 122.375 95 C123.206 95.006 124.037 95.011 124.894 95.017 C156.22 95.621 183.379 112.087 205.438 133.312 C205.933 133.782 206.429 134.252 206.939 134.736 C214.722 142.14 221.659 149.899 228.086 158.503 C229.462 160.346 230.856 162.175 232.25 164.004 C238.614 172.428 244.302 181.09 249.438 190.312 C249.668 190.725 249.668 190.725 250.832 192.812 C264.719 217.957 275.748 244.852 280.438 273.312 C279.905 272.646 279.373 271.98 278.824 271.293 C263.741 252.458 263.741 252.458 256.395 244.449 C254.642 242.536 252.94 240.592 251.25 238.625 C235.848 220.992 235.848 220.992 227.523 214.09 C225.315 212.208 223.222 210.223 221.121 208.222 C203.113 191.179 182.079 176.974 160.252 165.292 C158.535 164.365 156.835 163.406 155.137 162.445 C145.425 157.046 135.309 152.579 125.13 148.144 C113.335 142.96 102.136 137.303 91.838 129.525 C87.173 126.221 84.158 125.516 78.438 126.312 C75.978 127.65 74.14 128.841 72 130.562 C70.773 131.489 69.545 132.415 68.316 133.34 C67.681 133.828 67.046 134.317 66.391 134.82 C46.756 149.822 25.18 161.531 3.574 173.391 C-25.975 189.61 -55.213 206.356 -80.227 229.199 C-82.324 231.097 -84.458 232.932 -86.625 234.75 C-89.562 237.312 -89.562 237.312 -90.562 239.312 C-91.222 238.982 -91.882 238.653 -92.562 238.312 C-84.105 219.631 -74.69 202.145 -61.562 186.312 C-61.097 185.751 -60.632 185.19 -60.153 184.611 C-37.654 157.639 -8.589 125.779 28.438 121.312 C32.103 121.079 35.763 120.879 39.434 120.754 C42.438 120.312 42.438 120.312 44.285 119.02 C46.334 115.984 46.791 112.934 46.438 109.312 C43.609 105.486 40.885 103.786 36.438 102.312 C12.567 99.453 -12.773 114.144 -30.938 128.375 C-35.12 131.856 -39.167 135.486 -43.184 139.156 C-45.338 141.109 -47.533 142.995 -49.75 144.875 C-53.758 148.381 -57.134 152.248 -60.562 156.312 C-61.444 157.322 -62.327 158.329 -63.211 159.336 C-97.62 198.666 -121.164 244.599 -133.562 295.312 C-133.767 296.124 -133.972 296.935 -134.183 297.771 C-146.631 347.696 -142.434 398.995 -133.934 449.118 C-132.828 455.651 -131.737 462.186 -130.659 468.723 C-130.259 471.13 -129.851 473.536 -129.442 475.941 C-128.245 483.106 -127.205 490.021 -127.562 497.312 C-136.116 497.645 -143.56 497.506 -151.562 494.312 C-152.16 494.162 -152.16 494.162 -155.184 493.398 C-159.001 491.042 -159.157 490.596 -160.164 486.465 C-160.537 484.399 -160.875 482.326 -161.188 480.25 C-161.584 477.96 -161.981 475.669 -162.379 473.379 C-162.572 472.202 -162.766 471.025 -162.965 469.813 C-163.528 466.514 -164.163 463.242 -164.84 459.965 C-185.259 360.893 -173.586 258.604 -117.441 172.621 C-110.671 162.423 -103.522 152.627 -95.562 143.312 C-94.926 142.564 -94.289 141.815 -93.633 141.043 C-82.176 127.959 -69.899 115.23 -55.562 105.312 C-54.493 104.56 -53.423 103.807 -52.32 103.031 C-29.787 87.616 -2.724 77.69 24.859 81.661 C30.831 82.824 36.611 84.471 42.188 86.922 C45.684 88.418 47.688 88.883 51.438 88.312 C54.312 86.75 54.312 86.75 56.438 84.312 C57.062 80.875 57.062 80.875 56.438 77.312 C49.352 68.351 37.81 64.37 26.828 62.629 C-0.42 60.086 -24.696 66.363 -48.562 79.312 C-48.867 79.474 -48.867 79.474 -50.406 80.289 C-59.519 85.13 -67.592 90.811 -75.562 97.312 C-76.576 98.121 -77.589 98.929 -78.633 99.762 C-92.191 110.757 -105.065 123.359 -115.562 137.312 C-116.051 137.941 -116.539 138.569 -117.042 139.216 C-127.403 152.552 -136.189 166.659 -144.562 181.312 C-144.786 181.703 -144.786 181.703 -145.917 183.679 C-159.784 208.171 -169.419 234.865 -178.312 261.488 C-190.281 297.267 -206.31 329.144 -231.244 357.686 C-260.104 390.732 -260.104 390.732 -260.684 407.898 C-260.821 411.815 -261.058 414.68 -262.562 418.312 C-266.536 421.828 -271.658 423.635 -276.551 425.516 C-279.313 426.609 -281.927 427.946 -284.562 429.312 C-285.896 429.979 -287.229 430.646 -288.562 431.312 C-289.196 430.129 -289.818 428.941 -290.438 427.75 C-290.786 427.089 -291.134 426.427 -291.492 425.746 C-296.756 413.777 -296.179 398.181 -292.074 385.926 C-286.251 372.007 -278.443 359.458 -269.562 347.312 C-269.292 346.941 -269.292 346.941 -267.921 345.063 C-263.265 338.7 -258.581 332.357 -253.865 326.039 C-228.804 292.415 -211.537 254.69 -197.02 215.545 C-187.063 188.709 -176.114 161.86 -159.562 138.312 C-159.06 137.591 -158.558 136.87 -158.041 136.127 C-150.455 125.313 -142.339 115.439 -133.131 105.978 C-131.485 104.23 -129.928 102.427 -128.379 100.594 C-126.376 98.229 -124.373 96.067 -122 94.062 C-121.314 93.482 -120.628 92.902 -119.922 92.305 C-119.533 91.976 -119.533 91.976 -117.562 90.312 C-116.66 89.511 -115.758 88.709 -114.828 87.883 C-101.117 75.793 -85.78 65.714 -69.562 57.312 C-69.234 57.141 -69.234 57.141 -67.574 56.271 C-35.616 39.741 1.003 33.658 35.938 44.062 C43.499 46.823 49.92 51.364 56.25 56.25 C59.758 58.52 61.354 58.869 65.438 58.312 C68.438 57.312 68.438 57.312 69.625 55.125 C70.821 50.985 70.821 47.718 69.688 43.562 C68.174 40.838 67.205 40.629 64.438 39.312 C62.678 38.203 60.928 37.077 59.188 35.938 C33.921 19.816 -0.527 16.895 -29.59 23.281 C-30.915 23.621 -32.239 23.965 -33.562 24.312 C-34.35 24.506 -35.138 24.699 -35.95 24.898 C-61.03 31.112 -85.576 42.169 -106.562 57.312 C-107.532 58.009 -108.501 58.705 -109.5 59.422 C-112.562 61.67 -115.57 63.973 -118.562 66.312 C-119.51 67.052 -120.457 67.792 -121.434 68.555 C-137.413 81.563 -152.448 96.641 -164.562 113.312 C-165.286 114.229 -166.009 115.146 -166.754 116.09 C-190.044 145.796 -203.527 180.89 -217.159 215.673 C-221.734 227.335 -226.411 238.927 -231.5 250.375 C-231.99 251.48 -232.48 252.585 -232.984 253.723 C-236.291 261.041 -236.291 261.041 -238.562 263.312 C-238.881 255.617 -237.959 248.484 -236.5 240.938 C-236.276 239.766 -236.052 238.594 -235.821 237.386 C-230.003 207.728 -221.784 178.58 -208.562 151.312 C-208.402 150.976 -208.402 150.976 -207.587 149.275 C-189.315 111.231 -163.398 76.023 -129.562 50.312 C-129.087 49.928 -129.087 49.928 -126.68 47.984 C-98.532 25.551 -65.007 8.984 -29.562 2.312 C-28.599 2.128 -27.635 1.943 -26.642 1.753 C-17.75 0.205 -8.994 -0.047 0 0 Z " fill="#E5DCD3" transform="translate(433.5625,46.6875)"  clip-path="url(#hair-clip)"/>
  <path d="M0 0 C-0.814 5.293 -0.814 5.293 -1.492 7.873 C-3.208 14.476 -3.264 20.833 -3.188 27.625 C-3.187 28.718 -3.186 29.811 -3.186 30.938 C-3.156 36.411 -2.783 41.581 -2 47 C-1.828 50.917 -1.815 54.83 -1.812 58.75 C-1.8 59.771 -1.788 60.792 -1.775 61.844 C-1.736 82.282 -8.267 100.529 -22.383 115.523 C-29.708 122.455 -37.871 128.55 -46.426 133.879 C-48 135 -48 135 -49 137 C-49.359 140.307 -49.442 142.278 -47.684 145.148 C-43.385 148.114 -38.854 147.679 -33.75 147.75 C-32.719 147.78 -31.688 147.809 -30.625 147.84 C-28.083 147.91 -25.542 147.963 -23 148 C-23 148.66 -23 149.32 -23 150 C-21.84 150.085 -20.68 150.17 -19.484 150.258 C-14.81 150.845 -11.304 152.562 -7.25 154.875 C-6.604 155.227 -5.958 155.579 -5.293 155.941 C1.208 159.532 1.208 159.532 4 162 C4 162.66 4 163.32 4 164 C4.583 164.242 5.165 164.485 5.766 164.734 C12.52 168.56 16.702 176.863 20.5 183.438 C20.85 184.04 21.201 184.643 21.562 185.265 C23.129 188.064 24 189.738 24 193 C24.66 193 25.32 193 26 193 C26.291 193.639 26.583 194.278 26.883 194.937 C39.754 222.994 39.754 222.994 47.727 229.082 C48.102 229.398 48.102 229.398 50 231 C50 231.99 50 232.98 50 234 C44.629 236.209 39.8 236.322 34.09 236.336 C33.127 236.343 32.164 236.349 31.173 236.356 C29.131 236.366 27.089 236.371 25.048 236.371 C21.999 236.375 18.952 236.411 15.904 236.449 C-3.381 236.561 -21.278 233.726 -39 226 C-40.043 225.549 -41.086 225.098 -42.16 224.633 C-50.49 220.748 -57.7 215.519 -65 210 C-65.69 209.51 -66.379 209.02 -67.09 208.516 C-76.213 201.561 -82.365 189.798 -87.957 179.975 C-92.741 171.682 -92.741 171.682 -97.227 170.328 C-105.33 170.064 -109.223 173.717 -115 179 C-122.246 185.014 -130.034 190.014 -138 195 C-138.786 195.513 -139.573 196.026 -140.383 196.555 C-163.889 211.468 -191.77 221.611 -218.825 227.499 C-221.919 228.212 -224.954 229.107 -228 230 C-234.154 231.546 -240.393 232.35 -246.688 233.062 C-247.034 233.102 -247.034 233.102 -248.788 233.303 C-262.069 234.731 -275.313 235.211 -288.66 235.24 C-291.299 235.25 -293.937 235.281 -296.576 235.312 C-308.036 235.383 -318.766 234.199 -330 232 C-332.354 231.602 -334.708 231.206 -337.062 230.812 C-344.166 229.364 -351.029 227.249 -357.938 225.062 C-359.004 224.726 -360.071 224.39 -361.17 224.044 C-366.349 222.362 -371.212 220.544 -376.021 217.991 C-378.242 216.879 -380.498 215.991 -382.816 215.102 C-388.404 212.914 -393.647 210.195 -398.938 207.375 C-399.403 207.13 -399.403 207.13 -401.76 205.891 C-405.276 204.032 -408.688 202.208 -412 200 C-412 199.34 -412 198.68 -412 198 C-412.274 197.962 -412.274 197.962 -413.66 197.77 C-416.869 196.714 -418.867 194.866 -421.438 192.688 C-421.901 192.298 -421.901 192.298 -424.246 190.324 C-425.155 189.557 -426.064 188.79 -427 188 C-427.47 187.642 -427.47 187.642 -429.848 185.832 C-430.558 185.227 -431.268 184.623 -432 184 C-432 183.34 -432 182.68 -432 182 C-432.556 181.776 -433.111 181.551 -433.684 181.32 C-444.196 175.328 -451.57 161.892 -458 152 C-458.598 151.104 -459.196 150.208 -459.812 149.285 C-464.269 142.311 -467.195 134.746 -470 127 C-470.231 126.374 -470.462 125.747 -470.7 125.102 C-483.701 89.242 -482.384 39.807 -467 5 C-466.34 4.01 -465.68 3.02 -465 2 C-456.022 2.863 -447.493 4.996 -439.08 8.219 C-435.671 9.499 -432.21 10.616 -428.75 11.75 C-398.646 21.73 -398.646 21.73 -388 27 C-386.736 27.602 -385.472 28.204 -384.207 28.805 C-374.878 33.293 -366.07 38.195 -357.918 44.648 C-353.632 48.028 -353.632 48.028 -350.137 47.871 C-346.489 46.858 -344.587 45.417 -341.688 43 C-328.996 33.09 -314.28 26.941 -299.055 22.027 C-296.902 21.303 -294.766 20.527 -292.645 19.715 C-288.619 18.191 -284.543 16.827 -280.457 15.477 C-280.11 15.362 -280.11 15.362 -278.352 14.78 C-275.449 13.822 -272.545 12.865 -269.64 11.912 C-261.172 9.13 -252.81 6.245 -244.546 2.896 C-242 2 -242 2 -239 2 C-232.081 19.702 -228.375 37.997 -226.523 56.848 C-222.121 101.188 -222.121 101.188 -214 117 C-213.791 117.416 -213.791 117.416 -212.734 119.523 C-204.49 134.543 -190.608 146.775 -174.207 151.867 C-164.968 154.485 -156.453 155.182 -146.875 155.188 C-145.715 155.2 -144.555 155.212 -143.359 155.225 C-135.703 155.237 -128.502 154.51 -121 153 C-120.531 152.907 -120.531 152.907 -118.16 152.434 C-117.447 152.291 -116.734 152.148 -116 152 C-116 151.34 -116 150.68 -116 150 C-115.639 149.876 -115.639 149.876 -113.812 149.25 C-107.826 146.589 -105.144 143.078 -102.312 137.25 C-102.022 136.665 -102.022 136.665 -100.551 133.703 C-97.423 126.669 -96.486 119.184 -95.438 111.625 C-95.189 109.846 -94.938 108.067 -94.684 106.289 C-94.63 105.901 -94.63 105.901 -94.357 103.936 C-94 102 -94 102 -93 100 C-92.779 98.189 -92.574 96.376 -92.375 94.562 C-88.818 71.186 -75.521 51.999 -61 34 C-60.564 33.45 -60.128 32.9 -59.678 32.333 C-46.742 16.308 -21.274 -0.836 0 0 Z " fill="#411B72" transform="translate(860,714)" />
  <path d="M0 0 C44.66 7.289 92.758 7.604 137.112 -1.409 C144.701 -2.847 149.717 0.134 155.909 4.313 C160.479 7.563 164.854 10.943 169.112 14.591 C169.945 15.289 170.778 15.988 171.635 16.708 C177.902 22.126 183.034 28.064 188.112 34.591 C188.95 35.651 189.788 36.711 190.628 37.771 C195.829 44.346 200.966 50.972 206.112 57.591 C207.89 59.877 209.669 62.162 211.447 64.448 C212.976 66.416 214.501 68.386 216.026 70.356 C222.47 78.657 229.166 86.706 236.112 94.591 C236.587 95.13 237.061 95.669 237.551 96.225 C247.7 107.69 259.087 117.333 271.001 126.896 C273.139 128.612 275.272 130.334 277.405 132.056 C278.765 133.151 280.126 134.246 281.487 135.341 C282.123 135.854 282.76 136.368 283.416 136.897 C287.881 140.475 287.881 140.475 290.112 141.591 C290.112 142.251 290.112 142.911 290.112 143.591 C291.102 143.921 292.092 144.251 293.112 144.591 C296.209 148.167 297.976 151.591 298.612 156.278 C298.063 159.914 297.463 161.77 295.112 164.591 C289.274 168.824 282.775 168.041 275.928 167.38 C269.969 166.366 264.742 163.671 259.427 160.891 C256.57 159.453 254.511 158.576 251.284 158.696 C249.112 159.591 249.112 159.591 247.112 162.591 C246.733 165.255 246.733 165.255 246.55 168.216 C246.21 173.493 246.21 173.493 245.112 174.591 C239.343 174.591 236.265 172.79 232.085 168.884 C229.084 165.396 227.035 161.472 224.823 157.454 C222.033 152.785 218.39 149.524 214.28 146.036 C205.337 138.423 197.784 129.715 190.675 120.403 C190.179 119.763 189.683 119.122 189.172 118.462 C182.594 109.66 180.34 100.937 178.425 90.216 C176.166 78.296 173.496 66.531 170.487 54.778 C170.299 54.032 170.111 53.286 169.918 52.517 C165.289 34.19 165.289 34.19 162.112 29.591 C158.862 28.528 158.862 28.528 156.112 28.591 C153.903 31.905 153.887 32.935 153.987 36.778 C154.005 37.679 154.023 38.58 154.042 39.509 C154.065 40.196 154.088 40.883 154.112 41.591 C153.79 41.397 153.79 41.397 152.163 40.419 C136.605 31.452 119.253 27.88 101.612 32.091 C86.333 36.662 72.757 44.878 64.112 58.591 C60.88 57.209 59.197 55.723 57.05 52.966 C48.028 42.344 35.445 35.956 22.112 32.591 C21.357 32.385 20.601 32.178 19.823 31.966 C3.955 28.145 -10.68 30.817 -24.888 38.591 C-25.218 38.756 -25.218 38.756 -26.888 39.591 C-27.218 35.961 -27.548 32.331 -27.888 28.591 C-31.138 28.653 -31.138 28.653 -34.888 29.591 C-39.173 35.589 -41.056 42.543 -43.2 49.528 C-43.589 50.784 -43.977 52.039 -44.376 53.332 C-48.102 65.613 -50.863 78.077 -53.478 90.634 C-53.728 91.833 -53.977 93.032 -54.235 94.267 C-54.637 96.312 -55.004 98.365 -55.315 100.426 C-56.333 106.944 -58.751 111.153 -62.763 116.341 C-63.343 117.114 -63.923 117.887 -64.521 118.683 C-66.284 121.007 -68.077 123.304 -69.888 125.591 C-70.148 125.919 -70.148 125.919 -71.463 127.58 C-79.147 137.151 -87.703 146.257 -97.587 153.595 C-100.183 155.847 -101.288 157.817 -102.763 160.903 C-105.975 167.055 -109.312 172.422 -116.138 174.653 C-118.888 174.591 -118.888 174.591 -121.888 172.591 C-122.101 169.758 -121.881 167.052 -121.7 164.22 C-121.888 161.591 -121.888 161.591 -123.013 159.681 C-124.888 158.591 -124.888 158.591 -127.568 158.685 C-131.593 159.783 -135.232 161.344 -139.013 163.091 C-140.41 163.729 -141.808 164.365 -143.208 164.997 C-143.819 165.279 -144.431 165.56 -145.06 165.851 C-151.991 168.658 -160.509 168.756 -167.513 166.341 C-172.57 162.615 -172.57 162.615 -173.204 158.579 C-173.495 153.065 -172.476 148.885 -168.888 144.591 C-163.093 138.665 -156.545 133.744 -149.892 128.833 C-142.107 123.022 -134.794 116.748 -127.771 110.044 C-124.101 106.591 -124.101 106.591 -121.888 106.591 C-121.642 106.015 -121.396 105.438 -121.142 104.845 C-119.686 102.228 -118.002 100.582 -115.825 98.528 C-108.173 91.034 -101.775 82.484 -95.185 74.065 C-91.283 69.08 -87.333 64.135 -83.369 59.199 C-80.465 55.578 -77.591 51.935 -74.743 48.27 C-62.051 31.964 -48.853 16.598 -31.888 4.591 C-30.863 3.86 -29.838 3.129 -28.782 2.376 C-27.786 1.725 -26.79 1.074 -25.763 0.403 C-24.894 -0.168 -24.025 -0.739 -23.13 -1.327 C-15.83 -3.763 -7.43 -1.228 0 0 Z " fill="#874725" transform="translate(445.887939453125,573.4091796875)" />
  <path d="M0 0 C8.454 6.098 13.423 13.449 15.453 23.77 C16.813 38.914 11.629 50.804 3.805 63.43 C3.276 64.284 2.748 65.139 2.203 66.02 C1.724 66.767 1.244 67.515 0.75 68.285 C-6.698 82.554 -1.808 98.398 2.453 112.77 C6.805 127.73 10.6 141.16 3.387 155.957 C-1.352 164.214 -7.894 168.893 -16.984 171.457 C-25.474 172.492 -32.965 171.459 -40.422 167.082 C-44.664 162.466 -46.771 157.953 -47.047 151.645 C-46.833 146.993 -45.729 144.286 -42.547 140.77 C-38.414 137.117 -35.073 136.05 -29.676 136.324 C-27.547 136.77 -27.547 136.77 -24.422 138.832 C-22.547 141.77 -22.547 141.77 -22.422 145.395 C-23.547 148.77 -23.547 148.77 -26.109 150.707 C-26.914 151.058 -27.718 151.408 -28.547 151.77 C-28.234 154.145 -28.234 154.145 -27.547 156.77 C-24.547 158.77 -24.547 158.77 -21.109 158.645 C-17.138 157.669 -15.942 157.02 -13.547 153.77 C-10.372 148.187 -9.942 143.864 -11.547 137.77 C-14.614 131.39 -19.715 128.692 -25.82 125.629 C-34.361 121.257 -39.673 115.385 -42.887 106.273 C-44.966 98.388 -43.366 91.87 -39.547 84.77 C-37.028 80.982 -34.318 77.374 -31.547 73.77 C-29.398 70.546 -29.164 69.502 -29.547 65.77 C-32.002 63.314 -32.799 63.53 -36.172 63.395 C-42.456 62.887 -46.94 60.595 -52.047 57.02 C-55.542 55.272 -58.754 55.204 -62.547 55.77 C-64.887 56.755 -67.22 57.754 -69.547 58.77 C-73.676 59.268 -75.759 59.198 -79.422 57.207 C-82.161 54.066 -82.471 51.891 -82.547 47.77 C-79.917 45.14 -78.582 45.515 -74.922 45.395 C-69.342 44.986 -64.991 44.297 -60.547 40.77 C-57.134 35.65 -55.443 29.664 -53.672 23.832 C-50.47 13.843 -46.396 5.847 -37.547 -0.23 C-36.96 -0.644 -36.374 -1.058 -35.77 -1.484 C-25.384 -7.386 -9.914 -5.912 0 0 Z " fill="#F9A63E" transform="translate(733.546875,462.23046875)" />
  <path d="M0 0 C0.454 0.361 0.454 0.361 2.75 2.188 C3.384 2.645 4.018 3.103 4.672 3.574 C14.192 10.965 18.392 22.952 20.305 34.551 C22.271 50.609 20.292 67.69 10.75 81.188 C5.007 88.455 -3.408 94.37 -12.648 95.938 C-27.343 97.35 -38.935 95.651 -50.773 86.457 C-58.881 79.027 -64.68 68.11 -66.25 57.188 C-66.306 51.273 -66.009 45.356 -65.645 39.453 C-65.383 30.442 -65.383 30.442 -67.987 26.672 C-70.148 24.562 -70.148 24.562 -72.318 22.836 C-75.573 20.058 -76.192 17.85 -76.562 13.625 C-76.25 10.188 -76.25 10.188 -75.062 8.25 C-72.583 6.797 -71.093 6.845 -68.25 7.188 C-66.23 8.938 -66.23 8.938 -64.438 11.188 C-63.833 11.93 -63.228 12.673 -62.605 13.438 C-62.158 14.015 -61.711 14.592 -61.25 15.188 C-58.804 12.81 -56.492 10.513 -54.457 7.77 C-40.957 -8.024 -17.339 -9.67 0 0 Z " fill="#151209" transform="translate(414.25,360.8125)" />
  <path d="M0 0 C0.33 0 0.66 0 1 0 C0.998 0.578 0.996 1.155 0.993 1.75 C0.971 7.885 0.956 14.019 0.945 20.154 C0.94 22.429 0.933 24.703 0.925 26.978 C0.848 47.415 1.073 67.676 3.938 87.938 C4.107 89.191 4.277 90.445 4.451 91.736 C5.137 96.798 5.837 101.858 6.559 106.915 C9.438 127.523 7.583 145.761 3 166 C2.733 167.185 2.466 168.369 2.19 169.59 C0.9 175.28 -0.418 180.963 -1.766 186.641 C-4.872 199.914 -4.38 211.02 -1.5 224.25 C4.394 251.824 4.394 251.824 -2.523 263.09 C-6.814 268.641 -12.381 271.904 -19 274 C-21.453 274.283 -23.524 274.211 -26 274 C-25.412 270.493 -24.451 267.644 -22.938 264.438 C-19.919 256.997 -19.767 249.553 -22.562 242 C-24.713 237.217 -27.417 232.774 -30.219 228.348 C-34.891 219.567 -36.7 211.736 -36.562 201.812 C-36.554 200.688 -36.545 199.564 -36.536 198.406 C-36.255 186.571 -33.898 175.434 -31 164 C-30.53 162.1 -30.059 160.201 -29.59 158.301 C-28.944 155.698 -28.292 153.098 -27.613 150.504 C-27.514 150.127 -27.514 150.127 -27.016 148.215 C-26.843 147.566 -26.671 146.918 -26.493 146.25 C-25.221 140.446 -24.842 134.737 -24.832 128.812 C-24.828 128.042 -24.824 127.271 -24.82 126.478 C-24.81 123.985 -24.81 121.493 -24.812 119 C-24.812 118.571 -24.812 118.571 -24.81 116.398 C-24.811 106.775 -24.927 97.261 -26 87.688 C-27.107 77.558 -27.288 67.441 -27.354 57.26 C-27.368 55.392 -27.388 53.524 -27.416 51.657 C-27.452 49.019 -27.46 46.384 -27.461 43.746 C-27.475 42.953 -27.49 42.161 -27.504 41.344 C-27.439 33.337 -23.276 29.106 -17.875 23.5 C-11.055 16.273 -5.503 8.254 0 0 Z " fill="#2B84A6" transform="translate(241,382)" />
  <path d="M0 0 C4.939 3.849 9.413 7.86 12.938 13.062 C13.618 14.032 14.299 15.001 15 16 C15.99 16 16.98 16 18 16 C18.124 15.629 18.124 15.629 18.75 13.75 C20.136 10.701 21.351 9.044 24 7 C26.625 6.625 26.625 6.625 29 7 C31 9 31 9 31.5 11.562 C30.597 17.768 26.709 22.509 22.062 26.562 C21.382 27.367 20.701 28.171 20 29 C20.187 30.94 20.387 32.882 20.683 34.808 C22.783 49.322 20.943 65.555 12.613 77.895 C5.578 87.076 -3.779 92.985 -15.383 94.746 C-27.312 95.903 -36.897 94.867 -47.016 87.934 C-56.941 79.703 -62.465 68.796 -64 56 C-64.206 54.742 -64.413 53.484 -64.625 52.188 C-66.225 37.062 -64.593 21.376 -55 9 C-41.11 -7.973 -18.521 -12.027 0 0 Z " fill="#151209" transform="translate(649,362)" />
  <path d="M0 0 C2.81 1.252 4.18 3.506 6.086 5.844 C17.394 18.041 35.142 25.011 51.496 26.117 C65.354 26.384 79.541 24.412 90.973 15.879 C98.687 8.45 98.687 8.45 100.973 3.879 C101.633 3.879 102.293 3.879 102.973 3.879 C105.306 13.212 107.639 22.546 109.973 31.879 C107.661 32.569 105.348 33.256 103.035 33.941 C102.282 34.165 101.528 34.388 100.751 34.618 C96.255 35.942 91.749 37.222 87.227 38.453 C27.003 54.871 27.003 54.871 6.941 70.457 C2.463 73.911 2.463 73.911 -0.359 73.727 C-3.59 72.7 -6.004 71.177 -8.84 69.316 C-38.972 50.252 -74.556 40.641 -109.027 32.879 C-110.31 29.241 -109.737 26.716 -108.812 23.02 C-108.676 22.462 -108.676 22.462 -107.982 19.641 C-107.688 18.482 -107.393 17.323 -107.09 16.129 C-106.799 14.955 -106.508 13.78 -106.209 12.57 C-105.49 9.671 -104.763 6.774 -104.027 3.879 C-100.475 5.063 -100.04 5.996 -97.965 9.004 C-90.015 19.465 -78.821 24.118 -66.027 25.879 C-46.836 27.239 -27.219 22.019 -12.289 9.602 C-5.821 3.827 -5.821 3.827 -3.492 1.047 C-2.027 -0.121 -2.027 -0.121 0 0 Z " fill="#874725" transform="translate(509.02734375,672.12109375)" />
  <path d="M0 0 C2.837 1.023 3.827 1.663 5.23 4.391 C5.546 5.334 5.862 6.278 6.188 7.25 C6.511 8.183 6.835 9.117 7.168 10.078 C8.724 15.543 9.128 20.703 9.133 26.375 C9.134 27.063 9.135 27.75 9.136 28.458 C9.136 29.904 9.135 31.349 9.13 32.795 C9.125 34.994 9.13 37.192 9.137 39.391 C9.136 40.802 9.135 42.214 9.133 43.625 C9.132 44.896 9.131 46.167 9.129 47.477 C9.009 50.755 8.573 53.776 8 57 C5.872 81.106 10.178 103.631 15.515 127.05 C20.343 148.454 19.68 168.248 8.262 187.271 C2.63 196.675 0.574 204.902 2 216 C3.419 220.6 5.633 224.822 8 229 C0.863 229.661 -4.033 227.968 -10 224 C-15.345 219.283 -18.485 213.598 -19.504 206.477 C-19.693 194.033 -16.91 182.675 -13.664 170.706 C-10.52 157.896 -11.978 145.536 -15.578 132.984 C-16.194 130.087 -16.199 127.207 -16.312 124.25 C-16.708 118.192 -17.782 114.084 -21 109 C-23.431 104.589 -24.497 101.027 -25 96 C-19.25 92 -19.25 92 -17 92 C-16.732 91.464 -16.464 90.928 -16.188 90.375 C-15.287 88.575 -14.367 86.785 -13.438 85 C-11.123 80.17 -10.486 76.397 -11 71 C-11.806 69.145 -12.665 67.312 -13.562 65.5 C-15.922 60.668 -16.532 58.143 -15 53 C-14.67 52.34 -14.34 51.68 -14 51 C-13.87 48.751 -13.771 46.501 -13.688 44.25 C-13.307 38.476 -12.547 35.63 -9 31 C-5.045 22.664 -3.056 14.269 -1.578 5.238 C-1 2 -1 2 0 0 Z " fill="#2B84A6" transform="translate(792,425)" />
  <path d="M0 0 C7.365 5.377 14.896 12.246 18 21 C19.125 29.031 15.132 36.359 11 43 C9.113 45.38 7.369 47.062 5 49 C4.34 49 3.68 49 3 49 C3 49.66 3 50.32 3 51 C-8.324 60.086 -22.828 63.436 -37 62 C-43.395 60.905 -49.388 59.341 -55 56 C-56.011 55.402 -57.021 54.804 -58.062 54.188 C-64.939 49.067 -69.896 41.641 -71.68 33.223 C-73.116 23.253 -71.516 14.86 -66.312 6.188 C-47.551 -11.559 -21.603 -13.933 0 0 Z " fill="#411B72" transform="translate(484,624)" />
  <path d="M0 0 C0.89 -0.016 1.78 -0.032 2.697 -0.049 C10.835 -0.055 17.596 1.872 24.625 6 C25.002 6.218 25.002 6.218 26.91 7.324 C27.455 7.65 28.001 7.976 28.562 8.312 C28.562 8.972 28.562 9.633 28.562 10.312 C29.158 10.568 29.754 10.823 30.367 11.086 C35.134 13.749 38.438 18.931 39.938 24.125 C42.094 35.326 40.303 45.557 34.562 55.312 C32.438 58.312 32.438 58.312 30.562 60.312 C29.903 60.312 29.243 60.312 28.562 60.312 C28.562 60.972 28.562 61.633 28.562 62.312 C16.832 70.164 3.775 71.533 -9.812 69.062 C-24.687 65.989 -35.175 59.488 -44.438 47.312 C-47.62 42.357 -48.506 37.054 -47.438 31.312 C-42.747 18.004 -33.804 10.654 -21.965 3.941 C-14.606 0.543 -7.988 -0.029 0 0 Z " fill="#411B72" transform="translate(563.4375,615.6875)" />
  <path d="M0 0 C0.33 0 0.66 0 1 0 C1 2.64 1 5.28 1 8 C1.66 8 2.32 8 3 8 C3 8.66 3 9.32 3 10 C3.672 10.248 4.343 10.495 5.035 10.75 C9.318 12.556 13.321 14.828 17.385 17.078 C21.178 19.142 24.837 20.765 29 22 C28.711 22.739 28.423 23.477 28.125 24.238 C23.694 36.348 23.93 46.041 29 58 C31.078 61.55 33.473 64.759 36 68 C44.053 78.731 49.282 89.301 48 103 C46.433 111.253 42.818 117.217 37.53 123.548 C32.627 129.418 31.619 133.762 31.73 141.262 C32.102 145.037 33.223 147.669 35 151 C30.366 150.889 27 150.733 23.188 147.938 C18.029 141.01 16.095 135.701 17 127 C17.311 125.204 17.645 123.413 18 121.625 C20.512 108.813 18.956 97.975 12.012 86.902 C8.941 82.473 5.666 78.193 2.315 73.972 C-5.698 63.652 -8.487 52.956 -7 40 C-5.941 34.461 -4.573 29 -3.218 23.527 C-1.285 15.622 -0.03 8.169 0 0 Z " fill="#318AAB" transform="translate(833,461)" />
  <path d="M0 0 C0.392 0.134 0.392 0.134 2.375 0.812 C2.973 1.008 2.973 1.008 6 2 C6.352 2.126 6.352 2.126 8.133 2.766 C15.346 5.194 22.426 5.683 30 6 C30.33 5.34 30.66 4.68 31 4 C35.757 37.375 36.71 72.651 30.461 105.865 C30.28 106.831 30.1 107.798 29.914 108.793 C29.746 109.666 29.578 110.539 29.405 111.438 C28.45 117.483 28.632 122.983 30.25 128.875 C31.184 132.664 31.184 132.664 29.562 135.625 C25.907 137.586 23.961 137.093 20 136 C12.471 132.005 7.787 125.92 5 118 C4.22 114.677 3.872 111.601 3.867 108.191 C3.865 107.287 3.863 106.383 3.861 105.451 C3.866 104.498 3.87 103.545 3.875 102.562 C3.877 101.572 3.879 100.581 3.881 99.561 C3.911 94.35 4.058 89.194 4.5 84 C5.745 68.398 5.003 52.997 3.625 37.438 C3.593 37.078 3.593 37.078 3.434 35.256 C2.701 27.033 1.77 18.881 0.393 10.736 C-0.128 7.105 -0.144 3.66 0 0 Z " fill="#2982A5" transform="translate(276,538)" />
  <path d="M0 0 C0.33 0 0.66 0 1 0 C1.014 0.969 1.028 1.939 1.043 2.938 C1.388 14.482 3.966 24.348 8.219 35.074 C10.491 41.022 11.403 46.365 11.5 52.688 C11.518 53.376 11.537 54.065 11.556 54.775 C11.44 64.41 6.196 71.583 0.562 79 C-8.127 90.519 -14.219 100.313 -12.492 115.199 C-11.979 118.119 -11.256 120.901 -10.438 123.75 C-8.447 130.697 -8.196 135.721 -11.73 142.129 C-13.836 145.232 -15.809 146.981 -19 149 C-21.875 148.812 -21.875 148.812 -24 148 C-23.84 147.438 -23.68 146.876 -23.516 146.297 C-21.965 139.389 -22.38 132.154 -26 126 C-27.445 124.16 -28.928 122.35 -30.438 120.562 C-37.544 112.102 -39.801 105.967 -39.434 94.758 C-38.379 85.614 -33.827 78.621 -28.938 71.062 C-21.894 60.132 -18.21 49.176 -20 36 C-21.137 32.453 -22.448 29.124 -24.004 25.742 C-25.092 22.747 -25.193 21.879 -24 19 C-22.222 17.751 -22.222 17.751 -19.922 16.711 C-19.506 16.519 -19.506 16.519 -17.402 15.547 C-16.527 15.16 -15.652 14.773 -14.75 14.375 C-13.89 13.981 -13.03 13.586 -12.145 13.18 C-8.136 11.351 -4.114 9.581 0 8 C0 5.36 0 2.72 0 0 Z " fill="#318AAC" transform="translate(171,457)" />
  <path d="M0 0 C0.33 0 0.66 0 1 0 C0.999 0.289 0.999 0.289 0.993 1.75 C0.971 7.885 0.956 14.019 0.945 20.154 C0.94 22.429 0.933 24.703 0.925 26.978 C0.848 47.415 1.073 67.676 3.938 87.938 C4.107 89.191 4.277 90.445 4.451 91.736 C5.137 96.798 5.833 101.857 6.57 106.911 C7.597 114.142 8.282 121.135 8.125 128.438 C8.116 129.276 8.107 130.115 8.098 130.979 C8.075 132.986 8.039 134.993 8 137 C1.938 136.457 -3.345 135.596 -8.987 133.206 C-12 132 -12 132 -14.861 131.264 C-18.492 130 -20.391 128.865 -23 126 C-25.559 118.815 -25.356 110.724 -25.688 103.188 C-25.821 100.945 -25.958 98.702 -26.098 96.46 C-26.496 89.643 -26.771 82.825 -27 76 C-27.018 75.475 -27.018 75.475 -27.107 72.817 C-27.32 66.128 -27.445 59.442 -27.5 52.75 C-27.505 52.317 -27.505 52.317 -27.533 50.123 C-27.556 47.68 -27.55 45.24 -27.531 42.797 C-27.535 42.443 -27.535 42.443 -27.555 40.654 C-27.412 33 -22.931 28.748 -17.875 23.5 C-11.055 16.273 -5.503 8.254 0 0 Z " fill="#E5DCD3" transform="translate(241,382)" />
  <path d="M0 0 C6.352 5.386 6.352 5.386 9.199 8.086 C14.533 13.111 20.037 17.183 26.266 20.993 C32.381 24.744 32.381 24.744 34 27 C34.908 31.258 34.881 35.655 35 40 C35.022 40.783 35.044 41.567 35.066 42.374 C35.446 58.688 34.278 74.193 30.688 90.125 C30.499 90.99 30.311 91.855 30.116 92.746 C27.858 102.126 22.63 108.746 16.562 116.062 C16.289 116.397 16.289 116.397 14.904 118.088 C13.279 120.067 11.64 122.034 10 124 C9.723 124.339 9.723 124.339 8.324 126.054 C7.793 126.695 7.262 127.336 6.715 127.996 C6.24 128.574 5.766 129.152 5.277 129.748 C4 131 4 131 2 131 C1.837 125.265 2.074 119.883 3.068 114.235 C8.342 83.128 5.418 50.348 1.71 19.234 C0.953 12.833 0.425 6.431 0 0 Z " fill="#328AAB" transform="translate(322,519)" />
  <path d="M0 0 C4.076 0.734 6.226 2.037 9 5 C8.651 5.808 8.301 6.616 7.941 7.449 C7.486 8.518 7.031 9.586 6.562 10.688 C6.11 11.743 5.658 12.799 5.191 13.887 C1.702 23.006 1.844 33.491 4.93 42.719 C6.441 45.939 8.503 48.493 10.891 51.113 C12 53 12 53 11.91 55.527 C10.822 58.483 9.703 59.402 7.188 61.25 C1.889 65.674 -0.485 70.031 -1.375 76.891 C-1.722 85.341 0.285 92.05 5.062 99 C7 101 7 101 10 103 C9.67 104.98 9.34 106.96 9 109 C2.558 104.098 -2.06 98.093 -6.809 91.622 C-7.903 90.133 -9.013 88.656 -10.125 87.18 C-10.744 86.337 -11.362 85.494 -12 84.625 C-12.536 83.895 -13.072 83.166 -13.625 82.414 C-21.472 68.637 -20.31 48.872 -20.375 33.5 C-20.383 32.721 -20.39 31.942 -20.398 31.139 C-20.416 28.894 -20.411 26.651 -20.398 24.406 C-20.395 23.1 -20.392 21.793 -20.388 20.447 C-19.974 16.773 -19.218 14.921 -17 12 C-14.258 9.902 -14.258 9.902 -11.125 7.938 C-8.023 5.974 -5.113 4.096 -2.312 1.719 C-1.549 1.152 -0.786 0.584 0 0 Z " fill="#338BAD" transform="translate(676,534)" />
  <path d="M0 0 C2.837 1.023 3.827 1.663 5.23 4.391 C5.546 5.334 5.862 6.278 6.188 7.25 C6.511 8.183 6.835 9.117 7.168 10.078 C9.262 17.432 9.186 24.723 9.185 32.301 C9.187 34.4 9.206 36.5 9.225 38.6 C9.258 46.769 8.679 54.554 7.479 62.645 C6.871 66.907 6.569 71.14 6.375 75.438 C6.336 76.181 6.298 76.924 6.258 77.689 C6.166 79.459 6.082 81.23 6 83 C5.34 82.34 4.68 81.68 4 81 C2.88 81.566 1.76 82.132 0.605 82.715 C-0.867 83.456 -2.34 84.197 -3.812 84.938 C-4.55 85.311 -5.288 85.684 -6.049 86.068 C-6.761 86.426 -7.473 86.784 -8.207 87.152 C-8.862 87.482 -9.516 87.812 -10.191 88.152 C-12 89 -12 89 -15 90 C-14.711 89.319 -14.423 88.639 -14.125 87.938 C-9.207 75.095 -9.207 75.095 -12.156 68.359 C-12.62 67.416 -13.084 66.472 -13.562 65.5 C-15.922 60.668 -16.532 58.143 -15 53 C-14.67 52.34 -14.34 51.68 -14 51 C-13.87 48.751 -13.771 46.501 -13.688 44.25 C-13.307 38.476 -12.547 35.63 -9 31 C-5.045 22.664 -3.056 14.269 -1.578 5.238 C-1 2 -1 2 0 0 Z " fill="#E4DCD3" transform="translate(792,425)" />
  <path d="M0 0 C6.323 4.834 9.265 11.193 10.488 18.902 C11.292 28.71 8.45 37.105 3.184 45.32 C1.488 46.902 1.488 46.902 -1.207 47.141 C-1.968 47.062 -2.728 46.983 -3.512 46.902 C-3.621 46.094 -3.731 45.286 -3.844 44.453 C-4.002 43.384 -4.161 42.316 -4.324 41.215 C-4.475 40.159 -4.626 39.103 -4.781 38.016 C-5.755 33.867 -7.091 31.032 -10.457 28.355 C-15.278 25.694 -19.239 24.311 -24.762 24.043 C-26.512 23.902 -26.512 23.902 -27.512 22.902 C-27.39 18.197 -27.009 13.515 -26.643 8.822 C-26.537 7.273 -26.491 5.72 -26.465 4.168 C-26.387 2.09 -26.387 2.09 -25.512 -1.098 C-17.277 -6.704 -8.127 -4.885 0 0 Z " fill="#874826" transform="translate(763.51171875,400.09765625)" />
  <path d="M0 0 C4.33 0.541 6.537 2.235 9.961 4.832 C16.455 8.938 22.407 9.902 30 9.75 C30.803 9.753 31.606 9.756 32.434 9.76 C42.299 9.672 48.874 6.927 57.352 1.898 C60.711 0.34 62.846 0.141 66.5 0.438 C67.979 3.395 67.936 5.14 67.5 8.438 C63.074 16.107 55.253 19.814 47.062 22.25 C33.859 25.201 17.949 25.053 6.062 18.062 C1.747 15.075 -2.883 11.613 -4.5 6.438 C-3.829 0.67 -3.829 0.67 0 0 Z " fill="#151108" transform="translate(476.5,485.5625)" />
  <path d="M0 0 C13.186 6.528 13.186 6.528 16.417 12.481 C16.73 16.106 16.73 16.106 16.417 19.481 C15.757 20.141 15.097 20.801 14.417 21.481 C9.045 21.373 5.776 19.702 1.456 16.817 C-0.532 15.514 -2.531 14.379 -4.645 13.293 C-5.234 12.99 -5.823 12.687 -6.43 12.375 C-14.232 9.133 -21.575 9.115 -29.928 9.002 C-30.883 8.976 -31.838 8.949 -32.821 8.922 C-33.688 8.909 -34.554 8.895 -35.447 8.881 C-36.152 8.749 -36.857 8.617 -37.583 8.481 C-39.583 5.481 -39.583 5.481 -39.52 3.043 C-38.011 -1.081 -35.113 -2.809 -31.227 -4.613 C-21.032 -8.107 -9.329 -4.459 0 0 Z " fill="#151108" transform="translate(640.582763671875,298.519287109375)" />
  <path d="M0 0 C2.316 3.474 2.596 4.914 2 9 C-2.213 12.571 -6.223 12.175 -11.438 11.875 C-24.132 11.534 -33.862 15.77 -44.379 22.742 C-47.454 24.218 -48.809 24.027 -52 23 C-52.843 20.303 -53.271 18.756 -53 16 C-47.606 6.376 -36.846 1.96 -26.859 -1.238 C-17.821 -3.646 -8.564 -4.4 0 0 Z " fill="#151208" transform="translate(411,296)" />
  <path d="M0 0 C1.49 0.664 2.969 1.353 4.438 2.062 C8.95 4.173 12.041 4.588 17 4 C17.681 3.484 18.361 2.969 19.062 2.438 C21 1 21 1 24.562 1.062 C28.446 2.122 29.006 2.66 31 6 C31.644 8.548 32 11.061 32.375 13.66 C33.099 16.37 33.767 17.332 36 19 C38.121 19.809 38.121 19.809 40.438 20.438 C44.234 21.641 46.713 22.569 49 26 C50.633 31.771 49.34 34.665 47 40 C46.173 46.412 47.59 49.396 50.871 54.836 C52.569 58.09 52.609 60.415 52 64 C50.312 67.375 50.312 67.375 48 70 C45.25 70.875 45.25 70.875 43 71 C43.082 70.505 43.082 70.505 43.5 68 C45.344 52.453 44.055 38.774 34.977 25.504 C27.502 16.035 17.863 10.209 6 8 C2.836 7.66 -0.321 7.499 -3.5 7.375 C-4.322 7.336 -5.145 7.298 -5.992 7.258 C-7.994 7.165 -9.997 7.081 -12 7 C-11.203 2.234 -11.203 2.234 -9.375 0.125 C-5.84 -1.549 -3.779 -0.929 0 0 Z " fill="#F2AD48" transform="translate(717,438)" />
  <path d="M0 0 C-0.404 9.488 -2.173 17.457 -8.938 24.438 C-16.173 31.033 -16.173 31.033 -21.5 30.938 C-25.245 29.934 -27.199 28.631 -30 26 C-29.477 23.237 -28.891 20.674 -28 18 C-27.777 15.941 -27.593 13.878 -27.438 11.812 C-27.396 11.269 -27.396 11.269 -27.184 8.52 C-27.153 8.104 -27.153 8.104 -27 6 C-25.949 5.902 -24.899 5.804 -23.816 5.703 C-16.587 4.958 -10.126 4.256 -3.602 0.805 C-2 0 -2 0 0 0 Z " fill="#1A7396" transform="translate(734,641)" />
  <path d="M0 0 C1.907 3.284 1.422 6.189 1.125 9.938 C-1.708 12.771 -4.828 13.048 -8.66 13.961 C-10.875 14.938 -10.875 14.938 -11.684 16.914 C-11.875 18.938 -11.875 18.938 -11.875 20.938 C-11.272 21.024 -10.668 21.11 -10.047 21.199 C-6.042 21.903 -3.487 22.402 -0.375 25.125 C1.417 28.485 1.982 31.14 2.125 34.938 C0.125 36.938 0.125 36.938 -1.828 37.02 C-6.683 36.45 -10.85 35.908 -14.875 32.938 C-19.032 24.771 -20.852 14.052 -19.875 4.938 C-15.695 -1.506 -6.641 -3.764 0 0 Z " fill="#F7AB43" transform="translate(760.875,540.0625)" />
  <path d="M0 0 C6.337 1.901 12.475 3.824 18.625 6.188 C19.343 6.46 20.061 6.733 20.801 7.014 C22.535 7.673 24.268 8.336 26 9 C24.493 12.792 22.333 14.545 19.125 17 C13.978 21.078 9.366 25.478 4.797 30.189 C3.547 31.475 2.275 32.739 1 34 C0.67 34 0.34 34 0 34 C0 22.78 0 11.56 0 0 Z " fill="#378EAF" transform="translate(374,555)" />
  <path d="M0 0 C3.436 2.735 4.672 4.168 5.438 8.445 C5.638 12.651 5.397 15.294 3.312 19 C-0.357 22.173 -2.622 23.025 -7.5 22.938 C-11.662 21.823 -13.28 20.28 -16 17 C-17.743 13.513 -17.581 9.804 -17 6 C-13.171 -1.156 -7.303 -2.021 0 0 Z " fill="#FAFAF9" transform="translate(619,379)" />
  <path d="M0 0 C5.5 3 5.5 3 7 6 C7.515 10.092 7.944 14.236 5.953 17.957 C4.186 20.093 2.491 21.754 0 23 C-5.004 23.378 -7.999 23.112 -12 20 C-14.133 18.088 -14.896 16.757 -15.285 13.918 C-15.466 9.167 -15.189 5.759 -12 2 C-8.535 -0.695 -4.204 -0.678 0 0 Z " fill="#FBFBFA" transform="translate(409,376)" />
  <path d="M0 0 C2.322 2.322 2.575 3.673 3.375 6.812 C4.854 11.877 6.288 15.423 11.035 18.184 C13.001 19.186 14.976 20.121 17 21 C14.721 22.753 12.661 24.166 10.062 25.438 C5.426 29.317 3.989 34.403 2 40 C1.34 40 0.68 40 0 40 C-0.11 39.632 -0.11 39.632 -0.664 37.77 C-2.747 31.36 -4.341 27.733 -10 24 C-10.99 23.34 -11.98 22.68 -13 22 C-13 21.34 -13 20.68 -13 20 C-12.258 19.567 -11.515 19.134 -10.75 18.688 C-3.708 14.366 -2.256 7.525 0 0 Z " fill="#E6DAEC" transform="translate(605,829)" />
  <path d="M0 0 C0.99 0 1.98 0 3 0 C3.113 0.536 3.113 0.536 3.688 3.25 C5.678 8.936 9.168 10.637 14.312 13.25 C15.539 13.839 16.767 14.425 18 15 C15.531 17.046 13.163 18.907 10.375 20.5 C6.104 23.197 4.675 26.399 3.438 31.188 C2.746 33.855 2.746 33.855 2 36 C1.67 36.165 1.67 36.165 0 37 C-0.184 36.059 -0.369 35.118 -0.559 34.148 C-3.223 22.711 -3.223 22.711 -8.75 19.125 C-10.144 18.374 -11.555 17.648 -13 17 C-12.67 16.01 -12.34 15.02 -12 14 C-11.237 13.711 -10.474 13.423 -9.688 13.125 C-5.078 11.195 -3.166 7.611 -1.25 3.188 C-0.837 2.136 -0.425 1.084 0 0 Z " fill="#E5D9EB" transform="translate(413,759)" />
  <path d="M0 0 C0.66 0 1.32 0 2 0 C4.842 18.55 4.192 37.292 4 56 C-2.729 49.427 -5.101 43.135 -5.474 33.761 C-5.607 22.31 -3.622 10.867 0 0 Z " fill="#3089AA" transform="translate(259,557)" />
  <path d="M0 0 C3.159 1.58 3.626 4.601 4.902 7.773 C6.783 11.588 9.175 13.286 13 15 C13 15.66 13 16.32 13 17 C12.453 17.33 12.453 17.33 9.688 19 C4.878 22.255 4.15 26.558 3 32 C2.67 33.334 2.338 34.668 2 36 C1.34 36 0.68 36 0 36 C-0.266 35.024 -0.531 34.048 -0.805 33.043 C-1.161 31.758 -1.518 30.473 -1.875 29.188 C-2.049 28.555 -2.049 28.555 -2.93 25.355 C-4 22 -4 22 -6 19 C-9.125 17.812 -9.125 17.812 -12 17 C-11.67 16.01 -11.34 15.02 -11 14 C-10.051 13.567 -9.103 13.134 -8.125 12.688 C-4.291 10.617 -3.594 8.984 -2 5 C-1.608 4.051 -1.216 3.102 -0.812 2.125 C-0.544 1.424 -0.276 0.722 0 0 Z " fill="#E6DBEC" transform="translate(481,874)" />
  <path d="M0 0 C0 8.91 0 17.82 0 27 C-7 21 -14 15 -21 9 C-18.912 6.694 -17.191 5.464 -14.277 4.395 C-13.574 4.133 -12.871 3.872 -12.146 3.604 C-11.418 3.342 -10.689 3.081 -9.938 2.812 C-9.571 2.676 -9.571 2.676 -7.717 1.986 C-2.295 0 -2.295 0 0 0 Z " fill="#3A91B1" transform="translate(638,557)" />
  <path d="M0 0 C2.753 1.796 4.526 3.053 6 6 C6.683 12.943 6.683 12.943 4.062 17 C0.48 19.34 -1.697 19.743 -5.906 19.477 C-8 19 -8 19 -10.562 17 C-12.403 13.158 -12.719 10.186 -12 6 C-9.172 -0.042 -6.536 -0.554 0 0 Z " fill="#16120A" transform="translate(706,488)" />
  <path d="M0 0 C0.33 0 0.66 0 1 0 C1.29 4.071 1.574 8.142 1.854 12.213 C1.95 13.593 2.047 14.973 2.146 16.353 C2.731 24.576 3.156 32.752 3 41 C-3.495 32.624 -5.292 22.395 -4 12 C-2.93 7.881 -1.592 3.944 0 0 Z " fill="#E1DCD5" transform="translate(195,444)" />
  <path d="M0 0 C2.5 1.688 2.5 1.688 4 4 C3.931 6.847 3.405 8.403 1.812 10.75 C-0.773 12.533 -2.887 12.809 -6 13 C-8.75 12.034 -9.69 11.62 -11 9 C-11.312 6.062 -11.312 6.062 -11 3 C-7.94 -0.672 -4.537 -0.567 0 0 Z " fill="#161108" transform="translate(512,449)" />
</svg>