<svg xmlns="http://www.w3.org/2000/svg" viewBox="0 0 1024 1024" preserveAspectRatio="xMidYMid meet" id="mermaid-svg">
  <defs>
    <clipPath id="hair-clip">
      <rect x="-512" y="-512" width="2048" height="822"/>
    </clipPath>
  </defs>

  <g id="hair-group">
  <path d="M0 0 C0.626 0.692 1.253 1.384 1.898 2.098 C4.466 4.422 6.243 4.759 9.625 5.375 C19.514 7.625 27.803 12.921 34 21 C38.477 28.349 41.849 35.23 42 44 C42.629 43.541 43.258 43.082 43.906 42.609 C56.328 33.705 67.196 28.913 82.852 31.465 C92.447 33.975 99.101 40.249 105 48 C105.442 48.848 105.884 49.696 106.34 50.57 C108.444 53.65 110.336 54.379 113.75 55.812 C123.007 60.223 127.427 66.264 131.133 75.746 C132.576 81.162 132.403 86.446 132 92 C132.704 92.251 133.408 92.503 134.133 92.762 C155.386 101.94 175.18 124.076 189 142 C189.991 143.24 190.984 144.48 191.977 145.719 C229.689 193.262 247.15 250.511 247.312 310.688 C247.316 311.579 247.32 312.47 247.324 313.388 C247.356 328.469 246.554 343.018 242.236 357.566 C240.598 363.48 241.452 367.848 243.5 373.5 C249.046 388.808 245.824 405.748 239.383 420.25 C234.236 430.486 227.387 438.496 218 445 C218.398 445.932 218.797 446.864 219.207 447.824 C227.945 468.642 230.673 490.819 222.723 512.48 C221.539 515.351 220.284 518.174 219 521 C218.67 521.99 218.34 522.98 218 524 C218.248 524.244 218.248 524.244 219.504 525.477 C230.082 536.516 235.881 550.429 236.438 565.688 C236.228 575.132 234.32 585.155 230.301 593.754 C229 597 229 597 229.141 599.242 C230.114 601.233 231.204 602.539 232.75 604.125 C241.391 613.865 244.688 626.536 244.34 639.336 C243.337 650.147 239.833 659.324 234.467 668.634 C231.849 673.372 231.849 673.372 232.672 676.789 C233.11 677.519 233.548 678.248 234 679 C237.084 684.219 237.354 688.101 237 694 C237.73 694.124 238.459 694.247 239.211 694.375 C252.038 697.249 262.528 707.231 269.926 717.617 C280.572 734.98 284.074 754.509 279.922 774.59 C274.867 795.171 259.855 813.923 242 825 C236.086 828.492 230.069 831.785 224 835 C222.915 835.577 221.829 836.155 220.711 836.75 C215.359 839.404 210.027 841.507 204 840 C202.246 838.68 202.246 838.68 201 837 C201.099 831.652 202.434 828.9 206 825 C207.799 821.402 207.049 817.782 206 814 C202.397 807.899 196.223 803.607 190.846 799.135 C180.447 790.421 173.034 780.485 170 767 C169.728 763.516 169.72 760.056 169.75 756.562 C169.742 755.66 169.735 754.757 169.727 753.826 C169.743 748.214 170.413 743.385 172 738 C171.524 737.903 171.524 737.903 169.113 737.414 C168.486 737.284 168.486 737.284 165.312 736.625 C164.071 736.37 162.83 736.115 161.551 735.852 C158.52 735.125 155.877 734.159 153 733 C152.01 733 151.02 733 150 733 C148.788 734.467 147.578 735.941 146.477 737.492 C143.077 740.964 138.845 741.314 134.188 741.375 C128.473 741.256 124.668 740.265 120 737 C119.345 736.56 118.69 736.121 118.016 735.668 C110.351 729.8 105.437 720.396 102.375 711.375 C99.934 705.531 94.554 702.041 89.773 698.152 C85.999 695.063 82.543 691.725 79.125 688.25 C78.607 687.724 78.09 687.199 77.557 686.657 C76.367 685.442 75.183 684.222 74 683 C74.188 685.75 74.188 685.75 75 689 C76.627 690.381 78.297 691.714 80 693 C87.52 706.166 89.878 722.183 92 737 C92.187 738.29 92.374 739.581 92.566 740.91 C97.531 782.166 84.498 828.954 59.414 861.984 C56.415 865.731 53.293 869.32 50.02 872.828 C48.249 874.732 46.586 876.679 44.938 878.688 C33.499 892.007 17.486 902.063 2 910 C1.334 910.345 0.668 910.69 -0.018 911.046 C-18.682 920.612 -38.429 926.219 -59 930 C-59.72 930.133 -60.439 930.266 -61.181 930.402 C-73.701 932.597 -86.34 932.257 -99 932 C-99.797 931.991 -100.593 931.983 -101.414 931.974 C-134.506 931.55 -168.991 920.601 -198 905 C-198.236 906.272 -198.472 907.545 -198.715 908.855 C-199.947 914.372 -202.108 919.241 -204.562 924.312 C-205.008 925.235 -205.453 926.158 -205.912 927.109 C-209.555 934.458 -213.54 940.834 -219 947 C-219.409 947.464 -219.409 947.464 -221.48 949.812 C-241.502 971.106 -271.805 982.419 -300.726 983.36 C-303.746 983.412 -306.764 983.416 -309.784 983.391 C-312.066 983.375 -314.346 983.391 -316.627 983.41 C-343.403 983.457 -343.403 983.457 -352 975 C-353.133 972.016 -353.133 972.016 -353 969 C-351.305 966.359 -351.305 966.359 -348.875 963.75 C-340.697 954.901 -337.827 944.713 -335 933.188 C-328.769 908.097 -319.854 887.829 -298 873 C-295.802 872.365 -295.802 872.365 -294 872 C-294 871.34 -294 870.68 -294 870 C-294.784 869.794 -295.567 869.587 -296.375 869.375 C-312.76 863.16 -323.539 850.357 -331.188 835 C-334.793 826.771 -336.987 818.084 -339.336 809.432 C-342.75 796.928 -345.966 787.733 -354.977 778.199 C-357.452 775.508 -358.911 773.814 -359.312 770.125 C-358.95 766.501 -358.29 764.825 -356 762 C-345.055 754.792 -328.713 755.834 -316.188 755.875 C-315.006 755.871 -313.825 755.867 -312.607 755.863 C-301.66 755.875 -290.813 756.224 -280.125 758.75 C-279.745 758.838 -279.745 758.838 -277.825 759.284 C-260.402 763.457 -244.391 769.833 -231 782 C-230.548 782.405 -230.548 782.405 -228.262 784.457 C-212.738 799.122 -205.082 818.26 -198 838 C-196.35 838 -194.7 838 -193 838 C-192.324 836.337 -191.661 834.669 -191 833 C-190.505 831.804 -190.01 830.607 -189.5 829.375 C-184.386 815.408 -185.697 800.885 -187 786.375 C-189.514 757.239 -190.805 720.66 -176 694 C-174.363 692.63 -172.702 691.288 -171 690 C-170.355 686.891 -170.355 686.891 -170 684 C-170.883 684.906 -171.766 685.812 -172.676 686.746 C-173.887 687.978 -175.099 689.208 -176.312 690.438 C-176.948 691.083 -177.583 691.729 -178.237 692.395 C-181.921 696.09 -185.634 699.315 -189.875 702.375 C-195.76 706.981 -198.203 712.615 -201.238 719.25 C-205.724 729.05 -213.524 737.316 -223.645 741.34 C-229.522 742.987 -234.877 742.816 -240.438 740.25 C-243.342 738.595 -245.394 737.012 -247 734 C-247 733.34 -247 732.68 -247 732 C-247.466 732.18 -247.466 732.18 -249.824 733.094 C-260.045 736.885 -269.622 739.186 -280.312 735.438 C-289.399 731.204 -294.26 725.182 -298 716 C-301.048 706.856 -298.615 697.469 -294.594 689.059 C-286.886 674.825 -275.284 666.927 -261.672 659.082 C-248.776 651.528 -239.076 641.798 -230 630 C-228.944 628.658 -227.887 627.317 -226.828 625.977 C-220.068 617.386 -213.508 608.665 -207.051 599.844 C-201.859 592.767 -196.496 585.843 -191 579 C-190.22 578.025 -189.44 577.051 -188.637 576.047 C-181.115 566.745 -173.123 558.038 -164.688 549.562 C-163.993 548.864 -163.299 548.165 -162.584 547.445 C-162.252 547.114 -162.252 547.114 -160.574 545.441 C-159.982 544.85 -159.39 544.259 -158.78 543.651 C-156.945 541.949 -155.027 540.466 -153 539 C-153.784 538.739 -154.568 538.478 -155.376 538.209 C-170.553 533.133 -185.609 528.066 -200 521 C-200.635 520.694 -201.269 520.388 -201.923 520.073 C-219.433 511.554 -235.515 499.998 -248 485 C-248.699 484.212 -249.397 483.425 -250.117 482.613 C-257.609 473.942 -262.922 464.224 -268 454 C-268.309 454.013 -268.309 454.013 -269.873 454.079 C-290.56 454.838 -305.459 451.79 -321.75 438.188 C-333.487 427.246 -340.352 411.973 -341.215 396.027 C-341.536 385.492 -340.981 375.539 -335.25 366.375 C-332.235 361.262 -332.902 357.673 -334 352 C-334.377 349.79 -334.741 347.579 -335.105 345.367 C-335.361 343.834 -335.624 342.302 -335.895 340.772 C-343.638 296.533 -335.14 248.126 -318 207 C-317.689 206.249 -317.377 205.497 -317.057 204.723 C-307.031 180.826 -293.666 158.851 -277 139 C-276.573 138.484 -276.146 137.968 -275.706 137.437 C-260.792 119.449 -244.404 103.672 -224 92 C-223.34 92 -222.68 92 -222 92 C-222.046 91.094 -222.093 90.188 -222.141 89.254 C-222.371 81.493 -222.133 75.657 -218 69 C-217.576 68.303 -217.152 67.605 -216.715 66.887 C-212.469 60.606 -206.873 55.951 -199.438 54.125 C-198.633 54.084 -197.829 54.043 -197 54 C-196.835 53.031 -196.67 52.061 -196.5 51.062 C-194.245 43.382 -188.007 38.272 -181.25 34.5 C-172.427 29.963 -162.349 29.535 -152.75 32.125 C-144.959 34.846 -138.684 39.065 -133 45 C-132.792 44.045 -132.585 43.09 -132.371 42.105 C-129.121 28.097 -123.06 17.299 -110.555 9.469 C-106.351 7.202 -102.669 5.839 -97.938 5.188 C-92.651 4.326 -90.224 1.741 -86.469 -1.902 C-63.971 -21.018 -22.198 -17.499 0 0 Z " fill="#30251B" transform="translate(551,26)"  clip-path="url(#hair-clip)"/>
  <path d="M0 0 C3.372 2.76 4.866 6.528 6.688 10.375 C12.635 22.56 19.379 34.659 29.234 44.152 C31 46 31 46 31 48 C31.592 48.267 32.183 48.534 32.793 48.809 C35.038 50.021 36.491 51.291 38.312 53.062 C48.624 62.211 60.965 67.905 74 72 C75.078 72.34 76.155 72.681 77.266 73.031 C83.698 74.777 89.931 75.291 96.562 75.375 C97.337 75.389 98.112 75.403 98.91 75.417 C102.185 75.389 104.585 75.227 107.484 73.641 C109 72 109 72 109.688 69.375 C108.806 65.046 106.82 62.807 104.023 59.457 C100.757 55.49 97.907 51.233 95 47 C95.99 47 96.98 47 98 47 C98 47.66 98 48.32 98 49 C98.562 49.255 99.124 49.51 99.703 49.773 C102.294 51.157 104.434 52.819 106.75 54.625 C113.714 59.737 121.165 63.43 129 67 C129.614 67.281 130.227 67.562 130.859 67.852 C149.383 76.182 169.918 80.413 190.188 80.312 C191.353 80.308 192.518 80.304 193.719 80.3 C200.719 80.209 207.581 79.838 214.5 78.75 C215.229 78.641 215.957 78.532 216.708 78.419 C219.793 77.848 221.688 77.305 223.957 75.09 C225.707 71.584 225.16 69.723 224 66 C222.16 63.587 220.172 61.418 218.078 59.223 C215.381 56.337 213.22 53.261 211 50 C211.33 49.34 211.66 48.68 212 48 C212.413 48.431 212.825 48.863 213.25 49.307 C242.52 79.321 287.23 96.3 328.902 97.129 C329.748 97.151 330.593 97.174 331.465 97.197 C333.107 97.231 334.75 97.24 336.393 97.219 C341.869 97.33 344.667 98.71 348.657 102.458 C361.631 117.359 355.877 159.625 355 178 C352.47 212.598 338.908 243.284 316 269 C315.406 269.668 314.811 270.335 314.199 271.023 C304.495 281.282 292.443 288.579 280 295 C279.319 295.353 278.638 295.707 277.937 296.071 C267.734 301.296 257.368 305.173 246.354 308.325 C244.837 308.76 243.321 309.204 241.81 309.659 C231.35 312.806 220.768 314.886 210 316.688 C209.411 316.789 209.411 316.789 206.431 317.301 C183.654 320.925 160.626 321.355 137.613 321.316 C134.711 321.311 131.81 321.318 128.908 321.336 C102.992 321.497 77.188 320.353 51.688 315.312 C51.365 315.25 51.365 315.25 49.733 314.936 C36.168 312.304 23.029 308.585 10 304 C9.549 303.842 9.549 303.842 7.269 303.04 C-29.221 289.922 -58.106 267.162 -74.989 231.937 C-86.286 207.438 -90.209 180.463 -90.13 153.675 C-90.125 151.504 -90.13 149.332 -90.137 147.16 C-90.151 125.316 -90.151 125.316 -87 120 C-85.363 118.57 -85.363 118.57 -83.312 117.125 C-72.529 109.024 -62.668 99.311 -54 89 C-53.385 88.273 -52.77 87.546 -52.137 86.797 C-30.666 60.659 -13.034 31.187 0 0 Z " fill="#C98957" transform="translate(370,241)"  clip-path="url(#hair-clip)"/>
  </g>
  <path d="M0 0 C6.041 0.542 10.952 3.108 16.375 5.625 C27.836 10.822 39.509 15.273 51.312 19.625 C95.811 36.078 95.811 36.078 111.527 50.277 C114 52 114 52 116.602 52.441 C119.499 51.908 120.406 51.102 122.438 49 C136.33 36.118 157.088 29.119 174.582 22.556 C178.847 20.955 183.103 19.331 187.359 17.707 C188.194 17.389 189.028 17.071 189.888 16.743 C198.718 13.364 207.442 9.748 216.145 6.051 C219.592 4.589 223.045 3.145 226.512 1.73 C226.918 1.564 226.918 1.564 228.975 0.723 C231 0 231 0 233 0 C241.293 17.946 244.4 36.856 244.312 56.562 C244.308 57.866 244.304 59.169 244.3 60.512 C243.826 101.48 229.617 139.724 202 170 C201.285 170.799 200.569 171.598 199.832 172.422 C180.423 192.995 153.44 207.125 126.5 214.812 C125.529 215.091 124.557 215.369 123.556 215.655 C107.464 220.011 91.879 221.525 75.25 221.375 C74.789 221.373 74.789 221.373 72.457 221.361 C58.795 221.28 45.398 220.915 32 218 C31.11 217.812 30.221 217.624 29.304 217.43 C8.361 212.853 -11.911 205.224 -30.772 195.048 C-37.957 191.226 -37.957 191.226 -42 192 C-44.714 194.714 -44.656 197.48 -45.188 201.125 C-48.831 222.636 -61.953 241.73 -79.418 254.605 C-104.25 271.849 -137.606 276.522 -167.062 272 C-168.712 271.688 -170.361 271.365 -172 271 C-171.812 270.678 -171.812 270.678 -170.863 269.051 C-164.654 258.087 -161.015 247.375 -158.125 235.188 C-153.52 215.998 -146.305 198.45 -129.215 187.16 C-117.13 179.784 -104.699 176.833 -91 174 C-90.375 171.625 -90.375 171.625 -90 169 C-92 167 -92 167 -93.809 166.776 C-94.535 166.783 -95.26 166.79 -96.008 166.797 C-114.002 166.637 -130.795 161.915 -144.312 149.25 C-155.046 137.583 -159.305 123.682 -163.197 108.667 C-166.08 97.549 -169.078 86.653 -176.715 77.75 C-179 75 -179 75 -179 73 C-173.393 71.414 -168.429 70.702 -162.617 70.734 C-161.84 70.732 -161.064 70.731 -160.263 70.729 C-158.628 70.727 -156.993 70.731 -155.357 70.739 C-152.902 70.75 -150.447 70.739 -147.992 70.727 C-122.736 70.702 -96.923 75.493 -77 92 C-76.505 92.33 -76.505 92.33 -74 94 C-74 94.66 -74 95.32 -74 96 C-73.505 96.165 -73.505 96.165 -71 97 C-60.426 107.762 -54.468 121.636 -49.057 135.448 C-47.324 139.864 -45.657 144.036 -43 148 C-43.66 148.66 -44.32 149.32 -45 150 C-44.432 155.568 -44.432 155.568 -43 157 C-35.219 158.028 -29.513 155.125 -23 151 C-14.568 144.279 -11.397 132.272 -10 122 C-9.728 117.621 -9.716 113.262 -9.75 108.875 C-9.754 107.654 -9.758 106.434 -9.762 105.177 C-9.846 96.172 -10.443 87.281 -11.279 78.319 C-13.667 52.4 -11.72 23.64 0 0 Z " fill="#E77649" transform="translate(387,724)" />
  <path d="M0 0 C0.472 0.363 0.472 0.363 2.859 2.199 C3.336 2.579 3.336 2.579 5.75 4.5 C6.206 4.854 6.206 4.854 8.516 6.645 C19.213 15.126 28.362 24.761 36.75 35.5 C37.28 36.175 37.811 36.85 38.357 37.546 C44.123 44.892 49.855 52.263 55.438 59.75 C74.541 85.35 94.89 109.746 121.099 128.32 C130.051 134.717 139.74 141.874 143.75 152.5 C144.697 159.288 143.813 164.908 139.75 170.5 C135.855 174.588 132.483 176.335 126.812 176.875 C117.441 176.783 107.995 171.528 101.312 165.188 C98.75 163.5 98.75 163.5 94.938 163.75 C93.886 163.997 92.834 164.245 91.75 164.5 C91.798 164.994 91.798 164.994 92.039 167.492 C92.15 168.774 92.261 170.055 92.375 171.375 C92.433 172.013 92.433 172.013 92.727 175.242 C92.734 176.317 92.742 177.392 92.75 178.5 C90.75 180.5 90.75 180.5 87.688 181.125 C81.726 180.179 78.575 177.042 74.75 172.5 C72.062 168.138 69.642 163.559 68.202 158.621 C66.27 152.34 62.596 148.912 57.75 144.625 C56.988 143.93 56.227 143.234 55.442 142.518 C53.224 140.497 50.99 138.496 48.75 136.5 C42.358 130.775 36.164 125.177 30.75 118.5 C29.984 117.63 29.219 116.76 28.43 115.863 C22.465 108.681 20.552 102.902 19.157 93.789 C9.865 41.554 9.865 41.554 -2.25 32.5 C-4.812 32.188 -4.812 32.188 -7.25 32.5 C-9.25 34.5 -9.25 34.5 -9.375 37.625 C-9.354 38.099 -9.354 38.099 -9.25 40.5 C-9.84 40.289 -9.84 40.289 -12.828 39.223 C-14.385 38.669 -15.943 38.116 -17.5 37.562 C-18.277 37.285 -19.055 37.007 -19.855 36.721 C-20.61 36.453 -21.364 36.186 -22.141 35.91 C-22.832 35.664 -23.523 35.418 -24.235 35.164 C-37.592 30.76 -52.59 33.251 -65.172 38.785 C-75.469 44.007 -83.77 51.239 -90.691 60.434 C-92.25 62.5 -92.25 62.5 -94.25 64.5 C-94.492 64.144 -94.492 64.144 -95.719 62.34 C-105.195 48.8 -119.486 37.48 -136.188 34.312 C-149.65 32.152 -162.215 32.765 -174.492 39.199 C-175.402 39.628 -176.312 40.058 -177.25 40.5 C-177.91 40.17 -178.57 39.84 -179.25 39.5 C-179.044 38.716 -178.837 37.933 -178.625 37.125 C-178.563 36.692 -178.563 36.692 -178.25 34.5 C-180.25 32.5 -180.25 32.5 -182.195 32.305 C-183.204 32.337 -183.204 32.337 -188.25 32.5 C-188.504 33.298 -188.758 34.096 -189.02 34.918 C-189.936 37.587 -190.901 40.184 -191.949 42.801 C-198.616 59.517 -203.878 76.509 -207.055 94.24 C-209.048 105.194 -210.98 111.724 -219.25 119.5 C-220.172 120.519 -221.083 121.548 -221.984 122.586 C-226.741 128.048 -226.741 128.048 -229.25 130.5 C-229.91 130.5 -230.57 130.5 -231.25 130.5 C-231.25 131.16 -231.25 131.82 -231.25 132.5 C-232.719 133.945 -232.719 133.945 -234.75 135.625 C-237.763 138.18 -240.608 140.805 -243.375 143.625 C-246.526 146.814 -249.682 149.781 -253.25 152.5 C-253.91 152.5 -254.57 152.5 -255.25 152.5 C-255.291 153.408 -255.332 154.315 -255.375 155.25 C-256.614 164.047 -262.195 173.256 -269.062 178.75 C-272.612 180.699 -275.215 181.348 -279.25 181.5 C-280.24 180.84 -281.23 180.18 -282.25 179.5 C-282.753 174.369 -281.821 170.312 -280.25 165.5 C-283.25 163.5 -283.25 163.5 -285.938 163.438 C-289.322 164.523 -290.38 165.369 -292.875 167.75 C-298.863 173.292 -306.304 176.658 -314.5 177.125 C-319.708 176.807 -323.421 175.007 -327.25 171.5 C-330.573 167.708 -332.097 164.573 -332.812 159.562 C-332.052 149.317 -324.939 140.78 -317.656 134.117 C-313.116 130.208 -308.158 127.265 -303 124.25 C-294.387 119.061 -287.291 113.667 -280.25 106.5 C-279.333 105.63 -278.417 104.76 -277.473 103.863 C-270.865 97.515 -265.227 90.701 -259.711 83.418 C-258.198 81.432 -256.664 79.463 -255.125 77.496 C-249.368 70.104 -243.901 62.598 -238.688 54.812 C-233.482 47.057 -227.806 40.005 -221.596 33.041 C-219.547 30.695 -217.624 28.251 -215.688 25.812 C-208.422 16.954 -200.72 9.546 -191.438 2.875 C-190.72 2.354 -190.003 1.832 -189.264 1.295 C-188.572 0.814 -187.881 0.332 -187.168 -0.164 C-186.557 -0.592 -185.946 -1.019 -185.317 -1.459 C-180.489 -3.89 -175.723 -3.54 -170.48 -2.977 C-169.178 -2.842 -167.875 -2.708 -166.533 -2.57 C-165.168 -2.422 -163.803 -2.274 -162.438 -2.125 C-140.564 0.201 -118.858 0.738 -96.875 0.75 C-96.503 0.75 -96.503 0.75 -94.619 0.753 C-70.713 0.778 -46.992 0.44 -23.291 -3.083 C-22.624 -3.179 -21.957 -3.276 -21.27 -3.375 C-19.417 -3.647 -17.565 -3.931 -15.714 -4.217 C-9.369 -4.735 -5.034 -3.891 0 0 Z " fill="#CB8D58" transform="translate(597.25,573.5)" />
  <path d="M0 0 C0.918 0.006 1.837 0.011 2.783 0.017 C17.689 0.283 29.782 4.742 40.262 15.578 C41.625 17.312 41.625 17.312 41.625 19.312 C42.089 19.271 42.089 19.271 44.438 19.062 C52.081 19.094 59.625 22.382 65.129 27.609 C71.108 34.415 73.778 41.167 73.688 50.25 C74.029 56.616 74.029 56.616 76.582 59.602 C78.169 60.766 79.797 61.878 81.461 62.93 C84.771 65.045 85.999 67.605 87.312 71.188 C88.617 80.057 85.939 86.332 80.812 93.438 C70.868 105.917 56.997 115.601 41.797 120.613 C41.155 120.826 40.513 121.039 39.851 121.259 C38.03 121.845 36.197 122.394 34.363 122.941 C31.625 124.312 31.625 124.312 30.59 126.805 C30.625 129.312 30.625 129.312 32.875 131.875 C33.783 132.679 34.69 133.484 35.625 134.312 C37.662 136.561 38.521 137.849 39.188 140.812 C38.625 143.312 38.625 143.312 36.427 145.442 C31.293 148.654 25.063 147.82 19.23 147.738 C17.929 147.735 16.627 147.732 15.285 147.728 C12.534 147.721 9.783 147.7 7.032 147.669 C3.529 147.63 0.026 147.612 -3.478 147.602 C-6.846 147.592 -10.214 147.572 -13.582 147.551 C-14.829 147.543 -16.076 147.536 -17.361 147.528 C-36.366 147.322 -36.366 147.322 -40.375 143.312 C-40.005 136.895 -40.005 136.895 -36.875 134 C-36.05 133.443 -35.225 132.886 -34.375 132.312 C-33.021 129.604 -33.31 127.303 -33.375 124.312 C-34.451 123.961 -35.528 123.609 -36.637 123.246 C-50.492 118.609 -62.194 112.937 -73.375 103.312 C-74.084 102.759 -74.793 102.206 -75.523 101.637 C-81.717 96.665 -85.837 90.389 -89.375 83.312 C-89.855 77.612 -90.224 72.223 -87.875 66.938 C-85.375 64.312 -85.375 64.312 -83.363 62.863 C-77.636 58.617 -77.636 58.617 -76.777 54.328 C-76.675 52.082 -76.598 49.834 -76.547 47.586 C-76.031 37.765 -70.449 30.74 -63.375 24.312 C-58.926 21.001 -54.889 20.212 -49.438 19.625 C-43.21 18.754 -40.914 16.278 -36.848 11.703 C-27.002 2.184 -13.161 -0.085 0 0 Z " fill="#F0A35E" transform="translate(507.375,23.6875)" />
  <path d="M0 0 C2.723 2.643 5.187 5.243 7.5 8.25 C14.455 16.438 25.038 22.356 35 26 C35.701 26.257 36.402 26.515 37.124 26.78 C43.892 29.06 50.199 29.543 57.312 29.5 C58.416 29.494 59.52 29.487 60.657 29.48 C73.981 29.182 83.97 24.994 94 16 C96.551 13.133 98.847 10.175 101 7 C103.189 10.284 103.71 12.581 104.508 16.426 C104.772 17.697 105.036 18.969 105.309 20.279 C105.442 20.942 105.576 21.604 105.714 22.287 C106.122 24.297 106.543 26.304 106.965 28.311 C108.126 33.97 109.175 39.202 109 45 C96.341 50.687 83.58 56.029 70.625 61 C69.969 61.252 69.313 61.504 68.638 61.763 C66 62.776 63.362 63.788 60.723 64.8 C15.713 82.068 15.713 82.068 4.199 91.629 C2 93 2 93 0.15 92.788 C-2.483 91.823 -4.361 90.447 -6.605 88.766 C-11.622 85.17 -16.735 82.37 -22.312 79.75 C-23.288 79.287 -24.264 78.825 -25.269 78.348 C-37.886 72.496 -50.954 67.791 -64 63 C-105.279 47.721 -105.279 47.721 -109 44 C-108.403 36.271 -106.962 28.681 -105.562 21.062 C-105.345 19.832 -105.128 18.602 -104.904 17.334 C-104.69 16.163 -104.475 14.992 -104.254 13.785 C-104.061 12.722 -103.869 11.658 -103.67 10.563 C-103 8 -103 8 -101 6 C-100.671 6.485 -100.343 6.969 -100.004 7.469 C-92.388 18.201 -82.214 26.51 -69 29 C-47.424 30.848 -28.226 27.323 -11.262 13.09 C-6.965 9.12 -3.243 4.865 0 0 Z " fill="#CC8E58" transform="translate(503,669)" />
  <path d="M0 0 C6.291 3.466 10.631 8.137 12.879 15.035 C12.879 16.355 12.879 17.675 12.879 19.035 C14.055 19.118 15.23 19.2 16.441 19.285 C23.724 20.236 28.076 23.78 32.617 29.254 C35.547 33.39 36.008 35.843 35.699 41.025 C35.126 50.783 35.126 50.783 37.43 54.613 C38.697 55.863 39.99 57.089 41.309 58.285 C43.255 60.455 43.436 61.65 43.504 64.535 C42.886 71.192 41.272 76.087 36.316 80.723 C27.834 87.496 18.3 90.457 7.879 93.035 C6.68 93.337 5.481 93.638 4.246 93.949 C-7.148 96.538 -20.962 98.694 -31.906 93.438 C-37.665 89.791 -43.255 85.336 -46.121 79.035 C-46.59 76.026 -46.631 73.077 -46.621 70.035 C-46.649 69.241 -46.678 68.447 -46.707 67.629 C-46.721 63.384 -46.601 61.616 -43.816 58.246 C-42.927 57.516 -42.038 56.787 -41.121 56.035 C-32.999 46.653 -29.814 38.572 -29.891 26.117 C-30.217 21.753 -31.473 18.056 -33.121 14.035 C-33.451 13.045 -33.781 12.055 -34.121 11.035 C-27.261 -0.503 -12.148 -5.277 0 0 Z " fill="#F0A45F" transform="translate(635.12109375,70.96484375)" />
  <path d="M0 0 C5.059 2.841 8.919 6.687 12.75 11 C12.461 11.846 12.173 12.691 11.875 13.562 C11.689 14.13 11.689 14.13 10.75 17 C10.564 17.536 10.564 17.536 9.625 20.25 C7.23 30.516 9.011 39.607 14.109 48.684 C15.986 51.333 18.172 53.246 20.562 55.438 C25.03 60.166 25.574 63.993 25.562 70.25 C25.562 70.634 25.562 70.634 25.56 72.58 C25.277 78.763 23.127 82.374 18.961 86.977 C10.107 94.927 1.487 96.908 -10.25 96.453 C-26.462 95.306 -47.138 90.343 -59.25 79 C-62.712 74 -64.75 68.264 -64.75 62.145 C-64.098 59.347 -62.859 58.417 -60.75 56.5 C-57.88 53.612 -57.281 52.359 -56.926 48.219 C-56.951 46.812 -56.997 45.405 -57.062 44 C-57.408 36.481 -56.762 32.065 -51.812 26.336 C-48.344 22.951 -45.2 21.586 -40.562 20.25 C-35.673 18.667 -35.673 18.667 -33.797 15.707 C-32.849 13.16 -32.042 10.599 -31.25 8 C-24.998 -2.821 -10.704 -4.826 0 0 Z " fill="#EFA45E" transform="translate(398.25,71)" />
  <path d="M0 0 C3.539 2.908 5.953 5.704 8.188 9.688 C14.025 9.133 16.224 5.737 19.906 1.523 C22.188 -0.312 22.188 -0.312 24.906 -0.148 C27.188 0.688 27.188 0.688 28.188 1.688 C28.75 4.25 28.75 4.25 28.188 7.688 C24.696 12.179 20.367 16.25 15.188 18.688 C14.528 18.688 13.868 18.688 13.188 18.688 C13.404 19.429 13.621 20.17 13.844 20.934 C18.333 37.915 17.089 53.305 8.848 68.957 C4.358 76.341 -2.388 81.551 -10.621 84.289 C-22.996 86.539 -32.473 84.681 -42.812 77.688 C-45.362 75.585 -47.104 73.507 -48.812 70.688 C-49.259 69.971 -49.705 69.254 -50.164 68.516 C-57.764 54.916 -58.698 38.773 -54.852 23.891 C-51.148 12.472 -44.682 1.524 -33.812 -4.312 C-22.142 -8.466 -9.995 -7.358 0 0 Z " fill="#2A1C0F" transform="translate(644.8125,371.3125)" />
  <path d="M0 0 C9.85 6.764 16.841 17.028 19.566 28.691 C21.761 45.439 20.207 61.64 10.695 75.965 C6.245 81.71 -0.72 86.789 -8 88 C-20.735 88.825 -29.825 87.3 -39.562 78.75 C-49.238 67.834 -52.494 55.105 -52.336 40.762 C-51.756 34.27 -49.947 28.207 -48 22 C-48.739 21.742 -49.477 21.484 -50.238 21.219 C-53.089 19.961 -54.897 18.591 -57.188 16.5 C-57.525 16.196 -57.525 16.196 -59.23 14.656 C-62.993 11.135 -62.993 11.135 -63.188 7.438 C-63 4 -63 4 -62 3 C-59.695 2.695 -59.695 2.695 -57 3 C-54.867 4.68 -54.867 4.68 -52.875 6.875 C-50.611 9.333 -48.804 11.131 -46 13 C-43 13 -43 13 -41.352 11.391 C-40.782 10.684 -40.212 9.978 -39.625 9.25 C-36.947 6.074 -34.455 3.36 -31 1 C-30.462 0.629 -29.925 0.257 -29.371 -0.125 C-20.839 -5.255 -8.731 -4.422 0 0 Z " fill="#2A1C10" transform="translate(401,368)" />
  <path d="M0 0 C8.657 6.087 14.923 13.558 17.875 23.781 C18.42 27.572 18.496 31.268 18.438 35.094 C18.433 35.598 18.433 35.598 18.409 38.149 C18.079 50.002 14.258 59.452 6.875 68.781 C6.398 69.395 5.921 70.008 5.43 70.641 C-1.109 78.067 -11.638 82.626 -21.125 84.781 C-23.768 84.911 -26.417 84.953 -29.062 84.906 C-29.746 84.897 -30.43 84.888 -31.135 84.879 C-32.798 84.856 -34.462 84.82 -36.125 84.781 C-37.57 81.891 -36.637 80.292 -35.797 77.199 C-35.493 76.051 -35.189 74.904 -34.875 73.721 C-34.545 72.483 -34.215 71.244 -33.875 69.969 C-27.624 45.47 -26.488 21.956 -26.125 -3.219 C-17.226 -5.549 -8.036 -4.609 0 0 Z " fill="#CB8A57" transform="translate(765.125,382.21875)" />
  <path d="M0 0 C1.155 0.015 2.309 0.029 3.499 0.044 C3.935 0.054 3.935 0.054 6.141 0.102 C6.13 0.774 6.12 1.446 6.109 2.139 C5.749 28.951 6.951 56.2 15.574 81.856 C16.202 84.344 16.237 86.546 16.141 89.102 C0.934 89.922 -10.978 86.926 -22.484 76.789 C-23.268 75.902 -24.052 75.015 -24.859 74.102 C-25.414 73.501 -25.968 72.9 -26.539 72.281 C-31.986 65.946 -34.469 59.035 -36.859 51.102 C-37.063 50.461 -37.267 49.82 -37.477 49.16 C-39.705 37.177 -38.036 25.445 -31.234 15.352 C-23.536 5.41 -12.64 -0.209 0 0 Z " fill="#CA8A57" transform="translate(260.859375,377.8984375)" />
  <path d="M0 0 C6.104 4.615 10.101 10.588 12.562 17.812 C12.562 19.133 12.562 20.452 12.562 21.812 C10.21 22.304 7.857 22.78 5.5 23.25 C4.863 23.385 4.225 23.519 3.568 23.658 C-10.486 26.415 -25.01 25.972 -39.265 25.943 C-42.459 25.937 -45.653 25.943 -48.848 25.949 C-50.898 25.949 -52.949 25.947 -55 25.945 C-55.945 25.947 -56.89 25.949 -57.863 25.951 C-62.829 25.934 -67.542 25.658 -72.438 24.812 C-71.655 16.986 -68.317 10.865 -62.602 5.539 C-44.641 -8.79 -19.914 -12.743 0 0 Z " fill="#ED8150" transform="translate(584.4375,625.1875)" />
  <path d="M0 0 C6.575 4.298 11.455 10.936 13.375 18.562 C13.478 19.13 13.478 19.13 14 22 C7.456 22.834 1.067 23.16 -5.527 23.168 C-6.515 23.171 -7.503 23.175 -8.521 23.178 C-10.604 23.183 -12.687 23.185 -14.771 23.185 C-17.897 23.187 -21.024 23.206 -24.15 23.225 C-39.682 23.268 -54.804 22.431 -70 19 C-71.461 13.793 -70.204 11.18 -67.703 6.562 C-52.23 -16.719 -20.698 -13.047 0 0 Z " fill="#ED8150" transform="translate(481,628)" />
  <path d="M0 0 C0.599 0.121 1.199 0.242 1.816 0.367 C29.205 5.432 58.302 5.401 86 3 C84.917 11.677 79.987 17.909 73.32 23.371 C60.317 32.5 45.63 35.608 30 34 C19.255 31.99 11.124 27.413 4.254 18.914 C0.368 12.982 -0.379 6.939 0 0 Z " fill="#EC8150" transform="translate(409,654)" />
  <path d="M0 0 C0.075 0.969 0.15 1.939 0.227 2.938 C1.919 21.322 8.676 37.831 22 51 C22.689 51.409 23.377 51.819 24.087 52.24 C26 54 26 54 26.406 56.645 C26.386 57.167 26.386 57.167 26.285 59.812 C26.259 60.971 26.232 62.13 26.205 63.324 C26.158 64.537 26.111 65.75 26.062 67 C25.767 75.102 25.823 82.053 28.439 89.793 C29 92 29 92 28 95 C26.604 93.188 25.208 91.375 23.812 89.562 C23.368 88.986 22.924 88.409 22.467 87.814 C19.914 84.496 17.367 81.173 14.828 77.844 C7.959 68.837 1.05 59.866 -6 51 C-6.373 50.529 -6.373 50.529 -8.262 48.145 C-14.178 40.783 -20.51 33.854 -27 27 C-27.684 26.273 -28.369 25.546 -29.074 24.797 C-32.753 20.994 -36.609 17.957 -41 15 C-38.843 12.843 -37.857 12.504 -34.992 11.703 C-34.177 11.469 -33.362 11.236 -32.523 10.995 C-31.649 10.749 -30.775 10.503 -29.875 10.25 C-21.488 7.82 -8.445 0 0 0 Z " fill="#FBF8F3" transform="translate(649,551)" />
  <path d="M0 0 C-0.634 9.992 -3.536 18.073 -11 25 C-21.8 33.735 -35.701 34.268 -49 33 C-61.652 30.579 -72.357 24.561 -81 15 C-83.677 10.853 -86 7.005 -86 2 C-84.916 2.072 -83.832 2.144 -82.715 2.219 C-58.562 3.695 -34.582 3.546 -10.546 0.71 C-9.755 0.619 -8.964 0.528 -8.148 0.434 C-7.446 0.35 -6.744 0.267 -6.021 0.181 C-4.021 0.002 -2.008 0 0 0 Z " fill="#EC8050" transform="translate(598,655)" />
  <path d="M0 0 C4.406 0.088 7.337 1.037 10.938 3.438 C17.32 7.685 24.401 8.975 32 8 C37.442 6.638 42.811 5.104 47.375 1.75 C50.508 -0.339 52.306 -0.43 56 0 C57 1 57 1 57.312 3.25 C56.875 7.103 55.822 8.312 53 11 C42.11 17.676 30.548 19.433 18 18 C10.672 16.22 2.679 13.261 -2 7 C-2.562 4.25 -2.562 4.25 -2 2 C-1.34 1.34 -0.68 0.68 0 0 Z " fill="#271A0E" transform="translate(477,491)" />
  <path d="M0 0 C2.958 1.024 3.866 1.742 5.337 4.564 C5.527 5.095 5.527 5.095 6.488 7.781 C6.911 8.956 7.333 10.13 7.768 11.34 C9.683 17.029 11.463 22.75 13.188 28.5 C15.589 36.413 18.053 44.286 20.805 52.086 C21.036 52.743 21.267 53.399 21.505 54.076 C22.621 57.239 23.752 60.394 24.901 63.545 C28.622 73.992 28.622 73.992 28 80 C25.55 79.626 24.314 79.355 22.645 77.469 C19.685 72.466 17.334 67.448 15.312 62 C15.148 61.562 15.148 61.562 14.314 59.346 C8.585 43.777 3.766 27.797 -0.793 11.852 C-1.029 11.027 -1.265 10.203 -1.509 9.354 C-2.042 6.798 -2.225 4.603 -2 2 C-1.34 1.34 -0.68 0.68 0 0 Z " fill="#26190E" transform="translate(466,59)" />
  <path d="M0 0 C0.835 9.772 -2.216 17.987 -5.375 27.062 C-5.922 28.665 -6.468 30.267 -7.014 31.87 C-18.735 66.03 -18.735 66.03 -26 78 C-27.32 77.34 -28.64 76.68 -30 76 C-28.781 67.821 -26.117 60.265 -23.291 52.538 C-18.123 38.401 -13.424 24.166 -9.123 9.742 C-8.926 9.092 -8.729 8.442 -8.527 7.772 C-7.997 6.02 -7.475 4.266 -6.955 2.511 C-5.406 -1.564 -3.752 -1.126 0 0 Z " fill="#25180D" transform="translate(549,61)" />
  <path d="M0 0 C4.412 0.784 6.293 4.038 8.812 7.5 C11.782 12.173 14.552 16.952 17.312 21.75 C18.053 23.022 18.794 24.295 19.535 25.566 C21.317 28.629 23.079 31.703 24.831 34.783 C25.771 36.427 26.725 38.062 27.68 39.697 C28.229 40.658 28.778 41.619 29.344 42.609 C29.824 43.439 30.304 44.269 30.799 45.124 C31.926 47.766 32.012 49.657 31.812 52.5 C30.988 52.665 30.988 52.665 26.812 53.5 C26.276 52.696 25.74 51.891 25.188 51.062 C24.818 50.509 24.449 49.956 24.069 49.385 C23.213 48.101 22.358 46.817 21.503 45.533 C18.6 41.173 15.685 36.822 12.762 32.477 C11.341 30.359 9.921 28.242 8.5 26.125 C7.819 25.116 7.137 24.106 6.436 23.066 C3.451 18.611 0.504 14.137 -2.23 9.523 C-2.637 8.839 -3.043 8.155 -3.462 7.451 C-4.356 5.047 -4.083 3.869 -3.188 1.5 C-2.188 0.5 -2.188 0.5 0 0 Z " fill="#26190E" transform="translate(371.1875,98.5)" />
  <path d="M0 0 C4.556 0.556 4.556 0.556 6 2 C5.877 9.303 3.176 13.464 -1.062 19.25 C-2.256 20.932 -3.448 22.614 -4.641 24.297 C-4.93 24.701 -4.93 24.701 -6.396 26.744 C-8.44 29.62 -10.381 32.548 -12.312 35.5 C-14.915 39.406 -17.548 43.287 -20.25 47.125 C-20.874 48.014 -21.498 48.904 -22.141 49.82 C-23.998 51.998 -25.365 52.962 -28 54 C-29.639 49.084 -27.163 45.533 -25 41 C-7.74 7.74 -7.74 7.74 0 0 Z " fill="#26190E" transform="translate(638,98)" />
  <path d="M0 0 C5.895 0.598 9.498 6.186 13.031 10.453 C14.514 12.29 15.994 14.129 17.473 15.969 C20.249 19.299 23.16 22.463 26.125 25.625 C29.609 29.366 33.063 33.113 36.312 37.062 C36.589 37.398 36.589 37.398 37.988 39.098 C39 41 39 41 38.668 43.246 C38.558 43.535 38.558 43.535 38 45 C31.743 44.781 29.109 41.747 25.062 37.438 C24.441 36.794 23.82 36.151 23.18 35.488 C21.438 33.673 19.715 31.841 18 30 C17.326 29.281 16.652 28.561 15.957 27.82 C14.248 25.921 12.621 23.975 11 22 C10.528 21.436 10.055 20.872 9.568 20.291 C7.909 18.307 6.266 16.311 4.625 14.312 C4.356 13.991 4.356 13.991 2.998 12.365 C-1.954 6.254 -1.954 6.254 -2 2 C-1.34 1.34 -0.68 0.68 0 0 Z " fill="#26180E" transform="translate(438,96)" />
  <path d="M0 0 C2 3 2 3 1.805 4.969 C0.884 7.292 -0.187 8.659 -1.875 10.5 C-2.194 10.851 -2.194 10.851 -3.809 12.625 C-4.532 13.409 -5.255 14.192 -6 15 C-6.775 15.866 -7.549 16.733 -8.348 17.625 C-11.195 20.786 -14.082 23.904 -17 27 C-17.327 27.347 -17.327 27.347 -18.98 29.104 C-21.096 31.335 -23.232 33.544 -25.375 35.75 C-26.053 36.466 -26.731 37.182 -27.429 37.92 C-28.079 38.581 -28.729 39.241 -29.398 39.922 C-29.973 40.516 -30.547 41.11 -31.138 41.722 C-33.537 43.369 -35.152 43.241 -38 43 C-38.165 42.505 -38.165 42.505 -39 40 C-35.14 33.216 -28.926 27.546 -23.629 21.844 C-21.527 19.57 -19.465 17.277 -17.438 14.938 C-16.904 14.328 -16.37 13.718 -15.82 13.09 C-14.369 11.423 -12.928 9.746 -11.492 8.066 C-10.6 7.044 -9.706 6.022 -8.812 5 C-7.994 4.051 -7.175 3.103 -6.332 2.125 C-4 0 -4 0 0 0 Z " fill="#25180E" transform="translate(576,97)" />
  <path d="M0 0 C1.853 3.126 2.619 5.376 2 9 C-1.982 14.689 -8.537 16.98 -15 19 C-17.875 19.137 -17.875 19.137 -20 19 C-20.133 18.385 -20.266 17.77 -20.402 17.137 C-20.579 16.328 -20.756 15.52 -20.938 14.688 C-21.112 13.887 -21.286 13.086 -21.465 12.262 C-22 10 -22 10 -23 7 C-20.606 6.015 -18.21 5.037 -15.812 4.062 C-15.139 3.785 -14.465 3.507 -13.771 3.221 C-9.155 1.352 -5.039 0 0 0 Z " fill="#E87D4E" transform="translate(774,711)" />
  <path d="M0 0 C4.133 1.353 5.902 2.591 8.438 6.125 C9.088 10.176 8.798 12.355 7.062 16.062 C3.589 18.792 1.123 18.844 -3.211 18.602 C-5.562 18.125 -5.562 18.125 -8.188 16.125 C-9.945 12.29 -10.652 9.26 -9.562 5.125 C-6.468 1.427 -4.855 0.17 0 0 Z " fill="#FAF7F2" transform="translate(637.5625,384.875)" />
  <path d="M0 0 C2.438 1.5 2.438 1.5 4 4 C4.764 8.285 4.71 11.735 2.562 15.562 C-1.265 17.71 -4.715 17.764 -9 17 C-12.401 14.875 -12.883 13.431 -13.938 9.562 C-14.008 5.556 -13.532 4.056 -11 1 C-7.445 -1.793 -4.213 -1.053 0 0 Z " fill="#F8F4EE" transform="translate(404,386)" />
  <path d="M0 0 C4.413 0.425 7.583 1.603 11.406 3.801 C12.398 4.366 13.389 4.931 14.41 5.514 C15.43 6.107 16.449 6.701 17.5 7.312 C18.01 7.604 18.01 7.604 20.59 9.076 C34.732 17.195 34.732 17.195 36 21 C29.084 22.907 24.779 20.579 18.562 17.438 C18.111 17.222 18.111 17.222 15.826 16.131 C1.1 8.912 1.1 8.912 -1.062 3.188 C-1 1 -1 1 0 0 Z " fill="#24180E" transform="translate(353,135)" />
  <path d="M0 0 C0.34 0.124 0.34 0.124 2.062 0.75 C1.765 3.866 1.509 5.342 -0.844 7.488 C-6.674 11.027 -12.616 14.208 -18.75 17.188 C-19.467 17.542 -20.183 17.896 -20.922 18.261 C-25.102 20.224 -28.215 21.173 -32.938 20.75 C-32.938 19.43 -32.938 18.11 -32.938 16.75 C-32.277 16.377 -31.617 16.004 -30.937 15.62 C-27.916 13.914 -24.896 12.207 -21.875 10.5 C-20.837 9.913 -19.798 9.327 -18.729 8.723 C-18.221 8.436 -18.221 8.436 -15.652 6.984 C-14.665 6.428 -13.677 5.873 -12.66 5.3 C-11.008 4.359 -9.363 3.405 -7.733 2.427 C-3.229 -0.275 -3.229 -0.275 0 0 Z " fill="#25180E" transform="translate(657.9375,135.25)" />
  <path d="M0 0 C2.438 1.688 2.438 1.688 4 4 C4.5 7.062 4.5 7.062 4 10 C1.081 12.826 -1.049 13.411 -5.062 13.375 C-5.92 13.383 -6.777 13.39 -7.66 13.398 C-10.451 12.923 -11.34 12.262 -13 10 C-13.438 7.062 -13.438 7.062 -13 4 C-8.912 -1.041 -6.272 -1.406 0 0 Z " fill="#281A0E" transform="translate(510,442)" />
</svg>