<svg xmlns="http://www.w3.org/2000/svg" viewBox="0 0 1024 1024" preserveAspectRatio="xMidYMid meet" id="mermaid-svg">
  <defs>
    <clipPath id="hair-clip">
      <rect x="-512" y="-512" width="2048" height="822"/>
    </clipPath>
  </defs>

  <path d="M0 0 C2.496 1.774 4.822 3.596 7.098 5.645 C9 7 9 7 13 7 C15.191 5.828 15.191 5.828 17.562 4.25 C28.037 -2.212 37.642 -4.629 49.918 -2.492 C63.007 0.72 74.511 7.771 82.062 19.188 C84.019 22.668 85.11 26.117 86 30 C87.093 29.938 88.186 29.876 89.312 29.812 C101.122 29.875 112.245 35.203 120.812 43.125 C128.821 51.621 133.323 62.659 133.188 74.312 C133.181 75.617 133.175 76.922 133.168 78.266 C133.023 81.486 132.598 84.407 132 87.562 C131.719 89.93 131.719 89.93 132 92 C134.268 94.618 137.079 96.186 140 98 C148.185 104.504 152.653 113.947 155 124 C156.464 137.583 154.707 150.585 146.738 161.973 C144.826 164.203 142.707 165.89 140.438 167.75 C138.371 169.727 138.371 169.727 137 172 C137.188 175.398 138.039 178.251 139.039 181.5 C142.408 193.772 139.429 206.511 133.566 217.52 C126.958 227.984 117.783 235.271 105.805 238.543 C100.236 239.45 94.621 239.219 89 239 C88.747 239.724 88.495 240.449 88.234 241.195 C84.193 250.378 76.304 255.633 67.492 259.66 C62.666 261.512 58.143 262.571 53 263 C52.181 263.081 51.363 263.162 50.52 263.246 C42.013 263.692 33.719 261.229 27 256 C27.016 257.107 27.031 258.214 27.048 259.354 C27.421 288.199 26.214 314.359 17 342 C17.496 342.343 17.993 342.686 18.504 343.039 C26.642 349.309 32.127 359.587 33.785 369.758 C35.411 386.724 31.435 403.214 20.828 416.777 C18.637 419.289 16.371 421.658 14 424 C13.375 424.647 12.75 425.294 12.105 425.961 C2.012 435.693 -11.282 439.368 -24.938 439.125 C-25.908 439.116 -26.878 439.107 -27.877 439.098 C-30.252 439.074 -32.626 439.041 -35 439 C-35.259 439.846 -35.518 440.691 -35.785 441.562 C-46.552 472.029 -73.797 493.381 -101.938 507.062 C-111.769 511.704 -122.145 514.911 -132.499 518.166 C-135.044 519.015 -137.519 519.98 -140 521 C-139.189 521.545 -138.378 522.091 -137.543 522.652 C-122.759 532.682 -109.592 544.261 -97.062 556.969 C-95.184 558.819 -93.258 560.543 -91.25 562.25 C-87.524 565.436 -84.119 568.88 -80.688 572.375 C-75.953 577.174 -71.082 581.585 -65.785 585.77 C-63.301 587.759 -60.908 589.826 -58.52 591.93 C-42.269 606.128 -24.164 616.902 -3.644 623.431 C10.021 627.845 22.193 634.089 29 647.375 C32.242 654.467 33.458 661.495 30.875 669.062 C26.159 679.92 19.127 686.697 8.254 691.254 C4.833 692.386 1.589 692.739 -2 693 C-2.082 693.866 -2.165 694.732 -2.25 695.625 C-3.5 701.249 -6.631 705.369 -11.184 708.895 C-18.363 713.264 -25.933 713.739 -34 712 C-47.481 708.165 -59.526 700.006 -67.758 688.555 C-70.607 685.308 -73.736 683.474 -77.438 681.312 C-95.484 670.383 -112.201 656 -127 641 C-126.69 643.25 -126.377 645.5 -126.062 647.75 C-125.888 649.003 -125.714 650.256 -125.535 651.547 C-125.359 652.686 -125.182 653.826 -125 655 C-124.89 655.766 -124.781 656.531 -124.668 657.32 C-123.733 659.671 -122.502 660.05 -120.25 661.125 C-114.519 664.428 -112.319 669.815 -110.387 675.945 C-108.665 685.095 -109.888 692.332 -115 700 C-115.137 702.878 -115.16 705.657 -115.09 708.531 C-115.067 710.296 -115.044 712.062 -115.022 713.827 C-115.008 714.753 -114.993 715.679 -114.978 716.633 C-114.728 734.302 -115.094 751.526 -118 769 C-118.156 769.946 -118.311 770.893 -118.472 771.868 C-126.087 815.874 -146.022 855.883 -177 888 C-177.835 888.898 -178.671 889.797 -179.531 890.723 C-191.562 903.315 -205.958 913.328 -221 922 C-221.724 922.419 -222.448 922.838 -223.193 923.269 C-268.824 949.308 -324.552 955.005 -375.195 942.031 C-411.463 932.083 -451.223 909.69 -474 879 C-474 878.34 -474 877.68 -474 877 C-477.867 880.195 -481.567 883.515 -485.051 887.125 C-497.805 900.342 -511.888 911.163 -528 920 C-528.864 920.474 -529.727 920.949 -530.617 921.438 C-535.659 923.949 -540.394 925.161 -546 924 C-550.488 922.018 -554.607 919.387 -557 915 C-558.658 910.711 -559.256 907.144 -559.266 902.555 C-559.27 901.323 -559.274 900.091 -559.278 898.822 C-559.269 897.519 -559.26 896.217 -559.25 894.875 C-559.247 894.205 -559.244 893.536 -559.242 892.846 C-559.153 874.631 -556.866 856.963 -554 839 C-554.472 838.664 -554.944 838.328 -555.43 837.981 C-614.244 796.005 -614.244 796.005 -617.562 777.938 C-616.306 771.375 -612.356 766.797 -607 763 C-584.789 752.706 -557.292 746.965 -533 745 C-532.827 744.049 -532.655 743.097 -532.477 742.117 C-528.659 722.569 -522.459 702.764 -513.375 685 C-512.957 684.165 -512.538 683.33 -512.107 682.469 C-508.631 676.059 -504.03 671.343 -497 669 C-491.1 668.422 -486.755 669.528 -482 673 C-465.329 688.393 -449.471 711.537 -442 733 C-442 733.99 -442 734.98 -442 736 C-441.131 735.929 -440.262 735.857 -439.367 735.783 C-429.083 735.01 -418.871 734.881 -408.562 734.938 C-406.945 734.943 -405.327 734.947 -403.709 734.951 C-399.806 734.962 -395.903 734.979 -392 735 C-391.757 729.735 -391.542 724.471 -391.353 719.204 C-391.285 717.415 -391.209 715.627 -391.125 713.839 C-391.006 711.258 -390.915 708.676 -390.828 706.094 C-390.807 705.699 -390.807 705.699 -390.699 703.7 C-390.562 698.581 -391.472 695.221 -394.079 690.8 C-396.857 685.37 -395.833 677.199 -394.34 671.465 C-391.901 665.984 -387.347 661.674 -382 659 C-381.377 656.478 -381.377 656.478 -380.852 653.121 C-380.653 651.896 -380.454 650.671 -380.249 649.409 C-380.147 648.76 -380.045 648.11 -379.94 647.441 C-375.448 618.896 -375.448 618.896 -372 612 C-372.592 612.241 -373.184 612.482 -373.794 612.731 C-387.348 618.223 -400.858 623.251 -415 627 C-415.967 627.259 -416.934 627.518 -417.931 627.785 C-445.65 635.069 -474.684 638.6 -503.18 634.445 C-509.457 633.714 -515.687 633.837 -522 634 C-521.972 635.116 -521.943 636.233 -521.914 637.383 C-522 641 -522 641 -523.375 642.875 C-526.972 645.365 -529.642 645.443 -534 645 C-536.961 642.697 -538.696 641.147 -539.668 637.48 C-541 635 -541 635 -544.344 633.594 C-545.725 633.212 -547.111 632.849 -548.5 632.5 C-549.961 632.085 -551.421 631.665 -552.879 631.238 C-553.588 631.032 -554.297 630.825 -555.028 630.612 C-567.132 626.857 -575.62 619.115 -581.559 608.051 C-587.742 594.963 -588.127 579.401 -583.27 565.773 C-580.374 559.447 -576.026 554.747 -571 550 C-570.34 549.34 -569.68 548.68 -569 548 C-569.387 543.44 -570.397 539.139 -571.611 534.736 C-571.774 534.138 -571.774 534.138 -572.603 531.113 C-572.96 529.824 -573.318 528.535 -573.676 527.246 C-574.046 525.9 -574.416 524.553 -574.786 523.207 C-575.759 519.668 -576.737 516.131 -577.716 512.595 C-578.504 509.743 -579.289 506.891 -580.074 504.039 C-586.426 480.944 -586.426 480.944 -588.143 475.079 C-588.51 473.822 -588.877 472.565 -589.255 471.27 C-589.589 470.138 -589.924 469.006 -590.268 467.839 C-591 465 -591 465 -591 462 C-592.111 462.035 -593.222 462.07 -594.367 462.105 C-610.736 462.47 -623.692 458.751 -635.938 447.184 C-647.14 435.323 -652.704 419.345 -652.309 403.078 C-650.723 387.258 -644.698 374.537 -633.102 363.484 C-620.722 353.569 -606.522 350.531 -591 352 C-577.054 354.805 -564.18 363.404 -556.25 375.188 C-547.06 390.512 -544.712 406.1 -548.902 423.484 C-553.12 436.993 -560.824 448.545 -573 456 C-573.66 456 -574.32 456 -575 456 C-574.715 456.882 -574.43 457.763 -574.137 458.672 C-570.237 470.877 -566.83 483.208 -563.438 495.562 C-562.868 497.627 -562.298 499.691 -561.729 501.756 C-560.383 506.632 -559.048 511.511 -557.716 516.391 C-557.053 518.805 -556.382 521.217 -555.708 523.628 C-555.337 524.97 -554.967 526.311 -554.598 527.652 C-554.284 528.775 -553.971 529.898 -553.649 531.054 C-553.04 533.816 -552.866 536.185 -553 539 C-552.458 538.789 -551.915 538.578 -551.356 538.361 C-545.715 536.306 -540.742 535.452 -534.75 535.5 C-533.925 535.504 -533.1 535.509 -532.25 535.513 C-521.993 535.795 -513.572 539.726 -504.902 544.984 C-482.874 556.745 -437.807 543.564 -415.697 537.023 C-399.783 532.081 -384.829 525.568 -370 518 C-374.112 516.444 -378.226 514.911 -382.375 513.457 C-417.778 500.949 -449.053 479.537 -465.716 444.927 C-466.487 443.289 -467.245 441.645 -468 440 C-469.149 440.046 -470.297 440.093 -471.48 440.141 C-481.376 440.42 -489.709 439.822 -499 436 C-499.88 435.649 -500.761 435.299 -501.668 434.938 C-508.552 431.864 -513.696 427.286 -519 422 C-519.639 421.384 -520.279 420.768 -520.938 420.133 C-532.401 408.209 -536.534 392.122 -536.42 376.009 C-536.069 364.758 -532.464 355.511 -525 347 C-523.049 345.26 -521.044 343.633 -519 342 C-519.398 340.779 -519.797 339.559 -520.207 338.301 C-526.609 318.501 -530.384 299.483 -530.206 278.651 C-530.187 276.407 -530.185 274.164 -530.186 271.92 C-530.164 265.516 -530.023 259.326 -529 253 C-529.255 253.193 -529.255 253.193 -530.547 254.172 C-541.561 262.061 -552.688 264.295 -566 263 C-579.252 260.35 -589.538 253.165 -597 242 C-597.119 241.63 -597.119 241.63 -597.723 239.758 C-599 238 -599 238 -602.492 237.348 C-603.952 237.241 -605.413 237.147 -606.875 237.062 C-621.15 235.766 -630.615 230.519 -640.035 219.652 C-648.152 209.053 -650.236 197.115 -649 184 C-648.281 180.53 -647.262 177.306 -646 174 C-645.608 172.804 -645.216 171.607 -644.812 170.375 C-644.678 169.983 -644.678 169.983 -644 168 C-644.424 167.657 -644.848 167.314 -645.285 166.961 C-654.588 158.66 -659.38 146.554 -660.176 134.293 C-660.56 119.827 -655.862 106.757 -646 96 C-643.5 93.918 -643.5 93.918 -641 92.188 C-640.175 91.604 -639.35 91.02 -638.5 90.418 C-635.945 88.969 -633.892 88.398 -631 88 C-631.144 87.406 -631.289 86.811 -631.438 86.199 C-634.553 72.286 -633.234 59.454 -625.688 47.062 C-617.3 34.943 -606.476 28.086 -592 25 C-589.855 24.926 -587.709 24.883 -585.562 24.875 C-582.574 24.711 -582.574 24.711 -580 24 C-578.007 21.742 -576.86 19.47 -575.535 16.77 C-570.09 6.946 -559.876 2.292 -549.684 -1.105 C-539.168 -3.659 -527.656 -3.027 -518 2 C-515.886 3.35 -513.838 4.711 -511.852 6.242 C-510 7 -510 7 -507.535 6.316 C-505.109 5.057 -503.01 3.683 -500.812 2.062 C-491.526 -4.195 -481.319 -5.464 -470.336 -3.531 C-457.264 -0.045 -446.894 7.561 -439.625 18.938 C-435.222 26.839 -433.564 33.998 -434 43 C-433.455 43.124 -432.909 43.248 -432.348 43.375 C-423.968 45.667 -417.933 50.74 -413.125 57.938 C-409.609 64.13 -407.806 69.864 -408 77 C-407.504 76.689 -407.008 76.378 -406.497 76.057 C-369.261 52.84 -325.512 35.974 -281 45 C-280.681 45.064 -280.681 45.064 -279.068 45.391 C-270.283 47.224 -262.696 49.729 -254.77 54.023 C-252 55 -252 55 -249.602 54.348 C-248.743 53.903 -247.885 53.458 -247 53 C-244.525 52.007 -242.047 51.029 -239.562 50.062 C-238.939 49.81 -238.316 49.558 -237.674 49.299 C-226.127 44.851 -214.493 43.463 -202.188 43.562 C-201.521 43.566 -200.855 43.569 -200.168 43.573 C-163.347 43.84 -129.184 55.88 -98 75 C-97.959 73.763 -97.918 72.525 -97.875 71.25 C-96.941 62.814 -92.566 54.388 -86 49 C-85.258 48.319 -84.515 47.639 -83.75 46.938 C-79.902 44.226 -74.837 41 -70 41 C-69.987 40.697 -69.987 40.697 -69.922 39.164 C-69.026 25.927 -62.856 15.273 -53.25 6.188 C-38.176 -6.181 -17.272 -9.468 0 0 Z " fill="#462510" transform="translate(772,29)"  clip-path="url(#hair-clip)"/>
  <path d="M0 0 C3.82 1.273 4.372 2.738 6.562 6.062 C14.209 16.815 26.179 25.371 39.387 27.762 C48.202 28.566 57.266 28.456 66 27 C66.219 27.822 66.438 28.645 66.664 29.492 C68.597 36.296 70.845 42.055 74.73 47.977 C76 50 76 50 77 53 C77.66 53 78.32 53 79 53 C79.639 53.681 80.279 54.361 80.938 55.062 C91.146 65.539 103.642 69.133 117.799 69.412 C118.958 69.421 120.118 69.429 121.312 69.438 C122.434 69.448 123.556 69.458 124.711 69.469 C131.172 69.4 136.116 68.702 142 66 C142.219 66.895 142.438 67.789 142.664 68.711 C145.879 80.971 150.743 91.061 161 99 C167.389 102.532 174.071 105.97 181.449 106.316 C182.297 106.358 183.144 106.4 184.018 106.443 C184.899 106.483 185.78 106.522 186.688 106.562 C187.134 106.584 187.134 106.584 189.393 106.693 C191.595 106.799 193.797 106.901 196 107 C196.015 107.573 196.029 108.147 196.044 108.737 C197.024 143.274 197.024 143.274 209 155 C209 155.66 209 156.32 209 157 C209.289 157.134 209.289 157.134 210.75 157.812 C211.493 158.204 212.235 158.596 213 159 C213.743 159.351 214.485 159.701 215.25 160.062 C217.624 162.691 217.417 164.873 217.273 168.306 C216.977 171.228 216.506 174.086 216.008 176.98 C214.935 183.815 214.641 190.53 214.5 197.438 C213.248 240.881 207.256 278.452 174.312 309.562 C163.853 318.716 151.595 325.284 139 331 C138.325 331.307 137.651 331.614 136.956 331.93 C82.169 356.268 9.43 354.925 -49 349 C-50.424 348.864 -51.847 348.728 -53.271 348.593 C-100.073 344.122 -143.108 335.24 -179 303 C-179.69 302.395 -180.379 301.791 -181.09 301.168 C-209.78 274.503 -211.676 234.417 -213.562 198 C-213.751 194.426 -213.941 190.853 -214.133 187.279 C-214.252 185.074 -214.368 182.869 -214.481 180.664 C-214.727 176.044 -215.041 171.492 -215.658 166.905 C-216 163 -216 163 -214.156 160.645 C-213.28 160.04 -212.403 159.435 -211.5 158.812 C-201.848 151.028 -197.579 139.061 -196 127 C-195.446 120.343 -195.193 113.676 -195 107 C-193.695 106.986 -192.391 106.972 -191.047 106.957 C-175.856 106.615 -164.416 103.943 -153.133 93.227 C-146.107 85.839 -142.982 76.574 -140 67 C-139.42 67.133 -138.84 67.266 -138.242 67.402 C-137.461 67.579 -136.68 67.756 -135.875 67.938 C-135.109 68.112 -134.344 68.286 -133.555 68.465 C-117.189 71.893 -99.977 70.25 -85.715 61.035 C-73.488 51.869 -68.123 41.395 -64 27 C-63.412 27.051 -62.824 27.102 -62.219 27.155 C-41.911 28.811 -26.321 26.676 -10.125 13.125 C-5.95 9.247 -2.887 4.891 0 0 Z " fill="#AC6032" transform="translate(520,194)"  clip-path="url(#hair-clip)"/>
  <path d="M0 0 C18.191 7.276 32.551 41.829 39.882 58.862 C41.018 61.552 42.076 64.228 43 67 C63.13 67 83.26 67 104 67 C108 92 108 92 107 96 C105.26 98.121 103.518 100.088 101.625 102.062 C101.088 102.632 100.552 103.201 99.999 103.788 C98.343 105.535 96.675 107.27 95 109 C94.5 109.516 94 110.033 93.485 110.565 C87.14 117.084 80.606 123.315 73.5 129 C71.222 132.038 71.732 134.246 72 138 C72.78 141.11 73.856 144.07 75 147.062 C75.315 147.895 75.629 148.727 75.954 149.584 C81.279 163.23 89.294 179.147 103 186 C107.474 186.373 110.033 186.445 114.125 184.562 C121.367 178.107 124.475 170.201 127 161 C127.113 160.594 127.113 160.594 127.688 158.539 C132.816 137.099 125.877 113.033 121.725 91.948 C118.245 74.2 116.934 56.685 116.875 38.625 C116.87 37.62 116.866 36.614 116.861 35.578 C116.863 34.637 116.865 33.696 116.867 32.727 C116.868 31.887 116.869 31.047 116.871 30.182 C117 28 117 28 118 25 C118.657 25.217 119.315 25.433 119.992 25.656 C129.396 28.409 138.307 28.291 148 28 C148.253 28.535 148.506 29.069 148.767 29.62 C152.847 38.041 157.852 43.435 166.641 47.125 C176.589 49.716 188.177 48.764 198 46 C198.329 46.485 198.657 46.969 198.996 47.469 C206.911 58.623 217.515 66.877 231 70 C246.503 71.644 258.414 68.317 271 59 C275.488 55.17 278.935 51.027 282 46 C282.525 46.144 283.049 46.289 283.59 46.438 C295.108 49.197 308.481 50.154 319 44 C319.715 43.587 320.431 43.175 321.168 42.75 C325.566 39.846 327.29 37.479 329.312 32.625 C330.73 30.004 330.73 30.004 333 28 C336.815 27.207 340.63 27.441 344.493 27.754 C351.451 28.299 357.328 26.967 364 25 C364.457 47.046 364.414 68.291 360 90 C359.813 90.941 359.626 91.881 359.433 92.851 C351.628 131.038 333.926 164.888 307 193 C306.523 193.504 306.046 194.008 305.555 194.528 C298.269 202.201 290.589 208.83 282 215 C281.461 215.399 280.923 215.798 280.368 216.209 C242.462 244.158 191.703 255.394 145.344 248.75 C105.182 242.155 70.432 223.758 41 196 C40.633 195.655 40.633 195.655 38.777 193.906 C34.084 189.353 29.965 184.426 25.883 179.32 C22.454 175.095 22.454 175.095 19.312 174.438 C13.7 175.39 10.976 179.672 7.422 183.859 C-4.366 197.707 -28.712 223.34 -48 225 C-50.386 222.614 -50.281 221.413 -50.329 218.152 C-50.323 217.442 -50.318 216.732 -50.312 216 C-50.311 215.619 -50.311 215.619 -50.302 213.694 C-49.978 194.89 -48.368 175.43 -44.551 157.012 C-43.799 152.901 -43.676 149.973 -45 146 C-46.664 145.327 -48.331 144.662 -50 144 C-52.533 142.335 -54.914 140.478 -57.312 138.625 C-58.743 137.534 -60.174 136.442 -61.605 135.352 C-62.334 134.794 -63.063 134.236 -63.814 133.661 C-65.901 132.076 -68.002 130.514 -70.113 128.961 C-78.541 122.752 -86.618 116.264 -94.471 109.341 C-95.891 108.096 -97.328 106.869 -98.766 105.645 C-99.565 104.957 -100.364 104.27 -101.188 103.562 C-101.862 102.986 -102.536 102.41 -103.23 101.816 C-105.301 99.692 -106.702 97.668 -108 95 C-107.67 94.01 -107.34 93.02 -107 92 C-104.712 91.069 -102.564 90.353 -100.195 89.695 C-99.493 89.491 -98.79 89.286 -98.067 89.076 C-95.757 88.41 -93.442 87.766 -91.125 87.125 C-90.337 86.903 -89.549 86.681 -88.737 86.453 C-70.057 81.206 -51.175 77.336 -31.844 75.457 C-29 75 -29 75 -26 73 C-25.251 70.815 -25.251 70.815 -24.711 68.066 C-24.496 67.038 -24.282 66.01 -24.061 64.951 C-23.948 64.392 -23.948 64.392 -23.375 61.562 C-18.915 41.042 -13.459 16.803 0 0 Z " fill="#50B0B5" transform="translate(278,713)" />
  <path d="M0 0 C0.731 0.086 1.462 0.173 2.215 0.262 C4.525 0.536 6.835 0.816 9.145 1.098 C11.436 1.375 13.728 1.651 16.021 1.923 C17.436 2.091 18.851 2.262 20.265 2.437 C32.656 3.915 45.035 4.332 57.5 4.363 C58.271 4.366 59.042 4.369 59.836 4.372 C63.935 4.387 68.035 4.396 72.134 4.4 C75.437 4.405 78.739 4.418 82.042 4.441 C102.593 4.581 122.841 3.925 143.298 1.905 C148.419 1.401 153.54 0.908 158.669 0.484 C159.772 0.391 160.874 0.297 162.01 0.201 C166.409 0.14 169.587 1.326 173.395 3.41 C174.1 3.77 174.805 4.13 175.532 4.501 C187.186 10.67 197.161 18.989 206.664 28.043 C208.957 30.16 208.957 30.16 210.957 31.16 C210.957 31.82 210.957 32.48 210.957 33.16 C211.502 33.378 212.047 33.597 212.608 33.822 C215.735 35.604 218.046 38.022 220.535 40.578 C221.065 41.114 221.596 41.649 222.142 42.201 C223.835 43.912 225.522 45.629 227.207 47.348 C240.61 60.974 240.61 60.974 247.957 67.16 C249.053 68.12 250.146 69.083 251.238 70.047 C272.513 88.637 295.043 104.317 322.361 112.45 C331.742 115.372 339.167 120.137 344.957 128.16 C346.689 131.624 346.297 135.367 345.957 139.16 C344.168 144.528 340.657 148.13 335.957 151.16 C330.804 153.432 326.156 153.369 320.645 153.223 C317.745 153.161 314.858 153.139 311.957 153.16 C310.957 154.16 310.957 154.16 310.832 157.098 C310.957 160.16 310.957 160.16 311.957 162.16 C312.422 169.481 312.422 169.481 310.781 171.879 C306.766 174.699 301.594 173.819 296.957 173.16 C285.678 169.33 277.167 161.404 269.957 152.16 C269.957 151.5 269.957 150.84 269.957 150.16 C269.234 149.892 268.511 149.624 267.766 149.348 C252.332 142.822 238.373 130.181 225.957 119.16 C225.108 118.411 224.258 117.662 223.383 116.891 C220.888 114.668 218.419 112.419 215.957 110.16 C215.372 109.626 214.788 109.092 214.186 108.542 C212.209 106.732 210.238 104.916 208.27 103.098 C207.652 102.532 207.033 101.966 206.397 101.383 C205.169 100.243 203.956 99.087 202.757 97.917 C201.586 96.774 200.385 95.661 199.152 94.585 C192.889 88.529 191.113 80.639 188.757 72.512 C187.515 68.234 186.202 63.978 184.898 59.719 C184.772 59.302 184.772 59.302 184.132 57.195 C182.111 50.564 179.913 44.019 177.457 37.535 C177.306 37.125 177.306 37.125 176.543 35.05 C174.972 30.99 173.551 27.849 169.957 25.16 C167.207 25.41 167.207 25.41 164.957 26.16 C163.137 31.289 165.097 35.337 166.957 40.16 C166.328 39.773 165.699 39.387 165.051 38.988 C152.924 31.61 143.58 27.769 129.207 27.848 C128.138 27.853 127.069 27.859 125.968 27.865 C118.602 27.978 111.868 28.417 104.957 31.16 C103.983 31.539 103.008 31.918 102.004 32.309 C94.68 35.557 89.305 40.044 83.648 45.574 C81.186 47.94 78.656 50.073 75.957 52.16 C75.318 51.5 74.678 50.84 74.02 50.16 C67.251 43.449 60.51 37.491 51.957 33.16 C51.022 32.672 50.088 32.183 49.125 31.68 C35.279 25.585 15.8 25.486 1.66 30.875 C-3.032 33.106 -7.573 35.514 -12.043 38.16 C-12.373 38.325 -12.373 38.325 -14.043 39.16 C-13.713 38.294 -13.383 37.428 -13.043 36.535 C-12.051 33.186 -11.801 30.627 -12.043 27.16 C-13.043 26.16 -13.043 26.16 -15.855 25.723 C-19.043 26.16 -19.043 26.16 -20.996 28.5 C-24.328 33.882 -25.979 40.135 -27.955 46.105 C-30.739 54.167 -30.739 54.167 -33.547 57.285 C-35.891 59.985 -36.629 61.493 -37.809 64.742 C-39.712 69.276 -41.927 70.842 -46.335 72.846 C-47.146 73.177 -47.957 73.507 -48.793 73.848 C-49.641 74.219 -50.49 74.59 -51.364 74.972 C-53.91 76.071 -56.472 77.121 -59.043 78.16 C-59.741 78.45 -60.438 78.74 -61.157 79.039 C-84.72 88.78 -112.1 96.291 -137.66 96.328 C-138.068 96.33 -138.068 96.33 -140.131 96.338 C-141.854 96.343 -143.577 96.346 -145.3 96.345 C-147.876 96.348 -150.451 96.366 -153.027 96.385 C-161.858 96.413 -170.393 96.009 -179.141 94.796 C-185.236 94.003 -190.978 94.295 -197.043 95.16 C-198.214 91.036 -199.379 86.911 -200.543 82.785 C-200.877 81.61 -201.211 80.434 -201.555 79.223 C-201.871 78.101 -202.186 76.98 -202.512 75.824 C-202.805 74.787 -203.098 73.75 -203.4 72.682 C-204.043 70.16 -204.043 70.16 -204.043 68.16 C-200.743 66.84 -197.443 65.52 -194.043 64.16 C-193.793 58.535 -193.793 58.535 -196.043 55.16 C-198.836 55.008 -198.836 55.008 -202.23 55.223 C-208.267 55.349 -211.369 55.021 -216.043 51.16 C-219.779 46.46 -219.472 41.146 -219.637 35.379 C-218.83 31.007 -217.34 29.116 -214.043 26.16 C-203.141 23.832 -193.474 27 -183.984 32.312 C-174.213 37.696 -162.512 37.526 -151.605 37.473 C-150.997 37.47 -150.997 37.47 -147.917 37.458 C-136.766 37.315 -126.002 36.167 -115.043 34.16 C-114.556 34.072 -114.556 34.072 -112.091 33.624 C-98.114 31.024 -84.565 27.529 -71.043 23.16 C-69.858 22.788 -68.674 22.415 -67.453 22.031 C-58.656 19.202 -50.503 15.418 -42.262 11.27 C-40.095 10.186 -37.927 9.104 -35.759 8.022 C-34.279 7.279 -32.801 6.531 -31.327 5.776 C-29.167 4.674 -26.997 3.595 -24.824 2.52 C-24.177 2.182 -23.53 1.845 -22.863 1.497 C-15.425 -2.127 -7.977 -0.997 0 0 Z " fill="#AD6032" transform="translate(443.04296875,553.83984375)" />
  <path d="M0 0 C0.206 0.188 0.206 0.188 1.25 1.137 C8.953 7.963 16.052 12.8 26.562 13.25 C31.643 13.627 31.643 13.627 34.688 16.812 C35.451 17.864 36.214 18.916 37 20 C42.966 23.796 48.888 25.714 56 25 C59.806 24.039 63.508 22.881 66.898 20.879 C69.719 19.699 71.84 20.059 74.875 20.312 C84.249 20.439 91.836 16.566 98.883 10.531 C101.016 8.419 103.047 6.279 105 4 C105.99 4.866 106.98 5.732 108 6.625 C109.329 7.755 110.663 8.879 112 10 C112.313 10.263 112.313 10.263 113.895 11.594 C122.21 18.232 129.463 20.554 140.117 19.848 C143.468 20.025 144.534 20.82 147 23 C152.623 25.485 158.382 26.083 164.297 24.312 C170.088 21.916 175.55 18.45 180 14 C181.809 13.726 183.623 13.481 185.438 13.25 C194.459 11.78 201.356 8.838 206.844 1.355 C207.035 1.132 207.035 1.132 208 0 C208.66 0 209.32 0 210 0 C210.965 3.29 211.921 6.582 212.875 9.875 C213.144 10.793 213.414 11.711 213.691 12.656 C216.356 21.884 218.311 30.357 218 40 C217.014 40.112 216.028 40.224 215.012 40.34 C180.284 44.895 138.743 62.42 111.651 84.788 C109.181 86.766 107.635 87.989 104.41 88.043 C101.479 86.774 99.439 85.058 97 83 C92.443 80.144 87.717 77.581 83 75 C82.602 74.781 82.602 74.781 80.585 73.67 C52.927 58.544 23.404 44.724 -8 40 C-8.436 31.587 -7.208 24.196 -5.125 16.062 C-4.856 14.953 -4.586 13.844 -4.309 12.701 C-2.121 3.883 -2.121 3.883 0 0 Z " fill="#AD6032" transform="translate(414,648)" />
  <path d="M0 0 C5.756 4.557 10.818 9.65 15.527 15.273 C16.013 15.843 16.499 16.413 17 17 C17.207 17.295 17.207 17.295 18.254 18.789 C20 20 20 20 23.387 20.066 C27.838 18.753 29.383 16.649 31.812 12.938 C40.301 1.041 51.499 -6.297 66 -9 C68.758 -9.277 71.48 -9.335 74.25 -9.312 C74.619 -9.31 74.619 -9.31 76.489 -9.295 C87.411 -9.056 96.035 -6.266 105 0 C106.072 0.742 107.145 1.485 108.25 2.25 C114.83 8.83 118.136 15.942 118.312 25.188 C118.312 31.226 118.04 36.264 114 41 C107.989 46.593 103.802 47.996 95.688 48.062 C89.7 48.452 89.7 48.452 86.734 50.773 C84.938 52.937 84.938 52.937 83.465 55.09 C81.793 57.27 80.553 58.035 78 59 C72.827 59.614 70.224 59.359 65.875 56.5 C61.745 53.928 58.833 53.792 54 54 C47.3 54.231 43.194 53.282 38 49 C33.507 44.726 30.091 39.888 26.945 34.566 C26 33 26 33 25 32 C21.935 31.839 19.945 32.018 17 33 C16.876 33.413 16.876 33.413 16.25 35.5 C13.374 43.551 7.617 49.291 0 53 C-4.664 54.555 -9.362 53.853 -14.238 53.645 C-18.603 54.057 -20.551 55.387 -24 58 C-27.731 59.244 -31.126 59.522 -35 59 C-38.921 57.04 -40.622 55.804 -42.5 51.812 C-45 49 -45 49 -48.078 48.535 C-50.557 48.427 -53.036 48.332 -55.516 48.25 C-61.985 47.786 -66.031 45.323 -70.375 40.625 C-75.275 34.313 -75.827 27.787 -75 20 C-72.931 11.228 -67.797 4.198 -60.316 -0.789 C-41.005 -11.664 -18.807 -12.685 0 0 Z " fill="#3F9FA7" transform="translate(497,602)" />
  <path d="M0 0 C36.039 0.506 83.183 26.209 111.625 47.375 C115.533 49.981 116.967 50.114 121.625 49.375 C124.152 47.646 126.409 45.695 128.738 43.707 C155.906 21.76 201.491 0.239 236.848 -0.023 C239.998 0.429 241.351 1.184 243.625 3.375 C245.683 7.8 246.769 12.564 245.625 17.375 C242.433 23.021 237.781 26.648 231.699 28.762 C223.398 30.418 214.538 29.845 206.188 28.75 C205.012 28.626 203.836 28.503 202.625 28.375 C200.255 30.745 199.942 32.373 199 35.562 C196.882 41.561 193.983 44.985 188.625 48.375 C181.971 51.263 174.264 51.69 167.426 49.219 C165.381 48.313 163.354 47.367 161.352 46.371 C158.146 45.2 156.782 45.094 153.625 46.375 C151.668 48.598 151.668 48.598 149.812 51.438 C143.134 61.056 134.733 70.14 122.625 72.375 C111.717 73.498 102.768 70.281 94.203 63.625 C88.413 58.572 83.689 52.877 79.625 46.375 C79.295 46.045 78.965 45.715 78.625 45.375 C74.204 45.657 70.858 46.638 66.812 48.438 C59.898 51.298 53.809 51.507 46.812 48.75 C41.448 46.087 38.911 42.303 35.625 37.375 C35.46 36.787 35.46 36.787 34.625 33.812 C33.625 30.375 33.625 30.375 31.625 28.375 C29.699 28.563 27.772 28.765 25.858 29.056 C16.713 30.363 6.745 30.866 -1.348 25.914 C-5.473 22.783 -8.839 20.215 -9.84 14.914 C-10.036 9.694 -9.243 5.849 -6.375 1.375 C-4.63 -0.37 -2.384 0.078 0 0 Z " fill="#3E9FA7" transform="translate(401.375,699.625)" />
  <path d="M0 0 C4.129 3.458 7.308 7.21 10.188 11.75 C10.566 12.33 10.945 12.91 11.336 13.508 C18.349 25.689 18.924 42.213 15.5 55.5 C11.736 68.305 5.412 77.693 -6.188 84.523 C-14.987 88.635 -25.35 89.241 -34.793 87.062 C-45.78 82.974 -54.59 74.854 -59.625 64.312 C-63.066 56.62 -64.202 48.805 -64.188 40.438 C-64.188 39.615 -64.189 38.793 -64.189 37.946 C-64.052 30.265 -62.25 23.625 -58.812 16.75 C-59.396 16.496 -59.98 16.242 -60.582 15.98 C-64.928 13.583 -68.824 9.43 -70.555 4.738 C-70.875 2.875 -70.875 2.875 -70.812 -0.25 C-68.812 -2.25 -68.812 -2.25 -66.445 -2.621 C-62.992 -2.134 -61.989 -0.88 -59.688 1.688 C-56.088 5.658 -56.088 5.658 -52.812 6.75 C-52.351 6.231 -51.89 5.711 -51.414 5.176 C-37.652 -9.538 -16.571 -12.069 0 0 Z " fill="#3E1D07" transform="translate(423.8125,368.25)" />
  <path d="M0 0 C1.875 1.465 1.875 1.465 3.508 3.148 C4.875 4.465 4.875 4.465 6.75 4.465 C10.402 2.746 12.882 -0.294 15.375 -3.41 C16.875 -4.535 16.875 -4.535 19.5 -4.285 C21.875 -3.535 21.875 -3.535 22.875 -2.535 C23.16 1.615 22.819 5.183 20.316 8.582 C17.984 10.919 15.84 12.982 12.875 14.465 C13.165 15.798 13.457 17.132 13.75 18.465 C13.84 18.88 13.84 18.88 14.297 20.98 C14.785 23.079 15.381 25.151 16 27.215 C19.346 40.6 16.504 56.542 9.875 68.465 C5.239 74.808 -0.008 80.045 -7.125 83.465 C-7.764 83.782 -8.404 84.099 -9.062 84.426 C-17.554 87.932 -29.032 88.014 -37.625 84.84 C-48.951 79.414 -56.413 71.271 -61.082 59.688 C-66.099 44.187 -65.941 28.353 -59.125 13.465 C-53.859 3.541 -46.64 -3.444 -36.125 -7.535 C-22.738 -10.925 -11.092 -7.687 0 0 Z " fill="#3E1D07" transform="translate(664.125,369.53515625)" />
  <path d="M0 0 C9.679 5.616 15.742 14.419 19 25 C21.644 36.127 20.001 46.495 14.645 56.543 C9.113 65.397 2.043 70.548 -7.922 73.586 C-17.801 75.554 -26.946 73.686 -35.477 68.492 C-41.029 64.5 -44.73 59.973 -48 54 C-48.414 53.297 -48.828 52.595 -49.254 51.871 C-53.771 42.822 -53.407 31.136 -51.188 21.457 C-47.438 11.393 -39.818 2.557 -30 -2 C-19.885 -5.907 -9.595 -4.82 0 0 Z " fill="#4CAFB6" transform="translate(189,401)" />
  <path d="M0 0 C3.777 2.981 6.15 6.597 8.336 10.844 C8.711 11.571 9.086 12.298 9.473 13.047 C10.709 17.052 10.677 20.862 10.648 25.031 C10.646 25.457 10.646 25.457 10.631 27.611 C10.385 40.386 5.909 50.237 -2.852 59.594 C-11.205 67.566 -19.551 71.013 -30.977 70.906 C-32.231 70.897 -33.485 70.888 -34.777 70.879 C-35.254 70.873 -35.254 70.873 -37.664 70.844 C-37.543 69.825 -37.422 68.807 -37.297 67.758 C-36.938 64.736 -36.585 61.714 -36.234 58.691 C-35.893 55.759 -35.534 52.831 -35.156 49.902 C-33.641 37.822 -33 25.699 -32.361 13.547 C-32.322 12.822 -32.283 12.096 -32.243 11.349 C-32.135 9.353 -32.032 7.357 -31.929 5.36 C-31.686 2.133 -31.254 -0.976 -30.664 -4.156 C-19.516 -7.872 -9.881 -6.202 0 0 Z " fill="#AD6033" transform="translate(779.6640625,382.15625)" />
  <path d="M0 0 C0.386 -0.006 0.386 -0.006 2.34 -0.037 C6.248 -0.047 8.176 -0.028 11.5 2.188 C12.031 4.663 12.346 6.928 12.562 9.438 C12.64 10.212 12.717 10.986 12.797 11.784 C13.651 20.805 14.121 29.858 14.678 38.901 C15.385 49.766 16.703 60.454 18.5 71.188 C18.695 72.363 18.889 73.539 19.09 74.75 C19.225 75.554 19.361 76.359 19.5 77.188 C4.723 77.873 -5.92 74.006 -17.188 64.25 C-26.777 54.103 -30.02 40.705 -29.781 27.215 C-29.409 19.255 -26.183 12.744 -20.5 7.188 C-13.556 1.982 -8.744 0.007 0 0 Z " fill="#AD6033" transform="translate(280.5,376.8125)" />
  <path d="M0 0 C6.808 5.941 10.362 11.969 11.309 20.918 C11.688 29.98 9.406 36.212 3.875 43.312 C-0.948 48.497 -6.66 50.531 -13.562 51.5 C-21.762 50.307 -27.947 46.545 -33 40 C-38.202 32.551 -37.988 23.691 -37 15 C-34.894 7.528 -30.354 2.324 -24 -2 C-16.048 -5.891 -7.283 -4.795 0 0 Z " fill="#FDFDFD" transform="translate(186,413)" />
  <path d="M0 0 C11.868 1.695 20.76 12.321 28.066 21.129 C30.44 24.383 31.829 26.661 32.312 30.688 C26.94 41.921 9.086 49.405 -2.062 53.562 C-5.528 52.407 -6.457 50.852 -8.656 48.062 C-10.766 45.812 -13.251 44.739 -16.062 43.562 C-17.139 29.712 -13.653 12.643 -4.57 1.777 C-3.062 0.562 -3.062 0.562 0 0 Z " fill="#86CCD7" transform="translate(303.0625,115.4375)" />
  <path d="M0 0 C9.28 7.97 12.042 23.091 13.457 34.773 C13.613 38.003 13.639 40.831 13 44 C10.312 46.438 10.312 46.438 7 48 C5.154 49.893 3.62 51.903 2 54 C-9.97 50.64 -27.567 43.278 -34 32 C-33.618 23.184 -24.809 15.534 -18.938 9.562 C-18.456 9.067 -17.974 8.571 -17.477 8.06 C-12.678 3.323 -7.106 -1.263 0 0 Z " fill="#87CDD8" transform="translate(741,115)" />
  <path d="M0 0 C0.905 1.408 1.804 2.822 2.652 4.266 C5.331 7.713 9.301 9.771 13 12 C9.908 40.665 9.908 40.665 2.625 49.707 C0.553 51.356 -0.386 51.365 -3 51.125 C-14.361 49.379 -24.694 39.277 -31.836 30.828 C-34.166 27.507 -34.967 25.478 -35.25 21.375 C-31.578 11.46 -16.967 5.745 -7.875 1.5 C-4.8 0.112 -3.596 0 0 0 Z " fill="#86CDD8" transform="translate(260,191)" />
  <path d="M0 0 C5.217 0.568 9.206 2.273 13.812 4.625 C14.516 4.98 15.219 5.336 15.944 5.702 C21.451 8.559 26.394 11.818 31 16 C31.559 16.507 32.119 17.013 32.695 17.535 C34 19 34 19 34.562 21.625 C32.796 32.227 22.556 39.958 14.348 45.93 C9.297 49.182 5.084 51.412 -1 51 C-8.066 45.058 -10.063 35.596 -11.75 26.875 C-11.814 26.547 -11.814 26.547 -12.137 24.885 C-12.972 20.181 -13.106 15.755 -13 11 C-12.481 10.792 -11.961 10.585 -11.426 10.371 C-5.775 7.875 -3.231 5.25 0 0 Z " fill="#87CDD8" transform="translate(782,191)" />
  <path d="M0 0 C7.063 11.959 5.268 33.239 2 46 C0.355 50.724 -1.27 54.589 -5 58 C-10.505 52.735 -14.388 46.992 -17.938 40.312 C-18.327 39.588 -18.716 38.864 -19.117 38.117 C-21.167 34.141 -22.883 30.556 -23 26 C-21.918 23.797 -21.918 23.797 -20.188 21.75 C-19.543 20.984 -18.898 20.219 -18.234 19.43 C-15.053 15.97 -11.74 12.659 -8.379 9.375 C-5.39 6.391 -2.689 3.255 0 0 Z " fill="#FBFAF9" transform="translate(389,826)" />
  <path d="M0 0 C1.871 2.806 2.497 4.501 3.312 7.688 C4.849 13.022 7.094 18.573 11.464 22.223 C13.584 24.676 14.053 26.998 14.859 30.129 C15.17 31.328 15.481 32.528 15.801 33.764 C16.114 35.017 16.427 36.271 16.75 37.562 C17.079 38.82 17.407 40.077 17.746 41.373 C20.133 50.734 20.133 50.734 19 53 C8.349 49.164 1.44 45.237 -4 35 C-7.146 26.707 -7.682 15.713 -4.688 7.312 C-3.305 4.598 -2.001 2.287 0 0 Z " fill="#B06234" transform="translate(207,594)" />
  <path d="M0 0 C2.316 1.059 2.316 1.059 4.562 2.438 C10.531 6.068 16.061 6.876 23 6 C33.438 2.562 33.438 2.562 36 0 C38.938 -0.188 38.938 -0.188 42 0 C44 2 44 2 44.625 4.75 C43.911 8.462 43.365 8.935 40.5 11.188 C31.278 17.434 20.977 19.435 10.047 17.469 C4.682 16.12 0.368 14.516 -4 11 C-4.804 10.381 -5.609 9.762 -6.438 9.125 C-8 7 -8 7 -7.875 3.812 C-7.586 2.884 -7.298 1.956 -7 1 C-4.443 -0.279 -2.845 -0.23 0 0 Z " fill="#3A1B06" transform="translate(502,480)" />
  <path d="M0 0 C3.944 2.269 7.157 5.113 10.336 8.344 C10.897 8.846 11.457 9.349 12.035 9.867 C13.336 11.344 13.336 11.344 13.648 14.406 C13.336 17.344 13.336 17.344 11.336 19.344 C8.711 19.906 8.711 19.906 5.336 19.344 C3.445 17.883 3.445 17.883 1.461 16.031 C-5.425 9.625 -11.331 9.01 -20.613 9.043 C-23.672 9.345 -25.857 10.152 -28.664 11.344 C-32.043 11.029 -33.239 10.769 -35.664 8.344 C-36.102 5.969 -36.102 5.969 -35.664 3.344 C-33.414 1.156 -33.414 1.156 -30.664 -0.656 C-30.124 -1.016 -29.584 -1.376 -29.027 -1.746 C-20.681 -4.961 -8.033 -3.46 0 0 Z " fill="#391B06" transform="translate(654.6640625,305.65625)" />
  <path d="M0 0 C2.931 2.541 2.931 2.541 3.375 5.5 C3 8 3 8 1.875 9.875 C-0.953 11.572 -2.89 10.778 -6 10 C-6.99 9.67 -7.98 9.34 -9 9 C-17.378 8.404 -25.407 8.063 -32.051 13.758 C-33.404 15.017 -34.757 16.276 -36.109 17.535 C-38 19 -38 19 -41.375 19.625 C-44 19 -44 19 -46 16 C-45.914 12.067 -45.329 10.384 -42.75 7.375 C-41.842 6.591 -40.935 5.808 -40 5 C-39.278 4.319 -38.556 3.639 -37.812 2.938 C-27.189 -4.381 -11.64 -6.285 0 0 Z " fill="#3A1C06" transform="translate(419,306)" />
  <path d="M0 0 C3.412 1.923 5.43 3.341 6.73 7.125 C7.452 11.354 7.234 13.522 5.312 17.438 C1.835 21.291 1.835 21.291 -1 22 C-5.162 22.06 -8.095 21.696 -11.438 19.125 C-14.316 15.211 -14.326 11.734 -14 7 C-11.041 0.66 -6.85 -1.215 0 0 Z " fill="#FBF9F8" transform="translate(634,380)" />
  <path d="M0 0 C2.81 1.794 4.509 3.019 6 6 C6.643 10.59 6.779 14.662 3.938 18.5 C0.429 21.486 -1.417 22.082 -6 22 C-10.552 20.201 -12.833 17.334 -15 13 C-15 7.689 -13.677 4.789 -10 1 C-6.798 -0.601 -3.474 -0.499 0 0 Z " fill="#FBFAF8" transform="translate(415,380)" />
  <path d="M0 0 C3.53 3.06 5.83 5.089 6.25 9.812 C5.965 13.442 5.222 15.143 3 18 C-0.422 20.566 -3.848 20.51 -8 20 C-11.846 16.823 -13.802 14.714 -14.375 9.75 C-13.879 4.786 -12.525 3.443 -9 0 C-5.376 -1.208 -3.667 -1.027 0 0 Z " fill="#8AD0DB" transform="translate(284,171)" />
  <path d="M0 0 C2.929 1.813 5.436 3.873 7 7 C7.172 10.806 7.041 14.516 4.805 17.703 C2.37 19.921 0.204 20.958 -3 21.625 C-7.2 20.75 -8.939 18.99 -12 16 C-13.575 12.851 -13.348 10.48 -13 7 C-9.725 1.501 -6.406 -0.739 0 0 Z " fill="#8ACED8" transform="translate(765,170)" />
  <path d="M0 0 C3.438 0.812 3.438 0.812 5.438 3.812 C5.942 7.092 5.713 8.394 3.875 11.188 C1.438 12.812 1.438 12.812 -2.188 12.75 C-5.562 11.812 -5.562 11.812 -7.562 8.812 C-7.375 5.25 -7.375 5.25 -6.562 1.812 C-3.562 -0.188 -3.562 -0.188 0 0 Z " fill="#F8F7F5" transform="translate(390.5625,418.1875)" />
  <path d="M0 0 C2 2 2 2 2.375 5.438 C2 9 2 9 0.312 10.938 C-2.491 12.226 -3.956 12.609 -7 12 C-9.375 9.812 -9.375 9.812 -11 7 C-10.931 4.122 -10.344 2.573 -8.875 0.125 C-5.817 -1.71 -3.344 -0.79 0 0 Z " fill="#FAF8F7" transform="translate(657,419)" />
  <path d="M0 0 C2.875 2 2.875 2 5 4 C4.688 6.375 4.688 6.375 4 9 C0.279 11.48 -1.598 11.463 -6 11 C-8.5 9.25 -8.5 9.25 -10 7 C-9.924 4.49 -9.21 3.31 -7.812 1.25 C-5.07 -0.642 -3.259 -0.456 0 0 Z " fill="#371A07" transform="translate(523,437)" />
</svg>