<svg xmlns="http://www.w3.org/2000/svg" viewBox="0 0 1024 1024" preserveAspectRatio="xMidYMid meet" id="mermaid-svg">
  <path d="M0 0 C337.92 0 675.84 0 1024 0 C1024 337.92 1024 675.84 1024 1024 C686.08 1024 348.16 1024 0 1024 C0 686.08 0 348.16 0 0 Z " fill="#F7F3EF" transform="translate(0,0)" />
  <path d="M0 0 C0.496 -0.001 0.496 -0.001 3.007 -0.003 C20.039 0.009 36.68 0.849 53.562 3.25 C54.562 3.389 55.562 3.528 56.592 3.672 C121.652 13.059 179.756 41.191 225.562 88.25 C225.903 87.269 226.243 86.288 226.594 85.277 C234.054 64.282 244.064 45.801 264.418 34.691 C273.741 30.26 282.59 27.707 292.938 27.875 C293.859 27.887 294.781 27.898 295.731 27.91 C316.279 28.402 335.239 38.917 349.316 53.672 C362.282 68.554 370.691 86.174 375.562 105.25 C375.747 105.95 375.931 106.649 376.12 107.37 C377.818 114.611 377.935 121.829 377.933 129.225 C377.937 131.351 377.974 133.475 378.012 135.602 C378.167 154.569 372.64 174.479 360.004 189.047 C358.9 190.16 357.74 191.216 356.562 192.25 C357.865 196.156 359.399 196.622 362.875 198.75 C369.825 203.242 375.618 208.522 381.562 214.25 C382.208 214.833 382.854 215.415 383.52 216.016 C405.944 236.812 417.673 270.344 418.801 300.273 C419.37 327.86 411.944 354.951 392.5 375.25 C391.192 376.588 389.877 377.919 388.562 379.25 C387.993 379.892 387.423 380.534 386.836 381.195 C371.271 398.356 344.008 409.065 321.23 410.453 C305.857 410.66 305.857 410.66 299.438 405.562 C298.066 401.939 298.368 398.846 299.562 395.25 C300.766 393.445 300.766 393.445 302.25 391.625 C320.71 368.959 320.74 330.729 318.27 302.956 C315.396 279.019 307.492 254.704 296.562 233.25 C296.623 233.826 296.684 234.403 296.746 234.996 C300.227 268.947 300.335 304.173 285.71 335.735 C283.936 339.674 283.062 342.125 284.562 346.25 C285.303 347.858 286.097 349.442 286.938 351 C294.126 364.961 295.619 379.834 291.586 395.098 C286.414 411.029 275.547 422.892 260.809 430.711 C247.664 437.036 234.893 437.229 220.562 435.25 C220.078 436.338 219.593 437.426 219.094 438.547 C203.134 473.78 175.948 496.712 140.562 511.25 C124.09 517.427 106.769 520.819 89.562 524.25 C90.376 524.809 91.189 525.369 92.027 525.945 C103.89 534.207 114.961 543.369 125.87 552.844 C133.451 559.422 141.304 565.569 149.338 571.583 C151.538 573.231 153.728 574.891 155.918 576.551 C194.954 605.939 194.954 605.939 213.562 611.25 C216.738 612.223 219.903 613.228 223.062 614.25 C223.829 614.498 224.596 614.745 225.385 615.001 C233.128 617.605 238.958 621.343 243.562 628.25 C246.925 635.145 246.774 643.935 244.723 651.242 C240.896 659.719 234.174 664.001 225.816 667.504 C222.395 668.636 219.151 668.989 215.562 669.25 C215.427 669.902 215.292 670.555 215.152 671.227 C213.518 677.862 211.442 681.642 205.562 685.25 C199.556 688.062 193.518 688.001 187.25 686.188 C179.29 683.257 172.553 678.05 165.875 672.938 C161.435 669.545 156.908 666.568 152.125 663.688 C140.124 656.397 129.206 647.525 118.219 638.812 C117.572 638.301 116.926 637.789 116.26 637.261 C115.082 636.324 113.906 635.383 112.736 634.436 C110.33 632.512 108.517 631.235 105.562 630.25 C106.592 634.218 107.666 638.172 108.75 642.125 C108.896 642.689 108.896 642.689 109.635 645.543 C109.934 646.619 110.234 647.696 110.543 648.805 C110.81 649.8 111.077 650.795 111.352 651.82 C112.931 654.989 114.319 655.048 117.562 656.25 C120.772 659.578 122.299 662.645 123.633 667.039 C123.972 668.146 124.311 669.254 124.66 670.395 C124.999 671.543 125.338 672.692 125.688 673.875 C126.034 675 126.381 676.126 126.738 677.285 C139.27 718.817 131.401 761.225 116.228 800.858 C113.536 807.948 111.287 815.034 111.25 822.688 C111.233 823.511 111.216 824.335 111.199 825.184 C111.319 825.866 111.439 826.547 111.562 827.25 C112.553 827.91 113.543 828.57 114.562 829.25 C114.675 828.238 114.787 827.226 114.902 826.184 C118.662 803.781 134.018 781.191 149.562 765.25 C150.206 764.533 150.849 763.817 151.512 763.078 C168.212 744.965 196.579 733.533 220.916 732.045 C224.551 731.947 228.176 731.921 231.812 731.938 C233.093 731.942 234.373 731.946 235.692 731.95 C247.915 732.096 263.035 732.407 272.625 741.125 C273.961 744.154 273.968 745.932 273.562 749.25 C271.959 752.083 269.943 754.568 267.938 757.125 C258.38 770.077 254.924 783.813 251.184 799.32 C245.554 822.284 234.531 841.075 214.562 854.25 C213.903 854.25 213.242 854.25 212.562 854.25 C214.975 856.918 217.599 858.553 220.688 860.375 C236.193 870.181 244.553 885.447 249.953 902.617 C255.008 918.68 262.118 929.746 275.562 940.25 C277.014 943.153 276.935 945.023 276.562 948.25 C271.81 956.28 263.071 958.694 254.468 960.97 C221.451 969.327 184.547 963.157 155.117 946.273 C148.324 941.913 142.391 936.813 136.562 931.25 C135.949 930.711 135.335 930.172 134.703 929.617 C121.474 917.541 115.479 899.926 110.562 883.25 C102.17 884.162 93.932 885.834 85.648 887.434 C52.1 893.79 16.898 891.033 -15.438 880.25 C-16.121 880.032 -16.805 879.813 -17.509 879.588 C-39.157 872.605 -59.6 860.847 -76.207 845.324 C-78.249 843.425 -80.352 841.652 -82.5 839.875 C-87.461 835.541 -91.405 830.434 -95.438 825.25 C-95.809 824.786 -95.809 824.786 -97.691 822.438 C-123.22 789.761 -133.506 745.017 -128.613 704.155 C-123.471 666.506 -123.471 666.506 -112.938 656.992 C-111.118 655.724 -109.283 654.48 -107.438 653.25 C-106.41 650.195 -106.41 650.195 -105.5 646.375 C-105.166 645.021 -104.829 643.668 -104.488 642.316 C-104.318 641.637 -104.147 640.958 -103.971 640.258 C-102.71 635.512 -101.059 630.882 -99.438 626.25 C-104.285 628.862 -108.432 631.72 -112.562 635.375 C-118.372 640.393 -124.346 645.149 -130.477 649.771 C-132.749 651.485 -135.015 653.208 -137.281 654.93 C-145.283 660.989 -153.268 666.965 -161.703 672.41 C-164.808 674.499 -167.734 676.766 -170.688 679.062 C-179.786 685.881 -186.93 687.481 -198.438 686.25 C-203.378 684.7 -206.639 681.548 -209.438 677.25 C-209.788 676.033 -210.139 674.816 -210.5 673.562 C-212.438 670.25 -212.438 670.25 -214.648 669.57 C-216.537 669.305 -218.428 669.056 -220.32 668.82 C-227.989 667.417 -235.56 663.484 -240.258 657.16 C-244.213 650.757 -246.741 644.873 -245.438 637.25 C-242.923 629.143 -238.448 623.044 -231.14 618.575 C-224.49 615.315 -217.042 613.682 -209.927 611.7 C-197.677 608.263 -187.312 603.8 -177.125 596 C-175.837 595.034 -174.548 594.069 -173.258 593.105 C-172.62 592.626 -171.982 592.147 -171.325 591.654 C-168.418 589.492 -165.459 587.404 -162.5 585.312 C-149.057 575.761 -135.95 565.797 -123.375 555.125 C-121.68 553.688 -119.984 552.251 -118.287 550.815 C-117.009 549.734 -115.732 548.651 -114.455 547.567 C-104.506 539.148 -94.319 531.426 -83.438 524.25 C-83.785 524.171 -83.785 524.171 -85.543 523.77 C-87.772 523.258 -90 522.742 -92.227 522.223 C-95.238 521.522 -98.254 520.848 -101.273 520.184 C-140.282 511.445 -181.563 494.128 -204.188 459.375 C-208.935 451.835 -213.617 443.713 -216.438 435.25 C-217.009 435.322 -217.58 435.394 -218.168 435.469 C-236.239 437.537 -251.745 435.766 -266.562 424.562 C-278.419 414.62 -286.767 400.763 -288.438 385.25 C-289.381 371.473 -288.26 359.1 -280.293 347.348 C-278.191 342.194 -281.308 336.667 -283.25 331.812 C-288.599 317.911 -291.409 303.951 -293.438 289.25 C-293.536 288.577 -293.635 287.904 -293.736 287.211 C-294.418 282.298 -294.592 277.509 -294.562 272.562 C-294.561 271.76 -294.559 270.958 -294.557 270.132 C-294.49 260.492 -293.974 250.872 -293.438 241.25 C-298.597 253.94 -303.072 266.632 -306.375 279.938 C-306.516 280.503 -306.516 280.503 -307.229 283.366 C-310.364 296.453 -311.769 308.907 -311.698 322.325 C-311.688 324.747 -311.698 327.168 -311.711 329.59 C-311.72 338.659 -311.193 347.321 -309.438 356.25 C-309.292 357.026 -309.146 357.803 -308.995 358.603 C-306.539 371.023 -302.88 383.04 -296.062 393.812 C-294.257 396.677 -293.44 398.237 -292.812 401.625 C-293.621 405.021 -294.633 406.183 -297.438 408.25 C-314.834 415.144 -336.151 407.202 -352.438 400.25 C-375.848 389.428 -394.304 369.917 -404.125 346.125 C-415.394 314.369 -412.454 280.312 -398.369 249.947 C-391.862 236.509 -383.676 225.127 -373.438 214.25 C-372.91 213.658 -372.383 213.067 -371.84 212.457 C-366.35 206.546 -359.596 202.083 -353.061 197.416 C-351.166 196.055 -349.296 194.661 -347.438 193.25 C-347.994 192.642 -348.551 192.033 -349.125 191.406 C-367.237 170.602 -370.592 146.097 -369.438 119.25 C-367.169 90.842 -352.885 62.849 -331.438 44.25 C-314.487 30.936 -295.681 26.785 -274.438 28.25 C-270.086 29.048 -266.412 30.332 -262.438 32.25 C-261.534 32.651 -260.63 33.052 -259.699 33.465 C-238.948 43.591 -227.019 64.318 -219.438 85.25 C-215.294 81.827 -211.443 78.283 -207.688 74.438 C-202.569 69.288 -197.18 64.683 -191.438 60.25 C-190.776 59.734 -190.115 59.218 -189.434 58.687 C-144.702 23.993 -90.315 6.632 -34.438 1.25 C-33.491 1.154 -32.544 1.059 -31.568 0.96 C-21.062 0.014 -10.541 0.007 0 0 Z " fill="#2E160B" transform="translate(507.4375,27.75)" />
  <path d="M0 0 C2.211 2.211 2.498 3.231 3.262 6.191 C3.49 7.045 3.718 7.899 3.952 8.779 C4.195 9.698 4.438 10.616 4.688 11.562 C11.821 37.326 23.632 60.391 47 75 C62.547 83.739 78.631 88.149 96.5 88.25 C97.411 88.271 98.323 88.291 99.262 88.312 C104.955 88.345 109.005 87.813 114 85 C116.89 80.666 116.484 77.094 116 72 C115.093 67.499 113.878 63.104 112.625 58.688 C109.112 46.127 106.527 34.101 107 21 C109.621 24.278 111.56 27.755 113.562 31.438 C117.712 38.863 122.618 45.43 128 52 C128.646 52.812 129.292 53.624 129.957 54.461 C137.518 63.534 146.836 70.206 157.312 75.5 C157.958 75.826 158.603 76.152 159.268 76.489 C168.844 81.094 179.439 82.867 189.812 79.875 C196.157 77.434 201.015 73.127 204 67 C204.698 65.346 205.375 63.683 206 62 C210.293 65.988 213.467 70.352 216.75 75.188 C221.409 81.916 226.293 88.114 232 94 C232.534 94.596 233.067 95.191 233.617 95.805 C245.662 108.808 262.085 115.995 278 123 C278.795 152.634 276.518 181.282 270.062 210.25 C269.9 210.982 269.737 211.714 269.569 212.468 C263.733 238.318 255.676 261.495 237 281 C236.694 281.338 236.694 281.338 235.145 283.047 C203.352 316.94 150.483 325.174 106.422 328.527 C105.366 328.608 104.309 328.69 103.221 328.773 C101.193 328.922 99.164 329.057 97.134 329.178 C96.68 329.21 96.68 329.21 94.383 329.375 C93.582 329.424 92.782 329.473 91.958 329.523 C90 330 90 330 88 333 C88.188 336.062 88.188 336.062 89 339 C92.033 341.022 92.906 341.277 96.359 341.492 C97.22 341.555 98.081 341.618 98.968 341.682 C99.886 341.746 100.804 341.809 101.75 341.875 C130.886 344.354 149.56 359.043 171.066 377.492 C174.701 380.599 178.387 383.637 182.102 386.648 C184.149 388.309 186.183 389.98 188.211 391.664 C198.444 400.086 209.246 407.621 220.193 415.081 C222.801 416.864 225.394 418.667 227.984 420.477 C240.575 429.194 253.082 434.791 267.898 438.734 C274.46 440.554 280.465 443.069 285 448.312 C286.371 451.996 286.865 455.178 286 459 C283.232 464.362 278.705 467.345 273.141 469.359 C267.613 470.487 262.08 470.235 256.465 470.043 C255.321 470.029 254.178 470.015 253 470 C252 471 252 471 251.75 473.875 C252.037 477.466 252.557 477.659 255 480 C255.438 482.5 255.438 482.5 255 485 C253.562 486.875 253.562 486.875 251 488 C241.605 488.823 234.418 483.076 227.562 477.375 C223.014 473.62 218.204 470.573 213.188 467.5 C202.223 460.743 192.099 452.975 182 445 C181.127 444.312 180.254 443.623 179.354 442.914 C174.898 439.378 170.546 435.805 166.375 431.938 C163.192 429.001 159.988 426.116 156.688 423.312 C155.454 422.213 154.225 421.109 153 420 C152.456 419.542 151.912 419.085 151.352 418.613 C146.229 413.66 145.014 407.027 143.215 400.375 C140.798 391.465 137.867 383.208 132 376 C129.625 376.312 129.625 376.312 127 377 C126.34 377.99 125.68 378.98 125 380 C119 378 119 378 117.028 377.245 C111.333 375.145 106.24 374.454 100.188 374.5 C99.313 374.506 98.439 374.511 97.538 374.517 C84.916 374.864 75.615 380.349 66.844 389.168 C62.579 393.791 59.16 398.569 56 404 C54.176 403.785 54.176 403.785 52 403 C50.543 400.996 50.543 400.996 49.188 398.438 C42.691 387.092 33.983 379.574 21.382 375.591 C17.495 374.627 13.741 374.471 9.75 374.5 C8.93 374.5 8.109 374.5 7.264 374.5 C0.595 374.657 -4.483 376.128 -10.531 379.004 C-13 380 -13 380 -16 379 C-17.688 376.438 -17.688 376.438 -19 374 C-20.766 374.082 -20.766 374.082 -23 375 C-24.47 377.234 -25.612 379.289 -26.75 381.688 C-26.924 382.038 -26.924 382.038 -27.804 383.81 C-29.79 387.949 -31.405 392.081 -32.77 396.465 C-37.136 410.405 -42.473 418.095 -54 427 C-55.939 428.603 -57.877 430.207 -59.812 431.812 C-60.697 432.518 -61.581 433.223 -62.492 433.949 C-64.905 435.923 -67.166 437.992 -69.438 440.125 C-81.028 450.668 -94.249 459.512 -106.963 468.632 C-111.406 471.825 -115.751 475.11 -120.043 478.504 C-131.327 487.131 -131.327 487.131 -139.062 487.188 C-139.94 487.202 -140.818 487.216 -141.723 487.23 C-144 487 -144 487 -146 485 C-146.345 480.947 -146.302 479.452 -144 476 C-144.375 472.812 -144.375 472.812 -145 470 C-150.625 468.875 -150.625 468.875 -154 470 C-161.722 470.707 -168.411 470.357 -175 466 C-178.037 463.462 -179.767 461.072 -180.625 457.125 C-179.526 451.629 -176.895 447.623 -172.656 443.992 C-167.56 440.771 -161.391 439.747 -155.625 438.25 C-138.012 433.413 -124.823 426.403 -110.206 415.621 C-107.944 413.959 -105.667 412.322 -103.383 410.691 C-91.567 402.245 -79.978 393.623 -68.94 384.173 C-64.51 380.393 -59.972 376.774 -55.374 373.202 C-52.297 370.811 -49.248 368.397 -46.238 365.922 C-26.084 349.386 -7.93 342.155 18 341 C19.336 334.683 19.336 334.683 17.934 331.836 C15.202 329.243 13.09 329.249 9.367 328.875 C8.707 328.803 8.047 328.731 7.366 328.657 C5.945 328.503 4.523 328.357 3.1 328.218 C-0.667 327.849 -4.426 327.415 -8.188 326.992 C-8.942 326.909 -9.697 326.826 -10.474 326.74 C-55.204 321.79 -104.126 309.669 -134.566 273.992 C-153.651 249.257 -159.72 220.146 -165 190 C-165.161 189.085 -165.323 188.169 -165.489 187.226 C-165.921 184.736 -166.34 182.244 -166.75 179.75 C-166.866 179.061 -166.981 178.373 -167.1 177.663 C-168.979 165.66 -169.324 153.399 -169.515 141.265 C-169.547 139.697 -169.595 138.129 -169.658 136.562 C-170.173 123.546 -170.173 123.546 -167.467 119.98 C-165.354 118.625 -163.371 117.811 -161 117 C-159.643 116.316 -158.295 115.614 -156.957 114.895 C-156.62 114.726 -156.62 114.726 -154.914 113.871 C-141.004 106.864 -130.333 97.819 -119.734 86.449 C-119.047 85.73 -118.36 85.011 -117.652 84.27 C-117.044 83.616 -116.435 82.962 -115.808 82.288 C-114 81 -114 81 -112.001 81.199 C-110.102 81.959 -108.215 82.748 -106.328 83.539 C-101.76 85.274 -97.598 85.46 -92.75 85.375 C-92.333 85.37 -92.333 85.37 -90.222 85.346 C-68.359 84.815 -49.158 73.158 -34.004 58.004 C-32.252 56.058 -30.617 54.06 -29 52 C-28.317 51.153 -27.634 50.306 -26.93 49.434 C-15.116 34.306 -7.288 17.676 0 0 Z " fill="#F7D5B8" transform="translate(455,214)" />
  <path d="M0 0 C1.399 0.577 2.799 1.152 4.199 1.727 C30.571 12.755 52.748 29.838 73.727 48.949 C75.848 50.863 78.01 52.714 80.188 54.562 C83.531 57.47 86.389 60.62 89.242 64.004 C90.942 65.935 92.736 67.632 94.625 69.375 C134.723 109.163 153.661 173.388 154.25 228.438 C154.277 251.628 149.639 273.21 142 295 C138.402 294.39 135.35 293.362 132 291.938 C124.082 288.976 116.181 289.286 108 291 C107.96 290.142 107.921 289.283 107.88 288.399 C107.148 273.214 106.3 258.113 104.062 243.062 C103.984 242.525 103.984 242.525 103.585 239.807 C101.115 224.173 101.115 224.173 97 218 C94 217.688 94 217.688 91 218 C89 220 89 220 88.688 223.812 C88.786 228.927 90.029 233.617 91.266 238.559 C92.426 243.995 92.737 249.457 93 255 C87.586 253.661 83.085 251.698 78.25 248.938 C77.901 248.739 77.901 248.739 76.137 247.737 C69.886 244.092 64.355 239.871 59 235 C58.308 234.389 57.616 233.778 56.902 233.148 C47.474 224.338 37.994 211.411 34 199 C34.859 195.52 36.526 192.911 38.75 190.125 C39.219 189.509 39.688 188.893 40.172 188.258 C42 187 42 187 44.762 187.098 C48.424 188.118 51.683 189.612 55.062 191.312 C66.308 196.71 77.285 200.782 90 199 C94.063 196.986 96.398 194.716 99 191 C101.184 184.447 100.016 178.753 97.5 172.5 C97.237 171.821 96.975 171.141 96.704 170.442 C94.39 164.619 91.655 159.024 88.717 153.492 C86.563 149.39 85.134 145.497 84 141 C84.594 140.441 85.189 139.881 85.801 139.305 C90.876 134.396 95.509 129.355 99.875 123.812 C100.327 123.243 100.778 122.674 101.243 122.087 C106.901 114.783 110.655 108.497 110 99 C108.256 94.319 106.18 91.722 102 89 C92.961 85.43 83.303 86.728 73.875 88 C73.201 88.08 72.528 88.16 71.834 88.242 C68.73 88.61 65.747 89.062 62.707 89.801 C59.081 90.415 57.37 90.547 54 89 C49.813 84.098 47.117 78.086 44.239 72.364 C40.214 64.683 34.556 55.852 26 53 C19.732 52.43 14.483 52.649 9 56 C-0.727 64.57 -2.212 74.476 -3.625 86.875 C-3.865 88.893 -4.107 90.912 -4.352 92.93 C-4.453 93.809 -4.554 94.688 -4.659 95.593 C-4.771 96.387 -4.884 97.182 -5 98 C-5.037 98.36 -5.037 98.36 -5.223 100.185 C-6 102 -6 102 -8.186 103.169 C-9.139 103.481 -10.092 103.792 -11.074 104.113 C-12.128 104.471 -13.182 104.828 -14.268 105.196 C-15.397 105.564 -16.525 105.933 -17.688 106.312 C-44.674 115.602 -44.674 115.602 -51 125 C-53.167 131.501 -51.837 136.1 -49 142 C-48.67 142.99 -48.34 143.98 -48 145 C-46.198 146.05 -46.198 146.05 -44 147 C-42.611 147.731 -41.224 148.467 -39.84 149.207 C-39.045 149.629 -38.25 150.051 -37.432 150.486 C-35.795 151.357 -34.16 152.229 -32.525 153.104 C-26.457 156.32 -20.279 159.218 -14 162 C-14.026 163.215 -14.052 164.429 -14.079 165.681 C-14.171 170.234 -14.228 174.787 -14.275 179.34 C-14.3 181.302 -14.334 183.264 -14.377 185.226 C-14.83 206.149 -14.83 206.149 -9 215 C-26.725 211.872 -41.587 198.53 -51.762 184.281 C-61.693 169.723 -69.064 155.017 -74.312 138.25 C-74.954 136.223 -75.598 134.198 -76.25 132.174 C-76.829 130.371 -77.398 128.565 -77.966 126.759 C-79 124 -79 124 -81 122 C-84.438 121.562 -84.438 121.562 -88 122 C-91.338 125.996 -91.439 129.929 -91.398 134.922 C-91.403 135.69 -91.407 136.459 -91.411 137.251 C-91.418 139.751 -91.399 142.25 -91.375 144.75 C-91.37 145.606 -91.366 146.461 -91.361 147.343 C-91.215 170.14 -88.066 191.34 -82.597 213.47 C-81.93 216.297 -81.407 219.125 -81 222 C-102.515 222.776 -124.187 216.859 -140.949 202.969 C-162.326 182.447 -169.92 152.438 -172.925 123.901 C-173.584 117.936 -174.856 112.609 -177 107 C-179.813 106.312 -179.813 106.312 -183 106 C-185.928 108.15 -186.676 110.482 -187.613 113.91 C-187.888 114.891 -188.163 115.872 -188.447 116.882 C-188.732 117.932 -189.018 118.981 -189.312 120.062 C-189.934 122.256 -190.558 124.449 -191.184 126.641 C-191.492 127.724 -191.799 128.808 -192.117 129.924 C-199.1 154.242 -209.148 176.683 -227 195 C-227.825 195.866 -228.65 196.732 -229.5 197.625 C-230.325 198.409 -231.15 199.192 -232 200 C-232.643 200.615 -233.286 201.23 -233.949 201.863 C-243.073 210.319 -251.984 214.825 -264 218 C-264.62 218.197 -265.24 218.394 -265.879 218.598 C-269.254 219.238 -272.641 219.143 -276.062 219.125 C-276.782 219.129 -277.502 219.133 -278.244 219.137 C-281.427 219.131 -283.959 219.014 -287 218 C-287.876 210.912 -284.897 206.488 -281.375 200.5 C-274.529 188.363 -269.487 176.726 -266.125 163.188 C-265.909 162.328 -265.693 161.468 -265.471 160.582 C-264.096 154.647 -263.752 149.082 -264 143 C-270.479 142.633 -270.479 142.633 -272.6 144.125 C-274.499 146.668 -275.188 149.137 -276.086 152.18 C-276.46 153.42 -276.834 154.66 -277.219 155.938 C-277.605 157.25 -277.99 158.562 -278.375 159.875 C-289.537 197.517 -307.702 228.371 -342 249 C-342.633 249.381 -343.265 249.762 -343.917 250.154 C-348.751 253 -348.751 253 -351 253 C-351.119 248.301 -350.781 244.137 -349.75 239.555 C-349.475 238.326 -349.2 237.098 -348.917 235.832 C-348.612 234.513 -348.306 233.194 -348 231.875 C-347.846 231.203 -347.693 230.531 -347.535 229.839 C-343.925 214.062 -340.115 198.109 -334.906 182.781 C-334.059 180.18 -333.782 178.331 -333.875 175.625 C-333.916 174.429 -333.957 173.232 -334 172 C-340.486 171.633 -340.486 171.633 -342.562 173.117 C-354.738 189.065 -357.482 217.592 -361.438 237.125 C-361.684 238.338 -361.931 239.551 -362.186 240.801 C-364.579 253.089 -365.165 265.259 -365.562 277.75 C-365.584 278.391 -365.584 278.391 -365.693 281.633 C-365.798 284.755 -365.9 287.878 -366 291 C-366.927 290.84 -367.854 290.68 -368.81 290.515 C-377.662 289.086 -385.373 289.551 -393.66 293.027 C-395.77 293.905 -397.773 294.511 -400 295 C-409.416 274.278 -412.233 253.365 -412.25 230.875 C-412.251 230.079 -412.251 229.284 -412.252 228.464 C-412.168 165.799 -386.421 103.094 -343 58 C-342.498 57.476 -341.996 56.953 -341.479 56.413 C-334.714 49.387 -327.662 43.053 -320 37 C-318.856 36.057 -317.714 35.112 -316.574 34.164 C-307.5 26.673 -298.039 20.13 -288 14 C-287.376 13.612 -286.752 13.225 -286.109 12.826 C-256.258 -5.568 -221.344 -15.345 -187 -21 C-186.039 -21.159 -185.079 -21.318 -184.089 -21.482 C-123.49 -31.208 -56.461 -24.527 0 0 Z " fill="#C84129" transform="translate(639,67)" />
  <path d="M0 0 C35.972 2.726 75.656 26.739 101.539 50.312 C104 52 104 52 106.535 52.492 C109.82 51.836 111.079 50.488 113.438 48.125 C136.206 26.636 166.904 13.064 196.312 3.5 C196.846 3.325 196.846 3.325 199.549 2.438 C200.56 2.118 201.571 1.798 202.613 1.469 C203.508 1.185 204.403 0.9 205.325 0.607 C208.289 -0.066 210.971 -0.104 214 0 C233.777 42.815 221.803 91.648 207.323 133.959 C207.036 134.803 206.749 135.647 206.453 136.516 C206.325 136.888 206.325 136.888 205.677 138.774 C202.963 147.699 202.123 158.598 206.613 167.027 C209.722 171.449 213.154 175.263 218.52 176.652 C220.703 176.903 222.804 177.036 225 177 C228.079 172.552 229.234 168.019 230.625 162.875 C236.859 141.165 248.225 121.241 264 105 C264.66 105 265.32 105 266 105 C266 104.34 266 103.68 266 103 C269.112 100.063 272.571 97.554 276 95 C276.795 94.406 277.591 93.811 278.41 93.199 C291.298 84.315 306.627 79.296 322 77 C322.481 76.909 322.481 76.909 324.918 76.449 C336.298 74.79 351.491 74.746 362 80 C360.55 84.052 358.552 87.352 356.188 90.938 C349.89 100.942 347.046 111.432 344.562 122.875 C339.854 144.428 332.469 161.076 313.562 173.75 C303.834 179.768 294.452 181.061 283.18 181.621 C280 182 280 182 277 184 C277.33 186.31 277.66 188.62 278 191 C282.029 192.85 285.666 193.422 290.062 193.875 C302.589 195.376 315.258 199.679 325 208 C325 208.66 325 209.32 325 210 C325.66 210 326.32 210 327 210 C334.78 219.614 339.709 229.847 343.429 241.599 C347.583 254.653 352.469 265.75 363 275 C363.66 275.66 364.32 276.32 365 277 C334.892 287.004 301.984 284.19 273.438 270.125 C266.821 266.71 260.804 262.672 255 258 C254.296 257.46 253.592 256.92 252.867 256.363 C239.929 245.886 230.739 229.127 227 213 C226.724 211.846 226.448 210.693 226.164 209.504 C225.422 206.34 224.701 203.173 224 200 C216.975 199.621 210.967 201.073 204.188 202.812 C155.928 214.503 103.345 210.597 60.063 184.848 C40.367 172.715 22.432 156.587 10 137 C9.61 136.395 9.219 135.79 8.817 135.167 C-5.711 112.284 -11.226 84.904 -11.25 58.125 C-11.251 57.438 -11.251 56.752 -11.252 56.045 C-11.222 37.035 -9.095 17.054 0 0 Z " fill="#9C68A2" transform="translate(403,696)" />
  <path d="M0 0 C4.662 3.283 8.782 6.957 12.812 10.98 C13.162 11.324 13.162 11.324 14.93 13.062 C32.605 31.598 40.428 59.282 40.02 84.375 C39.446 101.045 35.091 117.824 23.062 129.934 C13.739 138.415 3.762 143.387 -9.012 143.184 C-20.049 142.478 -33.631 139.597 -42.188 131.98 C-44.143 128.447 -45.138 125.042 -46.039 121.148 C-47.392 115.502 -50.36 110.693 -53.244 105.703 C-57.058 98.93 -57.058 98.93 -56.188 94.98 C-50.274 86.768 -41.387 81.577 -32.125 77.98 C-28.353 76.378 -28.353 76.378 -26.938 72.98 C-27.188 69.98 -27.188 69.98 -28.188 67.605 C-31.185 65.17 -33.398 65.696 -37.188 65.98 C-45.868 69.087 -52.666 73.679 -59.102 80.258 C-61.188 81.98 -61.188 81.98 -65.188 81.98 C-66.813 79.952 -66.813 79.952 -68.41 77.152 C-70.858 73.071 -73.401 69.279 -76.371 65.559 C-77.07 64.678 -77.77 63.798 -78.49 62.891 C-79.932 61.094 -81.383 59.305 -82.842 57.523 C-88.031 50.944 -88.031 50.944 -88.789 46.285 C-85.902 30.423 -78.653 16.305 -67.188 4.98 C-66.562 4.333 -65.937 3.686 -65.293 3.02 C-47.513 -14.124 -19.807 -12.353 0 0 Z " fill="#C84229" transform="translate(833.1875,79.01953125)" />
  <path d="M0 0 C10.554 9.692 19.156 24.664 20.809 39.016 C20.718 44.315 17.867 47.348 14.562 51.25 C13.372 52.725 12.184 54.203 11 55.684 C10.397 56.432 9.793 57.181 9.172 57.953 C6.3 61.624 3.675 65.454 1.062 69.312 C0.589 70.009 0.116 70.706 -0.372 71.424 C-1.46 73.03 -2.543 74.64 -3.625 76.25 C-4.12 76.085 -4.12 76.085 -6.625 75.25 C-6.625 74.59 -6.625 73.93 -6.625 73.25 C-7.21 72.979 -7.795 72.709 -8.398 72.43 C-10.604 71.261 -12.326 69.956 -14.25 68.375 C-20.977 63.274 -28.124 60.206 -36.625 61.25 C-38.625 62.312 -38.625 62.312 -39.625 64.25 C-39.812 67.938 -39.812 67.938 -39.625 71.25 C-39.091 71.409 -38.558 71.567 -38.008 71.73 C-27.913 74.892 -18.714 79.127 -11.625 87.25 C-10.634 89.747 -10.513 90.906 -11.35 93.486 C-11.742 94.291 -12.135 95.096 -12.539 95.926 C-12.968 96.829 -13.396 97.733 -13.838 98.664 C-14.304 99.621 -14.77 100.577 -15.25 101.562 C-18.443 108.243 -21.195 114.667 -23.125 121.812 C-24.63 126.568 -25.664 129.05 -30.125 131.438 C-31.935 132.108 -33.772 132.707 -35.625 133.25 C-36.735 133.623 -37.845 133.995 -38.988 134.379 C-51.714 138.515 -62.757 139.915 -75.625 135.25 C-78.854 133.508 -81.725 131.489 -84.625 129.25 C-85.491 128.673 -86.358 128.095 -87.25 127.5 C-98.504 116.838 -104.02 100.806 -104.753 85.594 C-105.082 73.14 -105.023 61.314 -101.625 49.25 C-101.296 48.047 -100.968 46.845 -100.629 45.605 C-96.564 32.173 -90.129 18.694 -80.625 8.25 C-79.899 7.433 -79.174 6.615 -78.426 5.773 C-56.033 -18.097 -24.978 -20.927 0 0 Z " fill="#C84229" transform="translate(255.625,83.75)" />
  <path d="M0 0 C29.148 19.156 49.051 45.17 56.359 79.652 C60.962 104.36 57.178 131.023 43.156 152.062 C28.087 172.902 4.783 187.228 -20.641 191.652 C-24.97 192.127 -29.29 192.449 -33.641 192.652 C-33.423 192.21 -33.423 192.21 -32.32 189.969 C-14.495 153.185 -11.55 112.23 -21.641 72.652 C-21.882 71.665 -22.124 70.678 -22.373 69.661 C-26.845 51.916 -34.223 35.325 -41.557 18.617 C-41.949 17.724 -42.341 16.831 -42.745 15.911 C-43.489 14.221 -44.236 12.532 -44.987 10.845 C-45.322 10.088 -45.657 9.33 -46.002 8.549 C-46.148 8.22 -46.148 8.22 -46.891 6.553 C-47.658 4.607 -48.179 2.69 -48.641 0.652 C-47.991 0.735 -47.991 0.735 -44.703 1.152 C-33.036 2.26 -22.54 2.738 -11.473 -1.57 C-7.076 -2.777 -4.017 -2.05 0 0 Z " fill="#C74229" transform="translate(855.640625,232.34765625)" />
  <path d="M0 0 C6.152 1.158 12.192 1.115 18.438 1.062 C19.455 1.058 20.473 1.053 21.521 1.049 C24.014 1.037 26.507 1.021 29 1 C26.663 8.531 23.657 15.718 20.56 22.957 C15.628 34.506 10.888 46.053 7 58 C6.649 58.986 6.299 59.972 5.938 60.988 C3.377 68.539 1.843 76.248 0.312 84.062 C0.205 84.607 0.205 84.607 -0.338 87.361 C-6.609 120.574 -3.749 156.898 11.68 187.262 C13 190 13 190 13 192 C-11.16 191.197 -33.84 180.882 -51 164 C-51.773 163.239 -52.547 162.479 -53.344 161.695 C-71.655 142.569 -75.665 118.84 -75.312 93.273 C-74.349 62.287 -58.649 34.397 -36.617 13.289 C-32.375 9.352 -27.884 6.091 -23 3 C-22.616 2.707 -22.616 2.707 -20.672 1.223 C-13.078 -4.473 -8.746 -2.977 0 0 Z " fill="#C74229" transform="translate(185,233)" />
  <path d="M0 0 C8.585 2.576 13.056 12.502 17.375 19.812 C24.929 32.578 24.929 32.578 31.75 37.125 C37.195 37.488 42.175 36.946 47.562 36.125 C56.952 34.767 66.283 34.952 75.75 35.125 C76.509 37.852 76.931 39.576 76.035 42.301 C73.169 47.31 69.983 51.19 65.797 55.156 C63.161 57.691 60.792 60.403 58.426 63.188 C57.315 64.471 56.166 65.723 54.98 66.938 C54.43 67.515 53.88 68.093 53.312 68.688 C53.066 68.936 53.066 68.936 51.816 70.191 C50.123 73.262 50.433 75.673 50.75 79.125 C51.631 81.675 52.542 83.956 53.688 86.375 C53.993 87.052 54.299 87.729 54.614 88.426 C56.405 92.359 58.294 96.239 60.219 100.109 C60.424 100.527 60.424 100.527 61.461 102.64 C62.261 104.26 63.074 105.873 63.904 107.478 C66.464 112.657 67.177 116.348 66.75 122.125 C61.673 122.331 57.74 121.764 52.938 120.125 C52.304 119.911 51.67 119.697 51.017 119.476 C46.47 117.883 42.136 115.957 37.778 113.908 C22.957 106.968 22.957 106.968 16.75 109.125 C13.841 111.032 11.886 113.403 9.75 116.125 C8.313 117.897 6.876 119.667 5.438 121.438 C4.681 122.373 3.924 123.309 3.145 124.273 C-2.384 130.858 -8.185 137.738 -16.25 141.125 C-18.562 141.188 -18.562 141.188 -20.25 140.125 C-22.953 135.359 -22.436 130.452 -22.305 125.152 C-22.279 123.182 -22.255 121.211 -22.23 119.24 C-22.181 116.144 -22.125 113.047 -22.058 109.951 C-21.998 106.956 -21.962 103.961 -21.93 100.965 C-21.903 100.039 -21.876 99.113 -21.848 98.158 C-21.798 91.775 -21.798 91.775 -23.965 88.658 C-26.31 87.085 -28.539 85.866 -31.137 84.758 C-32.076 84.347 -33.015 83.935 -33.982 83.512 C-34.958 83.095 -35.933 82.679 -36.938 82.25 C-56.901 73.715 -56.901 73.715 -60.25 66.125 C-54.445 60.362 -48.633 58.052 -40.938 55.5 C-36.705 54.051 -32.475 52.595 -28.25 51.125 C-27.299 50.799 -26.349 50.473 -25.37 50.138 C-20.422 48.328 -16.875 46.97 -14.25 42.125 C-13.527 39.059 -13.527 39.059 -13.188 35.562 C-13.041 34.254 -12.894 32.946 -12.742 31.598 C-12.666 30.886 -12.589 30.175 -12.511 29.442 C-12.024 25.117 -11.424 20.809 -10.812 16.5 C-10.702 15.647 -10.592 14.794 -10.478 13.916 C-9.831 9.368 -9.149 5.844 -6.25 2.125 C-3.25 0.125 -3.25 0.125 0 0 Z " fill="#F7C25D" transform="translate(659.25,131.875)" />
  <path d="M0 0 C2.38 1.606 4.69 3.227 6.93 5.023 C9 6 9 6 11.539 5.395 C14.093 3.947 15.596 2.527 17.5 0.312 C19.289 -1.574 19.289 -1.574 21 -3 C23.875 -3 23.875 -3 26 -2 C27.54 -0.46 27.318 0.985 27.438 3.125 C27.414 7.977 25.792 10.26 22.508 13.688 C21 15 21 15 19 16 C19.289 16.681 19.577 17.361 19.875 18.062 C21.126 21.329 22.074 24.628 23 28 C27.302 26.42 30.281 24.91 33.625 21.75 C36.642 18.985 36.642 18.985 39.938 19.125 C40.618 19.414 41.299 19.702 42 20 C43.652 25.781 43.652 25.781 42.012 28.848 C38.438 33.23 34.078 36.518 29 39 C28.34 39 27.68 39 27 39 C27.161 39.566 27.322 40.132 27.487 40.715 C30.018 51.994 29.281 67.684 23.98 77.98 C22.544 80.245 20.894 82.106 19 84 C15.464 83.464 15.464 83.464 14 82 C14.09 80.544 14.246 79.092 14.43 77.645 C15.057 71.976 15.148 66.386 15.125 60.688 C15.129 59.725 15.133 58.763 15.137 57.771 C15.135 56.84 15.134 55.909 15.133 54.949 C15.132 54.533 15.132 54.533 15.129 52.428 C14.993 49.872 14.56 47.496 14 45 C13.963 46.088 13.925 47.176 13.887 48.297 C13.216 64.437 10.644 78.789 -0.742 91.02 C-8.348 97.691 -17.124 99.656 -27.004 99.395 C-35.959 98.789 -42.361 94.083 -48.25 87.625 C-49.519 86.099 -50.777 84.563 -52 83 C-52.304 83.102 -52.304 83.102 -53.844 83.617 C-54.555 83.744 -55.267 83.87 -56 84 C-62.975 78.769 -65.386 70.4 -66.688 62.078 C-68.601 43.233 -66.003 24.182 -54 9 C-40.476 -4.759 -17.416 -9.867 0 0 Z " fill="#254E2B" transform="translate(644,355)" />
  <path d="M0 0 C0.929 0.009 1.858 0.018 2.816 0.027 C14.877 0.332 22.965 4.058 31.688 12.438 C44.027 25.571 47.499 42.551 46.973 60.09 C46.519 68.75 45.138 79.025 38.688 85.438 C36 85.938 36 85.938 33.688 85.438 C33.028 85.438 32.368 85.438 31.688 85.438 C30.391 87.23 30.391 87.23 28.938 89.625 C24.417 96.575 18.717 101.196 10.688 103.438 C-0.078 104.773 -8.365 102.522 -17.062 96.188 C-26.697 88.184 -31.428 77.691 -33.312 65.438 C-33.532 61.578 -33.504 57.739 -33.438 53.875 C-33.428 52.866 -33.419 51.858 -33.41 50.818 C-33.387 48.358 -33.354 45.898 -33.312 43.438 C-36.204 55.468 -36.169 68.303 -34.688 80.562 C-34.564 81.841 -34.44 83.12 -34.312 84.438 C-34.642 84.767 -34.642 84.767 -36.312 86.438 C-38.688 86.438 -38.688 86.438 -41.312 85.438 C-47.806 78.18 -48.589 68.563 -48.088 59.232 C-47.944 57.139 -47.775 55.048 -47.58 52.959 C-47.439 49.841 -47.417 47.432 -48.312 44.438 C-50.68 42.276 -52.939 40.987 -55.835 39.626 C-59.592 37.824 -61.14 35.985 -63.312 32.438 C-63.75 28.688 -63.75 28.688 -63.312 25.438 C-62.652 24.777 -61.993 24.118 -61.312 23.438 C-57.137 23.716 -54.884 25.278 -51.75 27.938 C-48.951 30.305 -46.968 31.841 -43.312 32.438 C-43.189 31.695 -43.065 30.952 -42.938 30.188 C-42.312 27.438 -42.312 27.438 -41.188 25.375 C-40.312 23.438 -40.312 23.438 -40.375 21.5 C-41.729 18.52 -43.983 16.712 -46.312 14.438 C-48.658 11.388 -49.34 10.128 -49.188 6.25 C-48.312 3.438 -48.312 3.438 -45.312 1.438 C-40.88 1.789 -38.973 4.694 -36.191 7.844 C-33.812 9.862 -32.433 10.344 -29.312 10.438 C-26.699 9.109 -26.699 9.109 -24 7.188 C-16.145 1.637 -9.558 -0.111 0 0 Z " fill="#254E2B" transform="translate(392.3125,350.5625)" />
  <path d="M0 0 C2.125 0 2.125 0 5 1 C6.316 2.566 6.316 2.566 7.688 4.562 C15.57 15.745 28.676 22.597 42 25 C44.799 25.275 47.564 25.335 50.375 25.312 C50.747 25.31 50.747 25.31 52.629 25.295 C63.828 25.049 73.932 21.331 81.852 13.164 C84.316 10.512 86.677 7.777 89 5 C91.466 7.189 92.564 8.962 93.57 12.09 C93.699 12.482 93.699 12.482 94.348 14.467 C94.476 14.874 94.476 14.874 95.125 16.938 C95.389 17.749 95.654 18.56 95.926 19.396 C97.905 25.52 99.125 30.487 99 37 C98.374 37.19 97.747 37.38 97.102 37.576 C63.098 47.97 30.382 60.753 3 84 C-0.71 81.586 -4.241 79.062 -7.741 76.347 C-29.54 59.652 -55.355 49.092 -81.33 40.853 C-85.233 39.607 -89.117 38.307 -93 37 C-93.956 33.307 -93.992 30.946 -92.855 27.312 C-92.591 26.449 -92.326 25.585 -92.053 24.695 C-91.91 24.251 -91.91 24.251 -91.188 22 C-91.051 21.555 -91.051 21.555 -90.357 19.305 C-89.059 15.133 -87.718 11.022 -86 7 C-82.607 8.131 -82.065 8.943 -79.938 11.688 C-72.842 20.006 -63.159 24.375 -52.375 25.316 C-35.939 26.034 -21.819 21.768 -9.188 11.062 C-5.513 7.681 -2.705 4.189 0 0 Z " fill="#F6D6B9" transform="translate(507,649)" />
  <path d="M0 0 C8.996 5.232 13.371 12.752 16.68 22.473 C19.664 34.017 18.095 46.372 12.555 56.898 C6.068 67.518 -3.091 74.41 -14.949 78.438 C-21.197 79.71 -31.328 80.989 -37.133 78.086 C-37.401 72.44 -36.452 67.863 -34.883 62.461 C-30.402 46.131 -27.768 29.828 -26.171 12.971 C-26.063 11.873 -25.955 10.775 -25.844 9.645 C-25.754 8.668 -25.664 7.691 -25.572 6.685 C-25.132 4.082 -24.543 2.309 -23.133 0.086 C-16.425 -3.564 -6.884 -3.113 0 0 Z " fill="#F6D6B9" transform="translate(770.1328125,370.9140625)" />
  <path d="M0 0 C2.246 1.448 3.729 2.766 4.93 5.168 C5.258 8.147 5.543 11.12 5.805 14.105 C7.57 32.673 10.144 51.845 16.074 69.594 C17.061 72.564 17.078 75.059 16.93 78.168 C8.009 82.025 -0.988 80.514 -9.926 77.492 C-22.07 72.378 -30.097 63.173 -35.07 51.168 C-38.868 40.678 -38.32 28.128 -34.336 17.789 C-30.549 9.945 -24.498 2.895 -16.191 -0.324 C-11.015 -1.564 -5.008 -2.013 0 0 Z " fill="#F6D6BA" transform="translate(269.0703125,369.83203125)" />
  <path d="M0 0 C2.38 1.606 4.69 3.227 6.93 5.023 C9 6 9 6 11.539 5.395 C14.093 3.947 15.596 2.527 17.5 0.312 C19.289 -1.574 19.289 -1.574 21 -3 C23.875 -3 23.875 -3 26 -2 C27.54 -0.46 27.318 0.985 27.438 3.125 C27.414 7.977 25.792 10.26 22.508 13.688 C21 15 21 15 19 16 C19.289 16.681 19.577 17.361 19.875 18.062 C21.126 21.329 22.074 24.628 23 28 C27.302 26.42 30.281 24.91 33.625 21.75 C36.642 18.985 36.642 18.985 39.938 19.125 C40.618 19.414 41.299 19.702 42 20 C43.652 25.781 43.652 25.781 42.012 28.848 C38.438 33.23 34.078 36.518 29 39 C28.34 39 27.68 39 27 39 C27.161 39.566 27.322 40.132 27.487 40.715 C30.018 51.994 29.281 67.684 23.98 77.98 C22.544 80.245 20.894 82.106 19 84 C15.464 83.464 15.464 83.464 14 82 C14.085 80.531 14.237 79.066 14.418 77.605 C16.515 58.534 15.812 39.58 5 23 C-1.306 15.641 -8.975 12.116 -18.5 11.062 C-28.105 10.616 -35.711 13.742 -43 20 C-52.312 30.244 -54.205 44.771 -54.25 58.062 C-54.255 59.091 -54.259 60.119 -54.264 61.178 C-54.216 67.878 -53.635 73.624 -51.461 79.988 C-51.385 80.32 -51.385 80.32 -51 82 C-53 84 -53 84 -55.312 84.062 C-59.321 82.478 -61.113 79.715 -63 76 C-69.255 58.139 -69.001 37.281 -61 20 C-55.383 9.081 -47.239 1.268 -35.672 -3.152 C-24.318 -5.773 -10.33 -5.853 0 0 Z " fill="#2D170B" transform="translate(644,355)" />
  <path d="M0 0 C0.929 0.009 1.858 0.018 2.816 0.027 C14.877 0.332 22.965 4.058 31.688 12.438 C44.027 25.571 47.499 42.551 46.973 60.09 C46.517 68.78 45.122 78.984 38.688 85.438 C36 86.125 36 86.125 33.688 85.438 C31.688 82.438 31.688 82.438 32.148 80.047 C32.45 79.103 32.752 78.16 33.062 77.188 C37.402 61.109 34.399 44.192 26.227 29.879 C21.828 22.929 16.296 17.842 8.145 15.801 C-0.147 14.575 -8.442 15.268 -15.617 19.938 C-16.975 20.972 -18.313 22.035 -19.621 23.133 C-21.312 24.438 -21.312 24.438 -24.312 25.438 C-25.037 27.08 -25.69 28.754 -26.312 30.438 C-28.156 33.708 -30.028 36.955 -31.938 40.188 C-37.094 52.375 -36.251 67.625 -34.688 80.562 C-34.564 81.841 -34.44 83.12 -34.312 84.438 C-34.642 84.767 -34.642 84.767 -36.312 86.438 C-38.688 86.438 -38.688 86.438 -41.312 85.438 C-47.806 78.18 -48.589 68.563 -48.088 59.232 C-47.944 57.139 -47.775 55.048 -47.58 52.959 C-47.439 49.841 -47.417 47.432 -48.312 44.438 C-50.68 42.276 -52.939 40.987 -55.835 39.626 C-59.592 37.824 -61.14 35.985 -63.312 32.438 C-63.75 28.688 -63.75 28.688 -63.312 25.438 C-62.652 24.777 -61.993 24.118 -61.312 23.438 C-57.137 23.716 -54.884 25.278 -51.75 27.938 C-48.951 30.305 -46.968 31.841 -43.312 32.438 C-43.189 31.695 -43.065 30.952 -42.938 30.188 C-42.312 27.438 -42.312 27.438 -41.188 25.375 C-40.312 23.438 -40.312 23.438 -40.375 21.5 C-41.729 18.52 -43.983 16.712 -46.312 14.438 C-48.658 11.388 -49.34 10.128 -49.188 6.25 C-48.312 3.438 -48.312 3.438 -45.312 1.438 C-40.88 1.789 -38.973 4.694 -36.191 7.844 C-33.812 9.862 -32.433 10.344 -29.312 10.438 C-26.699 9.109 -26.699 9.109 -24 7.188 C-16.145 1.637 -9.558 -0.111 0 0 Z " fill="#2D170B" transform="translate(392.3125,350.5625)" />
  <path d="M0 0 C6.49 3.923 11.611 8.877 14.074 16.254 C13.787 17.929 13.458 19.598 13.074 21.254 C12.342 21.349 11.61 21.444 10.856 21.542 C-4.286 23.525 -19.314 25.68 -34.296 28.678 C-41.918 30.136 -49.172 30.511 -56.926 30.254 C-52.694 17.358 -45.323 7.222 -33.383 0.41 C-23.407 -4.284 -10.084 -4.914 0 0 Z " fill="#9865AB" transform="translate(573.92578125,601.74609375)" />
  <path d="M0 0 C8.481 7.079 14.225 15.382 18.812 25.375 C18.812 26.035 18.812 26.695 18.812 27.375 C10.604 27.591 2.831 27.031 -5.27 25.73 C-6.368 25.56 -7.466 25.39 -8.598 25.214 C-10.899 24.854 -13.199 24.49 -15.498 24.122 C-19.006 23.561 -22.517 23.021 -26.029 22.482 C-28.276 22.129 -30.523 21.774 -32.77 21.418 C-33.811 21.258 -34.853 21.099 -35.926 20.935 C-41.453 20.034 -46.157 18.852 -51.188 16.375 C-51.561 11.251 -50.01 9.179 -46.898 5.301 C-35.341 -7.708 -14.464 -10.131 0 0 Z " fill="#9865AB" transform="translate(483.1875,604.625)" />
  <path d="M0 0 C-0.209 8.932 -2.569 15.937 -8.375 22.812 C-9.241 23.534 -10.107 24.256 -11 25 C-11.49 25.429 -11.98 25.859 -12.484 26.301 C-20.823 33.031 -31.643 34.069 -42 33 C-53.805 30.697 -62.95 25.482 -70.137 15.797 C-71 14 -71 14 -70 11 C-69.015 10.875 -68.031 10.749 -67.016 10.62 C-45.468 7.864 -21.322 0 0 0 Z " fill="#9764A9" transform="translate(591,631)" />
  <path d="M0 0 C9.729 0.985 19.227 2.577 28.812 4.5 C37.478 6.235 46.05 7.659 54.863 8.367 C59.76 8.774 64.255 9.704 69 11 C67.067 17.873 61.768 23.236 55.75 26.812 C43.834 32.781 31.629 33.602 18.832 30.047 C11.698 27.41 5.638 23.104 2.102 16.262 C-0.261 10.853 -0.323 5.831 0 0 Z " fill="#9865AB" transform="translate(429,632)" />
  <path d="M0 0 C3.507 0.437 5.447 1.789 8.352 3.777 C15.263 8.464 20.467 8.918 28.727 8.34 C34.065 7.198 37.837 4.606 42.125 1.355 C44.422 -0.101 46.091 -0.187 48.727 0.34 C50.727 2.34 50.727 2.34 51.164 5.152 C50.56 9.553 49.222 10.613 45.727 13.34 C34.799 19.517 23.707 21.246 11.34 18.621 C5.83 16.715 -1.537 13.812 -4.273 8.34 C-4.461 5.34 -4.461 5.34 -4.273 2.34 C-2.273 0.34 -2.273 0.34 0 0 Z " fill="#2C170C" transform="translate(485.2734375,476.66015625)" />
  <path d="M0 0 C2.896 2.206 3.829 2.999 4.438 6.562 C4 9 4 9 2.938 10.875 C-0.298 12.753 -2.455 11.93 -6 11 C-8.109 9.831 -10.095 8.541 -12.105 7.211 C-17.703 3.633 -23.546 3.501 -30 4 C-30.33 4.165 -30.33 4.165 -32 5 C-33.875 5.203 -33.875 5.203 -36 5.25 C-36.351 5.263 -36.351 5.263 -38.125 5.328 C-38.744 5.22 -39.362 5.112 -40 5 C-42 2 -42 2 -41.812 -0.5 C-40.898 -3.315 -40.415 -4.31 -38 -6 C-25.17 -10.876 -11.361 -6.881 0 0 Z " fill="#2D180C" transform="translate(645,310)" />
  <path d="M0 0 C1.784 1.258 3.233 2.511 4.656 4.168 C5.09 7.057 5.082 8.519 3.469 10.98 C0.991 12.604 -0.43 12.594 -3.344 12.168 C-3.96 11.674 -4.576 11.181 -5.211 10.672 C-8.957 8.03 -12.941 8.579 -17.344 9.168 C-21.967 10.632 -25.992 12.938 -30.094 15.48 C-33.344 17.168 -33.344 17.168 -36.156 17.043 C-38.344 16.168 -38.344 16.168 -40.344 14.168 C-40.594 10.918 -40.594 10.918 -39.344 7.168 C-29.208 -1.746 -12.276 -6.788 0 0 Z " fill="#2D180D" transform="translate(407.34375,304.83203125)" />
  <path d="M0 0 C4.402 3.107 4.402 3.107 5.188 6.25 C5.66 11.131 5.71 13.277 3.375 17.625 C1.1 20.355 -0.503 22.036 -4.082 22.621 C-8.57 22.738 -11.801 22.816 -15.375 19.875 C-18.959 16.015 -19.155 13.679 -19.098 8.574 C-18.659 4.999 -17.154 2.917 -14.812 0.25 C-10.323 -3.156 -4.775 -2.527 0 0 Z " fill="#F6F4EE" transform="translate(618.8125,377.75)" />
  <path d="M0 0 C3.752 2.015 5.636 3.455 8 7 C8.666 11.075 8.945 15.244 6.949 18.953 C4.662 21.733 2.686 23.729 -0.918 24.309 C-5.361 24.561 -8.372 24.281 -12 21.562 C-15.215 18.407 -16.054 15.558 -16.203 11.109 C-15.79 6.819 -13.672 4.711 -10.812 1.688 C-7.174 -0.496 -4.091 -0.809 0 0 Z " fill="#F7F4EE" transform="translate(409,376)" />
  <path d="M0 0 C0.83 2.872 1.091 5.326 0.992 8.309 C0.637 23.571 1.267 38.393 12.109 50.32 C20.992 58.621 28.801 61.235 40.781 61.168 C44.536 60.972 47.493 60.305 51 59 C51 59.66 51 60.32 51 61 C46.372 62.736 41.909 63.624 37 64 C36.225 64.066 35.451 64.131 34.652 64.199 C22.674 64.75 13.386 59.161 4.605 51.523 C2.501 49.527 0.769 47.294 -1 45 C-1.66 44.67 -2.32 44.34 -3 44 C-2.835 43.835 -2.835 43.835 -2 43 C-2.144 41.742 -2.289 40.484 -2.438 39.188 C-3.733 27.357 -5.472 10.943 0 0 Z M-7 45 C-5.68 45.33 -4.36 45.66 -3 46 C-3.99 46.33 -4.98 46.66 -6 47 C-6.33 46.34 -6.66 45.68 -7 45 Z " fill="#F4F1EA" transform="translate(359,392)" />
  <path d="M0 0 C2.819 4.229 3.126 7.949 3.133 12.949 C3.133 13.415 3.133 13.415 3.137 15.771 C3.133 16.734 3.129 17.696 3.125 18.688 C3.127 19.159 3.127 19.159 3.137 21.545 C3.128 27.754 2.738 33.836 2 40 C3.65 40.33 5.3 40.66 7 41 C7 41.66 7 42.32 7 43 C6.134 42.856 5.268 42.711 4.375 42.562 C1 43 1 43 -0.312 44.348 C-0.746 44.934 -1.179 45.521 -1.625 46.125 C-7.085 53.172 -16.147 56.379 -24.73 57.766 C-27.857 58.088 -30.86 58.137 -34 58 C-34 57.67 -34 57.34 -34 57 C-33.154 56.781 -32.309 56.562 -31.438 56.336 C-20.424 53.257 -13.897 49.389 -7.539 39.793 C-3.391 32.266 -1.071 23.711 -0.684 15.137 C-0.663 14.694 -0.663 14.694 -0.557 12.451 C-0.517 11.539 -0.478 10.627 -0.438 9.688 C-0.416 9.222 -0.416 9.222 -0.307 6.865 C-0.201 4.577 -0.099 2.289 0 0 Z " fill="#F4F1EA" transform="translate(657,397)" />
</svg>