<svg xmlns="http://www.w3.org/2000/svg" viewBox="0 0 1024 1024" preserveAspectRatio="xMidYMid meet" id="mermaid-svg">
  <path d="M0 0 C3.443 1.845 5.221 2.591 9.226 2.591 C11.785 1.404 14.243 0.169 16.726 -1.159 C50.307 -18.358 91.195 -14.676 126.226 -3.409 C147.05 3.412 166.856 13.197 184.464 26.285 C186.129 27.52 187.815 28.718 189.507 29.916 C206.761 42.467 222.734 59.23 234.908 76.702 C236.158 78.495 237.442 80.258 238.734 82.021 C261.048 113.193 272.376 149.891 280.351 186.904 C285.705 211.636 296.394 227.404 316.283 242.735 C329.181 252.699 337.895 265.157 343.226 280.591 C343.408 281.108 343.408 281.108 344.327 283.72 C347.628 297.944 346.169 313.353 340.226 326.591 C339.76 327.651 339.295 328.711 338.816 329.802 C337.982 331.653 337.128 333.495 336.241 335.322 C333.543 341.352 333.631 347.133 335.163 353.466 C339.425 363.508 349.902 371.171 357.773 378.392 C366.085 386.039 372.741 393.126 377.226 403.591 C377.548 404.316 377.87 405.04 378.202 405.787 C382.259 416.667 382.043 432.021 377.226 442.591 C376.897 443.331 376.568 444.071 376.23 444.833 C371.67 453.953 364 460.985 356.757 467.998 C354.751 470.086 354.267 471.344 353.788 474.216 C354.43 479.167 357.107 481.81 360.226 485.591 C373.123 501.565 376.627 515.419 375.226 535.591 C373.125 547.367 364.381 558.252 355.012 565.382 C350.289 568.579 345.163 571.185 340.094 573.787 C339.252 574.224 338.41 574.661 337.542 575.111 C336.784 575.493 336.025 575.876 335.244 576.27 C332.889 577.812 331.642 579.159 330.226 581.591 C329.933 583.799 329.933 583.799 330.038 586.189 C330.064 587.068 330.09 587.947 330.116 588.852 C330.152 589.777 330.188 590.701 330.226 591.654 C330.463 604.928 328.722 613.724 319.409 623.498 C314.582 628.1 309.555 630.589 303.226 632.591 C302.619 632.786 302.012 632.981 301.386 633.181 C298.219 633.782 295.134 633.763 291.913 633.779 C290.638 633.793 289.364 633.807 288.05 633.822 C284.06 633.581 281 632.827 277.226 631.591 C277.04 632.251 276.855 632.911 276.663 633.591 C271.674 644.005 261.602 651.226 251.226 655.591 C249.606 656.087 247.981 656.568 246.351 657.029 C241.858 658.424 240.674 660.563 238.226 664.591 C229.968 672.468 221.437 674.006 210.414 673.956 C205.136 673.811 200.977 673.017 196.226 670.591 C195.999 671.334 195.772 672.076 195.538 672.841 C193.406 677.31 189.694 679.684 185.226 681.591 C178.336 682.599 172.946 681.477 167.226 677.591 C161.417 672.666 157.389 666.735 153.351 660.341 C152.771 659.444 152.191 658.547 151.593 657.623 C147.375 651.04 147.375 651.04 146.226 647.591 C145.566 647.591 144.906 647.591 144.226 647.591 C144.535 648.396 144.845 649.2 145.163 650.029 C151.453 671.118 148.336 699.606 143.226 720.591 C142.931 721.803 142.636 723.015 142.332 724.263 C140.082 733.405 137.673 742.501 135.226 751.591 C134.459 754.452 133.694 757.312 132.933 760.174 C132.521 761.717 132.106 763.258 131.685 764.797 C129.905 771.423 129.093 777.674 129.163 784.529 C129.168 785.101 129.168 785.101 129.191 787.994 C129.196 788.422 129.196 788.422 129.226 790.591 C129.711 789.564 130.195 788.537 130.695 787.478 C134.821 778.884 139.169 771.016 145.226 763.591 C145.936 762.717 146.646 761.843 147.378 760.943 C162.443 743.31 184.673 735.502 207.271 733.294 C211.482 732.983 215.694 732.714 219.909 732.468 C226.189 732.037 231.905 731.083 237.936 729.259 C240.922 728.388 243.149 728.019 246.226 728.591 C249.139 730.447 251.655 732.449 253.226 735.591 C255.714 761.528 246.718 792.754 230.309 812.893 C225.427 818.681 220.366 824.125 214.226 828.591 C214.904 829.004 215.582 829.416 216.281 829.841 C222.988 834.003 229.243 838.439 235.226 843.591 C235.914 844.183 236.603 844.775 237.312 845.384 C253.626 860.506 262.83 885.633 263.736 907.583 C263.753 908.328 263.77 909.074 263.788 909.841 C263.815 910.545 263.842 911.248 263.87 911.972 C263.841 915.833 263.308 917.488 260.886 920.544 C257.297 923.306 255.704 923.169 251.226 922.591 C249.766 922.081 248.306 921.571 246.847 921.06 C236.751 918.256 225.85 919.436 215.477 919.653 C191.484 920.111 168.674 916.02 150.576 898.899 C149.112 897.477 147.665 896.039 146.226 894.591 C145.397 893.762 144.568 892.934 143.714 892.08 C136.38 884.347 130.893 875.939 128.226 865.591 C127.699 865.838 127.171 866.084 126.628 866.338 C104.826 876.476 82.46 884.498 58.109 884.865 C57.343 884.877 56.577 884.89 55.788 884.903 C10.102 885.509 -30.403 872.736 -63.774 840.591 C-64.302 840.089 -64.83 839.587 -65.374 839.069 C-74.007 830.826 -81.752 822.245 -88.774 812.591 C-89.234 811.96 -89.694 811.328 -90.168 810.677 C-121.13 767.756 -141.667 709.118 -133.837 655.779 C-133.361 653.114 -132.98 651.004 -131.774 648.591 C-132.434 648.591 -133.094 648.591 -133.774 648.591 C-133.884 648.917 -133.884 648.917 -134.442 650.564 C-136.248 654.669 -138.636 658.282 -141.087 662.029 C-141.56 662.767 -142.034 663.505 -142.522 664.265 C-147.454 671.854 -152.003 678.306 -160.774 681.591 C-166.204 682.633 -170.43 682.161 -175.212 679.341 C-177.919 677.405 -180.184 675.574 -181.774 672.591 C-181.774 671.601 -181.774 670.611 -181.774 669.591 C-182.383 669.88 -182.991 670.169 -183.618 670.466 C-193.609 674.698 -204.463 675.362 -214.837 671.966 C-219.497 669.976 -223.494 667.5 -226.774 663.591 C-226.97 663.076 -226.97 663.076 -227.962 660.466 C-230.597 656.286 -233.907 656.058 -238.512 654.697 C-250.071 650.779 -257.727 642.17 -264.774 632.591 C-265.021 632.671 -265.021 632.671 -266.27 633.072 C-277.453 635.392 -289.172 634.156 -298.973 628.271 C-306.269 623.185 -313.186 616.08 -315.347 607.25 C-315.788 604.503 -315.825 602.025 -315.731 599.248 C-315.71 598.249 -315.689 597.25 -315.667 596.22 C-315.613 594.134 -315.548 592.048 -315.471 589.962 C-315.34 582.441 -315.34 582.441 -317.282 578.638 C-320.568 575.939 -324.018 574.176 -327.837 572.341 C-342.581 564.852 -354.169 554.585 -359.774 538.591 C-363.409 525.955 -361.902 510.109 -355.774 498.591 C-351.716 492.092 -346.809 486.345 -341.774 480.591 C-339.448 477.103 -339.356 475.694 -339.774 471.591 C-341.274 469.341 -341.274 469.341 -342.774 467.591 C-342.774 466.931 -342.774 466.271 -342.774 465.591 C-343.065 465.462 -343.065 465.462 -344.536 464.806 C-352.417 460.529 -357.58 452.237 -361.774 444.591 C-362.211 443.808 -362.648 443.024 -363.098 442.216 C-368.111 431.242 -367.771 415.573 -363.649 404.341 C-362.742 402.4 -361.786 400.48 -360.774 398.591 C-360.351 397.728 -359.929 396.864 -359.493 395.974 C-353.861 385.463 -344.427 377.995 -335.282 370.634 C-328.031 364.727 -321.914 358.502 -320.329 348.892 C-320.025 341.785 -322.047 336.062 -324.774 329.591 C-332.385 311.008 -334.396 293.77 -327.043 274.694 C-323.33 265.873 -318.19 258.632 -311.774 251.591 C-311.504 251.286 -311.504 251.286 -310.137 249.744 C-306.414 245.776 -302.192 242.533 -297.899 239.216 C-274.938 221.385 -268.49 200.127 -263.034 172.466 C-256.632 140.465 -244.067 108.114 -224.774 81.591 C-224.079 80.625 -223.385 79.658 -222.669 78.662 C-208.79 59.748 -192.83 42.377 -173.774 28.591 C-173.233 28.195 -172.693 27.799 -172.135 27.391 C-125.766 -6.413 -53.859 -29.168 0 0 Z " fill="#3B2518" transform="translate(507.774169921875,56.40869140625)" />
  <path d="M0 0 C1.855 2.782 3.355 5.619 4.866 8.596 C25.844 49.607 61.621 74.456 103.062 92 C122.932 100.42 140.329 109.986 156 125 C156.708 125.656 157.415 126.312 158.145 126.988 C171.123 139.371 180.827 156.724 181.349 174.833 C181.774 218.671 177.024 266.557 145.75 299.688 C129.145 315.514 107.739 325.436 86 332 C85.618 332.117 85.618 332.117 83.683 332.709 C70.034 336.809 56.105 339.099 42 341 C41.566 341.06 41.566 341.06 39.369 341.364 C13.286 344.807 -14.956 344.647 -41 341 C-41.942 340.871 -42.885 340.742 -43.855 340.609 C-78.777 335.679 -115.055 325.852 -142 302 C-142.839 301.261 -143.678 300.523 -144.543 299.762 C-166.595 279 -173.946 249.433 -177.188 220.375 C-177.273 219.611 -177.359 218.846 -177.447 218.059 C-178.767 205.941 -179.45 193.875 -179.562 181.688 C-179.577 180.953 -179.592 180.219 -179.607 179.462 C-179.972 157.884 -170.737 141.355 -156 126 C-139.515 109.76 -118.454 100.251 -97.562 91.062 C-53.485 71.612 -21.139 43.795 0 0 Z " fill="#BF8051" transform="translate(514,164)" />
  <path d="M0 0 C2.385 2.243 4.183 4.638 6.062 7.312 C12.341 15.446 20.51 19.004 30.496 20.332 C32.663 20.586 34.827 20.809 37 21 C37.147 21.629 37.294 22.258 37.445 22.906 C39.976 32.564 44.301 38.619 52.84 43.879 C55.63 45.327 57.858 45.866 61 46 C62.238 46.082 63.475 46.165 64.75 46.25 C69.757 46.211 74.305 44.616 79 43 C79.485 43.603 79.969 44.207 80.469 44.828 C85.838 51.229 91.388 56.247 100.094 57.238 C108.561 57.499 115.549 54.847 123 51 C123.846 51.619 124.691 52.237 125.562 52.875 C131.177 56.583 137.335 57.782 144 57 C152.282 55.243 160.152 51.059 165 44 C170.576 44.887 170.576 44.887 172.922 45.512 C181.642 47.561 189.345 45.381 197 41 C203.064 36.003 206.666 28.637 208 21 C208.895 20.914 209.789 20.827 210.711 20.738 C225.016 19.076 233.223 14.37 242.227 3.25 C242.812 2.508 243.397 1.765 244 1 C254.545 39.495 248.897 75.859 237.812 113.75 C226.09 153.828 226.09 153.828 234 170 C236.649 174.319 239.537 178.444 244 181 C246.543 181.094 246.543 181.094 249 180 C250.382 177.789 251.341 175.885 252.312 173.5 C252.914 172.13 253.515 170.76 254.117 169.391 C254.425 168.672 254.733 167.953 255.05 167.213 C264.305 145.659 275.646 127.964 297.758 117.723 C315.519 111.018 336.304 111.185 355 110 C352.504 133.521 348.487 154.974 332 173 C331.437 173.643 330.873 174.286 330.293 174.949 C320.147 185.903 307.004 188.572 293 192 C292.375 194.875 292.375 194.875 292 198 C294.385 200.385 295.608 200.511 298.875 201.148 C299.861 201.35 300.847 201.551 301.863 201.758 C303.923 202.163 305.983 202.567 308.043 202.969 C324.967 206.428 339.689 214.681 350.051 228.793 C358.759 241.995 362.625 256.519 365 272 C364.223 271.834 363.447 271.668 362.646 271.497 C357.95 270.857 353.391 270.955 348.66 271.043 C346.606 271.065 344.552 271.087 342.498 271.107 C339.293 271.144 336.088 271.187 332.883 271.247 C320.264 271.471 308.961 271.354 297 267 C296.253 266.733 295.506 266.466 294.737 266.192 C285.129 262.401 278.087 256.246 271 249 C270.334 248.366 269.667 247.732 268.98 247.078 C261.19 239.129 256.402 227.296 253.082 216.82 C252 215 252 215 249.879 213.492 C245.539 212.75 242.738 214.854 239.125 217 C237.594 217.856 236.06 218.706 234.523 219.551 C233.759 219.972 232.994 220.393 232.206 220.827 C223.406 225.507 213.906 228.46 204.375 231.25 C203.958 231.373 203.958 231.373 201.847 231.997 C189.44 235.487 177.193 236.382 164.375 236.312 C163.625 236.31 162.875 236.307 162.103 236.304 C129.601 236.121 98.347 227.048 73 206 C72.461 205.565 71.922 205.13 71.367 204.682 C31.473 172.458 9.319 127.171 -2 78 C-2.196 77.15 -2.393 76.299 -2.595 75.423 C-7.98 50.963 -6.32 24.126 0 0 Z " fill="#468F73" transform="translate(392,691)" />
  <path d="M0 0 C37.734 6.047 75.442 5.761 113.096 -0.947 C128.106 -3.584 137.911 0.113 150.688 8.125 C149.688 11.125 149.688 11.125 146.875 13.25 C141.618 17.42 139.825 23.725 138.688 30.125 C138.009 30.139 137.331 30.153 136.633 30.168 C128.611 30.579 121.741 32.294 115.766 37.941 C113.758 40.231 112.051 42.399 110.688 45.125 C108.405 45.447 106.11 45.681 103.812 45.875 C93.605 46.978 86.336 51.457 78.688 58.125 C78.028 58.125 77.368 58.125 76.688 58.125 C76.396 57.461 76.105 56.797 75.805 56.113 C72.334 48.636 69.299 44.364 61.438 41.25 C54.897 39.326 48.651 40.016 42.438 42.75 C36.207 46.224 32.514 51.687 29.688 58.125 C25.966 56.491 23.076 54.105 19.875 51.625 C13.668 47.022 8.538 46.048 0.902 45.832 C-2.312 45.125 -2.312 45.125 -4.746 42.199 C-6.312 39.125 -6.312 39.125 -6.312 37.125 C-6.972 37.125 -7.632 37.125 -8.312 37.125 C-8.312 36.465 -8.312 35.805 -8.312 35.125 C-9.972 34.442 -11.641 33.779 -13.312 33.125 C-13.746 32.95 -13.746 32.95 -15.938 32.062 C-20.676 30.746 -25.419 30.456 -30.312 30.125 C-30.361 29.835 -30.361 29.835 -30.609 28.367 C-32.31 19.484 -36.348 14.642 -43.312 9.125 C-29.062 -2.611 -17.728 -3.046 0 0 Z " fill="#BF8051" transform="translate(460.3125,517.875)" />
  <path d="M0 0 C10.889 5.609 21.347 15.597 25.375 27.438 C26.267 27.016 27.159 26.594 28.078 26.16 C29.249 25.612 30.419 25.064 31.625 24.5 C32.785 23.955 33.945 23.409 35.141 22.848 C43.271 19.303 53.181 19.039 61.742 21.344 C64.731 22.555 67.538 23.905 70.375 25.438 C71.236 25.884 72.097 26.33 72.984 26.789 C78.786 30.014 83.368 33.989 88.051 38.68 C90.754 40.724 92.067 40.824 95.375 40.438 C95.496 40.147 95.496 40.147 96.109 38.676 C101.072 29.899 114.078 23.969 123.289 20.773 C133.789 19.082 142.793 19.523 151.957 25.223 C154.375 26.438 154.375 26.438 156.449 26.449 C159.304 24.95 160.565 22.831 162.375 20.188 C168.723 11.012 176.151 1.588 187.375 -1.562 C194.445 -2.308 199.921 -1.485 206.375 1.438 C207.073 9.073 206.866 14.361 202.07 20.539 C194.937 28.527 187.272 31.422 176.75 32.188 C174.626 32.287 172.501 32.376 170.375 32.438 C169.44 35.208 168.509 37.971 167.699 40.781 C165.711 47.514 163.381 51.736 157.062 55.312 C148.838 57.822 144.306 56.343 136.891 52.434 C134.375 51.438 134.375 51.438 132.219 51.52 C129.707 52.77 128.993 54.258 127.625 56.688 C124.215 62.067 120.479 65.16 114.367 67.062 C109.096 68.055 104.989 66.858 100.375 64.438 C97.375 62.375 97.375 62.375 95.375 60.438 C95.375 59.778 95.375 59.117 95.375 58.438 C89.715 58.579 87.155 61.071 83.305 64.844 C79.667 67.848 75.318 67.849 70.746 67.773 C64.634 66.907 60.597 63.035 56.938 58.312 C55.242 55.938 54.309 54.24 53.375 51.438 C49.488 51.836 46.471 52.798 43 54.5 C37.842 56.859 33.801 57.609 28.238 55.707 C22.338 53.035 19.12 49.611 16.75 43.562 C15.474 39.894 14.39 36.186 13.375 32.438 C12.928 32.425 12.928 32.425 10.664 32.359 C-1.543 31.787 -10.076 29.421 -18.625 20.438 C-22.333 16.159 -23.487 12.333 -23.863 6.781 C-23.625 4.438 -23.625 4.438 -21.375 1.375 C-15.178 -2.991 -6.901 -2.843 0 0 Z " fill="#489275" transform="translate(422.625,669.5625)" />
  <path d="M0 0 C0.603 0.205 1.207 0.41 1.828 0.621 C2.228 0.756 2.228 0.756 4.25 1.438 C5.039 1.704 5.828 1.971 6.641 2.246 C8.748 2.92 10.848 3.492 13 4 C13.227 5.052 13.454 6.104 13.688 7.188 C14.821 11.177 16.792 13.339 20 16 C29.495 19.165 39.26 17.17 48 13 C50.369 12.067 52.744 11.151 55.125 10.25 C55.683 10.036 55.683 10.036 58.508 8.953 C58.919 8.796 58.919 8.796 61 8 C60.965 8.773 60.93 9.547 60.895 10.344 C60.685 18.401 61.006 24.236 66.188 30.75 C72.381 35.705 77.364 37.639 85.387 37.328 C90.945 36.63 95.313 33.983 100 31 C100.459 31.349 100.918 31.699 101.391 32.059 C102.004 32.514 102.618 32.969 103.25 33.438 C103.853 33.89 104.457 34.342 105.078 34.809 C110.351 38.077 117.028 37.544 123 37 C128.864 35.32 132.635 32.096 136 27 C139.001 20.695 139.317 14.886 139 8 C139.262 8.119 139.262 8.119 140.589 8.719 C142.974 9.795 145.362 10.866 147.75 11.938 C148.575 12.311 149.4 12.684 150.25 13.068 C150.65 13.247 150.65 13.247 152.672 14.152 C153.405 14.482 154.138 14.812 154.894 15.152 C159.262 16.911 163.166 17.189 167.875 17.25 C168.472 17.263 168.472 17.263 171.492 17.328 C176.541 16.856 179.79 15.243 183.312 11.625 C185 9 185 9 185.266 6.48 C186 4 186 4 188.434 2.637 C189.425 2.323 190.416 2.01 191.438 1.688 C191.932 1.524 191.932 1.524 194.434 0.699 C197 0 197 0 199 0 C199.858 4.502 200.712 9.004 201.563 13.507 C201.854 15.039 202.145 16.57 202.437 18.102 C202.856 20.303 203.272 22.505 203.688 24.707 C203.819 25.392 203.95 26.076 204.085 26.781 C204.609 29.575 205 32.149 205 35 C204.152 35.063 203.304 35.126 202.43 35.191 C187.156 36.786 174.896 43.455 165.055 55.352 C163.648 57.204 162.295 59.068 161 61 C160.487 60.783 159.974 60.567 159.445 60.344 C145.428 55.247 130.442 57.231 117 63 C112.09 65.631 107.625 68.513 103.512 72.277 C101 74 101 74 98.504 73.984 C95.517 72.81 93.44 71.258 90.938 69.25 C77.938 59.487 63.889 56.956 48 58 C46.237 58.566 44.485 59.165 42.75 59.812 C40.418 60.391 40.418 60.391 38 60 C34.628 57.061 31.877 53.844 29.02 50.418 C21.409 41.431 11.064 37.482 -0.262 35.926 C-1.523 35.751 -2.785 35.576 -4.085 35.396 C-5.047 35.265 -6.009 35.135 -7 35 C-6.167 30.497 -5.33 25.995 -4.491 21.493 C-4.207 19.961 -3.922 18.43 -3.639 16.898 C-3.231 14.696 -2.821 12.494 -2.41 10.293 C-2.284 9.608 -2.158 8.924 -2.028 8.219 C-1.499 5.394 -0.91 2.731 0 0 Z " fill="#C08151" transform="translate(415,620)" />
  <path d="M0 0 C3.051 -0.633 3.051 -0.633 7 0 C9.966 2.985 12.005 6.545 14.188 10.125 C15.224 11.749 16.26 13.374 17.299 14.996 C18.418 16.75 19.527 18.511 20.635 20.272 C24.376 26.196 28.259 32.028 32.142 37.861 C33.404 39.763 34.657 41.671 35.909 43.581 C46.239 59.247 58.672 72.853 72 86 C82.244 96.109 82.244 96.109 82.562 102.062 C81.923 106.539 80.984 108.623 78 112 C72.221 115.492 66.746 116.822 60 116 C53.704 114.276 49.263 111.622 44.531 107.203 C43 106 43 106 40.188 105.5 C38 106 38 106 36 108 C35.749 110.326 35.596 112.663 35.5 115 C35.222 121.778 35.222 121.778 33 124 C29.902 124.07 27.845 123.791 25.528 121.622 C22.084 117.51 19.212 113.308 16.5 108.688 C11.21 99.957 5.015 92.053 -1.344 84.085 C-4.56 80.035 -7.692 75.921 -10.816 71.801 C-12.167 70.068 -13.564 68.369 -15.027 66.73 C-20.675 60.295 -22.306 53.249 -24 45 C-24.155 44.271 -24.31 43.542 -24.469 42.791 C-24.932 40.593 -25.378 38.392 -25.812 36.188 C-25.949 35.5 -26.085 34.812 -26.226 34.103 C-27.121 29.242 -27.121 29.242 -26 27 C-25.01 27.062 -24.02 27.124 -23 27.188 C-17.123 27.164 -12.608 25.052 -7.75 21.875 C-1.72 15.571 -0.355 8.512 0 0 Z " fill="#C08051" transform="translate(656,601)" />
  <path d="M0 0 C2.007 0.287 4.009 0.619 6 1 C6.055 1.398 6.055 1.398 6.332 3.414 C7.644 12.181 9.097 18.019 16.18 23.68 C21.365 27.441 25.757 28.462 32 29 C30.321 45.648 28.774 60.274 16.532 72.381 C13.662 75.414 11.27 78.819 8.812 82.188 C5.605 86.541 2.367 90.806 -1.125 94.938 C-5.153 99.872 -8.242 105.294 -11.325 110.849 C-14.013 115.62 -16.906 120.297 -21 124 C-24.375 124.938 -24.375 124.938 -27 125 C-29.424 121.364 -29.354 119.203 -29.562 114.875 C-29.902 108.098 -29.902 108.098 -31 107 C-34.07 106.639 -35.56 106.712 -38.176 108.426 C-38.528 108.737 -38.528 108.737 -40.312 110.312 C-46.729 115.543 -52.216 117.588 -60.543 117.281 C-66.135 116.641 -69.772 115.124 -73.938 111.312 C-76.308 107.506 -77.655 104.461 -77 100 C-73.045 90.886 -64.349 83.802 -56.938 77.5 C-49.138 70.74 -42.99 62.822 -36.875 54.562 C-36.301 53.788 -35.727 53.014 -35.136 52.216 C-31.564 47.324 -28.254 42.315 -25.031 37.188 C-21.157 31.106 -17.131 25.123 -13.127 19.126 C-11.605 16.846 -10.086 14.563 -8.566 12.281 C-7.599 10.831 -6.632 9.38 -5.664 7.93 C-5.21 7.248 -4.756 6.565 -4.288 5.863 C-1.115 1.115 -1.115 1.115 0 0 Z " fill="#BF8051" transform="translate(367,600)" />
  <path d="M0 0 C4.063 1.911 7.223 4.094 10.324 7.336 C13.058 10.133 14.189 10.861 18.012 11.086 C18.115 10.323 18.218 9.56 18.324 8.773 C19.088 5.789 19.417 4.729 22.012 3.086 C25.512 2.648 25.512 2.648 29.012 3.086 C31.587 5.246 31.946 6.653 32.449 9.961 C31.694 15.356 29.149 18.222 24.887 21.461 C22.012 23.086 22.012 23.086 20.012 23.086 C20.09 23.495 20.09 23.495 20.488 25.562 C22.662 40.192 21.622 55.839 12.762 68.211 C8.067 73.585 1.699 78.725 -5.625 79.289 C-14.806 79.43 -21.454 78.295 -28.328 71.938 C-31.548 68.346 -33.806 64.368 -35.988 60.086 C-36.405 59.322 -36.821 58.557 -37.25 57.77 C-42.189 46.974 -41.765 31.518 -38.426 20.273 C-31.875 4.175 -17.397 -5.321 0 0 Z " fill="#251208" transform="translate(623.98828125,329.9140625)" />
  <path d="M0 0 C8.859 4.608 14.752 11.411 18.438 20.625 C22.457 33.383 21.548 49.038 15.934 61.141 C11.776 68.709 5.903 75.339 -2.547 78 C-9.772 79.395 -16.504 79.363 -22.996 75.703 C-32.896 68.805 -37.401 59.917 -40.16 48.289 C-41.655 39.464 -41.546 30.979 -38.812 22.438 C-39.658 22.272 -40.504 22.108 -41.375 21.938 C-46.153 19.853 -48.984 16.782 -51.812 12.438 C-52.5 9.188 -52.5 9.188 -51.812 6.438 C-50.188 4.062 -50.188 4.062 -47.812 2.438 C-44.606 1.979 -42.744 1.772 -40.062 3.688 C-38.745 5.532 -37.739 7.371 -36.812 9.438 C-32.759 8.918 -30.794 7.892 -27.875 5.062 C-19.834 -2.189 -10.377 -4.179 0 0 Z " fill="#251208" transform="translate(424.8125,330.5625)" />
  <path d="M0 0 C3.633 2.503 5.541 4.764 6.812 8.938 C7.426 13.94 7.683 18.902 7.812 23.938 C8.346 23.721 8.88 23.504 9.43 23.281 C16.175 20.76 22.877 19.347 29.75 22.125 C33.522 25.44 35.002 28.327 35.375 33.312 C35.222 37.903 33.635 40.351 30.449 43.566 C26.109 47.202 21.254 47.384 15.812 47.938 C16.313 52.275 19.072 54.717 21.812 57.938 C23.17 62.009 23.472 65.684 22.812 69.938 C20.895 73.513 18.721 75.635 14.812 76.938 C9.911 77.42 7.839 77.581 3.625 74.938 C0.736 72.214 -1.142 68.988 -3.012 65.512 C-3.4 64.992 -3.788 64.473 -4.188 63.938 C-5.178 63.938 -6.168 63.938 -7.188 63.938 C-7.724 64.989 -8.26 66.041 -8.812 67.125 C-11.326 71.458 -14.226 74.995 -19.176 76.57 C-22.537 77.165 -24.854 77.078 -28 75.75 C-30.816 73.417 -32.895 71.418 -33.621 67.746 C-33.632 60.839 -31.882 55.266 -29.188 48.938 C-30.178 48.855 -31.168 48.773 -32.188 48.688 C-38.114 47.81 -42.698 45.613 -46.688 41.125 C-48.518 37.235 -48.933 35.188 -48.188 30.938 C-45.671 26.928 -42.72 23.544 -38.188 21.938 C-35.563 21.798 -33.055 21.748 -30.438 21.812 C-29.74 21.822 -29.043 21.831 -28.324 21.84 C-26.612 21.863 -24.9 21.899 -23.188 21.938 C-21.939 18.273 -20.819 14.611 -19.812 10.875 C-18.357 6.012 -16.565 2.659 -12.375 -0.375 C-7.997 -1.751 -4.315 -1.438 0 0 Z " fill="#EDC067" transform="translate(520.1875,570.0625)" />
  <path d="M0 0 C3.259 1.456 5.713 3.255 8 6 C9.064 9.192 9.167 11.585 9.188 14.938 C9.202 15.978 9.216 17.018 9.23 18.09 C9.001 20.985 8.369 22.5 7 25 C7.375 27.25 7.375 27.25 8 29 C8.715 28.843 9.431 28.685 10.168 28.523 C17.773 27.118 23.91 27.116 30.441 31.516 C33.636 34.558 34.324 37.619 34.438 41.938 C34.363 45.822 34.176 46.766 31.75 50 C25.234 54.739 19.735 54.594 11.938 53.5 C10.968 53.335 9.999 53.17 9 53 C10.028 55.998 10.824 57.829 13.125 60.062 C16.125 64.763 15.853 69.588 15 75 C12.5 78.864 10.946 79.725 6.562 81 C1.686 81 -1.054 79.802 -4.637 76.484 C-8.291 72.556 -9.931 69.239 -11 64 C-13.625 64.372 -14.739 64.695 -16.492 66.742 C-16.949 67.446 -17.405 68.15 -17.875 68.875 C-20.528 72.569 -22.51 74.653 -27 76 C-29.897 76.229 -32.264 76 -35 75 C-37.847 72.568 -39.631 70.783 -40.406 67.035 C-40.621 62.37 -39.597 58.941 -37 55 C-32.684 51 -32.684 51 -30 51 C-30.33 50.01 -30.66 49.02 -31 48 C-33.547 47.008 -33.547 47.008 -36.75 46.125 C-45.247 43.424 -45.247 43.424 -48 39 C-48.786 34.683 -48.486 31.177 -46.812 27.125 C-43.923 23.737 -41.508 22.192 -37.062 21.625 C-32.303 22.208 -28.937 24.376 -25 27 C-22.312 27.125 -22.312 27.125 -20 27 C-19 24 -19 24 -20 21 C-20.781 14.512 -19.859 9.342 -16 4 C-11.187 -0.584 -6.343 -0.891 0 0 Z " fill="#EF9DA1" transform="translate(629,537)" />
  <path d="M0 0 C3.706 1.673 5.606 4.422 7.875 7.75 C10.07 14.092 9.107 20.496 8 27 C10.188 27.75 10.188 27.75 13 28 C15.5 26.188 15.5 26.188 18 24 C21.786 21.851 24.862 21.724 29.07 22.391 C33.015 23.636 35.08 26.642 37.312 29.938 C38.298 32.894 38.435 34.894 38 38 C34.929 42.696 32.47 44.797 27 46 C24.673 46.375 22.34 46.719 20 47 C20 50 20 50 21.461 51.465 C22.093 51.951 22.724 52.437 23.375 52.938 C26.811 55.589 28.62 57.803 29.371 62.148 C29.49 66.15 29.386 69.174 27 72.5 C23.809 75.159 22.114 76.035 18.047 76.219 C14.353 75.824 11.684 74.451 9 72 C7.265 69.678 5.732 67.326 4.262 64.828 C3.845 64.225 3.429 63.622 3 63 C2.34 63 1.68 63 1 63 C0.792 63.652 0.585 64.305 0.371 64.977 C-2.109 72.013 -5.222 76.611 -12 80 C-15.083 80.479 -17.922 80.536 -21 80 C-24.466 77.312 -25.664 75.854 -26.438 71.586 C-26.717 65.804 -25.646 62.611 -22 58 C-21.284 56.354 -20.597 54.693 -20 53 C-20.485 53.082 -20.485 53.082 -22.938 53.5 C-33.765 54.993 -33.765 54.993 -38.812 52.75 C-39.173 52.461 -39.173 52.461 -41 51 C-41.743 50.443 -42.485 49.886 -43.25 49.312 C-45.721 46.048 -46.427 43.007 -46 39 C-43.892 33.789 -41.113 30.441 -36 28 C-33.098 27.672 -33.098 27.672 -30.062 27.75 C-29.017 27.776 -27.972 27.802 -26.895 27.828 C-23.872 28.008 -20.957 28.343 -18 29 C-18.165 27.763 -18.33 26.525 -18.5 25.25 C-20.21 9.093 -20.21 9.093 -17.188 4.375 C-12.163 -1.08 -7.036 -0.903 0 0 Z " fill="#EF9EA1" transform="translate(411,537)" />
  <path d="M0 0 C0.04 1.005 0.079 2.009 0.12 3.044 C0.944 23.306 2.311 43.13 5.575 63.162 C6.214 67.426 6.632 71.705 7 76 C-5.874 75.323 -15.135 70.402 -24.109 61.137 C-32.934 51.163 -35.633 39.012 -35.34 25.934 C-34.614 17.532 -31.32 10.019 -24.934 4.402 C-18.155 -0.514 -8.061 -4.031 0 0 Z " fill="#C08152" transform="translate(319,341)" />
  <path d="M0 0 C7.087 2.725 10.957 6.579 14.188 13.438 C18.429 23.34 19.107 35.679 15.312 45.875 C9.197 59.075 2.203 68.561 -11.695 74.066 C-16.079 75.251 -20.19 74.997 -24.688 74.875 C-24.566 74.174 -24.445 73.473 -24.32 72.751 C-22.956 64.728 -21.758 56.692 -20.688 48.625 C-20.644 48.299 -20.644 48.299 -20.423 46.647 C-18.806 34.383 -17.923 22.123 -17.371 9.769 C-17.308 8.486 -17.245 7.204 -17.18 5.883 C-17.132 4.745 -17.084 3.607 -17.035 2.434 C-16.92 1.59 -16.806 0.745 -16.688 -0.125 C-11.775 -2.581 -5.109 -1.492 0 0 Z " fill="#C08152" transform="translate(727.6875,341.125)" />
  <path d="M0 0 C1.992 1.426 1.992 1.426 3.875 3.312 C8.832 8.259 14.232 10.354 21.153 10.519 C21.866 10.513 22.578 10.506 23.312 10.5 C24.058 10.496 24.803 10.491 25.572 10.487 C33.612 10.24 39.31 7.466 45.312 2.188 C48 0 48 0 50.688 -0.5 C53 0 53 0 54.875 1.062 C56 3 56 3 56.125 6.25 C54.336 12.215 50.739 15.37 45.453 18.516 C34.518 24.145 21.718 24.793 9.676 22.316 C2.792 19.712 -3.955 15.232 -8 9 C-8.392 5.798 -8.56 3.884 -6.812 1.125 C-4.352 -0.402 -2.864 -0.302 0 0 Z " fill="#251208" transform="translate(491,438)" />
  <path d="M0 0 C7.461 2.585 14.863 6.612 19.188 13.438 C19.576 16.607 19.723 18.545 18.062 21.312 C15.146 23.062 13.546 23.019 10.188 22.438 C8.594 21.23 8.594 21.23 6.938 19.688 C-0.181 13.156 -7.923 11.928 -17.279 11.94 C-20.688 11.882 -22.517 11.657 -25.289 9.598 C-26.812 7.438 -26.812 7.438 -26.812 4.375 C-23.391 -5.674 -8.045 -2.217 0 0 Z " fill="#241108" transform="translate(628.8125,283.5625)" />
  <path d="M0 0 C1.094 -0.026 2.189 -0.052 3.316 -0.078 C6.823 0.291 8.658 1.108 11.438 3.25 C12.5 6.188 12.5 6.188 12.438 9.25 C10.91 11.41 10.91 11.41 8.438 13.25 C5.788 13.601 3.458 13.753 0.812 13.75 C-9.676 14.098 -16.61 16.817 -24.457 23.957 C-26.562 25.25 -26.562 25.25 -29.199 25.074 C-31.562 24.25 -31.562 24.25 -33.562 22.25 C-34.279 18.667 -34.275 16.335 -32.23 13.223 C-23.773 3.946 -12.268 0.174 0 0 Z " fill="#241108" transform="translate(415.5625,281.75)" />
  <path d="M0 0 C4.332 2.757 4.332 2.757 5.75 5.75 C6.532 9.819 6.667 13.239 4.473 16.855 C1.183 20.756 -0.728 22.569 -5.938 23.188 C-10.477 23.163 -12.69 21.287 -15.902 18.258 C-18.743 15.08 -18.581 12.103 -18.535 8.008 C-18.109 4.636 -16.715 3.01 -14.25 0.75 C-9.842 -2.442 -4.88 -1.877 0 0 Z " fill="#24130C" transform="translate(627.25,568.25)" />
  <path d="M0 0 C3.752 2.015 5.636 3.455 8 7 C8.467 11.752 8.491 14.036 6.312 18.312 C3.416 21.679 1.455 23.768 -3.109 24.199 C-7.559 24.057 -10.408 23.214 -13.562 20 C-16.189 16.445 -16.774 13.454 -16.461 9.082 C-15.586 5.132 -13.387 3.04 -10.25 0.688 C-6.8 -0.367 -3.538 -0.565 0 0 Z " fill="#22130B" transform="translate(518,599)" />
  <path d="M0 0 C3.113 1.311 5.453 2.906 7 6 C7.121 7.622 7.175 9.249 7.188 10.875 C7.202 11.739 7.216 12.602 7.23 13.492 C6.884 17.267 5.816 19.308 2.938 21.75 C-1.149 23.489 -4.633 23.946 -9 23 C-12.374 20.949 -15.22 18.559 -17 15 C-17.681 8.187 -17.681 8.187 -15.953 5.176 C-11.262 -0.522 -7.058 -0.811 0 0 Z " fill="#23120B" transform="translate(413,567)" />
  <path d="M0 0 C-0.035 0.641 -0.07 1.281 -0.105 1.941 C-0.329 9.093 0.468 14.135 5.375 19.688 C7.859 21.876 10.379 23.978 13 26 C10.894 28.316 9.139 29.838 5.969 30.289 C-2.413 29.926 -9.676 25.74 -17 22 C-17 21.34 -17 20.68 -17 20 C-16.34 20 -15.68 20 -15 20 C-13.576 16.297 -12.993 13.355 -13 9.438 C-12.809 7.125 -12.809 7.125 -12 5 C-8.571 2.388 -4.404 0 0 0 Z " fill="#79B56A" transform="translate(578,597)" />
  <path d="M0 0 C3.735 0.498 5.812 0.875 9 3 C9.625 5.645 9.625 5.645 10 8.812 C10.54 13.344 11.538 16.167 14 20 C14 20.66 14 21.32 14 22 C12.252 22.817 10.501 23.628 8.75 24.438 C7.775 24.89 6.801 25.342 5.797 25.809 C1.757 27.529 -1.675 28.187 -6.062 28.312 C-6.491 28.331 -6.491 28.331 -8.66 28.426 C-11 28 -11 28 -12.809 25.98 C-13.202 25.327 -13.595 24.673 -14 24 C-13.469 23.636 -12.938 23.273 -12.391 22.898 C-5.529 18.015 -2.203 14.106 -0.75 5.625 C-0.486 3.752 -0.231 1.877 0 0 Z " fill="#80BB6E" transform="translate(452,598)" />
  <path d="M0 0 C3.422 1.539 6.311 3.375 9 6 C9.33 6.99 9.66 7.98 10 9 C9.192 9.182 8.384 9.364 7.551 9.551 C6.482 9.802 5.414 10.054 4.312 10.312 C3.785 10.434 3.785 10.434 1.113 11.051 C-1.98 11.994 -4.275 13.294 -7 15 C-9.062 15.062 -9.062 15.062 -11 14 C-13.607 10.886 -14.893 8.796 -15.438 4.75 C-15.293 3.842 -15.149 2.935 -15 2 C-10.286 -1.142 -5.508 -0.797 0 0 Z " fill="#7EBA6C" transform="translate(371,544)" />
  <path d="M0 0 C1.828 1.32 1.828 1.32 3 3 C2.902 8.307 1.609 11.158 -2 15 C-5.016 14.345 -7.593 13.327 -10.375 12 C-13.917 10.384 -17.095 9.4 -21 9 C-17.345 0.491 -8.606 -1.668 0 0 Z " fill="#77B467" transform="translate(670,544)" />
  <path d="M0 0 C0.716 1.953 1.432 3.906 2.148 5.859 C2.983 7.956 3.991 9.981 5 12 C1.04 13.65 -2.92 15.3 -7 17 C-7.866 15.907 -8.732 14.814 -9.625 13.688 C-12.396 10.428 -14.988 8.624 -19 7 C-12.947 0.498 -8.655 -0.454 0 0 Z " fill="#7EB96E" transform="translate(570,575)" />
  <path d="M0 0 C6.374 -0.664 9.974 1.121 15 5 C16.019 5.98 17.026 6.975 18 8 C17.385 8.326 16.77 8.652 16.137 8.988 C15.328 9.425 14.52 9.862 13.688 10.312 C12.887 10.742 12.086 11.171 11.262 11.613 C9.162 12.901 7.646 14.184 6 16 C4.373 15.55 2.748 15.089 1.125 14.625 C0.22 14.37 -0.685 14.115 -1.617 13.852 C-4 13 -4 13 -6 11 C-5.825 10.729 -5.825 10.729 -4.941 9.355 C-4.714 8.998 -4.714 8.998 -3.562 7.188 C-3.11 6.48 -2.658 5.772 -2.191 5.043 C-1 3 -1 3 0 0 Z " fill="#80BB6F" transform="translate(460,575)" />
  <path d="M0 0 C1.875 0.383 1.875 0.383 3.875 2.008 C5.193 5.138 5.425 7.013 4.875 10.383 C2.558 13.429 1.097 15.115 -2.688 15.945 C-6.021 15.176 -7.177 14.197 -9.125 11.383 C-9.578 7.758 -9.514 5.331 -8.125 1.945 C-5.414 -0.172 -3.376 -0.186 0 0 Z " fill="#F9F8F7" transform="translate(429.125,349.6171875)" />
  <path d="M0 0 C1.875 1.125 1.875 1.125 3 3 C3.544 6.653 3.438 8.343 1.375 11.438 C-1 13 -1 13 -4.062 13 C-7 12 -7 12 -8.938 10.312 C-10.396 7.138 -10.005 5.301 -9 2 C-5.531 -0.313 -4.078 -0.425 0 0 Z " fill="#F7F6F5" transform="translate(628,351)" />
  <path d="M0 0 C2.062 1.688 2.062 1.688 3 4 C2.875 6.625 2.875 6.625 2 9 C-2.068 11.712 -4.165 11.307 -9 11 C-11 9 -11 9 -11.312 6.062 C-11 3 -11 3 -10 1.125 C-6.782 -0.685 -3.592 -0.672 0 0 Z " fill="#231108" transform="translate(519,406)" />
</svg>