<svg xmlns="http://www.w3.org/2000/svg" viewBox="0 0 1024 1024" preserveAspectRatio="xMidYMid meet" id="mermaid-svg">
  <defs>
    <clipPath id="hair-clip">
      <rect x="-512" y="-512" width="2048" height="822"/>
    </clipPath>
  </defs>

  <g id="hair-group">
  <path d="M0 0 C3.178 2.501 6.134 5.149 9 8 C9.534 7.636 10.067 7.273 10.617 6.898 C13.066 5.246 15.53 3.62 18 2 C18.396 1.737 18.396 1.737 20.402 0.406 C34.402 -8.488 51.696 -11.498 68.02 -8.316 C85.467 -3.986 99.525 4.463 109 20 C109.71 21.649 110.391 23.311 111 25 C111.762 24.662 112.524 24.325 113.309 23.977 C113.825 23.754 113.825 23.754 116.438 22.625 C117.447 22.184 118.456 21.743 119.496 21.289 C135.551 15.383 153.394 16.285 169 23 C182.906 29.562 192.659 39.657 198.191 54.113 C199 57 199 57 199 61 C199.582 60.841 200.165 60.681 200.765 60.517 C214.85 57.259 229.987 60.842 242.375 67.75 C255.611 76.47 265.581 88.282 269 104 C269.077 105.368 269.108 106.739 269.098 108.109 C269.094 108.863 269.091 109.618 269.088 110.395 C269.08 111.172 269.071 111.949 269.062 112.75 C269.058 113.543 269.053 114.336 269.049 115.152 C269.037 117.102 269.019 119.051 269 121 C270.19 121.121 271.38 121.242 272.605 121.367 C286.979 123.182 301.784 132.082 310.871 143.312 C320.039 155.93 324.221 168.272 324.312 183.875 C324.318 184.672 324.324 185.468 324.329 186.289 C324.269 191.213 323.563 195.329 322 200 C322.666 200.317 323.333 200.634 324.02 200.961 C339.048 208.57 349.944 220.527 355.5 236.438 C360.432 252.489 359.309 270.237 351.5 285.062 C349.528 288.561 347.484 291.842 345 295 C345.485 295.415 345.969 295.83 346.469 296.258 C356.807 305.761 363.805 318.853 364.434 332.988 C364.457 335.096 364.458 337.205 364.438 339.312 C364.434 339.864 364.434 339.864 364.415 342.655 C364.251 350.75 363.498 357.598 360 365 C359.8 365.43 359.8 365.43 358.785 367.605 C354.866 374.933 349.002 380.383 343 386 C343.41 386.773 343.82 387.547 344.242 388.344 C344.781 389.385 345.32 390.427 345.875 391.5 C346.142 392.01 346.142 392.01 347.492 394.594 C353.154 407.385 352.618 422.737 348.262 435.852 C342.301 450.727 332.688 461.754 317.938 468.5 C314.362 470 314.362 470 312 470 C312.046 471.221 312.093 472.441 312.141 473.699 C312.633 492.156 308.298 505.999 295.48 519.676 C284.427 530.033 271.05 534.252 256.184 534.168 C252.445 533.971 249.492 533.299 246 532 C245.884 532.883 245.768 533.766 245.648 534.676 C243.628 545.032 236.208 553.711 228 560 C216.841 567.403 203.402 571.591 190 570 C184.798 568.723 179.86 567.261 175.402 564.238 C173 563 173 563 170.938 563.59 C168.083 565.667 165.57 568.027 163 570.441 C160.945 572.043 159.544 572.585 157 573 C177.43 596.908 205.303 618.218 236.221 625.815 C247.414 628.57 256.361 631.999 263 642 C266.773 648.718 267.106 656.142 265.414 663.574 C262.071 673.343 254.68 680.846 245.73 685.758 C238.806 688.908 231.713 690.822 224.188 691.812 C219.033 692.634 216.56 694.729 212.895 698.312 C208.454 702.267 202.948 703.564 197.055 703.277 C187.318 701.963 178.94 696.542 171.715 690.105 C167.838 686.729 163.617 684.207 159.188 681.625 C150.225 676.267 142.471 670.252 134.719 663.258 C133.831 662.457 132.944 661.657 132.029 660.833 C131.694 660.53 131.694 660.53 130 659 C130.252 659.749 130.503 660.497 130.763 661.269 C138.25 683.673 144.216 704.979 144.25 728.812 C144.252 729.562 144.255 730.312 144.257 731.084 C144.27 742.313 143.647 753.291 142.067 764.425 C140.084 778.47 139.569 793.199 148.383 805.125 C151.476 808.711 154.426 811.475 159 813 C159.182 812.273 159.364 811.546 159.551 810.797 C160.082 808.671 160.616 806.546 161.152 804.422 C161.685 802.27 162.201 800.115 162.691 797.953 C168.898 771.141 185.572 748.585 208.737 733.899 C226.09 723.13 244.778 718.017 264.464 713.283 C281.908 709.042 294.569 703.633 304.625 687.969 C306 686 306 686 308 685 C311.771 684.644 314.257 684.637 317.688 686.312 C329.286 699.792 328.015 725.394 327 742 C324.347 769.886 309.921 795.691 289 814 C285.746 816.495 282.371 818.776 278.945 821.027 C276.166 822.889 273.579 824.873 271 827 C271.822 827.485 272.645 827.969 273.492 828.469 C302.282 845.756 321.058 870.714 329.594 903.266 C333.754 919.941 336.4 940.378 331 957 C327.903 961.548 327.903 961.548 325 963 C321.934 963.511 319.843 963.513 317.145 961.871 C315.066 960.282 313.034 958.645 311 957 C297.826 947.119 283.699 944.995 267.625 944.125 C235.297 942.05 206.065 933.056 184 908 C175.779 897.681 165 881.679 165 868 C163.872 868.496 162.744 868.993 161.582 869.504 C137.232 880.079 111.539 888.36 85 891 C84.023 891.11 83.046 891.219 82.039 891.332 C62.849 893.109 43.062 892.862 24 890 C23.223 889.892 22.446 889.785 21.646 889.674 C-0.665 886.485 -23.351 879.042 -43 868 C-43.958 867.513 -44.916 867.025 -45.902 866.523 C-58.753 859.923 -69.654 850.976 -80 841 C-80.779 840.285 -81.557 839.569 -82.359 838.832 C-108.265 814.35 -123.249 776.109 -125 741 C-125.039 740.274 -125.077 739.549 -125.117 738.801 C-126.29 712.796 -120.179 687.186 -111 663 C-111.33 662.67 -111.66 662.34 -112 662 C-112.274 662.267 -112.274 662.267 -113.66 663.617 C-122.771 672.18 -133.061 678.657 -143.75 685.062 C-148.07 687.672 -151.908 690.479 -155.75 693.75 C-163.282 700.118 -170.932 703.398 -180.891 703.211 C-187.767 702.523 -193.429 699.128 -198 694 C-198 693.34 -198 692.68 -198 692 C-198.505 692.041 -198.505 692.041 -201.062 692.25 C-213.612 692.183 -226.467 687.02 -235.637 678.57 C-242.794 670.987 -245.569 664.593 -245.483 654.071 C-245.207 646.043 -242.577 640.113 -236.75 634.625 C-229.883 629.498 -221.863 627.237 -213.688 625.062 C-185.419 617.129 -157.593 598.031 -139 575 C-139.652 574.648 -140.305 574.296 -140.977 573.934 C-146.881 570.598 -150.896 567.4 -155 562 C-155.762 562.41 -156.524 562.82 -157.309 563.242 C-170.97 570.371 -184.079 572.315 -199.195 567.965 C-208.495 564.765 -215.055 559.933 -222 553 C-222.295 552.711 -222.295 552.711 -223.785 551.25 C-228.887 545.822 -231.667 538.999 -234 532 C-235.052 532.165 -236.104 532.33 -237.188 532.5 C-253.415 534.414 -267.755 531.286 -280.938 521.5 C-291.554 512.664 -298.914 500.769 -301 487 C-301.091 484.835 -301.13 482.667 -301.125 480.5 C-301.126 479.948 -301.126 479.948 -301.133 477.156 C-301.013 474.315 -300.649 471.762 -300 469 C-301.013 468.898 -302.026 468.796 -303.07 468.691 C-315.618 466.484 -326.382 458.371 -333.62 448.158 C-342.952 434.201 -344.575 419.471 -343 403 C-341.601 396 -338.815 389.995 -335 384 C-335.296 383.86 -335.296 383.86 -336.793 383.152 C-346.697 377.981 -352.492 367.711 -356.223 357.512 C-361.733 339.707 -359.516 322.717 -351.051 306.348 C-348.412 302.041 -345.297 298.539 -341.723 294.988 C-340 293 -340 293 -340 290 C-341.007 288.523 -342.081 287.091 -343.188 285.688 C-348.935 277.725 -352.714 267.887 -353 258 C-353.062 256.976 -353.124 255.953 -353.188 254.898 C-353.755 238.907 -348.506 223.599 -337.75 211.688 C-331.425 204.969 -324.894 199.695 -316 197 C-316.289 196.103 -316.577 195.206 -316.875 194.281 C-321.931 177.287 -321.515 161.267 -313.25 145.188 C-303.477 128.736 -289.697 117.93 -271.352 112.445 C-268.533 111.912 -265.862 111.926 -263 112 C-263.046 111.201 -263.093 110.402 -263.141 109.578 C-263.609 95.339 -258.839 83.308 -249.781 72.305 C-238.981 60.838 -224.29 52.562 -208.328 51.832 C-206.969 51.817 -205.609 51.811 -204.25 51.812 C-203.544 51.812 -202.838 51.811 -202.111 51.811 C-196.783 51.864 -192.107 52.541 -187 54 C-186.792 53.201 -186.585 52.402 -186.371 51.578 C-181.437 33.988 -172.112 21.959 -156.305 12.754 C-139.756 3.971 -120.47 0.357 -102.082 5.591 C-96.142 7.53 -90.449 9.935 -85 13 C-84.72 12.685 -84.72 12.685 -83.305 11.094 C-61.962 -11.69 -26.801 -16.58 0 0 Z " fill="#332113" transform="translate(502,37)"  clip-path="url(#hair-clip)"/>
  <path d="M0 0 C1.184 1.776 2.335 3.575 3.41 5.418 C10.947 18.05 21.611 26.256 36 30 C39.317 30.254 42.612 30.234 45.938 30.188 C46.372 30.187 46.372 30.187 48.568 30.186 C53.478 30.152 58.16 29.823 63 29 C63.219 29.75 63.438 30.5 63.664 31.273 C68.276 46.158 75.215 55.87 88.871 63.492 C95.666 66.767 102.575 67.995 110 69 C110.004 69.694 110.008 70.389 110.012 71.104 C110.315 100.315 110.315 100.315 117 107 C119.937 147.677 115.11 202.215 87.688 234.812 C55.987 271.024 6.876 278.978 -38.959 282.286 C-54.9 283.296 -70.883 283.222 -86.849 283.24 C-90.139 283.245 -93.427 283.258 -96.717 283.281 C-118.347 283.428 -139.518 282.689 -161 280 C-161.856 279.893 -162.713 279.786 -163.595 279.675 C-167.937 279.113 -172.251 278.444 -176.562 277.688 C-177.79 277.476 -179.017 277.264 -180.281 277.046 C-210.467 271.639 -239.074 262.214 -261 240 C-261.811 239.188 -262.622 238.376 -263.457 237.539 C-288.31 211.374 -293.015 173.528 -294 139 C-294.034 137.816 -294.068 136.633 -294.103 135.414 C-294.2 131.484 -294.261 127.555 -294.312 123.625 C-294.342 122.358 -294.372 121.091 -294.403 119.786 C-294.41 118.591 -294.418 117.395 -294.426 116.164 C-294.44 115.096 -294.455 114.028 -294.47 112.928 C-293.886 109.293 -292.448 107.69 -290 105 C-288.77 102.789 -288.77 102.789 -287.812 100.625 C-287.489 99.916 -287.165 99.207 -286.832 98.477 C-284.654 91.995 -284.902 85.37 -285 78.625 C-285.025 76.826 -285.046 75.026 -285.062 73.227 C-285.074 72.438 -285.086 71.65 -285.098 70.838 C-285 69 -285 69 -284 68 C-282.233 67.724 -280.461 67.48 -278.688 67.25 C-265.169 65.05 -254.305 58.742 -245.562 48.219 C-240.223 40.636 -237.923 31.958 -236 23 C-235.564 23.144 -235.564 23.144 -233.359 23.875 C-219.564 28.175 -206.59 28.587 -193.375 21.875 C-185.49 17.115 -178.941 10.741 -174 3 C-170.716 4.399 -168.966 5.975 -166.75 8.75 C-157.487 19.653 -145.362 25.011 -131.234 26.359 C-114.55 26.948 -99.354 21.404 -87 10 C-86.67 9.34 -86.34 8.68 -86 8 C-85.34 8 -84.68 8 -84 8 C-83.67 8.34 -83.67 8.34 -82 10.062 C-72.996 19.329 -62.859 24.056 -50.037 24.47 C-32.985 24.643 -19.588 20.468 -6.762 8.812 C-4.117 6.091 -2.073 3.174 0 0 Z " fill="#804828" transform="translate(599,287)"  clip-path="url(#hair-clip)"/>
  </g>
  <path d="M0 0 C7.273 -0.368 13.415 0.563 20.375 2.625 C21.325 2.896 22.276 3.168 23.255 3.448 C26.174 4.286 29.087 5.143 32 6 C33.735 6.497 35.471 6.993 37.207 7.488 C58.03 13.498 78.784 20.346 96.254 33.531 C99.816 35.436 102.006 35.494 106 35 C109 33.531 109 33.531 112 31.5 C113.15 30.756 114.303 30.015 115.457 29.277 C115.751 29.087 115.751 29.087 117.241 28.125 C138.241 14.701 163.002 8.712 187 3 C187.859 2.795 188.717 2.589 189.602 2.378 C193.373 1.504 196.985 0.709 200.875 0.688 C201.594 0.671 202.314 0.654 203.055 0.637 C205.664 1.124 206.316 1.946 208 4 C209.195 6.761 209.195 6.761 210.34 10.117 C210.551 10.735 210.551 10.735 211.618 13.861 C212.06 15.198 212.5 16.536 212.938 17.875 C213.049 18.215 213.049 18.215 213.613 19.934 C222.436 47.034 223.734 72.849 220.723 101.095 C218.571 121.979 218.187 141.827 231.312 159.312 C242.85 170.85 255.415 172.66 271 173 C271.129 170.141 271.129 170.141 271 167 C270.319 166.257 269.639 165.515 268.938 164.75 C266.391 161.135 266.755 159.246 267.398 154.984 C272.831 128.035 285.08 106.087 307.828 90 C322.776 80.188 339.742 75.072 357 71 C373.78 67.033 389.916 63.201 401 49 C401.66 49 402.32 49 403 49 C409.075 74.563 404.349 100.791 390.883 123.117 C387.895 127.691 384.594 131.89 381 136 C380.704 136.344 380.704 136.344 379.207 138.082 C365.406 153.001 347.105 158.155 327.758 161.76 C327.164 161.877 327.164 161.877 324.156 162.473 C323.092 162.671 322.028 162.87 320.932 163.074 C317.591 164.129 315.586 165.672 313 168 C313.375 170.438 313.375 170.438 314 173 C316.781 174.391 319.408 174.459 322.5 174.812 C346.477 177.848 365.327 184.91 383 202 C383.678 202.652 384.356 203.305 385.055 203.977 C403.504 223.167 412.335 252.803 412.062 279 C412.058 279.567 412.058 279.567 412.035 282.438 C412.024 283.283 412.012 284.129 412 285 C409.756 283.886 407.524 282.753 405.301 281.598 C390.903 274.201 377.53 272.101 361.448 270.798 C336.739 268.741 313.659 264.772 295 247 C294.35 246.416 293.701 245.832 293.031 245.23 C281.924 234.829 273.02 218.902 270 204 C270.363 201.328 270.363 201.328 271 199 C271.688 196.312 271.688 196.312 272 194 C269.665 191.665 269.137 191.68 265.957 191.621 C260.522 191.75 256.481 193.658 251.688 196.062 C229.796 206.436 206.032 213.733 182 217 C181.626 217.051 181.626 217.051 179.731 217.312 C137.557 222.862 93.456 216.768 56 196 C55.352 195.641 54.703 195.283 54.035 194.914 C45.323 190.034 37.505 184.628 30 178 C29.512 177.584 29.512 177.584 27.043 175.48 C-2.581 149.799 -14.031 114.23 -17.324 76.262 C-18.111 54.473 -12.092 31.27 -3.896 11.218 C-2.918 8.798 -2.051 6.359 -1.25 3.875 C-0.833 2.583 -0.417 1.292 0 0 Z " fill="#BA354F" transform="translate(409,695)" />
  <path d="M0 0 C2.385 0.242 4.771 0.481 7.156 0.719 C10.8 1.103 14.444 1.494 18.086 1.895 C36.539 3.826 55.083 4.233 73.625 4.25 C74.594 4.252 75.563 4.253 76.561 4.255 C91.687 4.257 106.725 3.688 121.812 2.625 C122.713 2.562 123.613 2.499 124.541 2.434 C134.186 1.742 143.794 0.923 153.369 -0.459 C163.595 -1.82 169.398 1.665 177.227 7.613 C182.665 11.867 187.848 16.407 193 21 C193.951 21.839 194.903 22.678 195.883 23.543 C202.345 29.348 208.453 35.453 214.562 41.625 C221.104 48.214 227.595 54.386 235 60 C236.329 61.044 237.657 62.09 238.984 63.137 C247.343 69.688 255.712 75.814 265 81 C265.59 81.333 266.181 81.667 266.789 82.01 C277.053 87.73 287.51 91.206 298.792 94.377 C310.709 97.739 310.709 97.739 314.688 101.625 C316.476 106.225 316.764 110.13 316 115 C313.024 121.447 307.573 125.518 301.117 128.195 C295.096 130.193 289.441 131.2 283.125 131.75 C276.642 132.461 276.642 132.461 273.777 134.863 C272.666 136.289 271.579 137.735 270.523 139.203 C268.777 141.263 267.814 141.793 265.188 142.312 C258.101 142.491 252.273 138.209 247.262 133.645 C243.106 129.935 238.691 127.332 233.812 124.688 C220.227 117.037 208.872 107.553 197.753 96.68 C196.157 95.151 194.52 93.695 192.852 92.246 C183.968 83.885 181.811 74.274 178.768 62.773 C176.045 52.936 172.467 40.945 166 33 C163.356 31.782 161.972 31.822 159 32 C156.834 35.249 156.787 35.599 157.375 39.188 C157.581 40.446 157.788 41.704 158 43 C157.726 42.939 157.726 42.939 156.342 42.633 C133.546 37.682 111.573 36.246 90.504 48.445 C86.148 51.252 82.297 54.36 78.605 57.996 C77 59 77 59 75.211 58.957 C71.941 57.541 69.259 55.389 66.438 53.25 C48.502 40.146 27.478 37.563 5.67 40.292 C2.027 40.926 -1.481 41.874 -5 43 C-6.331 43.342 -7.664 43.679 -9 44 C-8.832 43.313 -8.665 42.626 -8.492 41.918 C-8.289 41.017 -8.085 40.116 -7.875 39.188 C-7.666 38.294 -7.457 37.401 -7.242 36.48 C-7 34 -7 34 -9 31 C-11.312 30.312 -11.312 30.312 -14 31 C-17.771 35.747 -20.408 41.491 -22.875 47 C-23.215 47.753 -23.555 48.507 -23.906 49.283 C-27.179 56.843 -29.363 64.678 -31.302 72.676 C-32.908 78.824 -34.916 82.807 -39.394 87.357 C-41 89 -41 89 -43 92 C-43.66 92 -44.32 92 -45 92 C-45.242 92.566 -45.485 93.132 -45.734 93.715 C-53.684 108.069 -72.984 118.666 -86.684 126.543 C-91.158 129.147 -95.192 131.884 -99.188 135.188 C-104.416 139.445 -108.028 141.811 -114.938 142.25 C-118.953 141.607 -120.253 139.677 -122.625 136.5 C-125.135 133.368 -126.295 132.153 -130.266 131.289 C-132.686 131.179 -135.109 131.112 -137.531 131.086 C-147.092 130.849 -154.795 126.656 -161.875 120.5 C-165.53 116.201 -166.436 112.462 -166.238 106.922 C-165.858 103.855 -165.059 102.316 -163 100 C-156.999 96.601 -151.167 94.825 -144.5 93.188 C-128.488 88.998 -115.362 82.734 -102 73 C-101.447 72.599 -100.895 72.198 -100.326 71.785 C-96.467 68.958 -92.715 66.012 -89 63 C-88.471 62.575 -87.942 62.151 -87.397 61.713 C-76.396 52.799 -66.551 42.691 -56.659 32.586 C-56.103 32.021 -55.546 31.456 -54.973 30.874 C-53.914 29.797 -52.858 28.717 -51.808 27.632 C-50.576 26.383 -49.292 25.186 -48 24 C-47.34 24 -46.68 24 -46 24 C-46 23.34 -46 22.68 -46 22 C-41.399 16.945 -35.425 12.943 -30 8.812 C-29.336 8.302 -28.672 7.791 -27.988 7.264 C-26.025 5.788 -24.03 4.383 -22 3 C-21.41 2.575 -20.819 2.15 -20.211 1.712 C-13.771 -2.28 -7.22 -0.883 0 0 Z " fill="#814928" transform="translate(437,583)" />
  <path d="M0 0 C0.917 0.316 1.833 0.632 2.777 0.957 C6.466 2.553 8.44 3.929 10.324 7.531 C11.433 10.663 12.251 13.764 13 17 C13.137 17.53 13.137 17.53 13.828 20.215 C16.255 30.028 18.165 39.868 18 50 C17.308 50.145 16.616 50.29 15.902 50.44 C-0.629 53.934 -16.883 57.917 -33 63 C-33.775 63.242 -34.55 63.484 -35.348 63.733 C-44.193 66.535 -52.604 70.053 -61 74 C-61.861 74.403 -62.721 74.806 -63.608 75.222 C-69.415 78.026 -74.726 81.293 -80 85 C-82.622 83.722 -85.133 82.356 -87.617 80.828 C-108.997 67.837 -132.297 60.354 -156.438 54.062 C-157.519 53.78 -158.601 53.498 -159.716 53.207 C-166.761 51.427 -173.815 50.085 -181 49 C-180.132 45.177 -179.237 41.363 -178.309 37.555 C-177.306 33.41 -176.439 29.25 -175.598 25.07 C-175.067 22.651 -174.534 20.231 -174 17.812 C-173.783 16.643 -173.565 15.473 -173.342 14.268 C-172.221 9.414 -171.39 6.098 -167.391 2.939 C-164.306 1.321 -161.305 0.093 -158 -1 C-157.245 -1.258 -156.491 -1.515 -155.714 -1.781 C-141.013 -5.822 -119.957 -5.284 -106 1 C-105.525 1.212 -105.525 1.212 -103.121 2.285 C-96.881 5.401 -91.835 9.445 -86.703 14.145 C-83.349 16.447 -81.054 16.94 -77 17 C-74.699 15.812 -74.699 15.812 -72.688 14 C-72.306 13.676 -72.306 13.676 -70.375 12.039 C-69.591 11.366 -68.808 10.693 -68 10 C-48.535 -5.175 -23.134 -8.544 0 0 Z " fill="#B9364F" transform="translate(592,635)" />
  <path d="M0 0 C4.924 2.964 8.318 6.501 10.758 11.746 C12.341 18.738 11.688 25.183 9.953 32.074 C9.423 34.437 9.352 36.646 9.508 39.059 C14.236 38.55 17.161 37.296 21.07 34.621 C26.926 30.643 31.286 28.336 38.508 29.059 C45.704 31.075 50.312 34.943 54.508 41.059 C57.257 46.677 57.344 52.596 55.891 58.613 C53.164 66.551 48.428 70.953 41.133 74.871 C37.293 76.129 33.523 76.944 29.547 77.629 C27.508 78.059 27.508 78.059 26.508 79.059 C26.008 81.184 26.008 81.184 26.508 84.059 C28.098 85.9 29.837 87.502 31.621 89.156 C37.024 94.604 39.646 100.492 39.883 108.121 C39.808 114.796 38.543 119.694 34.508 125.059 C29.055 130.346 23.369 133.333 15.695 133.434 C8.78 133.273 4.515 131.866 -0.547 127.141 C-5.405 121.962 -9.074 116.261 -12.492 110.059 C-14.258 110.145 -14.258 110.145 -16.492 111.059 C-17.896 113.259 -19.078 115.364 -20.242 117.684 C-24.341 125.341 -28.942 131.264 -37.492 134.059 C-44.021 134.81 -50.821 134.672 -56.492 131.059 C-61.516 126.472 -65.068 121.915 -65.828 115.008 C-65.947 105.121 -63.976 99.469 -57.492 92.059 C-54.681 89.959 -51.787 88.047 -48.855 86.121 C-46.163 83.771 -45.753 82.558 -45.492 79.059 C-46.554 78.949 -47.617 78.839 -48.711 78.727 C-68.027 76.618 -68.027 76.618 -75.016 69.008 C-78.805 64.006 -80.094 58.584 -79.836 52.355 C-78.807 45.482 -75.77 40.463 -70.27 36.277 C-64.339 32.211 -59.604 31.09 -52.492 32.059 C-46.924 33.771 -42.139 36.754 -37.414 40.105 C-34.999 41.303 -33.152 41.224 -30.492 41.059 C-30.528 40.659 -30.528 40.659 -30.711 38.637 C-31.009 35.112 -31.258 31.588 -31.492 28.059 C-31.572 27.008 -31.652 25.957 -31.734 24.875 C-32.058 17.553 -30.918 12.02 -26.492 6.059 C-19.262 -0.848 -9.733 -3.677 0 0 Z " fill="#E45571" transform="translate(297.4921875,171.94140625)" />
  <path d="M0 0 C11.707 8.226 17.964 18.524 20.473 32.668 C22.226 48.43 21.366 65.205 11.609 78.387 C6.977 83.731 2.658 88.061 -4.121 90.32 C-5.338 90.733 -6.555 91.145 -7.809 91.57 C-17.649 93.716 -28.407 93.192 -37.234 88.102 C-48.635 80.132 -55.646 68.993 -58.121 55.32 C-58.432 52.086 -58.502 48.881 -58.496 45.633 C-58.496 44.759 -58.496 43.886 -58.496 42.986 C-58.365 35.51 -56.952 29.273 -54.121 22.32 C-53.747 21.381 -53.373 20.441 -52.988 19.473 C-52.845 19.118 -52.845 19.118 -52.121 17.32 C-52.615 16.838 -53.109 16.356 -53.617 15.859 C-54.258 15.228 -54.899 14.596 -55.559 13.945 C-55.878 13.632 -55.878 13.632 -57.492 12.047 C-59.784 9.617 -60.107 8.656 -60.246 5.258 C-60.121 2.32 -60.121 2.32 -59.121 1.32 C-55.963 0.933 -54.542 1.033 -51.883 2.852 C-51.198 3.501 -50.514 4.151 -49.809 4.82 C-49.46 5.145 -49.46 5.145 -47.695 6.789 C-47.176 7.294 -46.656 7.8 -46.121 8.32 C-41.798 6.291 -37.942 3.615 -33.973 0.977 C-24.747 -4.382 -9.522 -5.33 0 0 Z " fill="#291B0C" transform="translate(413.12109375,395.6796875)" />
  <path d="M0 0 C0.699 0.521 1.397 1.042 2.117 1.578 C4.125 2.75 4.125 2.75 8.125 2.75 C9.871 1.438 9.871 1.438 11.562 -0.25 C14.782 -3.206 14.782 -3.206 18.062 -3.625 C18.743 -3.501 19.424 -3.377 20.125 -3.25 C21.802 2.501 21.802 2.501 19.926 5.961 C15.898 11.363 15.898 11.363 13.125 12.75 C13.729 16.613 14.93 19.995 16.406 23.59 C20.829 36.883 18.731 53.342 12.664 65.734 C8.954 72.1 5.12 77.467 -1.188 81.438 C-2.091 82.019 -2.995 82.6 -3.926 83.199 C-12.835 87.884 -25.025 88.442 -34.75 85.75 C-45.094 81.466 -51.199 73.635 -55.875 63.75 C-62.271 48.292 -61.147 31.326 -55.875 15.75 C-51.713 5.762 -44.866 -1.947 -34.875 -6.25 C-22.774 -10.363 -10.094 -6.904 0 0 Z " fill="#2A1B0C" transform="translate(649.875,400.25)" />
  <path d="M0 0 C2.839 2.656 2.846 5.423 3.095 9.202 C3.113 10.029 3.13 10.855 3.148 11.707 C3.175 12.651 3.201 13.595 3.228 14.568 C3.256 15.577 3.284 16.585 3.312 17.625 C3.843 33.032 5.584 48.28 8.555 63.409 C8.938 65.812 8.938 65.812 8.938 69.812 C-2.33 71.113 -10.531 67.55 -19.48 61.059 C-26.997 54.327 -32.625 43.306 -33.301 33.273 C-33.591 22.595 -32.556 13.487 -24.883 5.352 C-17.636 -0.776 -9.07 -3.517 0 0 Z " fill="#814929" transform="translate(286.0625,411.1875)" />
  <path d="M0 0 C7.442 2.511 12.627 7.52 16.254 14.367 C20.424 24.16 20.607 35.628 17.039 45.664 C11.771 57.506 4.955 64.942 -7 70 C-10.149 71.05 -12.388 71.101 -15.688 71.062 C-16.681 71.053 -17.675 71.044 -18.699 71.035 C-19.458 71.024 -20.218 71.012 -21 71 C-20.219 63.12 -18.885 55.401 -17.461 47.615 C-15.476 36.526 -14.791 25.631 -14.438 14.375 C-14.394 13.085 -14.351 11.794 -14.307 10.465 C-14.201 7.31 -14.099 4.155 -14 1 C-9.77 -1.115 -4.592 -0.491 0 0 Z " fill="#814928" transform="translate(745,411)" />
  <path d="M0 0 C6.479 3.797 10.201 9.074 12.211 16.254 C13.646 22.83 12.429 27.249 9.312 33.066 C5.717 38.313 0.642 41.413 -5.312 43.438 C-12.609 44.603 -18.022 43.391 -24.145 39.293 C-28.738 35.361 -31.951 30.107 -32.551 24.02 C-32.75 16.6 -31.886 11.244 -26.699 5.719 C-19.012 -1.236 -9.973 -4.441 0 0 Z " fill="#28180C" transform="translate(295.3125,223.5625)" />
  <path d="M0 0 C4.11 2.97 7.253 6.526 8.859 11.344 C9.591 18.101 9.073 23.832 4.859 29.344 C-0.712 34.434 -5.806 35.778 -13.285 35.68 C-18.698 35.043 -22.067 32.534 -25.742 28.652 C-29.318 23.868 -29.959 19.209 -29.684 13.316 C-28.637 7.585 -25.867 3.453 -21.277 -0.098 C-14.28 -4.122 -6.978 -3.908 0 0 Z " fill="#F9F1E9" transform="translate(523.140625,117.65625)" />
  <path d="M0 0 C3.938 2.568 6.746 5.617 8.875 9.875 C9.467 15.794 8.361 20.12 4.875 24.875 C1.448 28.044 -2.073 29.126 -6.688 29.375 C-12.507 29.078 -15.66 26.495 -19.5 22.25 C-21.7 17.68 -21.936 13.862 -21.125 8.875 C-16.715 0.213 -9.455 -3.404 0 0 Z " fill="#F8F0E8" transform="translate(445.125,132.125)" />
  <path d="M0 0 C3.647 3.126 5.765 6.42 6.574 11.121 C6.903 17.853 4.475 21.241 0.125 26.25 C-4.419 28.764 -8.739 28.613 -13.812 27.875 C-18.244 25.739 -21.042 23.499 -22.812 18.875 C-23.465 13.61 -23.463 9.306 -21.25 4.438 C-14.749 -2.397 -8.819 -3.528 0 0 Z " fill="#F8F0E9" transform="translate(594.8125,132.125)" />
  <path d="M0 0 C3.645 1.545 6.034 3.771 8.875 6.5 C23.049 19.678 39.815 28.499 57.062 37 C92.057 54.275 92.057 54.275 101 65 C101 65.66 101 66.32 101 67 C94.937 65.373 89.877 62.198 84.5 59.062 C76.587 54.516 68.616 50.176 60.438 46.125 C59.519 45.669 58.6 45.214 57.654 44.744 C53.808 42.847 49.955 40.972 46.074 39.148 C29.031 31.003 12.436 19.248 1 4 C0.359 1.812 0.359 1.812 0 0 Z " fill="#5F1020" transform="translate(699,888)" />
  <path d="M0 0 C3.972 0.329 6.682 1.817 10 3.938 C17.429 8.662 23.207 9.887 32 9 C37.134 7.672 41.382 5.768 45.312 2.188 C48 0 48 0 50.875 0.188 C51.576 0.456 52.278 0.724 53 1 C54 4.062 54 4.062 54 8 C49.777 13.792 43.782 16.403 37 18 C36.536 18.113 36.536 18.113 34.188 18.688 C23.065 19.778 12.597 19.282 3 13 C0.109 10.459 -1.816 8.158 -2.438 4.25 C-2 2 -2 2 0 0 Z " fill="#29190B" transform="translate(486,495)" />
  <path d="M0 0 C0.99 0.33 1.98 0.66 3 1 C-3.122 6.803 -9.788 11.247 -16.938 15.688 C-27.195 22.158 -37.223 28.826 -47 36 C-47.571 36.414 -48.141 36.828 -48.729 37.254 C-60.823 46.057 -71.486 56.396 -82 67 C-82.575 65.133 -82.575 65.133 -83 63 C-74.71 48.289 -58.429 36.628 -45 27 C-44.39 26.561 -43.779 26.122 -43.15 25.669 C-32.444 18.056 -20.975 11.724 -9.48 5.392 C-7.286 4.161 -5.146 2.867 -3 1.555 C-2.01 1.042 -1.02 0.529 0 0 Z " fill="#5E0F20" transform="translate(783,785)" />
  <path d="M0 0 C3.132 1.624 5.243 3.003 7.375 5.812 C8.58 10.031 8.573 13.631 6.875 17.688 C4.46 20.665 2.458 22.304 -1 24 C-3.888 24.289 -6.272 23.993 -9 23 C-11.938 20.5 -11.938 20.5 -14 18 C-14.33 17.67 -14.66 17.34 -15 17 C-15.538 12.919 -15.934 8.75 -13.953 5.039 C-9.873 0.119 -6.237 -0.846 0 0 Z " fill="#F8F0E9" transform="translate(382,156)" />
  <path d="M0 0 C3.075 1.703 5.406 3.812 7 7 C7.35 12.34 7.468 15.665 4 20 C1.475 22.817 -0.719 23.273 -4.375 23.5 C-9.445 23.349 -11.559 21.613 -15 18 C-16.742 14.516 -16.587 10.801 -16 7 C-12.281 0.283 -7.239 -1.117 0 0 Z " fill="#F8F1EA" transform="translate(651,156)" />
  <path d="M0 0 C3.054 1.613 5.238 3.031 7.375 5.75 C8.832 10.997 8.722 14.656 6.188 19.375 C3.259 22.89 1.775 23.911 -2.812 24.438 C-7.645 24.339 -9.693 22.388 -13 19 C-14.862 15.275 -14.571 11.055 -14 7 C-10.699 0.828 -6.747 -0.562 0 0 Z " fill="#F8F1EA" transform="translate(414,412)" />
  <path d="M0 0 C3.022 1.745 5.417 3.833 7 7 C7.581 11.764 7.451 15.145 5.188 19.438 C2.41 22.691 0.929 23.914 -3.375 24.312 C-7.27 23.977 -8.981 23.432 -12 21 C-14.868 17.539 -15.53 14.498 -15.359 9.996 C-14.763 6.685 -13.119 4.542 -11 2 C-7.311 -0.459 -4.282 -0.816 0 0 Z " fill="#F8F1EB" transform="translate(619,411)" />
  <path d="M0 0 C3.129 0.743 4.942 2.188 7.121 4.504 C8.871 8.004 8.672 11.685 8.121 15.504 C6.82 18.446 5.723 19.336 3.121 21.504 C0.368 22.555 -1.952 22.853 -4.879 22.504 C-8.067 20.91 -10.103 19.527 -12.254 16.691 C-13.405 12.663 -13.818 9.339 -11.852 5.496 C-8.503 0.914 -5.662 -0.449 0 0 Z " fill="#C0765B" transform="translate(286.87890625,232.49609375)" />
  <path d="M0 0 C2 2 2 2 2.125 4.625 C2.084 5.409 2.043 6.192 2 7 C0.744 7.231 -0.511 7.461 -1.805 7.699 C-22.71 11.71 -22.71 11.71 -29 18 C-31.625 18.125 -31.625 18.125 -34 18 C-33.49 13.539 -32.128 11.208 -29 8 C-20.322 1.364 -10.909 -1.31 0 0 Z " fill="#29190B" transform="translate(397,350)" />
  <path d="M0 0 C8.731 0.112 16.729 2.745 23.562 8.25 C25.723 10.471 27.687 12.785 29.562 15.25 C28.903 16.57 28.242 17.89 27.562 19.25 C24.404 18.164 21.932 16.808 19.25 14.875 C14.052 11.499 8.236 10.475 2.27 9.145 C-0.811 8.401 -3.547 7.524 -6.438 6.25 C-5.334 0.1 -5.334 0.1 0 0 Z " fill="#28190B" transform="translate(630.4375,349.75)" />
  <path d="M0 0 C2.404 0.642 3.552 1.312 5.289 3.078 C7.319 6.868 7.718 8.63 6.867 12.742 C5.663 15.886 4.108 17.042 1.164 18.578 C-3.122 19.19 -5.062 19.083 -8.711 16.703 C-11.183 14.231 -11.741 13.274 -12.211 9.828 C-11.81 6.353 -10.925 4.309 -8.527 1.727 C-5.75 -0.159 -3.289 -0.242 0 0 Z " fill="#F7F0E9" transform="translate(476.8359375,134.421875)" />
  <path d="M0 0 C3.605 2.665 4.845 4.038 5.562 8.5 C4.919 12.505 3.841 14.159 1 17 C-1.853 18.427 -3.835 18.31 -7 18 C-9.7 16.2 -11.542 14.916 -13 12 C-13.375 8.688 -13.375 8.688 -13 5 C-8.809 -0.073 -6.435 -1.766 0 0 Z " fill="#F7F0E9" transform="translate(621,151)" />
  <path d="M0 0 C3.286 2.429 4.708 4.123 6 8 C6 11.606 5.141 13.145 3 16 C1 18 1 18 -2.812 18.375 C-5.895 18.28 -7.112 17.94 -9.938 16.438 C-12.684 13.192 -13.073 11.237 -13 7 C-9.579 0.63 -7.212 -0.733 0 0 Z " fill="#F5EEE7" transform="translate(411,151)" />
  <path d="M0 0 C2.7 1.8 4.542 3.084 6 6 C6.554 10.06 6.128 11.778 4.062 15.375 C1.701 17.939 -0.105 18.465 -3.562 18.625 C-6.5 18.395 -7.952 18.027 -10.562 16.562 C-12.699 12.754 -12.8 9.265 -12 5 C-8.601 0.468 -5.576 -0.547 0 0 Z " fill="#F7F1E9" transform="translate(554,135)" />
</svg>