<?xml version="1.0" encoding="UTF-8"?>
<!-- Generator: visioncortex VTracer 0.6.12 -->
<svg version="1.1" xmlns="http://www.w3.org/2000/svg" width="1024" height="1024">
<path d="M0 0 C13.86 0 27.72 0 42 0 C42 0.66 42 1.32 42 2 C42.709 1.965 43.418 1.93 44.148 1.895 C89.416 0.744 135.943 15.5 175.631 36.385 C180.734 39.047 185.159 40.741 190.812 41.812 C216.966 47.371 240.844 60.698 261 78 C261.416 78.354 261.416 78.354 263.523 80.148 C273.253 88.65 281.634 97.851 288.74 108.632 C289.757 110.138 290.871 111.576 292 113 C292.99 113 293.98 113 295 113 C295.081 113.839 295.162 114.678 295.246 115.543 C296.138 119.635 297.931 122.771 300.062 126.312 C317.511 156.483 334.753 198.577 333 234 C333.66 234.33 334.32 234.66 335 235 C335.049 236.133 335.098 237.266 335.148 238.434 C339.244 330.14 339.244 330.14 368 367 C396 402.966 396 402.966 396 416 C396.66 416.33 397.32 416.66 398 417 C403.5 436.759 400.232 458.959 391 477 C387.182 483.537 382.668 489.453 377.999 495.391 C369.589 506.134 363.642 515.713 365 530 C366.071 535.785 367.727 541.414 369.44 547.036 C370 549 370 549 370.539 551.996 C370.615 552.327 370.615 552.327 371 554 C371.66 554.33 372.32 554.66 373 555 C373.33 555.99 373.66 556.98 374 558 C374.33 558 374.66 558 375 558 C375.981 584.372 372.218 603.729 354 624 C353.413 624.657 352.827 625.315 352.223 625.992 C338.336 640.696 317.832 648.862 298 651 C296 651.028 294 651.035 292 651 C291.888 651.882 291.776 652.763 291.66 653.672 C289.801 663.043 283.174 670.984 277 678 C276.322 678.773 275.644 679.547 274.945 680.344 C261 695.26 239.667 704.098 219.392 705.195 C215.343 705.316 211.301 705.372 207.25 705.375 C205.96 705.377 204.669 705.379 203.34 705.38 C190.515 705.231 178.356 703.395 166 700 C165.921 700.623 165.921 700.623 165.52 703.777 C163.982 715.241 161.715 726.048 158 737 C157.887 737.338 157.887 737.338 157.316 739.046 C148.721 764.408 132.917 788.083 114 807 C115.085 807.049 116.171 807.098 117.289 807.148 C118.734 807.224 120.18 807.299 121.625 807.375 C122.338 807.406 123.051 807.437 123.785 807.469 C128.204 807.712 131.811 808.472 136 810 C137.986 810.501 139.973 811.002 141.961 811.494 C160.091 816.121 175.222 824.681 190 836 C190.491 836.368 190.491 836.368 192.977 838.23 C193.644 838.814 194.312 839.398 195 840 C195 840.66 195 841.32 195 842 C195.574 842.242 196.147 842.485 196.738 842.734 C211.753 851.136 221.795 874.83 226.438 890.625 C230.337 907.012 230.337 907.012 226.801 913.047 C224.684 915.121 222.56 916.494 220 918 C219.699 918.178 219.699 918.178 218.178 919.077 C208.826 924.519 199.316 928.747 189 932 C189 932.66 189 933.32 189 934 C188.072 933.959 187.144 933.918 186.188 933.875 C183.046 933.869 180.199 934.304 177.125 934.938 C156.362 938.864 131.002 938.109 111.98 927.918 C109.012 926.542 106.22 926.876 103 927 C103 926.01 103 925.02 103 924 C101.051 922.527 101.051 922.527 98.312 920.938 C93.713 918.135 89.386 915.158 85.125 911.875 C84.858 911.671 84.858 911.671 83.505 910.64 C80.927 908.639 78.595 906.588 76.305 904.258 C74 902 74 902 71 901 C71 901.99 71 902.98 71 904 C70.34 904 69.68 904 69 904 C68.835 905.155 68.67 906.31 68.5 907.5 C64.937 923.496 53.959 937.37 43 949 C42.46 949.605 41.92 950.209 41.363 950.832 C21.671 972.012 -10.169 982.634 -38.35 983.849 C-40.567 983.917 -42.783 983.962 -45 984 C-45.686 984.021 -46.373 984.043 -47.08 984.065 C-48.99 984.111 -50.902 984.088 -52.812 984.062 C-53.891 984.053 -54.97 984.044 -56.082 984.035 C-59.918 982.675 -61.046 980.929 -62.989 977.435 C-64.796 973.084 -65.308 968.655 -65.812 964 C-65.933 963.034 -66.054 962.069 -66.178 961.074 C-66.469 958.718 -66.743 956.361 -67 954 C-67.33 954 -67.66 954 -68 954 C-68.212 948.808 -67.591 944.873 -66 940 C-66.66 939.67 -67.32 939.34 -68 939 C-67.67 938.67 -67.34 938.34 -67 938 C-66.774 936.683 -66.606 935.356 -66.465 934.027 C-66.378 933.209 -66.291 932.392 -66.201 931.549 C-66.114 930.687 -66.027 929.825 -65.938 928.938 C-65.847 928.103 -65.756 927.268 -65.662 926.408 C-65.25 922.432 -64.965 918.565 -65.066 914.566 C-65 911 -65 911 -63 908 C-62.468 906.664 -61.98 905.31 -61.527 903.945 C-61.268 903.165 -61.008 902.386 -60.74 901.582 C-60.475 900.771 -60.21 899.96 -59.938 899.125 C-59.669 898.322 -59.4 897.519 -59.123 896.691 C-55.463 885.611 -55.463 885.611 -57 881 C-56.27 880.811 -55.541 880.621 -54.789 880.426 C-51.04 878.509 -49.489 875.678 -47.375 872.188 C-38.542 858.303 -27.579 845.435 -14 836 C-16.203 833.703 -18.089 832.315 -21 831 C-23.649 829.676 -25.697 827.866 -28 826 C-29.568 824.782 -31.136 823.565 -32.705 822.348 C-49.309 809.425 -65.19 795.811 -78 779 C-78.398 778.484 -78.796 777.968 -79.206 777.436 C-89.127 764.472 -96.659 750.434 -102 735 C-102.99 735 -103.98 735 -105 735 C-104.918 733.701 -104.835 732.401 -104.75 731.062 C-104.717 725.2 -106.056 719.863 -107.577 714.242 C-108.857 709.351 -109.182 705.059 -109 700 C-112.083 701.199 -115.063 702.477 -118 704 C-118 703.34 -118 702.68 -118 702 C-118.844 702.217 -119.689 702.433 -120.559 702.656 C-141.485 707.208 -166.893 708.037 -187 700 C-187.752 699.7 -188.504 699.4 -189.278 699.091 C-198.052 695.473 -205.882 691.355 -213 685 C-213.732 684.42 -214.464 683.84 -215.219 683.242 C-224.61 675.556 -232.164 664.547 -236 653 C-236 651.68 -236 650.36 -236 649 C-236.388 648.987 -236.388 648.987 -238.352 648.922 C-246.157 648.512 -252.783 647.134 -260.199 644.742 C-263 644 -263 644 -265 645 C-265 644.01 -265 643.02 -265 642 C-265.874 641.742 -266.748 641.484 -267.648 641.219 C-271.03 639.989 -273.636 638.487 -276.625 636.5 C-281.724 633.129 -281.724 633.129 -284.129 632.004 C-286.39 630.791 -287.657 629.393 -289.312 627.438 C-289.913 626.732 -290.514 626.027 -291.133 625.301 C-293.624 622.231 -295.993 619.076 -298.324 615.883 C-300.088 613.901 -301.568 613.007 -304 612 C-303.67 611.01 -303.34 610.02 -303 609 C-303.926 606.773 -303.926 606.773 -305.312 604.375 C-305.537 603.977 -305.537 603.977 -306.676 601.961 C-308 600 -308 600 -310 599 C-310.852 596.453 -310.852 596.453 -311.625 593.25 C-311.885 592.203 -312.146 591.157 -312.414 590.078 C-312.948 587.274 -313.194 584.842 -313 582 C-312.67 581.67 -312.34 581.34 -312 581 C-312.116 579.329 -312.292 577.662 -312.5 576 C-312.708 574.338 -312.884 572.671 -313 571 C-312.67 570.67 -312.34 570.34 -312 570 C-311.576 567.713 -311.187 565.42 -310.812 563.125 C-309.716 556.682 -307.966 550.725 -305.812 544.562 C-302.756 535.627 -302.108 527.381 -303 518 C-303.33 517.34 -303.66 516.68 -304 516 C-304.108 515.085 -304.217 514.17 -304.328 513.227 C-305.11 509.472 -306.46 507.431 -308.75 504.375 C-309.425 503.455 -310.101 502.534 -310.797 501.586 C-313 499 -313 499 -315.766 496.789 C-316.503 496.199 -317.24 495.608 -318 495 C-318 494.34 -318 493.68 -318 493 C-319.168 491.346 -320.386 489.726 -321.625 488.125 C-326.445 481.636 -330.436 474.693 -333 467 C-333.66 467.33 -334.32 467.66 -335 468 C-336 463.125 -336 463.125 -336 462 C-336.151 461.194 -336.302 460.389 -336.457 459.559 C-341.363 427.403 -331.815 400.325 -312.944 374.581 C-308.69 368.856 -304.345 363.2 -299.926 357.602 C-298 355 -298 355 -296.98 352.961 C-296 351 -296 351 -294.152 348.75 C-291.501 345.362 -289.553 341.803 -287.562 338 C-287.171 337.255 -286.78 336.509 -286.377 335.741 C-277.568 318.66 -277.568 318.66 -278.383 313.645 C-278.586 313.102 -278.79 312.559 -279 312 C-278.01 312 -277.02 312 -276 312 C-273.894 301.246 -272.812 290.963 -273 280 C-272.34 280 -271.68 280 -271 280 C-269.847 273.658 -269.905 267.433 -270 261 C-269.34 261 -268.68 261 -268 261 C-268.084 259.784 -268.168 258.569 -268.254 257.316 C-268.357 255.732 -268.46 254.147 -268.562 252.562 C-268.619 251.76 -268.675 250.958 -268.732 250.131 C-268.862 248.089 -268.935 246.045 -269 244 C-268.67 243.67 -268.34 243.34 -268 243 C-267.551 239.726 -267.182 236.453 -266.838 233.166 C-266.351 228.876 -265.532 225.071 -264 221 C-264.66 221.33 -265.32 221.66 -266 222 C-265.67 222.66 -265.34 223.32 -265 224 C-269.56 224.37 -269.56 224.37 -271.562 222.688 C-272.037 222.131 -272.511 221.574 -273 221 C-274.306 219.964 -275.644 218.969 -277 218 C-278.011 217.278 -279.021 216.556 -280.062 215.812 C-283 214 -283 214 -286 214 C-286.66 213.67 -287.32 213.34 -288 213 C-288 212.01 -288 211.02 -288 210 C-289.137 208.527 -289.137 208.527 -290.688 206.938 C-299.592 196.938 -301.449 185.647 -301.254 172.656 C-300.912 167.731 -299.866 163.552 -298 159 C-297.872 158.664 -297.872 158.664 -297.227 156.965 C-292.767 146.675 -283.822 138.747 -273.855 133.973 C-267.658 131.549 -261.574 131.7 -255 132 C-255.046 131.201 -255.093 130.402 -255.141 129.578 C-255.547 117.202 -252.467 107.825 -245 98 C-244.278 96.969 -243.556 95.938 -242.812 94.875 C-236.161 87.249 -226.473 83.662 -217 81 C-217 80.67 -217 80.34 -217 80 C-212 80 -207 80 -202 80 C-202 80.66 -202 81.32 -202 82 C-198.862 82.97 -197.183 83.463 -194 83 C-191.479 81.098 -189.524 78.944 -187.406 76.602 C-182.451 71.244 -176.541 66.848 -170.668 62.539 C-170.393 62.337 -170.393 62.337 -169.003 61.314 C-167.454 60.183 -165.895 59.064 -164.336 57.945 C-162 56 -162 56 -161 53 C-160.641 52.948 -160.641 52.948 -158.822 52.687 C-155.675 51.921 -153.585 50.736 -150.852 49.008 C-149.858 48.391 -148.865 47.773 -147.842 47.137 C-146.78 46.473 -145.719 45.809 -144.625 45.125 C-100.237 17.999 -51.344 5.952 0 1 C0 0.67 0 0.34 0 0 Z M-272 283 C-272 285.31 -272 287.62 -272 290 C-271.67 290 -271.34 290 -271 290 C-271 287.69 -271 285.38 -271 283 C-271.33 283 -271.66 283 -272 283 Z M-302 523 C-301 525 -301 525 -301 525 Z M-311 588 C-310.67 590.31 -310.34 592.62 -310 595 C-309 592 -309 592 -309.938 589.812 C-310.288 589.214 -310.639 588.616 -311 588 Z M-309 595 C-308 598 -308 598 -308 598 Z M-104 729 C-103 732 -103 732 -103 732 Z M-55 883 C-54 885 -54 885 -54 885 Z " fill="#41250A" transform="translate(473,16)"/>
<path d="M0 0 C0.83 0.001 1.661 0.002 2.516 0.003 C48.905 0.116 96.397 6.976 137.688 29.188 C138.76 29.747 139.832 30.306 140.938 30.883 C148.173 34.712 148.173 34.712 150.945 37.273 C154.668 39.872 157.938 40.078 162.375 40.562 C198.369 45.442 230.524 68.382 252.812 96.375 C276.335 127.653 289.607 165.01 296.688 203.188 C296.853 204.081 297.019 204.975 297.19 205.896 C300.313 223.44 300.921 241.293 301.901 259.055 C304.203 300.157 313.401 331.037 338.616 363.557 C354.729 384.379 367.291 405.987 364.688 433.188 C362.071 448.355 354.32 459.609 344.902 471.292 C332.814 486.583 329.052 500.858 330.688 520.188 C331.585 525.059 333.289 529.631 335.007 534.262 C341.091 551.481 341.211 567.686 333.5 584.5 C323.52 602.525 306.623 612.93 287.312 618.5 C279.2 620.505 270.997 621.415 262.688 622.188 C262.584 622.467 262.584 622.467 262.059 623.883 C254.677 643.092 245.017 658.104 225.906 667.047 C213.056 672.57 200.473 674.732 186.5 674.625 C185.825 674.623 185.15 674.621 184.455 674.619 C170.655 674.551 158.322 672.87 145.688 667.188 C145.632 666.381 145.577 665.575 145.52 664.744 C145.265 661.058 145.008 657.373 144.75 653.688 C144.663 652.419 144.576 651.151 144.486 649.844 C144.047 643.595 143.557 637.392 142.688 631.188 C143.161 631.551 143.634 631.915 144.121 632.289 C146.296 633.942 148.487 635.569 150.688 637.188 C151.385 637.702 152.082 638.216 152.801 638.746 C165.109 647.409 177.776 650.51 192.688 649.188 C203.202 647.12 212.489 643.22 218.688 634.188 C223.491 623.797 223.877 614.909 219.938 604.102 C215.443 593.625 207.27 586.08 198.75 578.75 C189.428 570.701 181.627 561.937 174.196 552.167 C171.425 548.531 168.617 544.922 165.812 541.312 C165.223 540.553 164.633 539.793 164.025 539.01 C158.028 531.307 151.911 523.709 145.688 516.188 C145.19 515.585 144.693 514.982 144.181 514.36 C137.846 506.708 131.221 499.515 124.055 492.628 C122.565 491.183 121.121 489.689 119.688 488.188 C119.688 487.527 119.688 486.868 119.688 486.188 C119.988 486.108 119.988 486.108 121.51 485.704 C160.199 475.286 197.464 458.161 220.688 424.125 C221.12 423.493 221.552 422.861 221.997 422.21 C224.21 418.85 226.006 415.607 227.434 411.84 C231.482 401.373 231.482 401.373 235.678 399.118 C240.457 397.435 245.406 396.634 250.375 395.717 C263.573 392.695 273.66 382.672 280.647 371.623 C288.481 358.537 290.662 343.276 288.004 328.348 C284.542 315.346 278.876 304.177 266.931 297.155 C262.303 294.642 257.543 292.126 252.537 290.48 C250.688 289.188 250.688 289.188 250.113 286.511 C250.076 285.382 250.039 284.253 250 283.09 C249.944 281.826 249.887 280.562 249.829 279.259 C249.806 278.585 249.784 277.912 249.761 277.217 C249.637 273.675 249.44 270.137 249.238 266.598 C249.198 265.883 249.158 265.168 249.116 264.432 C246.584 222.532 246.584 222.532 237.688 209.188 C234.264 208.814 231.777 208.609 228.688 210.25 C226.405 214.672 229.101 221.472 230.062 226.188 C230.127 226.507 230.127 226.507 230.455 228.125 C230.864 230.146 231.275 232.167 231.688 234.188 C232.231 236.854 232.773 239.52 233.312 242.188 C233.552 243.363 233.792 244.539 234.039 245.75 C235.007 250.88 235.83 255.897 235.75 261.125 C235.741 261.897 235.732 262.669 235.723 263.465 C235.717 263.749 235.717 263.749 235.688 265.188 C204.55 254.504 180.337 227.39 166.078 198.559 C157.446 179.959 152.102 159.967 150.42 139.58 C149.751 131.963 149.751 131.963 147.688 129.188 C144.812 128.188 144.812 128.188 141.688 128.188 C136.935 131.586 135.275 137.187 133.062 142.375 C124.031 162.806 112.193 181.036 96.688 197.188 C96.212 197.7 95.736 198.212 95.246 198.739 C65.93 230.241 25.677 248.76 -17.297 250.406 C-32.946 250.788 -48.088 248.703 -63.312 245.188 C-63.312 244.528 -63.312 243.868 -63.312 243.188 C-62.453 242.714 -61.593 242.241 -60.707 241.754 C-42.622 231.686 -23.638 219.33 -10.207 203.383 C-8.874 201.838 -7.491 200.336 -6.074 198.867 C4.378 187.964 12.26 175.235 19.438 162 C19.868 161.223 20.299 160.445 20.742 159.645 C23.171 155.011 24.369 151.549 23.688 146.188 C21.688 144.188 21.688 144.188 18.25 143.812 C14.688 144.188 14.688 144.188 13.156 145.816 C11.416 148.626 10.029 151.508 8.625 154.5 C-1.246 174.803 -16.72 194.027 -34.312 208.188 C-35.304 209.005 -36.295 209.822 -37.316 210.664 C-79.738 245.175 -133.948 265.274 -186.625 277.688 C-187.355 277.86 -188.086 278.032 -188.839 278.209 C-195.958 279.875 -203.02 281.508 -210.312 282.188 C-210.361 281.405 -210.41 280.623 -210.461 279.816 C-210.498 279.31 -210.498 279.31 -210.688 276.75 C-210.722 276.245 -210.722 276.245 -210.898 273.691 C-211.035 272.865 -211.172 272.039 -211.312 271.188 C-214.141 269.773 -216.186 269.868 -219.312 270.188 C-222.793 273.495 -222.785 276.803 -223 281.438 C-223.066 282.701 -223.131 283.964 -223.199 285.266 C-223.237 286.23 -223.274 287.194 -223.312 288.188 C-224.424 288.6 -225.535 289.012 -226.68 289.438 C-240.46 294.717 -252.405 301.468 -258.816 315.473 C-265.409 332.133 -265.046 348.631 -258.312 365.188 C-251.621 379.712 -239.75 389.536 -225.105 395.426 C-222.312 396.188 -222.312 396.188 -218.738 396.355 C-210.797 396.91 -210.797 396.91 -207.312 399.188 C-202.939 404.629 -200.389 411.333 -197.537 417.65 C-194.917 423.08 -191.201 427.605 -187.312 432.188 C-186.607 433.031 -185.902 433.874 -185.176 434.742 C-182.957 437.3 -180.666 439.753 -178.312 442.188 C-177.489 443.049 -176.665 443.91 -175.816 444.797 C-155.68 464.562 -128.588 474.523 -102.312 483.188 C-102.312 486.188 -102.312 486.188 -104.097 488.281 C-104.92 489.075 -105.742 489.869 -106.59 490.688 C-107.497 491.576 -108.404 492.464 -109.338 493.379 C-110.308 494.316 -111.279 495.252 -112.25 496.188 C-119.471 503.173 -126.063 510.321 -132.312 518.188 C-133.284 519.347 -134.26 520.502 -135.246 521.648 C-140.143 527.348 -144.854 533.122 -149.406 539.101 C-161.781 555.311 -174.886 571.458 -190.438 584.75 C-199.667 592.805 -205.366 602.231 -206.551 614.695 C-206.806 623.699 -204.856 631.419 -199.188 638.562 C-191.61 646.464 -181.305 649.122 -170.688 649.562 C-153.929 649.2 -139.049 641.864 -127.312 630.188 C-125.98 632.853 -126.563 634.091 -127.18 636.988 C-128.431 643.428 -128.97 649.838 -129.438 656.375 C-129.524 657.518 -129.61 658.661 -129.699 659.838 C-129.909 662.621 -130.113 665.404 -130.312 668.188 C-132.226 668.823 -134.143 669.445 -136.062 670.062 C-137.13 670.411 -138.197 670.759 -139.297 671.117 C-163.659 678.076 -191.974 676.307 -214.312 664.188 C-228.903 655.142 -238.144 643.606 -243.312 627.188 C-245.261 621.239 -245.261 621.239 -246.312 620.188 C-248.203 619.992 -250.094 619.802 -251.988 619.644 C-273.401 617.795 -291.304 610.304 -305.449 593.676 C-315.172 580.578 -318.702 565.877 -317.07 549.801 C-315.637 541.422 -312.589 533.286 -309.945 525.227 C-306.383 513.742 -306.791 499.92 -311.773 488.996 C-315.535 482.132 -320.153 476.355 -325.25 470.438 C-338.625 454.538 -344.996 436.076 -343.312 415.188 C-339.402 390.852 -322.83 370.718 -308.566 351.48 C-285.823 320.591 -278.562 286.704 -274.312 249.188 C-273.983 249.847 -273.653 250.507 -273.312 251.188 C-271.594 252.152 -271.594 252.152 -269.312 253.188 C-268.436 253.601 -267.559 254.015 -266.656 254.441 C-265.718 254.873 -264.779 255.305 -263.812 255.75 C-262.874 256.184 -261.936 256.619 -260.969 257.066 C-252.841 260.497 -244.003 260.038 -235.727 257.227 C-226.247 253.146 -219.461 246.636 -215.312 237.188 C-212.951 238.314 -210.755 239.533 -208.527 240.914 C-197.713 247.178 -187.193 248.067 -174.973 245.48 C-163.823 241.806 -154.44 234.543 -149 224.062 C-148.396 222.79 -147.837 221.495 -147.312 220.188 C-146.955 219.307 -146.598 218.427 -146.23 217.52 C-145.063 213.283 -144.929 209.376 -144.938 205 C-144.938 204.159 -144.939 203.319 -144.94 202.453 C-145.089 194.594 -146.821 188.244 -150.949 181.523 C-152.312 179.188 -152.312 179.188 -152.312 177.188 C-150.773 175.926 -150.773 175.926 -148.688 174.5 C-139.755 167.982 -134.884 159.9 -132.312 149.188 C-130.935 136.783 -131.871 125.832 -139.262 115.449 C-145.014 108.479 -152.326 103.052 -161.312 101.188 C-164.893 100.942 -168.475 100.956 -172.062 100.938 C-173.027 100.917 -173.991 100.896 -174.984 100.875 C-181.154 100.841 -185.679 101.651 -191.312 104.188 C-191.35 103.896 -191.35 103.896 -191.539 102.422 C-193.047 93.02 -197.399 85.24 -202.312 77.188 C-194.027 69.295 -185.582 61.912 -176.312 55.188 C-175.722 54.756 -175.131 54.325 -174.522 53.88 C-123.596 16.989 -62.451 -0.092 0 0 Z " fill="#F88F37" transform="translate(493.3125,31.8125)"/>
<path d="M0 0 C1.456 2.713 2.403 5.203 3.078 8.203 C3.266 9.01 3.454 9.818 3.648 10.649 C3.846 11.508 4.045 12.366 4.25 13.25 C13.596 51.804 36.155 86.828 70.27 107.828 C78.827 112.917 87.851 117.104 97 121 C97.996 173.776 95.179 231.789 57.328 272.602 C27.321 303.515 -15.988 314.697 -57.25 321.25 C-58.193 321.401 -59.136 321.552 -60.107 321.708 C-81.045 324.822 -101.988 325.406 -123.125 325.375 C-123.802 325.375 -124.479 325.375 -125.176 325.375 C-147.669 325.371 -169.754 324.464 -192 321 C-193.257 320.813 -194.514 320.626 -195.809 320.433 C-241.812 313.452 -292.137 298.659 -321.125 259.562 C-340.055 232.592 -345.217 200.131 -348.25 168.062 C-348.29 167.65 -348.29 167.65 -348.493 165.562 C-349.282 156.064 -349.063 146.523 -349 137 C-348.398 136.865 -348.398 136.865 -345.349 136.181 C-308.033 127.757 -270.431 118.131 -235.969 101.051 C-234.986 100.572 -234.003 100.093 -232.99 99.6 C-231.149 98.692 -229.322 97.755 -227.514 96.783 C-222.645 94.374 -219.668 93.672 -214.352 95.109 C-212.561 95.72 -210.776 96.349 -209 97 C-207.656 97.383 -206.307 97.751 -204.953 98.098 C-202.493 98.739 -200.035 99.384 -197.578 100.035 C-185.936 102.692 -174.279 103.363 -162.375 103.312 C-161.682 103.31 -160.988 103.308 -160.274 103.306 C-114.071 103.077 -73.869 84.82 -40 54 C-39.482 53.529 -38.964 53.057 -38.43 52.572 C-25.742 40.854 -15.622 26.91 -7 12 C-6.321 10.843 -5.641 9.687 -4.961 8.531 C-3.297 5.693 -1.643 2.85 0 0 Z " fill="#FED0A1" transform="translate(633,191)"/>
<path d="M0 0 C0.911 0.003 1.823 0.006 2.762 0.009 C3.722 0.008 4.683 0.007 5.673 0.006 C8.917 0.005 12.162 0.01 15.406 0.016 C17.721 0.016 20.037 0.016 22.352 0.015 C28.66 0.015 34.967 0.021 41.275 0.028 C47.859 0.034 54.442 0.035 61.026 0.036 C72.084 0.038 83.141 0.045 94.199 0.054 C105.59 0.063 116.981 0.07 128.372 0.074 C128.723 0.074 128.723 0.074 130.499 0.075 C134.019 0.076 137.539 0.078 141.059 0.079 C170.279 0.089 199.5 0.107 228.72 0.129 C230.178 5.188 231.379 10.138 232.283 15.317 C232.408 15.995 232.534 16.674 232.664 17.373 C240.422 61.282 231.302 106.562 205.72 143.129 C201.621 148.658 197.199 153.907 192.72 159.129 C191.626 160.417 190.532 161.704 189.439 162.992 C187.459 165.317 185.472 167.636 183.474 169.945 C183.03 170.462 182.586 170.978 182.129 171.509 C181.117 172.673 180.091 173.826 179.058 174.971 C178.512 175.584 177.966 176.197 177.404 176.828 C176.903 177.382 176.402 177.936 175.886 178.507 C174.72 180.129 174.72 180.129 174.22 183.379 C174.72 186.129 174.72 186.129 176.72 189.129 C179.476 189.574 179.476 189.574 182.994 189.684 C183.639 189.711 183.639 189.711 186.904 189.849 C187.588 189.873 188.272 189.898 188.977 189.923 C222.332 191.202 250.903 202.286 274.533 226.633 C285.452 239.093 296.141 256.112 295.72 273.129 C271.529 287.72 244.285 294.747 216.263 288.038 C192.598 281.753 170.005 267.679 157.064 246.406 C156.231 244.879 155.424 243.336 154.658 241.774 C153.72 240.129 153.72 240.129 151.72 239.129 C146.451 238.681 146.451 238.681 144.084 240.133 C141.957 243.246 142.089 246.659 141.845 250.317 C140.109 269.315 132.769 288.017 119.72 302.129 C119.496 302.38 119.496 302.38 118.358 303.647 C102.336 321.373 80.435 332.765 56.72 336.129 C54.776 336.206 52.83 336.237 50.884 336.227 C49.821 336.224 48.757 336.22 47.662 336.217 C46.567 336.209 45.473 336.2 44.345 336.192 C43.228 336.187 42.11 336.183 40.959 336.178 C38.212 336.166 35.466 336.15 32.72 336.129 C27.243 305.557 31.579 272.705 48.877 246.368 C51.618 242.446 54.616 238.767 57.72 235.129 C58.152 234.614 58.584 234.098 59.029 233.567 C66.868 224.283 75.745 216.241 86.533 210.504 C89.72 208.129 89.72 208.129 90.908 204.317 C90.579 201.342 89.871 200.279 87.732 198.153 C84.812 195.981 81.815 194.043 78.72 192.129 C76.424 190.677 74.135 189.215 71.845 187.754 C71.55 187.567 71.55 187.567 70.058 186.621 C63.635 182.512 57.651 177.913 51.72 173.129 C51.461 172.922 51.461 172.922 50.148 171.873 C17.71 145.817 -5.93 112.067 -11.834 70.195 C-12.547 63.298 -12.612 56.369 -12.655 49.442 C-12.657 49.074 -12.657 49.074 -12.671 47.216 C-12.721 31.658 -11.002 16.266 -7.28 1.129 C-5.37 -0.78 -2.541 0.006 0 0 Z " fill="#F999B8" transform="translate(390.27976328134537,647.8709186911583)"/>
<path d="M0 0 C0.838 0.134 1.677 0.267 2.54 0.405 C4.334 0.693 6.126 0.99 7.916 1.297 C12.574 2.094 17.245 2.814 21.914 3.543 C22.83 3.688 23.746 3.833 24.689 3.982 C31.695 5.079 38.689 5.926 45.762 6.461 C46.174 6.493 46.174 6.493 48.263 6.653 C50.97 6.841 53.677 6.997 56.387 7.148 C57.047 7.188 57.707 7.228 58.388 7.269 C70.431 7.997 82.446 8.388 94.512 8.398 C94.939 8.399 94.939 8.399 97.102 8.401 C122.036 8.382 146.506 5.96 171.048 1.468 C177.619 0.57 177.619 0.57 181.254 3.309 C182.269 4.263 183.271 5.231 184.262 6.211 C184.79 6.715 185.318 7.22 185.862 7.74 C187.382 9.198 188.886 10.671 190.387 12.148 C191.076 12.811 191.766 13.474 192.477 14.156 C196.698 18.273 200.548 22.677 204.387 27.148 C205.282 28.168 206.178 29.188 207.074 30.207 C213.562 37.626 219.589 45.285 225.453 53.203 C233.246 63.722 241.51 73.801 250.107 83.669 C251.178 84.907 252.23 86.161 253.277 87.418 C259.644 95.005 267.217 101.525 274.824 107.836 C279.386 111.78 282.482 116.434 284.387 122.148 C285.361 136.181 285.361 136.181 281.387 141.148 C272.836 147.775 263.857 148.073 253.387 147.148 C237.017 143.735 224.628 131.274 215.24 118.151 C212.307 113.399 210.909 108.521 209.512 103.148 C209.196 102.017 208.881 100.886 208.556 99.72 C207.864 97.237 207.182 94.75 206.508 92.261 C204.633 85.346 202.651 78.46 200.683 71.571 C200.02 69.241 199.365 66.909 198.711 64.576 C198.304 63.133 197.896 61.689 197.488 60.246 C197.305 59.587 197.122 58.928 196.934 58.248 C196.024 55.047 195.135 51.997 193.387 49.148 C190.624 47.767 188.439 47.958 185.387 48.148 C183.387 50.148 183.387 50.148 183.34 52.18 C183.438 52.994 183.536 53.809 183.637 54.648 C183.681 55.045 183.681 55.045 183.902 57.055 C184.338 59.838 184.86 62.581 185.417 65.342 C185.508 65.792 185.508 65.792 185.966 68.07 C186.105 68.756 186.244 69.442 186.387 70.148 C143.566 70.23 100.75 70.026 57.93 69.703 C49.658 69.641 41.386 69.581 33.114 69.522 C16.205 69.4 -0.704 69.275 -17.613 69.148 C-17.407 68.407 -17.2 67.665 -16.988 66.9 C-16.853 66.41 -16.853 66.41 -16.168 63.93 C-15.9 62.961 -15.631 61.992 -15.355 60.994 C-12.908 51.604 -12.908 51.604 -14.613 48.086 C-18.049 46.475 -20.065 46.966 -23.613 48.148 C-26.975 52.869 -28.685 58.841 -30.418 64.32 C-30.662 65.077 -30.907 65.833 -31.159 66.612 C-31.675 68.215 -32.189 69.819 -32.7 71.424 C-33.498 73.928 -34.306 76.429 -35.117 78.93 C-37.605 86.641 -39.991 94.349 -42.086 102.178 C-44.772 112.094 -48.93 119.36 -55.613 127.148 C-56.285 127.936 -56.956 128.724 -57.648 129.535 C-66.734 139.33 -79.572 146.198 -92.973 147.352 C-100.303 147.495 -106.195 146.229 -112.488 142.398 C-116.669 137.972 -117.803 133.772 -118.113 127.836 C-117.723 117.248 -111.768 110.631 -104.387 103.68 C-101.462 101.011 -98.506 98.39 -95.504 95.809 C-88.942 90.046 -83.381 83.612 -77.939 76.8 C-76.472 74.972 -74.989 73.157 -73.504 71.344 C-68.408 65.116 -63.356 58.869 -58.488 52.461 C-47.403 37.955 -35.113 24.578 -22.238 11.648 C-21.465 10.87 -20.691 10.092 -19.894 9.29 C-19.154 8.553 -18.415 7.815 -17.652 7.055 C-16.994 6.398 -16.337 5.741 -15.659 5.064 C-14.984 4.432 -14.309 3.8 -13.613 3.148 C-12.883 2.39 -12.152 1.632 -11.399 0.851 C-7.463 -1.555 -4.327 -0.792 0 0 Z " fill="#FDD0A2" transform="translate(417.61328125,520.8515625)"/>
<path d="M0 0 C5.296 3.748 9.834 9.075 11.191 15.551 C11.702 23.216 11.244 30.754 10.117 38.344 C10.191 40.551 10.191 40.551 11.477 42.301 C13.191 43.551 13.191 43.551 16.316 44.363 C21.727 43.229 23.482 40.157 26.961 36.043 C31.148 31.364 34.514 29.827 40.746 29.184 C50.036 28.871 55.807 29.88 62.879 35.801 C69.312 43.45 71.599 49.69 71.465 59.711 C70.699 67.665 66.14 74.388 60.191 79.551 C55.174 82.559 49.502 84.209 43.941 85.938 C42.191 86.551 42.191 86.551 41.191 87.551 C40.816 90.426 40.816 90.426 41.191 93.551 C43.254 95.051 43.254 95.051 46.191 96.551 C52.295 100.965 56.704 105.948 58.191 113.551 C59.052 123.043 57.808 132.13 51.941 139.926 C44.061 147.448 36.77 149.031 26.152 148.82 C18.934 148.329 15.275 145.957 10.441 140.738 C8.29 138.145 6.633 135.621 5.129 132.613 C3.191 129.551 3.191 129.551 -0.059 128.613 C-0.966 128.593 -1.874 128.572 -2.809 128.551 C-5.18 132.134 -6.336 135.164 -7.184 139.363 C-9.272 148.091 -12.643 153.21 -19.941 158.422 C-25.567 161.823 -32.49 161.143 -38.809 160.551 C-45.765 158.406 -50.267 153.782 -53.809 147.551 C-56.531 140.992 -57.272 133.345 -54.688 126.645 C-53.783 124.78 -52.868 122.92 -51.941 121.066 C-50.325 117.476 -50.005 115.408 -50.809 111.551 C-53.819 108.437 -56.884 108.409 -60.996 108.176 C-69.714 107.566 -76.471 103.765 -82.344 97.367 C-87.635 90.805 -90.401 83.239 -90.117 74.75 C-88.92 66.217 -85.231 59.249 -78.809 53.551 C-71.161 48.005 -65.356 46.536 -55.809 47.551 C-52.141 48.956 -48.614 50.745 -45.809 53.551 C-39.089 52.831 -39.089 52.831 -37.809 51.551 C-37.264 46.211 -38.262 42.975 -40.836 38.445 C-44.129 32.03 -43.672 23.67 -42.23 16.793 C-39.576 9.094 -34.352 3.31 -27.422 -0.898 C-18.258 -5.104 -8.775 -5 0 0 Z " fill="#F99CBA" transform="translate(276.80859375,116.44921875)"/>
<path d="M0 0 C69.96 0 139.92 0 212 0 C220 32 220 32 220 34 C144.43 34 68.86 34 -9 34 C-7 23 -7 23 0 0 Z " fill="#F899B8" transform="translate(396,602)"/>
<path d="M0 0 C7.723 5.352 12.065 14.995 14 24 C14.81 37.28 14.464 49.594 5.562 60.32 C0.524 65.737 -4.773 69.423 -12.266 70.25 C-20.299 70.469 -26.517 68.476 -32.781 63.402 C-42.035 53.383 -43.565 41.159 -43.332 28.137 C-42.863 17.592 -38.741 9.511 -31.387 2.035 C-21.912 -6.044 -10.644 -5.995 0 0 Z " fill="#442709" transform="translate(640,347)"/>
<path d="M0 0 C3.297 1.996 5.891 4.412 8.438 7.312 C9.118 8.034 9.799 8.756 10.5 9.5 C17.308 19.383 18.488 30.643 17.438 42.312 C15.096 53.509 9.873 62.701 0.438 69.312 C-5.754 72.393 -13.268 72.443 -19.906 70.695 C-28.716 66.745 -34 59.495 -37.652 50.828 C-41.739 39.533 -41.121 24.924 -36.176 14.086 C-32.516 7.795 -27.807 1.838 -20.961 -1.098 C-14.183 -2.764 -6.419 -2.984 0 0 Z " fill="#442709" transform="translate(403.5625,345.6875)"/>
<path d="M0 0 C6.926 4.039 12.872 10.254 15.223 18.043 C16.93 26.611 14.966 34.416 10.527 41.918 C6.291 47.505 -0.585 51.569 -7.375 53.062 C-16.313 54.075 -24.012 51.904 -31.188 46.438 C-35.976 42.011 -39.896 34.65 -40.578 28.117 C-40.755 19.89 -39.082 13.743 -33.812 7.312 C-24.705 -2.125 -12.401 -5.475 0 0 Z " fill="#3D2109" transform="translate(282.375,175.9375)"/>
<path d="M0 0 C0.07 1.106 0.14 2.212 0.212 3.351 C1.89 29.521 3.861 55.421 10 81 C-2.226 79.567 -10.432 73.195 -18.598 64.25 C-26.778 53.843 -28.157 39.756 -27 27 C-24.997 17.591 -20.359 10.086 -12.438 4.625 C-8.453 2.082 -4.801 0 0 0 Z " fill="#FCD3A6" transform="translate(270,335)"/>
<path d="M0 0 C10.212 3.255 17.356 9.95 22.254 19.426 C27.031 30.66 26.311 43.683 21.848 54.895 C15.912 67.966 7.001 74.724 -6 80 C-8.922 80.688 -8.922 80.688 -11 81 C-10.758 80.074 -10.515 79.149 -10.266 78.195 C-6.918 64.946 -4.903 51.523 -3 38 C-2.82 36.743 -2.639 35.486 -2.453 34.191 C-1.661 27.657 -1.356 21.067 -0.938 14.5 C-0.846 13.091 -0.754 11.682 -0.662 10.273 C-0.439 6.849 -0.219 3.425 0 0 Z " fill="#FCD3A6" transform="translate(744,336)"/>
<path d="M0 0 C3.485 0.68 4.572 1.552 6.562 4.5 C7.328 8.674 7.505 10.937 5.305 14.586 C-1.059 22.311 -9.454 28.023 -19.438 29.5 C-34.648 30.735 -47.207 29.348 -59.438 19.5 C-62.59 16.656 -64.265 14.047 -65.562 9.938 C-65.438 6.5 -65.438 6.5 -63.375 3.5 C-60.438 1.5 -60.438 1.5 -57.375 1.375 C-54.438 2.5 -54.438 2.5 -52.633 4.867 C-50.114 7.888 -47.915 9.083 -44.375 10.75 C-43.332 11.25 -42.289 11.75 -41.215 12.266 C-33.58 15.659 -24.925 15.786 -17.062 12.875 C-11.66 10.398 -7.182 7.049 -3.812 2.125 C-2.438 0.5 -2.438 0.5 0 0 Z " fill="#3E2409" transform="translate(538.4375,429.5)"/>
<path d="M0 0 C4.907 2.32 7.811 5.718 11 10 C12.752 15.257 13.105 21.123 11.094 26.359 C7.934 31.746 3.984 35.005 -2 37 C-8.338 37.537 -12.739 36.687 -18 33 C-22.622 28.516 -24.174 25.136 -24.312 18.75 C-24.258 13.272 -23.899 10.104 -20 6 C-13.499 -0.053 -8.799 -0.819 0 0 Z " fill="#F7953B" transform="translate(276,183)"/>
<path d="M0 0 C0.66 0 1.32 0 2 0 C2.33 1.65 2.66 3.3 3 5 C-72.57 5 -148.14 5 -226 5 C-226 4.34 -226 3.68 -226 3 C-151.09 3 -76.18 3 1 3 C0.67 2.01 0.34 1.02 0 0 Z " fill="#E8AABA" transform="translate(613,631)"/>
<path d="M0 0 C0.33 0.165 0.33 0.165 2 1 C2 1.99 2 2.98 2 4 C-40.673 4.081 -83.34 3.879 -126.011 3.555 C-134.223 3.492 -142.434 3.433 -150.646 3.373 C-167.431 3.252 -184.215 3.127 -201 3 C-200.67 2.34 -200.34 1.68 -200 1 C-160.698 0.894 -121.399 1.175 -82.098 1.445 C-73.12 1.507 -64.142 1.567 -55.164 1.627 C-36.776 1.749 -18.388 1.874 0 2 C0 1.34 0 0.68 0 0 Z " fill="#F6EBD3" transform="translate(602,587)"/>
<path d="M0 0 C0.66 0 1.32 0 2 0 C3.414 2.639 4.372 5.071 5 8 C4.34 7.67 3.68 7.34 3 7 C3 6.34 3 5.68 3 5 C2.01 5.33 1.02 5.66 0 6 C0 4.02 0 2.04 0 0 Z " fill="#905932" transform="translate(376,768)"/>
<path d="M0 0 C1.534 3.069 0.55 5.701 0 9 C-0.33 9 -0.66 9 -1 9 C-1.098 2.848 -1.098 2.848 -1 1 C-0.67 0.67 -0.34 0.34 0 0 Z " fill="#9C6333" transform="translate(161,576)"/>
<path d="M0 0 C1.32 1.32 2.64 2.64 4 4 C3.34 4.66 2.68 5.32 2 6 C1.34 4.02 0.68 2.04 0 0 Z " fill="#8F5732" transform="translate(400,802)"/>
<path d="M0 0 C0.33 0 0.66 0 1 0 C1 2.97 1 5.94 1 9 C0.67 9 0.34 9 0 9 C0 6.03 0 3.06 0 0 Z " fill="#8F5630" transform="translate(216,136)"/>
<path d="M0 0 C0.99 0.99 1.98 1.98 3 3 C1.68 3.33 0.36 3.66 -1 4 C-0.67 2.68 -0.34 1.36 0 0 Z " fill="#8E5732" transform="translate(409,812)"/>
<path d="M0 0 C0.99 0 1.98 0 3 0 C3 0.99 3 1.98 3 3 C2.01 2.67 1.02 2.34 0 2 C0 1.34 0 0.68 0 0 Z " fill="#9E6335" transform="translate(360,717)"/>
<path d="M0 0 C0.99 0 1.98 0 3 0 C3 1.65 3 3.3 3 5 C1.5 3.625 1.5 3.625 0 2 C0 1.34 0 0.68 0 0 Z " fill="#996433" transform="translate(200,282)"/>
<path d="M0 0 C1.65 0 3.3 0 5 0 C4.34 0.66 3.68 1.32 3 2 C2.01 2 1.02 2 0 2 C0 1.34 0 0.68 0 0 Z " fill="#925B2F" transform="translate(250,96)"/>
<path d="M0 0 C0.99 0.165 0.99 0.165 6 1 C5.01 1.33 4.02 1.66 3 2 C2.01 1.34 1.02 0.68 0 0 Z " fill="#9F633A" transform="translate(599,950)"/>
<path d="M0 0 C0.99 0.33 1.98 0.66 3 1 C2.01 1.99 1.02 2.98 0 4 C0 2.68 0 1.36 0 0 Z " fill="#9D612E" transform="translate(376,32)"/>
<path d="M0 0 C0.66 0.66 1.32 1.32 2 2 C1.67 2.495 1.67 2.495 0 5 C0 3.35 0 1.7 0 0 Z " fill="#8F5A37" transform="translate(411,912)"/>
<path d="M0 0 C0.66 0.33 1.32 0.66 2 1 C1.67 1.66 1.34 2.32 1 3 C0.34 3 -0.32 3 -1 3 C-0.67 2.01 -0.34 1.02 0 0 Z " fill="#996434" transform="translate(185,344)"/>
<path d="M0 0 C0.33 0 0.66 0 1 0 C1 1.98 1 3.96 1 6 C0.67 6 0.34 6 0 6 C0 4.02 0 2.04 0 0 Z " fill="#9F6533" transform="translate(201,288)"/>
<path d="M0 0 C0.66 1.32 1.32 2.64 2 4 C1.67 4.165 1.67 4.165 0 5 C0 3.35 0 1.7 0 0 Z " fill="#8C5830" transform="translate(224,112)"/>
<path d="M0 0 C0.825 0.165 0.825 0.165 5 1 C4.67 1.165 4.67 1.165 3 2 C2.01 1.34 1.02 0.68 0 0 Z " fill="#935A2C" transform="translate(274,97)"/>
<path d="M0 0 C0.99 0.99 1.98 1.98 3 3 C2.01 2.67 1.02 2.34 0 2 C0 1.34 0 0.68 0 0 Z " fill="#915734" transform="translate(553,924)"/>
<path d="M0 0 C0.33 1.32 0.66 2.64 1 4 C0.34 3.01 -0.32 2.02 -1 1 C-0.67 0.67 -0.34 0.34 0 0 Z " fill="#8F5837" transform="translate(409,920)"/>
<path d="M0 0 C0.66 0.66 1.32 1.32 2 2 C1.34 2.66 0.68 3.32 0 4 C0 2.68 0 1.36 0 0 Z " fill="#8B5933" transform="translate(702,916)"/>
<path d="M0 0 C0.495 0.33 0.495 0.33 3 2 C1.68 1.67 0.36 1.34 -1 1 C-0.67 0.67 -0.34 0.34 0 0 Z " fill="#955B36" transform="translate(611,824)"/>
<path d="M0 0 C0.33 0 0.66 0 1 0 C1 1.65 1 3.3 1 5 C0.67 5 0.34 5 0 5 C0 3.35 0 1.7 0 0 Z " fill="#A06637" transform="translate(639,720)"/>
<path d="M0 0 C1.32 0.33 2.64 0.66 4 1 C3.01 1.33 2.02 1.66 1 2 C0.67 1.34 0.34 0.68 0 0 Z " fill="#99602F" transform="translate(288,718)"/>
<path d="M0 0 C0.99 0.33 1.98 0.66 3 1 C2.01 1.33 1.02 1.66 0 2 C0 1.34 0 0.68 0 0 Z " fill="#A56738" transform="translate(640,717)"/>
<path d="M0 0 C0.66 1.32 1.32 2.64 2 4 C1.34 3.67 0.68 3.34 0 3 C0 2.01 0 1.02 0 0 Z " fill="#975F30" transform="translate(240,678)"/>
<path d="M0 0 C0.33 0 0.66 0 1 0 C1 1.65 1 3.3 1 5 C0.67 5 0.34 5 0 5 C0 3.35 0 1.7 0 0 Z " fill="#996233" transform="translate(169,544)"/>
<path d="M0 0 C0.33 0.165 0.33 0.165 2 1 C1.67 1.495 1.67 1.495 0 4 C0 2.68 0 1.36 0 0 Z " fill="#9C6435" transform="translate(136,432)"/>
<path d="M0 0 C0.99 0.99 1.98 1.98 3 3 C2.01 2.67 1.02 2.34 0 2 C0 1.34 0 0.68 0 0 Z " fill="#915B32" transform="translate(188,229)"/>
<path d="M0 0 C0.66 0.33 1.32 0.66 2 1 C1.67 1.66 1.34 2.32 1 3 C0.34 2.34 -0.32 1.68 -1 1 C-0.67 0.67 -0.34 0.34 0 0 Z " fill="#905A33" transform="translate(178,219)"/>
<path d="M0 0 C1.65 0 3.3 0 5 0 C5 0.33 5 0.66 5 1 C3.35 1 1.7 1 0 1 C0 0.67 0 0.34 0 0 Z " fill="#A4652F" transform="translate(466,16)"/>
<path d="M0 0 C0.495 0.33 0.495 0.33 3 2 C2.01 2 1.02 2 0 2 C0 1.34 0 0.68 0 0 Z " fill="#9B5F38" transform="translate(592,947)"/>
<path d="M0 0 C0.99 0.33 1.98 0.66 3 1 C2.01 1.33 1.02 1.66 0 2 C0 1.34 0 0.68 0 0 Z " fill="#905634" transform="translate(450,856)"/>
<path d="M0 0 C0.66 0.33 1.32 0.66 2 1 C1.01 1 0.02 1 -1 1 C-0.67 0.67 -0.34 0.34 0 0 Z " fill="#945C36" transform="translate(635,832)"/>
<path d="M0 0 C0.66 0 1.32 0 2 0 C1.67 0.99 1.34 1.98 1 3 C0.67 2.01 0.34 1.02 0 0 Z " fill="#8F5832" transform="translate(394,796)"/>
<path d="M0 0 C0.66 0 1.32 0 2 0 C1.67 0.99 1.34 1.98 1 3 C0.67 2.01 0.34 1.02 0 0 Z " fill="#935C33" transform="translate(370,755)"/>
<path d="M0 0 C0.99 0 1.98 0 3 0 C2.67 0.66 2.34 1.32 2 2 C1.34 1.34 0.68 0.68 0 0 Z " fill="#A26535" transform="translate(643,718)"/>
<path d="M0 0 C0.33 0.165 0.33 0.165 2 1 C1.67 1.66 1.34 2.32 1 3 C0.67 2.01 0.34 1.02 0 0 Z " fill="#955E2E" transform="translate(244,685)"/>
<path d="M0 0 C0.33 0.165 0.33 0.165 2 1 C1.67 1.66 1.34 2.32 1 3 C0.67 2.01 0.34 1.02 0 0 Z " fill="#976130" transform="translate(242,682)"/>
<path d="M0 0 C0.33 0.495 0.33 0.495 2 3 C1.34 3 0.68 3 0 3 C0 2.01 0 1.02 0 0 Z " fill="#9B6130" transform="translate(236,669)"/>
<path d="M0 0 C0.66 0.66 1.32 1.32 2 2 C1.01 1.67 0.02 1.34 -1 1 C-0.67 0.67 -0.34 0.34 0 0 Z " fill="#955E2F" transform="translate(177,637)"/>
<path d="M0 0 C1 4 1 4 1 4 Z " fill="#9E6634" transform="translate(847,603)"/>
<path d="M0 0 C0 3 0 3 0 3 Z " fill="#9E6533" transform="translate(839,542)"/>
<path d="M0 0 C1 4 1 4 1 4 Z " fill="#9A6331" transform="translate(169,535)"/>
<path d="M0 0 C0.33 0.165 0.33 0.165 2 1 C1.67 1.66 1.34 2.32 1 3 C0.67 2.01 0.34 1.02 0 0 Z " fill="#976130" transform="translate(146,498)"/>
<path d="M0 0 C0.33 0.165 0.33 0.165 2 1 C1.34 1.66 0.68 2.32 0 3 C0 2.01 0 1.02 0 0 Z " fill="#945F31" transform="translate(146,408)"/>
<path d="M0 0 C1 4 1 4 1 4 Z " fill="#976032" transform="translate(203,271)"/>
<path d="M0 0 C0.33 0.165 0.33 0.165 2 1 C1.67 1.66 1.34 2.32 1 3 C0.67 2.01 0.34 1.02 0 0 Z " fill="#8E5933" transform="translate(176,216)"/>
<path d="M0 0 C1 4 1 4 1 4 Z " fill="#8C5A34" transform="translate(170,195)"/>
<path d="M0 0 C0.99 0.33 1.98 0.66 3 1 C2.01 1.33 1.02 1.66 0 2 C0 1.34 0 0.68 0 0 Z " fill="#875531" transform="translate(186,152)"/>
<path d="M0 0 C4 1 4 1 4 1 Z " fill="#935A31" transform="translate(213,146)"/>
<path d="M0 0 C4 1 4 1 4 1 Z " fill="#8B572F" transform="translate(207,146)"/>
<path d="M0 0 C0.33 0.165 0.33 0.165 2 1 C1.67 1.66 1.34 2.32 1 3 C0.67 2.01 0.34 1.02 0 0 Z " fill="#975E2D" transform="translate(313,65)"/>
<path d="M0 0 C4 1 4 1 4 1 Z " fill="#985E2C" transform="translate(662,56)"/>
<path d="M0 0 C4 1 4 1 4 1 Z " fill="#9E612E" transform="translate(585,26)"/>
<path d="M0 0 C3 1 3 1 3 1 Z " fill="#955B35" transform="translate(457,997)"/>
<path d="" fill="#965C37" transform="translate(0,0)"/>
<path d="" fill="#8B5733" transform="translate(0,0)"/>
<path d="M0 0 C0.66 0.66 1.32 1.32 2 2 C1.34 2 0.68 2 0 2 C0 1.34 0 0.68 0 0 Z " fill="#9B6039" transform="translate(595,949)"/>
<path d="" fill="#8F5632" transform="translate(0,0)"/>
<path d="M0 0 C0.66 0.66 1.32 1.32 2 2 C1.34 2 0.68 2 0 2 C0 1.34 0 0.68 0 0 Z " fill="#915733" transform="translate(388,787)"/>
<path d="M0 0 C0.66 0.66 1.32 1.32 2 2 C1.34 2 0.68 2 0 2 C0 1.34 0 0.68 0 0 Z " fill="#945E34" transform="translate(372,758)"/>
<path d="" fill="#9B6334" transform="translate(0,0)"/>
<path d="" fill="#9B6233" transform="translate(0,0)"/>
<path d="M0 0 C0.33 0.165 0.33 0.165 2 1 C1.67 1.165 1.67 1.165 0 2 C0 1.34 0 0.68 0 0 Z " fill="#945E2E" transform="translate(266,707)"/>
<path d="M0 0 C0.66 0.66 1.32 1.32 2 2 C1.34 2 0.68 2 0 2 C0 1.34 0 0.68 0 0 Z " fill="#905A2D" transform="translate(250,693)"/>
<path d="M0 0 C0.66 0.66 1.32 1.32 2 2 C1.34 2 0.68 2 0 2 C0 1.34 0 0.68 0 0 Z " fill="#945A2D" transform="translate(248,690)"/>
<path d="M0 0 C0.33 0.165 0.33 0.165 2 1 C1.67 1.165 1.67 1.165 0 2 C0 1.34 0 0.68 0 0 Z " fill="#9F6331" transform="translate(796,661)"/>
<path d="M0 0 C3 1 3 1 3 1 Z " fill="#975D2D" transform="translate(210,661)"/>
<path d="M0 0 C0.33 0.165 0.33 0.165 2 1 C1.67 1.165 1.67 1.165 0 2 C0 1.34 0 0.68 0 0 Z " fill="#915C2D" transform="translate(193,652)"/>
<path d="" fill="#945D2D" transform="translate(0,0)"/>
<path d="M0 0 C0.33 0.66 0.66 1.32 1 2 C0.34 1.67 -0.32 1.34 -1 1 C-0.67 0.67 -0.34 0.34 0 0 Z " fill="#915F30" transform="translate(170,630)"/>
<path d="" fill="#9B5F31" transform="translate(0,0)"/>
<path d="M0 0 C0.33 0.66 0.66 1.32 1 2 C0.34 1.67 -0.32 1.34 -1 1 C-0.67 0.67 -0.34 0.34 0 0 Z " fill="#9C6433" transform="translate(868,486)"/>
<path d="M0 0 C0.33 0.66 0.66 1.32 1 2 C0.34 1.67 -0.32 1.34 -1 1 C-0.67 0.67 -0.34 0.34 0 0 Z " fill="#996231" transform="translate(140,486)"/>
<path d="M0 0 C3 1 3 1 3 1 Z " fill="#986131" transform="translate(177,360)"/>
<path d="" fill="#945E31" transform="translate(0,0)"/>
<path d="" fill="#955E32" transform="translate(0,0)"/>
<path d="" fill="#9C6334" transform="translate(0,0)"/>
<path d="" fill="#8D5C34" transform="translate(0,0)"/>
<path d="M0 0 C0.66 0 1.32 0 2 0 C1.67 0.66 1.34 1.32 1 2 C0.67 1.34 0.34 0.68 0 0 Z " fill="#965F2D" transform="translate(746,104)"/>
<path d="M0 0 C0.33 0.165 0.33 0.165 2 1 C1.67 1.165 1.67 1.165 0 2 C0 1.34 0 0.68 0 0 Z " fill="#8C582F" transform="translate(235,104)"/>
<path d="M0 0 C0.66 0 1.32 0 2 0 C1.67 0.66 1.34 1.32 1 2 C0.67 1.34 0.34 0.68 0 0 Z " fill="#965F2E" transform="translate(742,100)"/>
<path d="M0 0 C3 1 3 1 3 1 Z " fill="#985C2E" transform="translate(717,80)"/>
<path d="M0 0 C0.66 0 1.32 0 2 0 C1.67 0.66 1.34 1.32 1 2 C0.67 1.34 0.34 0.68 0 0 Z " fill="#995F2B" transform="translate(693,66)"/>
<path d="M0 0 C0.33 0.66 0.66 1.32 1 2 C0.34 1.67 -0.32 1.34 -1 1 C-0.67 0.67 -0.34 0.34 0 0 Z " fill="#98602F" transform="translate(316,64)"/>
<path d="" fill="#9B612F" transform="translate(0,0)"/>
<path d="M0 0 C3 1 3 1 3 1 Z " fill="#9D622F" transform="translate(589,27)"/>
<path d="M0 0 C0.66 0.66 1.32 1.32 2 2 C1.34 2 0.68 2 0 2 C0 1.34 0 0.68 0 0 Z " fill="#A1652D" transform="translate(411,24)"/>
<path d="M0 0 C3 1 3 1 3 1 Z " fill="#A66831" transform="translate(440,19)"/>
<path d="M0 0 C2 1 2 1 2 1 Z " fill="#965D36" transform="translate(446,999)"/>
<path d="" fill="#885430" transform="translate(0,0)"/>
<path d="M0 0 C2 1 2 1 2 1 Z " fill="#925934" transform="translate(462,996)"/>
<path d="" fill="#87552F" transform="translate(0,0)"/>
<path d="M0 0 C2 1 2 1 2 1 Z " fill="#965D37" transform="translate(481,989)"/>
<path d="M0 0 C2 1 2 1 2 1 Z " fill="#985F37" transform="translate(597,951)"/>
<path d="M0 0 C2 1 2 1 2 1 Z " fill="#915833" transform="translate(561,933)"/>
<path d="" fill="#975E39" transform="translate(0,0)"/>
<path d="" fill="#935B36" transform="translate(0,0)"/>
<path d="" fill="#8F5A38" transform="translate(0,0)"/>
<path d="" fill="#8F5A37" transform="translate(0,0)"/>
<path d="M0 0 C2 1 2 1 2 1 Z " fill="#915835" transform="translate(432,874)"/>
<path d="" fill="#8C5333" transform="translate(0,0)"/>
<path d="M0 0 C2 1 2 1 2 1 Z " fill="#905636" transform="translate(442,864)"/>
<path d="M0 0 C2 1 2 1 2 1 Z " fill="#8C5431" transform="translate(456,850)"/>
<path d="M0 0 C2 1 2 1 2 1 Z " fill="#955E37" transform="translate(660,849)"/>
<path d="M0 0 C2 1 2 1 2 1 Z " fill="#925733" transform="translate(448,845)"/>
<path d="M0 0 C2 1 2 1 2 1 Z " fill="#985F37" transform="translate(650,842)"/>
<path d="M0 0 C2 1 2 1 2 1 Z " fill="#99623C" transform="translate(647,840)"/>
<path d="M0 0 C2 1 2 1 2 1 Z " fill="#8E5631" transform="translate(435,838)"/>
<path d="M0 0 C2 1 2 1 2 1 Z " fill="#8E5632" transform="translate(435,836)"/>
<path d="M0 0 C2 1 2 1 2 1 Z " fill="#935834" transform="translate(608,824)"/>
<path d="M0 0 C2 1 2 1 2 1 Z " fill="#955C35" transform="translate(605,824)"/>
<path d="" fill="#915B33" transform="translate(0,0)"/>
<path d="" fill="#925834" transform="translate(0,0)"/>
<path d="" fill="#9D643D" transform="translate(0,0)"/>
<path d="" fill="#9B6338" transform="translate(0,0)"/>
<path d="" fill="#9D6436" transform="translate(0,0)"/>
<path d="" fill="#A06637" transform="translate(0,0)"/>
<path d="M0 0 C2 1 2 1 2 1 Z " fill="#A96A38" transform="translate(667,722)"/>
<path d="M0 0 C2 1 2 1 2 1 Z " fill="#995F2E" transform="translate(293,719)"/>
<path d="M0 0 C2 1 2 1 2 1 Z " fill="#985F2D" transform="translate(286,717)"/>
<path d="M0 0 C2 1 2 1 2 1 Z " fill="#995F30" transform="translate(273,711)"/>
<path d="M0 0 C2 1 2 1 2 1 Z " fill="#975E2F" transform="translate(259,702)"/>
<path d="M0 0 C2 1 2 1 2 1 Z " fill="#A06531" transform="translate(774,667)"/>
<path d="" fill="#9C632F" transform="translate(0,0)"/>
<path d="M0 0 C2 1 2 1 2 1 Z " fill="#9F6632" transform="translate(791,663)"/>
<path d="" fill="#975C2D" transform="translate(0,0)"/>
<path d="M0 0 C2 1 2 1 2 1 Z " fill="#A16432" transform="translate(798,660)"/>
<path d="M0 0 C2 1 2 1 2 1 Z " fill="#945D2C" transform="translate(195,653)"/>
<path d="" fill="#9A6332" transform="translate(0,0)"/>
<path d="" fill="#9A6433" transform="translate(0,0)"/>
<path d="" fill="#9E6736" transform="translate(0,0)"/>
<path d="" fill="#9E6634" transform="translate(0,0)"/>
<path d="" fill="#9C6334" transform="translate(0,0)"/>
<path d="" fill="#9D6635" transform="translate(0,0)"/>
<path d="" fill="#9D6334" transform="translate(0,0)"/>
<path d="" fill="#985F2E" transform="translate(0,0)"/>
<path d="" fill="#9A5F2F" transform="translate(0,0)"/>
<path d="" fill="#955F2F" transform="translate(0,0)"/>
<path d="" fill="#986333" transform="translate(0,0)"/>
<path d="" fill="#966131" transform="translate(0,0)"/>
<path d="" fill="#8F5C2C" transform="translate(0,0)"/>
<path d="" fill="#996330" transform="translate(0,0)"/>
<path d="" fill="#945E2F" transform="translate(0,0)"/>
<path d="" fill="#9A6532" transform="translate(0,0)"/>
<path d="M0 0 C2 1 2 1 2 1 Z " fill="#9D6735" transform="translate(187,345)"/>
<path d="" fill="#A16736" transform="translate(0,0)"/>
<path d="" fill="#9D6636" transform="translate(0,0)"/>
<path d="" fill="#A56837" transform="translate(0,0)"/>
<path d="" fill="#925D2F" transform="translate(0,0)"/>
<path d="" fill="#935D31" transform="translate(0,0)"/>
<path d="" fill="#9B6635" transform="translate(0,0)"/>
<path d="M0 0 C2 1 2 1 2 1 Z " fill="#935B30" transform="translate(198,236)"/>
<path d="" fill="#9B6635" transform="translate(0,0)"/>
<path d="" fill="#905C34" transform="translate(0,0)"/>
<path d="" fill="#986334" transform="translate(0,0)"/>
<path d="" fill="#9A6433" transform="translate(0,0)"/>
<path d="" fill="#8B5B34" transform="translate(0,0)"/>
<path d="" fill="#9A6534" transform="translate(0,0)"/>
<path d="" fill="#865630" transform="translate(0,0)"/>
<path d="" fill="#9B6433" transform="translate(0,0)"/>
<path d="" fill="#855531" transform="translate(0,0)"/>
<path d="" fill="#8D5932" transform="translate(0,0)"/>
<path d="" fill="#996232" transform="translate(0,0)"/>
<path d="" fill="#976232" transform="translate(0,0)"/>
<path d="" fill="#905B32" transform="translate(0,0)"/>
<path d="M0 0 C2 1 2 1 2 1 Z " fill="#955F2D" transform="translate(733,92)"/>
<path d="M0 0 C2 1 2 1 2 1 Z " fill="#9A602D" transform="translate(707,72)"/>
<path d="M0 0 C2 1 2 1 2 1 Z " fill="#9C602D" transform="translate(642,48)"/>
<path d="M0 0 C2 1 2 1 2 1 Z " fill="#995F2D" transform="translate(363,41)"/>
<path d="M0 0 C2 1 2 1 2 1 Z " fill="#9A5F2C" transform="translate(625,40)"/>
<path d="M0 0 C2 1 2 1 2 1 Z " fill="#995F2E" transform="translate(365,40)"/>
<path d="M0 0 C2 1 2 1 2 1 Z " fill="#9C622E" transform="translate(383,33)"/>
<path d="M0 0 C2 1 2 1 2 1 Z " fill="#A0632F" transform="translate(380,32)"/>
<path d="" fill="#9E6230" transform="translate(0,0)"/>
<path d="M0 0 C2 1 2 1 2 1 Z " fill="#A1642E" transform="translate(577,24)"/>
<path d="M0 0 C2 1 2 1 2 1 Z " fill="#A3642E" transform="translate(556,20)"/>
<path d="M0 0 C2 1 2 1 2 1 Z " fill="#A56932" transform="translate(551,19)"/>
<path d="M0 0 C2 1 2 1 2 1 Z " fill="#A66732" transform="translate(449,18)"/>
<path d="M0 0 C2 1 2 1 2 1 Z " fill="#A56830" transform="translate(446,18)"/>
<path d="M0 0 C2 1 2 1 2 1 Z " fill="#A2652E" transform="translate(536,17)"/>
<path d="M0 0 C2 1 2 1 2 1 Z " fill="#AB6A30" transform="translate(528,16)"/>
<path d="" fill="#9E643D" transform="translate(0,0)"/>
<path d="" fill="#935B36" transform="translate(0,0)"/>
<path d="" fill="#89532E" transform="translate(0,0)"/>
<path d="" fill="#895530" transform="translate(0,0)"/>
<path d="" fill="#965D39" transform="translate(0,0)"/>
<path d="" fill="#955D38" transform="translate(0,0)"/>
<path d="" fill="#372713" transform="translate(0,0)"/>
<path d="" fill="#975D37" transform="translate(0,0)"/>
<path d="" fill="#865330" transform="translate(0,0)"/>
<path d="" fill="#865330" transform="translate(0,0)"/>
<path d="" fill="#975E38" transform="translate(0,0)"/>
<path d="" fill="#84532F" transform="translate(0,0)"/>
<path d="" fill="#955C38" transform="translate(0,0)"/>
<path d="" fill="#9A603A" transform="translate(0,0)"/>
<path d="" fill="#9A5D3A" transform="translate(0,0)"/>
<path d="" fill="#955C37" transform="translate(0,0)"/>
<path d="" fill="#905A35" transform="translate(0,0)"/>
<path d="" fill="#965D37" transform="translate(0,0)"/>
<path d="" fill="#905A34" transform="translate(0,0)"/>
<path d="" fill="#4A3218" transform="translate(0,0)"/>
<path d="" fill="#955E37" transform="translate(0,0)"/>
<path d="" fill="#3B2812" transform="translate(0,0)"/>
<path d="" fill="#442E15" transform="translate(0,0)"/>
<path d="" fill="#955F3A" transform="translate(0,0)"/>
<path d="" fill="#995F3A" transform="translate(0,0)"/>
<path d="" fill="#945D39" transform="translate(0,0)"/>
<path d="" fill="#472F16" transform="translate(0,0)"/>
<path d="" fill="#9B6239" transform="translate(0,0)"/>
<path d="" fill="#8D5B37" transform="translate(0,0)"/>
<path d="" fill="#945C39" transform="translate(0,0)"/>
<path d="" fill="#9C6138" transform="translate(0,0)"/>
<path d="" fill="#8E5B36" transform="translate(0,0)"/>
<path d="" fill="#9B6137" transform="translate(0,0)"/>
<path d="" fill="#965E37" transform="translate(0,0)"/>
<path d="" fill="#9D6138" transform="translate(0,0)"/>
<path d="" fill="#9E6039" transform="translate(0,0)"/>
<path d="" fill="#8F5937" transform="translate(0,0)"/>
<path d="" fill="#935A34" transform="translate(0,0)"/>
<path d="" fill="#905A33" transform="translate(0,0)"/>
<path d="" fill="#8E5834" transform="translate(0,0)"/>
<path d="" fill="#995F37" transform="translate(0,0)"/>
<path d="" fill="#905A34" transform="translate(0,0)"/>
<path d="" fill="#8C5835" transform="translate(0,0)"/>
<path d="" fill="#915A37" transform="translate(0,0)"/>
<path d="" fill="#402D16" transform="translate(0,0)"/>
<path d="" fill="#442F14" transform="translate(0,0)"/>
<path d="" fill="#744C2B" transform="translate(0,0)"/>
<path d="" fill="#945A35" transform="translate(0,0)"/>
<path d="" fill="#5B3C20" transform="translate(0,0)"/>
<path d="" fill="#975B34" transform="translate(0,0)"/>
<path d="" fill="#905734" transform="translate(0,0)"/>
<path d="" fill="#905933" transform="translate(0,0)"/>
<path d="" fill="#9E5F37" transform="translate(0,0)"/>
<path d="" fill="#97603D" transform="translate(0,0)"/>
<path d="" fill="#3B2712" transform="translate(0,0)"/>
<path d="" fill="#3B2811" transform="translate(0,0)"/>
<path d="" fill="#3B2811" transform="translate(0,0)"/>
<path d="" fill="#462D15" transform="translate(0,0)"/>
<path d="" fill="#674225" transform="translate(0,0)"/>
<path d="" fill="#3C2913" transform="translate(0,0)"/>
<path d="" fill="#382612" transform="translate(0,0)"/>
<path d="" fill="#905A37" transform="translate(0,0)"/>
<path d="" fill="#925A35" transform="translate(0,0)"/>
<path d="" fill="#965D36" transform="translate(0,0)"/>
<path d="" fill="#905835" transform="translate(0,0)"/>
<path d="" fill="#9A643A" transform="translate(0,0)"/>
<path d="" fill="#56371D" transform="translate(0,0)"/>
<path d="" fill="#8E5934" transform="translate(0,0)"/>
<path d="" fill="#8D5835" transform="translate(0,0)"/>
<path d="" fill="#8A5735" transform="translate(0,0)"/>
<path d="" fill="#372510" transform="translate(0,0)"/>
<path d="" fill="#8E5835" transform="translate(0,0)"/>
<path d="" fill="#935C3A" transform="translate(0,0)"/>
<path d="" fill="#8C5C35" transform="translate(0,0)"/>
<path d="" fill="#8F5B37" transform="translate(0,0)"/>
<path d="" fill="#925B38" transform="translate(0,0)"/>
<path d="" fill="#8C5B34" transform="translate(0,0)"/>
<path d="" fill="#4A3018" transform="translate(0,0)"/>
<path d="" fill="#3F2B15" transform="translate(0,0)"/>
<path d="" fill="#915A39" transform="translate(0,0)"/>
<path d="" fill="#3E2A14" transform="translate(0,0)"/>
<path d="" fill="#3C2612" transform="translate(0,0)"/>
<path d="" fill="#382510" transform="translate(0,0)"/>
<path d="" fill="#935934" transform="translate(0,0)"/>
<path d="" fill="#8E5934" transform="translate(0,0)"/>
<path d="" fill="#8F5B36" transform="translate(0,0)"/>
<path d="" fill="#8F5734" transform="translate(0,0)"/>
<path d="" fill="#8F5A35" transform="translate(0,0)"/>
<path d="" fill="#925A38" transform="translate(0,0)"/>
<path d="" fill="#935A39" transform="translate(0,0)"/>
<path d="" fill="#905633" transform="translate(0,0)"/>
<path d="" fill="#915937" transform="translate(0,0)"/>
<path d="" fill="#8F5835" transform="translate(0,0)"/>
<path d="" fill="#8B5231" transform="translate(0,0)"/>
<path d="" fill="#935D38" transform="translate(0,0)"/>
<path d="" fill="#955B37" transform="translate(0,0)"/>
<path d="" fill="#915932" transform="translate(0,0)"/>
<path d="" fill="#935A37" transform="translate(0,0)"/>
<path d="" fill="#8E542F" transform="translate(0,0)"/>
<path d="" fill="#945C35" transform="translate(0,0)"/>
<path d="" fill="#8F5232" transform="translate(0,0)"/>
<path d="" fill="#8E5532" transform="translate(0,0)"/>
<path d="" fill="#955C37" transform="translate(0,0)"/>
<path d="" fill="#925732" transform="translate(0,0)"/>
<path d="" fill="#8C5632" transform="translate(0,0)"/>
<path d="" fill="#8E5631" transform="translate(0,0)"/>
<path d="" fill="#8F5633" transform="translate(0,0)"/>
<path d="" fill="#925733" transform="translate(0,0)"/>
<path d="" fill="#945E37" transform="translate(0,0)"/>
<path d="" fill="#915834" transform="translate(0,0)"/>
<path d="" fill="#905732" transform="translate(0,0)"/>
<path d="" fill="#8F5732" transform="translate(0,0)"/>
<path d="" fill="#925936" transform="translate(0,0)"/>
<path d="" fill="#915833" transform="translate(0,0)"/>
<path d="" fill="#8E5732" transform="translate(0,0)"/>
<path d="" fill="#905632" transform="translate(0,0)"/>
<path d="" fill="#985D39" transform="translate(0,0)"/>
<path d="" fill="#965C36" transform="translate(0,0)"/>
<path d="" fill="#985C37" transform="translate(0,0)"/>
<path d="" fill="#955D36" transform="translate(0,0)"/>
<path d="" fill="#945B35" transform="translate(0,0)"/>
<path d="" fill="#966239" transform="translate(0,0)"/>
<path d="" fill="#945933" transform="translate(0,0)"/>
<path d="" fill="#915633" transform="translate(0,0)"/>
<path d="" fill="#8E5831" transform="translate(0,0)"/>
<path d="" fill="#955D38" transform="translate(0,0)"/>
<path d="" fill="#935C36" transform="translate(0,0)"/>
<path d="" fill="#915833" transform="translate(0,0)"/>
<path d="" fill="#975E38" transform="translate(0,0)"/>
<path d="" fill="#8E5632" transform="translate(0,0)"/>
<path d="" fill="#8F5B37" transform="translate(0,0)"/>
<path d="" fill="#8F5732" transform="translate(0,0)"/>
<path d="" fill="#925A34" transform="translate(0,0)"/>
<path d="" fill="#80552C" transform="translate(0,0)"/>
<path d="" fill="#3D2813" transform="translate(0,0)"/>
<path d="" fill="#915833" transform="translate(0,0)"/>
<path d="" fill="#965C38" transform="translate(0,0)"/>
<path d="" fill="#905A36" transform="translate(0,0)"/>
<path d="" fill="#432E14" transform="translate(0,0)"/>
<path d="" fill="#915C37" transform="translate(0,0)"/>
<path d="" fill="#8D5033" transform="translate(0,0)"/>
<path d="" fill="#8C5832" transform="translate(0,0)"/>
<path d="" fill="#8E5732" transform="translate(0,0)"/>
<path d="" fill="#8E5531" transform="translate(0,0)"/>
<path d="" fill="#915B37" transform="translate(0,0)"/>
<path d="" fill="#915C33" transform="translate(0,0)"/>
<path d="" fill="#8F5936" transform="translate(0,0)"/>
<path d="" fill="#935D38" transform="translate(0,0)"/>
<path d="" fill="#9A5F38" transform="translate(0,0)"/>
<path d="" fill="#955E37" transform="translate(0,0)"/>
<path d="" fill="#8E5A30" transform="translate(0,0)"/>
<path d="" fill="#55381B" transform="translate(0,0)"/>
<path d="" fill="#925A34" transform="translate(0,0)"/>
<path d="" fill="#513619" transform="translate(0,0)"/>
<path d="" fill="#935D35" transform="translate(0,0)"/>
<path d="" fill="#9C623B" transform="translate(0,0)"/>
<path d="" fill="#915B31" transform="translate(0,0)"/>
<path d="" fill="#9F673A" transform="translate(0,0)"/>
<path d="" fill="#A1653B" transform="translate(0,0)"/>
<path d="" fill="#9A6237" transform="translate(0,0)"/>
<path d="" fill="#986135" transform="translate(0,0)"/>
<path d="" fill="#9D6333" transform="translate(0,0)"/>
<path d="" fill="#AB6C39" transform="translate(0,0)"/>
<path d="" fill="#A36833" transform="translate(0,0)"/>
<path d="" fill="#A56836" transform="translate(0,0)"/>
<path d="" fill="#A16534" transform="translate(0,0)"/>
<path d="" fill="#9E6533" transform="translate(0,0)"/>
<path d="" fill="#A56736" transform="translate(0,0)"/>
<path d="" fill="#583B1D" transform="translate(0,0)"/>
<path d="" fill="#462F16" transform="translate(0,0)"/>
<path d="" fill="#A06532" transform="translate(0,0)"/>
<path d="" fill="#9A5E2E" transform="translate(0,0)"/>
<path d="" fill="#A36735" transform="translate(0,0)"/>
<path d="" fill="#965D2E" transform="translate(0,0)"/>
<path d="" fill="#955E2E" transform="translate(0,0)"/>
<path d="" fill="#9D6434" transform="translate(0,0)"/>
<path d="" fill="#925E2F" transform="translate(0,0)"/>
<path d="" fill="#945D31" transform="translate(0,0)"/>
<path d="" fill="#6E4824" transform="translate(0,0)"/>
<path d="" fill="#9A6032" transform="translate(0,0)"/>
<path d="" fill="#9B6233" transform="translate(0,0)"/>
<path d="" fill="#935D2E" transform="translate(0,0)"/>
<path d="" fill="#9D6330" transform="translate(0,0)"/>
<path d="" fill="#915C2C" transform="translate(0,0)"/>
<path d="" fill="#9D6333" transform="translate(0,0)"/>
<path d="" fill="#935D2F" transform="translate(0,0)"/>
<path d="" fill="#915A2F" transform="translate(0,0)"/>
<path d="" fill="#935E2F" transform="translate(0,0)"/>
<path d="" fill="#955B2D" transform="translate(0,0)"/>
<path d="" fill="#945D2F" transform="translate(0,0)"/>
<path d="" fill="#905B2E" transform="translate(0,0)"/>
<path d="" fill="#905C2D" transform="translate(0,0)"/>
<path d="" fill="#956031" transform="translate(0,0)"/>
<path d="" fill="#9B6434" transform="translate(0,0)"/>
<path d="" fill="#9B6132" transform="translate(0,0)"/>
<path d="" fill="#996133" transform="translate(0,0)"/>
<path d="" fill="#945D32" transform="translate(0,0)"/>
<path d="" fill="#99612E" transform="translate(0,0)"/>
<path d="" fill="#9B612E" transform="translate(0,0)"/>
<path d="" fill="#9C6430" transform="translate(0,0)"/>
<path d="" fill="#A56A35" transform="translate(0,0)"/>
<path d="" fill="#955E2C" transform="translate(0,0)"/>
<path d="" fill="#99602F" transform="translate(0,0)"/>
<path d="" fill="#9C6733" transform="translate(0,0)"/>
<path d="" fill="#9A6432" transform="translate(0,0)"/>
<path d="" fill="#986130" transform="translate(0,0)"/>
<path d="" fill="#945F2F" transform="translate(0,0)"/>
<path d="" fill="#925B2C" transform="translate(0,0)"/>
<path d="" fill="#996231" transform="translate(0,0)"/>
<path d="" fill="#976334" transform="translate(0,0)"/>
<path d="" fill="#9D6330" transform="translate(0,0)"/>
<path d="" fill="#99602D" transform="translate(0,0)"/>
<path d="" fill="#95602F" transform="translate(0,0)"/>
<path d="" fill="#935D30" transform="translate(0,0)"/>
<path d="" fill="#965D30" transform="translate(0,0)"/>
<path d="" fill="#7D532A" transform="translate(0,0)"/>
<path d="" fill="#996132" transform="translate(0,0)"/>
<path d="" fill="#9E6634" transform="translate(0,0)"/>
<path d="" fill="#95612F" transform="translate(0,0)"/>
<path d="" fill="#945E2E" transform="translate(0,0)"/>
<path d="" fill="#5B3E20" transform="translate(0,0)"/>
<path d="" fill="#53371B" transform="translate(0,0)"/>
<path d="" fill="#9D6535" transform="translate(0,0)"/>
<path d="" fill="#996233" transform="translate(0,0)"/>
<path d="" fill="#9B6836" transform="translate(0,0)"/>
<path d="" fill="#966132" transform="translate(0,0)"/>
<path d="" fill="#956232" transform="translate(0,0)"/>
<path d="" fill="#976433" transform="translate(0,0)"/>
<path d="" fill="#5F3F20" transform="translate(0,0)"/>
<path d="" fill="#9A6435" transform="translate(0,0)"/>
<path d="" fill="#9C6736" transform="translate(0,0)"/>
<path d="" fill="#9B6535" transform="translate(0,0)"/>
<path d="" fill="#996333" transform="translate(0,0)"/>
<path d="" fill="#9C6535" transform="translate(0,0)"/>
<path d="" fill="#996134" transform="translate(0,0)"/>
<path d="" fill="#9E6835" transform="translate(0,0)"/>
<path d="" fill="#9D6634" transform="translate(0,0)"/>
<path d="" fill="#9D6732" transform="translate(0,0)"/>
<path d="" fill="#996631" transform="translate(0,0)"/>
<path d="" fill="#97602F" transform="translate(0,0)"/>
<path d="" fill="#9C6230" transform="translate(0,0)"/>
<path d="" fill="#9E6333" transform="translate(0,0)"/>
<path d="" fill="#945B2F" transform="translate(0,0)"/>
<path d="" fill="#985D31" transform="translate(0,0)"/>
<path d="" fill="#9A6334" transform="translate(0,0)"/>
<path d="" fill="#9A6333" transform="translate(0,0)"/>
<path d="" fill="#966031" transform="translate(0,0)"/>
<path d="" fill="#966131" transform="translate(0,0)"/>
<path d="" fill="#9A6231" transform="translate(0,0)"/>
<path d="" fill="#985F33" transform="translate(0,0)"/>
<path d="" fill="#9B6433" transform="translate(0,0)"/>
<path d="" fill="#9A6533" transform="translate(0,0)"/>
<path d="" fill="#9B6533" transform="translate(0,0)"/>
<path d="" fill="#986334" transform="translate(0,0)"/>
<path d="" fill="#986434" transform="translate(0,0)"/>
<path d="" fill="#78512A" transform="translate(0,0)"/>
<path d="" fill="#7A5229" transform="translate(0,0)"/>
<path d="" fill="#9E6532" transform="translate(0,0)"/>
<path d="" fill="#996433" transform="translate(0,0)"/>
<path d="" fill="#9A6336" transform="translate(0,0)"/>
<path d="" fill="#956135" transform="translate(0,0)"/>
<path d="" fill="#644424" transform="translate(0,0)"/>
<path d="" fill="#996235" transform="translate(0,0)"/>
<path d="" fill="#976334" transform="translate(0,0)"/>
<path d="" fill="#9A6131" transform="translate(0,0)"/>
<path d="" fill="#A16635" transform="translate(0,0)"/>
<path d="" fill="#976431" transform="translate(0,0)"/>
<path d="" fill="#976432" transform="translate(0,0)"/>
<path d="" fill="#966232" transform="translate(0,0)"/>
<path d="" fill="#986231" transform="translate(0,0)"/>
<path d="" fill="#9D6535" transform="translate(0,0)"/>
<path d="" fill="#996232" transform="translate(0,0)"/>
<path d="" fill="#99602E" transform="translate(0,0)"/>
<path d="" fill="#976332" transform="translate(0,0)"/>
<path d="" fill="#935D32" transform="translate(0,0)"/>
<path d="" fill="#93612E" transform="translate(0,0)"/>
<path d="" fill="#996432" transform="translate(0,0)"/>
<path d="" fill="#9A6233" transform="translate(0,0)"/>
<path d="" fill="#935D31" transform="translate(0,0)"/>
<path d="" fill="#9A6132" transform="translate(0,0)"/>
<path d="" fill="#986232" transform="translate(0,0)"/>
<path d="" fill="#9B6433" transform="translate(0,0)"/>
<path d="" fill="#996232" transform="translate(0,0)"/>
<path d="" fill="#996031" transform="translate(0,0)"/>
<path d="" fill="#9E6834" transform="translate(0,0)"/>
<path d="" fill="#9D6734" transform="translate(0,0)"/>
<path d="" fill="#9B6635" transform="translate(0,0)"/>
<path d="" fill="#996335" transform="translate(0,0)"/>
<path d="" fill="#9D6635" transform="translate(0,0)"/>
<path d="" fill="#593D1D" transform="translate(0,0)"/>
<path d="" fill="#865B30" transform="translate(0,0)"/>
<path d="" fill="#9E6736" transform="translate(0,0)"/>
<path d="" fill="#9D6535" transform="translate(0,0)"/>
<path d="" fill="#9F6637" transform="translate(0,0)"/>
<path d="" fill="#9D6634" transform="translate(0,0)"/>
<path d="" fill="#9C6237" transform="translate(0,0)"/>
<path d="" fill="#9C6334" transform="translate(0,0)"/>
<path d="" fill="#9D6535" transform="translate(0,0)"/>
<path d="" fill="#9D6434" transform="translate(0,0)"/>
<path d="" fill="#9A6434" transform="translate(0,0)"/>
<path d="" fill="#593C1B" transform="translate(0,0)"/>
<path d="" fill="#9E6838" transform="translate(0,0)"/>
<path d="" fill="#9E6534" transform="translate(0,0)"/>
<path d="" fill="#55391B" transform="translate(0,0)"/>
<path d="" fill="#563B19" transform="translate(0,0)"/>
<path d="" fill="#9F6936" transform="translate(0,0)"/>
<path d="" fill="#9C6434" transform="translate(0,0)"/>
<path d="" fill="#995F31" transform="translate(0,0)"/>
<path d="" fill="#9D6636" transform="translate(0,0)"/>
<path d="" fill="#956032" transform="translate(0,0)"/>
<path d="" fill="#986133" transform="translate(0,0)"/>
<path d="" fill="#7B512C" transform="translate(0,0)"/>
<path d="" fill="#9B6534" transform="translate(0,0)"/>
<path d="" fill="#935C32" transform="translate(0,0)"/>
<path d="" fill="#9C6533" transform="translate(0,0)"/>
<path d="" fill="#945C33" transform="translate(0,0)"/>
<path d="" fill="#945B32" transform="translate(0,0)"/>
<path d="" fill="#925B30" transform="translate(0,0)"/>
<path d="" fill="#8F5A33" transform="translate(0,0)"/>
<path d="" fill="#905932" transform="translate(0,0)"/>
<path d="" fill="#8E5A34" transform="translate(0,0)"/>
<path d="" fill="#8C5934" transform="translate(0,0)"/>
<path d="" fill="#8F5B35" transform="translate(0,0)"/>
<path d="" fill="#8E5B35" transform="translate(0,0)"/>
<path d="" fill="#9D6634" transform="translate(0,0)"/>
<path d="" fill="#8F5A34" transform="translate(0,0)"/>
<path d="" fill="#6B4828" transform="translate(0,0)"/>
<path d="" fill="#905B37" transform="translate(0,0)"/>
<path d="" fill="#8F5C35" transform="translate(0,0)"/>
<path d="" fill="#9C6435" transform="translate(0,0)"/>
<path d="" fill="#986433" transform="translate(0,0)"/>
<path d="" fill="#8C5933" transform="translate(0,0)"/>
<path d="" fill="#986435" transform="translate(0,0)"/>
<path d="" fill="#8C5A35" transform="translate(0,0)"/>
<path d="" fill="#8A5932" transform="translate(0,0)"/>
<path d="" fill="#9A6234" transform="translate(0,0)"/>
<path d="" fill="#8E5B34" transform="translate(0,0)"/>
<path d="" fill="#8E5833" transform="translate(0,0)"/>
<path d="" fill="#885631" transform="translate(0,0)"/>
<path d="" fill="#895632" transform="translate(0,0)"/>
<path d="" fill="#895732" transform="translate(0,0)"/>
<path d="" fill="#895730" transform="translate(0,0)"/>
<path d="" fill="#9B622E" transform="translate(0,0)"/>
<path d="" fill="#8C5934" transform="translate(0,0)"/>
<path d="" fill="#986330" transform="translate(0,0)"/>
<path d="" fill="#8C5833" transform="translate(0,0)"/>
<path d="" fill="#915832" transform="translate(0,0)"/>
<path d="" fill="#8F5B33" transform="translate(0,0)"/>
<path d="" fill="#8E5B32" transform="translate(0,0)"/>
<path d="" fill="#8F5B35" transform="translate(0,0)"/>
<path d="" fill="#8E5830" transform="translate(0,0)"/>
<path d="" fill="#9A6331" transform="translate(0,0)"/>
<path d="" fill="#965F32" transform="translate(0,0)"/>
<path d="" fill="#986331" transform="translate(0,0)"/>
<path d="" fill="#8F5531" transform="translate(0,0)"/>
<path d="" fill="#915B32" transform="translate(0,0)"/>
<path d="" fill="#8E5A30" transform="translate(0,0)"/>
<path d="" fill="#8D582F" transform="translate(0,0)"/>
<path d="" fill="#905C31" transform="translate(0,0)"/>
<path d="" fill="#9C6230" transform="translate(0,0)"/>
<path d="" fill="#986230" transform="translate(0,0)"/>
<path d="" fill="#9A6130" transform="translate(0,0)"/>
<path d="" fill="#A06631" transform="translate(0,0)"/>
<path d="" fill="#8D5833" transform="translate(0,0)"/>
<path d="" fill="#915E2F" transform="translate(0,0)"/>
<path d="" fill="#956131" transform="translate(0,0)"/>
<path d="" fill="#8D5A32" transform="translate(0,0)"/>
<path d="" fill="#885731" transform="translate(0,0)"/>
<path d="" fill="#422D14" transform="translate(0,0)"/>
<path d="" fill="#8D5932" transform="translate(0,0)"/>
<path d="" fill="#905A31" transform="translate(0,0)"/>
<path d="" fill="#9A5F2D" transform="translate(0,0)"/>
<path d="" fill="#8E592E" transform="translate(0,0)"/>
<path d="" fill="#8C5A30" transform="translate(0,0)"/>
<path d="" fill="#8C592E" transform="translate(0,0)"/>
<path d="" fill="#8C5B2E" transform="translate(0,0)"/>
<path d="" fill="#91592A" transform="translate(0,0)"/>
<path d="" fill="#976130" transform="translate(0,0)"/>
<path d="" fill="#965D31" transform="translate(0,0)"/>
<path d="" fill="#925B2F" transform="translate(0,0)"/>
<path d="" fill="#97612F" transform="translate(0,0)"/>
<path d="" fill="#925D2D" transform="translate(0,0)"/>
<path d="" fill="#96602E" transform="translate(0,0)"/>
<path d="" fill="#935F2E" transform="translate(0,0)"/>
<path d="" fill="#975E31" transform="translate(0,0)"/>
<path d="" fill="#9A612F" transform="translate(0,0)"/>
<path d="" fill="#A06430" transform="translate(0,0)"/>
<path d="" fill="#975E2D" transform="translate(0,0)"/>
<path d="" fill="#975F2B" transform="translate(0,0)"/>
<path d="" fill="#99612C" transform="translate(0,0)"/>
<path d="" fill="#935B30" transform="translate(0,0)"/>
<path d="" fill="#945E2C" transform="translate(0,0)"/>
<path d="" fill="#945E2F" transform="translate(0,0)"/>
<path d="" fill="#915C2D" transform="translate(0,0)"/>
<path d="" fill="#945B2F" transform="translate(0,0)"/>
<path d="" fill="#995E2F" transform="translate(0,0)"/>
<path d="" fill="#995E2E" transform="translate(0,0)"/>
<path d="" fill="#975E2D" transform="translate(0,0)"/>
<path d="" fill="#9D612C" transform="translate(0,0)"/>
<path d="" fill="#925C2C" transform="translate(0,0)"/>
<path d="" fill="#9D632F" transform="translate(0,0)"/>
<path d="" fill="#986130" transform="translate(0,0)"/>
<path d="" fill="#A16733" transform="translate(0,0)"/>
<path d="" fill="#98602E" transform="translate(0,0)"/>
<path d="" fill="#986131" transform="translate(0,0)"/>
<path d="" fill="#9B6131" transform="translate(0,0)"/>
<path d="" fill="#9A6130" transform="translate(0,0)"/>
<path d="" fill="#9E6131" transform="translate(0,0)"/>
<path d="" fill="#422B14" transform="translate(0,0)"/>
<path d="" fill="#7A5227" transform="translate(0,0)"/>
<path d="" fill="#9E612D" transform="translate(0,0)"/>
<path d="" fill="#9C602B" transform="translate(0,0)"/>
<path d="" fill="#996030" transform="translate(0,0)"/>
<path d="" fill="#9B622D" transform="translate(0,0)"/>
<path d="" fill="#99602D" transform="translate(0,0)"/>
<path d="" fill="#98602C" transform="translate(0,0)"/>
<path d="" fill="#9B612F" transform="translate(0,0)"/>
<path d="" fill="#9E5F2B" transform="translate(0,0)"/>
<path d="" fill="#975F29" transform="translate(0,0)"/>
<path d="" fill="#996333" transform="translate(0,0)"/>
<path d="" fill="#9F642E" transform="translate(0,0)"/>
<path d="" fill="#9D602F" transform="translate(0,0)"/>
<path d="" fill="#945E2F" transform="translate(0,0)"/>
<path d="" fill="#985F2E" transform="translate(0,0)"/>
<path d="" fill="#9B5E2C" transform="translate(0,0)"/>
<path d="" fill="#9C632E" transform="translate(0,0)"/>
<path d="" fill="#9A602F" transform="translate(0,0)"/>
<path d="" fill="#A06330" transform="translate(0,0)"/>
<path d="" fill="#9D622F" transform="translate(0,0)"/>
<path d="" fill="#9E612D" transform="translate(0,0)"/>
<path d="" fill="#473019" transform="translate(0,0)"/>
<path d="" fill="#9C602F" transform="translate(0,0)"/>
<path d="" fill="#9D632F" transform="translate(0,0)"/>
<path d="" fill="#9E6431" transform="translate(0,0)"/>
<path d="" fill="#9F6430" transform="translate(0,0)"/>
<path d="" fill="#A66932" transform="translate(0,0)"/>
<path d="" fill="#9F622D" transform="translate(0,0)"/>
<path d="" fill="#452F19" transform="translate(0,0)"/>
<path d="" fill="#A66732" transform="translate(0,0)"/>
<path d="" fill="#A46733" transform="translate(0,0)"/>
<path d="" fill="#A3662F" transform="translate(0,0)"/>
<path d="" fill="#A66931" transform="translate(0,0)"/>
<path d="" fill="#A66732" transform="translate(0,0)"/>
<path d="" fill="#A4652E" transform="translate(0,0)"/>
<path d="" fill="#A56831" transform="translate(0,0)"/>
<path d="" fill="#A3652F" transform="translate(0,0)"/>
<path d="" fill="#A2642E" transform="translate(0,0)"/>
<path d="" fill="#A96732" transform="translate(0,0)"/>
<path d="" fill="#A76931" transform="translate(0,0)"/>
<path d="" fill="#91602F" transform="translate(0,0)"/>
<path d="" fill="#A46B37" transform="translate(0,0)"/>
<path d="" fill="#47301A" transform="translate(0,0)"/>
</svg>
