<?xml version="1.0" encoding="UTF-8"?>
<!-- Generator: visioncortex VTracer 0.6.12 -->
<svg version="1.1" xmlns="http://www.w3.org/2000/svg" width="1024" height="1024">
<path d="M0 0 C0.936 0.301 1.871 0.603 2.835 0.914 C3.702 1.202 4.568 1.491 5.461 1.789 C6.24 2.046 7.019 2.304 7.822 2.569 C9.625 3.375 9.625 3.375 10.625 5.375 C12.287 5.73 13.955 6.059 15.625 6.375 C23.514 9.51 31.047 13.57 38.562 17.5 C39.367 17.92 40.172 18.339 41 18.771 C44.426 20.582 47.609 22.363 50.762 24.633 C54.172 26.708 56.538 26.963 60.5 27.125 C61.652 27.182 62.805 27.238 63.992 27.297 C64.427 27.31 64.427 27.31 66.625 27.375 C66.625 28.035 66.625 28.695 66.625 29.375 C67.677 29.458 68.729 29.54 69.812 29.625 C82.086 31.237 92.897 36.519 103.625 42.375 C104.252 42.717 104.878 43.058 105.524 43.41 C129.098 56.466 149.828 74.789 164.625 97.375 C165.326 98.438 166.028 99.502 166.75 100.598 C176.167 115.44 183.543 130.905 189.625 147.375 C189.899 148.113 190.174 148.851 190.457 149.611 C203.041 183.949 206.262 220.329 209.113 256.516 C211.37 284.617 216.225 320.568 237.625 341.375 C238.285 341.375 238.945 341.375 239.625 341.375 C239.874 342.103 240.123 342.832 240.379 343.582 C241.743 346.639 243.341 348.567 245.562 351.062 C263.923 373.03 277.721 403.267 275.625 432.375 C273.353 455.854 264.361 475.763 246.875 492 C245.625 493.375 245.625 493.375 245.625 495.375 C244.635 496.035 243.645 496.695 242.625 497.375 C235.269 512.371 240.305 526.635 245.312 541.438 C245.521 542.031 245.521 542.031 246.574 545.035 C248.695 551.776 248.837 558.24 248.875 565.25 C248.885 565.728 248.885 565.728 248.938 568.145 C248.971 574.324 248.147 578.731 245.625 584.375 C245.249 585.299 244.872 586.224 244.484 587.176 C234.774 609.16 217.936 626.074 195.625 635.375 C178.894 641.375 178.894 641.375 173.625 641.375 C173.274 642.612 172.924 643.85 172.562 645.125 C165.97 664.536 148.62 681.121 130.625 690.375 C129.635 690.705 128.645 691.035 127.625 691.375 C125.997 692.046 124.369 692.717 122.742 693.393 C106.87 699.925 91.639 702.555 74.625 704.375 C74.625 705.035 74.625 705.695 74.625 706.375 C72.354 706.429 70.083 706.468 67.812 706.5 C66.548 706.523 65.283 706.546 63.98 706.57 C60.625 706.375 60.625 706.375 57.625 704.375 C55.563 703.996 55.563 703.996 53.195 703.812 C52.316 703.738 51.437 703.663 50.531 703.586 C49.613 703.516 48.696 703.447 47.75 703.375 C39.637 702.733 31.657 701.693 23.625 700.375 C23.348 701.155 23.072 701.935 22.786 702.739 C21.735 705.701 20.681 708.663 19.627 711.624 C18.957 713.509 18.288 715.394 17.619 717.279 C15.049 724.494 12.382 731.65 9.532 738.759 C8.625 741.375 8.625 741.375 8.625 744.375 C7.965 744.375 7.305 744.375 6.625 744.375 C6.443 745.125 6.261 745.875 6.074 746.648 C4.444 753.288 2.661 759.848 0.625 766.375 C1.075 765.951 1.525 765.527 1.988 765.09 C7.464 760.097 13.314 756.229 19.625 752.375 C19.986 752.129 19.986 752.129 21.812 750.883 C48.237 733.424 85.604 728.18 116.625 731.375 C116.625 732.035 116.625 732.695 116.625 733.375 C117.574 733.994 118.523 734.612 119.5 735.25 C123.434 737.925 123.434 737.925 124.625 741.375 C124.848 744.192 124.958 746.872 124.938 749.688 C124.935 750.087 124.935 750.087 124.92 752.111 C124.336 781.258 108.121 807.896 87.625 827.723 C77.304 837.076 65.075 845.15 52.625 851.375 C52.955 855.335 53.285 859.295 53.625 863.375 C54.615 863.375 55.605 863.375 56.625 863.375 C56.119 865.544 55.625 867.375 54.625 869.375 C55.285 869.375 55.945 869.375 56.625 869.375 C57.385 900.888 57.843 942.747 34.625 967.375 C30.293 971.226 27.915 972.597 22.066 972.543 C17.522 972.23 13.08 971.292 8.625 970.375 C8.955 969.385 9.285 968.395 9.625 967.375 C9.068 967.011 8.511 966.648 7.938 966.273 C3.926 963.631 -0.05 960.948 -3.938 958.125 C-4.599 957.645 -5.26 957.166 -5.941 956.672 C-6.414 956.244 -6.888 955.816 -7.375 955.375 C-7.375 954.715 -7.375 954.055 -7.375 953.375 C-7.932 953.148 -8.489 952.921 -9.062 952.688 C-11.375 951.375 -11.375 951.375 -13.75 948.812 C-16.723 946.052 -18.398 945.652 -22.375 945.375 C-22.045 944.715 -21.715 944.055 -21.375 943.375 C-22.7 939.692 -25.184 937.334 -27.875 934.562 C-33.921 928.058 -38.629 920.857 -43.375 913.375 C-44.035 913.705 -44.695 914.035 -45.375 914.375 C-47.375 911.375 -47.375 911.375 -47.812 907.875 C-48.39 904.281 -48.616 903.497 -51.375 901.375 C-54.109 899.272 -54.368 898.41 -55.062 894.875 C-55.375 891.375 -55.375 891.375 -55.375 888.375 C-55.788 886.676 -56.251 884.989 -56.75 883.312 C-57.005 882.435 -57.26 881.557 -57.523 880.652 C-58.375 878.375 -58.375 878.375 -60.375 876.375 C-60.045 876.045 -59.715 875.715 -59.375 875.375 C-59.705 874.385 -60.035 873.395 -60.375 872.375 C-60.414 870.375 -60.419 868.375 -60.375 866.375 C-61.035 866.045 -61.695 865.715 -62.375 865.375 C-62.501 859.828 -62.501 859.828 -61.871 857.566 C-60.992 853.683 -61.362 849.723 -61.438 845.762 C-61.372 842.224 -60.941 838.864 -60.375 835.375 C-62.665 835.013 -64.957 834.661 -67.25 834.312 C-68.526 834.115 -69.802 833.918 -71.117 833.715 C-74.375 833.375 -74.375 833.375 -76.375 834.375 C-78.375 833.042 -80.375 831.708 -82.375 830.375 C-84.991 829.31 -87.603 828.293 -90.25 827.312 C-90.958 827.044 -91.665 826.775 -92.395 826.498 C-96.033 825.14 -99.522 823.987 -103.375 823.375 C-103.375 822.715 -103.375 822.055 -103.375 821.375 C-104.179 821.128 -104.984 820.88 -105.812 820.625 C-117.864 816.396 -117.864 816.396 -119.375 813.375 C-120.056 813.107 -120.736 812.839 -121.438 812.562 C-124.8 811.203 -127.533 809.355 -130.508 807.301 C-132.375 806.375 -132.375 806.375 -135.375 807.375 C-135.375 806.385 -135.375 805.395 -135.375 804.375 C-137.025 804.045 -138.675 803.715 -140.375 803.375 C-140.705 802.385 -141.035 801.395 -141.375 800.375 C-143.302 798.769 -145.224 797.283 -147.25 795.812 C-155.559 789.609 -163.053 782.721 -170.375 775.375 C-171.07 774.715 -171.765 774.055 -172.48 773.375 C-180.114 766.042 -186.376 757.761 -192.375 749.062 C-192.705 748.619 -192.705 748.619 -194.375 746.375 C-195.035 746.375 -195.695 746.375 -196.375 746.375 C-196.457 745.529 -196.54 744.684 -196.625 743.812 C-197.531 739.662 -199.207 737.012 -201.375 733.375 C-201.375 732.715 -201.375 732.055 -201.375 731.375 C-202.365 731.375 -203.355 731.375 -204.375 731.375 C-204.423 730.97 -204.423 730.97 -204.664 728.922 C-205.536 724.573 -207.079 720.72 -208.75 716.625 C-211.282 710.286 -213.631 703.984 -215.375 697.375 C-216.347 697.568 -217.319 697.762 -218.32 697.961 C-243.531 702.794 -267.938 703.212 -293.375 700.375 C-294.24 700.279 -295.105 700.184 -295.996 700.085 C-298.122 699.85 -300.249 699.613 -302.375 699.375 C-302.375 698.715 -302.375 698.055 -302.375 697.375 C-303.365 698.035 -304.355 698.695 -305.375 699.375 C-308.563 699.5 -308.563 699.5 -311.375 699.375 C-311.424 698.761 -311.473 698.148 -311.523 697.516 C-312.375 695.375 -312.375 695.375 -314.789 694.172 C-315.319 693.999 -315.319 693.999 -318 693.125 C-330.11 688.778 -340.658 682.865 -350.375 674.375 C-350.732 674.084 -350.732 674.084 -352.539 672.609 C-354.195 671.25 -355.793 669.82 -357.375 668.375 C-357.375 667.715 -357.375 667.055 -357.375 666.375 C-358.365 666.045 -359.355 665.715 -360.375 665.375 C-362.572 662.441 -364.605 659.452 -366.615 656.391 C-369.933 651.518 -369.933 651.518 -372.53 650.68 C-373.139 650.579 -373.748 650.479 -374.375 650.375 C-374.972 647.612 -375.375 645.215 -375.375 642.375 C-376.01 640.033 -376.674 637.698 -377.375 635.375 C-378.016 635.326 -378.656 635.277 -379.316 635.227 C-384.587 634.771 -389.345 634.015 -394.375 632.375 C-394.705 633.035 -395.035 633.695 -395.375 634.375 C-397.843 633.223 -399.423 632.327 -401.375 630.375 C-403.122 629.543 -404.87 628.716 -406.631 627.915 C-422.869 620.427 -434.629 608.117 -441.375 591.375 C-442.621 587.413 -443.573 583.448 -444.375 579.375 C-444.519 578.649 -444.664 577.924 -444.812 577.176 C-447.032 562.61 -443.575 548.992 -437.999 535.637 C-434.151 526.39 -431.613 518.082 -435.375 508.375 C-437.577 503.526 -440.541 500.039 -444.375 496.375 C-454.628 485.942 -462.102 475.066 -466.305 461.043 C-466.658 460.163 -467.011 459.282 -467.375 458.375 C-468.365 458.045 -469.355 457.715 -470.375 457.375 C-471 455 -471 455 -471.375 452.375 C-470.715 451.715 -470.055 451.055 -469.375 450.375 C-469.918 444.288 -469.918 444.288 -471.375 441.375 C-471.952 430.309 -471.603 420.046 -468.375 409.375 C-468.281 409.052 -468.281 409.052 -467.807 407.417 C-464.64 396.517 -460.597 386.594 -455.312 376.562 C-454.972 375.915 -454.631 375.268 -454.28 374.601 C-452.521 371.32 -450.669 368.304 -448.375 365.375 C-448.066 364.715 -447.756 364.055 -447.438 363.375 C-446.375 361.375 -446.375 361.375 -444.637 359.652 C-419.281 334.122 -407.58 298.332 -401.062 263.812 C-400.891 262.921 -400.719 262.029 -400.542 261.11 C-399.589 255.784 -399.255 250.801 -399.511 245.391 C-399.375 243.375 -399.375 243.375 -397.375 241.375 C-396.905 236.713 -397.876 233.587 -399.812 229.375 C-401.659 225.336 -402.804 221.788 -403.375 217.375 C-404.365 217.375 -405.355 217.375 -406.375 217.375 C-406.705 216.385 -407.035 215.395 -407.375 214.375 C-406.715 214.375 -406.055 214.375 -405.375 214.375 C-404.541 211.872 -404.275 210.675 -405.125 208.125 C-405.525 203.727 -402.866 200.849 -400.375 197.375 C-400.969 197.118 -401.564 196.862 -402.176 196.598 C-409.494 193.217 -419.021 188.423 -422.562 180.828 C-422.831 180.019 -423.099 179.209 -423.375 178.375 C-423.54 178.068 -423.54 178.068 -424.375 176.516 C-428.359 168.984 -428.647 160.719 -429.375 152.375 C-430.035 152.375 -430.695 152.375 -431.375 152.375 C-430.375 149.375 -430.375 149.375 -429.422 147.543 C-428.186 144.984 -427.436 142.41 -426.625 139.688 C-424.71 133.829 -422.074 129.267 -418.375 124.375 C-417.756 123.488 -417.137 122.601 -416.5 121.688 C-410.778 115.46 -404.292 112.133 -396.375 109.375 C-396.375 108.715 -396.375 108.055 -396.375 107.375 C-394.979 107.348 -393.583 107.328 -392.188 107.312 C-391.41 107.301 -390.633 107.289 -389.832 107.277 C-387.375 107.375 -387.375 107.375 -382.375 108.375 C-382.705 103.755 -383.035 99.135 -383.375 94.375 C-382.715 94.375 -382.055 94.375 -381.375 94.375 C-381.045 93.715 -380.715 93.055 -380.375 92.375 C-380.045 92.705 -379.715 93.035 -379.375 93.375 C-379.156 92.746 -378.937 92.117 -378.711 91.469 C-374.47 80.021 -366.962 70.163 -355.625 64.938 C-350.079 62.647 -344.712 62.16 -338.75 62.125 C-338.041 62.115 -337.333 62.104 -336.603 62.093 C-332.109 62.111 -328.771 62.787 -324.562 64.5 C-321.988 65.355 -321.988 65.355 -319.375 65.375 C-314.563 62.429 -309.458 58.523 -307.57 53.035 C-307.506 52.487 -307.441 51.939 -307.375 51.375 C-307.375 52.035 -307.375 52.695 -307.375 53.375 C-303.47 51.151 -300.02 48.602 -296.5 45.812 C-290.927 41.444 -285.161 37.458 -279.225 33.599 C-276.743 31.982 -274.477 30.477 -272.375 28.375 C-271.385 28.045 -270.395 27.715 -269.375 27.375 C-267.444 26.388 -265.527 25.375 -263.617 24.348 C-182.363 -18.967 -87.872 -28.596 0 0 Z M-381.375 97.375 C-381.375 99.685 -381.375 101.995 -381.375 104.375 C-381.045 104.375 -380.715 104.375 -380.375 104.375 C-380.375 102.065 -380.375 99.755 -380.375 97.375 C-380.705 97.375 -381.035 97.375 -381.375 97.375 Z M-403.375 203.375 C-403.375 205.025 -403.375 206.675 -403.375 208.375 C-403.045 208.375 -402.715 208.375 -402.375 208.375 C-402.375 206.725 -402.375 205.075 -402.375 203.375 C-402.705 203.375 -403.035 203.375 -403.375 203.375 Z M-372.375 648.375 C-371.375 650.375 -371.375 650.375 -371.375 650.375 Z M47.625 780.375 C43.433 787.2 43.433 787.2 44.188 791.812 C45.625 794.375 45.625 794.375 48.625 795.375 C49.562 797.375 49.562 797.375 50.625 800.375 C51.323 801.984 52.032 803.588 52.75 805.188 C53.103 805.978 53.456 806.768 53.82 807.582 C54.086 808.174 54.351 808.765 54.625 809.375 C55.285 809.045 55.945 808.715 56.625 808.375 C56.625 806.725 56.625 805.075 56.625 803.375 C57.945 803.705 59.265 804.035 60.625 804.375 C60.955 802.725 61.285 801.075 61.625 799.375 C61.295 800.035 60.965 800.695 60.625 801.375 C59.305 800.715 57.985 800.055 56.625 799.375 C56.893 798.839 57.161 798.303 57.438 797.75 C57.625 795.375 57.625 795.375 55.375 792.125 C54.467 791.217 53.56 790.31 52.625 789.375 C51.635 789.375 50.645 789.375 49.625 789.375 C50.285 788.715 50.945 788.055 51.625 787.375 C50.635 785.065 49.645 782.755 48.625 780.375 C48.295 780.375 47.965 780.375 47.625 780.375 Z M42.625 790.375 C42.295 791.035 41.965 791.695 41.625 792.375 C42.285 792.375 42.945 792.375 43.625 792.375 C43.295 791.715 42.965 791.055 42.625 790.375 Z M-1.375 843.375 C-1.69 844.172 -2.004 844.968 -2.328 845.789 C-6.667 856.531 -11.114 862.411 -20.375 869.375 C-20.133 872.223 -20.133 872.223 -19.375 875.375 C-17.555 876.809 -17.555 876.809 -15.25 877.812 C-8.932 880.931 -4.331 885.558 -0.375 891.375 C-0.375 890.715 -0.375 890.055 -0.375 889.375 C0.12 889.54 0.12 889.54 2.625 890.375 C2.807 889.783 2.989 889.192 3.176 888.582 C4.591 884.134 6.105 880.335 8.625 876.375 C8.625 875.715 8.625 875.055 8.625 874.375 C9.199 874.258 9.772 874.14 10.363 874.02 C12.798 873.326 14.65 872.373 16.812 871.062 C17.507 870.654 18.202 870.245 18.918 869.824 C20.95 868.099 21.254 866.97 21.625 864.375 C20.984 864.035 20.344 863.694 19.684 863.344 C10.928 858.438 5.01 852.934 1.625 843.375 C0.635 843.375 -0.355 843.375 -1.375 843.375 Z M-23.375 872.375 C-23.045 873.035 -22.715 873.695 -22.375 874.375 C-21.715 874.045 -21.055 873.715 -20.375 873.375 C-21.365 873.045 -22.355 872.715 -23.375 872.375 Z M-53.375 894.375 C-52.375 896.375 -52.375 896.375 -52.375 896.375 Z M-46.375 908.375 C-45.375 910.375 -45.375 910.375 -45.375 910.375 Z " fill="#4A290F" transform="translate(599.375,28.625)"/>
<path d="M0 0 C1.121 0.043 2.241 0.085 3.396 0.129 C49.009 2.004 104.964 10.817 141.055 41.762 C143.767 43.488 145.864 43.337 149.062 43.375 C164.618 44.231 178.561 49.336 192 57 C193.131 57.641 194.261 58.281 195.426 58.941 C238.054 84.212 264.274 127.778 276.606 174.897 C281.349 193.921 284.374 213.067 285.755 232.611 C286.212 238.936 286.725 245.257 287.25 251.577 C287.431 253.794 287.602 256.012 287.772 258.231 C290.867 296.915 302.237 330.288 326.852 360.5 C344.26 381.983 356.268 406.718 354 435 C352.118 451.763 345.664 465.204 333.918 477.229 C323.237 488.218 317.722 500.537 317.681 515.881 C317.793 523.136 319.494 529.203 322 536 C328.365 553.769 329.617 570.374 322 588 C319.942 591.91 317.646 595.466 315 599 C314.551 599.63 314.103 600.261 313.641 600.91 C304.74 612.402 290.507 619.997 276.727 623.789 C275.61 624.105 274.494 624.422 273.344 624.748 C271.114 625.363 268.872 625.935 266.618 626.457 C258.911 628.576 258.911 628.576 256.248 632.737 C254.983 635.792 253.956 638.837 253 642 C246.43 656.215 234.705 667.606 221 675 C220.139 675.507 219.278 676.013 218.391 676.535 C212.046 680.039 205.493 682.24 198.562 684.25 C197.717 684.496 196.872 684.743 196 684.996 C183.862 688.349 171.99 689.351 159.462 689.316 C157.135 689.313 154.808 689.336 152.48 689.361 C130.9 689.45 130.9 689.45 122 685 C122.145 683.062 122.291 681.125 122.438 679.188 C122.519 678.109 122.6 677.03 122.684 675.918 C122.848 673.878 123.019 671.838 123.256 669.806 C124.32 660.163 124.109 650.499 124.062 640.812 C124.057 638.984 124.053 637.155 124.049 635.326 C124.038 630.884 124.021 626.442 124 622 C127.134 624.082 130.264 626.164 133.34 628.332 C152.333 641.517 174.413 651.05 198 649 C207.496 647.19 217.961 643.452 224 635.5 C228.217 628.63 228.82 621.943 228 614 C223.923 598.996 212.402 589.918 200.617 580.82 C187.768 570.873 175.804 559.848 164.25 548.438 C163.939 548.133 163.939 548.133 162.367 546.594 C160.872 545.102 159.43 543.555 158 542 C158 541.34 158 540.68 158 540 C157.34 540 156.68 540 156 540 C154.59 538.602 154.59 538.602 152.938 536.625 C150.209 533.417 147.449 530.25 144.625 527.125 C142.363 524.619 140.101 522.112 137.848 519.598 C128.811 509.515 119.731 499.547 109.984 490.145 C108 488 108 488 108 486 C108.809 485.744 109.619 485.488 110.452 485.225 C133.905 477.758 154.871 469.513 175 455 C175.942 454.323 176.885 453.646 177.855 452.949 C191.307 442.701 204.092 429.637 211.309 414.188 C217.234 401.713 217.234 401.713 222.578 399.555 C226.41 399.128 230.148 399.053 234 399 C247.839 395.797 258.626 386.496 266.188 374.812 C275.935 358.353 278.588 339.111 274.098 320.523 C270.526 309.057 265.299 300.083 254.883 293.703 C250.453 291.464 246.099 290.608 241.203 289.898 C240.621 289.813 240.621 289.813 237.677 289.38 C236.793 289.255 235.91 289.129 235 289 C234.935 288.153 234.871 287.307 234.804 286.434 C233.484 269.531 231.862 252.721 229.438 235.938 C229.332 235.199 229.226 234.461 229.117 233.7 C225.986 211.986 225.986 211.986 223 209 C216.995 208.454 216.995 208.454 214.062 210.062 C210.794 216.023 213.898 225.395 214.938 231.688 C216.325 240.118 217.422 248.472 218 257 C202.908 252.364 190.475 244.751 179 234 C178.203 233.283 177.407 232.567 176.586 231.828 C150.446 207.259 139.408 171.669 135.325 137.106 C135 135 135 135 134 132 C132.742 131.938 131.484 131.876 130.188 131.812 C129.48 131.778 128.772 131.743 128.043 131.707 C126 132 126 132 124.406 133.035 C122.312 135.961 121.398 139.234 120.312 142.625 C106.703 182.773 78.164 211.838 40.541 230.773 C30.314 235.712 19.732 239.699 8.812 242.812 C8.174 242.995 7.535 243.178 6.876 243.367 C-6.9 247.036 -20.327 248.497 -34.548 248.391 C-37.13 248.375 -39.711 248.391 -42.293 248.41 C-52.568 248.421 -62.012 247.487 -72 245 C-69.039 241.962 -66.145 239.659 -62.562 237.375 C-32.08 217.349 1.445 186.737 11 150 C10.805 146.793 10.805 146.793 10 144 C7 142 7 142 3.684 141.637 C-0.693 143.257 -0.991 144.109 -3.027 148.145 C-4.021 150.357 -4.99 152.58 -5.938 154.812 C-6.977 157.115 -8.022 159.414 -9.074 161.711 C-9.575 162.809 -10.075 163.907 -10.591 165.038 C-13.166 170.452 -16.352 175.242 -20 180 C-20.62 180.826 -21.24 181.653 -21.879 182.504 C-51.002 220.1 -92.436 242.769 -136 260 C-136.482 260.191 -136.482 260.191 -138.923 261.158 C-153.06 266.674 -167.51 271.051 -182.062 275.312 C-182.498 275.44 -182.498 275.44 -184.7 276.085 C-215.251 285 -215.251 285 -221 285 C-221.133 284.29 -221.266 283.579 -221.402 282.848 C-221.579 281.929 -221.756 281.009 -221.938 280.062 C-222.112 279.146 -222.286 278.229 -222.465 277.285 C-223 275 -223 275 -224 274 C-226.671 273.859 -229.324 273.958 -232 274 C-234.95 280.167 -234.95 280.167 -235.152 283.516 C-235.333 286.466 -235.593 288.383 -237 291 C-240.359 292.791 -243.676 293.802 -247.324 294.879 C-256.95 297.815 -264.291 303.757 -270 312 C-278.259 328.952 -277.601 347.169 -271.746 364.77 C-266.419 378.167 -256.811 390.553 -243.562 396.875 C-237.172 399.496 -230.43 401.973 -223.477 402.027 C-220 403 -220 403 -218.65 404.666 C-217.35 407.004 -216.224 409.373 -215.125 411.812 C-209.115 424.137 -201.42 434.019 -192 444 C-191.316 444.749 -190.631 445.498 -189.926 446.27 C-168.765 468.604 -138.536 478.863 -110 488 C-111.352 491.03 -112.855 493.085 -115.23 495.391 C-115.869 496.018 -116.508 496.646 -117.166 497.293 C-117.833 497.939 -118.5 498.585 -119.188 499.25 C-123.747 503.687 -128.113 508.187 -132.265 513.009 C-135.169 516.341 -138.213 519.539 -141.25 522.75 C-145.136 526.864 -149 530.994 -152.803 535.185 C-158.814 541.798 -165.014 548.201 -171.334 554.519 C-173.004 556.192 -174.666 557.872 -176.328 559.553 C-182.172 565.427 -188.099 570.941 -194.605 576.085 C-197.002 578.001 -199.288 580.004 -201.562 582.062 C-204.662 584.857 -207.841 587.487 -211.125 590.062 C-221.248 598.114 -229.404 606.943 -231.32 620.219 C-231.751 628.38 -228.295 636.868 -223 643 C-210.756 651.867 -197.717 654.704 -182.816 652.422 C-160.672 648.42 -142.882 636.31 -126 622 C-124.289 625.423 -124.902 629.346 -124.938 633.109 C-124.939 633.569 -124.939 633.569 -124.949 635.892 C-124.965 639.822 -124.993 643.752 -125.021 647.682 C-125.092 658.843 -125.067 669.879 -124 681 C-149.415 689.944 -183.155 691.038 -209 683 C-209.703 682.786 -210.405 682.571 -211.129 682.351 C-232.767 675.518 -252.785 662.084 -264.25 642.125 C-264.587 641.542 -264.924 640.958 -265.271 640.357 C-266.919 637.38 -268.121 634.591 -269.09 631.324 C-270.308 627.426 -271.207 625.006 -274 622 C-279.86 619.857 -286.298 619.794 -292.464 619.291 C-305.618 617.782 -316.661 609.37 -325.027 599.602 C-333.693 588.173 -336.738 574.138 -335 560 C-333.161 550.582 -329.604 541.504 -326.016 532.637 C-322.337 523.086 -322.759 511.848 -326.754 502.477 C-330.083 495.86 -333.95 490.942 -339.312 485.812 C-349.603 475.885 -355.231 464.697 -359 451 C-359.178 450.398 -359.356 449.796 -359.54 449.176 C-362.529 435.047 -361.164 417.426 -356 404 C-355.638 402.988 -355.276 401.976 -354.902 400.934 C-349.115 385.886 -339.809 372.788 -330.012 360.125 C-323.098 351.157 -317.162 342.084 -312 332 C-311.682 331.383 -311.364 330.766 -311.036 330.13 C-299.538 307.525 -292.51 280.968 -290.387 255.738 C-290 253 -290 253 -288 250 C-287.18 250.422 -286.36 250.843 -285.516 251.277 C-284.438 251.825 -283.36 252.373 -282.25 252.938 C-281.183 253.483 -280.115 254.028 -279.016 254.59 C-270.334 258.65 -260.894 257.541 -251.855 255.039 C-244.104 252.218 -238.55 246.915 -233 241 C-231.67 239.663 -230.338 238.329 -229 237 C-228.478 237.519 -227.956 238.039 -227.418 238.574 C-218.571 246.956 -209.188 251.373 -196.996 251.211 C-185.972 250.435 -175.28 245.841 -167.625 237.812 C-163.659 232.993 -161.203 227.807 -159 222 C-158.567 220.907 -158.134 219.814 -157.688 218.688 C-155.391 206.369 -157.036 195.011 -163.75 184.375 C-164.178 183.764 -164.606 183.153 -165.047 182.523 C-166 181 -166 181 -166 179 C-164.517 178.063 -162.986 177.201 -161.438 176.375 C-151.098 170.315 -146.033 161.338 -142.688 150 C-140.052 137.41 -143.467 125.937 -150.309 115.254 C-155.943 107.746 -163.748 102.78 -173 101 C-181.855 100.351 -189.354 100.878 -197.707 104.125 C-200 105 -200 105 -202 105 C-202.043 104.661 -202.043 104.661 -202.262 102.945 C-203.751 93.08 -207.235 85.344 -214 78 C-212.479 74.162 -210.208 72.283 -207 69.75 C-206.004 68.959 -205.007 68.167 -203.98 67.352 C-203.489 66.964 -203.489 66.964 -201 65 C-200.212 64.348 -199.425 63.695 -198.613 63.023 C-182.001 49.316 -163.442 38.177 -144 29 C-143.306 28.671 -142.611 28.343 -141.896 28.004 C-97.865 7.364 -48.627 -2.09 0 0 Z " fill="#FE9138" transform="translate(505,28)"/>
<path d="M0 0 C0.66 0 1.32 0 2 0 C2.14 0.542 2.28 1.084 2.424 1.642 C9.806 29.825 21.873 53.636 42 75 C42.3 75.332 42.3 75.332 43.816 77.012 C56.918 90.962 73.842 99.654 91.621 106.09 C94 107 94 107 95 108 C95.103 109.382 95.139 110.769 95.145 112.155 C95.148 112.598 95.148 112.598 95.165 114.842 C95.165 115.328 95.165 115.328 95.168 117.789 C95.171 118.799 95.175 119.808 95.178 120.848 C95.183 123.005 95.185 125.163 95.185 127.32 C95.187 130.535 95.205 133.75 95.225 136.965 C95.317 170.25 91.486 203.299 78 234 C77.573 235.002 77.147 236.003 76.707 237.035 C63.027 266.842 34.292 287.471 4.417 299.105 C-19.085 307.805 -43.489 312.814 -68.25 316.312 C-69.378 316.472 -70.507 316.632 -71.669 316.796 C-88.906 319.075 -106.141 319.205 -123.5 319.188 C-124.621 319.187 -125.742 319.186 -126.896 319.186 C-154.906 319.145 -182.358 317.915 -210 313 C-211.008 312.826 -212.016 312.653 -213.054 312.474 C-253.202 305.414 -294.023 289.52 -318.828 255.492 C-342.056 220.441 -347.493 176.202 -347 135 C-340.825 132.883 -334.615 130.983 -328.332 129.215 C-326.465 128.685 -324.599 128.154 -322.732 127.623 C-321.766 127.348 -320.799 127.073 -319.804 126.79 C-286.757 117.37 -253.463 107.601 -222.907 91.552 C-218.46 89.306 -215.971 88.577 -211 90 C-209.742 90.298 -208.484 90.596 -207.188 90.902 C-205.117 91.411 -203.047 91.925 -200.98 92.451 C-189.144 95.339 -177.432 96.332 -165.296 96.261 C-163.134 96.25 -160.971 96.261 -158.809 96.273 C-145.007 96.289 -131.65 94.804 -118.25 91.375 C-117.235 91.117 -116.22 90.859 -115.174 90.593 C-82.871 82.043 -53.245 64.796 -29 42 C-28.339 41.403 -27.677 40.806 -26.996 40.191 C-15.54 29.43 -5.654 14.633 0 0 Z " fill="#FED6AB" transform="translate(630,194)"/>
<path d="M0 0 C30.195 1.787 59.813 6.815 86.66 21.443 C91.662 23.934 91.662 23.934 94.805 24.009 C97.723 22.603 97.723 22.603 100.992 20.509 C127.786 4.19 160.98 -0.123 191.805 1.009 C198.732 22.849 198.732 22.849 201.117 33.572 C201.191 33.897 201.191 33.897 201.562 35.544 C204.228 48.076 205.182 60.366 205.117 73.134 C205.116 73.519 205.116 73.519 205.111 75.466 C205.056 87.556 204.412 99.169 201.805 111.009 C201.622 111.894 201.439 112.779 201.251 113.691 C197.839 129.949 192.192 145.105 186.149 160.544 C178.897 179.239 171.781 198.938 171.617 219.259 C171.603 220.069 171.589 220.878 171.574 221.712 C171.834 224.297 172.351 225.858 173.805 228.009 C177.117 229.072 177.117 229.072 180.805 229.009 C183.305 227.072 183.305 227.072 185.805 224.009 C208.563 196.998 241.435 182.778 276.167 179.472 C293.022 178.082 293.022 178.082 298.805 180.009 C299.705 194.191 295.408 207.584 288.805 220.009 C288.292 221.003 287.779 221.997 287.25 223.021 C274.412 246.516 252.557 261.851 229.141 273.74 C226.805 275.009 226.805 275.009 224.805 277.009 C224.262 282.221 225.386 286.164 226.973 291.104 C229.877 301.246 230.162 311.653 230.117 322.134 C230.115 322.81 230.114 323.487 230.112 324.183 C230.022 343.996 227.92 373.894 212.805 389.009 C207.79 388.783 204.958 387.047 201.055 384.009 C200.534 383.605 200.014 383.2 199.478 382.784 C194.364 378.759 189.519 374.492 184.805 370.009 C184.298 369.53 183.791 369.05 183.269 368.556 C162.643 348.916 144.428 322.794 143.6 293.286 C143.548 288.276 143.636 283.269 143.742 278.259 C143.79 275.68 143.833 273.102 143.864 270.523 C143.884 268.934 143.914 267.346 143.954 265.758 C144.007 261.938 143.98 260.272 141.805 257.009 C139.676 256.229 139.676 256.229 137.027 255.65 C136.049 255.425 135.07 255.201 134.062 254.969 C133.535 254.852 133.535 254.852 130.867 254.259 C97.343 246.288 66.804 230.625 40.805 208.009 C40.241 207.52 39.678 207.032 39.098 206.528 C5.496 177.116 -13.896 136.35 -17.031 91.759 C-18.368 61.205 -15.402 29.41 -3.195 1.009 C-2.195 0.009 -2.195 0.009 0 0 Z M236.805 213.009 C232.612 219.835 232.612 219.835 233.367 224.447 C234.805 227.009 234.805 227.009 237.805 228.009 C238.742 230.009 238.742 230.009 239.805 233.009 C240.503 234.618 241.212 236.222 241.93 237.822 C242.283 238.612 242.636 239.402 243 240.216 C243.266 240.808 243.531 241.4 243.805 242.009 C244.465 241.679 245.125 241.349 245.805 241.009 C245.805 239.359 245.805 237.709 245.805 236.009 C247.125 236.339 248.445 236.669 249.805 237.009 C250.135 235.359 250.465 233.709 250.805 232.009 C250.475 232.669 250.145 233.329 249.805 234.009 C248.485 233.349 247.165 232.689 245.805 232.009 C246.073 231.473 246.341 230.937 246.617 230.384 C246.805 228.009 246.805 228.009 244.555 224.759 C243.647 223.852 242.74 222.944 241.805 222.009 C240.815 222.009 239.825 222.009 238.805 222.009 C239.465 221.349 240.125 220.689 240.805 220.009 C239.815 217.699 238.825 215.389 237.805 213.009 C237.475 213.009 237.145 213.009 236.805 213.009 Z M231.805 223.009 C231.475 223.669 231.145 224.329 230.805 225.009 C231.465 225.009 232.125 225.009 232.805 225.009 C232.475 224.349 232.145 223.689 231.805 223.009 Z M187.805 276.009 C187.49 276.806 187.176 277.603 186.852 278.423 C182.513 289.166 178.066 295.046 168.805 302.009 C169.047 304.857 169.047 304.857 169.805 308.009 C171.625 309.443 171.625 309.443 173.93 310.447 C180.247 313.565 184.849 318.192 188.805 324.009 C188.805 323.349 188.805 322.689 188.805 322.009 C189.3 322.174 189.3 322.174 191.805 323.009 C191.986 322.418 192.168 321.826 192.355 321.216 C193.77 316.768 195.284 312.97 197.805 309.009 C197.805 308.349 197.805 307.689 197.805 307.009 C198.378 306.892 198.952 306.775 199.543 306.654 C201.978 305.96 203.829 305.007 205.992 303.697 C206.687 303.288 207.382 302.88 208.098 302.458 C210.13 300.733 210.434 299.604 210.805 297.009 C210.164 296.669 209.523 296.329 208.863 295.978 C200.108 291.072 194.19 285.568 190.805 276.009 C189.815 276.009 188.825 276.009 187.805 276.009 Z M165.805 305.009 C166.135 305.669 166.465 306.329 166.805 307.009 C167.465 306.679 168.125 306.349 168.805 306.009 C167.815 305.679 166.825 305.349 165.805 305.009 Z " fill="#3FC5BA" transform="translate(410.1953125,595.99072265625)"/>
<path d="M0 0 C0.976 0.109 1.952 0.218 2.958 0.331 C6.491 0.783 10.023 1.244 13.55 1.745 C37.506 5.102 61.442 6.117 85.613 6.086 C86.272 6.086 86.272 6.086 89.605 6.088 C112.241 6.085 134.496 4.737 156.926 1.711 C158.332 1.526 159.738 1.341 161.144 1.156 C170.607 -0.091 170.607 -0.091 174.621 -0.694 C178.2 -1.171 180.173 -0.792 183.199 1.23 C185.385 3.137 187.442 5.114 189.457 7.2 C191.087 8.876 192.753 10.511 194.426 12.145 C199.842 17.457 205.183 22.798 210.09 28.59 C212.633 31.528 215.282 34.364 217.926 37.211 C221.138 40.674 224.337 44.137 227.426 47.711 C240.289 62.509 253.801 77.537 269.277 89.633 C272.466 92.135 275.535 94.762 278.613 97.398 C282.108 100.386 285.623 103.284 289.363 105.961 C293.173 108.75 296.063 111.975 298.926 115.711 C299.545 116.453 300.163 117.196 300.801 117.961 C302.665 122.518 302.763 126.88 301.926 131.711 C299.333 136.973 295.661 139.187 290.169 141.113 C286.282 142.149 282.495 142.242 278.488 142.211 C277.617 142.204 276.746 142.198 275.849 142.191 C257.823 141.693 239.355 133.648 225.926 121.711 C225.107 120.999 224.289 120.288 223.445 119.555 C220.901 117.307 218.394 115.041 215.926 112.711 C215.289 112.199 214.651 111.686 213.995 111.158 C207.749 105.74 205.904 100.011 203.933 92.114 C203.065 88.644 202.104 85.199 201.156 81.75 C200.97 81.063 200.784 80.375 200.592 79.667 C197.024 66.594 192.86 51.904 184.926 40.711 C182.097 39.297 180.052 39.392 176.926 39.711 C174.988 41.273 174.988 41.273 173.926 43.711 C174.025 48.855 175.653 52.604 178.086 57.012 C178.926 58.711 178.926 58.711 178.926 60.711 C178.214 60.745 177.502 60.78 176.768 60.815 C146.892 62.356 115.905 66.257 89.633 81.656 C86.926 82.711 86.926 82.711 84.605 82.121 C83.721 81.656 82.837 81.19 81.926 80.711 C80.614 80.133 79.297 79.568 77.977 79.012 C77.225 78.693 76.473 78.374 75.698 78.046 C49.88 67.315 22.605 62.569 -5.074 59.711 C-4.702 58.926 -4.329 58.141 -3.945 57.332 C0.863 46.653 0.863 46.653 -1.074 40.711 C-1.734 40.051 -2.394 39.391 -3.074 38.711 C-6.449 38.711 -6.449 38.711 -10.074 39.711 C-14.197 44.723 -16.173 50.609 -18.387 56.648 C-18.581 57.174 -18.581 57.174 -19.567 59.831 C-22.23 67.122 -24.641 74.469 -26.887 81.898 C-27.182 82.863 -27.477 83.827 -27.781 84.82 C-28.95 88.699 -30.032 92.502 -30.832 96.477 C-33.964 111.091 -48.851 121.694 -60.773 129.602 C-61.863 130.298 -62.952 130.994 -64.074 131.711 C-65.091 132.366 -66.108 133.021 -67.156 133.695 C-78.424 140.607 -91.14 146.124 -104.512 146.023 C-105.262 146.02 -106.012 146.017 -106.784 146.013 C-112.175 145.907 -116.232 145.225 -121.074 142.711 C-122.002 142.257 -122.93 141.803 -123.887 141.336 C-127.374 138.745 -128.774 136.596 -129.465 132.258 C-129.928 124.718 -127.92 120.369 -123.074 114.711 C-122.591 114.141 -122.107 113.571 -121.609 112.984 C-117.43 108.496 -112.521 104.854 -107.686 101.11 C-90.321 87.633 -73.235 72.658 -58.973 55.891 C-56.45 52.995 -53.821 50.205 -51.199 47.398 C-47.59 43.524 -44.12 39.609 -40.824 35.461 C-32.057 24.545 -22.071 14.498 -12.074 4.711 C-11.527 4.17 -10.98 3.629 -10.417 3.071 C-6.879 0.03 -4.644 -0.538 0 0 Z " fill="#FDD7AD" transform="translate(417.07421875,521.2890625)"/>
<path d="M0 0 C7.992 4.443 12.09 11.137 15.375 19.5 C16.439 25.458 16.522 31.138 15 37 C14.812 40.625 14.812 40.625 15 44 C17 46 17 46 19.625 46.562 C24.007 45.832 25.689 43.876 28.848 40.887 C36.143 34.492 43.4 32.603 52.898 32.73 C59.633 33.316 64.266 35.862 68.875 40.75 C75.052 48.561 76.044 56.138 75 66 C72.941 74.713 67.995 80.983 60.938 86.312 C56.295 88.725 51.008 89.427 45.914 90.387 C43 91 43 91 42 92 C41.648 94.855 41.648 94.855 42 98 C43.977 99.801 43.977 99.801 46.625 101.312 C53.379 105.627 57.526 111.367 60 119 C61.062 129.809 60.058 139.144 53.188 147.875 C48.401 153.013 42.871 155.659 35.898 156.273 C26.622 156.541 20.212 155.411 13.043 149.344 C7.698 143.847 4.912 136.997 2 130 C0 129.957 -2 129.959 -4 130 C-5.869 131.869 -5.792 135.052 -6.25 137.562 C-8.276 147.156 -11.922 153.363 -20 159 C-26.291 162.774 -32.791 162.915 -40 162 C-49.07 159.017 -55.077 152.995 -60 145 C-63.3 138.086 -62.979 129.972 -60.562 122.812 C-58.413 117.881 -55.12 115.114 -50.828 111.984 C-49 110 -49 110 -48.547 106.891 C-48.696 105.937 -48.846 104.983 -49 104 C-52.506 101.662 -53.756 102.098 -57.758 102.691 C-65.189 103.714 -70.664 103.252 -77 99 C-82.582 94.306 -86.383 88.141 -88 81 C-88.857 70.502 -87.407 62.161 -80.742 53.855 C-75.992 48.796 -70.455 44.65 -63.457 43.629 C-56.917 43.465 -52.959 44.738 -47.305 47.953 C-43.799 49.546 -41.634 49.027 -38 48 C-37.836 44.059 -37.94 41.217 -39 37.375 C-41.507 28.002 -40.869 18.437 -36 10 C-27.504 -2.8 -13.827 -6.576 0 0 Z " fill="#FC99A3" transform="translate(274,109)"/>
<path d="M0 0 C7.171 4.454 11.387 10.905 13.699 18.93 C15.808 30.852 15.39 43.004 9.508 53.754 C4.473 59.94 -0.944 63.917 -8.887 64.797 C-18.094 65.166 -24.641 63.733 -31.707 57.715 C-38.865 50.36 -41.036 41.885 -41.117 31.879 C-40.963 21.354 -38.672 11.815 -31.27 3.941 C-22.385 -4.02 -10.726 -4.949 0 0 Z " fill="#4A290D" transform="translate(403.6796875,345.55859375)"/>
<path d="M0 0 C6.444 4.923 10.134 12.725 11.773 20.574 C13.14 31.467 12.771 44.125 6.242 53.379 C1.048 59.456 -4.782 62.34 -12.742 63.074 C-20.654 63.375 -26.93 62.424 -32.949 57.016 C-41.343 47.991 -42.438 38.169 -42.215 26.254 C-41.797 16.672 -39.033 8.51 -32.215 1.629 C-22.632 -6.024 -10.368 -6.308 0 0 Z " fill="#4A290D" transform="translate(636.9453125,346.18359375)"/>
<path d="M0 0 C8.175 4.891 13.448 11.305 16.188 20.438 C17.037 28.933 16.58 36.491 11.516 43.656 C5.5 50.709 -0.788 55.332 -10.227 56.176 C-18.791 56.39 -25.026 54.721 -32.312 50.25 C-38.98 43.397 -42.507 36.221 -42.938 26.625 C-42.762 18.128 -39.656 10.896 -33.562 4.938 C-23.841 -2.349 -11.544 -5.433 0 0 Z " fill="#44240C" transform="translate(281.5625,168.0625)"/>
<path d="M0 0 C6.734 -0.211 11.367 0.035 17 4 C23.758 10.604 27.066 19.264 27.242 28.634 C27.295 42.533 25.377 54.9 18 67 C17.594 67.677 17.188 68.354 16.77 69.051 C12.223 75.359 3.105 80.137 -4.455 81.415 C-6.636 81.66 -8.809 81.861 -11 82 C-10.834 81.322 -10.668 80.645 -10.497 79.947 C-3.994 53.193 -1.295 27.417 0 0 Z " fill="#FDD9AF" transform="translate(740,332)"/>
<path d="M0 0 C0.04 0.727 0.079 1.453 0.12 2.202 C1.63 28.873 4.767 54.98 11 81 C0.733 79.872 -7.739 75.639 -14.254 67.539 C-23.303 54.381 -26.495 39.75 -25 24 C-22.989 16.007 -18.953 8.635 -12 4 C-4.179 0 -4.179 0 0 0 Z " fill="#FCD9B0" transform="translate(268,334)"/>
<path d="M0 0 C4.021 0.821 5.339 2.623 8.062 5.625 C14.341 9.913 19.923 9.834 27.312 9.875 C28.229 9.896 29.146 9.916 30.09 9.938 C36.129 9.972 40.584 9.22 46.062 6.625 C46.908 5.738 47.754 4.851 48.625 3.938 C51.062 1.625 51.062 1.625 54.625 1 C58.062 1.625 58.062 1.625 60.5 3.75 C62.392 7.231 62.842 8.726 62.062 12.625 C57.828 19.975 51.209 22.372 43.457 24.715 C38.362 25.948 33.342 25.918 28.125 25.875 C27.656 25.879 27.656 25.879 25.283 25.898 C14.727 25.869 5.296 24.115 -2.836 16.953 C-5.471 14.157 -6.8 12.311 -7.562 8.5 C-6.533 3.763 -4.878 1.038 0 0 Z " fill="#44260D" transform="translate(478.9375,428.375)"/>
<path d="M0 0 C4.664 2.655 8.224 5.77 9.773 11.062 C10.756 17.853 10.57 23.803 6.379 29.438 C2.191 33.676 -2.332 35.272 -8.227 35.625 C-13.54 35.38 -17.331 33.67 -21.227 30.062 C-25.216 24.778 -26.766 19.642 -26.227 13.062 C-24.208 6.401 -20.117 2.558 -14.227 -0.938 C-9.366 -2.558 -4.718 -1.987 0 0 Z " fill="#FC963C" transform="translate(276.2265625,177.9375)"/>
<path d="M0 0 C0.66 0 1.32 0 2 0 C-5.168 20.691 -26.18 35.188 -44.062 46.062 C-44.669 46.433 -45.276 46.803 -45.901 47.184 C-49.495 49.306 -52.998 50.824 -57 52 C-54.266 48.828 -50.768 46.996 -47.188 44.938 C-27.909 33.567 -10.583 20.246 0 0 Z " fill="#430E08" transform="translate(697,818)"/>
<path d="M0 0 C1.32 0.33 2.64 0.66 4 1 C3.67 1.495 3.67 1.495 2 4 C1.34 4 0.68 4 0 4 C0 2.68 0 1.36 0 0 Z " fill="#9ED6C9" transform="translate(616,893)"/>
<path d="M0 0 C1.32 0.33 2.64 0.66 4 1 C3.67 1.99 3.34 2.98 3 4 C2.01 3.34 1.02 2.68 0 2 C0 1.34 0 0.68 0 0 Z " fill="#9A804F" transform="translate(384,738)"/>
<path d="M0 0 C0.825 0.33 0.825 0.33 5 2 C4.01 2.33 3.02 2.66 2 3 C1.01 2.34 0.02 1.68 -1 1 C-0.67 0.67 -0.34 0.34 0 0 Z " fill="#8C8154" transform="translate(481,844)"/>
<path d="M0 0 C0.825 0.33 0.825 0.33 5 2 C3.68 2.33 2.36 2.66 1 3 C0.67 2.01 0.34 1.02 0 0 Z " fill="#B26F3B" transform="translate(184,653)"/>
<path d="M0 0 C0.33 0.165 0.33 0.165 2 1 C2 1.99 2 2.98 2 4 C1.34 4 0.68 4 0 4 C0 2.68 0 1.36 0 0 Z " fill="#B06A38" transform="translate(296,72)"/>
<path d="M0 0 C0.33 0 0.66 0 1 0 C1 1.65 1 3.3 1 5 C0.34 4.67 -0.32 4.34 -1 4 C-0.67 2.68 -0.34 1.36 0 0 Z " fill="#918A5C" transform="translate(538,896)"/>
<path d="M0 0 C1.65 0 3.3 0 5 0 C4.67 0.66 4.34 1.32 4 2 C2.68 1.67 1.36 1.34 0 1 C0 0.67 0 0.34 0 0 Z " fill="#AD8955" transform="translate(648,733)"/>
<path d="M0 0 C0.33 0 0.66 0 1 0 C1 2.31 1 4.62 1 7 C0.67 7 0.34 7 0 7 C0 4.69 0 2.38 0 0 Z " fill="#B9743F" transform="translate(128,472)"/>
<path d="M0 0 C1.32 0.33 2.64 0.66 4 1 C3.67 1.495 3.67 1.495 2 4 C2 3.01 2 2.02 2 1 C1.34 0.67 0.68 0.34 0 0 Z " fill="#B46C38" transform="translate(320,56)"/>
<path d="M0 0 C1.65 0 3.3 0 5 0 C4.67 0.66 4.34 1.32 4 2 C2.68 1.67 1.36 1.34 0 1 C0 0.67 0 0.34 0 0 Z " fill="#B86F3A" transform="translate(337,48)"/>
<path d="M0 0 C0.33 0 0.66 0 1 0 C1 1.98 1 3.96 1 6 C0.67 6 0.34 6 0 6 C0 4.02 0 2.04 0 0 Z " fill="#948E60" transform="translate(536,872)"/>
<path d="M0 0 C0.99 0.33 1.98 0.66 3 1 C1.35 1.33 -0.3 1.66 -2 2 C-1.34 1.34 -0.68 0.68 0 0 Z " fill="#8E865A" transform="translate(500,854)"/>
<path d="M0 0 C0.66 0 1.32 0 2 0 C2 1.65 2 3.3 2 5 C0 1.125 0 1.125 0 0 Z " fill="#B06B3A" transform="translate(153,608)"/>
<path d="M0 0 C0.66 0 1.32 0 2 0 C1.67 1.32 1.34 2.64 1 4 C0.67 2.68 0.34 1.36 0 0 Z " fill="#B67A45" transform="translate(806,254)"/>
<path d="M0 0 C0.33 0 0.66 0 1 0 C1 1.98 1 3.96 1 6 C0.67 6 0.34 6 0 6 C0 4.02 0 2.04 0 0 Z " fill="#AB683A" transform="translate(169,187)"/>
<path d="M0 0 C0.66 0.66 1.32 1.32 2 2 C1.01 2 0.02 2 -1 2 C-0.67 1.34 -0.34 0.68 0 0 Z " fill="#8FD0C1" transform="translate(652,821)"/>
<path d="M0 0 C0.33 0.165 0.33 0.165 2 1 C2 1.66 2 2.32 2 3 C1.34 3 0.68 3 0 3 C0 2.01 0 1.02 0 0 Z " fill="#8C7A4D" transform="translate(400,768)"/>
<path d="M0 0 C0.33 0.99 0.66 1.98 1 3 C0.34 3 -0.32 3 -1 3 C-0.67 2.01 -0.34 1.02 0 0 Z " fill="#BA723F" transform="translate(177,353)"/>
<path d="M0 0 C0.99 0.33 1.98 0.66 3 1 C2.01 1.33 1.02 1.66 0 2 C0 1.34 0 0.68 0 0 Z " fill="#B1693B" transform="translate(186,220)"/>
<path d="M0 0 C0.99 0.33 1.98 0.66 3 1 C2.01 1 1.02 1 0 1 C0 0.67 0 0.34 0 0 Z " fill="#A0D6C9" transform="translate(595,913)"/>
<path d="M0 0 C0.66 0.33 1.32 0.66 2 1 C1.01 1 0.02 1 -1 1 C-0.67 0.67 -0.34 0.34 0 0 Z " fill="#A4D8CC" transform="translate(601,908)"/>
<path d="M0 0 C4 1 4 1 4 1 Z " fill="#A4D9CD" transform="translate(611,896)"/>
<path d="M0 0 C1 4 1 4 1 4 Z " fill="#928E5F" transform="translate(536,880)"/>
<path d="M0 0 C0.495 0.33 0.495 0.33 3 2 C2.01 2 1.02 2 0 2 C0 1.34 0 0.68 0 0 Z " fill="#8D7D4F" transform="translate(433,810)"/>
<path d="M0 0 C0 3 0 3 0 3 Z " fill="#8D7A4E" transform="translate(401,772)"/>
<path d="M0 0 C4 1 4 1 4 1 Z " fill="#AE8957" transform="translate(693,731)"/>
<path d="M0 0 C1 4 1 4 1 4 Z " fill="#B26E3B" transform="translate(152,594)"/>
<path d="M0 0 C1 4 1 4 1 4 Z " fill="#AE6C3B" transform="translate(153,586)"/>
<path d="M0 0 C1 4 1 4 1 4 Z " fill="#B26F3E" transform="translate(152,577)"/>
<path d="M0 0 C0.33 0.165 0.33 0.165 2 1 C1.34 1.66 0.68 2.32 0 3 C0 2.01 0 1.02 0 0 Z " fill="#AC6B3A" transform="translate(136,409)"/>
<path d="M0 0 C1 4 1 4 1 4 Z " fill="#BF7441" transform="translate(192,312)"/>
<path d="M0 0 C0.66 0 1.32 0 2 0 C1.67 0.99 1.34 1.98 1 3 C0.67 2.01 0.34 1.02 0 0 Z " fill="#BD7644" transform="translate(192,307)"/>
<path d="M0 0 C0.66 0.66 1.32 1.32 2 2 C1.67 2.165 1.67 2.165 0 3 C0 2.01 0 1.02 0 0 Z " fill="#AF6A3A" transform="translate(193,248)"/>
<path d="M0 0 C0.495 0.33 0.495 0.33 3 2 C2.01 2 1.02 2 0 2 C0 1.34 0 0.68 0 0 Z " fill="#BA6F3B" transform="translate(368,34)"/>
<path d="M0 0 C0.66 0.66 1.32 1.32 2 2 C1.34 2 0.68 2 0 2 C0 1.34 0 0.68 0 0 Z " fill="#917A49" transform="translate(587,980)"/>
<path d="M0 0 C0.33 0.66 0.66 1.32 1 2 C0.34 1.67 -0.32 1.34 -1 1 C-0.67 0.67 -0.34 0.34 0 0 Z " fill="#907A48" transform="translate(585,980)"/>
<path d="M0 0 C0.66 0.66 1.32 1.32 2 2 C1.34 2 0.68 2 0 2 C0 1.34 0 0.68 0 0 Z " fill="#8E7647" transform="translate(571,964)"/>
<path d="M0 0 C0.33 0.66 0.66 1.32 1 2 C0.34 1.67 -0.32 1.34 -1 1 C-0.67 0.67 -0.34 0.34 0 0 Z " fill="#8E7846" transform="translate(569,964)"/>
<path d="M0 0 C0.66 0.66 1.32 1.32 2 2 C1.34 2 0.68 2 0 2 C0 1.34 0 0.68 0 0 Z " fill="#919169" transform="translate(652,958)"/>
<path d="" fill="#909068" transform="translate(0,0)"/>
<path d="" fill="#A7D6CB" transform="translate(0,0)"/>
<path d="M0 0 C0.33 0.66 0.66 1.32 1 2 C0.34 1.67 -0.32 1.34 -1 1 C-0.67 0.67 -0.34 0.34 0 0 Z " fill="#9FD7CA" transform="translate(585,894)"/>
<path d="" fill="#909770" transform="translate(0,0)"/>
<path d="M0 0 C0.33 0.66 0.66 1.32 1 2 C0.34 1.67 -0.32 1.34 -1 1 C-0.67 0.67 -0.34 0.34 0 0 Z " fill="#A2D6CA" transform="translate(607,886)"/>
<path d="" fill="#A0D7CB" transform="translate(0,0)"/>
<path d="M0 0 C0.33 0.66 0.66 1.32 1 2 C0.34 1.67 -0.32 1.34 -1 1 C-0.67 0.67 -0.34 0.34 0 0 Z " fill="#9AD5C7" transform="translate(601,877)"/>
<path d="" fill="#908C5E" transform="translate(0,0)"/>
<path d="M0 0 C0.33 0.66 0.66 1.32 1 2 C0.34 1.67 -0.32 1.34 -1 1 C-0.67 0.67 -0.34 0.34 0 0 Z " fill="#8E9067" transform="translate(680,862)"/>
<path d="M0 0 C0.66 0 1.32 0 2 0 C1.67 0.66 1.34 1.32 1 2 C0.67 1.34 0.34 0.68 0 0 Z " fill="#90895E" transform="translate(514,859)"/>
<path d="M0 0 C0.33 0.165 0.33 0.165 2 1 C1.67 1.165 1.67 1.165 0 2 C0 1.34 0 0.68 0 0 Z " fill="#908D61" transform="translate(603,785)"/>
<path d="M0 0 C3 1 3 1 3 1 Z " fill="#8B875E" transform="translate(610,784)"/>
<path d="M0 0 C0.33 0.66 0.66 1.32 1 2 C0.34 1.67 -0.32 1.34 -1 1 C-0.67 0.67 -0.34 0.34 0 0 Z " fill="#8F8D63" transform="translate(623,776)"/>
<path d="M0 0 C3 1 3 1 3 1 Z " fill="#AE8C58" transform="translate(681,733)"/>
<path d="M0 0 C3 1 3 1 3 1 Z " fill="#AC804E" transform="translate(378,727)"/>
<path d="M0 0 C3 1 3 1 3 1 Z " fill="#AB814D" transform="translate(715,725)"/>
<path d="M0 0 C3 1 3 1 3 1 Z " fill="#B57743" transform="translate(779,669)"/>
<path d="" fill="#AD6D39" transform="translate(0,0)"/>
<path d="" fill="#B2703F" transform="translate(0,0)"/>
<path d="" fill="#B77944" transform="translate(0,0)"/>
<path d="" fill="#B8713D" transform="translate(0,0)"/>
<path d="M0 0 C0.66 0 1.32 0 2 0 C1.67 0.66 1.34 1.32 1 2 C0.67 1.34 0.34 0.68 0 0 Z " fill="#B3703C" transform="translate(140,510)"/>
<path d="" fill="#B5703E" transform="translate(0,0)"/>
<path d="" fill="#BB713E" transform="translate(0,0)"/>
<path d="" fill="#BA7341" transform="translate(0,0)"/>
<path d="" fill="#BD7843" transform="translate(0,0)"/>
<path d="" fill="#B67844" transform="translate(0,0)"/>
<path d="M0 0 C0.66 0 1.32 0 2 0 C1.67 0.66 1.34 1.32 1 2 C0.67 1.34 0.34 0.68 0 0 Z " fill="#B67743" transform="translate(804,238)"/>
<path d="" fill="#AC6739" transform="translate(0,0)"/>
<path d="M0 0 C0.33 0.165 0.33 0.165 2 1 C1.67 1.165 1.67 1.165 0 2 C0 1.34 0 0.68 0 0 Z " fill="#A46134" transform="translate(176,155)"/>
<path d="M0 0 C3 1 3 1 3 1 Z " fill="#AD673A" transform="translate(213,136)"/>
<path d="M0 0 C0.33 0.66 0.66 1.32 1 2 C0.34 1.67 -0.32 1.34 -1 1 C-0.67 0.67 -0.34 0.34 0 0 Z " fill="#AF673A" transform="translate(201,136)"/>
<path d="M0 0 C0.66 0 1.32 0 2 0 C1.67 0.66 1.34 1.32 1 2 C0.67 1.34 0.34 0.68 0 0 Z " fill="#AF6B39" transform="translate(766,128)"/>
<path d="M0 0 C0.66 0.66 1.32 1.32 2 2 C1.34 2 0.68 2 0 2 C0 1.34 0 0.68 0 0 Z " fill="#AF6739" transform="translate(246,90)"/>
<path d="M0 0 C3 1 3 1 3 1 Z " fill="#BD7641" transform="translate(628,40)"/>
<path d="M0 0 C3 1 3 1 3 1 Z " fill="#BC703E" transform="translate(376,32)"/>
<path d="M0 0 C3 1 3 1 3 1 Z " fill="#BF743C" transform="translate(396,25)"/>
<path d="M0 0 C3 1 3 1 3 1 Z " fill="#C47C44" transform="translate(554,16)"/>
<path d="M0 0 C2 1 2 1 2 1 Z " fill="#9B8B5E" transform="translate(631,999)"/>
<path d="" fill="#8F7746" transform="translate(0,0)"/>
<path d="M0 0 C2 1 2 1 2 1 Z " fill="#8E784A" transform="translate(573,967)"/>
<path d="" fill="#91986F" transform="translate(0,0)"/>
<path d="" fill="#918152" transform="translate(0,0)"/>
<path d="M0 0 C2 1 2 1 2 1 Z " fill="#A0D5CA" transform="translate(600,913)"/>
<path d="" fill="#90895C" transform="translate(0,0)"/>
<path d="M0 0 C2 1 2 1 2 1 Z " fill="#A2D8CC" transform="translate(613,898)"/>
<path d="" fill="#918E5F" transform="translate(0,0)"/>
<path d="" fill="#9ED6C9" transform="translate(0,0)"/>
<path d="M0 0 C2 1 2 1 2 1 Z " fill="#9FD6CA" transform="translate(602,881)"/>
<path d="" fill="#8A8C63" transform="translate(0,0)"/>
<path d="M0 0 C2 1 2 1 2 1 Z " fill="#8C875A" transform="translate(498,853)"/>
<path d="" fill="#94D0C1" transform="translate(0,0)"/>
<path d="" fill="#8E8C64" transform="translate(0,0)"/>
<path d="M0 0 C2 1 2 1 2 1 Z " fill="#959464" transform="translate(637,770)"/>
<path d="" fill="#949266" transform="translate(0,0)"/>
<path d="" fill="#9A986A" transform="translate(0,0)"/>
<path d="" fill="#958F62" transform="translate(0,0)"/>
<path d="M0 0 C2 1 2 1 2 1 Z " fill="#957E4E" transform="translate(392,755)"/>
<path d="" fill="#987E4E" transform="translate(0,0)"/>
<path d="M0 0 C2 1 2 1 2 1 Z " fill="#B08F5C" transform="translate(656,734)"/>
<path d="M0 0 C2 1 2 1 2 1 Z " fill="#A18B5B" transform="translate(623,730)"/>
<path d="M0 0 C2 1 2 1 2 1 Z " fill="#AC824E" transform="translate(712,726)"/>
<path d="M0 0 C2 1 2 1 2 1 Z " fill="#B17440" transform="translate(284,724)"/>
<path d="M0 0 C2 1 2 1 2 1 Z " fill="#B08450" transform="translate(720,723)"/>
<path d="" fill="#AD733F" transform="translate(0,0)"/>
<path d="M0 0 C2 1 2 1 2 1 Z " fill="#A8683B" transform="translate(272,719)"/>
<path d="" fill="#AB6D3A" transform="translate(0,0)"/>
<path d="" fill="#B9763F" transform="translate(0,0)"/>
<path d="M0 0 C2 1 2 1 2 1 Z " fill="#B7723D" transform="translate(197,660)"/>
<path d="M0 0 C2 1 2 1 2 1 Z " fill="#B16E3A" transform="translate(161,631)"/>
<path d="" fill="#AF6B39" transform="translate(0,0)"/>
<path d="" fill="#AE6A38" transform="translate(0,0)"/>
<path d="" fill="#B27644" transform="translate(0,0)"/>
<path d="M0 0 C2 1 2 1 2 1 Z " fill="#B4703F" transform="translate(154,576)"/>
<path d="" fill="#B77844" transform="translate(0,0)"/>
<path d="" fill="#B77B48" transform="translate(0,0)"/>
<path d="M0 0 C2 1 2 1 2 1 Z " fill="#B8723E" transform="translate(155,526)"/>
<path d="" fill="#B5713D" transform="translate(0,0)"/>
<path d="M0 0 C2 1 2 1 2 1 Z " fill="#B4713E" transform="translate(136,507)"/>
<path d="" fill="#B6723D" transform="translate(0,0)"/>
<path d="" fill="#B37745" transform="translate(0,0)"/>
<path d="" fill="#B26F3E" transform="translate(0,0)"/>
<path d="" fill="#B27542" transform="translate(0,0)"/>
<path d="" fill="#B46D3A" transform="translate(0,0)"/>
<path d="" fill="#B76E3C" transform="translate(0,0)"/>
<path d="" fill="#B16E3C" transform="translate(0,0)"/>
<path d="" fill="#B06B39" transform="translate(0,0)"/>
<path d="" fill="#B07440" transform="translate(0,0)"/>
<path d="" fill="#BB7440" transform="translate(0,0)"/>
<path d="" fill="#BA733F" transform="translate(0,0)"/>
<path d="" fill="#AF683A" transform="translate(0,0)"/>
<path d="" fill="#B67845" transform="translate(0,0)"/>
<path d="M0 0 C2 1 2 1 2 1 Z " fill="#B87947" transform="translate(804,232)"/>
<path d="M0 0 C2 1 2 1 2 1 Z " fill="#B16B3B" transform="translate(189,222)"/>
<path d="" fill="#B16B3C" transform="translate(0,0)"/>
<path d="" fill="#B77845" transform="translate(0,0)"/>
<path d="" fill="#B57642" transform="translate(0,0)"/>
<path d="" fill="#B37241" transform="translate(0,0)"/>
<path d="" fill="#AA683A" transform="translate(0,0)"/>
<path d="" fill="#A76437" transform="translate(0,0)"/>
<path d="M0 0 C2 1 2 1 2 1 Z " fill="#A9663B" transform="translate(168,171)"/>
<path d="M0 0 C2 1 2 1 2 1 Z " fill="#AA6439" transform="translate(198,138)"/>
<path d="" fill="#AE6D3A" transform="translate(0,0)"/>
<path d="" fill="#AC6538" transform="translate(0,0)"/>
<path d="M0 0 C2 1 2 1 2 1 Z " fill="#AE6536" transform="translate(236,96)"/>
<path d="" fill="#B66C3A" transform="translate(0,0)"/>
<path d="M0 0 C2 1 2 1 2 1 Z " fill="#B66C3A" transform="translate(279,90)"/>
<path d="" fill="#B56D37" transform="translate(0,0)"/>
<path d="" fill="#B46D3A" transform="translate(0,0)"/>
<path d="" fill="#AF6A38" transform="translate(0,0)"/>
<path d="M0 0 C2 1 2 1 2 1 Z " fill="#B66B3B" transform="translate(298,76)"/>
<path d="M0 0 C2 1 2 1 2 1 Z " fill="#B66E3A" transform="translate(707,72)"/>
<path d="M0 0 C2 1 2 1 2 1 Z " fill="#B56E3A" transform="translate(691,64)"/>
<path d="M0 0 C2 1 2 1 2 1 Z " fill="#B56F39" transform="translate(678,59)"/>
<path d="" fill="#B96C39" transform="translate(0,0)"/>
<path d="M0 0 C2 1 2 1 2 1 Z " fill="#BE7440" transform="translate(667,56)"/>
<path d="M0 0 C2 1 2 1 2 1 Z " fill="#BC7540" transform="translate(643,48)"/>
<path d="M0 0 C2 1 2 1 2 1 Z " fill="#BB713B" transform="translate(355,41)"/>
<path d="M0 0 C2 1 2 1 2 1 Z " fill="#BE703B" transform="translate(357,40)"/>
<path d="M0 0 C2 1 2 1 2 1 Z " fill="#BB723D" transform="translate(597,27)"/>
<path d="M0 0 C2 1 2 1 2 1 Z " fill="#C37C41" transform="translate(422,16)"/>
<path d="M0 0 C2 1 2 1 2 1 Z " fill="#C77C44" transform="translate(524,12)"/>
<path d="" fill="#948053" transform="translate(0,0)"/>
<path d="" fill="#998452" transform="translate(0,0)"/>
<path d="" fill="#978A5B" transform="translate(0,0)"/>
<path d="" fill="#997E54" transform="translate(0,0)"/>
<path d="" fill="#5C5133" transform="translate(0,0)"/>
<path d="" fill="#97824F" transform="translate(0,0)"/>
<path d="" fill="#947F4D" transform="translate(0,0)"/>
<path d="" fill="#8F7B4B" transform="translate(0,0)"/>
<path d="" fill="#937C4B" transform="translate(0,0)"/>
<path d="" fill="#908F63" transform="translate(0,0)"/>
<path d="" fill="#0E0E07" transform="translate(0,0)"/>
<path d="" fill="#8F7C4A" transform="translate(0,0)"/>
<path d="" fill="#8F7A49" transform="translate(0,0)"/>
<path d="" fill="#070802" transform="translate(0,0)"/>
<path d="" fill="#8F7849" transform="translate(0,0)"/>
<path d="" fill="#907A49" transform="translate(0,0)"/>
<path d="" fill="#8D7746" transform="translate(0,0)"/>
<path d="" fill="#83744A" transform="translate(0,0)"/>
<path d="" fill="#917A4B" transform="translate(0,0)"/>
<path d="" fill="#917C4B" transform="translate(0,0)"/>
<path d="" fill="#927B4A" transform="translate(0,0)"/>
<path d="" fill="#8D7749" transform="translate(0,0)"/>
<path d="" fill="#929469" transform="translate(0,0)"/>
<path d="" fill="#8F936A" transform="translate(0,0)"/>
<path d="" fill="#8D9167" transform="translate(0,0)"/>
<path d="" fill="#8E7B48" transform="translate(0,0)"/>
<path d="" fill="#899166" transform="translate(0,0)"/>
<path d="" fill="#8F8251" transform="translate(0,0)"/>
<path d="" fill="#0B0A04" transform="translate(0,0)"/>
<path d="" fill="#000000" transform="translate(0,0)"/>
<path d="" fill="#0A0803" transform="translate(0,0)"/>
<path d="" fill="#353622" transform="translate(0,0)"/>
<path d="" fill="#121008" transform="translate(0,0)"/>
<path d="" fill="#000000" transform="translate(0,0)"/>
<path d="" fill="#0D0A03" transform="translate(0,0)"/>
<path d="" fill="#9ED5C9" transform="translate(0,0)"/>
<path d="" fill="#A0D6CA" transform="translate(0,0)"/>
<path d="" fill="#948D5F" transform="translate(0,0)"/>
<path d="" fill="#19150B" transform="translate(0,0)"/>
<path d="" fill="#A0D9CA" transform="translate(0,0)"/>
<path d="" fill="#9ED9CD" transform="translate(0,0)"/>
<path d="" fill="#A1DCCB" transform="translate(0,0)"/>
<path d="" fill="#928A5A" transform="translate(0,0)"/>
<path d="" fill="#A2DACA" transform="translate(0,0)"/>
<path d="" fill="#9FD8C8" transform="translate(0,0)"/>
<path d="" fill="#90885C" transform="translate(0,0)"/>
<path d="" fill="#A5D8CA" transform="translate(0,0)"/>
<path d="" fill="#A4D8CA" transform="translate(0,0)"/>
<path d="" fill="#A5DACC" transform="translate(0,0)"/>
<path d="" fill="#9AD8CB" transform="translate(0,0)"/>
<path d="" fill="#928B5C" transform="translate(0,0)"/>
<path d="" fill="#A1D8CC" transform="translate(0,0)"/>
<path d="" fill="#9CD5C7" transform="translate(0,0)"/>
<path d="" fill="#A4D9CE" transform="translate(0,0)"/>
<path d="" fill="#A4D9CC" transform="translate(0,0)"/>
<path d="" fill="#A5D9CD" transform="translate(0,0)"/>
<path d="" fill="#9ED9CC" transform="translate(0,0)"/>
<path d="" fill="#8F976F" transform="translate(0,0)"/>
<path d="" fill="#A0D6CA" transform="translate(0,0)"/>
<path d="" fill="#98D6C9" transform="translate(0,0)"/>
<path d="" fill="#A4D8CA" transform="translate(0,0)"/>
<path d="" fill="#A0D8CC" transform="translate(0,0)"/>
<path d="" fill="#100B04" transform="translate(0,0)"/>
<path d="" fill="#A1D9CC" transform="translate(0,0)"/>
<path d="" fill="#93976D" transform="translate(0,0)"/>
<path d="" fill="#91956B" transform="translate(0,0)"/>
<path d="" fill="#A1D5C8" transform="translate(0,0)"/>
<path d="" fill="#919468" transform="translate(0,0)"/>
<path d="" fill="#8E9267" transform="translate(0,0)"/>
<path d="" fill="#A2D8CA" transform="translate(0,0)"/>
<path d="" fill="#8A8F69" transform="translate(0,0)"/>
<path d="" fill="#080601" transform="translate(0,0)"/>
<path d="" fill="#8E9069" transform="translate(0,0)"/>
<path d="" fill="#8C8E65" transform="translate(0,0)"/>
<path d="" fill="#888C62" transform="translate(0,0)"/>
<path d="" fill="#8D8F69" transform="translate(0,0)"/>
<path d="" fill="#98D0C6" transform="translate(0,0)"/>
<path d="" fill="#8D8D64" transform="translate(0,0)"/>
<path d="" fill="#8D8D65" transform="translate(0,0)"/>
<path d="" fill="#8B8357" transform="translate(0,0)"/>
<path d="" fill="#91895B" transform="translate(0,0)"/>
<path d="" fill="#8A8B65" transform="translate(0,0)"/>
<path d="" fill="#918C5E" transform="translate(0,0)"/>
<path d="" fill="#8D8659" transform="translate(0,0)"/>
<path d="" fill="#8D875A" transform="translate(0,0)"/>
<path d="" fill="#878960" transform="translate(0,0)"/>
<path d="" fill="#90875D" transform="translate(0,0)"/>
<path d="" fill="#8A8D64" transform="translate(0,0)"/>
<path d="" fill="#8D8659" transform="translate(0,0)"/>
<path d="" fill="#8F875A" transform="translate(0,0)"/>
<path d="" fill="#8E8357" transform="translate(0,0)"/>
<path d="" fill="#888C63" transform="translate(0,0)"/>
<path d="" fill="#918556" transform="translate(0,0)"/>
<path d="" fill="#85855F" transform="translate(0,0)"/>
<path d="" fill="#8C8153" transform="translate(0,0)"/>
<path d="" fill="#91CEBF" transform="translate(0,0)"/>
<path d="" fill="#92D1C0" transform="translate(0,0)"/>
<path d="" fill="#898A62" transform="translate(0,0)"/>
<path d="" fill="#8DD0C1" transform="translate(0,0)"/>
<path d="" fill="#8D7C50" transform="translate(0,0)"/>
<path d="" fill="#97D3C4" transform="translate(0,0)"/>
<path d="" fill="#92D2C2" transform="translate(0,0)"/>
<path d="" fill="#93D0C2" transform="translate(0,0)"/>
<path d="" fill="#92D0C2" transform="translate(0,0)"/>
<path d="" fill="#8F7F51" transform="translate(0,0)"/>
<path d="" fill="#95D1C4" transform="translate(0,0)"/>
<path d="" fill="#97D2C5" transform="translate(0,0)"/>
<path d="" fill="#8F8F69" transform="translate(0,0)"/>
<path d="" fill="#97D0C4" transform="translate(0,0)"/>
<path d="" fill="#8C7F51" transform="translate(0,0)"/>
<path d="" fill="#807B56" transform="translate(0,0)"/>
<path d="" fill="#93D5C4" transform="translate(0,0)"/>
<path d="" fill="#8C7F4F" transform="translate(0,0)"/>
<path d="" fill="#8D7C50" transform="translate(0,0)"/>
<path d="" fill="#898862" transform="translate(0,0)"/>
<path d="" fill="#8F7F53" transform="translate(0,0)"/>
<path d="" fill="#8A8B63" transform="translate(0,0)"/>
<path d="" fill="#888A63" transform="translate(0,0)"/>
<path d="" fill="#8C7D4F" transform="translate(0,0)"/>
<path d="" fill="#8C7B51" transform="translate(0,0)"/>
<path d="" fill="#8C784D" transform="translate(0,0)"/>
<path d="" fill="#8B7B4D" transform="translate(0,0)"/>
<path d="" fill="#8C794C" transform="translate(0,0)"/>
<path d="" fill="#8D7C4E" transform="translate(0,0)"/>
<path d="" fill="#8C7F4F" transform="translate(0,0)"/>
<path d="" fill="#8F7D4F" transform="translate(0,0)"/>
<path d="" fill="#907D4F" transform="translate(0,0)"/>
<path d="" fill="#8E7B4E" transform="translate(0,0)"/>
<path d="" fill="#8E7C50" transform="translate(0,0)"/>
<path d="" fill="#8C7E4E" transform="translate(0,0)"/>
<path d="" fill="#8E8E62" transform="translate(0,0)"/>
<path d="" fill="#8F7C50" transform="translate(0,0)"/>
<path d="" fill="#8E8C64" transform="translate(0,0)"/>
<path d="" fill="#8E7D51" transform="translate(0,0)"/>
<path d="" fill="#8E8B5E" transform="translate(0,0)"/>
<path d="" fill="#8E7C4F" transform="translate(0,0)"/>
<path d="" fill="#8F7D52" transform="translate(0,0)"/>
<path d="" fill="#908960" transform="translate(0,0)"/>
<path d="" fill="#8C7B4D" transform="translate(0,0)"/>
<path d="" fill="#8F7D4F" transform="translate(0,0)"/>
<path d="" fill="#8E7E52" transform="translate(0,0)"/>
<path d="" fill="#8D885D" transform="translate(0,0)"/>
<path d="" fill="#8F8C61" transform="translate(0,0)"/>
<path d="" fill="#948960" transform="translate(0,0)"/>
<path d="" fill="#8B8A5D" transform="translate(0,0)"/>
<path d="" fill="#8C7B4C" transform="translate(0,0)"/>
<path d="" fill="#928A60" transform="translate(0,0)"/>
<path d="" fill="#939467" transform="translate(0,0)"/>
<path d="" fill="#949467" transform="translate(0,0)"/>
<path d="" fill="#8B7B4D" transform="translate(0,0)"/>
<path d="" fill="#968B62" transform="translate(0,0)"/>
<path d="" fill="#949365" transform="translate(0,0)"/>
<path d="" fill="#929465" transform="translate(0,0)"/>
<path d="" fill="#959266" transform="translate(0,0)"/>
<path d="" fill="#949164" transform="translate(0,0)"/>
<path d="" fill="#959564" transform="translate(0,0)"/>
<path d="" fill="#94956A" transform="translate(0,0)"/>
<path d="" fill="#9D9C6D" transform="translate(0,0)"/>
<path d="" fill="#989568" transform="translate(0,0)"/>
<path d="" fill="#937C4D" transform="translate(0,0)"/>
<path d="" fill="#979164" transform="translate(0,0)"/>
<path d="" fill="#9A9568" transform="translate(0,0)"/>
<path d="" fill="#9B9567" transform="translate(0,0)"/>
<path d="" fill="#957E4F" transform="translate(0,0)"/>
<path d="" fill="#918A5E" transform="translate(0,0)"/>
<path d="" fill="#9A8152" transform="translate(0,0)"/>
<path d="" fill="#98885B" transform="translate(0,0)"/>
<path d="" fill="#99885B" transform="translate(0,0)"/>
<path d="" fill="#997D4C" transform="translate(0,0)"/>
<path d="" fill="#9B814D" transform="translate(0,0)"/>
<path d="" fill="#AF8A59" transform="translate(0,0)"/>
<path d="" fill="#B18E59" transform="translate(0,0)"/>
<path d="" fill="#AE8D5B" transform="translate(0,0)"/>
<path d="" fill="#AB8C58" transform="translate(0,0)"/>
<path d="" fill="#AE8956" transform="translate(0,0)"/>
<path d="" fill="#AA8554" transform="translate(0,0)"/>
<path d="" fill="#AC8D59" transform="translate(0,0)"/>
<path d="" fill="#A98B58" transform="translate(0,0)"/>
<path d="" fill="#B08B57" transform="translate(0,0)"/>
<path d="" fill="#A78C5A" transform="translate(0,0)"/>
<path d="" fill="#B8824C" transform="translate(0,0)"/>
<path d="" fill="#A58350" transform="translate(0,0)"/>
<path d="" fill="#AB8B5A" transform="translate(0,0)"/>
<path d="" fill="#A98F5A" transform="translate(0,0)"/>
<path d="" fill="#B88854" transform="translate(0,0)"/>
<path d="" fill="#B4834E" transform="translate(0,0)"/>
<path d="" fill="#B5834F" transform="translate(0,0)"/>
<path d="" fill="#B67E49" transform="translate(0,0)"/>
<path d="" fill="#B47E49" transform="translate(0,0)"/>
<path d="" fill="#BC8148" transform="translate(0,0)"/>
<path d="" fill="#BD814A" transform="translate(0,0)"/>
<path d="" fill="#BE844E" transform="translate(0,0)"/>
<path d="" fill="#A2804D" transform="translate(0,0)"/>
<path d="" fill="#A17B47" transform="translate(0,0)"/>
<path d="" fill="#B58A56" transform="translate(0,0)"/>
<path d="" fill="#B07540" transform="translate(0,0)"/>
<path d="" fill="#AD824E" transform="translate(0,0)"/>
<path d="" fill="#B1743E" transform="translate(0,0)"/>
<path d="" fill="#AD713E" transform="translate(0,0)"/>
<path d="" fill="#AF7D4A" transform="translate(0,0)"/>
<path d="" fill="#AE703D" transform="translate(0,0)"/>
<path d="" fill="#AF733E" transform="translate(0,0)"/>
<path d="" fill="#AC703E" transform="translate(0,0)"/>
<path d="" fill="#AF713B" transform="translate(0,0)"/>
<path d="" fill="#A87847" transform="translate(0,0)"/>
<path d="" fill="#B37B4B" transform="translate(0,0)"/>
<path d="" fill="#AD6F3C" transform="translate(0,0)"/>
<path d="" fill="#AB7847" transform="translate(0,0)"/>
<path d="" fill="#B06E3B" transform="translate(0,0)"/>
<path d="" fill="#AC6E3B" transform="translate(0,0)"/>
<path d="" fill="#B17A43" transform="translate(0,0)"/>
<path d="" fill="#AB7543" transform="translate(0,0)"/>
<path d="" fill="#B1703B" transform="translate(0,0)"/>
<path d="" fill="#AF6E3C" transform="translate(0,0)"/>
<path d="" fill="#AF7A47" transform="translate(0,0)"/>
<path d="" fill="#B1703C" transform="translate(0,0)"/>
<path d="" fill="#B3723C" transform="translate(0,0)"/>
<path d="" fill="#B2703C" transform="translate(0,0)"/>
<path d="" fill="#B1723C" transform="translate(0,0)"/>
<path d="" fill="#B47340" transform="translate(0,0)"/>
<path d="" fill="#B27844" transform="translate(0,0)"/>
<path d="" fill="#B27744" transform="translate(0,0)"/>
<path d="" fill="#B57A46" transform="translate(0,0)"/>
<path d="" fill="#B67743" transform="translate(0,0)"/>
<path d="" fill="#B27644" transform="translate(0,0)"/>
<path d="" fill="#BA763C" transform="translate(0,0)"/>
<path d="" fill="#B17642" transform="translate(0,0)"/>
<path d="" fill="#B67545" transform="translate(0,0)"/>
<path d="" fill="#AF733F" transform="translate(0,0)"/>
<path d="" fill="#B6723E" transform="translate(0,0)"/>
<path d="" fill="#B07543" transform="translate(0,0)"/>
<path d="" fill="#AE6C39" transform="translate(0,0)"/>
<path d="" fill="#B36D3A" transform="translate(0,0)"/>
<path d="" fill="#B27844" transform="translate(0,0)"/>
<path d="" fill="#AE7343" transform="translate(0,0)"/>
<path d="" fill="#1D1005" transform="translate(0,0)"/>
<path d="" fill="#B06D3A" transform="translate(0,0)"/>
<path d="" fill="#B87A45" transform="translate(0,0)"/>
<path d="" fill="#B16F3A" transform="translate(0,0)"/>
<path d="" fill="#AD6C3A" transform="translate(0,0)"/>
<path d="" fill="#B37945" transform="translate(0,0)"/>
<path d="" fill="#B06E3D" transform="translate(0,0)"/>
<path d="" fill="#B57A46" transform="translate(0,0)"/>
<path d="" fill="#AE6F3A" transform="translate(0,0)"/>
<path d="" fill="#B5713D" transform="translate(0,0)"/>
<path d="" fill="#B57340" transform="translate(0,0)"/>
<path d="" fill="#B77846" transform="translate(0,0)"/>
<path d="" fill="#B8723E" transform="translate(0,0)"/>
<path d="" fill="#B8713F" transform="translate(0,0)"/>
<path d="" fill="#B87540" transform="translate(0,0)"/>
<path d="" fill="#BD7643" transform="translate(0,0)"/>
<path d="" fill="#B57B46" transform="translate(0,0)"/>
<path d="" fill="#AD723F" transform="translate(0,0)"/>
<path d="" fill="#BD763E" transform="translate(0,0)"/>
<path d="" fill="#B97C49" transform="translate(0,0)"/>
<path d="" fill="#B8743F" transform="translate(0,0)"/>
<path d="" fill="#B36F3B" transform="translate(0,0)"/>
<path d="" fill="#B8743F" transform="translate(0,0)"/>
<path d="" fill="#B97140" transform="translate(0,0)"/>
<path d="" fill="#B4713C" transform="translate(0,0)"/>
<path d="" fill="#BA743E" transform="translate(0,0)"/>
<path d="" fill="#B7723D" transform="translate(0,0)"/>
<path d="" fill="#B3713D" transform="translate(0,0)"/>
<path d="" fill="#B87B45" transform="translate(0,0)"/>
<path d="" fill="#B46F3D" transform="translate(0,0)"/>
<path d="" fill="#B4723D" transform="translate(0,0)"/>
<path d="" fill="#AA7141" transform="translate(0,0)"/>
<path d="" fill="#B8733F" transform="translate(0,0)"/>
<path d="" fill="#BE7740" transform="translate(0,0)"/>
<path d="" fill="#B67040" transform="translate(0,0)"/>
<path d="" fill="#B27240" transform="translate(0,0)"/>
<path d="" fill="#AD6B3A" transform="translate(0,0)"/>
<path d="" fill="#B07443" transform="translate(0,0)"/>
<path d="" fill="#2B1A0B" transform="translate(0,0)"/>
<path d="" fill="#AF6D3A" transform="translate(0,0)"/>
<path d="" fill="#AF6E3C" transform="translate(0,0)"/>
<path d="" fill="#AC6B3D" transform="translate(0,0)"/>
<path d="" fill="#B0713D" transform="translate(0,0)"/>
<path d="" fill="#AC6838" transform="translate(0,0)"/>
<path d="" fill="#AD6A3A" transform="translate(0,0)"/>
<path d="" fill="#AB6837" transform="translate(0,0)"/>
<path d="" fill="#AE6B38" transform="translate(0,0)"/>
<path d="" fill="#AE6A3A" transform="translate(0,0)"/>
<path d="" fill="#B37542" transform="translate(0,0)"/>
<path d="" fill="#B26D3A" transform="translate(0,0)"/>
<path d="" fill="#AF7440" transform="translate(0,0)"/>
<path d="" fill="#B06939" transform="translate(0,0)"/>
<path d="" fill="#AC713E" transform="translate(0,0)"/>
<path d="" fill="#B17341" transform="translate(0,0)"/>
<path d="" fill="#B46D3A" transform="translate(0,0)"/>
<path d="" fill="#B26D3B" transform="translate(0,0)"/>
<path d="" fill="#B06939" transform="translate(0,0)"/>
<path d="" fill="#B17441" transform="translate(0,0)"/>
<path d="" fill="#B67944" transform="translate(0,0)"/>
<path d="" fill="#B36E3D" transform="translate(0,0)"/>
<path d="" fill="#BB703C" transform="translate(0,0)"/>
<path d="" fill="#B7703D" transform="translate(0,0)"/>
<path d="" fill="#BE7A43" transform="translate(0,0)"/>
<path d="" fill="#1D1104" transform="translate(0,0)"/>
<path d="" fill="#865832" transform="translate(0,0)"/>
<path d="" fill="#B8703E" transform="translate(0,0)"/>
<path d="" fill="#BA7342" transform="translate(0,0)"/>
<path d="" fill="#B67842" transform="translate(0,0)"/>
<path d="" fill="#BC733E" transform="translate(0,0)"/>
<path d="" fill="#B56E3D" transform="translate(0,0)"/>
<path d="" fill="#B57545" transform="translate(0,0)"/>
<path d="" fill="#BC7B47" transform="translate(0,0)"/>
<path d="" fill="#BD7642" transform="translate(0,0)"/>
<path d="" fill="#BB7B46" transform="translate(0,0)"/>
<path d="" fill="#B87540" transform="translate(0,0)"/>
<path d="" fill="#BD7541" transform="translate(0,0)"/>
<path d="" fill="#B9723D" transform="translate(0,0)"/>
<path d="" fill="#C27742" transform="translate(0,0)"/>
<path d="" fill="#BF7D49" transform="translate(0,0)"/>
<path d="" fill="#B77C48" transform="translate(0,0)"/>
<path d="" fill="#B77B47" transform="translate(0,0)"/>
<path d="" fill="#B56D3C" transform="translate(0,0)"/>
<path d="" fill="#B86D40" transform="translate(0,0)"/>
<path d="" fill="#B86F3F" transform="translate(0,0)"/>
<path d="" fill="#B46A3B" transform="translate(0,0)"/>
<path d="" fill="#B06C3B" transform="translate(0,0)"/>
<path d="" fill="#B97C46" transform="translate(0,0)"/>
<path d="" fill="#B76C3E" transform="translate(0,0)"/>
<path d="" fill="#AD6C3B" transform="translate(0,0)"/>
<path d="" fill="#AD6E3D" transform="translate(0,0)"/>
<path d="" fill="#B36C40" transform="translate(0,0)"/>
<path d="" fill="#AF6D3F" transform="translate(0,0)"/>
<path d="" fill="#AF6D3D" transform="translate(0,0)"/>
<path d="" fill="#AE6D3D" transform="translate(0,0)"/>
<path d="" fill="#AF6C3E" transform="translate(0,0)"/>
<path d="" fill="#B26A3D" transform="translate(0,0)"/>
<path d="" fill="#B26B3D" transform="translate(0,0)"/>
<path d="" fill="#A9693A" transform="translate(0,0)"/>
<path d="" fill="#AB673A" transform="translate(0,0)"/>
<path d="" fill="#B37643" transform="translate(0,0)"/>
<path d="" fill="#B57441" transform="translate(0,0)"/>
<path d="" fill="#AC673D" transform="translate(0,0)"/>
<path d="" fill="#B37541" transform="translate(0,0)"/>
<path d="" fill="#A9663C" transform="translate(0,0)"/>
<path d="" fill="#AE6839" transform="translate(0,0)"/>
<path d="" fill="#B5713B" transform="translate(0,0)"/>
<path d="" fill="#B4733E" transform="translate(0,0)"/>
<path d="" fill="#B1713C" transform="translate(0,0)"/>
<path d="" fill="#A36136" transform="translate(0,0)"/>
<path d="" fill="#AA6439" transform="translate(0,0)"/>
<path d="" fill="#B7733E" transform="translate(0,0)"/>
<path d="" fill="#A6653A" transform="translate(0,0)"/>
<path d="" fill="#AB6539" transform="translate(0,0)"/>
<path d="" fill="#AA663A" transform="translate(0,0)"/>
<path d="" fill="#B37240" transform="translate(0,0)"/>
<path d="" fill="#B0643A" transform="translate(0,0)"/>
<path d="" fill="#B4703B" transform="translate(0,0)"/>
<path d="" fill="#A96B39" transform="translate(0,0)"/>
<path d="" fill="#A96C3A" transform="translate(0,0)"/>
<path d="" fill="#B0703D" transform="translate(0,0)"/>
<path d="" fill="#070200" transform="translate(0,0)"/>
<path d="" fill="#AC6C3C" transform="translate(0,0)"/>
<path d="" fill="#B3703D" transform="translate(0,0)"/>
<path d="" fill="#B26D3B" transform="translate(0,0)"/>
<path d="" fill="#B96E3B" transform="translate(0,0)"/>
<path d="" fill="#B96F3A" transform="translate(0,0)"/>
<path d="" fill="#B76E3A" transform="translate(0,0)"/>
<path d="" fill="#B06B3C" transform="translate(0,0)"/>
<path d="" fill="#AC6838" transform="translate(0,0)"/>
<path d="" fill="#B76E3C" transform="translate(0,0)"/>
<path d="" fill="#B46C3A" transform="translate(0,0)"/>
<path d="" fill="#B16637" transform="translate(0,0)"/>
<path d="" fill="#AF6838" transform="translate(0,0)"/>
<path d="" fill="#AE6C37" transform="translate(0,0)"/>
<path d="" fill="#AE6838" transform="translate(0,0)"/>
<path d="" fill="#B96F3D" transform="translate(0,0)"/>
<path d="" fill="#B76D3B" transform="translate(0,0)"/>
<path d="" fill="#B56D3E" transform="translate(0,0)"/>
<path d="" fill="#B7713C" transform="translate(0,0)"/>
<path d="" fill="#BB6E3C" transform="translate(0,0)"/>
<path d="" fill="#B66D3A" transform="translate(0,0)"/>
<path d="" fill="#B26E38" transform="translate(0,0)"/>
<path d="" fill="#B46F3A" transform="translate(0,0)"/>
<path d="" fill="#C17647" transform="translate(0,0)"/>
<path d="" fill="#B76C39" transform="translate(0,0)"/>
<path d="" fill="#B66C3C" transform="translate(0,0)"/>
<path d="" fill="#B26C36" transform="translate(0,0)"/>
<path d="" fill="#B46C39" transform="translate(0,0)"/>
<path d="" fill="#C57845" transform="translate(0,0)"/>
<path d="" fill="#BA6F39" transform="translate(0,0)"/>
<path d="" fill="#B66F3B" transform="translate(0,0)"/>
<path d="" fill="#B56F3A" transform="translate(0,0)"/>
<path d="" fill="#B76F3C" transform="translate(0,0)"/>
<path d="" fill="#B46C38" transform="translate(0,0)"/>
<path d="" fill="#B6713B" transform="translate(0,0)"/>
<path d="" fill="#B76B39" transform="translate(0,0)"/>
<path d="" fill="#B6733C" transform="translate(0,0)"/>
<path d="" fill="#B7713E" transform="translate(0,0)"/>
<path d="" fill="#B66F39" transform="translate(0,0)"/>
<path d="" fill="#B9723B" transform="translate(0,0)"/>
<path d="" fill="#BD773E" transform="translate(0,0)"/>
<path d="" fill="#B96F3C" transform="translate(0,0)"/>
<path d="" fill="#BE753D" transform="translate(0,0)"/>
<path d="" fill="#BB703C" transform="translate(0,0)"/>
<path d="" fill="#B96F3A" transform="translate(0,0)"/>
<path d="" fill="#BF7640" transform="translate(0,0)"/>
<path d="" fill="#BD723A" transform="translate(0,0)"/>
<path d="" fill="#BC713C" transform="translate(0,0)"/>
<path d="" fill="#BC733E" transform="translate(0,0)"/>
<path d="" fill="#C2743E" transform="translate(0,0)"/>
<path d="" fill="#BF7139" transform="translate(0,0)"/>
<path d="" fill="#BF773F" transform="translate(0,0)"/>
<path d="" fill="#C2753E" transform="translate(0,0)"/>
<path d="" fill="#C0783F" transform="translate(0,0)"/>
<path d="" fill="#BF753D" transform="translate(0,0)"/>
<path d="" fill="#BF743D" transform="translate(0,0)"/>
<path d="" fill="#BF7640" transform="translate(0,0)"/>
<path d="" fill="#BF783F" transform="translate(0,0)"/>
<path d="" fill="#BE7642" transform="translate(0,0)"/>
<path d="" fill="#C07541" transform="translate(0,0)"/>
<path d="" fill="#C0763E" transform="translate(0,0)"/>
<path d="" fill="#C87C41" transform="translate(0,0)"/>
<path d="" fill="#C57A41" transform="translate(0,0)"/>
<path d="" fill="#C3783F" transform="translate(0,0)"/>
<path d="" fill="#C67941" transform="translate(0,0)"/>
<path d="" fill="#C77C41" transform="translate(0,0)"/>
<path d="" fill="#C47A42" transform="translate(0,0)"/>
<path d="" fill="#C77F44" transform="translate(0,0)"/>
<path d="" fill="#C47941" transform="translate(0,0)"/>
<path d="" fill="#C67A41" transform="translate(0,0)"/>
<path d="" fill="#CC7E42" transform="translate(0,0)"/>
<path d="" fill="#C47841" transform="translate(0,0)"/>
<path d="" fill="#CD8046" transform="translate(0,0)"/>
<path d="" fill="#C87C43" transform="translate(0,0)"/>
<path d="" fill="#CB7C43" transform="translate(0,0)"/>
<path d="" fill="#CA7D44" transform="translate(0,0)"/>
<path d="" fill="#CB7E45" transform="translate(0,0)"/>
<path d="" fill="#CF7F47" transform="translate(0,0)"/>
<path d="" fill="#CC8046" transform="translate(0,0)"/>
<path d="" fill="#C97D42" transform="translate(0,0)"/>
</svg>
