<?xml version="1.0" encoding="UTF-8"?>
<!-- Generator: visioncortex VTracer 0.6.12 -->
<svg version="1.1" xmlns="http://www.w3.org/2000/svg" width="1024" height="1024">
<path d="M0 0 C1.037 -0.001 2.074 -0.003 3.143 -0.004 C22.587 0.001 41.253 1.19 60.227 5.688 C64.254 6.486 67.972 6.462 72.062 6.25 C71.733 6.91 71.402 7.57 71.062 8.25 C74.121 9.262 77.185 10.257 80.25 11.25 C81.114 11.536 81.979 11.822 82.869 12.117 C83.71 12.388 84.551 12.659 85.418 12.938 C86.188 13.189 86.958 13.44 87.751 13.699 C90.26 14.297 92.492 14.345 95.062 14.25 C95.062 14.91 95.062 15.57 95.062 16.25 C95.767 16.572 96.472 16.893 97.199 17.225 C100.452 18.719 103.694 20.234 106.938 21.75 C108.046 22.255 109.155 22.761 110.297 23.281 C116.881 26.38 122.339 29.709 127.757 34.588 C131.789 37.494 136.243 37.729 141.062 38.25 C151.222 41.637 160.76 46.462 170.265 51.341 C171.988 52.212 173.732 53.041 175.477 53.867 C178.062 55.25 178.062 55.25 179.062 57.25 C180.386 57.936 181.722 58.598 183.062 59.25 C190.632 64.292 197.459 70.015 204.062 76.25 C204.84 76.951 205.617 77.653 206.418 78.375 C236.912 107.028 254.74 151.606 261.062 192.25 C261.102 194.25 261.113 196.251 261.062 198.25 C261.722 198.58 262.383 198.91 263.062 199.25 C263.429 204.915 263.753 210.582 264.062 216.25 C264.089 216.721 264.089 216.721 264.224 219.106 C265.732 246.554 264.35 273.493 259.433 300.566 C258.131 309.999 261.493 319.282 264.062 328.25 C264.229 328.903 264.395 329.556 264.567 330.229 C265.008 331.919 265.529 333.587 266.062 335.25 C266.722 335.58 267.383 335.91 268.062 336.25 C268.744 338.245 269.408 340.246 270.062 342.25 C275.974 353.148 283.985 363.098 292.5 372.062 C307.908 388.39 319.95 409.317 320.062 432.25 C319.889 437.263 319.506 442.254 319.062 447.25 C318.403 447.25 317.742 447.25 317.062 447.25 C317.062 449.56 317.062 451.87 317.062 454.25 C316.733 454.415 316.733 454.415 315.062 455.25 C313.971 457.371 312.939 459.523 311.938 461.688 C307.146 471.609 300.207 479.309 292.655 487.229 C290.444 489.577 289.097 491.146 288.062 494.25 C287.072 494.25 286.082 494.25 285.062 494.25 C284.794 494.931 284.526 495.611 284.25 496.312 C283.062 499.25 283.062 499.25 281.438 502.188 C278.798 508.391 278.71 516.488 280.977 522.793 C283.497 527.127 286.401 530.287 291.062 532.25 C297.483 532.794 303.77 532.513 310.125 531.5 C314.062 531.25 314.062 531.25 317.125 532.625 C319.526 535.877 319.786 537.786 319.539 541.762 C317.888 550.381 312.041 558.047 306.062 564.25 C305.403 564.25 304.742 564.25 304.062 564.25 C304.062 564.91 304.062 565.57 304.062 566.25 C293.164 575.636 280.201 580.169 266.062 581.25 C266.062 581.58 266.062 581.91 266.062 582.25 C260.122 582.25 254.183 582.25 248.062 582.25 C248.062 580.6 248.062 578.95 248.062 577.25 C247.423 577.168 246.784 577.085 246.125 577 C241.857 575.955 238.031 574.109 234.062 572.25 C234.062 572.91 234.062 573.57 234.062 574.25 C233.403 574.25 232.742 574.25 232.062 574.25 C231.877 575.219 231.691 576.189 231.5 577.188 C229.569 583.972 223.999 590.575 218.062 594.25 C214.099 595.815 210.098 597.022 205.938 597.938 C202.213 599.638 200.486 602.092 197.918 605.215 C191.388 612.377 182.864 614.491 173.516 615.16 C167.349 615.321 161.188 614.978 155.062 614.25 C154.733 613.92 154.402 613.59 154.062 613.25 C153.072 613.58 152.082 613.91 151.062 614.25 C147.763 615.35 145.222 615.417 141.75 615.438 C140.64 615.452 139.53 615.466 138.387 615.48 C133.51 615.142 130.269 614.608 126.945 610.867 C126.655 610.415 126.655 610.415 125.188 608.125 C124.592 607.215 123.996 606.305 123.383 605.367 C122.947 604.669 122.511 603.97 122.062 603.25 C121.402 603.58 120.743 603.91 120.062 604.25 C119.98 603.074 119.898 601.899 119.812 600.688 C118.792 592.838 113.687 586.583 108.062 581.25 C107.402 581.25 106.743 581.25 106.062 581.25 C106.594 582.448 107.125 583.645 107.672 584.879 C112.037 594.874 115.754 604.557 118.062 615.25 C118.175 615.735 118.175 615.735 118.742 618.188 C125.167 651.28 116.288 684.648 98.027 712.336 C92.146 720.685 85.27 728.043 78.062 735.25 C76.364 737.225 74.717 739.238 73.062 741.25 C72.402 741.91 71.743 742.57 71.062 743.25 C71.239 745.252 71.239 745.252 72.062 747.25 C74.486 748.755 76.833 750.044 79.375 751.312 C87.484 755.613 93.673 760.716 100.062 767.25 C100.788 767.944 101.514 768.637 102.262 769.352 C111.905 779.165 117.907 793.035 121.062 806.25 C121.174 806.687 121.174 806.687 121.738 808.898 C123.005 814.639 123.288 820.329 123.375 826.188 C123.393 826.922 123.41 827.656 123.429 828.413 C123.424 831.513 123.261 833.86 121.844 836.645 C117.748 840.336 111.785 841.161 106.438 841.438 C105.654 841.376 104.87 841.314 104.062 841.25 C103.733 842.57 103.402 843.89 103.062 845.25 C97.313 844.375 97.313 844.375 95.062 843.25 C93.293 843.257 91.524 843.332 89.758 843.441 C89.229 843.47 89.229 843.47 86.551 843.615 C84.316 843.746 82.082 843.882 79.848 844.021 C78.787 844.078 77.726 844.134 76.633 844.191 C75.661 844.25 74.689 844.309 73.688 844.369 C70.873 844.241 69.483 843.619 67.062 842.25 C64.328 841.396 61.539 840.776 58.75 840.125 C58.016 839.943 57.282 839.761 56.525 839.574 C51.934 838.491 47.805 838.167 43.062 838.25 C40.625 837.25 40.625 837.25 39.062 836.25 C39.392 835.59 39.723 834.93 40.062 834.25 C39.396 833.91 38.73 833.569 38.043 833.219 C28.047 827.962 19.017 822.272 12.062 813.25 C11.402 813.58 10.743 813.91 10.062 814.25 C10.062 813.59 10.062 812.93 10.062 812.25 C9.402 811.92 8.743 811.59 8.062 811.25 C8.062 810.26 8.062 809.27 8.062 808.25 C7.402 807.59 6.743 806.93 6.062 806.25 C5.868 806.517 5.868 806.517 4.883 807.867 C-7.151 823.893 -23.908 836.989 -43.938 841.25 C-45.257 841.25 -46.577 841.25 -47.938 841.25 C-48.268 842.24 -48.597 843.23 -48.938 844.25 C-48.938 843.59 -48.938 842.93 -48.938 842.25 C-50.196 842.559 -51.454 842.869 -52.75 843.188 C-60.555 844.931 -68.414 845.459 -76.387 845.031 C-77.234 844.986 -78.082 844.941 -78.955 844.895 C-79.836 844.847 -80.717 844.799 -81.625 844.75 C-82.518 844.702 -83.41 844.655 -84.33 844.605 C-86.533 844.488 -88.735 844.369 -90.938 844.25 C-90.607 844.91 -90.278 845.57 -89.938 846.25 C-91.918 846.25 -93.898 846.25 -95.938 846.25 C-95.938 844.93 -95.938 843.61 -95.938 842.25 C-96.233 842.237 -96.233 842.237 -97.73 842.172 C-98.521 842.115 -99.311 842.058 -100.125 842 C-100.902 841.954 -101.68 841.907 -102.48 841.859 C-106.109 840.96 -107.533 840.19 -109.938 837.25 C-110.515 833.236 -110.313 829.292 -110.125 825.25 C-110.047 823.084 -109.978 820.917 -109.918 818.75 C-109.876 817.791 -109.833 816.832 -109.79 815.844 C-109.945 813.12 -110.541 811.566 -111.938 809.25 C-111.278 808.26 -110.618 807.27 -109.938 806.25 C-109.278 806.25 -108.618 806.25 -107.938 806.25 C-106.785 803.357 -105.642 800.46 -104.5 797.562 C-104.175 796.746 -103.849 795.929 -103.514 795.088 C-101.974 791.168 -100.544 787.445 -99.938 783.25 C-99.278 783.25 -98.618 783.25 -97.938 783.25 C-96.874 781.687 -95.888 780.071 -94.938 778.438 C-87.595 766.677 -77.46 756.511 -64.938 750.25 C-64.211 748.271 -63.539 746.27 -62.938 744.25 C-64.059 743.101 -65.185 741.956 -66.312 740.812 C-66.939 740.174 -67.565 739.536 -68.211 738.879 C-69.937 737.25 -69.937 737.25 -71.938 736.25 C-71.938 735.59 -71.938 734.93 -71.938 734.25 C-73.587 733.92 -75.238 733.59 -76.938 733.25 C-76.938 732.26 -76.938 731.27 -76.938 730.25 C-79.812 727.576 -82.227 725.597 -85.75 723.875 C-87.938 722.25 -87.938 722.25 -88.5 718.688 C-88.644 717.553 -88.789 716.419 -88.938 715.25 C-91 713.812 -91 713.812 -92.938 713.25 C-92.607 712.59 -92.278 711.93 -91.938 711.25 C-92.875 709.125 -92.875 709.125 -93.938 707.25 C-94.597 707.58 -95.257 707.91 -95.938 708.25 C-95.938 706.6 -95.938 704.95 -95.938 703.25 C-96.742 703.003 -97.546 702.755 -98.375 702.5 C-100.938 701.25 -100.938 701.25 -101.625 699.375 C-101.728 698.674 -101.831 697.972 -101.938 697.25 C-102.274 696.633 -102.61 696.017 -102.957 695.382 C-104.054 692.997 -104.091 691.616 -103.945 689.02 C-103.841 684.378 -104.679 680.412 -105.812 675.938 C-108.57 664.144 -109.036 652.192 -109.73 640.137 C-109.901 637.754 -110.151 635.434 -110.516 633.074 C-110.918 630.381 -110.851 628.787 -109.938 626.25 C-109.278 626.25 -108.618 626.25 -107.938 626.25 C-107.289 623.542 -106.644 620.834 -106 618.125 C-105.818 617.364 -105.635 616.604 -105.447 615.82 C-102.618 603.888 -102.618 603.888 -103.938 601.25 C-103.278 600.59 -102.618 599.93 -101.938 599.25 C-101.607 599.58 -101.278 599.91 -100.938 600.25 C-99.62 597.336 -98.309 594.418 -97 591.5 C-96.627 590.675 -96.254 589.85 -95.869 589 C-95.511 588.201 -95.154 587.402 -94.785 586.578 C-94.455 585.845 -94.125 585.112 -93.785 584.356 C-92.972 582.335 -92.41 580.374 -91.938 578.25 C-100.816 586.882 -100.816 586.882 -101.188 591.062 C-101.105 591.784 -101.023 592.506 -100.938 593.25 C-101.928 593.25 -102.918 593.25 -103.938 593.25 C-104.108 593.83 -104.278 594.41 -104.453 595.008 C-107.009 603.247 -110.733 609.33 -117.938 614.25 C-124.189 616.913 -129.434 616.006 -135.914 614.918 C-140.363 614.274 -144.484 614.321 -148.973 614.694 C-160.43 615.632 -170.558 614.874 -180.125 607.805 C-182.434 605.824 -184.298 603.816 -185.938 601.25 C-185.938 600.59 -185.938 599.93 -185.938 599.25 C-186.555 599.164 -187.172 599.077 -187.809 598.988 C-195.464 597.718 -202.673 595.229 -207.938 589.25 C-209.394 586.975 -210.639 584.623 -211.938 582.25 C-212.597 582.25 -213.257 582.25 -213.938 582.25 C-214.928 579.94 -215.918 577.63 -216.938 575.25 C-217.518 575.516 -218.098 575.781 -218.695 576.055 C-223.053 578.025 -227.351 579.863 -231.938 581.25 C-232.242 581.344 -232.242 581.344 -233.785 581.82 C-240.548 583.17 -248.217 581.126 -254.844 579.652 C-256.937 579.25 -256.937 579.25 -259.938 579.25 C-260.267 579.91 -260.597 580.57 -260.938 581.25 C-263.937 578.25 -263.937 578.25 -265.27 576.824 C-267.153 575.047 -269.124 573.757 -271.312 572.375 C-274.974 569.968 -277.986 567.52 -280.938 564.25 C-281.43 563.727 -281.922 563.203 -282.43 562.664 C-286.21 558.507 -288.607 554.36 -290.938 549.25 C-291.597 549.25 -292.257 549.25 -292.938 549.25 C-292.999 548.93 -292.999 548.93 -293.312 547.312 C-293.519 546.632 -293.725 545.951 -293.938 545.25 C-294.597 544.92 -295.257 544.59 -295.938 544.25 C-294.947 543.59 -293.957 542.93 -292.938 542.25 C-292.628 541.281 -292.319 540.311 -292 539.312 C-290.781 535.8 -290.155 535 -286.938 533.25 C-283.695 533.211 -283.695 533.211 -280.062 533.625 C-273.825 534.312 -269.148 534.68 -263.75 531.188 C-259.663 527.486 -258.156 522.763 -257.688 517.375 C-257.938 515.25 -257.938 515.25 -258.938 513.25 C-259.082 512.631 -259.226 512.013 -259.375 511.375 C-259.972 509.118 -260.844 507.308 -261.938 505.25 C-262.226 504.59 -262.515 503.93 -262.812 503.25 C-263.938 501.25 -263.938 501.25 -266.062 499.125 C-266.681 498.506 -267.3 497.888 -267.938 497.25 C-267.938 496.59 -267.938 495.93 -267.938 495.25 C-270.248 494.92 -272.558 494.59 -274.938 494.25 C-274.278 493.59 -273.618 492.93 -272.938 492.25 C-273.167 492.074 -273.167 492.074 -274.328 491.184 C-278.061 488.18 -280.671 485.516 -282.902 481.188 C-284.157 478.84 -285.588 476.654 -287.062 474.438 C-287.56 473.689 -288.058 472.94 -288.57 472.168 C-289.938 470.25 -289.938 470.25 -291.938 468.25 C-293.28 466.591 -294.615 464.925 -295.938 463.25 C-295.278 462.59 -294.618 461.93 -293.938 461.25 C-294.398 458.773 -294.398 458.773 -295.312 455.625 C-298.021 444.789 -298.064 432.221 -295.938 421.25 C-295.278 420.26 -294.618 419.27 -293.938 418.25 C-293.21 416.541 -292.485 414.83 -291.782 413.11 C-286.289 399.789 -278.97 388.336 -269.574 377.422 C-255.956 361.33 -238.273 336.201 -238.938 314.062 C-238.938 310.25 -238.938 310.25 -237.938 309.25 C-238.287 308.081 -238.636 306.912 -238.996 305.707 C-239.456 304.159 -239.915 302.611 -240.375 301.062 C-240.605 300.294 -240.835 299.525 -241.072 298.732 C-242.2 294.925 -243.254 291.168 -243.938 287.25 C-244.928 286.92 -245.918 286.59 -246.938 286.25 C-248.053 281.822 -248.011 277.53 -247.938 273 C-247.883 266.87 -248.016 260.803 -248.438 254.688 C-249.299 241.667 -249.02 228.755 -248.293 215.731 C-247.974 209.898 -247.881 204.092 -247.938 198.25 C-246.947 198.25 -245.957 198.25 -244.938 198.25 C-244.889 197.636 -244.841 197.022 -244.791 196.39 C-243.282 179.224 -237.582 163.046 -230.938 147.25 C-230.603 146.452 -230.268 145.655 -229.923 144.833 C-224.032 131.072 -216.268 118.654 -207.938 106.25 C-207.477 105.56 -207.016 104.87 -206.542 104.159 C-193.84 85.277 -177.919 68.181 -159.938 54.25 C-158.945 53.452 -157.952 52.654 -156.93 51.832 C-127.31 28.195 -79.029 1.193 -39.938 3.25 C-39.608 2.59 -39.277 1.93 -38.938 1.25 C-26.201 -0.599 -12.839 0.01 0 0 Z M-246.938 199.25 C-246.938 201.23 -246.938 203.21 -246.938 205.25 C-246.608 205.25 -246.278 205.25 -245.938 205.25 C-245.938 203.27 -245.938 201.29 -245.938 199.25 C-246.267 199.25 -246.597 199.25 -246.938 199.25 Z M-246.938 271.25 C-246.938 273.23 -246.938 275.21 -246.938 277.25 C-246.608 277.25 -246.278 277.25 -245.938 277.25 C-245.938 275.27 -245.938 273.29 -245.938 271.25 C-246.267 271.25 -246.597 271.25 -246.938 271.25 Z M-245.938 277.25 C-245.938 278.9 -245.938 280.55 -245.938 282.25 C-245.608 282.25 -245.278 282.25 -244.938 282.25 C-244.938 280.6 -244.938 278.95 -244.938 277.25 C-245.267 277.25 -245.597 277.25 -245.938 277.25 Z M103.062 575.25 C104.062 577.25 104.062 577.25 104.062 577.25 Z M-213.938 576.25 C-212.938 579.25 -212.938 579.25 -212.938 579.25 Z M-212.938 579.25 C-211.938 581.25 -211.938 581.25 -211.938 581.25 Z M-102.938 590.25 C-101.938 592.25 -101.938 592.25 -101.938 592.25 Z M-108.938 628.25 C-108.938 630.89 -108.938 633.53 -108.938 636.25 C-108.607 636.25 -108.278 636.25 -107.938 636.25 C-107.938 633.61 -107.938 630.97 -107.938 628.25 C-108.268 628.25 -108.597 628.25 -108.938 628.25 Z M-101.938 690.25 C-100.938 692.25 -100.938 692.25 -100.938 692.25 Z M-100.938 693.25 C-99.938 695.25 -99.938 695.25 -99.938 695.25 Z M-99.938 695.25 C-98.938 697.25 -98.938 697.25 -98.938 697.25 Z M-98.938 697.25 C-97.938 699.25 -97.938 699.25 -97.938 699.25 Z M-97.938 699.25 C-96.938 701.25 -96.938 701.25 -96.938 701.25 Z M67.062 744.25 C67.392 744.91 67.723 745.57 68.062 746.25 C68.392 745.59 68.723 744.93 69.062 744.25 C68.402 744.25 67.743 744.25 67.062 744.25 Z M-108.938 808.25 C-107.938 812.25 -107.938 812.25 -107.938 812.25 Z " fill="#38210F" transform="translate(503.9375,89.75)"/>
<path d="M0 0 C1.428 2.743 2.592 5.475 3.629 8.387 C11.97 31.352 23.078 50.247 40 68 C40.522 68.585 41.044 69.17 41.582 69.773 C52.775 81.844 67.745 89.674 82.434 96.625 C85 98 85 98 86 100 C92.399 144.426 85.915 202.088 59 239 C56.151 242.495 53.142 245.768 50 249 C49.377 249.684 48.755 250.369 48.113 251.074 C38.328 261.516 25.873 268.148 13 274 C12.495 274.231 12.495 274.231 9.938 275.398 C-14.329 285.531 -43.427 289.711 -69.609 291.192 C-72.818 291.433 -74.596 291.623 -76.992 293.859 C-78.42 296.892 -77.913 298.838 -77 302 C-74.073 303.463 -71.52 303.132 -68.25 303.125 C-67.558 303.127 -66.867 303.13 -66.154 303.132 C-61.856 303.118 -57.612 302.915 -53.328 302.562 C-52.845 302.527 -52.845 302.527 -50.401 302.347 C-48.504 302.202 -46.608 302.03 -44.716 301.829 C-39.769 301.468 -36.743 301.695 -32.676 304.68 C-31.427 305.76 -30.199 306.865 -29 308 C-28.076 308.825 -27.151 309.65 -26.199 310.5 C-16.369 320.285 -8.301 331.2 -0.125 342.375 C9.529 355.564 19.724 368.161 31 380 C31.423 380.456 31.423 380.456 33.566 382.762 C42.561 392.159 52.878 399.925 63.938 406.75 C70.026 410.512 77.335 415.058 80 422 C80.84 426.863 80.53 430.132 77.938 434.375 C71.999 439.681 66.609 440.472 58.938 440.312 C58.161 440.316 57.384 440.319 56.584 440.322 C51.982 440.279 48.355 439.624 44 438 C40.796 438.24 38.868 439.069 36 440.562 C32.865 442.065 31.392 442.696 28 442 C23.593 439.025 22.498 435.85 20.812 430.875 C18.54 424.586 15.505 420.802 10.875 416.062 C0.834 405.657 -7.172 393.099 -15 381 C-15.66 380.01 -16.32 379.02 -17 378 C-17.229 375.148 -17.366 372.356 -17.438 369.5 C-17.963 357.159 -21.121 347.902 -27 337 C-27.969 337.082 -28.939 337.165 -29.938 337.25 C-33.191 337.263 -35.389 336.529 -38.312 335.125 C-49.937 329.606 -63.702 329.397 -75.984 332.895 C-86.788 336.855 -96.596 342.51 -102 353 C-105.361 351.88 -105.974 351.066 -108.125 348.375 C-114.568 340.837 -121.546 336.005 -131 333 C-131.683 332.774 -132.366 332.549 -133.07 332.316 C-144.183 329.253 -157.234 330.108 -168 334 C-168.99 334.66 -169.98 335.32 -171 336 C-172.279 335.876 -173.558 335.753 -174.875 335.625 C-177.509 335.567 -178.559 335.58 -180.492 337.422 C-181.866 339.556 -182.954 341.687 -184 344 C-184.37 344.806 -184.74 345.611 -185.121 346.441 C-187.893 352.929 -190.013 359.302 -189.988 366.406 C-190.02 376.776 -193.155 382.466 -199.51 390.167 C-201.587 392.722 -203.531 395.368 -205.487 398.016 C-208.881 402.607 -212.331 407.155 -215.844 411.656 C-216.292 412.232 -216.741 412.809 -217.203 413.402 C-218.412 414.95 -219.628 416.493 -220.844 418.035 C-225.077 423.856 -227.728 429.683 -229.875 436.547 C-231.174 439.379 -232.328 440.444 -235 442 C-237.938 442.438 -237.938 442.438 -241 442 C-241.743 441.299 -242.485 440.598 -243.25 439.875 C-246 438 -246 438 -248.359 438.145 C-250.938 438.675 -253.459 439.313 -256 440 C-265.283 442.069 -273.445 441.405 -282 437 C-285.267 433.733 -286.87 431.348 -287.312 426.75 C-286.686 419.238 -281.559 415.294 -276.156 410.535 C-272.548 407.548 -268.676 404.955 -264.812 402.312 C-256.678 396.731 -249.563 390.42 -242.538 383.511 C-241.24 382.235 -239.924 380.977 -238.605 379.723 C-234.154 375.429 -230.265 370.78 -226.398 365.957 C-224.364 363.449 -222.279 360.999 -220.162 358.56 C-215.203 352.827 -210.641 346.883 -206.188 340.75 C-187.158 314.584 -187.158 314.584 -177 306 C-176.532 305.56 -176.064 305.119 -175.583 304.665 C-172.119 301.729 -169.751 300.654 -165.172 300.949 C-163.361 301.171 -161.554 301.418 -159.75 301.688 C-157.8 301.919 -155.85 302.144 -153.898 302.363 C-152.918 302.476 -151.938 302.589 -150.929 302.706 C-146.41 303.16 -141.914 303.324 -137.375 303.375 C-136.588 303.4 -135.802 303.426 -134.991 303.452 C-131.411 303.466 -129.393 303.288 -126.469 301.141 C-125 299 -125 299 -125.125 296.375 C-126 294 -126 294 -128 292 C-130.478 291.603 -132.88 291.319 -135.375 291.105 C-136.921 290.956 -138.466 290.807 -140.012 290.657 C-140.826 290.581 -141.64 290.505 -142.478 290.426 C-180.168 286.857 -220.356 280.416 -250 255 C-250.306 254.761 -250.306 254.761 -251.852 253.551 C-278.633 232.211 -287.843 194.813 -291.812 162.5 C-294.464 138.424 -294.492 112.978 -291 89 C-290.645 89.035 -290.645 89.035 -288.85 89.21 C-269.539 90.973 -250.019 91.06 -231 87 C-230.609 86.917 -230.609 86.917 -228.633 86.496 C-215.445 83.573 -200.633 79.649 -189.242 72.195 C-187 71 -187 71 -184.547 71.133 C-181.607 72.134 -178.992 73.417 -176.25 74.875 C-163.495 81.393 -151.46 83.343 -137.188 83.25 C-136.006 83.258 -134.825 83.265 -133.607 83.273 C-125.564 83.256 -117.905 82.463 -110 81 C-109.25 80.865 -108.5 80.729 -107.727 80.59 C-83.674 75.981 -60.938 65.511 -42 50 C-41.46 49.56 -40.92 49.12 -40.364 48.667 C-25.232 36.289 -13.604 23.011 -3.812 6.117 C-2.605 4.04 -1.333 1.999 0 0 Z " fill="#FBDFC6" transform="translate(615,250)"/>
<path d="M0 0 C0.263 0.248 0.263 0.248 1.591 1.505 C6.146 5.811 9.741 7.044 15.875 7.938 C47.337 13.611 75.578 35.326 93.742 61.151 C101.486 72.532 108.317 84.463 114 97 C114.331 97.728 114.662 98.456 115.003 99.207 C126.726 125.508 133.004 154.874 133.238 183.676 C133.248 184.672 133.258 185.668 133.267 186.694 C133.292 189.9 133.305 193.106 133.312 196.312 C133.316 197.403 133.319 198.493 133.322 199.617 C133.362 240.407 133.362 240.407 127 257 C124.347 255.919 122.832 254.827 120.812 252.75 C113.266 245.372 105.205 242.041 95 240 C94.67 233.07 94.34 226.14 94 219 C101.313 218.687 101.313 218.687 103.603 218.612 C106.485 218.453 108.573 218.29 110.988 216.648 C112 215 112 215 111.875 211.938 C111 209 111 209 108 207 C105.272 206.361 102.56 205.788 99.812 205.25 C68.51 198.659 43.367 180.717 25.722 154.07 C18.798 143.281 13.543 131.969 9 120 C8.795 119.47 8.795 119.47 7.758 116.789 C4.802 108.244 3.654 99.327 2.394 90.404 C2.24 89.349 2.087 88.294 1.93 87.207 C1.864 86.73 1.864 86.73 1.531 84.316 C1 82 1 82 -1 80 C-3.438 79.688 -3.438 79.688 -6 80 C-8.654 82.107 -9.455 83.823 -10.105 87.105 C-10.28 87.916 -10.454 88.727 -10.634 89.562 C-10.817 90.429 -10.999 91.295 -11.188 92.188 C-18.512 123.875 -41.838 148.532 -68.523 165.66 C-97.586 183.739 -132.301 191.693 -166.069 184.475 C-170.073 183.49 -173.414 182.021 -177 180 C-177.33 179.34 -177.66 178.68 -178 178 C-177.49 177.622 -176.979 177.245 -176.453 176.855 C-162.234 166.09 -147.711 153.022 -141 136 C-140.727 133.312 -140.727 133.312 -141 131 C-143 129 -143 129 -145.77 128.422 C-149.979 129.175 -150.849 130.694 -153.234 134.079 C-153.474 134.437 -153.474 134.437 -154.688 136.25 C-155.743 137.733 -156.803 139.212 -157.867 140.688 C-158.394 141.422 -158.921 142.157 -159.464 142.914 C-177.751 167.747 -207.253 183.579 -237 190 C-238.267 190.298 -239.534 190.596 -240.84 190.902 C-263.708 195.797 -290.893 195.745 -312 185 C-312 184.34 -312 183.68 -312 183 C-311.467 182.805 -310.935 182.61 -310.386 182.408 C-280.707 171.394 -255.418 151.907 -241.312 122.875 C-239.999 119.621 -239.632 117.367 -241 114 C-242 113 -242 113 -244.824 112.645 C-248 113 -248 113 -250.02 114.949 C-250.315 115.401 -250.315 115.401 -251.812 117.688 C-252.5 118.698 -253.187 119.709 -253.895 120.75 C-255.254 122.849 -256.606 124.953 -257.949 127.062 C-273.82 151.247 -296.867 166.158 -324 175 C-324.99 175.33 -325.98 175.66 -327 176 C-327.556 181.117 -327.976 185.562 -324.625 189.75 C-321 193 -321 193 -311 199 C-311.66 212.53 -312.32 226.06 -313 240 C-315.145 240.66 -315.145 240.66 -326 244 C-331.489 246.994 -336.164 250.071 -341 254 C-341.66 254 -342.32 254 -343 254 C-343.981 250.694 -344.93 247.379 -345.875 244.062 C-346.144 243.156 -346.414 242.249 -346.691 241.314 C-351.114 225.621 -351.411 209.631 -351.375 193.438 C-351.374 192.469 -351.373 191.5 -351.372 190.501 C-351.328 175.666 -350.646 161.446 -347 147 C-346.743 145.959 -346.485 144.918 -346.22 143.845 C-336.925 106.981 -319.431 74.253 -294 46 C-293.494 45.433 -292.989 44.865 -292.468 44.281 C-256.882 4.436 -207.478 -19.127 -155.185 -27.641 C-153.428 -27.93 -151.676 -28.246 -149.926 -28.57 C-102.008 -35.608 -40.196 -29.106 0 0 Z " fill="#B67B58" transform="translate(621,134)"/>
<path d="M0 0 C4.279 0.279 8.41 1.059 12.578 2.039 C13.35 2.218 14.123 2.397 14.918 2.581 C39.314 8.385 61.409 17.468 82.328 31.414 C87.344 32.007 89.796 30.858 93.891 28.039 C117.276 12.794 146.3 2.404 174.328 1.414 C179.593 13.733 183.72 25.898 184.328 39.414 C184.361 40.061 184.393 40.707 184.427 41.373 C185.848 73.447 174.429 103.491 153.064 127.302 C150.854 129.708 148.595 132.062 146.328 134.414 C146.032 134.736 146.032 134.736 144.535 136.363 C140.946 140.165 136.95 143.397 132.828 146.602 C132.561 146.81 132.561 146.81 131.209 147.864 C127.421 150.748 123.502 153.122 119.328 155.414 C119.328 157.394 119.328 159.374 119.328 161.414 C122.188 162.844 124.962 162.837 128.141 163.164 C145.328 165.29 160.22 174.172 171.328 187.414 C181.639 201.441 186.531 216.13 187.328 233.414 C167.292 240.093 140.044 235.591 121.328 227.414 C105.313 219.175 94.541 205.341 88.922 188.363 C88.726 187.72 88.53 187.077 88.328 186.414 C86.348 186.414 84.368 186.414 82.328 186.414 C81.792 187.487 81.256 188.559 80.703 189.664 C80.333 190.394 79.963 191.123 79.582 191.875 C78.703 193.656 77.859 195.455 77.043 197.266 C73.518 204.864 69.274 210.538 63.328 216.414 C62.984 216.769 62.984 216.769 61.242 218.566 C44.646 234.638 20.11 237.966 -2.012 237.617 C-7.081 237.458 -11.767 236.722 -16.672 235.414 C-17.868 217.565 -11.233 200.336 -0.234 186.414 C7.03 178.131 14.424 172.26 24.328 167.414 C25.483 166.816 26.638 166.218 27.828 165.602 C31.894 164.222 35.604 163.919 39.875 163.723 C42.328 163.414 42.328 163.414 45.328 161.414 C45.902 159.047 45.902 159.047 45.328 156.414 C43.262 154.772 41.419 153.562 39.141 152.289 C31.5 147.712 24.94 142.358 18.328 136.414 C17.675 135.844 17.021 135.275 16.348 134.688 C-3.169 116.608 -14.344 89.856 -15.893 63.673 C-16.01 59.834 -16.052 56.005 -16.047 52.164 C-16.047 51.827 -16.047 51.827 -16.046 50.121 C-15.997 34.222 -13.369 19.921 -6.672 5.414 C-6.292 4.472 -5.911 3.529 -5.52 2.559 C-3.672 0.414 -3.672 0.414 0 0 Z " fill="#F9BCB7" transform="translate(425.671875,682.5859375)"/>
<path d="M0 0 C3.079 1.54 3.331 4.026 4.562 7.188 C9.967 20.398 18.479 31.532 27.816 42.234 C42.92 59.565 56.907 77.152 56.273 101.309 C55.033 118.05 46.859 130.829 35.45 142.492 C24.309 154.079 15.383 165.889 15.688 182.617 C16.474 191.134 19.971 198.902 26 205 C33.826 211.248 42.268 212.331 52 213 C48.974 221.47 42.559 225.812 34.734 229.777 C24.094 234.535 9.29 235.046 -1.738 231.039 C-8.729 227.827 -14.624 223.794 -20.211 218.516 C-24.08 215.238 -26.967 214.771 -32 215 C-33.313 220.848 -32.362 223.615 -30 229 C-29.294 235.353 -30.392 239.699 -34 245 C-37.528 248.621 -40.091 249.304 -45 250 C-45.375 249.192 -45.75 248.384 -46.137 247.551 C-51.24 236.895 -51.24 236.895 -56 233 C-56.709 232.399 -57.418 231.799 -58.148 231.18 C-62.426 227.631 -66.776 224.431 -71.5 221.5 C-80.829 215.7 -88.99 208.483 -97 201 C-97.813 200.241 -98.627 199.481 -99.465 198.699 C-105.834 192.551 -111.192 185.87 -116.557 178.862 C-118.513 176.338 -120.525 173.862 -122.536 171.383 C-126.935 165.956 -131.171 160.466 -135.188 154.75 C-152.907 129.546 -152.907 129.546 -160 126 C-160 125.34 -160 124.68 -160 124 C-158.716 123.72 -157.432 123.441 -156.109 123.152 C-126.142 116.441 -100.415 105.362 -78 84 C-77.401 83.475 -76.801 82.951 -76.184 82.41 C-72.073 78.662 -68.981 74.333 -65.875 69.75 C-65.431 69.099 -64.988 68.448 -64.531 67.778 C-61.94 63.838 -60.39 60.307 -59.062 55.75 C-57.961 53.09 -57.961 53.09 -56 51 C-52.327 49.734 -48.496 49.444 -44.649 49.056 C-32.324 47.735 -20.064 41.58 -12 32 C-5.189 22.533 -1.081 11.625 0 0 Z " fill="#B57A57" transform="translate(754,423)"/>
<path d="M0 0 C1.853 2.78 3.245 5.581 4.663 8.598 C7.902 15.403 10.809 21.428 17 26 C17.801 26.601 18.601 27.201 19.426 27.82 C28.441 34.057 37.218 37.244 48.188 36.625 C51.719 36.777 51.719 36.777 55 38 C58.41 41.799 60.383 46.558 62.562 51.125 C75.099 77.35 103.698 94.654 130.127 104.044 C139.296 107.094 148.653 109.563 158 112 C157.144 112.995 156.288 113.99 155.406 115.016 C146.194 125.771 137.374 136.713 129.052 148.175 C124.776 154.032 120.272 159.605 115.52 165.078 C113.07 167.919 110.718 170.82 108.375 173.75 C104.846 178.096 101.084 182.058 97.043 185.93 C95 188 95 188 93.062 190.484 C90.854 193.178 88.531 195.201 85.812 197.375 C84.838 198.155 83.863 198.935 82.859 199.738 C81.916 200.485 80.972 201.231 80 202 C79.621 202.306 79.621 202.306 77.703 203.855 C73.583 207.141 69.35 210.119 64.938 213 C54.964 219.624 47.665 225.798 45 238 C40.166 237.586 38.105 235.622 35 232 C33.192 226.576 32.982 220.509 35.562 215.312 C37.273 211.371 36.927 209.13 36 205 C33.5 204.062 33.5 204.062 30 204 C27.015 205.996 24.551 208.485 22 211 C12.647 219.628 2.733 222.43 -9.828 222.184 C-21.132 221.529 -30.999 217.068 -39 209 C-42 205.516 -42 205.516 -42 203 C-41.589 202.963 -41.589 202.963 -39.508 202.773 C-30.571 201.721 -23.268 199.8 -17.121 192.887 C-11.041 184.404 -9.852 175.237 -11 165 C-14.214 153.621 -20.716 146.197 -28.938 138.125 C-41.746 125.535 -49.791 111.893 -50.312 93.625 C-49.822 71.51 -36.361 54.034 -23 37.562 C-13.504 25.828 -5.949 13.887 0 0 Z " fill="#B57A57" transform="translate(270,435)"/>
<path d="M0 0 C2.522 2.452 3.656 4.566 5.117 7.738 C6.422 10.289 6.422 10.289 8.367 12.301 C13.435 13.474 18.191 13.525 23.367 13.301 C23.506 12.929 23.506 12.929 24.207 11.047 C27.813 2.511 34.233 -2.885 42.547 -6.699 C53.425 -10.968 65.553 -11.339 76.367 -6.699 C83.496 -3.104 88.173 1.16 90.824 8.938 C92.766 17.388 91.917 25.863 87.367 33.301 C82 39.881 74.714 43.618 66.292 44.524 C53.928 45.382 43.068 44.053 33.148 36.004 C29.147 32.178 25.947 28.176 24.305 22.863 C22.367 20.301 22.367 20.301 19.297 19.711 C15.977 19.449 12.697 19.31 9.367 19.301 C9.089 20.199 8.81 21.098 8.523 22.023 C5.013 31.972 -1.583 37.454 -10.645 42.398 C-19.976 46.34 -34.127 45.782 -43.523 42.348 C-49.959 39.154 -55.482 34.649 -58.707 28.129 C-61.191 20.54 -60.868 10.773 -57.445 3.551 C-53.45 -3.104 -47.819 -6.186 -40.633 -8.699 C-25.469 -11.835 -12.362 -9.298 0 0 Z " fill="#F9BDB8" transform="translate(495.6328125,599.69921875)"/>
<path d="M0 0 C0.33 0.33 0.33 0.33 2 2 C2.458 2.454 2.915 2.908 3.387 3.375 C4.551 4.547 5.697 5.737 6.832 6.938 C16.868 17.389 27.721 22.029 42.21 22.475 C54.403 22.58 63.75 21.298 73.344 13.27 C75 12 75 12 78 11 C80.905 21.263 83.178 31.494 85 42 C83.728 42.147 82.455 42.294 81.145 42.445 C55.128 45.669 26.417 53.778 4.801 69.297 C2 71 2 71 0.052 70.729 C-2.006 69.998 -3.744 69.138 -5.625 68.031 C-6.321 67.629 -7.017 67.228 -7.734 66.813 C-8.482 66.38 -9.23 65.947 -10 65.5 C-33.71 52.11 -57.106 44.879 -84 41 C-82.176 31.133 -79.916 21.608 -77 12 C-74.732 13.126 -72.478 14.271 -70.23 15.438 C-69.226 15.953 -68.222 16.469 -67.188 17 C-66.191 17.516 -65.195 18.031 -64.168 18.562 C-52.25 23.97 -36.639 24.081 -24.25 19.938 C-14.715 15.882 -4.789 9.578 0 0 Z " fill="#FBDFC8" transform="translate(511,631)"/>
<path d="M0 0 C0.371 0.001 0.371 0.001 2.246 0.007 C12.652 0.352 20.451 5.536 27.812 12.562 C28.176 12.069 28.54 11.575 28.914 11.066 C33.033 5.817 33.033 5.817 37.062 4.5 C39.812 4.562 39.812 4.562 41.812 6.562 C42.25 9.875 42.25 9.875 41.812 13.562 C38.874 17.341 36.22 18.925 31.812 20.562 C32.101 21.411 32.39 22.259 32.688 23.133 C37.185 37.343 37.333 51.07 31 64.875 C25.635 74.509 18.261 79.08 7.812 82.562 C-3.527 83.473 -12.955 82.299 -22 75.062 C-29.339 68.04 -33.017 58.948 -33.426 48.938 C-33.744 33.523 -32.46 20.232 -21.27 8.562 C-14.926 2.673 -8.638 -0.03 0 0 Z " fill="#39220F" transform="translate(608.1875,375.4375)"/>
<path d="M0 0 C8.901 6.404 14.301 14.953 16.562 25.664 C18.384 39.552 18.103 53.192 9.734 64.895 C3.738 72.174 -2.663 76.395 -12 78 C-20.863 78.842 -28.944 77.58 -36.328 72.352 C-45.648 64.447 -50.615 55.152 -52 43 C-52.428 35.593 -52.069 29.113 -50 22 C-50 20.68 -50 19.36 -50 18 C-50.928 17.381 -51.856 16.762 -52.812 16.125 C-56.445 13.704 -57.581 12.09 -59 8 C-58.61 3.61 -58.61 3.61 -57 2 C-54.75 1.562 -54.75 1.562 -52 2 C-50.289 3.962 -48.621 5.963 -47 8 C-44.848 8.691 -44.848 8.691 -43 9 C-42.671 8.553 -42.343 8.105 -42.004 7.645 C-32.312 -4.674 -13.517 -9.003 0 0 Z " fill="#39220F" transform="translate(433,380)"/>
<path d="M0 0 C5.533 2.991 9.829 7.102 13.23 12.359 C14.841 18.91 15.842 26.811 12.668 33.047 C7.292 40.596 0.211 45.234 -8.832 47.172 C-19.105 48.181 -27.994 47.577 -36.145 40.922 C-40.803 36.542 -44.556 31.257 -45 24.684 C-45.075 13.909 -45.075 13.909 -42.832 10.172 C-40.852 9.167 -38.946 8.498 -36.805 7.91 C-34.501 7.048 -33.546 5.911 -31.832 4.172 C-30.196 3.241 -28.526 2.368 -26.832 1.547 C-26.399 1.334 -26.399 1.334 -24.207 0.258 C-16.743 -3.155 -7.642 -2.951 0 0 Z " fill="#FAB6AA" transform="translate(657.83203125,448.828125)"/>
<path d="M0 0 C0.763 0.639 1.526 1.279 2.312 1.938 C4.867 3.898 6.647 4.629 9.625 5.688 C12.287 6.821 13.671 7.488 15.246 9.938 C17.954 17.401 18.055 24.924 14.895 32.227 C11.53 38.896 5.105 43.278 -1.934 45.652 C-12.181 47.376 -21.889 46.159 -30.543 40.27 C-37.112 34.901 -40.431 29.477 -41.5 21.062 C-41.057 14.117 -38.429 7.92 -33.438 3.062 C-24.776 -3.726 -9.443 -6.449 0 0 Z " fill="#FAB6AA" transform="translate(393,450)"/>
<path d="M0 0 C0.075 0.834 0.15 1.669 0.228 2.528 C4.136 45.479 4.136 45.479 10.012 66.254 C11 70 11 70 11 73 C2.548 73.751 -5.007 70.747 -11.812 65.812 C-20.56 58.474 -24.416 49.088 -26 38 C-26.847 27.178 -25.314 17.243 -18.477 8.496 C-13.709 3.666 -6.905 0 0 0 Z " fill="#FADFC7" transform="translate(308,387)"/>
<path d="M0 0 C8.473 1.138 14.072 4.603 19.812 10.875 C24.236 17.195 25.541 23.139 25.438 30.688 C25.43 31.469 25.422 32.251 25.415 33.056 C25.078 45.056 21.491 54.331 13.152 62.898 C5.665 69.954 -1.808 72.574 -12 73 C-11.746 71.996 -11.492 70.992 -11.23 69.957 C-10.317 66.336 -9.418 62.711 -8.521 59.085 C-8.084 57.337 -7.63 55.594 -7.172 53.852 C-3.427 38.99 -1.89 23.467 -1.211 8.18 C-1.024 5.358 -0.633 2.751 0 0 Z " fill="#FADFC8" transform="translate(716,387)"/>
<path d="M0 0 C3.228 0.411 4.122 1.336 6.359 3.645 C13.01 9.774 19.777 10.878 28.676 10.617 C35.94 9.911 40.809 8.005 45.609 2.332 C47.609 0.332 47.609 0.332 50.109 0.082 C52.609 0.332 52.609 0.332 54.609 2.332 C55.241 6.302 54.837 7.972 52.672 11.395 C45.369 19.232 35.579 21.327 25.297 21.707 C15.683 21.549 6.183 18.698 -0.855 11.922 C-3.05 9.545 -4.316 7.802 -4.828 4.582 C-4.203 1.368 -3.24 0.45 0 0 Z " fill="#341F0F" transform="translate(486.390625,459.66796875)"/>
<path d="M0 0 C4.932 3.006 4.932 3.006 6.648 4.723 C6.947 7.556 7.004 9.161 5.461 11.598 C3.648 12.723 3.648 12.723 1.523 12.66 C-1.046 11.822 -3.394 10.837 -5.852 9.723 C-12.89 6.533 -20.853 5.223 -28.352 7.723 C-31.914 7.973 -31.914 7.973 -35.352 7.723 C-37.352 4.723 -37.352 4.723 -37.164 2.723 C-36.192 0.329 -35.416 -0.711 -33.352 -2.277 C-22.785 -6.513 -9.954 -5.407 0 0 Z " fill="#321E0E" transform="translate(631.3515625,332.27734375)"/>
<path d="M0 0 C0.625 3.375 0.625 3.375 1 7 C-1 9 -1 9 -2.98 9.24 C-3.38 9.239 -3.38 9.239 -5.402 9.238 C-6.288 9.251 -7.173 9.264 -8.086 9.278 C-8.556 9.283 -8.556 9.283 -10.938 9.312 C-18.364 9.508 -24.225 10.046 -30.746 13.941 C-33.66 15.31 -35.819 15.311 -39 15 C-41 13 -41 13 -41.125 10.75 C-38.919 5.358 -34.2 2.931 -29 0.73 C-19.262 -2.582 -9.78 -3.556 0 0 Z " fill="#352010" transform="translate(427,337)"/>
<path d="M0 0 C2.81 1.794 4.509 3.019 6 6 C6.403 10.195 6.242 12.525 4.312 16.312 C1.854 19.17 0.655 20.217 -3 21 C-6.939 20.918 -8.651 20.263 -11.812 17.875 C-14.456 14.401 -15 12.349 -15 8 C-12.043 1.153 -7.407 -1.367 0 0 Z " fill="#FAF9F9" transform="translate(604,394)"/>
<path d="M0 0 C2.81 1.794 4.509 3.019 6 6 C6.581 13.09 6.581 13.09 4.125 16.938 C1.268 19.711 -0.423 20.205 -4.312 20.375 C-7.826 20.307 -8.947 20.032 -12.062 18.125 C-14.785 13.734 -15.147 10.032 -14 5 C-10.69 -0.416 -5.743 -0.82 0 0 Z " fill="#FCFCFB" transform="translate(429,394)"/>
<path d="M0 0 C0.66 0 1.32 0 2 0 C2 4.95 2 9.9 2 15 C1.67 15 1.34 15 1 15 C0.835 12.525 0.835 12.525 0 0 Z " fill="#775138" transform="translate(392,728)"/>
<path d="M0 0 C4.29 0 8.58 0 13 0 C12.67 0.66 12.34 1.32 12 2 C10.763 2.041 9.525 2.082 8.25 2.125 C7.902 2.137 7.902 2.137 6.141 2.195 C4 2 4 2 0 0 Z " fill="#765037" transform="translate(584,934)"/>
<path d="M0 0 C4.95 0 9.9 0 15 0 C15 0.33 15 0.66 15 1 C10.05 1 5.1 1 0 1 C0 0.67 0 0.34 0 0 Z " fill="#775138" transform="translate(504,88)"/>
<path d="M0 0 C2.64 0 5.28 0 8 0 C8 0.33 8 0.66 8 1 C5.36 1 2.72 1 0 1 C0 0.67 0 0.34 0 0 Z " fill="#795239" transform="translate(520,88)"/>
<path d="M0 0 C0.825 0.165 0.825 0.165 5 1 C5 1.33 5 1.66 5 2 C3.35 2 1.7 2 0 2 C0 1.34 0 0.68 0 0 Z " fill="#764F35" transform="translate(329,702)"/>
<path d="M0 0 C0.33 0 0.66 0 1 0 C1 2.31 1 4.62 1 7 C0.67 7 0.34 7 0 7 C0 4.69 0 2.38 0 0 Z " fill="#754F37" transform="translate(264,401)"/>
<path d="M0 0 C0.33 0 0.66 0 1 0 C1 1.98 1 3.96 1 6 C0.67 6 0.34 6 0 6 C0 4.02 0 2.04 0 0 Z " fill="#6F4B33" transform="translate(392,918)"/>
<path d="M0 0 C0.99 0.99 1.98 1.98 3 3 C2.01 3 1.02 3 0 3 C0 2.01 0 1.02 0 0 Z " fill="#734C35" transform="translate(226,578)"/>
<path d="M0 0 C0.99 0 1.98 0 3 0 C2.67 0.99 2.34 1.98 2 3 C1.34 2.67 0.68 2.34 0 2 C0 1.34 0 0.68 0 0 Z " fill="#734E37" transform="translate(232,464)"/>
<path d="M0 0 C1.65 0 3.3 0 5 0 C5 0.33 5 0.66 5 1 C3.35 1 1.7 1 0 1 C0 0.67 0 0.34 0 0 Z " fill="#785137" transform="translate(419,935)"/>
<path d="M0 0 C0.495 0.33 0.495 0.33 3 2 C2.01 2.33 1.02 2.66 0 3 C0 2.01 0 1.02 0 0 Z " fill="#795239" transform="translate(569,932)"/>
<path d="M0 0 C0.33 0 0.66 0 1 0 C1 1.65 1 3.3 1 5 C0.67 5 0.34 5 0 5 C0 3.35 0 1.7 0 0 Z " fill="#744E35" transform="translate(393,903)"/>
<path d="M0 0 C0.66 0.99 1.32 1.98 2 3 C1.01 2.67 0.02 2.34 -1 2 C-0.67 1.34 -0.34 0.68 0 0 Z " fill="#795238" transform="translate(425,819)"/>
<path d="M0 0 C0.33 0 0.66 0 1 0 C1 1.65 1 3.3 1 5 C0.67 5 0.34 5 0 5 C0 3.35 0 1.7 0 0 Z " fill="#795239" transform="translate(394,748)"/>
<path d="M0 0 C1.65 0 3.3 0 5 0 C5 0.33 5 0.66 5 1 C3.35 1 1.7 1 0 1 C0 0.67 0 0.34 0 0 Z " fill="#6D4B31" transform="translate(771,671)"/>
<path d="M0 0 C0.495 0.33 0.495 0.33 3 2 C2.01 2 1.02 2 0 2 C0 1.34 0 0.68 0 0 Z " fill="#6F4B32" transform="translate(246,669)"/>
<path d="M0 0 C0.99 0.33 1.98 0.66 3 1 C2.01 1.33 1.02 1.66 0 2 C0 1.34 0 0.68 0 0 Z " fill="#6D4B34" transform="translate(816,616)"/>
<path d="M0 0 C0.33 0.165 0.33 0.165 2 1 C1.67 1.495 1.67 1.495 0 4 C0 2.68 0 1.36 0 0 Z " fill="#755037" transform="translate(209,504)"/>
<path d="M0 0 C1.65 0 3.3 0 5 0 C5 0.33 5 0.66 5 1 C3.35 1 1.7 1 0 1 C0 0.67 0 0.34 0 0 Z " fill="#765036" transform="translate(496,88)"/>
<path d="M0 0 C1.65 0 3.3 0 5 0 C5 0.33 5 0.66 5 1 C3.35 1 1.7 1 0 1 C0 0.67 0 0.34 0 0 Z " fill="#785036" transform="translate(488,88)"/>
<path d="M0 0 C4 1 4 1 4 1 Z " fill="#785138" transform="translate(436,935)"/>
<path d="M0 0 C4 1 4 1 4 1 Z " fill="#775037" transform="translate(448,934)"/>
<path d="M0 0 C4 1 4 1 4 1 Z " fill="#724E37" transform="translate(615,931)"/>
<path d="M0 0 C4 1 4 1 4 1 Z " fill="#785038" transform="translate(460,931)"/>
<path d="M0 0 C0.33 0.495 0.33 0.495 2 3 C1.34 3 0.68 3 0 3 C0 2.01 0 1.02 0 0 Z " fill="#6F4B34" transform="translate(392,925)"/>
<path d="M0 0 C1 4 1 4 1 4 Z " fill="#724D34" transform="translate(392,911)"/>
<path d="M0 0 C1 4 1 4 1 4 Z " fill="#724D34" transform="translate(628,910)"/>
<path d="M0 0 C1 4 1 4 1 4 Z " fill="#7F573F" transform="translate(620,764)"/>
<path d="M0 0 C0.66 0.33 1.32 0.66 2 1 C1.01 1 0.02 1 -1 1 C-0.67 0.67 -0.34 0.34 0 0 Z " fill="#7A5339" transform="translate(393,746)"/>
<path d="M0 0 C0.99 0.33 1.98 0.66 3 1 C2.01 1 1.02 1 0 1 C0 0.67 0 0.34 0 0 Z " fill="#765038" transform="translate(304,686)"/>
<path d="M0 0 C0.99 0 1.98 0 3 0 C2.67 0.66 2.34 1.32 2 2 C1.34 1.34 0.68 0.68 0 0 Z " fill="#744D34" transform="translate(275,670)"/>
<path d="M0 0 C0.66 0 1.32 0 2 0 C1.67 0.99 1.34 1.98 1 3 C0.67 2.01 0.34 1.02 0 0 Z " fill="#6B4931" transform="translate(218,651)"/>
<path d="M0 0 C0.66 0.66 1.32 1.32 2 2 C1.67 2.165 1.67 2.165 0 3 C0 2.01 0 1.02 0 0 Z " fill="#744D35" transform="translate(790,616)"/>
<path d="M0 0 C0.33 0.495 0.33 0.495 2 3 C1.34 3 0.68 3 0 3 C0 2.01 0 1.02 0 0 Z " fill="#714E34" transform="translate(256,272)"/>
<path d="M0 0 C0.66 0.66 1.32 1.32 2 2 C1.67 2.165 1.67 2.165 0 3 C0 2.01 0 1.02 0 0 Z " fill="#714E35" transform="translate(764,272)"/>
<path d="M0 0 C0.66 0.66 1.32 1.32 2 2 C1.67 2.165 1.67 2.165 0 3 C0 2.01 0 1.02 0 0 Z " fill="#744E35" transform="translate(272,233)"/>
<path d="M0 0 C0.66 0.66 1.32 1.32 2 2 C1.67 2.165 1.67 2.165 0 3 C0 2.01 0 1.02 0 0 Z " fill="#6C4830" transform="translate(338,145)"/>
<path d="M0 0 C0.33 0.165 0.33 0.165 2 1 C1.67 1.66 1.34 2.32 1 3 C0.67 2.01 0.34 1.02 0 0 Z " fill="#6B4831" transform="translate(368,120)"/>
<path d="M0 0 C4 1 4 1 4 1 Z " fill="#764F37" transform="translate(436,96)"/>
<path d="M0 0 C4 1 4 1 4 1 Z " fill="#744E36" transform="translate(465,90)"/>
<path d="M0 0 C3 1 3 1 3 1 Z " fill="#775039" transform="translate(560,931)"/>
<path d="M0 0 C0.33 0.165 0.33 0.165 2 1 C1.67 1.165 1.67 1.165 0 2 C0 1.34 0 0.68 0 0 Z " fill="#795037" transform="translate(621,880)"/>
<path d="M0 0 C0.33 0.66 0.66 1.32 1 2 C0.34 1.67 -0.32 1.34 -1 1 C-0.67 0.67 -0.34 0.34 0 0 Z " fill="#754F37" transform="translate(402,876)"/>
<path d="M0 0 C0.33 0.66 0.66 1.32 1 2 C0.34 1.67 -0.32 1.34 -1 1 C-0.67 0.67 -0.34 0.34 0 0 Z " fill="#734E37" transform="translate(598,848)"/>
<path d="" fill="#7F5841" transform="translate(0,0)"/>
<path d="" fill="#7A543C" transform="translate(0,0)"/>
<path d="M0 0 C0.66 0 1.32 0 2 0 C1.67 0.66 1.34 1.32 1 2 C0.67 1.34 0.34 0.68 0 0 Z " fill="#745037" transform="translate(325,700)"/>
<path d="M0 0 C0.66 0.66 1.32 1.32 2 2 C1.34 2 0.68 2 0 2 C0 1.34 0 0.68 0 0 Z " fill="#7B5238" transform="translate(617,678)"/>
<path d="M0 0 C3 1 3 1 3 1 Z " fill="#7D523A" transform="translate(407,673)"/>
<path d="M0 0 C0.33 0.165 0.33 0.165 2 1 C1.67 1.165 1.67 1.165 0 2 C0 1.34 0 0.68 0 0 Z " fill="#6B4A33" transform="translate(806,657)"/>
<path d="M0 0 C0.33 0.165 0.33 0.165 2 1 C1.67 1.165 1.67 1.165 0 2 C0 1.34 0 0.68 0 0 Z " fill="#734D37" transform="translate(241,617)"/>
<path d="M0 0 C0.66 0 1.32 0 2 0 C1.67 0.66 1.34 1.32 1 2 C0.67 1.34 0.34 0.68 0 0 Z " fill="#734E35" transform="translate(216,488)"/>
<path d="M0 0 C0.33 0.165 0.33 0.165 2 1 C1.67 1.165 1.67 1.165 0 2 C0 1.34 0 0.68 0 0 Z " fill="#724D35" transform="translate(245,448)"/>
<path d="M0 0 C0.66 0 1.32 0 2 0 C1.67 0.66 1.34 1.32 1 2 C0.67 1.34 0.34 0.68 0 0 Z " fill="#734F35" transform="translate(256,427)"/>
<path d="" fill="#755038" transform="translate(0,0)"/>
<path d="" fill="#775339" transform="translate(0,0)"/>
<path d="" fill="#785138" transform="translate(0,0)"/>
<path d="M0 0 C0.33 0.165 0.33 0.165 2 1 C1.67 1.165 1.67 1.165 0 2 C0 1.34 0 0.68 0 0 Z " fill="#734E35" transform="translate(281,216)"/>
<path d="M0 0 C3 1 3 1 3 1 Z " fill="#714D34" transform="translate(628,120)"/>
<path d="M0 0 C3 1 3 1 3 1 Z " fill="#755037" transform="translate(582,99)"/>
<path d="M0 0 C3 1 3 1 3 1 Z " fill="#745037" transform="translate(432,97)"/>
<path d="M0 0 C3 1 3 1 3 1 Z " fill="#79533A" transform="translate(482,88)"/>
<path d="" fill="#774F37" transform="translate(0,0)"/>
<path d="M0 0 C2 1 2 1 2 1 Z " fill="#7A5238" transform="translate(430,935)"/>
<path d="M0 0 C2 1 2 1 2 1 Z " fill="#785137" transform="translate(416,935)"/>
<path d="M0 0 C2 1 2 1 2 1 Z " fill="#724D36" transform="translate(611,932)"/>
<path d="M0 0 C2 1 2 1 2 1 Z " fill="#77513A" transform="translate(458,932)"/>
<path d="M0 0 C2 1 2 1 2 1 Z " fill="#765037" transform="translate(475,926)"/>
<path d="M0 0 C2 1 2 1 2 1 Z " fill="#785039" transform="translate(541,924)"/>
<path d="M0 0 C2 1 2 1 2 1 Z " fill="#774E35" transform="translate(478,924)"/>
<path d="M0 0 C2 1 2 1 2 1 Z " fill="#7A513B" transform="translate(480,923)"/>
<path d="M0 0 C2 1 2 1 2 1 Z " fill="#7A5339" transform="translate(536,921)"/>
<path d="" fill="#755039" transform="translate(0,0)"/>
<path d="" fill="#744E36" transform="translate(0,0)"/>
<path d="M0 0 C2 1 2 1 2 1 Z " fill="#754F37" transform="translate(613,865)"/>
<path d="" fill="#774F39" transform="translate(0,0)"/>
<path d="M0 0 C2 1 2 1 2 1 Z " fill="#774F38" transform="translate(422,848)"/>
<path d="" fill="#805740" transform="translate(0,0)"/>
<path d="" fill="#7B543B" transform="translate(0,0)"/>
<path d="M0 0 C2 1 2 1 2 1 Z " fill="#765039" transform="translate(392,761)"/>
<path d="" fill="#7E583F" transform="translate(0,0)"/>
<path d="M0 0 C2 1 2 1 2 1 Z " fill="#765038" transform="translate(703,695)"/>
<path d="M0 0 C2 1 2 1 2 1 Z " fill="#79533A" transform="translate(398,692)"/>
<path d="" fill="#795139" transform="translate(0,0)"/>
<path d="" fill="#7A533A" transform="translate(0,0)"/>
<path d="" fill="#734E37" transform="translate(0,0)"/>
<path d="M0 0 C2 1 2 1 2 1 Z " fill="#6F4C33" transform="translate(788,668)"/>
<path d="M0 0 C2 1 2 1 2 1 Z " fill="#744D35" transform="translate(749,668)"/>
<path d="M0 0 C2 1 2 1 2 1 Z " fill="#6B4730" transform="translate(804,659)"/>
<path d="M0 0 C2 1 2 1 2 1 Z " fill="#6D4932" transform="translate(226,659)"/>
<path d="" fill="#6E4A32" transform="translate(0,0)"/>
<path d="M0 0 C2 1 2 1 2 1 Z " fill="#6D4C34" transform="translate(820,621)"/>
<path d="" fill="#744D33" transform="translate(0,0)"/>
<path d="" fill="#734D36" transform="translate(0,0)"/>
<path d="" fill="#744E36" transform="translate(0,0)"/>
<path d="M0 0 C2 1 2 1 2 1 Z " fill="#734E35" transform="translate(227,582)"/>
<path d="" fill="#775238" transform="translate(0,0)"/>
<path d="M0 0 C2 1 2 1 2 1 Z " fill="#734F36" transform="translate(208,557)"/>
<path d="" fill="#744E37" transform="translate(0,0)"/>
<path d="" fill="#77543B" transform="translate(0,0)"/>
<path d="" fill="#745138" transform="translate(0,0)"/>
<path d="" fill="#745138" transform="translate(0,0)"/>
<path d="" fill="#755038" transform="translate(0,0)"/>
<path d="M0 0 C2 1 2 1 2 1 Z " fill="#775138" transform="translate(789,449)"/>
<path d="M0 0 C2 1 2 1 2 1 Z " fill="#7A5439" transform="translate(786,449)"/>
<path d="" fill="#765036" transform="translate(0,0)"/>
<path d="" fill="#765037" transform="translate(0,0)"/>
<path d="" fill="#765038" transform="translate(0,0)"/>
<path d="" fill="#744F37" transform="translate(0,0)"/>
<path d="M0 0 C2 1 2 1 2 1 Z " fill="#785339" transform="translate(766,374)"/>
<path d="" fill="#745037" transform="translate(0,0)"/>
<path d="" fill="#775039" transform="translate(0,0)"/>
<path d="" fill="#734E37" transform="translate(0,0)"/>
<path d="" fill="#704B34" transform="translate(0,0)"/>
<path d="M0 0 C2 1 2 1 2 1 Z " fill="#6D4931" transform="translate(273,224)"/>
<path d="" fill="#704C33" transform="translate(0,0)"/>
<path d="" fill="#6C4A31" transform="translate(0,0)"/>
<path d="M0 0 C2 1 2 1 2 1 Z " fill="#714C34" transform="translate(656,131)"/>
<path d="M0 0 C2 1 2 1 2 1 Z " fill="#6E4A31" transform="translate(372,122)"/>
<path d="M0 0 C2 1 2 1 2 1 Z " fill="#6D4931" transform="translate(376,120)"/>
<path d="" fill="#6F4A33" transform="translate(0,0)"/>
<path d="M0 0 C2 1 2 1 2 1 Z " fill="#704C33" transform="translate(389,113)"/>
<path d="M0 0 C2 1 2 1 2 1 Z " fill="#714C32" transform="translate(614,112)"/>
<path d="M0 0 C2 1 2 1 2 1 Z " fill="#724C34" transform="translate(602,106)"/>
<path d="M0 0 C2 1 2 1 2 1 Z " fill="#704C35" transform="translate(408,105)"/>
<path d="M0 0 C2 1 2 1 2 1 Z " fill="#785237" transform="translate(474,89)"/>
<path d="M0 0 C2 1 2 1 2 1 Z " fill="#7C533A" transform="translate(529,88)"/>
<path d="" fill="#332F2B" transform="translate(0,0)"/>
<path d="" fill="#744E39" transform="translate(0,0)"/>
<path d="" fill="#785038" transform="translate(0,0)"/>
<path d="" fill="#775139" transform="translate(0,0)"/>
<path d="" fill="#785139" transform="translate(0,0)"/>
<path d="" fill="#795138" transform="translate(0,0)"/>
<path d="" fill="#6E4A32" transform="translate(0,0)"/>
<path d="" fill="#403024" transform="translate(0,0)"/>
<path d="" fill="#795139" transform="translate(0,0)"/>
<path d="" fill="#775039" transform="translate(0,0)"/>
<path d="" fill="#775138" transform="translate(0,0)"/>
<path d="" fill="#6C4834" transform="translate(0,0)"/>
<path d="" fill="#6F4B33" transform="translate(0,0)"/>
<path d="" fill="#6F4C34" transform="translate(0,0)"/>
<path d="" fill="#774F38" transform="translate(0,0)"/>
<path d="" fill="#714D36" transform="translate(0,0)"/>
<path d="" fill="#6D4C34" transform="translate(0,0)"/>
<path d="" fill="#775038" transform="translate(0,0)"/>
<path d="" fill="#764E37" transform="translate(0,0)"/>
<path d="" fill="#784F39" transform="translate(0,0)"/>
<path d="" fill="#6E4A35" transform="translate(0,0)"/>
<path d="" fill="#784E3A" transform="translate(0,0)"/>
<path d="" fill="#744F38" transform="translate(0,0)"/>
<path d="" fill="#794F38" transform="translate(0,0)"/>
<path d="" fill="#764E35" transform="translate(0,0)"/>
<path d="" fill="#724E34" transform="translate(0,0)"/>
<path d="" fill="#764E35" transform="translate(0,0)"/>
<path d="" fill="#774E38" transform="translate(0,0)"/>
<path d="" fill="#764E38" transform="translate(0,0)"/>
<path d="" fill="#7A5039" transform="translate(0,0)"/>
<path d="" fill="#774F38" transform="translate(0,0)"/>
<path d="" fill="#764F36" transform="translate(0,0)"/>
<path d="" fill="#754F38" transform="translate(0,0)"/>
<path d="" fill="#765138" transform="translate(0,0)"/>
<path d="" fill="#754E36" transform="translate(0,0)"/>
<path d="" fill="#764E37" transform="translate(0,0)"/>
<path d="" fill="#3B3733" transform="translate(0,0)"/>
<path d="" fill="#754F38" transform="translate(0,0)"/>
<path d="" fill="#6F4E36" transform="translate(0,0)"/>
<path d="" fill="#77543B" transform="translate(0,0)"/>
<path d="" fill="#765139" transform="translate(0,0)"/>
<path d="" fill="#79543A" transform="translate(0,0)"/>
<path d="" fill="#7A553A" transform="translate(0,0)"/>
<path d="" fill="#7A5139" transform="translate(0,0)"/>
<path d="" fill="#745137" transform="translate(0,0)"/>
<path d="" fill="#78523B" transform="translate(0,0)"/>
<path d="" fill="#765137" transform="translate(0,0)"/>
<path d="" fill="#79523B" transform="translate(0,0)"/>
<path d="" fill="#7A543B" transform="translate(0,0)"/>
<path d="" fill="#785239" transform="translate(0,0)"/>
<path d="" fill="#7A5439" transform="translate(0,0)"/>
<path d="" fill="#764F38" transform="translate(0,0)"/>
<path d="" fill="#744F36" transform="translate(0,0)"/>
<path d="" fill="#78503A" transform="translate(0,0)"/>
<path d="" fill="#745035" transform="translate(0,0)"/>
<path d="" fill="#765038" transform="translate(0,0)"/>
<path d="" fill="#7A543A" transform="translate(0,0)"/>
<path d="" fill="#745139" transform="translate(0,0)"/>
<path d="" fill="#765037" transform="translate(0,0)"/>
<path d="" fill="#764E36" transform="translate(0,0)"/>
<path d="" fill="#754F36" transform="translate(0,0)"/>
<path d="" fill="#764F37" transform="translate(0,0)"/>
<path d="" fill="#745037" transform="translate(0,0)"/>
<path d="" fill="#81593D" transform="translate(0,0)"/>
<path d="" fill="#745138" transform="translate(0,0)"/>
<path d="" fill="#7E543B" transform="translate(0,0)"/>
<path d="" fill="#765038" transform="translate(0,0)"/>
<path d="" fill="#7C543A" transform="translate(0,0)"/>
<path d="" fill="#7F563D" transform="translate(0,0)"/>
<path d="" fill="#795135" transform="translate(0,0)"/>
<path d="" fill="#7A4F39" transform="translate(0,0)"/>
<path d="" fill="#7D523B" transform="translate(0,0)"/>
<path d="" fill="#7C533C" transform="translate(0,0)"/>
<path d="" fill="#7C553D" transform="translate(0,0)"/>
<path d="" fill="#7C523A" transform="translate(0,0)"/>
<path d="" fill="#855B40" transform="translate(0,0)"/>
<path d="" fill="#765239" transform="translate(0,0)"/>
<path d="" fill="#4A3726" transform="translate(0,0)"/>
<path d="" fill="#82583E" transform="translate(0,0)"/>
<path d="" fill="#7D553F" transform="translate(0,0)"/>
<path d="" fill="#82573E" transform="translate(0,0)"/>
<path d="" fill="#794F3B" transform="translate(0,0)"/>
<path d="" fill="#80573C" transform="translate(0,0)"/>
<path d="" fill="#815A3F" transform="translate(0,0)"/>
<path d="" fill="#795138" transform="translate(0,0)"/>
<path d="" fill="#7A553D" transform="translate(0,0)"/>
<path d="" fill="#77523B" transform="translate(0,0)"/>
<path d="" fill="#81563E" transform="translate(0,0)"/>
<path d="" fill="#77533B" transform="translate(0,0)"/>
<path d="" fill="#79523B" transform="translate(0,0)"/>
<path d="" fill="#7C543E" transform="translate(0,0)"/>
<path d="" fill="#7C553C" transform="translate(0,0)"/>
<path d="" fill="#7C553F" transform="translate(0,0)"/>
<path d="" fill="#815941" transform="translate(0,0)"/>
<path d="" fill="#7E563E" transform="translate(0,0)"/>
<path d="" fill="#7A553A" transform="translate(0,0)"/>
<path d="" fill="#7D563E" transform="translate(0,0)"/>
<path d="" fill="#79533A" transform="translate(0,0)"/>
<path d="" fill="#785139" transform="translate(0,0)"/>
<path d="" fill="#7A533B" transform="translate(0,0)"/>
<path d="" fill="#7B553E" transform="translate(0,0)"/>
<path d="" fill="#7A5239" transform="translate(0,0)"/>
<path d="" fill="#805B41" transform="translate(0,0)"/>
<path d="" fill="#7E553B" transform="translate(0,0)"/>
<path d="" fill="#83593F" transform="translate(0,0)"/>
<path d="" fill="#7C553E" transform="translate(0,0)"/>
<path d="" fill="#7C533B" transform="translate(0,0)"/>
<path d="" fill="#7F563C" transform="translate(0,0)"/>
<path d="" fill="#795339" transform="translate(0,0)"/>
<path d="" fill="#7A553A" transform="translate(0,0)"/>
<path d="" fill="#7D553C" transform="translate(0,0)"/>
<path d="" fill="#79533B" transform="translate(0,0)"/>
<path d="" fill="#765139" transform="translate(0,0)"/>
<path d="" fill="#79533B" transform="translate(0,0)"/>
<path d="" fill="#7C553B" transform="translate(0,0)"/>
<path d="" fill="#7D553C" transform="translate(0,0)"/>
<path d="" fill="#744F39" transform="translate(0,0)"/>
<path d="" fill="#7C543C" transform="translate(0,0)"/>
<path d="" fill="#78523A" transform="translate(0,0)"/>
<path d="" fill="#7D533A" transform="translate(0,0)"/>
<path d="" fill="#795338" transform="translate(0,0)"/>
<path d="" fill="#735138" transform="translate(0,0)"/>
<path d="" fill="#785038" transform="translate(0,0)"/>
<path d="" fill="#7D553B" transform="translate(0,0)"/>
<path d="" fill="#744F38" transform="translate(0,0)"/>
<path d="" fill="#785339" transform="translate(0,0)"/>
<path d="" fill="#7A5138" transform="translate(0,0)"/>
<path d="" fill="#78523A" transform="translate(0,0)"/>
<path d="" fill="#7C533C" transform="translate(0,0)"/>
<path d="" fill="#754F36" transform="translate(0,0)"/>
<path d="" fill="#7F573D" transform="translate(0,0)"/>
<path d="" fill="#724F38" transform="translate(0,0)"/>
<path d="" fill="#7A553C" transform="translate(0,0)"/>
<path d="" fill="#7B533A" transform="translate(0,0)"/>
<path d="" fill="#7A513B" transform="translate(0,0)"/>
<path d="" fill="#7E553B" transform="translate(0,0)"/>
<path d="" fill="#704E37" transform="translate(0,0)"/>
<path d="" fill="#78523A" transform="translate(0,0)"/>
<path d="" fill="#77513A" transform="translate(0,0)"/>
<path d="" fill="#724B36" transform="translate(0,0)"/>
<path d="" fill="#805439" transform="translate(0,0)"/>
<path d="" fill="#704C35" transform="translate(0,0)"/>
<path d="" fill="#7C5039" transform="translate(0,0)"/>
<path d="" fill="#724C33" transform="translate(0,0)"/>
<path d="" fill="#764F36" transform="translate(0,0)"/>
<path d="" fill="#734C34" transform="translate(0,0)"/>
<path d="" fill="#734E33" transform="translate(0,0)"/>
<path d="" fill="#724D37" transform="translate(0,0)"/>
<path d="" fill="#6D4731" transform="translate(0,0)"/>
<path d="" fill="#724E33" transform="translate(0,0)"/>
<path d="" fill="#744E33" transform="translate(0,0)"/>
<path d="" fill="#6F4A32" transform="translate(0,0)"/>
<path d="" fill="#6E4B33" transform="translate(0,0)"/>
<path d="" fill="#724B35" transform="translate(0,0)"/>
<path d="" fill="#845A3E" transform="translate(0,0)"/>
<path d="" fill="#724D35" transform="translate(0,0)"/>
<path d="" fill="#765034" transform="translate(0,0)"/>
<path d="" fill="#764E37" transform="translate(0,0)"/>
<path d="" fill="#6B4732" transform="translate(0,0)"/>
<path d="" fill="#6C4B32" transform="translate(0,0)"/>
<path d="" fill="#714D32" transform="translate(0,0)"/>
<path d="" fill="#6F4B34" transform="translate(0,0)"/>
<path d="" fill="#6C4830" transform="translate(0,0)"/>
<path d="" fill="#6D4A30" transform="translate(0,0)"/>
<path d="" fill="#6D4B34" transform="translate(0,0)"/>
<path d="" fill="#6B4931" transform="translate(0,0)"/>
<path d="" fill="#6B4931" transform="translate(0,0)"/>
<path d="" fill="#6C4931" transform="translate(0,0)"/>
<path d="" fill="#6D4934" transform="translate(0,0)"/>
<path d="" fill="#6B4A30" transform="translate(0,0)"/>
<path d="" fill="#6E4A33" transform="translate(0,0)"/>
<path d="" fill="#694730" transform="translate(0,0)"/>
<path d="" fill="#694930" transform="translate(0,0)"/>
<path d="" fill="#6A4831" transform="translate(0,0)"/>
<path d="" fill="#704D36" transform="translate(0,0)"/>
<path d="" fill="#744F38" transform="translate(0,0)"/>
<path d="" fill="#6F4B34" transform="translate(0,0)"/>
<path d="" fill="#724D36" transform="translate(0,0)"/>
<path d="" fill="#734D35" transform="translate(0,0)"/>
<path d="" fill="#734E36" transform="translate(0,0)"/>
<path d="" fill="#744E34" transform="translate(0,0)"/>
<path d="" fill="#6C4A35" transform="translate(0,0)"/>
<path d="" fill="#704A34" transform="translate(0,0)"/>
<path d="" fill="#744E38" transform="translate(0,0)"/>
<path d="" fill="#6D4B36" transform="translate(0,0)"/>
<path d="" fill="#6C4A35" transform="translate(0,0)"/>
<path d="" fill="#734E34" transform="translate(0,0)"/>
<path d="" fill="#734D38" transform="translate(0,0)"/>
<path d="" fill="#734C37" transform="translate(0,0)"/>
<path d="" fill="#714D37" transform="translate(0,0)"/>
<path d="" fill="#744C32" transform="translate(0,0)"/>
<path d="" fill="#744F36" transform="translate(0,0)"/>
<path d="" fill="#744F35" transform="translate(0,0)"/>
<path d="" fill="#714D36" transform="translate(0,0)"/>
<path d="" fill="#754D36" transform="translate(0,0)"/>
<path d="" fill="#754F36" transform="translate(0,0)"/>
<path d="" fill="#754E35" transform="translate(0,0)"/>
<path d="" fill="#724D35" transform="translate(0,0)"/>
<path d="" fill="#775139" transform="translate(0,0)"/>
<path d="" fill="#754E35" transform="translate(0,0)"/>
<path d="" fill="#754F37" transform="translate(0,0)"/>
<path d="" fill="#7B533D" transform="translate(0,0)"/>
<path d="" fill="#714C36" transform="translate(0,0)"/>
<path d="" fill="#734E38" transform="translate(0,0)"/>
<path d="" fill="#744F38" transform="translate(0,0)"/>
<path d="" fill="#785339" transform="translate(0,0)"/>
<path d="" fill="#724E39" transform="translate(0,0)"/>
<path d="" fill="#755037" transform="translate(0,0)"/>
<path d="" fill="#76503A" transform="translate(0,0)"/>
<path d="" fill="#7B543B" transform="translate(0,0)"/>
<path d="" fill="#77533C" transform="translate(0,0)"/>
<path d="" fill="#785137" transform="translate(0,0)"/>
<path d="" fill="#78543D" transform="translate(0,0)"/>
<path d="" fill="#734D34" transform="translate(0,0)"/>
<path d="" fill="#775138" transform="translate(0,0)"/>
<path d="" fill="#725035" transform="translate(0,0)"/>
<path d="" fill="#704F36" transform="translate(0,0)"/>
<path d="" fill="#765439" transform="translate(0,0)"/>
<path d="" fill="#774F39" transform="translate(0,0)"/>
<path d="" fill="#77533A" transform="translate(0,0)"/>
<path d="" fill="#744F36" transform="translate(0,0)"/>
<path d="" fill="#785539" transform="translate(0,0)"/>
<path d="" fill="#744E34" transform="translate(0,0)"/>
<path d="" fill="#775138" transform="translate(0,0)"/>
<path d="" fill="#724E33" transform="translate(0,0)"/>
<path d="" fill="#734C34" transform="translate(0,0)"/>
<path d="" fill="#76523A" transform="translate(0,0)"/>
<path d="" fill="#755039" transform="translate(0,0)"/>
<path d="" fill="#765239" transform="translate(0,0)"/>
<path d="" fill="#755339" transform="translate(0,0)"/>
<path d="" fill="#785238" transform="translate(0,0)"/>
<path d="" fill="#754B33" transform="translate(0,0)"/>
<path d="" fill="#734D34" transform="translate(0,0)"/>
<path d="" fill="#714E35" transform="translate(0,0)"/>
<path d="" fill="#754F36" transform="translate(0,0)"/>
<path d="" fill="#734E36" transform="translate(0,0)"/>
<path d="" fill="#724E35" transform="translate(0,0)"/>
<path d="" fill="#744D34" transform="translate(0,0)"/>
<path d="" fill="#754F36" transform="translate(0,0)"/>
<path d="" fill="#724E36" transform="translate(0,0)"/>
<path d="" fill="#735038" transform="translate(0,0)"/>
<path d="" fill="#724E3A" transform="translate(0,0)"/>
<path d="" fill="#734E34" transform="translate(0,0)"/>
<path d="" fill="#745138" transform="translate(0,0)"/>
<path d="" fill="#775038" transform="translate(0,0)"/>
<path d="" fill="#745139" transform="translate(0,0)"/>
<path d="" fill="#715035" transform="translate(0,0)"/>
<path d="" fill="#735037" transform="translate(0,0)"/>
<path d="" fill="#594F4B" transform="translate(0,0)"/>
<path d="" fill="#724E35" transform="translate(0,0)"/>
<path d="" fill="#744F39" transform="translate(0,0)"/>
<path d="" fill="#745137" transform="translate(0,0)"/>
<path d="" fill="#785239" transform="translate(0,0)"/>
<path d="" fill="#7C553B" transform="translate(0,0)"/>
<path d="" fill="#493A2F" transform="translate(0,0)"/>
<path d="" fill="#765139" transform="translate(0,0)"/>
<path d="" fill="#765339" transform="translate(0,0)"/>
<path d="" fill="#755038" transform="translate(0,0)"/>
<path d="" fill="#79533C" transform="translate(0,0)"/>
<path d="" fill="#765136" transform="translate(0,0)"/>
<path d="" fill="#775036" transform="translate(0,0)"/>
<path d="" fill="#724E35" transform="translate(0,0)"/>
<path d="" fill="#745038" transform="translate(0,0)"/>
<path d="" fill="#735035" transform="translate(0,0)"/>
<path d="" fill="#765037" transform="translate(0,0)"/>
<path d="" fill="#755037" transform="translate(0,0)"/>
<path d="" fill="#735036" transform="translate(0,0)"/>
<path d="" fill="#745038" transform="translate(0,0)"/>
<path d="" fill="#744E35" transform="translate(0,0)"/>
<path d="" fill="#714D36" transform="translate(0,0)"/>
<path d="" fill="#764E37" transform="translate(0,0)"/>
<path d="" fill="#714D34" transform="translate(0,0)"/>
<path d="" fill="#775036" transform="translate(0,0)"/>
<path d="" fill="#724D37" transform="translate(0,0)"/>
<path d="" fill="#714F34" transform="translate(0,0)"/>
<path d="" fill="#714C36" transform="translate(0,0)"/>
<path d="" fill="#745137" transform="translate(0,0)"/>
<path d="" fill="#734E35" transform="translate(0,0)"/>
<path d="" fill="#724F35" transform="translate(0,0)"/>
<path d="" fill="#734E34" transform="translate(0,0)"/>
<path d="" fill="#704D36" transform="translate(0,0)"/>
<path d="" fill="#724D35" transform="translate(0,0)"/>
<path d="" fill="#704B32" transform="translate(0,0)"/>
<path d="" fill="#734F38" transform="translate(0,0)"/>
<path d="" fill="#754E36" transform="translate(0,0)"/>
<path d="" fill="#714D35" transform="translate(0,0)"/>
<path d="" fill="#724E35" transform="translate(0,0)"/>
<path d="" fill="#755037" transform="translate(0,0)"/>
<path d="" fill="#704C33" transform="translate(0,0)"/>
<path d="" fill="#734F34" transform="translate(0,0)"/>
<path d="" fill="#714C33" transform="translate(0,0)"/>
<path d="" fill="#744E34" transform="translate(0,0)"/>
<path d="" fill="#6F4D34" transform="translate(0,0)"/>
<path d="" fill="#734D35" transform="translate(0,0)"/>
<path d="" fill="#734C33" transform="translate(0,0)"/>
<path d="" fill="#6F4931" transform="translate(0,0)"/>
<path d="" fill="#6F4C32" transform="translate(0,0)"/>
<path d="" fill="#6E4B37" transform="translate(0,0)"/>
<path d="" fill="#6E4C32" transform="translate(0,0)"/>
<path d="" fill="#6D4C31" transform="translate(0,0)"/>
<path d="" fill="#704B33" transform="translate(0,0)"/>
<path d="" fill="#6F4C34" transform="translate(0,0)"/>
<path d="" fill="#6F4B32" transform="translate(0,0)"/>
<path d="" fill="#6E4A31" transform="translate(0,0)"/>
<path d="" fill="#6E4B30" transform="translate(0,0)"/>
<path d="" fill="#6C4A30" transform="translate(0,0)"/>
<path d="" fill="#714D32" transform="translate(0,0)"/>
<path d="" fill="#6E4C33" transform="translate(0,0)"/>
<path d="" fill="#785136" transform="translate(0,0)"/>
<path d="" fill="#6F4B33" transform="translate(0,0)"/>
<path d="" fill="#6E4A33" transform="translate(0,0)"/>
<path d="" fill="#765339" transform="translate(0,0)"/>
<path d="" fill="#6D4A33" transform="translate(0,0)"/>
<path d="" fill="#6D4B31" transform="translate(0,0)"/>
<path d="" fill="#724B35" transform="translate(0,0)"/>
<path d="" fill="#734B34" transform="translate(0,0)"/>
<path d="" fill="#744C34" transform="translate(0,0)"/>
<path d="" fill="#6D492F" transform="translate(0,0)"/>
<path d="" fill="#714D33" transform="translate(0,0)"/>
<path d="" fill="#714C34" transform="translate(0,0)"/>
<path d="" fill="#6E4932" transform="translate(0,0)"/>
<path d="" fill="#6E4931" transform="translate(0,0)"/>
<path d="" fill="#6B482F" transform="translate(0,0)"/>
<path d="" fill="#714B31" transform="translate(0,0)"/>
<path d="" fill="#68482E" transform="translate(0,0)"/>
<path d="" fill="#744E36" transform="translate(0,0)"/>
<path d="" fill="#704B31" transform="translate(0,0)"/>
<path d="" fill="#4D3728" transform="translate(0,0)"/>
<path d="" fill="#724D37" transform="translate(0,0)"/>
<path d="" fill="#6F4C34" transform="translate(0,0)"/>
<path d="" fill="#6F4B33" transform="translate(0,0)"/>
<path d="" fill="#6D4931" transform="translate(0,0)"/>
<path d="" fill="#6B482F" transform="translate(0,0)"/>
<path d="" fill="#714E36" transform="translate(0,0)"/>
<path d="" fill="#6D4B33" transform="translate(0,0)"/>
<path d="" fill="#704C31" transform="translate(0,0)"/>
<path d="" fill="#6E4C33" transform="translate(0,0)"/>
<path d="" fill="#774D36" transform="translate(0,0)"/>
<path d="" fill="#6E4A34" transform="translate(0,0)"/>
<path d="" fill="#724D33" transform="translate(0,0)"/>
<path d="" fill="#734D31" transform="translate(0,0)"/>
<path d="" fill="#6E4A33" transform="translate(0,0)"/>
<path d="" fill="#6D4931" transform="translate(0,0)"/>
<path d="" fill="#765037" transform="translate(0,0)"/>
<path d="" fill="#6E4932" transform="translate(0,0)"/>
<path d="" fill="#734E35" transform="translate(0,0)"/>
<path d="" fill="#714B35" transform="translate(0,0)"/>
<path d="" fill="#724F33" transform="translate(0,0)"/>
<path d="" fill="#704A33" transform="translate(0,0)"/>
<path d="" fill="#774E35" transform="translate(0,0)"/>
<path d="" fill="#6C4932" transform="translate(0,0)"/>
<path d="" fill="#734E35" transform="translate(0,0)"/>
<path d="" fill="#724E35" transform="translate(0,0)"/>
<path d="" fill="#734D35" transform="translate(0,0)"/>
<path d="" fill="#724F37" transform="translate(0,0)"/>
<path d="" fill="#724C34" transform="translate(0,0)"/>
<path d="" fill="#714C34" transform="translate(0,0)"/>
<path d="" fill="#724D36" transform="translate(0,0)"/>
<path d="" fill="#734E33" transform="translate(0,0)"/>
<path d="" fill="#704B32" transform="translate(0,0)"/>
<path d="" fill="#484441" transform="translate(0,0)"/>
<path d="" fill="#734D36" transform="translate(0,0)"/>
<path d="" fill="#785238" transform="translate(0,0)"/>
<path d="" fill="#765237" transform="translate(0,0)"/>
<path d="" fill="#765037" transform="translate(0,0)"/>
<path d="" fill="#764F36" transform="translate(0,0)"/>
<path d="" fill="#704D34" transform="translate(0,0)"/>
<path d="" fill="#754E35" transform="translate(0,0)"/>
<path d="" fill="#79543A" transform="translate(0,0)"/>
<path d="" fill="#7A5239" transform="translate(0,0)"/>
<path d="" fill="#785138" transform="translate(0,0)"/>
<path d="" fill="#785238" transform="translate(0,0)"/>
<path d="" fill="#765038" transform="translate(0,0)"/>
<path d="" fill="#755139" transform="translate(0,0)"/>
<path d="" fill="#7B543A" transform="translate(0,0)"/>
<path d="" fill="#785038" transform="translate(0,0)"/>
<path d="" fill="#7A5137" transform="translate(0,0)"/>
<path d="" fill="#754E33" transform="translate(0,0)"/>
<path d="" fill="#7A5236" transform="translate(0,0)"/>
<path d="" fill="#785037" transform="translate(0,0)"/>
<path d="" fill="#795339" transform="translate(0,0)"/>
<path d="" fill="#614634" transform="translate(0,0)"/>
</svg>
