<?xml version="1.0" encoding="UTF-8"?>
<!-- Generator: visioncortex VTracer 0.6.12 -->
<svg version="1.1" xmlns="http://www.w3.org/2000/svg" width="1024" height="1024">
<path d="M0 0 C6.069 4.474 11.327 5.715 18.739 6.627 C20.88 6.941 23.021 7.262 25.161 7.588 C26.174 7.741 27.188 7.894 28.233 8.052 C39.785 9.939 49.798 15.013 59.989 20.502 C61.054 21.07 62.118 21.639 63.215 22.225 C74.384 28.457 83.943 36.358 93.301 45.002 C93.966 45.614 94.631 46.225 95.316 46.856 C95.926 47.43 96.536 48.004 97.165 48.596 C97.71 49.108 98.256 49.621 98.818 50.148 C99.989 51.502 99.989 51.502 99.989 53.502 C100.979 53.832 101.969 54.162 102.989 54.502 C104.313 55.998 104.313 55.998 105.676 57.939 C107.897 61.037 110.215 63.967 112.676 66.877 C134.955 94.789 147.375 130.784 153.989 165.502 C154.166 166.414 154.343 167.327 154.526 168.267 C158.112 186.966 160.383 205.76 161.922 224.729 C162.005 225.739 162.088 226.75 162.173 227.792 C162.587 232.873 162.989 237.954 163.368 243.037 C166.109 278.406 172.999 312.512 198.989 338.502 C201.885 342.533 204.54 346.73 207.09 350.986 C207.447 351.578 207.803 352.17 208.17 352.78 C209.205 354.508 210.23 356.241 211.254 357.975 C211.827 358.809 212.399 359.643 212.989 360.502 C213.649 360.502 214.309 360.502 214.989 360.502 C215.02 360.894 215.02 360.894 215.176 362.877 C216.121 367.093 217.824 370.431 219.833 374.232 C221.58 377.663 222.316 380.991 222.989 384.752 C223.154 385.665 223.319 386.577 223.489 387.518 C227.394 410.828 223.272 431.793 209.989 451.502 C208.019 454.044 205.975 456.523 203.926 459.002 C193.906 471.162 188.463 483.568 189.989 499.502 C191.46 507.714 193.781 515.803 196.989 523.502 C197.649 523.502 198.309 523.502 198.989 523.502 C198.978 524.1 198.978 524.1 198.926 527.127 C198.907 531.208 199.228 535.19 199.614 539.252 C200.935 557.066 194.729 575.291 183.676 589.252 C171.4 603.489 155.778 613.559 136.989 616.502 C135.219 616.567 133.447 616.588 131.676 616.564 C131.235 616.56 131.235 616.56 129 616.537 C128.669 616.531 128.669 616.531 126.989 616.502 C126.659 617.162 126.329 617.822 125.989 618.502 C125.329 618.502 124.669 618.502 123.989 618.502 C122.969 620.025 122.026 621.599 121.114 623.189 C105.315 648.494 79.867 661.439 51.937 669.062 C36.975 672.441 17.079 669.003 2.485 665.088 C-0.011 664.502 -0.011 664.502 -4.011 664.502 C-3.997 665.055 -3.984 665.608 -3.969 666.177 C-3.09 731.549 -29.008 793.824 -74.011 840.502 C-74.424 840.936 -74.424 840.936 -76.515 843.131 C-81.969 848.741 -87.854 853.682 -94.011 858.502 C-94.972 859.256 -95.932 860.01 -96.921 860.787 C-103.997 866.222 -111.328 870.977 -119.011 875.502 C-120.155 876.206 -121.298 876.91 -122.441 877.615 C-151.863 895.365 -186.852 904.769 -220.912 907.82 C-225.804 908.295 -225.804 908.295 -228.011 910.502 C-230.449 910.127 -230.449 910.127 -233.011 909.502 C-234.001 909.502 -234.991 909.502 -236.011 909.502 C-237.678 909.502 -239.345 909.502 -241.011 909.502 C-241.011 909.172 -241.011 908.842 -241.011 908.502 C-241.751 908.427 -242.49 908.352 -243.252 908.274 C-269.062 905.618 -269.062 905.618 -280.191 903.053 C-282.881 902.527 -285.28 902.396 -288.011 902.502 C-288.011 901.842 -288.011 901.182 -288.011 900.502 C-290.651 900.502 -293.291 900.502 -296.011 900.502 C-296.341 901.162 -296.671 901.822 -297.011 902.502 C-297.103 901.876 -297.196 901.251 -297.291 900.606 C-297.529 899.912 -297.766 899.217 -298.011 898.502 C-300.684 897.238 -303.163 896.241 -305.949 895.314 C-307.416 894.801 -308.884 894.286 -310.351 893.771 C-310.955 893.562 -310.955 893.562 -314.011 892.502 C-314.671 892.172 -315.331 891.842 -316.011 891.502 C-316.341 892.162 -316.671 892.822 -317.011 893.502 C-318.345 892.169 -319.678 890.835 -321.011 889.502 C-323.329 888.783 -325.662 888.111 -328.011 887.502 C-328.761 888.324 -329.512 889.147 -330.285 889.994 C-364.431 927.309 -364.431 927.309 -386.011 934.502 C-387.778 935.357 -389.544 936.214 -391.306 937.08 C-401.021 941.827 -410.956 945.49 -421.218 948.873 C-423.011 949.502 -423.011 949.502 -425.011 950.502 C-426.608 950.832 -428.215 951.115 -429.824 951.377 C-430.882 951.55 -431.94 951.722 -433.031 951.9 C-436.128 952.381 -439.23 952.809 -442.335 953.229 C-442.803 953.292 -442.803 953.292 -445.166 953.616 C-447.043 953.871 -448.921 954.119 -450.8 954.361 C-451.674 954.48 -452.548 954.598 -453.449 954.721 C-454.231 954.823 -455.014 954.926 -455.82 955.031 C-458.011 955.502 -458.011 955.502 -460.156 956.605 C-460.768 956.901 -461.38 957.197 -462.011 957.502 C-464.261 956.627 -464.261 956.627 -466.011 955.502 C-466.341 955.832 -466.671 956.162 -467.011 956.502 C-467.341 955.842 -467.671 955.182 -468.011 954.502 C-469.294 954.538 -470.576 954.574 -471.898 954.611 C-477.032 954.607 -481.812 953.809 -486.824 952.752 C-487.692 952.573 -488.561 952.394 -489.456 952.209 C-496.07 950.801 -502.842 949.342 -509.011 946.502 C-509.341 945.842 -509.671 945.182 -510.011 944.502 C-510.701 944.398 -511.391 944.293 -512.101 944.186 C-516.224 943.217 -519.138 940.973 -522.574 938.564 C-523.886 937.657 -525.2 936.752 -526.515 935.85 C-527.091 935.448 -527.666 935.045 -528.26 934.631 C-530.011 933.502 -530.011 933.502 -532.105 932.535 C-535.047 930.941 -536.232 928.282 -538.011 925.502 C-538.671 924.904 -539.331 924.306 -540.011 923.689 C-543.736 919.615 -545.967 914.786 -546.074 909.252 C-544.66 905.594 -543.084 903.954 -540.011 901.502 C-537.036 901.074 -534.538 900.903 -531.574 900.939 C-514.693 900.548 -500.827 894.898 -488.515 883.287 C-485.195 879.594 -482.907 875.64 -480.574 871.275 C-478.467 867.537 -475.901 864.661 -473.011 861.502 C-472.351 860.512 -471.691 859.522 -471.011 858.502 C-470.351 858.502 -469.691 858.502 -469.011 858.502 C-468.887 858.193 -468.887 858.193 -468.261 856.627 C-466.805 854.151 -465.633 853.551 -463.011 852.502 C-463.011 851.842 -463.011 851.182 -463.011 850.502 C-461.379 849.127 -459.709 847.795 -458.011 846.502 C-457.351 845.842 -456.691 845.182 -456.011 844.502 C-450.85 840.693 -445.467 837.657 -439.648 834.994 C-438.702 834.561 -437.755 834.128 -436.78 833.682 C-434.864 832.818 -432.941 831.971 -431.01 831.143 C-430.121 830.743 -429.232 830.343 -428.316 829.932 C-427.511 829.583 -426.707 829.235 -425.878 828.876 C-424.011 827.502 -424.011 827.502 -423.242 824.85 C-423.166 824.075 -423.09 823.3 -423.011 822.502 C-423.671 822.502 -424.331 822.502 -425.011 822.502 C-425.011 821.842 -425.011 821.182 -425.011 820.502 C-425.63 820.213 -426.249 819.924 -426.886 819.627 C-430.832 817.538 -432.587 814.139 -435.011 810.502 C-435.671 809.842 -436.331 809.182 -437.011 808.502 C-437.667 807.242 -438.275 805.957 -438.851 804.658 C-439.192 803.907 -439.533 803.155 -439.884 802.381 C-440.593 800.796 -441.299 799.21 -442.001 797.623 C-442.344 796.872 -442.686 796.12 -443.039 795.346 C-443.345 794.657 -443.652 793.968 -443.968 793.258 C-445.011 791.502 -445.011 791.502 -448.011 789.502 C-449.361 783.202 -449.361 783.202 -448.011 780.502 C-448.246 778.91 -448.485 777.319 -448.74 775.731 C-449.307 771.073 -449.196 766.375 -449.199 761.689 C-449.211 760.641 -449.223 759.592 -449.236 758.512 C-449.238 757.512 -449.24 756.512 -449.242 755.482 C-449.246 754.574 -449.25 753.665 -449.254 752.729 C-449.011 750.502 -449.011 750.502 -447.011 748.502 C-442.193 732.48 -441.884 719.033 -449.011 703.502 C-451.717 698.902 -454.074 695.687 -459.011 693.502 C-462.331 691.842 -463.783 688.869 -465.011 685.502 C-465.248 682.325 -464.972 679.542 -464.011 676.502 C-461.003 673.293 -457.913 672.564 -453.562 672.264 C-426.085 671.529 -400.306 684.604 -380.011 702.502 C-379.171 703.233 -378.33 703.964 -377.464 704.717 C-352.121 727.109 -333.809 755.066 -324.011 787.502 C-324.011 788.492 -324.011 789.482 -324.011 790.502 C-323.351 790.832 -322.691 791.162 -322.011 791.502 C-321.805 792.678 -321.599 793.853 -321.386 795.064 C-319.251 805.394 -313.767 816.607 -305.367 823.143 C-300.099 826.183 -294.785 827.12 -288.824 825.877 C-278.685 822.619 -272.85 816.179 -267.699 807.064 C-257.916 786.161 -265.147 760.479 -271.011 739.502 C-271.669 737.832 -272.335 736.165 -273.011 734.502 C-273.58 731.751 -274.012 728.996 -274.449 726.221 C-275.023 723.443 -275.786 721.06 -277.011 718.502 C-277.671 718.172 -278.331 717.842 -279.011 717.502 C-279.136 711.752 -279.136 711.752 -278.011 709.502 C-278.292 707.494 -278.622 705.492 -279.011 703.502 C-279.671 703.832 -280.331 704.162 -281.011 704.502 C-281 703.458 -280.988 702.414 -280.976 701.338 C-280.885 689.034 -281.361 676.788 -282.011 664.502 C-282.325 664.56 -282.325 664.56 -283.913 664.853 C-304.908 668.68 -323.824 670.222 -345.011 667.502 C-346.539 667.312 -348.066 667.121 -349.593 666.932 C-350.721 666.79 -351.849 666.648 -353.011 666.502 C-353.011 665.842 -353.011 665.182 -353.011 664.502 C-354.166 664.337 -355.321 664.172 -356.511 664.002 C-363.015 662.599 -368.684 659.332 -374.535 656.279 C-378.011 654.502 -378.011 654.502 -381.011 653.502 C-381.671 653.832 -382.331 654.162 -383.011 654.502 C-383.671 654.172 -384.331 653.842 -385.011 653.502 C-385.094 652.927 -385.176 652.352 -385.261 651.76 C-386.419 648.273 -389.214 646.572 -392.011 644.377 C-400.848 637.163 -408.013 629.24 -414.011 619.502 C-414.671 619.832 -415.331 620.162 -416.011 620.502 C-416.341 619.512 -416.671 618.522 -417.011 617.502 C-418.29 617.32 -419.569 617.138 -420.886 616.951 C-422.595 616.698 -424.303 616.444 -426.011 616.189 C-426.431 616.13 -426.431 616.13 -428.554 615.832 C-434.063 614.999 -438.86 613.631 -444.011 611.502 C-444.341 612.162 -444.671 612.822 -445.011 613.502 C-446.011 612.502 -447.011 611.502 -448.011 610.502 C-449.359 609.597 -450.715 608.703 -452.074 607.814 C-459.759 602.687 -466.231 597.775 -472.011 590.502 C-472.673 589.689 -473.334 588.875 -474.015 588.037 C-478.815 581.834 -481.886 575.727 -484.687 568.471 C-485.906 565.739 -486.89 564.49 -489.011 562.502 C-488.636 560.377 -488.636 560.377 -488.011 558.502 C-488.341 558.172 -488.671 557.842 -489.011 557.502 C-489.718 543.775 -488.719 531.341 -484.699 518.139 C-480.53 504.378 -478.928 492.655 -483.843 478.662 C-485.011 476.502 -485.011 476.502 -488.011 475.502 C-487.681 474.842 -487.351 474.182 -487.011 473.502 C-489.829 469.695 -492.661 465.917 -495.648 462.24 C-513.28 440.457 -517.466 420.013 -517.011 392.502 C-516.351 392.502 -515.691 392.502 -515.011 392.502 C-515.341 390.852 -515.671 389.202 -516.011 387.502 C-515.351 387.502 -514.691 387.502 -514.011 387.502 C-513.889 386.636 -513.766 385.769 -513.64 384.877 C-509.641 363.415 -494.057 345.731 -480.199 329.752 C-468.053 315.665 -458.557 298.59 -454.011 280.502 C-454.341 279.842 -454.671 279.182 -455.011 278.502 C-454.021 278.502 -453.031 278.502 -452.011 278.502 C-451.887 277.368 -451.764 276.233 -451.636 275.064 C-451.26 271.977 -450.689 269.022 -449.949 266.002 C-449.226 262.955 -448.925 260.257 -449.011 257.127 C-449.011 253.502 -449.011 253.502 -447.011 250.502 C-446.562 247.217 -446.562 247.217 -446.324 243.439 C-446.281 242.815 -446.281 242.815 -446.062 239.654 C-446.011 236.502 -446.011 236.502 -447.011 234.502 C-446.351 234.502 -445.691 234.502 -445.011 234.502 C-441.905 209.714 -441.905 209.714 -447.699 198.127 C-449.104 195.316 -449.284 193.598 -449.011 190.502 C-448.351 190.172 -447.691 189.842 -447.011 189.502 C-446.28 187.188 -445.61 184.854 -445.011 182.502 C-445.671 182.502 -446.331 182.502 -447.011 182.502 C-448.011 179.502 -448.011 179.502 -448.011 178.502 C-448.341 177.842 -448.671 177.182 -449.011 176.502 C-449.92 176.212 -450.829 175.922 -451.765 175.623 C-461.145 172.383 -467.629 163.012 -472.011 154.502 C-472.366 153.174 -472.698 151.84 -473.011 150.502 C-473.357 149.275 -473.702 148.048 -474.058 146.783 C-475.129 142.483 -475.309 138.417 -475.261 134.002 C-475.265 133.648 -475.265 133.648 -475.285 131.857 C-475.238 119.033 -470.002 108.858 -461.253 99.693 C-453.33 91.95 -443.911 88.266 -432.699 88.252 C-431.135 88.314 -429.572 88.389 -428.011 88.502 C-428.034 87.596 -428.058 86.69 -428.082 85.756 C-428.289 71.74 -426.413 62.634 -416.714 51.979 C-404.541 40.309 -390.774 38.16 -374.398 38.432 C-373.61 38.455 -372.823 38.478 -372.011 38.502 C-371.681 39.162 -371.351 39.822 -371.011 40.502 C-369.164 41.135 -369.164 41.135 -366.949 41.627 C-366.215 41.795 -365.482 41.962 -364.726 42.135 C-364.16 42.256 -363.594 42.377 -363.011 42.502 C-362.887 42.182 -362.887 42.182 -362.261 40.564 C-361.849 39.884 -361.436 39.203 -361.011 38.502 C-360.705 38.43 -360.705 38.43 -359.156 38.064 C-356.53 37.376 -355.41 36.299 -353.449 34.439 C-349.307 30.649 -344.855 27.477 -340.234 24.299 C-338.011 22.502 -338.011 22.502 -337.011 19.502 C-336.355 19.439 -335.699 19.376 -335.023 19.311 C-330.777 18.17 -327.507 15.918 -323.824 13.564 C-308.397 3.952 -292.75 -4.393 -276.011 -11.498 C-275.307 -11.803 -274.602 -12.108 -273.876 -12.422 C-194.902 -46.344 -72.493 -53.996 0 0 Z M-448.011 191.502 C-447.011 194.502 -447.011 194.502 -447.011 194.502 Z M-447.011 784.502 C-446.011 787.502 -446.011 787.502 -446.011 787.502 Z " fill="#4D3016" transform="translate(649.01123046875,49.498046875)"/>
<path d="M0 0 C3.861 0.016 7.72 0 11.581 -0.019 C56.215 -0.058 112.296 8.761 147.704 38.649 C152.327 42.207 156.678 42.331 162.36 42.516 C186.885 44.092 207.233 54.506 225.798 70.391 C226.29 70.81 226.782 71.228 227.289 71.659 C281.716 118.385 292.247 193.173 297.524 260.587 C300.823 302.372 309.147 335.184 335.985 368.016 C352.255 387.983 360.715 409.425 358.798 435.391 C356.923 448.949 349.819 459.348 341.343 469.618 C328.777 485.052 322.902 501.419 324.798 521.391 C326.079 528.648 328.199 535.802 330.622 542.757 C332.834 549.365 333.252 555.386 333.173 562.329 C333.184 563.336 333.196 564.343 333.208 565.381 C333.147 581.045 327.56 593.511 316.696 604.622 C303.776 617.271 287.082 621.642 269.286 621.79 C264.958 622.836 263.457 626.346 261.192 629.934 C260.67 630.807 260.148 631.679 259.61 632.579 C246.577 653.253 226.68 666.175 203.118 671.532 C196.886 672.705 190.686 672.774 184.36 672.766 C183.134 672.766 181.908 672.766 180.645 672.766 C167.701 672.605 156.154 669.929 143.798 666.391 C143.657 665.504 143.516 664.618 143.37 663.704 C142.839 660.368 142.306 657.032 141.771 653.696 C141.542 652.261 141.313 650.825 141.085 649.39 C139.808 641.358 138.492 633.348 136.798 625.391 C142.089 628.701 147.313 632.006 152.298 635.766 C163.567 643.79 176.212 649.556 190.048 649.641 C190.458 649.651 190.458 649.651 192.536 649.704 C200.687 649.755 207.165 647.726 213.259 642.133 C218.833 635.823 220.185 628.326 220.075 620.141 C219.248 611.939 215.615 604.209 209.798 598.391 C207.155 596.251 204.474 594.193 201.751 592.157 C191.471 584.449 184.599 575.193 177.393 564.697 C174.745 560.871 172.025 557.098 169.298 553.329 C168.758 552.583 168.219 551.837 167.663 551.069 C153.058 530.937 137.701 511.504 120.492 493.515 C118.248 491.137 116.846 489.536 115.798 486.391 C116.43 486.221 117.063 486.051 117.715 485.875 C156.379 475.358 193.769 456.19 215.798 421.391 C216.362 420.503 216.927 419.615 217.509 418.7 C221.54 412.161 221.54 412.161 222.712 408.657 C223.776 405.663 224.62 403.724 226.798 401.391 C230.746 400.112 234.544 399.545 238.645 399.016 C252.417 397.197 262.732 388.638 271.298 378.266 C275.065 373.311 277.614 368.206 279.798 362.391 C280.119 361.547 280.44 360.702 280.77 359.833 C285.94 343.265 284.114 324.76 276.305 309.469 C274.905 307.017 273.418 304.702 271.798 302.391 C271.076 301.36 270.354 300.329 269.61 299.266 C265.234 294.317 259.154 289.717 253.029 287.297 C249.834 285.937 247.409 284.692 244.798 282.391 C243.189 277.759 243.315 273.259 243.36 268.391 C243.3 265.601 243.202 262.813 243.11 260.024 C243.092 259.312 243.074 258.6 243.055 257.866 C242.837 250.26 241.907 242.797 240.86 235.266 C240.702 234.066 240.543 232.866 240.38 231.629 C239.29 223.766 237.707 216.096 235.798 208.391 C235.136 208.362 234.475 208.334 233.793 208.304 C232.215 208.235 230.637 208.167 229.059 208.098 C226.227 208.465 225.522 209.154 223.798 211.391 C223.653 213.346 223.653 213.346 223.985 215.645 C224.104 216.533 224.222 217.422 224.344 218.337 C224.494 219.345 224.644 220.353 224.798 221.391 C225.111 223.775 225.423 226.159 225.735 228.543 C226.265 232.446 226.8 236.347 227.337 240.249 C228.337 247.62 229.211 254.975 229.798 262.391 C224.519 261.501 220.426 259.381 215.735 256.891 C214.889 256.443 214.043 255.994 213.171 255.532 C202.175 249.577 192.873 241.971 183.798 233.391 C182.975 232.633 182.153 231.875 181.305 231.094 C157.783 208.671 144.229 176.149 143.235 143.891 C143.227 142.988 143.22 142.085 143.212 141.155 C143.198 140.315 143.183 139.475 143.169 138.61 C143.168 138.238 143.168 138.238 143.167 136.358 C142.69 133.819 141.828 132.946 139.798 131.391 C136.86 130.829 136.86 130.829 133.798 131.391 C130.132 136.04 128.032 141.223 125.735 146.641 C117.092 166.385 105.021 183.443 90.152 198.974 C88.995 200.185 87.852 201.41 86.712 202.637 C64.4 226.032 31.254 241.556 -0.202 247.391 C-1.135 247.568 -2.068 247.746 -3.028 247.928 C-11.169 249.341 -19.165 249.733 -27.403 249.707 C-29.503 249.704 -31.601 249.727 -33.7 249.752 C-56.998 249.861 -56.998 249.861 -65.202 244.391 C-64.606 244.025 -64.009 243.659 -63.394 243.282 C-32.131 223.772 5.919 194.697 16.798 157.391 C16.924 154.683 16.599 153.025 15.798 150.391 C14.798 149.391 14.798 149.391 11.61 148.766 C7.798 149.391 7.798 149.391 6.247 150.977 C4.631 153.389 3.198 155.848 1.798 158.391 C-6.363 173.042 -16.198 185.961 -27.853 197.995 C-29.07 199.254 -30.268 200.531 -31.464 201.809 C-37.792 208.418 -44.922 213.889 -52.202 219.391 C-52.508 219.625 -52.508 219.625 -54.056 220.807 C-63.081 227.684 -72.341 233.789 -82.202 239.391 C-82.989 239.846 -83.776 240.301 -84.587 240.77 C-120.438 261.42 -173.72 286.391 -216.202 286.391 C-216.227 285.97 -216.227 285.97 -216.351 283.836 C-216.388 283.289 -216.388 283.289 -216.577 280.516 C-216.647 279.426 -216.717 278.335 -216.788 277.211 C-217.202 274.391 -217.202 274.391 -219.202 272.391 C-225.32 271.835 -225.32 271.835 -227.851 273.43 C-229.892 276.392 -230.035 279.588 -230.39 283.079 C-230.472 283.781 -230.554 284.482 -230.638 285.206 C-230.838 286.933 -231.022 288.662 -231.202 290.391 C-231.614 290.525 -231.614 290.525 -233.695 291.204 C-246.456 295.683 -256.471 303.101 -262.89 315.141 C-270.464 331.511 -270.364 349.523 -264.202 366.391 C-259.174 379.186 -250.556 388.9 -238.144 394.86 C-225.201 400.418 -225.201 400.418 -218.308 400.356 C-215.55 400.695 -214.543 400.975 -212.762 403.152 C-211.453 405.625 -210.343 408.122 -209.265 410.704 C-208.422 412.545 -207.571 414.382 -206.71 416.215 C-206.292 417.108 -205.873 418 -205.442 418.92 C-200.795 428.186 -193.261 435.913 -186.202 443.391 C-185.518 444.14 -184.833 444.889 -184.128 445.661 C-163.636 467.289 -130.331 482.353 -101.202 487.391 C-101.202 489.391 -101.202 489.391 -103.406 491.727 C-103.867 492.167 -103.867 492.167 -106.202 494.391 C-112.545 500.544 -118.375 506.837 -123.879 513.751 C-125.36 515.586 -126.87 517.394 -128.386 519.2 C-136.503 528.891 -144.096 538.874 -151.525 549.1 C-154.149 552.685 -156.834 556.224 -159.515 559.766 C-162.731 564.015 -165.855 568.296 -168.828 572.719 C-174.247 580.776 -179.833 586.796 -187.765 592.391 C-195.269 597.723 -202.034 604.142 -204.202 613.391 C-205.258 622.451 -205.347 631.54 -200.202 639.391 C-199.903 639.855 -199.903 639.855 -198.39 642.204 C-191.644 648.95 -184.162 649.743 -175.041 649.774 C-155.807 649.385 -139.312 636.066 -124.202 625.391 C-122.805 628.186 -123.627 629.447 -124.452 632.454 C-127.102 643.246 -128 654.362 -129.202 665.391 C-134.01 667.262 -138.659 668.88 -143.702 670.016 C-144.744 670.256 -145.786 670.496 -146.859 670.743 C-164.963 674.254 -185.678 674.62 -203.202 668.391 C-203.871 668.155 -204.54 667.919 -205.229 667.676 C-225.036 660.405 -239.815 647.417 -251.073 629.711 C-255.6 622.651 -255.6 622.651 -257.902 621.657 C-260.546 621.351 -263.176 621.264 -265.836 621.204 C-283.028 620.71 -297.372 614.684 -309.515 602.329 C-321.055 588.412 -324.311 572.715 -323.463 555.093 C-322.929 549.553 -321.307 544.39 -319.491 539.153 C-315.024 526.115 -312.977 508.58 -318.956 495.711 C-319.368 494.946 -319.779 494.18 -320.202 493.391 C-320.603 492.522 -321.004 491.653 -321.417 490.758 C-324.453 484.582 -328.445 479.585 -332.947 474.443 C-348.498 456.484 -352.584 438.82 -351.202 415.391 C-350.495 410.653 -349.209 406.73 -347.202 402.391 C-346.907 401.747 -346.611 401.102 -346.307 400.438 C-341.25 389.635 -334.87 380.477 -327.202 371.391 C-316.151 358.08 -306.186 344.776 -298.202 329.391 C-297.722 328.472 -297.241 327.553 -296.745 326.606 C-284.863 302.201 -281.872 273.928 -278.202 247.391 C-275.716 248.379 -273.244 249.372 -270.8 250.461 C-259.918 254.989 -249.292 254.559 -238.234 250.708 C-228.926 246.665 -222.617 240.091 -216.202 232.391 C-215.983 232.573 -215.983 232.573 -214.874 233.493 C-203.464 242.537 -193.8 245.839 -179.355 244.651 C-169.025 243.404 -159.039 237.565 -152.55 229.45 C-145.902 219.294 -144.306 209.351 -145.202 197.391 C-146.934 189.207 -150.607 182.315 -155.202 175.391 C-154.646 174.99 -154.089 174.589 -153.515 174.176 C-142.624 166.063 -135.104 157.324 -132.523 143.758 C-130.782 130.892 -133.965 119.464 -141.296 108.762 C-144.2 105.15 -147.221 102.727 -151.202 100.391 C-151.933 99.906 -152.664 99.422 -153.417 98.922 C-163.885 92.969 -178.664 93.829 -190.015 96.891 C-191.421 97.362 -192.823 97.848 -194.202 98.391 C-194.361 97.629 -194.52 96.867 -194.683 96.083 C-196.095 89.835 -197.787 84.659 -201.214 79.231 C-202.202 77.391 -202.202 77.391 -202.202 74.391 C-200.124 72.46 -198.069 70.74 -195.827 69.016 C-195.489 68.752 -195.489 68.752 -193.778 67.418 C-191.596 65.728 -189.401 64.058 -187.202 62.391 C-186.518 61.867 -185.833 61.342 -185.128 60.802 C-131.855 20.2 -66.739 -0.33 0 0 Z " fill="#F6963F" transform="translate(499.202392578125,29.60888671875)"/>
<path d="M0 0 C1.793 2.689 2.402 4.058 3.121 7.078 C8.096 26.759 16.098 45.2 29 61 C29.238 61.296 29.238 61.296 30.442 62.791 C49.022 85.709 72.368 100.032 99 112 C99.163 123.551 98.758 134.931 97.75 146.438 C97.683 147.214 97.617 147.99 97.548 148.79 C94.244 186.921 89.057 229.09 63 259 C62.251 259.893 61.502 260.787 60.73 261.707 C27.476 300.119 -29.302 311.264 -77.414 315.285 C-91.082 316.228 -104.767 316.187 -118.46 316.185 C-121.299 316.185 -124.137 316.192 -126.975 316.206 C-152.289 316.326 -177.501 315.591 -202.562 311.688 C-203.27 311.58 -203.977 311.472 -204.706 311.361 C-216.328 309.586 -227.735 307.402 -239 304 C-239.429 303.872 -239.429 303.872 -241.601 303.227 C-253.708 299.574 -264.916 295.072 -276 289 C-277.237 288.344 -278.474 287.687 -279.711 287.031 C-309.646 270.859 -327.261 244.197 -337.18 212.406 C-344.608 187.197 -347.799 160.232 -347 134 C-346.263 133.825 -345.526 133.649 -344.766 133.469 C-337.161 131.655 -329.562 129.819 -321.967 127.966 C-319.498 127.364 -317.028 126.767 -314.557 126.175 C-287.409 119.647 -260.044 111.505 -235 99 C-233.464 98.246 -231.927 97.492 -230.391 96.738 C-219.771 91.496 -219.771 91.496 -217 89.715 C-212.079 87.956 -206.352 90.383 -201.494 91.765 C-158.907 103.855 -112.28 95.349 -74 74 C-42.162 56.126 -17.922 31.714 0 0 Z " fill="#FCD5A9" transform="translate(630,197)"/>
<path d="M0 0 C10.334 0.011 19.98 0.722 30 3.25 C30.788 3.449 31.577 3.647 32.389 3.852 C55.075 9.763 74.119 19.58 90.93 36.152 C93.817 38.879 95.499 40.132 99.438 41.062 C104.632 39.878 107.234 36.885 111 33.25 C127.449 18.115 147.549 9.058 169 3.25 C170.02 2.95 171.039 2.649 172.09 2.34 C185.683 -1.07 200.09 -0.013 214 0.25 C218.01 15.153 221.326 29.895 223 45.25 C223.094 46.11 223.189 46.97 223.286 47.857 C229.129 105.953 211.689 167.092 176 213.25 C173.094 216.676 170.065 219.967 167 223.25 C165.807 224.62 164.619 225.995 163.438 227.375 C156.608 235.174 149.144 241.843 141 248.25 C140.548 248.61 140.548 248.61 138.262 250.434 C110.999 271.587 79.533 284.17 46 291.25 C45.191 291.431 44.382 291.612 43.549 291.798 C18.736 297.21 -10.472 296.454 -35 290.25 C-35.775 290.057 -36.55 289.865 -37.349 289.667 C-49.847 286.473 -61.963 282.027 -73.312 275.875 C-78.443 273.248 -83.279 271.723 -89 273.25 C-92.415 275.6 -94.822 278.108 -97.25 281.438 C-107.309 294.249 -119.214 305.569 -133 314.25 C-133.633 314.658 -134.266 315.065 -134.918 315.485 C-165.86 335.253 -205.313 347.315 -242 340.25 C-256.53 336.84 -269.31 330.885 -280 320.25 C-276.543 318.282 -273.112 317.512 -269.25 316.625 C-249.397 311.634 -233.471 299.982 -222.812 282.5 C-208.781 259.789 -184.935 247.581 -160.172 239.931 C-156.431 238.758 -152.716 237.502 -149 236.25 C-148.312 232.938 -148.312 232.938 -148 229.25 C-150.201 226.204 -153.269 225.076 -156.625 223.562 C-170.165 216.898 -180.607 204.336 -186 190.25 C-191.285 174.289 -189.484 160.028 -185.135 144.155 C-180.067 125.315 -186.01 109.749 -195 93.25 C-195.33 92.59 -195.66 91.93 -196 91.25 C-181.623 93.561 -168.706 100.885 -157 109.25 C-156.718 109.451 -156.718 109.451 -155.291 110.467 C-124.228 132.95 -105.156 163.87 -93.938 200.062 C-89.048 215.747 -83.293 231.666 -68.188 240.312 C-66.81 240.997 -65.414 241.644 -64 242.25 C-63.246 242.612 -62.492 242.974 -61.715 243.348 C-53.231 246.167 -42.544 244.967 -34.457 241.512 C-20.466 234.327 -11.135 223.165 -6 208.25 C-3.904 201.118 -3.665 194.211 -3.688 186.812 C-3.671 185.764 -3.655 184.715 -3.639 183.635 C-3.629 166.891 -7.915 150.751 -12 134.625 C-16.084 118.439 -20.014 102.461 -21.188 85.75 C-21.266 84.674 -21.345 83.598 -21.427 82.489 C-23.332 55 -20.312 27.596 -12 1.25 C-9.564 -1.186 -3.26 0.008 0 0 Z " fill="#C498CE" transform="translate(405,646.75)"/>
<path d="M0 0 C2.211 1.785 2.211 1.785 4.375 4.062 C5.156 4.88 5.937 5.697 6.742 6.539 C9.271 9.295 11.76 12.075 14.195 14.914 C16.217 17.25 18.294 19.53 20.375 21.812 C24.296 26.158 28.026 30.627 31.703 35.18 C33.991 37.989 36.337 40.742 38.688 43.5 C45.528 51.696 51.738 60.36 58 69 C58.572 69.788 59.144 70.576 59.734 71.388 C61.408 73.695 63.079 76.003 64.75 78.312 C65.018 78.683 65.018 78.683 66.377 80.559 C68.863 84 71.323 87.453 73.719 90.957 C79.967 100.054 86.542 106.646 95.688 112.875 C101.536 117.064 105.951 121.985 107.461 129.203 C107.687 133.769 106.525 137.256 104 141 C99.067 144.668 94.075 145.735 88 145 C72.769 141.724 60.643 133.02 48.279 124.012 C47.481 123.437 46.682 122.862 45.859 122.27 C45.065 121.692 44.271 121.115 43.452 120.52 C41 119 41 119 38.368 118.152 C35.236 117.134 33.426 116.262 31 114 C27.911 107.933 26.736 100.967 25.25 94.375 C24.392 90.797 23.515 87.223 22.641 83.648 C22.428 82.767 22.215 81.886 21.995 80.977 C20.481 74.762 18.831 68.602 16.984 62.477 C16.76 61.695 16.536 60.913 16.306 60.108 C14.805 55.288 13.116 52.188 9 49 C5.312 49 5.312 49 2 50 C0 53 0 53 0.257 56.29 C0.95 59.748 1.812 63.004 2.891 66.359 C3.268 67.549 3.646 68.739 4.035 69.966 C4.436 71.214 4.837 72.463 5.25 73.75 C8.028 82.517 10.74 91.287 13.062 100.188 C13.266 100.964 13.469 101.74 13.679 102.54 C15 107.709 15 107.709 15 110 C14.054 109.977 13.108 109.954 12.133 109.93 C-27.02 109.263 -63.12 122.765 -93 148 C-96.511 146.429 -99.292 144.306 -102.312 141.938 C-130.555 120.412 -164.774 110.505 -200 109 C-198.715 101.091 -196.886 93.452 -194.688 85.75 C-194.534 85.204 -194.534 85.204 -193.76 82.444 C-191.706 75.209 -189.422 68.116 -186.75 61.086 C-185.849 57.378 -186.124 54.696 -187 51 C-190.109 49.445 -193.631 49.273 -197 50 C-199.942 53.193 -200.994 56.546 -202.234 60.66 C-202.333 60.987 -202.333 60.987 -202.835 62.642 C-203.259 64.048 -203.68 65.456 -204.097 66.865 C-204.757 69.086 -205.436 71.301 -206.117 73.516 C-208.266 80.581 -210.202 87.577 -211.578 94.836 C-215.142 113.171 -215.142 113.171 -220.801 117.469 C-224.541 119.728 -228.495 121.325 -232.555 122.916 C-236.804 124.8 -240.467 127.514 -244.25 130.188 C-268.246 146.608 -268.246 146.608 -281.887 144.605 C-286.32 143.335 -288.964 140.621 -291.438 136.75 C-292.534 131.389 -291.896 126.722 -289.375 121.875 C-285.073 116.668 -280.777 112.426 -275.125 108.688 C-266.072 102.484 -260.103 93.922 -253.936 85.021 C-239.333 64.001 -223.34 43.243 -206.102 24.316 C-204.288 22.317 -202.512 20.294 -200.75 18.25 C-200.192 17.627 -199.634 17.005 -199.059 16.363 C-197.345 14.396 -195.721 12.395 -194.098 10.355 C-193.004 9.048 -191.909 7.742 -190.812 6.438 C-190.566 6.115 -190.566 6.115 -189.321 4.483 C-186.846 1.612 -185.218 0.104 -181.353 -0.226 C-178.194 0.022 -175.125 0.479 -172 1 C-169.921 1.239 -167.84 1.467 -165.758 1.684 C-164.689 1.806 -163.619 1.928 -162.518 2.053 C-111.765 7.798 -60.254 8.178 -9.767 -0.378 C-6.227 -0.973 -3.42 -1.195 0 0 Z " fill="#FCD5A9" transform="translate(599,522)"/>
<path d="M0 0 C6.975 4.244 11.395 10.626 13.395 18.457 C13.805 21.916 13.903 25.351 13.957 28.832 C13.991 30.611 14.034 32.39 14.086 34.168 C14.092 34.556 14.092 34.556 14.123 36.521 C14.395 38.457 14.395 38.457 16.395 40.457 C24.617 41.827 29.605 38.502 36.355 34.305 C42.315 30.682 48.841 30.511 55.613 31.918 C63.929 34.723 69.526 39.637 73.484 47.406 C76.44 54.066 76.475 62.057 74.746 69.098 C70.971 78.325 64.371 84.421 55.395 88.457 C52.746 89.524 50.084 90.496 47.395 91.457 C46.395 92.457 46.395 92.457 45.977 96.191 C46.026 99.835 46.266 100.312 48.844 103.223 C49.911 104.067 50.991 104.895 52.082 105.707 C58.743 111.216 62.237 116.987 63.785 125.641 C64.199 132.985 61.788 140.218 57.145 145.832 C52.05 151.164 46.62 154.14 39.223 154.695 C31.927 154.847 26.427 154.762 20.395 150.457 C19.363 149.735 18.332 149.013 17.27 148.27 C14.709 146.068 13.189 143.591 11.457 140.707 C9.245 137.215 8.807 136.597 4.707 135.207 C1.395 135.457 1.395 135.457 -0.133 136.609 C-2.037 138.998 -3.192 141.501 -4.48 144.27 C-8.879 153.184 -13.606 157.965 -22.605 162.457 C-29.289 164.62 -36.853 164.086 -43.371 161.625 C-49.49 158.427 -55.273 153.289 -58.012 146.848 C-60.177 138.128 -59.353 130.202 -54.895 122.445 C-53.811 120.774 -52.71 119.114 -51.605 117.457 C-52.172 110.891 -52.172 110.891 -53.605 109.457 C-55.789 109.158 -57.978 108.893 -60.168 108.645 C-69.863 107.288 -76.529 104.318 -82.605 96.457 C-88.33 87.943 -89.08 78.407 -87.605 68.457 C-85.609 61.553 -81.412 55.699 -75.605 51.457 C-70.032 48.388 -64.007 46.111 -57.605 47.457 C-54.262 48.696 -50.975 50.047 -47.676 51.398 C-43.651 52.786 -41.585 52.872 -37.605 51.457 C-35.219 47.878 -35.127 46.684 -35.605 42.457 C-36.499 40.321 -37.517 38.317 -38.633 36.289 C-41.781 30.36 -41.458 23.093 -39.957 16.691 C-37.366 9.472 -33.555 4.652 -26.836 0.918 C-17.505 -3.37 -9.503 -4.235 0 0 Z " fill="#EE9BCB" transform="translate(277.60546875,106.54296875)"/>
<path d="M0 0 C7.927 5.303 11.57 13.864 13.902 22.91 C15.923 36.606 14.569 51.641 6.352 63.219 C5.368 64.356 4.348 65.464 3.289 66.531 C3.047 66.781 3.047 66.781 1.82 68.043 C-3.125 72.633 -8.942 74.059 -15.602 73.84 C-22.286 72.862 -27.346 69.759 -31.434 64.449 C-37.704 55.033 -39.072 45.859 -39.086 34.719 C-39.11 33.702 -39.135 32.686 -39.16 31.639 C-39.202 20.684 -35.784 10.977 -28.711 2.531 C-19.701 -4.79 -10.007 -5.577 0 0 Z " fill="#4F3215" transform="translate(406.7109375,342.46875)"/>
<path d="M0 0 C7.622 6.001 10.648 15.278 12.812 24.438 C12.874 25.613 12.936 26.789 13 28 C13.073 28.98 13.147 29.959 13.223 30.969 C13.527 37.909 12.803 43.913 10.75 50.5 C10.546 51.158 10.341 51.816 10.13 52.494 C7.431 60.485 2.795 66.159 -4 71 C-10.98 73.817 -17.274 73.793 -24.156 70.895 C-31.386 67.387 -35.26 60.644 -38.012 53.301 C-42.344 39.162 -42.186 25.169 -36.312 11.457 C-32.394 4.122 -27.302 -0.791 -19.371 -3.41 C-12.208 -5.192 -6.313 -3.568 0 0 Z " fill="#4F3215" transform="translate(634,343)"/>
<path d="M0 0 C6.501 4.805 11.855 10.372 13.539 18.488 C14.431 27.944 13.08 36.086 7.289 43.801 C0.284 50.647 -6.983 53.49 -16.773 53.926 C-24.369 53.778 -29.758 51.7 -35.492 46.727 C-41.594 40.354 -44.614 33.229 -44.961 24.426 C-44.618 15.784 -41.28 9.565 -35.461 3.281 C-25.268 -5.856 -11.73 -7.205 0 0 Z " fill="#472C14" transform="translate(288.4609375,169.51171875)"/>
<path d="M0 0 C10.93 4.258 18.061 12.162 22.938 22.75 C27.48 35.565 26.704 51.714 21 64 C15.765 73.58 7.561 82.418 -3 86 C-5.992 86.441 -8.987 86.743 -12 87 C-11.746 85.886 -11.492 84.772 -11.23 83.625 C-10.883 82.083 -10.535 80.542 -10.188 79 C-10.105 78.638 -10.105 78.638 -9.686 76.805 C-6.671 63.383 -4.487 50.06 -3.12 36.382 C-2.875 33.935 -2.62 31.49 -2.363 29.045 C-1.362 19.373 -0.567 9.707 0 0 Z " fill="#FBD7AC" transform="translate(743,328)"/>
<path d="M0 0 C0.04 0.767 0.079 1.535 0.12 2.325 C1.537 28.689 4.95 54.259 11 80 C1.482 79.105 -5.722 75.83 -12.375 68.75 C-22.848 56.003 -24.25 41.914 -23 26 C-21.361 17.206 -16.669 9.388 -9.395 4.109 C-2.741 0 -2.741 0 0 0 Z " fill="#FBD8AE" transform="translate(268,335)"/>
<path d="M0 0 C3.497 0.958 5.488 3.374 8.055 5.836 C14.134 10.893 22.323 11.147 29.922 10.941 C38.003 10.076 43.709 7.311 49.547 1.809 C51.168 0.594 51.168 0.594 54.855 -0.094 C58.168 0.594 58.168 0.594 60.605 2.719 C62.448 6.11 62.802 7.792 62.168 11.594 C58.15 18.898 49.003 22.648 41.371 25.051 C26.785 28.646 12.681 27.054 -0.395 19.656 C-3.914 17.367 -6.808 15.366 -8.832 11.594 C-9.28 7.95 -9.226 5.555 -7.832 2.156 C-5.303 0.18 -3.182 -0.139 0 0 Z " fill="#492D14" transform="translate(479.83203125,428.40625)"/>
<path d="M0 0 C6.18 3.182 9.39 6.412 11.617 13.094 C12.403 19.622 11.391 24.673 7.617 30.094 C3.831 33.88 -0.055 35.982 -5.484 36.164 C-11.375 35.82 -15.988 34.082 -20.383 30.094 C-24.067 25.424 -25.094 20.428 -24.832 14.555 C-23.786 8.824 -20.761 5.169 -16.258 1.656 C-10.91 -1.25 -5.751 -2.187 0 0 Z " fill="#F59B42" transform="translate(279.3828125,176.90625)"/>
<path d="M0 0 C14.52 0 29.04 0 44 0 C40.608 2.261 37.996 2.713 34.059 3.438 C32 4 32 4 30 6 C27.562 5.625 27.562 5.625 25 5 C24.01 5 23.02 5 22 5 C20.333 5 18.667 5 17 5 C17 4.67 17 4.34 17 4 C13.04 3.67 9.08 3.34 5 3 C5 2.34 5 1.68 5 1 C3.35 1 1.7 1 0 1 C0 0.67 0 0.34 0 0 Z " fill="#623C24" transform="translate(391,954)"/>
<path d="M0 0 C0.33 0 0.66 0 1 0 C1 2.31 1 4.62 1 7 C-1 5 -1 5 -2 2 C-1.34 2 -0.68 2 0 2 C0 1.34 0 0.68 0 0 Z " fill="#9A5F32" transform="translate(130,456)"/>
<path d="M0 0 C0.99 0.33 1.98 0.66 3 1 C3 2.65 3 4.3 3 6 C2.67 4.68 2.34 3.36 2 2 C1.34 2 0.68 2 0 2 C0 1.34 0 0.68 0 0 Z " fill="#9B6034" transform="translate(129,466)"/>
<path d="M0 0 C1.65 0 3.3 0 5 0 C4.34 0.33 4.34 0.33 1 2 C0.67 1.34 0.34 0.68 0 0 Z " fill="#9E6037" transform="translate(664,718)"/>
<path d="M0 0 C0.625 1.875 0.625 1.875 1 4 C0.34 4.66 -0.32 5.32 -1 6 C-0.67 4.02 -0.34 2.04 0 0 Z " fill="#A26234" transform="translate(201,296)"/>
<path d="M0 0 C0.33 0 0.66 0 1 0 C1 1.98 1 3.96 1 6 C0.67 6 0.34 6 0 6 C0 4.02 0 2.04 0 0 Z " fill="#945C41" transform="translate(384,824)"/>
<path d="M0 0 C0.99 0 1.98 0 3 0 C3.33 0.99 3.66 1.98 4 3 C3.34 3 2.68 3 2 3 C2 2.34 2 1.68 2 1 C1.34 0.67 0.68 0.34 0 0 Z " fill="#8C5737" transform="translate(193,747)"/>
<path d="M0 0 C1.98 0 3.96 0 6 0 C6 0.33 6 0.66 6 1 C4.02 1 2.04 1 0 1 C0 0.67 0 0.34 0 0 Z " fill="#925936" transform="translate(202,720)"/>
<path d="M0 0 C0.66 0.66 1.32 1.32 2 2 C1.01 2 0.02 2 -1 2 C-0.67 1.34 -0.34 0.68 0 0 Z " fill="#89563B" transform="translate(152,936)"/>
<path d="M0 0 C0.66 0.66 1.32 1.32 2 2 C1.01 2 0.02 2 -1 2 C-0.67 1.34 -0.34 0.68 0 0 Z " fill="#925B41" transform="translate(377,858)"/>
<path d="M0 0 C0.33 0 0.66 0 1 0 C1 1.65 1 3.3 1 5 C0.67 5 0.34 5 0 5 C0 3.35 0 1.7 0 0 Z " fill="#965E43" transform="translate(384,839)"/>
<path d="M0 0 C0.66 0.66 1.32 1.32 2 2 C0.68 1.67 -0.64 1.34 -2 1 C-1.34 0.67 -0.68 0.34 0 0 Z " fill="#875334" transform="translate(186,740)"/>
<path d="M0 0 C1.65 0 3.3 0 5 0 C5 0.33 5 0.66 5 1 C3.35 1 1.7 1 0 1 C0 0.67 0 0.34 0 0 Z " fill="#9C5D34" transform="translate(691,719)"/>
<path d="M0 0 C0.66 0 1.32 0 2 0 C1.67 0.99 1.34 1.98 1 3 C0.67 2.01 0.34 1.02 0 0 Z " fill="#9C5E37" transform="translate(658,717)"/>
<path d="M0 0 C0.99 0 1.98 0 3 0 C3 0.66 3 1.32 3 2 C2.01 1.67 1.02 1.34 0 1 C0 0.67 0 0.34 0 0 Z " fill="#9C6035" transform="translate(163,622)"/>
<path d="M0 0 C0.33 1.32 0.66 2.64 1 4 C0.34 3.34 -0.32 2.68 -1 2 C-0.67 1.34 -0.34 0.68 0 0 Z " fill="#975D34" transform="translate(202,251)"/>
<path d="M0 0 C0.99 0.33 1.98 0.66 3 1 C2.34 1.66 1.68 2.32 1 3 C0.67 2.01 0.34 1.02 0 0 Z " fill="#945B35" transform="translate(186,219)"/>
<path d="M0 0 C1.65 0 3.3 0 5 0 C5 0.33 5 0.66 5 1 C3.35 1 1.7 1 0 1 C0 0.67 0 0.34 0 0 Z " fill="#925732" transform="translate(213,136)"/>
<path d="M0 0 C4 1 4 1 4 1 Z " fill="#8B553A" transform="translate(403,958)"/>
<path d="M0 0 C0.99 0.33 1.98 0.66 3 1 C2.01 1.33 1.02 1.66 0 2 C0 1.34 0 0.68 0 0 Z " fill="#8E593D" transform="translate(198,888)"/>
<path d="M0 0 C1 4 1 4 1 4 Z " fill="#965E43" transform="translate(384,832)"/>
<path d="M0 0 C0 3 0 3 0 3 Z " fill="#915A3E" transform="translate(379,797)"/>
<path d="M0 0 C0.66 0.66 1.32 1.32 2 2 C1.01 1.67 0.02 1.34 -1 1 C-0.67 0.67 -0.34 0.34 0 0 Z " fill="#8D5839" transform="translate(197,750)"/>
<path d="M0 0 C4 1 4 1 4 1 Z " fill="#8E5633" transform="translate(197,720)"/>
<path d="M0 0 C4 1 4 1 4 1 Z " fill="#9A5F38" transform="translate(648,715)"/>
<path d="M0 0 C0.495 0.33 0.495 0.33 3 2 C2.01 2 1.02 2 0 2 C0 1.34 0 0.68 0 0 Z " fill="#A56537" transform="translate(281,710)"/>
<path d="M0 0 C1 4 1 4 1 4 Z " fill="#A16135" transform="translate(160,576)"/>
<path d="M0 0 C1 4 1 4 1 4 Z " fill="#9F6337" transform="translate(839,540)"/>
<path d="M0 0 C0 3 0 3 0 3 Z " fill="#A16434" transform="translate(185,344)"/>
<path d="M0 0 C0.66 0 1.32 0 2 0 C1.67 0.99 1.34 1.98 1 3 C0.67 2.01 0.34 1.02 0 0 Z " fill="#A46436" transform="translate(192,331)"/>
<path d="M0 0 C1 4 1 4 1 4 Z " fill="#945C35" transform="translate(219,125)"/>
<path d="M0 0 C3 1 3 1 3 1 Z " fill="#935C40" transform="translate(193,1005)"/>
<path d="M0 0 C3 1 3 1 3 1 Z " fill="#915A3D" transform="translate(177,1005)"/>
<path d="M0 0 C3 1 3 1 3 1 Z " fill="#8E573C" transform="translate(206,1003)"/>
<path d="M0 0 C3 1 3 1 3 1 Z " fill="#925B3F" transform="translate(161,1003)"/>
<path d="M0 0 C3 1 3 1 3 1 Z " fill="#8A563B" transform="translate(433,957)"/>
<path d="M0 0 C0.66 0 1.32 0 2 0 C1.67 0.66 1.34 1.32 1 2 C0.67 1.34 0.34 0.68 0 0 Z " fill="#885439" transform="translate(343,946)"/>
<path d="M0 0 C3 1 3 1 3 1 Z " fill="#855339" transform="translate(514,934)"/>
<path d="" fill="#8E573C" transform="translate(0,0)"/>
<path d="" fill="#8F583B" transform="translate(0,0)"/>
<path d="" fill="#965C3F" transform="translate(0,0)"/>
<path d="" fill="#965C3D" transform="translate(0,0)"/>
<path d="M0 0 C3 1 3 1 3 1 Z " fill="#9B5E34" transform="translate(677,719)"/>
<path d="M0 0 C3 1 3 1 3 1 Z " fill="#A16337" transform="translate(672,719)"/>
<path d="M0 0 C3 1 3 1 3 1 Z " fill="#A46336" transform="translate(330,719)"/>
<path d="M0 0 C3 1 3 1 3 1 Z " fill="#A56438" transform="translate(306,718)"/>
<path d="M0 0 C0.33 0.165 0.33 0.165 2 1 C1.67 1.165 1.67 1.165 0 2 C0 1.34 0 0.68 0 0 Z " fill="#A16236" transform="translate(272,706)"/>
<path d="M0 0 C3 1 3 1 3 1 Z " fill="#9B5C2F" transform="translate(803,661)"/>
<path d="M0 0 C0.66 0.66 1.32 1.32 2 2 C1.34 2 0.68 2 0 2 C0 1.34 0 0.68 0 0 Z " fill="#9E6034" transform="translate(139,493)"/>
<path d="M0 0 C0.66 0.66 1.32 1.32 2 2 C1.34 2 0.68 2 0 2 C0 1.34 0 0.68 0 0 Z " fill="#9B6034" transform="translate(130,464)"/>
<path d="" fill="#996135" transform="translate(0,0)"/>
<path d="" fill="#9C5E33" transform="translate(0,0)"/>
<path d="M0 0 C0.33 0.66 0.66 1.32 1 2 C0.34 1.67 -0.32 1.34 -1 1 C-0.67 0.67 -0.34 0.34 0 0 Z " fill="#9A6033" transform="translate(139,418)"/>
<path d="M0 0 C0.66 0 1.32 0 2 0 C1.67 0.66 1.34 1.32 1 2 C0.67 1.34 0.34 0.68 0 0 Z " fill="#A26535" transform="translate(201,288)"/>
<path d="" fill="#A06335" transform="translate(0,0)"/>
<path d="" fill="#965E33" transform="translate(0,0)"/>
<path d="" fill="#965C37" transform="translate(0,0)"/>
<path d="" fill="#915632" transform="translate(0,0)"/>
<path d="M0 0 C0.33 0.165 0.33 0.165 2 1 C1.67 1.165 1.67 1.165 0 2 C0 1.34 0 0.68 0 0 Z " fill="#87532F" transform="translate(185,144)"/>
<path d="M0 0 C0.33 0.165 0.33 0.165 2 1 C1.67 1.165 1.67 1.165 0 2 C0 1.34 0 0.68 0 0 Z " fill="#995B30" transform="translate(278,88)"/>
<path d="M0 0 C0.66 0 1.32 0 2 0 C1.67 0.66 1.34 1.32 1 2 C0.67 1.34 0.34 0.68 0 0 Z " fill="#9F5F2F" transform="translate(710,69)"/>
<path d="M0 0 C3 1 3 1 3 1 Z " fill="#9F6032" transform="translate(700,64)"/>
<path d="M0 0 C0.33 0.66 0.66 1.32 1 2 C0.34 1.67 -0.32 1.34 -1 1 C-0.67 0.67 -0.34 0.34 0 0 Z " fill="#A06334" transform="translate(316,64)"/>
<path d="M0 0 C3 1 3 1 3 1 Z " fill="#A46131" transform="translate(376,32)"/>
<path d="M0 0 C3 1 3 1 3 1 Z " fill="#AB6734" transform="translate(407,24)"/>
<path d="" fill="#905C3D" transform="translate(0,0)"/>
<path d="M0 0 C2 1 2 1 2 1 Z " fill="#885438" transform="translate(139,998)"/>
<path d="M0 0 C2 1 2 1 2 1 Z " fill="#8E563B" transform="translate(233,997)"/>
<path d="M0 0 C2 1 2 1 2 1 Z " fill="#855235" transform="translate(136,995)"/>
<path d="M0 0 C2 1 2 1 2 1 Z " fill="#8C5639" transform="translate(251,990)"/>
<path d="" fill="#865436" transform="translate(0,0)"/>
<path d="M0 0 C2 1 2 1 2 1 Z " fill="#8E583C" transform="translate(400,958)"/>
<path d="M0 0 C2 1 2 1 2 1 Z " fill="#8B543A" transform="translate(393,957)"/>
<path d="M0 0 C2 1 2 1 2 1 Z " fill="#8B5539" transform="translate(378,955)"/>
<path d="M0 0 C2 1 2 1 2 1 Z " fill="#8E573B" transform="translate(357,951)"/>
<path d="M0 0 C2 1 2 1 2 1 Z " fill="#8C563A" transform="translate(355,950)"/>
<path d="M0 0 C2 1 2 1 2 1 Z " fill="#895438" transform="translate(346,947)"/>
<path d="M0 0 C2 1 2 1 2 1 Z " fill="#895439" transform="translate(154,936)"/>
<path d="" fill="#88543A" transform="translate(0,0)"/>
<path d="" fill="#855138" transform="translate(0,0)"/>
<path d="M0 0 C2 1 2 1 2 1 Z " fill="#8D563A" transform="translate(209,882)"/>
<path d="" fill="#935E3E" transform="translate(0,0)"/>
<path d="" fill="#895638" transform="translate(0,0)"/>
<path d="" fill="#8F5A3C" transform="translate(0,0)"/>
<path d="" fill="#8E5A3D" transform="translate(0,0)"/>
<path d="" fill="#905B3E" transform="translate(0,0)"/>
<path d="" fill="#8E5A3D" transform="translate(0,0)"/>
<path d="" fill="#8D573C" transform="translate(0,0)"/>
<path d="" fill="#955D3A" transform="translate(0,0)"/>
<path d="M0 0 C2 1 2 1 2 1 Z " fill="#925835" transform="translate(232,728)"/>
<path d="M0 0 C2 1 2 1 2 1 Z " fill="#985C37" transform="translate(211,721)"/>
<path d="M0 0 C2 1 2 1 2 1 Z " fill="#A16238" transform="translate(347,718)"/>
<path d="M0 0 C2 1 2 1 2 1 Z " fill="#9A5C32" transform="translate(705,717)"/>
<path d="M0 0 C2 1 2 1 2 1 Z " fill="#A16039" transform="translate(353,717)"/>
<path d="M0 0 C2 1 2 1 2 1 Z " fill="#A26135" transform="translate(297,716)"/>
<path d="M0 0 C2 1 2 1 2 1 Z " fill="#9F613A" transform="translate(363,715)"/>
<path d="M0 0 C2 1 2 1 2 1 Z " fill="#9A603B" transform="translate(646,714)"/>
<path d="" fill="#9E6235" transform="translate(0,0)"/>
<path d="" fill="#A06134" transform="translate(0,0)"/>
<path d="M0 0 C2 1 2 1 2 1 Z " fill="#9F6030" transform="translate(782,667)"/>
<path d="M0 0 C2 1 2 1 2 1 Z " fill="#A76434" transform="translate(230,667)"/>
<path d="M0 0 C2 1 2 1 2 1 Z " fill="#A66334" transform="translate(226,667)"/>
<path d="M0 0 C2 1 2 1 2 1 Z " fill="#9A5D32" transform="translate(804,663)"/>
<path d="M0 0 C2 1 2 1 2 1 Z " fill="#9D6033" transform="translate(815,655)"/>
<path d="M0 0 C2 1 2 1 2 1 Z " fill="#9D6235" transform="translate(179,646)"/>
<path d="" fill="#9B6034" transform="translate(0,0)"/>
<path d="" fill="#9C6235" transform="translate(0,0)"/>
<path d="" fill="#9D6236" transform="translate(0,0)"/>
<path d="" fill="#A26335" transform="translate(0,0)"/>
<path d="" fill="#9F6133" transform="translate(0,0)"/>
<path d="" fill="#9F5F33" transform="translate(0,0)"/>
<path d="" fill="#9D6134" transform="translate(0,0)"/>
<path d="" fill="#995C2F" transform="translate(0,0)"/>
<path d="" fill="#965E32" transform="translate(0,0)"/>
<path d="" fill="#975D2E" transform="translate(0,0)"/>
<path d="" fill="#A96738" transform="translate(0,0)"/>
<path d="M0 0 C2 1 2 1 2 1 Z " fill="#A36336" transform="translate(177,365)"/>
<path d="M0 0 C2 1 2 1 2 1 Z " fill="#9E6234" transform="translate(177,360)"/>
<path d="" fill="#A86837" transform="translate(0,0)"/>
<path d="" fill="#975E38" transform="translate(0,0)"/>
<path d="" fill="#955B36" transform="translate(0,0)"/>
<path d="" fill="#8F5835" transform="translate(0,0)"/>
<path d="" fill="#985F32" transform="translate(0,0)"/>
<path d="M0 0 C2 1 2 1 2 1 Z " fill="#8A5531" transform="translate(191,144)"/>
<path d="M0 0 C2 1 2 1 2 1 Z " fill="#8F5732" transform="translate(200,139)"/>
<path d="" fill="#955A36" transform="translate(0,0)"/>
<path d="M0 0 C2 1 2 1 2 1 Z " fill="#915833" transform="translate(209,136)"/>
<path d="M0 0 C2 1 2 1 2 1 Z " fill="#955B30" transform="translate(765,120)"/>
<path d="M0 0 C2 1 2 1 2 1 Z " fill="#975A2D" transform="translate(726,80)"/>
<path d="" fill="#9F6131" transform="translate(0,0)"/>
<path d="M0 0 C2 1 2 1 2 1 Z " fill="#A56330" transform="translate(651,48)"/>
<path d="M0 0 C2 1 2 1 2 1 Z " fill="#A46230" transform="translate(648,48)"/>
<path d="" fill="#A66434" transform="translate(0,0)"/>
<path d="M0 0 C2 1 2 1 2 1 Z " fill="#A05F31" transform="translate(364,40)"/>
<path d="M0 0 C2 1 2 1 2 1 Z " fill="#A16130" transform="translate(381,33)"/>
<path d="M0 0 C2 1 2 1 2 1 Z " fill="#A4612F" transform="translate(616,32)"/>
<path d="M0 0 C2 1 2 1 2 1 Z " fill="#A96535" transform="translate(383,32)"/>
<path d="M0 0 C2 1 2 1 2 1 Z " fill="#A76434" transform="translate(401,26)"/>
<path d="" fill="#A86332" transform="translate(0,0)"/>
<path d="M0 0 C2 1 2 1 2 1 Z " fill="#AC6835" transform="translate(577,19)"/>
<path d="M0 0 C2 1 2 1 2 1 Z " fill="#AA6633" transform="translate(573,18)"/>
<path d="" fill="#91593E" transform="translate(0,0)"/>
<path d="" fill="#90593C" transform="translate(0,0)"/>
<path d="" fill="#965C41" transform="translate(0,0)"/>
<path d="" fill="#90573C" transform="translate(0,0)"/>
<path d="" fill="#8E593C" transform="translate(0,0)"/>
<path d="" fill="#8F593D" transform="translate(0,0)"/>
<path d="" fill="#8B563A" transform="translate(0,0)"/>
<path d="" fill="#865336" transform="translate(0,0)"/>
<path d="" fill="#8E5739" transform="translate(0,0)"/>
<path d="" fill="#855135" transform="translate(0,0)"/>
<path d="" fill="#855235" transform="translate(0,0)"/>
<path d="" fill="#865435" transform="translate(0,0)"/>
<path d="" fill="#875136" transform="translate(0,0)"/>
<path d="" fill="#815235" transform="translate(0,0)"/>
<path d="" fill="#8B5438" transform="translate(0,0)"/>
<path d="" fill="#8B573B" transform="translate(0,0)"/>
<path d="" fill="#825133" transform="translate(0,0)"/>
<path d="" fill="#825035" transform="translate(0,0)"/>
<path d="" fill="#945A3D" transform="translate(0,0)"/>
<path d="" fill="#7B4A2E" transform="translate(0,0)"/>
<path d="" fill="#7C4D2F" transform="translate(0,0)"/>
<path d="" fill="#7A4D2F" transform="translate(0,0)"/>
<path d="" fill="#8D5639" transform="translate(0,0)"/>
<path d="" fill="#7E4D31" transform="translate(0,0)"/>
<path d="" fill="#8C5638" transform="translate(0,0)"/>
<path d="" fill="#000000" transform="translate(0,0)"/>
<path d="" fill="#8B5638" transform="translate(0,0)"/>
<path d="" fill="#76472C" transform="translate(0,0)"/>
<path d="" fill="#895539" transform="translate(0,0)"/>
<path d="" fill="#895439" transform="translate(0,0)"/>
<path d="" fill="#8A573C" transform="translate(0,0)"/>
<path d="" fill="#8A5639" transform="translate(0,0)"/>
<path d="" fill="#8C573E" transform="translate(0,0)"/>
<path d="" fill="#8C563D" transform="translate(0,0)"/>
<path d="" fill="#88553A" transform="translate(0,0)"/>
<path d="" fill="#8D573A" transform="translate(0,0)"/>
<path d="" fill="#8A5538" transform="translate(0,0)"/>
<path d="" fill="#8A563A" transform="translate(0,0)"/>
<path d="" fill="#89563B" transform="translate(0,0)"/>
<path d="" fill="#895338" transform="translate(0,0)"/>
<path d="" fill="#8D583C" transform="translate(0,0)"/>
<path d="" fill="#8A573A" transform="translate(0,0)"/>
<path d="" fill="#815034" transform="translate(0,0)"/>
<path d="" fill="#804F32" transform="translate(0,0)"/>
<path d="" fill="#865339" transform="translate(0,0)"/>
<path d="" fill="#805038" transform="translate(0,0)"/>
<path d="" fill="#885339" transform="translate(0,0)"/>
<path d="" fill="#8A5339" transform="translate(0,0)"/>
<path d="" fill="#875637" transform="translate(0,0)"/>
<path d="" fill="#875338" transform="translate(0,0)"/>
<path d="" fill="#8B5539" transform="translate(0,0)"/>
<path d="" fill="#8B553A" transform="translate(0,0)"/>
<path d="" fill="#835439" transform="translate(0,0)"/>
<path d="" fill="#825337" transform="translate(0,0)"/>
<path d="" fill="#835239" transform="translate(0,0)"/>
<path d="" fill="#835238" transform="translate(0,0)"/>
<path d="" fill="#83543A" transform="translate(0,0)"/>
<path d="" fill="#8E573C" transform="translate(0,0)"/>
<path d="" fill="#89543B" transform="translate(0,0)"/>
<path d="" fill="#87533B" transform="translate(0,0)"/>
<path d="" fill="#84533B" transform="translate(0,0)"/>
<path d="" fill="#7D4D36" transform="translate(0,0)"/>
<path d="" fill="#845239" transform="translate(0,0)"/>
<path d="" fill="#815037" transform="translate(0,0)"/>
<path d="" fill="#815138" transform="translate(0,0)"/>
<path d="" fill="#835239" transform="translate(0,0)"/>
<path d="" fill="#8A5539" transform="translate(0,0)"/>
<path d="" fill="#89553A" transform="translate(0,0)"/>
<path d="" fill="#7E4F37" transform="translate(0,0)"/>
<path d="" fill="#5B3821" transform="translate(0,0)"/>
<path d="" fill="#8C593C" transform="translate(0,0)"/>
<path d="" fill="#844F36" transform="translate(0,0)"/>
<path d="" fill="#835137" transform="translate(0,0)"/>
<path d="" fill="#8C583D" transform="translate(0,0)"/>
<path d="" fill="#834F36" transform="translate(0,0)"/>
<path d="" fill="#805137" transform="translate(0,0)"/>
<path d="" fill="#8B553D" transform="translate(0,0)"/>
<path d="" fill="#8C553B" transform="translate(0,0)"/>
<path d="" fill="#8D5538" transform="translate(0,0)"/>
<path d="" fill="#8D563A" transform="translate(0,0)"/>
<path d="" fill="#8B5438" transform="translate(0,0)"/>
<path d="" fill="#805139" transform="translate(0,0)"/>
<path d="" fill="#90583D" transform="translate(0,0)"/>
<path d="" fill="#92593F" transform="translate(0,0)"/>
<path d="" fill="#905A3D" transform="translate(0,0)"/>
<path d="" fill="#805135" transform="translate(0,0)"/>
<path d="" fill="#8F5B3E" transform="translate(0,0)"/>
<path d="" fill="#8E583D" transform="translate(0,0)"/>
<path d="" fill="#8F573B" transform="translate(0,0)"/>
<path d="" fill="#8F593D" transform="translate(0,0)"/>
<path d="" fill="#935D3E" transform="translate(0,0)"/>
<path d="" fill="#905C40" transform="translate(0,0)"/>
<path d="" fill="#865337" transform="translate(0,0)"/>
<path d="" fill="#8E573D" transform="translate(0,0)"/>
<path d="" fill="#955D3F" transform="translate(0,0)"/>
<path d="" fill="#8D583C" transform="translate(0,0)"/>
<path d="" fill="#875639" transform="translate(0,0)"/>
<path d="" fill="#8F583E" transform="translate(0,0)"/>
<path d="" fill="#925E41" transform="translate(0,0)"/>
<path d="" fill="#8C583C" transform="translate(0,0)"/>
<path d="" fill="#875538" transform="translate(0,0)"/>
<path d="" fill="#945D43" transform="translate(0,0)"/>
<path d="" fill="#8F593F" transform="translate(0,0)"/>
<path d="" fill="#935D3F" transform="translate(0,0)"/>
<path d="" fill="#895538" transform="translate(0,0)"/>
<path d="" fill="#915C3F" transform="translate(0,0)"/>
<path d="" fill="#915B3E" transform="translate(0,0)"/>
<path d="" fill="#925C3B" transform="translate(0,0)"/>
<path d="" fill="#935B40" transform="translate(0,0)"/>
<path d="" fill="#8F5A3B" transform="translate(0,0)"/>
<path d="" fill="#975E41" transform="translate(0,0)"/>
<path d="" fill="#985E43" transform="translate(0,0)"/>
<path d="" fill="#8A5638" transform="translate(0,0)"/>
<path d="" fill="#935C3B" transform="translate(0,0)"/>
<path d="" fill="#985E3E" transform="translate(0,0)"/>
<path d="" fill="#955D3E" transform="translate(0,0)"/>
<path d="" fill="#935E3E" transform="translate(0,0)"/>
<path d="" fill="#945D3D" transform="translate(0,0)"/>
<path d="" fill="#985F3C" transform="translate(0,0)"/>
<path d="" fill="#995F41" transform="translate(0,0)"/>
<path d="" fill="#915B3C" transform="translate(0,0)"/>
<path d="" fill="#995F40" transform="translate(0,0)"/>
<path d="" fill="#985F3B" transform="translate(0,0)"/>
<path d="" fill="#8D553A" transform="translate(0,0)"/>
<path d="" fill="#9F633B" transform="translate(0,0)"/>
<path d="" fill="#915938" transform="translate(0,0)"/>
<path d="" fill="#8E5838" transform="translate(0,0)"/>
<path d="" fill="#885736" transform="translate(0,0)"/>
<path d="" fill="#885433" transform="translate(0,0)"/>
<path d="" fill="#9A5E39" transform="translate(0,0)"/>
<path d="" fill="#9A5D3A" transform="translate(0,0)"/>
<path d="" fill="#9E623C" transform="translate(0,0)"/>
<path d="" fill="#9A6238" transform="translate(0,0)"/>
<path d="" fill="#9B613B" transform="translate(0,0)"/>
<path d="" fill="#A3633D" transform="translate(0,0)"/>
<path d="" fill="#9E5F3D" transform="translate(0,0)"/>
<path d="" fill="#9E603C" transform="translate(0,0)"/>
<path d="" fill="#9B613B" transform="translate(0,0)"/>
<path d="" fill="#8F5835" transform="translate(0,0)"/>
<path d="" fill="#A16234" transform="translate(0,0)"/>
<path d="" fill="#9E6036" transform="translate(0,0)"/>
<path d="" fill="#A5653A" transform="translate(0,0)"/>
<path d="" fill="#A56437" transform="translate(0,0)"/>
<path d="" fill="#A16136" transform="translate(0,0)"/>
<path d="" fill="#9F6036" transform="translate(0,0)"/>
<path d="" fill="#A46338" transform="translate(0,0)"/>
<path d="" fill="#A66639" transform="translate(0,0)"/>
<path d="" fill="#9C5E35" transform="translate(0,0)"/>
<path d="" fill="#A26339" transform="translate(0,0)"/>
<path d="" fill="#A36436" transform="translate(0,0)"/>
<path d="" fill="#9A5C31" transform="translate(0,0)"/>
<path d="" fill="#A1623B" transform="translate(0,0)"/>
<path d="" fill="#A06238" transform="translate(0,0)"/>
<path d="" fill="#9B5E32" transform="translate(0,0)"/>
<path d="" fill="#A26337" transform="translate(0,0)"/>
<path d="" fill="#A06238" transform="translate(0,0)"/>
<path d="" fill="#A36538" transform="translate(0,0)"/>
<path d="" fill="#955931" transform="translate(0,0)"/>
<path d="" fill="#9B5B31" transform="translate(0,0)"/>
<path d="" fill="#A46337" transform="translate(0,0)"/>
<path d="" fill="#A26237" transform="translate(0,0)"/>
<path d="" fill="#A36337" transform="translate(0,0)"/>
<path d="" fill="#9C5F33" transform="translate(0,0)"/>
<path d="" fill="#A46234" transform="translate(0,0)"/>
<path d="" fill="#9D5C32" transform="translate(0,0)"/>
<path d="" fill="#A05F35" transform="translate(0,0)"/>
<path d="" fill="#A06236" transform="translate(0,0)"/>
<path d="" fill="#9E5C35" transform="translate(0,0)"/>
<path d="" fill="#A46435" transform="translate(0,0)"/>
<path d="" fill="#9A5C34" transform="translate(0,0)"/>
<path d="" fill="#A16237" transform="translate(0,0)"/>
<path d="" fill="#A16132" transform="translate(0,0)"/>
<path d="" fill="#A15F34" transform="translate(0,0)"/>
<path d="" fill="#9E6031" transform="translate(0,0)"/>
<path d="" fill="#A56335" transform="translate(0,0)"/>
<path d="" fill="#A86635" transform="translate(0,0)"/>
<path d="" fill="#9B5E30" transform="translate(0,0)"/>
<path d="" fill="#A96737" transform="translate(0,0)"/>
<path d="" fill="#A06131" transform="translate(0,0)"/>
<path d="" fill="#985C2E" transform="translate(0,0)"/>
<path d="" fill="#9D6233" transform="translate(0,0)"/>
<path d="" fill="#9D5E2E" transform="translate(0,0)"/>
<path d="" fill="#9A5D30" transform="translate(0,0)"/>
<path d="" fill="#9F6032" transform="translate(0,0)"/>
<path d="" fill="#9F6134" transform="translate(0,0)"/>
<path d="" fill="#A46235" transform="translate(0,0)"/>
<path d="" fill="#945C2E" transform="translate(0,0)"/>
<path d="" fill="#A16235" transform="translate(0,0)"/>
<path d="" fill="#9F6232" transform="translate(0,0)"/>
<path d="" fill="#9D6032" transform="translate(0,0)"/>
<path d="" fill="#985D32" transform="translate(0,0)"/>
<path d="" fill="#9B5F35" transform="translate(0,0)"/>
<path d="" fill="#9C6235" transform="translate(0,0)"/>
<path d="" fill="#9A5D32" transform="translate(0,0)"/>
<path d="" fill="#A06136" transform="translate(0,0)"/>
<path d="" fill="#965C30" transform="translate(0,0)"/>
<path d="" fill="#9D6334" transform="translate(0,0)"/>
<path d="" fill="#9F6336" transform="translate(0,0)"/>
<path d="" fill="#9E6235" transform="translate(0,0)"/>
<path d="" fill="#9F6135" transform="translate(0,0)"/>
<path d="" fill="#9C5F35" transform="translate(0,0)"/>
<path d="" fill="#9A6133" transform="translate(0,0)"/>
<path d="" fill="#9B6035" transform="translate(0,0)"/>
<path d="" fill="#9D5F33" transform="translate(0,0)"/>
<path d="" fill="#9D6032" transform="translate(0,0)"/>
<path d="" fill="#9F6132" transform="translate(0,0)"/>
<path d="" fill="#9E6134" transform="translate(0,0)"/>
<path d="" fill="#A16334" transform="translate(0,0)"/>
<path d="" fill="#9E6132" transform="translate(0,0)"/>
<path d="" fill="#9F6133" transform="translate(0,0)"/>
<path d="" fill="#9E5E34" transform="translate(0,0)"/>
<path d="" fill="#985E32" transform="translate(0,0)"/>
<path d="" fill="#9D5F32" transform="translate(0,0)"/>
<path d="" fill="#995A34" transform="translate(0,0)"/>
<path d="" fill="#9D6032" transform="translate(0,0)"/>
<path d="" fill="#9C5F33" transform="translate(0,0)"/>
<path d="" fill="#9D5F33" transform="translate(0,0)"/>
<path d="" fill="#9B5E32" transform="translate(0,0)"/>
<path d="" fill="#9C5F33" transform="translate(0,0)"/>
<path d="" fill="#995F31" transform="translate(0,0)"/>
<path d="" fill="#995F33" transform="translate(0,0)"/>
<path d="" fill="#9A6136" transform="translate(0,0)"/>
<path d="" fill="#9D6237" transform="translate(0,0)"/>
<path d="" fill="#995F34" transform="translate(0,0)"/>
<path d="" fill="#9D6133" transform="translate(0,0)"/>
<path d="" fill="#985E32" transform="translate(0,0)"/>
<path d="" fill="#9C5F31" transform="translate(0,0)"/>
<path d="" fill="#9A6134" transform="translate(0,0)"/>
<path d="" fill="#975E33" transform="translate(0,0)"/>
<path d="" fill="#975E30" transform="translate(0,0)"/>
<path d="" fill="#9D6232" transform="translate(0,0)"/>
<path d="" fill="#9D5E31" transform="translate(0,0)"/>
<path d="" fill="#986132" transform="translate(0,0)"/>
<path d="" fill="#995D31" transform="translate(0,0)"/>
<path d="" fill="#985E32" transform="translate(0,0)"/>
<path d="" fill="#9A5F32" transform="translate(0,0)"/>
<path d="" fill="#965F31" transform="translate(0,0)"/>
<path d="" fill="#9C5C30" transform="translate(0,0)"/>
<path d="" fill="#995D31" transform="translate(0,0)"/>
<path d="" fill="#985E31" transform="translate(0,0)"/>
<path d="" fill="#985C31" transform="translate(0,0)"/>
<path d="" fill="#9A5F30" transform="translate(0,0)"/>
<path d="" fill="#9C6030" transform="translate(0,0)"/>
<path d="" fill="#9A5E31" transform="translate(0,0)"/>
<path d="" fill="#995F31" transform="translate(0,0)"/>
<path d="" fill="#9D6031" transform="translate(0,0)"/>
<path d="" fill="#9C5F33" transform="translate(0,0)"/>
<path d="" fill="#A16334" transform="translate(0,0)"/>
<path d="" fill="#A16433" transform="translate(0,0)"/>
<path d="" fill="#9E6132" transform="translate(0,0)"/>
<path d="" fill="#9F6133" transform="translate(0,0)"/>
<path d="" fill="#A56637" transform="translate(0,0)"/>
<path d="" fill="#A46537" transform="translate(0,0)"/>
<path d="" fill="#9F6234" transform="translate(0,0)"/>
<path d="" fill="#9F6036" transform="translate(0,0)"/>
<path d="" fill="#A26535" transform="translate(0,0)"/>
<path d="" fill="#A66839" transform="translate(0,0)"/>
<path d="" fill="#A96837" transform="translate(0,0)"/>
<path d="" fill="#A26437" transform="translate(0,0)"/>
<path d="" fill="#9F6534" transform="translate(0,0)"/>
<path d="" fill="#9E6135" transform="translate(0,0)"/>
<path d="" fill="#9E6234" transform="translate(0,0)"/>
<path d="" fill="#A76737" transform="translate(0,0)"/>
<path d="" fill="#A56336" transform="translate(0,0)"/>
<path d="" fill="#A16435" transform="translate(0,0)"/>
<path d="" fill="#9D6334" transform="translate(0,0)"/>
<path d="" fill="#9D6034" transform="translate(0,0)"/>
<path d="" fill="#975D39" transform="translate(0,0)"/>
<path d="" fill="#985E33" transform="translate(0,0)"/>
<path d="" fill="#995C34" transform="translate(0,0)"/>
<path d="" fill="#975C31" transform="translate(0,0)"/>
<path d="" fill="#985D39" transform="translate(0,0)"/>
<path d="" fill="#935B37" transform="translate(0,0)"/>
<path d="" fill="#955F35" transform="translate(0,0)"/>
<path d="" fill="#925A36" transform="translate(0,0)"/>
<path d="" fill="#8B5735" transform="translate(0,0)"/>
<path d="" fill="#935B31" transform="translate(0,0)"/>
<path d="" fill="#925735" transform="translate(0,0)"/>
<path d="" fill="#8A5330" transform="translate(0,0)"/>
<path d="" fill="#965D31" transform="translate(0,0)"/>
<path d="" fill="#8A5531" transform="translate(0,0)"/>
<path d="" fill="#8D5534" transform="translate(0,0)"/>
<path d="" fill="#8D5430" transform="translate(0,0)"/>
<path d="" fill="#875231" transform="translate(0,0)"/>
<path d="" fill="#8A5533" transform="translate(0,0)"/>
<path d="" fill="#8B5533" transform="translate(0,0)"/>
<path d="" fill="#925A34" transform="translate(0,0)"/>
<path d="" fill="#945A33" transform="translate(0,0)"/>
<path d="" fill="#905933" transform="translate(0,0)"/>
<path d="" fill="#965B2F" transform="translate(0,0)"/>
<path d="" fill="#975E32" transform="translate(0,0)"/>
<path d="" fill="#965C37" transform="translate(0,0)"/>
<path d="" fill="#975F31" transform="translate(0,0)"/>
<path d="" fill="#8E592C" transform="translate(0,0)"/>
<path d="" fill="#985B30" transform="translate(0,0)"/>
<path d="" fill="#050100" transform="translate(0,0)"/>
<path d="" fill="#905731" transform="translate(0,0)"/>
<path d="" fill="#965B2E" transform="translate(0,0)"/>
<path d="" fill="#925931" transform="translate(0,0)"/>
<path d="" fill="#925B32" transform="translate(0,0)"/>
<path d="" fill="#9F6135" transform="translate(0,0)"/>
<path d="" fill="#965C33" transform="translate(0,0)"/>
<path d="" fill="#9D5E33" transform="translate(0,0)"/>
<path d="" fill="#965B33" transform="translate(0,0)"/>
<path d="" fill="#985D30" transform="translate(0,0)"/>
<path d="" fill="#985B2E" transform="translate(0,0)"/>
<path d="" fill="#9D6035" transform="translate(0,0)"/>
<path d="" fill="#A26233" transform="translate(0,0)"/>
<path d="" fill="#9C6031" transform="translate(0,0)"/>
<path d="" fill="#A16233" transform="translate(0,0)"/>
<path d="" fill="#A16232" transform="translate(0,0)"/>
<path d="" fill="#A26234" transform="translate(0,0)"/>
<path d="" fill="#A36334" transform="translate(0,0)"/>
<path d="" fill="#A26131" transform="translate(0,0)"/>
<path d="" fill="#A26230" transform="translate(0,0)"/>
<path d="" fill="#A46232" transform="translate(0,0)"/>
<path d="" fill="#A36235" transform="translate(0,0)"/>
<path d="" fill="#A6612F" transform="translate(0,0)"/>
<path d="" fill="#A1622E" transform="translate(0,0)"/>
<path d="" fill="#A46432" transform="translate(0,0)"/>
<path d="" fill="#A36231" transform="translate(0,0)"/>
<path d="" fill="#A36332" transform="translate(0,0)"/>
<path d="" fill="#A15E30" transform="translate(0,0)"/>
<path d="" fill="#A76435" transform="translate(0,0)"/>
<path d="" fill="#A96233" transform="translate(0,0)"/>
<path d="" fill="#A56332" transform="translate(0,0)"/>
<path d="" fill="#A66431" transform="translate(0,0)"/>
<path d="" fill="#A46231" transform="translate(0,0)"/>
<path d="" fill="#A66432" transform="translate(0,0)"/>
<path d="" fill="#A46232" transform="translate(0,0)"/>
<path d="" fill="#A46130" transform="translate(0,0)"/>
<path d="" fill="#A76531" transform="translate(0,0)"/>
<path d="" fill="#A76434" transform="translate(0,0)"/>
<path d="" fill="#A46332" transform="translate(0,0)"/>
<path d="" fill="#AE6733" transform="translate(0,0)"/>
<path d="" fill="#AD6734" transform="translate(0,0)"/>
<path d="" fill="#AC6835" transform="translate(0,0)"/>
<path d="" fill="#AF6935" transform="translate(0,0)"/>
<path d="" fill="#AB6634" transform="translate(0,0)"/>
<path d="" fill="#AC6532" transform="translate(0,0)"/>
<path d="" fill="#AC6735" transform="translate(0,0)"/>
<path d="" fill="#AC6634" transform="translate(0,0)"/>
<path d="" fill="#A66231" transform="translate(0,0)"/>
<path d="" fill="#A96232" transform="translate(0,0)"/>
<path d="" fill="#A96433" transform="translate(0,0)"/>
<path d="" fill="#AB6833" transform="translate(0,0)"/>
</svg>
