<?xml version="1.0" encoding="UTF-8"?>
<!-- Generator: visioncortex VTracer 0.6.12 -->
<svg version="1.1" xmlns="http://www.w3.org/2000/svg" width="1024" height="1024">
<path d="M0 0 C337.92 0 675.84 0 1024 0 C1024 337.92 1024 675.84 1024 1024 C686.08 1024 348.16 1024 0 1024 C0 686.08 0 348.16 0 0 Z " fill="#FEFEFE" transform="translate(0,0)"/>
<path d="M0 0 C0.674 0.727 1.348 1.454 2.043 2.203 C6.744 5.06 11.543 4.547 16.938 4.562 C44.82 5.229 68.863 16.054 89.493 34.653 C90.929 35.937 92.398 37.184 93.867 38.43 C117.643 58.972 132.892 89.81 143 119 C143.138 119.39 143.138 119.39 143.839 121.364 C158.033 161.686 160.025 207.292 152.418 249.207 C149.06 271.646 155.428 295.823 168.512 314.113 C171.608 318.214 174.939 322.09 178.315 325.958 C197.095 347.53 206.974 368.111 205 397 C202.6 415.115 190.209 428.966 177.688 441.262 C170.38 448.707 164.016 455.662 163.438 466.375 C163.668 474.514 166.671 477.821 172.344 483.238 C175.61 486.238 178.962 489.124 182.352 491.984 C182.706 492.286 182.706 492.286 184.5 493.812 C185.129 494.335 185.758 494.857 186.406 495.395 C189.114 498.122 189.928 500.391 190.375 504.188 C189.44 513.695 183.659 521.666 176.938 528.188 C166.998 536.057 155.423 537.161 143.224 536.27 C138.209 535.661 133.59 534.052 129 532 C128.914 532.727 128.827 533.454 128.738 534.203 C126.642 549.201 120.863 561.02 108.688 570.312 C102.561 574.533 96.05 577.65 89 580 C87.676 582.477 87.676 582.477 86.312 585.625 C82.19 594.175 76.847 598.627 68.176 602.273 C54.835 606.728 38.848 604.811 26.441 598.75 C19.115 594.624 12.572 589.213 6 584 C6.266 584.776 6.531 585.552 6.805 586.352 C19.041 623.775 10.8 667.475 -1.153 704.091 C-4.85 716.782 -4.837 732.544 1.219 744.383 C6.776 753.738 15.701 758.293 26 761 C26.922 761.266 27.843 761.531 28.793 761.805 C32.168 762.347 33.839 762.367 37 761 C41.379 756.457 44.347 750.671 47 745 C47.571 743.876 48.142 742.752 48.73 741.594 C49.174 735.675 45.421 732.429 41.75 728.062 C40.252 726.19 38.758 724.314 37.27 722.434 C36.536 721.512 35.802 720.59 35.045 719.64 C26.824 709.028 14.339 692.259 15.508 678.215 C16.615 673.232 18.678 669.528 22 665.688 C32.849 659.585 46.264 659.833 58.354 659.87 C60.429 659.875 62.505 659.87 64.58 659.863 C71.459 659.86 78.182 660.049 85 661 C85.295 660.394 85.59 659.789 85.893 659.165 C94.82 641.703 114.122 612.939 132 604 C137.386 603.399 142.721 603.275 147.359 606.461 C159.171 617.541 163.548 637.346 167.312 652.438 C167.571 653.453 167.829 654.468 168.096 655.515 C169.146 659.796 170.098 663.901 170.297 668.312 C170.588 672.285 170.885 674.609 173 678 C178.387 681.721 184.845 683.599 190.951 685.809 C196.179 687.851 201.107 690.439 206.062 693.062 C207.035 693.576 208.007 694.089 209.009 694.618 C232.808 707.363 232.808 707.363 238.5 716.375 C239.629 722.301 239.986 727.046 236.875 732.438 C223.687 750.155 196.128 759.578 177 769 C176.95 769.941 176.9 770.882 176.848 771.851 C174.65 812.564 174.65 812.564 171.188 829.688 C171.047 830.431 170.906 831.175 170.76 831.941 C169.611 837.188 167.754 840.146 164 844 C159.511 846.822 154.118 846.798 149 846 C140.217 842.812 133.3 836.381 126.425 830.266 C124.614 828.657 122.774 827.081 120.938 825.5 C119.621 824.337 118.309 823.17 117 822 C116.041 821.145 115.082 820.291 114.094 819.41 C108.346 814.243 102.931 808.968 98 803 C97 802 97 802 93.047 801.848 C88.019 801.904 83.201 802.618 78.25 803.438 C71.753 804.483 65.527 805.087 58.946 805.059 C48.199 805.073 41.625 807.69 32.582 813.297 C18.66 821.836 1.898 825.945 -14 829 C-14.911 829.185 -15.823 829.371 -16.762 829.562 C-27.268 831.464 -37.796 831.397 -48.438 831.375 C-49.418 831.374 -50.399 831.374 -51.41 831.373 C-65.658 831.337 -79.187 830.76 -93 827 C-94.754 826.56 -96.508 826.12 -98.262 825.68 C-133.483 816.495 -164.733 799.074 -191 774 C-191.865 773.188 -192.73 772.376 -193.621 771.539 C-225.647 740.663 -242.063 695.79 -243.219 651.918 C-243.615 628.356 -240.423 608.268 -233 586 C-235.889 587.874 -238.697 589.767 -241.426 591.871 C-253.893 601.416 -267.259 606.262 -283 605 C-293.523 603.312 -302.579 599.74 -309.539 591.441 C-311.299 588.5 -311.914 585.771 -312.688 582.438 C-313.75 578.475 -314.344 576.532 -317.559 573.926 C-319.626 572.796 -321.717 571.708 -323.828 570.66 C-334.414 565.12 -341.296 555.858 -344.875 544.625 C-345.767 541.477 -346 539.357 -346 536 C-346.762 536.41 -347.524 536.82 -348.309 537.242 C-361.232 543.986 -375.024 546.772 -389.312 542.438 C-398.394 538.929 -406.316 533.993 -412 526 C-412.598 525.216 -413.196 524.433 -413.812 523.625 C-415.504 519.886 -416.479 516.107 -416 512 C-413.263 506.786 -409.785 504.076 -405 500.938 C-398.586 496.69 -393.881 492.837 -392 485 C-391.099 478.308 -393.363 473.472 -397 468 C-401.634 462.566 -406.899 458.028 -412.5 453.625 C-423.514 444.746 -432.554 433.24 -435 419 C-437.422 388.742 -426.332 369.003 -408 346 C-390.059 323.38 -378.92 301.414 -382.224 272.008 C-383.149 264.572 -384.291 257.168 -385.474 249.769 C-387.535 236.875 -388.241 224.419 -388.25 211.375 C-388.251 210.508 -388.251 209.64 -388.252 208.747 C-388.235 194.634 -387.536 180.912 -385 167 C-384.839 166.08 -384.678 165.16 -384.512 164.212 C-376.536 119.871 -356.049 78.241 -325.203 45.355 C-323.191 43.204 -321.277 40.999 -319.375 38.75 C-316.52 35.469 -313.45 32.631 -310.133 29.824 C-307.883 27.9 -305.73 25.892 -303.562 23.875 C-267.366 -8.663 -221.527 -28.241 -174 -37 C-173.167 -37.164 -172.335 -37.327 -171.477 -37.496 C-114.407 -48.388 -45.466 -37.629 0 0 Z " fill="#20100E" transform="translate(620,98)"/>
<path d="M0 0 C2.666 2.666 3.951 5.83 5.562 9.188 C14.361 27.059 25.259 42.549 39 57 C39.509 57.536 40.018 58.072 40.542 58.625 C56.071 74.874 73.928 88.701 95.094 96.801 C97 98 97 98 97.601 99.816 C97.645 100.575 97.689 101.335 97.734 102.117 C97.789 103.018 97.844 103.919 97.9 104.847 C97.933 105.887 97.966 106.928 98 108 C98.038 109.182 98.076 110.365 98.115 111.583 C98.209 115.765 98.246 119.942 98.25 124.125 C98.251 124.884 98.252 125.644 98.253 126.426 C98.232 150.124 96.206 173.846 91 197 C90.914 197.387 90.914 197.387 90.478 199.346 C85.125 222.578 74.467 241.909 58 259 C57.709 259.323 57.709 259.323 56.234 260.957 C27.37 292.081 -24.735 301.388 -64.775 304.28 C-68.681 304.611 -71.232 305.122 -74 308 C-74.5 311 -74.5 311 -74 314 C-71.849 316.119 -70.556 316.941 -67.533 317.261 C-67.079 317.237 -67.079 317.237 -64.781 317.117 C-63.772 317.081 -62.763 317.045 -61.723 317.008 C-60.66 316.964 -59.596 316.92 -58.5 316.875 C-49.237 316.693 -42.086 317.06 -34 322 C-33.134 322.473 -32.267 322.946 -31.375 323.434 C-15.377 332.758 -2.846 346.881 8.652 361.117 C11.688 364.845 14.8 368.503 17.916 372.164 C20.808 375.569 23.638 379.017 26.438 382.5 C31.671 388.927 37.271 395.015 43 401 C43.539 401.566 44.079 402.133 44.635 402.717 C48.882 407.08 53.402 410.884 58.25 414.562 C58.991 415.13 59.733 415.697 60.497 416.281 C65.41 419.976 70.4 423.026 75.891 425.805 C78.708 427.401 80.332 429.244 82 432 C82.176 432.289 82.176 432.289 83.066 433.75 C85.047 438.523 84.51 443.944 84 449 C81.883 453.47 79.168 456.348 75 459 C61.932 462.863 49.22 462.327 37 456 C33.799 454.214 30.891 452.251 28 450 C27.286 449.45 26.572 448.899 25.836 448.332 C7.899 433.469 -2.863 412.75 -5.865 389.978 C-7.578 377.221 -10.225 360.44 -19.992 351.094 C-23.131 349.384 -25.616 350.248 -29 351 C-29.66 351.33 -30.32 351.66 -31 352 C-33.343 351.278 -35.59 350.5 -37.875 349.625 C-53.306 343.858 -67.943 344.867 -83.102 351.32 C-93.024 356.322 -99.279 363.638 -105 373 C-106.84 370.736 -108.662 368.474 -110.355 366.098 C-117.77 355.742 -127.327 349.571 -139.758 346.508 C-151.756 344.629 -162.637 345.652 -174 350 C-175.998 350.674 -177.997 351.342 -180 352 C-180.371 351.484 -180.743 350.969 -181.125 350.438 C-183 349 -183 349 -185.938 349 C-190.51 350.493 -192.212 353.608 -194.527 357.699 C-200.289 369.91 -203.876 382.145 -204.812 395.625 C-206.32 415.005 -220.042 431.406 -233 445 C-233.559 445.634 -234.119 446.268 -234.695 446.922 C-242.944 455.927 -254.132 461.132 -266.191 462.312 C-275.111 462.649 -283.029 461.242 -290.062 455.5 C-294.634 449.601 -294.841 444.326 -294 437 C-291.875 429.41 -284.931 426.114 -278.629 422.281 C-273.335 419.029 -268.674 415.077 -264 411 C-263.05 410.172 -262.1 409.345 -261.121 408.492 C-256.37 404.265 -251.895 399.984 -247.801 395.117 C-245.641 392.578 -243.385 390.138 -241.125 387.688 C-237.034 383.201 -233.152 378.591 -229.336 373.871 C-225.451 369.096 -221.459 364.413 -217.468 359.727 C-215.946 357.936 -214.43 356.14 -212.914 354.344 C-200.236 339.36 -185.203 323.401 -166 317 C-163.981 316.963 -161.96 316.986 -159.941 317.043 C-158.751 317.064 -157.561 317.086 -156.334 317.107 C-153.823 317.161 -151.313 317.226 -148.803 317.303 C-147.611 317.32 -146.419 317.338 -145.191 317.355 C-144.1 317.383 -143.009 317.41 -141.885 317.438 C-138.306 316.895 -137.133 315.88 -135 313 C-135.062 309.875 -135.062 309.875 -136 307 C-138.981 305.013 -140.248 304.625 -143.673 304.134 C-144.623 303.993 -145.573 303.852 -146.551 303.708 C-147.582 303.562 -148.613 303.416 -149.676 303.266 C-151.89 302.935 -154.104 302.604 -156.318 302.273 C-159.783 301.764 -163.249 301.259 -166.716 300.761 C-208.384 294.733 -250.831 282.541 -278 248 C-290.996 229.855 -298.528 209.129 -303.25 187.438 C-303.326 187.097 -303.326 187.097 -303.708 185.372 C-307.353 167.469 -307.25 149.566 -307.125 131.375 C-307.115 128.807 -307.106 126.24 -307.098 123.672 C-307.076 117.448 -307.043 111.224 -307 105 C-301.887 102.716 -296.768 100.454 -291.609 98.273 C-290.488 97.799 -289.366 97.325 -288.211 96.836 C-287.069 96.354 -285.927 95.872 -284.75 95.375 C-283.592 94.885 -282.435 94.395 -281.242 93.891 C-276.509 91.89 -271.777 89.894 -267 88 C-266.546 88.598 -266.092 89.196 -265.625 89.812 C-253.25 100.125 -228.613 96.848 -213.73 95.645 C-193.634 93.452 -173.534 85.901 -156 76 C-154.884 75.38 -153.767 74.76 -152.617 74.121 C-148.221 71.62 -143.96 69.048 -139.875 66.062 C-137 64 -137 64 -135 64 C-136.782 69.6 -136.782 69.6 -138.125 72.062 C-139.292 74.647 -139.491 76.196 -139 79 C-134.515 83.905 -129.134 84.746 -122.816 85.258 C-94.919 86.159 -66.177 73.605 -45 56 C-44.44 55.544 -43.879 55.087 -43.302 54.617 C-26.041 40.533 -13.714 24.374 -3 5 C-2.008 3.329 -1.011 1.66 0 0 Z " fill="#FEDEC4" transform="translate(612,228)"/>
<path d="M0 0 C0.254 0.33 0.254 0.33 1.542 2 C4.483 5.57 6.557 7.739 11.214 8.582 C15.022 8.644 18.761 8.488 22.562 8.25 C25.268 8.156 27.973 8.1 30.68 8.051 C31.959 8.027 33.239 8.003 34.558 7.979 C41.228 8.02 46.822 9.444 53 12 C53.721 12.29 54.442 12.58 55.186 12.879 C67.443 17.906 77.873 24.498 88 33 C88.563 33.472 89.127 33.945 89.707 34.431 C96.977 40.619 103.246 47.383 109 55 C109.801 56.047 110.601 57.093 111.426 58.172 C131.409 84.858 142.724 116.511 149 149 C149.083 149.43 149.083 149.43 149.505 151.604 C154.559 179.121 155.18 213.094 147.918 240.25 C147 244.001 146.7 247.271 146.688 251.125 C146.671 252.283 146.654 253.44 146.637 254.633 C147.039 258.361 148.226 260.73 150 264 C150.188 266.875 150.188 266.875 150 269 C149.34 269 148.68 269 148 269 C147.732 268.455 147.464 267.909 147.188 267.348 C142.098 257.553 135.806 249.494 125 246 C120.351 245.08 115.716 244.455 111 244 C110.985 243.317 110.971 242.634 110.956 241.931 C109.767 191.767 109.767 191.767 102 184 C99 183.688 99 183.688 96 184 C93.49 187.765 93.974 190.395 94.375 194.688 C94.432 195.389 94.488 196.091 94.547 196.814 C94.688 198.544 94.843 200.272 95 202 C86.111 197.981 78.582 193.118 71 187 C69.971 186.176 68.943 185.353 67.883 184.504 C40.01 161.775 19.793 132.983 8 99 C5.197 91.197 5.197 91.197 4 90 C1.625 89.625 1.625 89.625 -1 90 C-3.946 94.028 -5.43 98.608 -7.125 103.25 C-12.287 116.889 -18.836 129.599 -28 141 C-28.399 141.505 -28.798 142.009 -29.209 142.529 C-48.199 166.406 -75.299 186.394 -105.938 191.66 C-111.614 192.29 -117.298 192.15 -123 192 C-121.25 186.045 -118.555 180.578 -115.875 175 C-115.387 173.981 -114.9 172.963 -114.397 171.913 C-110.596 164.056 -106.47 156.494 -102 149 C-100.856 146.713 -100.897 145.407 -100.938 142.875 C-100.948 142.236 -100.948 142.236 -101 139 C-104.135 138.505 -105.983 138.246 -109 139 C-111.039 140.894 -112.459 142.961 -114.047 145.246 C-128.831 166.091 -151.897 181.794 -175 192 C-175.348 192.154 -175.348 192.154 -177.107 192.933 C-194.688 200.558 -213.229 205.203 -232.438 205.188 C-232.851 205.188 -232.851 205.188 -234.941 205.189 C-240.856 205.138 -246.258 204.506 -252 203 C-249.503 199.041 -246.825 195.569 -243.685 192.103 C-237.891 185.707 -232.663 179.032 -227.75 171.938 C-227.189 171.141 -226.629 170.344 -226.051 169.523 C-223.263 165.415 -221.141 162.123 -221 157 C-222.125 155.062 -222.125 155.062 -224 154 C-226.84 154.262 -228.518 154.586 -230.703 156.461 C-231.214 157.093 -231.724 157.724 -232.25 158.375 C-232.848 159.097 -233.446 159.819 -234.062 160.562 C-235.401 162.246 -236.734 163.934 -238.062 165.625 C-258.765 191.651 -291.395 210.489 -324.251 215.823 C-329.56 216.701 -329.56 216.701 -332.02 218.371 C-333.755 221.255 -332.75 223.884 -332 227 C-329.566 228.217 -327.582 228.32 -324.875 228.562 C-323.266 228.707 -321.658 228.851 -320 229 C-320 233.95 -320 238.9 -320 244 C-321.959 244.227 -323.919 244.454 -325.938 244.688 C-332.24 245.666 -336.803 247.351 -342 251 C-342.301 251.199 -342.301 251.199 -343.824 252.203 C-349.894 256.732 -353.311 263.541 -357 270 C-357.66 269.67 -358.32 269.34 -359 269 C-359.654 266.25 -359.654 266.25 -360.219 262.57 C-360.27 262.242 -360.27 262.242 -360.531 260.579 C-360.864 258.429 -361.183 256.277 -361.5 254.125 C-361.723 252.642 -361.946 251.159 -362.169 249.675 C-362.798 245.453 -363.402 241.227 -364 237 C-364.14 236.024 -364.28 235.048 -364.424 234.043 C-372.785 173.97 -357.337 110.355 -321.143 61.635 C-319.154 59.04 -317.087 56.517 -315 54 C-314.538 53.438 -314.075 52.875 -313.599 52.296 C-303.419 39.957 -292.592 28.896 -280 19 C-278.954 18.142 -277.91 17.283 -276.867 16.422 C-205.706 -41.745 -84.861 -60.676 0 0 Z " fill="#C96039" transform="translate(611,108)"/>
<path d="M0 0 C5.284 0.663 9.956 2.27 14.922 4.098 C15.781 4.41 16.64 4.723 17.524 5.045 C19.344 5.709 21.163 6.375 22.981 7.045 C25.697 8.043 28.416 9.029 31.137 10.014 C55.075 18.745 79.048 28.677 98.695 45.277 C101 47 101 47 104.125 47.25 C108.778 46.252 112.186 43.118 115.898 40.297 C137.9 24.004 181.745 0 210 0 C210.821 2.998 211.63 5.998 212.438 9 C212.553 9.42 212.553 9.42 213.135 11.543 C222.215 45.496 213.834 84.758 203.724 117.656 C199.229 132.306 198.918 149.01 205.465 163.168 C206.904 165.832 208.427 168.414 210 171 C210.308 171.719 210.616 172.439 210.934 173.18 C212.291 175.496 213.574 175.929 216 177 C217.205 177.915 218.392 178.854 219.562 179.812 C230.547 188.179 243.323 191.52 257 190 C267.421 185.274 274.979 169.131 279.289 158.957 C280.153 155.364 280.129 153.536 279 150 C277.227 147.183 275.163 144.64 273.062 142.062 C271.867 140.543 270.674 139.021 269.484 137.496 C268.892 136.738 268.3 135.98 267.689 135.199 C261.09 126.609 255.52 117.459 250.375 107.938 C250.156 107.539 250.156 107.539 249.046 105.52 C246.765 101.174 245.435 98.043 246 93 C253.653 88.809 260.407 88.901 268.91 89.078 C271.055 89.105 273.201 89.131 275.346 89.156 C278.712 89.2 282.078 89.25 285.445 89.322 C288.704 89.389 291.963 89.424 295.223 89.453 C296.228 89.482 297.233 89.511 298.269 89.541 C305.262 89.568 305.262 89.568 308.999 86.695 C309.659 85.805 310.32 84.916 311 84 C311.504 83.391 312.007 82.782 312.526 82.154 C312.946 81.586 313.365 81.019 313.797 80.434 C314.276 79.789 314.755 79.145 315.249 78.481 C315.744 77.807 316.24 77.132 316.75 76.438 C317.012 76.084 317.012 76.084 318.339 74.298 C319.896 72.201 321.449 70.101 323 68 C331.485 56.532 340.284 45.458 350 35 C350.498 34.392 350.995 33.783 351.508 33.156 C353 32 353 32 354.941 31.867 C358.246 33.686 359.389 36.837 360.938 40.125 C361.112 40.489 361.112 40.489 361.996 42.331 C370.897 61.323 374.764 82.388 378 103 C378.869 103.279 379.738 103.558 380.634 103.846 C400.919 110.802 427.515 121.515 443 137 C443.418 139.371 443.418 139.371 443 142 C430.434 155.555 408.916 163.799 392.443 171.079 C391.387 171.549 390.33 172.02 389.242 172.504 C388.772 172.709 388.772 172.709 386.394 173.748 C382.473 175.798 382.473 175.798 381 178 C380.615 181.188 380.615 181.188 380.594 185.141 C380.574 186.608 380.554 188.075 380.534 189.543 C380.531 189.927 380.531 189.927 380.518 191.872 C380.18 235.64 380.18 235.64 373 250 C367.62 248.751 364.215 247.05 359.812 243.562 C359.259 243.125 358.705 242.688 358.134 242.237 C353.12 238.221 348.388 233.915 343.707 229.52 C341.476 227.443 339.208 225.459 336.875 223.5 C332.687 219.88 329.063 215.785 325.395 211.648 C324.604 210.774 323.814 209.9 323 209 C322.21 208.054 321.42 207.108 320.605 206.133 C318 204 318 204 315.031 203.844 C313.866 204.06 312.701 204.277 311.5 204.5 C310.084 204.733 308.667 204.96 307.25 205.184 C306.439 205.316 305.628 205.449 304.793 205.585 C299.052 206.438 293.273 206.974 287.5 207.562 C286.233 207.698 284.967 207.834 283.662 207.974 C277.737 208.594 271.89 209.089 265.933 209.156 C258.183 209.281 253.584 211.468 247.246 215.812 C230.513 227.088 209.695 231.366 190 234 C189.08 234.131 188.159 234.263 187.211 234.398 C148.938 238.894 109.584 229.243 76 211 C75.417 210.693 75.417 210.693 72.469 209.141 C34.354 188.367 6.113 153.394 -6.625 112.062 C-16.49 77.689 -18.438 33.988 -0.918 1.59 C-0.615 1.065 -0.312 0.541 0 0 Z " fill="#58C8C3" transform="translate(403,682)"/>
<path d="M0 0 C1.802 3.272 2.763 6.53 3.75 10.125 C7.954 23.977 16.477 34.73 29 42 C42.228 48.243 42.228 48.243 46.566 47.648 C50.35 47.303 52.49 47.464 56 49 C59.963 53.836 62.249 59.952 64.838 65.593 C78.124 93.125 107.612 112.663 135.528 122.93 C149.445 127.763 163.715 131.436 178 135 C174.958 138.216 171.696 140.766 168.125 143.375 C157.597 151.295 148.501 160.771 140.34 171.09 C137.484 174.642 134.5 178.069 131.5 181.5 C127.732 185.815 124.026 190.158 120.438 194.625 C115.241 201.019 109.689 207.044 104 213 C103.403 213.625 102.807 214.25 102.192 214.895 C92.814 224.659 83.466 233.366 71.625 240.125 C64.956 244 61.096 248.948 58 256 C50.015 253.754 44.654 247.034 40.227 240.406 C36.637 233.364 36.75 226.824 36.875 219.062 C36.884 217.997 36.893 216.932 36.902 215.834 C36.926 213.222 36.959 210.611 37 208 C34.62 207.424 34.62 207.424 32 207 C30.078 208.223 30.078 208.223 28.25 210.062 C18.151 219.574 7.135 225.381 -6.84 225.211 C-16.625 224.558 -24.889 220.412 -31.562 213.25 C-33 211 -33 211 -33 209 C-31.375 207.895 -29.697 206.866 -28 205.875 C-20.339 201.093 -13.646 195.907 -10.637 187.098 C-8.767 178.004 -7.981 168.092 -13 159.938 C-14.283 158.252 -15.617 156.604 -17 155 C-17.648 154.202 -18.297 153.404 -18.965 152.582 C-23.784 146.885 -29.231 142.031 -35.035 137.363 C-44.198 129.789 -50.661 119.76 -53 108 C-54.529 83.751 -42.227 65.089 -27.457 47.123 C-15.56 32.639 -6.287 17.814 0 0 Z " fill="#C96039" transform="translate(250,404)"/>
<path d="M0 0 C0.66 0 1.32 0 2 0 C2.231 0.538 2.231 0.538 3.398 3.262 C9.653 17.434 18.261 28.05 28.38 39.623 C42.816 56.218 50.14 72.409 49.182 94.498 C48.029 110.346 38.125 122.334 27.175 132.884 C16.631 143.085 7.626 154.392 7.375 169.562 C7.537 179.312 10.432 185.559 17.188 192.625 C21.197 196.432 25.475 199.813 29.934 203.078 C32.322 205.3 33.256 206.828 34 210 C32.177 215.47 27.695 219.899 23 223 C13.65 227.083 4.795 227.279 -4.75 223.812 C-8.481 222.271 -11.658 220.703 -14.812 218.188 C-18.964 215.339 -21.082 215.569 -26 216 C-27.255 218.511 -27.142 220.286 -27.176 223.094 C-27.2 224.125 -27.223 225.156 -27.248 226.219 C-27.29 228.375 -27.322 230.531 -27.342 232.688 C-27.641 243.947 -30.78 252.199 -39 260 C-44.194 264.675 -49.254 267.22 -56 269 C-56.098 268.655 -56.098 268.655 -56.594 266.91 C-60.342 255.133 -66.745 249.467 -77.157 243.572 C-83.715 239.774 -88.941 235.018 -94.295 229.695 C-96.125 227.876 -97.976 226.081 -99.828 224.285 C-106.189 218.073 -112.248 211.797 -117.762 204.809 C-120.426 201.465 -123.205 198.234 -126 195 C-129.569 190.864 -133.078 186.697 -136.5 182.438 C-141.286 176.551 -146.388 170.992 -151.603 165.485 C-152.841 164.169 -154.059 162.832 -155.273 161.492 C-161.361 154.998 -168.427 150.557 -176 146 C-173.471 143.471 -171.585 143.194 -168.129 142.301 C-166.924 141.983 -165.72 141.664 -164.479 141.337 C-163.84 141.17 -163.201 141.004 -162.542 140.832 C-137.623 134.295 -112.953 125.937 -93 109 C-92.573 108.642 -92.573 108.642 -90.41 106.828 C-78.427 96.414 -66.884 83.885 -61.344 68.711 C-59.883 64.745 -58.543 61.415 -56 58 C-52.191 56.615 -48.953 56.378 -44.91 56.215 C-32.608 55.539 -22.108 48.19 -13.684 39.652 C-3.392 27.642 -0.936 15.282 0 0 Z " fill="#C96039" transform="translate(763,395)"/>
<path d="M0 0 C2.555 2.5 4.914 5.057 7.188 7.812 C17.472 19.585 31.534 26.393 47 28.387 C60.891 28.934 76.074 24.422 86.5 15.188 C86.815 14.885 86.815 14.885 88.406 13.355 C90 12 90 12 92 12 C93.98 20.91 95.96 29.82 98 39 C92.147 41.341 86.441 43.601 80.5 45.629 C79.117 46.105 77.734 46.582 76.352 47.059 C75.642 47.304 74.932 47.549 74.2 47.801 C49.683 56.287 24.259 65.192 2.846 80.167 C1 81 1 81 -1.114 80.714 C-3.449 79.83 -5.083 78.589 -7.062 77.062 C-32.546 59.012 -64.623 49.777 -94 40 C-93.412 33.885 -92.488 28.035 -91.062 22.062 C-90.893 21.309 -90.723 20.556 -90.549 19.779 C-89.246 14.246 -89.246 14.246 -87 12 C-86.583 12.338 -86.583 12.338 -84.473 14.047 C-71.367 24.505 -59.156 29.551 -42 28 C-25.434 24.86 -12.722 18.425 -2.875 4.438 C-1.904 2.967 -0.94 1.491 0 0 Z " fill="#FDDFC5" transform="translate(506,632)"/>
<path d="M0 0 C11.395 6.663 17.063 16.609 21.312 28.75 C23.92 40.983 22.413 54.33 16.312 65.25 C10.306 74.475 3.227 80.564 -7.5 83.25 C-17.654 85.156 -25.114 83.116 -34.188 78.312 C-44.086 70.174 -51.63 58.98 -53 46 C-54.046 32.362 -50.821 19.1 -42.25 8.25 C-31.354 -3.629 -14.71 -6.803 0 0 Z " fill="#21110E" transform="translate(637,354)"/>
<path d="M0 0 C9.323 7.864 15.617 18.059 16.966 30.36 C17.802 44.808 15.56 58.155 5.746 69.352 C-0.793 76.278 -7.326 80.357 -16.984 80.874 C-27.952 81.086 -36.438 78.358 -44.629 70.789 C-54.566 60.069 -57.73 48.401 -57.504 34.172 C-56.767 22.914 -52.863 11.118 -44.254 3.352 C-31.111 -6.459 -14.258 -10.428 0 0 Z " fill="#21110E" transform="translate(412.25390625,356.6484375)"/>
<path d="M0 0 C1.746 1.609 1.746 1.609 3.438 3.75 C9.452 10.957 15.885 15.128 25.316 16.473 C28.213 16.715 31.096 16.9 34 17 C37.368 25.481 38.434 33.024 35.16 41.734 C30.65 50.541 23.388 55.478 14.215 58.609 C3.335 60.528 -7.433 59.546 -17.125 54.312 C-23.68 49.04 -28.619 43.486 -30 35 C-30.702 26.857 -31.389 18.661 -26 12 C-19.352 4.813 -9.853 0 0 0 Z " fill="#FEA190" transform="translate(363,420)"/>
<path d="M0 0 C2.012 0.5 2.012 0.5 4.188 1.25 C5.019 1.518 5.85 1.786 6.707 2.062 C15.589 5.258 20.784 9.864 25.188 18.25 C27.465 25.083 27.343 34.536 24.625 41.25 C19.978 49.864 12.522 54.747 3.391 57.863 C-8.833 60.009 -20.706 58.519 -31.125 51.625 C-36.365 47.377 -39.877 41.591 -41.688 35.125 C-41.729 34.176 -41.77 33.228 -41.812 32.25 C-41.85 31.602 -41.887 30.953 -41.926 30.285 C-42.073 26.13 -41.674 22.973 -39.812 19.25 C-36.842 18.92 -33.872 18.59 -30.812 18.25 C-30.812 17.92 -30.812 17.59 -30.812 17.25 C-30.039 17.103 -29.266 16.956 -28.469 16.805 C-18.843 14.732 -13.334 11.553 -7.312 3.812 C-4.323 0.283 -4.323 0.283 0 0 Z " fill="#FEA190" transform="translate(655.8125,419.75)"/>
<path d="M0 0 C7.123 0.565 12.525 3.936 17.328 9.168 C24.574 18.824 25.27 29.701 23.938 41.312 C21.544 53.532 13.661 62.727 3.648 69.656 C-2.406 73.355 -6.071 74.674 -13.062 74.312 C-12.54 68.963 -11.811 63.785 -10.704 58.528 C-6.942 40.582 -5.425 22.259 -4.333 3.978 C-3.949 0.19 -3.854 0.393 0 0 Z " fill="#FCDFC6" transform="translate(726.0625,364.6875)"/>
<path d="M0 0 C0.04 0.707 0.079 1.414 0.12 2.142 C1.413 24.331 3.241 46.579 9.266 68.059 C10 71 10 71 10 75 C0.695 74.818 -8.079 70.056 -14.875 63.812 C-24.813 52.858 -27.782 41.321 -27.438 27.012 C-26.916 18.313 -23.324 11.824 -17 5.938 C-11.27 1.479 -7.319 -0.147 0 0 Z " fill="#FCDFC6" transform="translate(291,365)"/>
<path d="M0 0 C0.525 0.17 1.049 0.34 1.59 0.516 C23.943 7.508 44.814 9.647 68 6 C70.333 5.664 72.666 5.33 75 5 C72.287 15.279 67.13 22.456 58 28 C46.936 33.823 35.162 36.191 22.812 32.875 C13.631 29.68 5.31 24.597 0.852 15.711 C-0.183 12.419 -0.195 9.632 -0.125 6.188 C-0.107 5.026 -0.089 3.865 -0.07 2.668 C-0.047 1.788 -0.024 0.907 0 0 Z " fill="#9E73D0" transform="translate(423,615)"/>
<path d="M0 0 C0.924 14.613 0.924 14.613 -3.395 20.262 C-10.603 28.067 -19.027 33.541 -29.918 34.168 C-43.555 34.249 -56.115 31.387 -66.469 21.77 C-70.734 16.84 -74.006 11.483 -75 5 C-73.86 5.217 -72.721 5.433 -71.547 5.656 C-50.404 9.46 -24.587 10.824 -4.758 0.875 C-3 0 -3 0 0 0 Z " fill="#9E73D1" transform="translate(591,615)"/>
<path d="M0 0 C4.175 3.62 7.629 6.964 10.203 11.906 C10.203 12.566 10.203 13.226 10.203 13.906 C-11.145 23.014 -36.3 25.892 -58.797 18.906 C-57.758 12.252 -54.531 7.28 -49.457 2.875 C-35.426 -7.329 -14.683 -10.992 0 0 Z " fill="#9E73D1" transform="translate(576.796875,591.09375)"/>
<path d="M0 0 C5.584 4.067 11.466 9.268 13.125 16.199 C13.238 16.944 13.352 17.689 13.469 18.457 C11.761 18.94 10.053 19.418 8.344 19.895 C7.392 20.161 6.441 20.428 5.461 20.703 C-12.365 25.195 -36.135 24.376 -52.531 15.457 C-54.297 13.832 -54.297 13.832 -55.531 12.457 C-49.699 3.753 -42.642 -2.557 -32.266 -5.098 C-21.03 -6.927 -9.848 -6.003 0 0 Z " fill="#9F74D1" transform="translate(482.53125,590.54296875)"/>
<path d="M0 0 C0.99 0 1.98 0 3 0 C3.163 0.579 3.163 0.579 3.988 3.508 C4.429 5.047 4.871 6.586 5.312 8.125 C5.419 8.505 5.419 8.505 5.959 10.43 C9.229 21.753 9.229 21.753 12.627 24.146 C14.595 25.226 16.583 26.192 18.625 27.125 C21.196 28.315 23.548 29.554 26 31 C26.705 33.121 26.705 33.121 27 35 C26.276 35.303 25.551 35.606 24.805 35.918 C11.555 41.659 11.555 41.659 8.312 48.625 C7.846 50.074 7.412 51.534 7 53 C6.722 53.977 6.443 54.954 6.156 55.961 C5.414 58.635 4.696 61.314 4 64 C3.34 64.165 3.34 64.165 0 65 C-0.398 63.759 -0.797 62.517 -1.207 61.238 C-1.742 59.596 -2.277 57.954 -2.812 56.312 C-2.943 55.904 -2.943 55.904 -3.604 53.838 C-7.083 43.228 -7.083 43.228 -11.305 40.523 C-12.153 40.144 -13.001 39.765 -13.875 39.375 C-14.757 38.966 -15.638 38.558 -16.547 38.137 C-17.356 37.762 -18.166 37.386 -19 37 C-20.681 36.025 -22.358 35.04 -24 34 C-23.793 32.121 -23.793 32.121 -23 30 C-20.926 28.91 -20.926 28.91 -18.312 28.062 C-12.118 25.771 -8.28 23.756 -5.375 17.5 C-4.895 16.007 -4.441 14.505 -4 13 C-3.824 12.438 -3.824 12.438 -2.934 9.594 C-1.938 6.401 -0.962 3.203 0 0 Z " fill="#FBFDFD" transform="translate(751,781)"/>
<path d="M0 0 C4.818 0.834 6.402 3.805 9.25 7.562 C14.055 13.169 19.888 16.904 27.25 18.016 C36.748 18.355 43.769 15.514 50.746 9.152 C52.965 6.807 54.581 4.323 56.25 1.562 C57.25 0.562 57.25 0.562 60.125 0.25 C63.25 0.562 63.25 0.562 65.188 2.125 C66.777 5.772 66.333 7.739 65.25 11.562 C60.053 20.549 51.878 27.325 41.906 30.25 C31.086 32.715 20.507 32.583 10.648 27.121 C4.144 22.887 -1.247 17.569 -4.75 10.562 C-4.918 8.688 -4.918 8.688 -4.938 6.562 C-4.952 5.861 -4.966 5.16 -4.98 4.438 C-4.577 1.158 -3.057 0.625 0 0 Z " fill="#1F100D" transform="translate(476.75,428.4375)"/>
<path d="M0 0 C3.69 2.505 6.291 4.9 8.688 8.688 C8.491 13.884 8.491 13.884 6.688 15.688 C0.787 15.565 -2.372 13.469 -7.125 10.121 C-12.674 6.485 -18.872 6.079 -25.312 6.688 C-26.758 7.053 -28.197 7.448 -29.625 7.875 C-33.312 8.688 -33.312 8.688 -35.812 7.625 C-37.312 5.688 -37.312 5.688 -37.938 3.25 C-37.312 0.688 -37.312 0.688 -34.75 -1.5 C-23.277 -7.549 -11.074 -6.441 0 0 Z " fill="#20110E" transform="translate(634.3125,296.3125)"/>
<path d="M0 0 C0.66 0 1.32 0 2 0 C2.231 0.808 2.461 1.616 2.699 2.449 C5.066 10.206 6.966 14.793 14.312 18.812 C15.199 19.204 16.086 19.596 17 20 C16 23 16 23 14.039 24.176 C13.641 24.363 13.641 24.363 11.625 25.312 C6.596 27.983 5.093 30.525 3.391 35.938 C2.89 37.614 2.44 39.306 2 41 C1.505 40.835 1.505 40.835 -1 40 C-1.809 37.855 -1.809 37.855 -2.438 35.188 C-4.109 29.16 -6.438 26.856 -11.75 23.75 C-12.286 23.461 -12.286 23.461 -15 22 C-14.67 21.01 -14.34 20.02 -14 19 C-12.608 18.341 -11.185 17.746 -9.75 17.188 C-5.002 14.764 -3.542 11.574 -1.938 6.688 C-1.26 4.468 -0.603 2.241 0 0 Z " fill="#F9FDFC" transform="translate(714,832)"/>
<path d="M0 0 C3.242 2.634 4.661 4.141 5.406 8.227 C5.596 12.953 5.001 16.191 2 20 C-0.359 22.359 -1.076 22.369 -4.312 22.5 C-8.116 22.39 -8.892 22.084 -12.062 19.625 C-14.913 15.458 -14.895 10.84 -14 6 C-10.538 0.345 -6.574 -1.282 0 0 Z " fill="#FCFBFA" transform="translate(412,370)"/>
<path d="M0 0 C2.868 0.626 4.444 2.223 6.094 4.594 C7.786 8.022 8.004 10.576 8.004 14.438 C6.501 18.495 5.622 20.025 2.004 22.438 C-1.089 22.837 -3.038 23.083 -5.996 22.438 C-9.57 19.396 -11.155 17.042 -11.996 12.438 C-11.996 8.101 -11.383 6.017 -8.996 2.438 C-5.816 0.318 -3.8 -0.112 0 0 Z " fill="#FBFAF9" transform="translate(608.99609375,369.5625)"/>
</svg>
