<svg version="1.1" xmlns="http://www.w3.org/2000/svg"
     width="1024" height="1024" viewBox="0 0 1024 1024">
  <!-- BandW outline placeholder for dress-up coloring: mermaid-8 -->
  <!-- Generated by scripts/generate_dressup_outlines.py -placeholder -->
  <rect width="1024" height="1024" fill="white"/>

  <!-- - Head - -->
  <ellipse cx="370" cy="300" rx="100" ry="110"
           fill="white" stroke="#000" stroke-width="3"/>

  <!-- - Eyes - -->
  <ellipse cx="340" cy="290" rx="18" ry="20"
           fill="white" stroke="#000" stroke-width="3"/>
  <ellipse cx="400" cy="290" rx="18" ry="20"
           fill="white" stroke="#000" stroke-width="3"/>
  <circle  cx="340" cy="292" r="9" fill="#000"/>
  <circle  cx="400" cy="292" r="9" fill="#000"/>
  <circle  cx="344" cy="287" r="3" fill="white"/>
  <circle  cx="404" cy="287" r="3" fill="white"/>

  <!-- - Nose - -->
  <path d="M 366,315 Q 370,320 374,315" fill="none" stroke="#000" stroke-width="2"/>

  <!-- - Mouth - -->
  <path d="M 354,330 Q 370,342 386,330" fill="none" stroke="#000" stroke-width="2.5"/>

  <!-- - Hair - -->
  <path d="M 305,80 Q 268,130 260,200 Q 254,262 268,312 Q 310,290 325,225 Q 338,158 322,80 Z M 435,80 Q 472,130 480,200 Q 486,262 472,312 Q 430,290 415,225 Q 402,158 418,80 Z"
        fill="white" stroke="#000" stroke-width="3"
        stroke-linejoin="round"/>

  <!-- - Body / torso - -->
  <path d="M 280,390 Q 260,450 265,530 L 340,535 L 340,390 Z"
        fill="white" stroke="#000" stroke-width="3"/>
  <path d="M 460,390 Q 480,450 475,530 L 400,535 L 400,390 Z"
        fill="white" stroke="#000" stroke-width="3"/>
  <path d="M 280,390 Q 295,370 340,365 L 400,365 Q 445,370 460,390"
        fill="white" stroke="#000" stroke-width="3"/>
  <rect x="340" y="365" width="60" height="170"
        fill="white" stroke="#000" stroke-width="3" rx="2"/>

  <!-- - Waist band - -->
  <path d="M 265,530 Q 310,550 370,555 Q 430,550 475,530 L 400,535 L 340,535 Z"
        fill="white" stroke="#000" stroke-width="3"/>

  <!-- - Tail - -->
  <path d="M 340,600 Q 278,654 260,726 Q 299,784 370,798 Q 441,784 480,726 Q 462,654 400,600 Z"
        fill="white" stroke="#000" stroke-width="3"
        stroke-linejoin="round"/>

  <!-- - Fins - -->
  <path d="M 260,726 Q 204,761 201,799 Q 236,804 263,776"
        fill="white" stroke="#000" stroke-width="3"/>
  <path d="M 480,726 Q 536,761 539,799 Q 504,804 477,776"
        fill="white" stroke="#000" stroke-width="3"/>

  <!-- - Arms - -->
  <path d="M 265,420 Q 220,460 215,510 Q 235,525 255,500 Q 265,460 280,435"
        fill="white" stroke="#000" stroke-width="3"/>
  <path d="M 475,420 Q 520,460 525,510 Q 505,525 485,500 Q 475,460 460,435"
        fill="white" stroke="#000" stroke-width="3"/>

  <!-- - Hands - -->
  <ellipse cx="222" cy="518" rx="18" ry="14"
           fill="white" stroke="#000" stroke-width="3"/>
  <ellipse cx="518" cy="518" rx="18" ry="14"
           fill="white" stroke="#000" stroke-width="3"/>

  <!-- - Character-specific accessory - -->
  <path d="M 268,250 Q 262,260 268,270 Q 276,270 278,260 Z" fill="none" stroke="#000" stroke-width="2"/><path d="M 472,250 Q 478,260 472,270 Q 464,270 462,260 Z" fill="none" stroke="#000" stroke-width="2"/>

  <!-- - Label (character number) - -->
  <text x="512" y="1005" font-family="sans-serif" font-size="28"
        text-anchor="middle" fill="#aaa">8</text>
</svg>
