<svg version="1.1" xmlns="http://www.w3.org/2000/svg"
     width="1024" height="1024" viewBox="0 0 1024 1024">
  <!-- BandW outline placeholder for dress-up coloring: mermaid-3 -->
  <!-- Generated by scripts/generate_dressup_outlines.py -placeholder -->
  <rect width="1024" height="1024" fill="white"/>

  <!-- - Head - -->
  <ellipse cx="370" cy="300" rx="100" ry="110"
           fill="white" stroke="#000" stroke-width="3"/>

  <!-- - Eyes - -->
  <ellipse cx="340" cy="290" rx="18" ry="20"
           fill="white" stroke="#000" stroke-width="3"/>
  <ellipse cx="400" cy="290" rx="18" ry="20"
           fill="white" stroke="#000" stroke-width="3"/>
  <circle  cx="340" cy="292" r="9" fill="#000"/>
  <circle  cx="400" cy="292" r="9" fill="#000"/>
  <circle  cx="344" cy="287" r="3" fill="white"/>
  <circle  cx="404" cy="287" r="3" fill="white"/>

  <!-- - Nose - -->
  <path d="M 366,315 Q 370,320 374,315" fill="none" stroke="#000" stroke-width="2"/>

  <!-- - Mouth - -->
  <path d="M 354,330 Q 370,342 386,330" fill="none" stroke="#000" stroke-width="2.5"/>

  <!-- - Hair - -->
  <path d="M 300,80 Q 260,130 250,200 Q 240,260 255,320 Q 310,300 330,230 Q 350,160 330,80 Z M 420,80 Q 450,150 440,230 Q 430,300 410,320 Q 400,220 410,140 Z"
        fill="white" stroke="#000" stroke-width="3"
        stroke-linejoin="round"/>

  <!-- - Body / torso - -->
  <path d="M 280,390 Q 260,450 265,530 L 340,535 L 340,390 Z"
        fill="white" stroke="#000" stroke-width="3"/>
  <path d="M 460,390 Q 480,450 475,530 L 400,535 L 400,390 Z"
        fill="white" stroke="#000" stroke-width="3"/>
  <path d="M 280,390 Q 295,370 340,365 L 400,365 Q 445,370 460,390"
        fill="white" stroke="#000" stroke-width="3"/>
  <rect x="340" y="365" width="60" height="170"
        fill="white" stroke="#000" stroke-width="3" rx="2"/>

  <!-- - Waist band - -->
  <path d="M 265,530 Q 310,550 370,555 Q 430,550 475,530 L 400,535 L 340,535 Z"
        fill="white" stroke="#000" stroke-width="3"/>

  <!-- - Tail - -->
  <path d="M 340,600 Q 280,640 260,710 Q 300,760 370,780 Q 440,760 480,710 Q 460,640 400,600 Z M 310,680 Q 290,700 295,720 M 370,670 Q 360,695 365,715 M 430,680 Q 450,700 445,720"
        fill="white" stroke="#000" stroke-width="3"
        stroke-linejoin="round"/>

  <!-- - Fins - -->
  <path d="M 260,710 Q 210,750 205,790 Q 240,800 265,775"
        fill="white" stroke="#000" stroke-width="3"/>
  <path d="M 480,710 Q 530,750 535,790 Q 500,800 475,775"
        fill="white" stroke="#000" stroke-width="3"/>

  <!-- - Arms - -->
  <path d="M 265,420 Q 220,460 215,510 Q 235,525 255,500 Q 265,460 280,435"
        fill="white" stroke="#000" stroke-width="3"/>
  <path d="M 475,420 Q 520,460 525,510 Q 505,525 485,500 Q 475,460 460,435"
        fill="white" stroke="#000" stroke-width="3"/>

  <!-- - Hands - -->
  <ellipse cx="222" cy="518" rx="18" ry="14"
           fill="white" stroke="#000" stroke-width="3"/>
  <ellipse cx="518" cy="518" rx="18" ry="14"
           fill="white" stroke="#000" stroke-width="3"/>

  <!-- - Character-specific accessory - -->
  <path d="M 350,430 Q 370,440 390,430 Q 380,450 370,455 Q 360,450 350,430 Z" fill="none" stroke="#000" stroke-width="3"/>

  <!-- - Label (character number) - -->
  <text x="512" y="1005" font-family="sans-serif" font-size="28"
        text-anchor="middle" fill="#aaa">3</text>
</svg>
